%TF.GenerationSoftware,KiCad,Pcbnew,7.0.9*%
%TF.CreationDate,2024-04-28T21:16:15+01:00*%
%TF.ProjectId,Esp32EduModular-Panel,45737033-3245-4647-954d-6f64756c6172,rev?*%
%TF.SameCoordinates,Original*%
%TF.FileFunction,Legend,Top*%
%TF.FilePolarity,Positive*%
%FSLAX46Y46*%
G04 Gerber Fmt 4.6, Leading zero omitted, Abs format (unit mm)*
G04 Created by KiCad (PCBNEW 7.0.9) date 2024-04-28 21:16:15*
%MOMM*%
%LPD*%
G01*
G04 APERTURE LIST*
%ADD10C,0.150000*%
%ADD11C,0.800000*%
%ADD12C,0.400000*%
%ADD13C,0.200000*%
%ADD14C,0.100000*%
%ADD15C,0.180000*%
G04 APERTURE END LIST*
D10*
X89012000Y-87824000D02*
X91044000Y-89856000D01*
X100076000Y-57150000D02*
G75*
G03*
X98552000Y-57150000I-762000J0D01*
G01*
X73960000Y-69387500D02*
X80772500Y-69387500D01*
X80772500Y-73652500D01*
X73960000Y-73652500D01*
X73960000Y-69387500D01*
X100000000Y-67050000D02*
X100000000Y-100000000D01*
X91839053Y-86880947D02*
X92640947Y-86079053D01*
D11*
X93993950Y-84336250D02*
X97991050Y-84336250D01*
X97991050Y-90901650D01*
X93993950Y-90901650D01*
X93993950Y-84336250D01*
D10*
X100076000Y-61214000D02*
X101600000Y-62738000D01*
X50010000Y-100000000D02*
X150000000Y-100000000D01*
X89012000Y-89856000D02*
X89012000Y-87824000D01*
D11*
X143995000Y-109247500D02*
X148020000Y-109247500D01*
X148020000Y-115810000D01*
X143995000Y-115810000D01*
X143995000Y-109247500D01*
X94025000Y-54950000D02*
X105965000Y-54950000D01*
X105965000Y-66650000D01*
X94025000Y-66650000D01*
X94025000Y-54950000D01*
D10*
X100076000Y-62738000D02*
X100076000Y-61214000D01*
D11*
X143965000Y-134247500D02*
X147990000Y-134247500D01*
X147990000Y-140810000D01*
X143965000Y-140810000D01*
X143965000Y-134247500D01*
D10*
X91044000Y-89856000D02*
X91044000Y-87824000D01*
X98552000Y-61214000D02*
X100076000Y-62738000D01*
X100076000Y-65532000D02*
X101600000Y-65532000D01*
X99314000Y-58928000D02*
X100838000Y-60452000D01*
X89075882Y-85961118D02*
X89988752Y-85048248D01*
X101835000Y-90853750D02*
X106100000Y-90853750D01*
X106100000Y-97666250D01*
X101835000Y-97666250D01*
X101835000Y-90853750D01*
X98552000Y-62738000D02*
X98552000Y-61214000D01*
X100000000Y-50000000D02*
X100000000Y-54670000D01*
X134150000Y-69357500D02*
X140962500Y-69357500D01*
X140962500Y-73622500D01*
X134150000Y-73622500D01*
X134150000Y-69357500D01*
X49990000Y-125000000D02*
X150000000Y-125000000D01*
X62795000Y-111887500D02*
X67060000Y-111887500D01*
X67060000Y-118700000D01*
X62795000Y-118700000D01*
X62795000Y-111887500D01*
X101875000Y-79847500D02*
X106140000Y-79847500D01*
X106140000Y-86660000D01*
X101875000Y-86660000D01*
X101875000Y-79847500D01*
X140290000Y-83620000D02*
X141040000Y-83620000D01*
X141040000Y-86320000D01*
X140290000Y-86320000D01*
X140290000Y-83620000D01*
G36*
X140290000Y-83620000D02*
G01*
X141040000Y-83620000D01*
X141040000Y-86320000D01*
X140290000Y-86320000D01*
X140290000Y-83620000D01*
G37*
X62780000Y-136917500D02*
X67045000Y-136917500D01*
X67045000Y-143730000D01*
X62780000Y-143730000D01*
X62780000Y-136917500D01*
X98552000Y-64008000D02*
X100076000Y-64008000D01*
X98552000Y-64770000D02*
X98552000Y-64008000D01*
X59177500Y-69405000D02*
X65990000Y-69405000D01*
X65990000Y-73670000D01*
X59177500Y-73670000D01*
X59177500Y-69405000D01*
D12*
X140112499Y-76285001D02*
X148347500Y-76285001D01*
X148347500Y-89780000D01*
X140112499Y-89780000D01*
X140112499Y-76285001D01*
D10*
X62842500Y-127927500D02*
X67107500Y-127927500D01*
X67107500Y-134740000D01*
X62842500Y-134740000D01*
X62842500Y-127927500D01*
X98298000Y-59944000D02*
X99314000Y-58928000D01*
X100076000Y-57150000D02*
G75*
G03*
X101600000Y-57150000I762000J0D01*
G01*
X100076000Y-64008000D02*
X100076000Y-65532000D01*
X142370000Y-83620000D02*
X143120000Y-83620000D01*
X143120000Y-86320000D01*
X142370000Y-86320000D01*
X142370000Y-83620000D01*
G36*
X142370000Y-83620000D02*
G01*
X143120000Y-83620000D01*
X143120000Y-86320000D01*
X142370000Y-86320000D01*
X142370000Y-83620000D01*
G37*
X89988752Y-85048248D02*
X91828188Y-86887684D01*
X50000000Y-75000000D02*
X149990000Y-75000000D01*
X91044000Y-87824000D02*
X93076000Y-89856000D01*
X101600000Y-65532000D02*
X101600000Y-64770000D01*
X100838000Y-60452000D02*
X101854000Y-59436000D01*
X62857500Y-102897500D02*
X67122500Y-102897500D01*
X67122500Y-109710000D01*
X62857500Y-109710000D01*
X62857500Y-102897500D01*
D13*
X143592857Y-105150314D02*
X144092857Y-105150314D01*
X144307143Y-105936028D02*
X143592857Y-105936028D01*
X143592857Y-105936028D02*
X143592857Y-104436028D01*
X143592857Y-104436028D02*
X144307143Y-104436028D01*
X145735715Y-104507457D02*
X145592858Y-104436028D01*
X145592858Y-104436028D02*
X145378572Y-104436028D01*
X145378572Y-104436028D02*
X145164286Y-104507457D01*
X145164286Y-104507457D02*
X145021429Y-104650314D01*
X145021429Y-104650314D02*
X144950000Y-104793171D01*
X144950000Y-104793171D02*
X144878572Y-105078885D01*
X144878572Y-105078885D02*
X144878572Y-105293171D01*
X144878572Y-105293171D02*
X144950000Y-105578885D01*
X144950000Y-105578885D02*
X145021429Y-105721742D01*
X145021429Y-105721742D02*
X145164286Y-105864600D01*
X145164286Y-105864600D02*
X145378572Y-105936028D01*
X145378572Y-105936028D02*
X145521429Y-105936028D01*
X145521429Y-105936028D02*
X145735715Y-105864600D01*
X145735715Y-105864600D02*
X145807143Y-105793171D01*
X145807143Y-105793171D02*
X145807143Y-105293171D01*
X145807143Y-105293171D02*
X145521429Y-105293171D01*
X148378572Y-105936028D02*
X147521429Y-105936028D01*
X147950000Y-105936028D02*
X147950000Y-104436028D01*
X147950000Y-104436028D02*
X147807143Y-104650314D01*
X147807143Y-104650314D02*
X147664286Y-104793171D01*
X147664286Y-104793171D02*
X147521429Y-104864600D01*
X144450000Y-106851028D02*
X144735714Y-106851028D01*
X144735714Y-106851028D02*
X144878571Y-106922457D01*
X144878571Y-106922457D02*
X145021428Y-107065314D01*
X145021428Y-107065314D02*
X145092857Y-107351028D01*
X145092857Y-107351028D02*
X145092857Y-107851028D01*
X145092857Y-107851028D02*
X145021428Y-108136742D01*
X145021428Y-108136742D02*
X144878571Y-108279600D01*
X144878571Y-108279600D02*
X144735714Y-108351028D01*
X144735714Y-108351028D02*
X144450000Y-108351028D01*
X144450000Y-108351028D02*
X144307143Y-108279600D01*
X144307143Y-108279600D02*
X144164285Y-108136742D01*
X144164285Y-108136742D02*
X144092857Y-107851028D01*
X144092857Y-107851028D02*
X144092857Y-107351028D01*
X144092857Y-107351028D02*
X144164285Y-107065314D01*
X144164285Y-107065314D02*
X144307143Y-106922457D01*
X144307143Y-106922457D02*
X144450000Y-106851028D01*
X145735714Y-106851028D02*
X145735714Y-108065314D01*
X145735714Y-108065314D02*
X145807143Y-108208171D01*
X145807143Y-108208171D02*
X145878572Y-108279600D01*
X145878572Y-108279600D02*
X146021429Y-108351028D01*
X146021429Y-108351028D02*
X146307143Y-108351028D01*
X146307143Y-108351028D02*
X146450000Y-108279600D01*
X146450000Y-108279600D02*
X146521429Y-108208171D01*
X146521429Y-108208171D02*
X146592857Y-108065314D01*
X146592857Y-108065314D02*
X146592857Y-106851028D01*
X147092858Y-106851028D02*
X147950001Y-106851028D01*
X147521429Y-108351028D02*
X147521429Y-106851028D01*
X85257143Y-121677457D02*
X85971429Y-121677457D01*
X85114286Y-122106028D02*
X85614286Y-120606028D01*
X85614286Y-120606028D02*
X86114286Y-122106028D01*
X86400000Y-120606028D02*
X87257143Y-120606028D01*
X86828571Y-122106028D02*
X86828571Y-120606028D01*
X87542857Y-120606028D02*
X88400000Y-120606028D01*
X87971428Y-122106028D02*
X87971428Y-120606028D01*
X88828571Y-121677457D02*
X89542857Y-121677457D01*
X88685714Y-122106028D02*
X89185714Y-120606028D01*
X89185714Y-120606028D02*
X89685714Y-122106028D01*
X91042856Y-121963171D02*
X90971428Y-122034600D01*
X90971428Y-122034600D02*
X90757142Y-122106028D01*
X90757142Y-122106028D02*
X90614285Y-122106028D01*
X90614285Y-122106028D02*
X90399999Y-122034600D01*
X90399999Y-122034600D02*
X90257142Y-121891742D01*
X90257142Y-121891742D02*
X90185713Y-121748885D01*
X90185713Y-121748885D02*
X90114285Y-121463171D01*
X90114285Y-121463171D02*
X90114285Y-121248885D01*
X90114285Y-121248885D02*
X90185713Y-120963171D01*
X90185713Y-120963171D02*
X90257142Y-120820314D01*
X90257142Y-120820314D02*
X90399999Y-120677457D01*
X90399999Y-120677457D02*
X90614285Y-120606028D01*
X90614285Y-120606028D02*
X90757142Y-120606028D01*
X90757142Y-120606028D02*
X90971428Y-120677457D01*
X90971428Y-120677457D02*
X91042856Y-120748885D01*
X91685713Y-122106028D02*
X91685713Y-120606028D01*
X92542856Y-122106028D02*
X91899999Y-121248885D01*
X92542856Y-120606028D02*
X91685713Y-121463171D01*
X146642742Y-88211279D02*
X146642742Y-88782707D01*
X146642742Y-88782707D02*
X147214171Y-88839850D01*
X147214171Y-88839850D02*
X147157028Y-88782707D01*
X147157028Y-88782707D02*
X147099885Y-88668422D01*
X147099885Y-88668422D02*
X147099885Y-88382707D01*
X147099885Y-88382707D02*
X147157028Y-88268422D01*
X147157028Y-88268422D02*
X147214171Y-88211279D01*
X147214171Y-88211279D02*
X147328457Y-88154136D01*
X147328457Y-88154136D02*
X147614171Y-88154136D01*
X147614171Y-88154136D02*
X147728457Y-88211279D01*
X147728457Y-88211279D02*
X147785600Y-88268422D01*
X147785600Y-88268422D02*
X147842742Y-88382707D01*
X147842742Y-88382707D02*
X147842742Y-88668422D01*
X147842742Y-88668422D02*
X147785600Y-88782707D01*
X147785600Y-88782707D02*
X147728457Y-88839850D01*
X146642742Y-87811279D02*
X147842742Y-87411279D01*
X147842742Y-87411279D02*
X146642742Y-87011279D01*
X58225565Y-114377457D02*
X58082708Y-114306028D01*
X58082708Y-114306028D02*
X57868422Y-114306028D01*
X57868422Y-114306028D02*
X57654136Y-114377457D01*
X57654136Y-114377457D02*
X57511279Y-114520314D01*
X57511279Y-114520314D02*
X57439850Y-114663171D01*
X57439850Y-114663171D02*
X57368422Y-114948885D01*
X57368422Y-114948885D02*
X57368422Y-115163171D01*
X57368422Y-115163171D02*
X57439850Y-115448885D01*
X57439850Y-115448885D02*
X57511279Y-115591742D01*
X57511279Y-115591742D02*
X57654136Y-115734600D01*
X57654136Y-115734600D02*
X57868422Y-115806028D01*
X57868422Y-115806028D02*
X58011279Y-115806028D01*
X58011279Y-115806028D02*
X58225565Y-115734600D01*
X58225565Y-115734600D02*
X58296993Y-115663171D01*
X58296993Y-115663171D02*
X58296993Y-115163171D01*
X58296993Y-115163171D02*
X58011279Y-115163171D01*
X58868422Y-115377457D02*
X59582708Y-115377457D01*
X58725565Y-115806028D02*
X59225565Y-114306028D01*
X59225565Y-114306028D02*
X59725565Y-115806028D01*
X60011279Y-114306028D02*
X60868422Y-114306028D01*
X60439850Y-115806028D02*
X60439850Y-114306028D01*
X61368421Y-115020314D02*
X61868421Y-115020314D01*
X62082707Y-115806028D02*
X61368421Y-115806028D01*
X61368421Y-115806028D02*
X61368421Y-114306028D01*
X61368421Y-114306028D02*
X62082707Y-114306028D01*
X85257143Y-146877457D02*
X85971429Y-146877457D01*
X85114286Y-147306028D02*
X85614286Y-145806028D01*
X85614286Y-145806028D02*
X86114286Y-147306028D01*
X86400000Y-145806028D02*
X87257143Y-145806028D01*
X86828571Y-147306028D02*
X86828571Y-145806028D01*
X87542857Y-145806028D02*
X88400000Y-145806028D01*
X87971428Y-147306028D02*
X87971428Y-145806028D01*
X88828571Y-146877457D02*
X89542857Y-146877457D01*
X88685714Y-147306028D02*
X89185714Y-145806028D01*
X89185714Y-145806028D02*
X89685714Y-147306028D01*
X91042856Y-147163171D02*
X90971428Y-147234600D01*
X90971428Y-147234600D02*
X90757142Y-147306028D01*
X90757142Y-147306028D02*
X90614285Y-147306028D01*
X90614285Y-147306028D02*
X90399999Y-147234600D01*
X90399999Y-147234600D02*
X90257142Y-147091742D01*
X90257142Y-147091742D02*
X90185713Y-146948885D01*
X90185713Y-146948885D02*
X90114285Y-146663171D01*
X90114285Y-146663171D02*
X90114285Y-146448885D01*
X90114285Y-146448885D02*
X90185713Y-146163171D01*
X90185713Y-146163171D02*
X90257142Y-146020314D01*
X90257142Y-146020314D02*
X90399999Y-145877457D01*
X90399999Y-145877457D02*
X90614285Y-145806028D01*
X90614285Y-145806028D02*
X90757142Y-145806028D01*
X90757142Y-145806028D02*
X90971428Y-145877457D01*
X90971428Y-145877457D02*
X91042856Y-145948885D01*
X91685713Y-147306028D02*
X91685713Y-145806028D01*
X92542856Y-147306028D02*
X91899999Y-146448885D01*
X92542856Y-145806028D02*
X91685713Y-146663171D01*
X130364285Y-122106028D02*
X129864285Y-121391742D01*
X129507142Y-122106028D02*
X129507142Y-120606028D01*
X129507142Y-120606028D02*
X130078571Y-120606028D01*
X130078571Y-120606028D02*
X130221428Y-120677457D01*
X130221428Y-120677457D02*
X130292857Y-120748885D01*
X130292857Y-120748885D02*
X130364285Y-120891742D01*
X130364285Y-120891742D02*
X130364285Y-121106028D01*
X130364285Y-121106028D02*
X130292857Y-121248885D01*
X130292857Y-121248885D02*
X130221428Y-121320314D01*
X130221428Y-121320314D02*
X130078571Y-121391742D01*
X130078571Y-121391742D02*
X129507142Y-121391742D01*
X131007142Y-121320314D02*
X131507142Y-121320314D01*
X131721428Y-122106028D02*
X131007142Y-122106028D01*
X131007142Y-122106028D02*
X131007142Y-120606028D01*
X131007142Y-120606028D02*
X131721428Y-120606028D01*
X133078571Y-122106028D02*
X132364285Y-122106028D01*
X132364285Y-122106028D02*
X132364285Y-120606028D01*
X133578571Y-121320314D02*
X134078571Y-121320314D01*
X134292857Y-122106028D02*
X133578571Y-122106028D01*
X133578571Y-122106028D02*
X133578571Y-120606028D01*
X133578571Y-120606028D02*
X134292857Y-120606028D01*
X134864286Y-121677457D02*
X135578572Y-121677457D01*
X134721429Y-122106028D02*
X135221429Y-120606028D01*
X135221429Y-120606028D02*
X135721429Y-122106028D01*
X136150000Y-122034600D02*
X136364286Y-122106028D01*
X136364286Y-122106028D02*
X136721428Y-122106028D01*
X136721428Y-122106028D02*
X136864286Y-122034600D01*
X136864286Y-122034600D02*
X136935714Y-121963171D01*
X136935714Y-121963171D02*
X137007143Y-121820314D01*
X137007143Y-121820314D02*
X137007143Y-121677457D01*
X137007143Y-121677457D02*
X136935714Y-121534600D01*
X136935714Y-121534600D02*
X136864286Y-121463171D01*
X136864286Y-121463171D02*
X136721428Y-121391742D01*
X136721428Y-121391742D02*
X136435714Y-121320314D01*
X136435714Y-121320314D02*
X136292857Y-121248885D01*
X136292857Y-121248885D02*
X136221428Y-121177457D01*
X136221428Y-121177457D02*
X136150000Y-121034600D01*
X136150000Y-121034600D02*
X136150000Y-120891742D01*
X136150000Y-120891742D02*
X136221428Y-120748885D01*
X136221428Y-120748885D02*
X136292857Y-120677457D01*
X136292857Y-120677457D02*
X136435714Y-120606028D01*
X136435714Y-120606028D02*
X136792857Y-120606028D01*
X136792857Y-120606028D02*
X137007143Y-120677457D01*
X137649999Y-121320314D02*
X138149999Y-121320314D01*
X138364285Y-122106028D02*
X137649999Y-122106028D01*
X137649999Y-122106028D02*
X137649999Y-120606028D01*
X137649999Y-120606028D02*
X138364285Y-120606028D01*
X128928570Y-91476028D02*
X128214284Y-91476028D01*
X128214284Y-91476028D02*
X128214284Y-89976028D01*
X129428570Y-91476028D02*
X129428570Y-89976028D01*
X130142856Y-91476028D02*
X130142856Y-89976028D01*
X130142856Y-89976028D02*
X130999999Y-91476028D01*
X130999999Y-91476028D02*
X130999999Y-89976028D01*
X131714285Y-90690314D02*
X132214285Y-90690314D01*
X132428571Y-91476028D02*
X131714285Y-91476028D01*
X131714285Y-91476028D02*
X131714285Y-89976028D01*
X131714285Y-89976028D02*
X132428571Y-89976028D01*
X134500000Y-89976028D02*
X134785714Y-89976028D01*
X134785714Y-89976028D02*
X134928571Y-90047457D01*
X134928571Y-90047457D02*
X135071428Y-90190314D01*
X135071428Y-90190314D02*
X135142857Y-90476028D01*
X135142857Y-90476028D02*
X135142857Y-90976028D01*
X135142857Y-90976028D02*
X135071428Y-91261742D01*
X135071428Y-91261742D02*
X134928571Y-91404600D01*
X134928571Y-91404600D02*
X134785714Y-91476028D01*
X134785714Y-91476028D02*
X134500000Y-91476028D01*
X134500000Y-91476028D02*
X134357143Y-91404600D01*
X134357143Y-91404600D02*
X134214285Y-91261742D01*
X134214285Y-91261742D02*
X134142857Y-90976028D01*
X134142857Y-90976028D02*
X134142857Y-90476028D01*
X134142857Y-90476028D02*
X134214285Y-90190314D01*
X134214285Y-90190314D02*
X134357143Y-90047457D01*
X134357143Y-90047457D02*
X134500000Y-89976028D01*
X135785714Y-89976028D02*
X135785714Y-91190314D01*
X135785714Y-91190314D02*
X135857143Y-91333171D01*
X135857143Y-91333171D02*
X135928572Y-91404600D01*
X135928572Y-91404600D02*
X136071429Y-91476028D01*
X136071429Y-91476028D02*
X136357143Y-91476028D01*
X136357143Y-91476028D02*
X136500000Y-91404600D01*
X136500000Y-91404600D02*
X136571429Y-91333171D01*
X136571429Y-91333171D02*
X136642857Y-91190314D01*
X136642857Y-91190314D02*
X136642857Y-89976028D01*
X137142858Y-89976028D02*
X138000001Y-89976028D01*
X137571429Y-91476028D02*
X137571429Y-89976028D01*
X128785714Y-92391028D02*
X129285714Y-93891028D01*
X129285714Y-93891028D02*
X129785714Y-92391028D01*
X130571428Y-92391028D02*
X130857142Y-92391028D01*
X130857142Y-92391028D02*
X130999999Y-92462457D01*
X130999999Y-92462457D02*
X131142856Y-92605314D01*
X131142856Y-92605314D02*
X131214285Y-92891028D01*
X131214285Y-92891028D02*
X131214285Y-93391028D01*
X131214285Y-93391028D02*
X131142856Y-93676742D01*
X131142856Y-93676742D02*
X130999999Y-93819600D01*
X130999999Y-93819600D02*
X130857142Y-93891028D01*
X130857142Y-93891028D02*
X130571428Y-93891028D01*
X130571428Y-93891028D02*
X130428571Y-93819600D01*
X130428571Y-93819600D02*
X130285713Y-93676742D01*
X130285713Y-93676742D02*
X130214285Y-93391028D01*
X130214285Y-93391028D02*
X130214285Y-92891028D01*
X130214285Y-92891028D02*
X130285713Y-92605314D01*
X130285713Y-92605314D02*
X130428571Y-92462457D01*
X130428571Y-92462457D02*
X130571428Y-92391028D01*
X132571428Y-93891028D02*
X131857142Y-93891028D01*
X131857142Y-93891028D02*
X131857142Y-92391028D01*
X133071428Y-92391028D02*
X133071428Y-93605314D01*
X133071428Y-93605314D02*
X133142857Y-93748171D01*
X133142857Y-93748171D02*
X133214286Y-93819600D01*
X133214286Y-93819600D02*
X133357143Y-93891028D01*
X133357143Y-93891028D02*
X133642857Y-93891028D01*
X133642857Y-93891028D02*
X133785714Y-93819600D01*
X133785714Y-93819600D02*
X133857143Y-93748171D01*
X133857143Y-93748171D02*
X133928571Y-93605314D01*
X133928571Y-93605314D02*
X133928571Y-92391028D01*
X134642857Y-93891028D02*
X134642857Y-92391028D01*
X134642857Y-92391028D02*
X135142857Y-93462457D01*
X135142857Y-93462457D02*
X135642857Y-92391028D01*
X135642857Y-92391028D02*
X135642857Y-93891028D01*
X136357143Y-93105314D02*
X136857143Y-93105314D01*
X137071429Y-93891028D02*
X136357143Y-93891028D01*
X136357143Y-93891028D02*
X136357143Y-92391028D01*
X136357143Y-92391028D02*
X137071429Y-92391028D01*
D14*
X59979122Y-148046895D02*
X59979122Y-147246895D01*
X59979122Y-148008800D02*
X59902931Y-148046895D01*
X59902931Y-148046895D02*
X59750550Y-148046895D01*
X59750550Y-148046895D02*
X59674360Y-148008800D01*
X59674360Y-148008800D02*
X59636265Y-147970704D01*
X59636265Y-147970704D02*
X59598169Y-147894514D01*
X59598169Y-147894514D02*
X59598169Y-147665942D01*
X59598169Y-147665942D02*
X59636265Y-147589752D01*
X59636265Y-147589752D02*
X59674360Y-147551657D01*
X59674360Y-147551657D02*
X59750550Y-147513561D01*
X59750550Y-147513561D02*
X59902931Y-147513561D01*
X59902931Y-147513561D02*
X59979122Y-147551657D01*
X60360075Y-148046895D02*
X60360075Y-147513561D01*
X60360075Y-147246895D02*
X60321979Y-147284990D01*
X60321979Y-147284990D02*
X60360075Y-147323085D01*
X60360075Y-147323085D02*
X60398170Y-147284990D01*
X60398170Y-147284990D02*
X60360075Y-147246895D01*
X60360075Y-147246895D02*
X60360075Y-147323085D01*
X60664836Y-147513561D02*
X60855312Y-148046895D01*
X61045789Y-147513561D02*
X60855312Y-148046895D01*
X60855312Y-148046895D02*
X60779122Y-148237371D01*
X60779122Y-148237371D02*
X60741027Y-148275466D01*
X60741027Y-148275466D02*
X60664836Y-148313561D01*
X61655313Y-148008800D02*
X61579122Y-148046895D01*
X61579122Y-148046895D02*
X61426741Y-148046895D01*
X61426741Y-148046895D02*
X61350551Y-148008800D01*
X61350551Y-148008800D02*
X61312455Y-147932609D01*
X61312455Y-147932609D02*
X61312455Y-147627847D01*
X61312455Y-147627847D02*
X61350551Y-147551657D01*
X61350551Y-147551657D02*
X61426741Y-147513561D01*
X61426741Y-147513561D02*
X61579122Y-147513561D01*
X61579122Y-147513561D02*
X61655313Y-147551657D01*
X61655313Y-147551657D02*
X61693408Y-147627847D01*
X61693408Y-147627847D02*
X61693408Y-147704038D01*
X61693408Y-147704038D02*
X61312455Y-147780228D01*
X62150550Y-148046895D02*
X62074360Y-148008800D01*
X62074360Y-148008800D02*
X62036265Y-147932609D01*
X62036265Y-147932609D02*
X62036265Y-147246895D01*
X62760075Y-148008800D02*
X62683884Y-148046895D01*
X62683884Y-148046895D02*
X62531503Y-148046895D01*
X62531503Y-148046895D02*
X62455313Y-148008800D01*
X62455313Y-148008800D02*
X62417217Y-147932609D01*
X62417217Y-147932609D02*
X62417217Y-147627847D01*
X62417217Y-147627847D02*
X62455313Y-147551657D01*
X62455313Y-147551657D02*
X62531503Y-147513561D01*
X62531503Y-147513561D02*
X62683884Y-147513561D01*
X62683884Y-147513561D02*
X62760075Y-147551657D01*
X62760075Y-147551657D02*
X62798170Y-147627847D01*
X62798170Y-147627847D02*
X62798170Y-147704038D01*
X62798170Y-147704038D02*
X62417217Y-147780228D01*
X63483884Y-148008800D02*
X63407693Y-148046895D01*
X63407693Y-148046895D02*
X63255312Y-148046895D01*
X63255312Y-148046895D02*
X63179122Y-148008800D01*
X63179122Y-148008800D02*
X63141027Y-147970704D01*
X63141027Y-147970704D02*
X63102931Y-147894514D01*
X63102931Y-147894514D02*
X63102931Y-147665942D01*
X63102931Y-147665942D02*
X63141027Y-147589752D01*
X63141027Y-147589752D02*
X63179122Y-147551657D01*
X63179122Y-147551657D02*
X63255312Y-147513561D01*
X63255312Y-147513561D02*
X63407693Y-147513561D01*
X63407693Y-147513561D02*
X63483884Y-147551657D01*
X63712455Y-147513561D02*
X64017217Y-147513561D01*
X63826741Y-147246895D02*
X63826741Y-147932609D01*
X63826741Y-147932609D02*
X63864836Y-148008800D01*
X63864836Y-148008800D02*
X63941026Y-148046895D01*
X63941026Y-148046895D02*
X64017217Y-148046895D01*
X64283884Y-148046895D02*
X64283884Y-147513561D01*
X64283884Y-147665942D02*
X64321979Y-147589752D01*
X64321979Y-147589752D02*
X64360074Y-147551657D01*
X64360074Y-147551657D02*
X64436265Y-147513561D01*
X64436265Y-147513561D02*
X64512455Y-147513561D01*
X64893407Y-148046895D02*
X64817217Y-148008800D01*
X64817217Y-148008800D02*
X64779122Y-147970704D01*
X64779122Y-147970704D02*
X64741026Y-147894514D01*
X64741026Y-147894514D02*
X64741026Y-147665942D01*
X64741026Y-147665942D02*
X64779122Y-147589752D01*
X64779122Y-147589752D02*
X64817217Y-147551657D01*
X64817217Y-147551657D02*
X64893407Y-147513561D01*
X64893407Y-147513561D02*
X65007693Y-147513561D01*
X65007693Y-147513561D02*
X65083884Y-147551657D01*
X65083884Y-147551657D02*
X65121979Y-147589752D01*
X65121979Y-147589752D02*
X65160074Y-147665942D01*
X65160074Y-147665942D02*
X65160074Y-147894514D01*
X65160074Y-147894514D02*
X65121979Y-147970704D01*
X65121979Y-147970704D02*
X65083884Y-148008800D01*
X65083884Y-148008800D02*
X65007693Y-148046895D01*
X65007693Y-148046895D02*
X64893407Y-148046895D01*
X65502932Y-148046895D02*
X65502932Y-147513561D01*
X65502932Y-147589752D02*
X65541027Y-147551657D01*
X65541027Y-147551657D02*
X65617217Y-147513561D01*
X65617217Y-147513561D02*
X65731503Y-147513561D01*
X65731503Y-147513561D02*
X65807694Y-147551657D01*
X65807694Y-147551657D02*
X65845789Y-147627847D01*
X65845789Y-147627847D02*
X65845789Y-148046895D01*
X65845789Y-147627847D02*
X65883884Y-147551657D01*
X65883884Y-147551657D02*
X65960075Y-147513561D01*
X65960075Y-147513561D02*
X66074360Y-147513561D01*
X66074360Y-147513561D02*
X66150551Y-147551657D01*
X66150551Y-147551657D02*
X66188646Y-147627847D01*
X66188646Y-147627847D02*
X66188646Y-148046895D01*
X66912456Y-147513561D02*
X66912456Y-148046895D01*
X66569599Y-147513561D02*
X66569599Y-147932609D01*
X66569599Y-147932609D02*
X66607694Y-148008800D01*
X66607694Y-148008800D02*
X66683884Y-148046895D01*
X66683884Y-148046895D02*
X66798170Y-148046895D01*
X66798170Y-148046895D02*
X66874361Y-148008800D01*
X66874361Y-148008800D02*
X66912456Y-147970704D01*
X67255313Y-148008800D02*
X67331504Y-148046895D01*
X67331504Y-148046895D02*
X67483885Y-148046895D01*
X67483885Y-148046895D02*
X67560075Y-148008800D01*
X67560075Y-148008800D02*
X67598171Y-147932609D01*
X67598171Y-147932609D02*
X67598171Y-147894514D01*
X67598171Y-147894514D02*
X67560075Y-147818323D01*
X67560075Y-147818323D02*
X67483885Y-147780228D01*
X67483885Y-147780228D02*
X67369599Y-147780228D01*
X67369599Y-147780228D02*
X67293409Y-147742133D01*
X67293409Y-147742133D02*
X67255313Y-147665942D01*
X67255313Y-147665942D02*
X67255313Y-147627847D01*
X67255313Y-147627847D02*
X67293409Y-147551657D01*
X67293409Y-147551657D02*
X67369599Y-147513561D01*
X67369599Y-147513561D02*
X67483885Y-147513561D01*
X67483885Y-147513561D02*
X67560075Y-147551657D01*
X67941028Y-148046895D02*
X67941028Y-147513561D01*
X67941028Y-147246895D02*
X67902932Y-147284990D01*
X67902932Y-147284990D02*
X67941028Y-147323085D01*
X67941028Y-147323085D02*
X67979123Y-147284990D01*
X67979123Y-147284990D02*
X67941028Y-147246895D01*
X67941028Y-147246895D02*
X67941028Y-147323085D01*
X68664837Y-148008800D02*
X68588646Y-148046895D01*
X68588646Y-148046895D02*
X68436265Y-148046895D01*
X68436265Y-148046895D02*
X68360075Y-148008800D01*
X68360075Y-148008800D02*
X68321980Y-147970704D01*
X68321980Y-147970704D02*
X68283884Y-147894514D01*
X68283884Y-147894514D02*
X68283884Y-147665942D01*
X68283884Y-147665942D02*
X68321980Y-147589752D01*
X68321980Y-147589752D02*
X68360075Y-147551657D01*
X68360075Y-147551657D02*
X68436265Y-147513561D01*
X68436265Y-147513561D02*
X68588646Y-147513561D01*
X68588646Y-147513561D02*
X68664837Y-147551657D01*
X69617218Y-147742133D02*
X70226742Y-147742133D01*
X71141027Y-147513561D02*
X71331503Y-148046895D01*
X71331503Y-148046895D02*
X71521980Y-147513561D01*
X71979123Y-147246895D02*
X72055313Y-147246895D01*
X72055313Y-147246895D02*
X72131504Y-147284990D01*
X72131504Y-147284990D02*
X72169599Y-147323085D01*
X72169599Y-147323085D02*
X72207694Y-147399276D01*
X72207694Y-147399276D02*
X72245789Y-147551657D01*
X72245789Y-147551657D02*
X72245789Y-147742133D01*
X72245789Y-147742133D02*
X72207694Y-147894514D01*
X72207694Y-147894514D02*
X72169599Y-147970704D01*
X72169599Y-147970704D02*
X72131504Y-148008800D01*
X72131504Y-148008800D02*
X72055313Y-148046895D01*
X72055313Y-148046895D02*
X71979123Y-148046895D01*
X71979123Y-148046895D02*
X71902932Y-148008800D01*
X71902932Y-148008800D02*
X71864837Y-147970704D01*
X71864837Y-147970704D02*
X71826742Y-147894514D01*
X71826742Y-147894514D02*
X71788646Y-147742133D01*
X71788646Y-147742133D02*
X71788646Y-147551657D01*
X71788646Y-147551657D02*
X71826742Y-147399276D01*
X71826742Y-147399276D02*
X71864837Y-147323085D01*
X71864837Y-147323085D02*
X71902932Y-147284990D01*
X71902932Y-147284990D02*
X71979123Y-147246895D01*
X72588647Y-147970704D02*
X72626742Y-148008800D01*
X72626742Y-148008800D02*
X72588647Y-148046895D01*
X72588647Y-148046895D02*
X72550551Y-148008800D01*
X72550551Y-148008800D02*
X72588647Y-147970704D01*
X72588647Y-147970704D02*
X72588647Y-148046895D01*
X73388646Y-148046895D02*
X72931503Y-148046895D01*
X73160075Y-148046895D02*
X73160075Y-147246895D01*
X73160075Y-147246895D02*
X73083884Y-147361180D01*
X73083884Y-147361180D02*
X73007694Y-147437371D01*
X73007694Y-147437371D02*
X72931503Y-147475466D01*
X74341028Y-147742133D02*
X74950552Y-147742133D01*
X75902932Y-147323085D02*
X75941028Y-147284990D01*
X75941028Y-147284990D02*
X76017218Y-147246895D01*
X76017218Y-147246895D02*
X76207694Y-147246895D01*
X76207694Y-147246895D02*
X76283885Y-147284990D01*
X76283885Y-147284990D02*
X76321980Y-147323085D01*
X76321980Y-147323085D02*
X76360075Y-147399276D01*
X76360075Y-147399276D02*
X76360075Y-147475466D01*
X76360075Y-147475466D02*
X76321980Y-147589752D01*
X76321980Y-147589752D02*
X75864837Y-148046895D01*
X75864837Y-148046895D02*
X76360075Y-148046895D01*
X76855314Y-147246895D02*
X76931504Y-147246895D01*
X76931504Y-147246895D02*
X77007695Y-147284990D01*
X77007695Y-147284990D02*
X77045790Y-147323085D01*
X77045790Y-147323085D02*
X77083885Y-147399276D01*
X77083885Y-147399276D02*
X77121980Y-147551657D01*
X77121980Y-147551657D02*
X77121980Y-147742133D01*
X77121980Y-147742133D02*
X77083885Y-147894514D01*
X77083885Y-147894514D02*
X77045790Y-147970704D01*
X77045790Y-147970704D02*
X77007695Y-148008800D01*
X77007695Y-148008800D02*
X76931504Y-148046895D01*
X76931504Y-148046895D02*
X76855314Y-148046895D01*
X76855314Y-148046895D02*
X76779123Y-148008800D01*
X76779123Y-148008800D02*
X76741028Y-147970704D01*
X76741028Y-147970704D02*
X76702933Y-147894514D01*
X76702933Y-147894514D02*
X76664837Y-147742133D01*
X76664837Y-147742133D02*
X76664837Y-147551657D01*
X76664837Y-147551657D02*
X76702933Y-147399276D01*
X76702933Y-147399276D02*
X76741028Y-147323085D01*
X76741028Y-147323085D02*
X76779123Y-147284990D01*
X76779123Y-147284990D02*
X76855314Y-147246895D01*
X77617219Y-147246895D02*
X77693409Y-147246895D01*
X77693409Y-147246895D02*
X77769600Y-147284990D01*
X77769600Y-147284990D02*
X77807695Y-147323085D01*
X77807695Y-147323085D02*
X77845790Y-147399276D01*
X77845790Y-147399276D02*
X77883885Y-147551657D01*
X77883885Y-147551657D02*
X77883885Y-147742133D01*
X77883885Y-147742133D02*
X77845790Y-147894514D01*
X77845790Y-147894514D02*
X77807695Y-147970704D01*
X77807695Y-147970704D02*
X77769600Y-148008800D01*
X77769600Y-148008800D02*
X77693409Y-148046895D01*
X77693409Y-148046895D02*
X77617219Y-148046895D01*
X77617219Y-148046895D02*
X77541028Y-148008800D01*
X77541028Y-148008800D02*
X77502933Y-147970704D01*
X77502933Y-147970704D02*
X77464838Y-147894514D01*
X77464838Y-147894514D02*
X77426742Y-147742133D01*
X77426742Y-147742133D02*
X77426742Y-147551657D01*
X77426742Y-147551657D02*
X77464838Y-147399276D01*
X77464838Y-147399276D02*
X77502933Y-147323085D01*
X77502933Y-147323085D02*
X77541028Y-147284990D01*
X77541028Y-147284990D02*
X77617219Y-147246895D01*
X78569600Y-147513561D02*
X78569600Y-148046895D01*
X78379124Y-147208800D02*
X78188647Y-147780228D01*
X78188647Y-147780228D02*
X78683886Y-147780228D01*
D13*
X106988720Y-93105314D02*
X107488720Y-93105314D01*
X107703006Y-93891028D02*
X106988720Y-93891028D01*
X106988720Y-93891028D02*
X106988720Y-92391028D01*
X106988720Y-92391028D02*
X107703006Y-92391028D01*
X109131578Y-92462457D02*
X108988721Y-92391028D01*
X108988721Y-92391028D02*
X108774435Y-92391028D01*
X108774435Y-92391028D02*
X108560149Y-92462457D01*
X108560149Y-92462457D02*
X108417292Y-92605314D01*
X108417292Y-92605314D02*
X108345863Y-92748171D01*
X108345863Y-92748171D02*
X108274435Y-93033885D01*
X108274435Y-93033885D02*
X108274435Y-93248171D01*
X108274435Y-93248171D02*
X108345863Y-93533885D01*
X108345863Y-93533885D02*
X108417292Y-93676742D01*
X108417292Y-93676742D02*
X108560149Y-93819600D01*
X108560149Y-93819600D02*
X108774435Y-93891028D01*
X108774435Y-93891028D02*
X108917292Y-93891028D01*
X108917292Y-93891028D02*
X109131578Y-93819600D01*
X109131578Y-93819600D02*
X109203006Y-93748171D01*
X109203006Y-93748171D02*
X109203006Y-93248171D01*
X109203006Y-93248171D02*
X108917292Y-93248171D01*
X107845863Y-96163171D02*
X107774435Y-96234600D01*
X107774435Y-96234600D02*
X107560149Y-96306028D01*
X107560149Y-96306028D02*
X107417292Y-96306028D01*
X107417292Y-96306028D02*
X107203006Y-96234600D01*
X107203006Y-96234600D02*
X107060149Y-96091742D01*
X107060149Y-96091742D02*
X106988720Y-95948885D01*
X106988720Y-95948885D02*
X106917292Y-95663171D01*
X106917292Y-95663171D02*
X106917292Y-95448885D01*
X106917292Y-95448885D02*
X106988720Y-95163171D01*
X106988720Y-95163171D02*
X107060149Y-95020314D01*
X107060149Y-95020314D02*
X107203006Y-94877457D01*
X107203006Y-94877457D02*
X107417292Y-94806028D01*
X107417292Y-94806028D02*
X107560149Y-94806028D01*
X107560149Y-94806028D02*
X107774435Y-94877457D01*
X107774435Y-94877457D02*
X107845863Y-94948885D01*
X108274435Y-94806028D02*
X108774435Y-96306028D01*
X108774435Y-96306028D02*
X109274435Y-94806028D01*
X75535714Y-66377457D02*
X76250000Y-66377457D01*
X75392857Y-66806028D02*
X75892857Y-65306028D01*
X75892857Y-65306028D02*
X76392857Y-66806028D01*
X76892856Y-66806028D02*
X76892856Y-65306028D01*
X76892856Y-65306028D02*
X77392856Y-66377457D01*
X77392856Y-66377457D02*
X77892856Y-65306028D01*
X77892856Y-65306028D02*
X77892856Y-66806028D01*
X78607142Y-66806028D02*
X78607142Y-65306028D01*
X78607142Y-65306028D02*
X79178571Y-65306028D01*
X79178571Y-65306028D02*
X79321428Y-65377457D01*
X79321428Y-65377457D02*
X79392857Y-65448885D01*
X79392857Y-65448885D02*
X79464285Y-65591742D01*
X79464285Y-65591742D02*
X79464285Y-65806028D01*
X79464285Y-65806028D02*
X79392857Y-65948885D01*
X79392857Y-65948885D02*
X79321428Y-66020314D01*
X79321428Y-66020314D02*
X79178571Y-66091742D01*
X79178571Y-66091742D02*
X78607142Y-66091742D01*
X106917292Y-82262457D02*
X107631578Y-82262457D01*
X106774435Y-82691028D02*
X107274435Y-81191028D01*
X107274435Y-81191028D02*
X107774435Y-82691028D01*
X108274434Y-81191028D02*
X108274434Y-82405314D01*
X108274434Y-82405314D02*
X108345863Y-82548171D01*
X108345863Y-82548171D02*
X108417292Y-82619600D01*
X108417292Y-82619600D02*
X108560149Y-82691028D01*
X108560149Y-82691028D02*
X108845863Y-82691028D01*
X108845863Y-82691028D02*
X108988720Y-82619600D01*
X108988720Y-82619600D02*
X109060149Y-82548171D01*
X109060149Y-82548171D02*
X109131577Y-82405314D01*
X109131577Y-82405314D02*
X109131577Y-81191028D01*
X109845863Y-82691028D02*
X109845863Y-81191028D01*
X109845863Y-81191028D02*
X110203006Y-81191028D01*
X110203006Y-81191028D02*
X110417292Y-81262457D01*
X110417292Y-81262457D02*
X110560149Y-81405314D01*
X110560149Y-81405314D02*
X110631578Y-81548171D01*
X110631578Y-81548171D02*
X110703006Y-81833885D01*
X110703006Y-81833885D02*
X110703006Y-82048171D01*
X110703006Y-82048171D02*
X110631578Y-82333885D01*
X110631578Y-82333885D02*
X110560149Y-82476742D01*
X110560149Y-82476742D02*
X110417292Y-82619600D01*
X110417292Y-82619600D02*
X110203006Y-82691028D01*
X110203006Y-82691028D02*
X109845863Y-82691028D01*
X111345863Y-82691028D02*
X111345863Y-81191028D01*
X112345864Y-81191028D02*
X112631578Y-81191028D01*
X112631578Y-81191028D02*
X112774435Y-81262457D01*
X112774435Y-81262457D02*
X112917292Y-81405314D01*
X112917292Y-81405314D02*
X112988721Y-81691028D01*
X112988721Y-81691028D02*
X112988721Y-82191028D01*
X112988721Y-82191028D02*
X112917292Y-82476742D01*
X112917292Y-82476742D02*
X112774435Y-82619600D01*
X112774435Y-82619600D02*
X112631578Y-82691028D01*
X112631578Y-82691028D02*
X112345864Y-82691028D01*
X112345864Y-82691028D02*
X112203007Y-82619600D01*
X112203007Y-82619600D02*
X112060149Y-82476742D01*
X112060149Y-82476742D02*
X111988721Y-82191028D01*
X111988721Y-82191028D02*
X111988721Y-81691028D01*
X111988721Y-81691028D02*
X112060149Y-81405314D01*
X112060149Y-81405314D02*
X112203007Y-81262457D01*
X112203007Y-81262457D02*
X112345864Y-81191028D01*
X106988720Y-85106028D02*
X106988720Y-83606028D01*
X107703006Y-85106028D02*
X107703006Y-83606028D01*
X107703006Y-83606028D02*
X108560149Y-85106028D01*
X108560149Y-85106028D02*
X108560149Y-83606028D01*
X61071428Y-94806028D02*
X60571428Y-94091742D01*
X60214285Y-94806028D02*
X60214285Y-93306028D01*
X60214285Y-93306028D02*
X60785714Y-93306028D01*
X60785714Y-93306028D02*
X60928571Y-93377457D01*
X60928571Y-93377457D02*
X61000000Y-93448885D01*
X61000000Y-93448885D02*
X61071428Y-93591742D01*
X61071428Y-93591742D02*
X61071428Y-93806028D01*
X61071428Y-93806028D02*
X61000000Y-93948885D01*
X61000000Y-93948885D02*
X60928571Y-94020314D01*
X60928571Y-94020314D02*
X60785714Y-94091742D01*
X60785714Y-94091742D02*
X60214285Y-94091742D01*
X61642857Y-94377457D02*
X62357143Y-94377457D01*
X61500000Y-94806028D02*
X62000000Y-93306028D01*
X62000000Y-93306028D02*
X62500000Y-94806028D01*
X62785714Y-93306028D02*
X63642857Y-93306028D01*
X63214285Y-94806028D02*
X63214285Y-93306028D01*
X64142856Y-94020314D02*
X64642856Y-94020314D01*
X64857142Y-94806028D02*
X64142856Y-94806028D01*
X64142856Y-94806028D02*
X64142856Y-93306028D01*
X64142856Y-93306028D02*
X64857142Y-93306028D01*
D12*
X71857142Y-128356819D02*
X72523809Y-128356819D01*
X72809523Y-129404438D02*
X71857142Y-129404438D01*
X71857142Y-129404438D02*
X71857142Y-127404438D01*
X71857142Y-127404438D02*
X72809523Y-127404438D01*
X74714285Y-127499676D02*
X74523809Y-127404438D01*
X74523809Y-127404438D02*
X74238095Y-127404438D01*
X74238095Y-127404438D02*
X73952380Y-127499676D01*
X73952380Y-127499676D02*
X73761904Y-127690152D01*
X73761904Y-127690152D02*
X73666666Y-127880628D01*
X73666666Y-127880628D02*
X73571428Y-128261580D01*
X73571428Y-128261580D02*
X73571428Y-128547295D01*
X73571428Y-128547295D02*
X73666666Y-128928247D01*
X73666666Y-128928247D02*
X73761904Y-129118723D01*
X73761904Y-129118723D02*
X73952380Y-129309200D01*
X73952380Y-129309200D02*
X74238095Y-129404438D01*
X74238095Y-129404438D02*
X74428571Y-129404438D01*
X74428571Y-129404438D02*
X74714285Y-129309200D01*
X74714285Y-129309200D02*
X74809523Y-129213961D01*
X74809523Y-129213961D02*
X74809523Y-128547295D01*
X74809523Y-128547295D02*
X74428571Y-128547295D01*
X77095238Y-127594914D02*
X77190476Y-127499676D01*
X77190476Y-127499676D02*
X77380952Y-127404438D01*
X77380952Y-127404438D02*
X77857143Y-127404438D01*
X77857143Y-127404438D02*
X78047619Y-127499676D01*
X78047619Y-127499676D02*
X78142857Y-127594914D01*
X78142857Y-127594914D02*
X78238095Y-127785390D01*
X78238095Y-127785390D02*
X78238095Y-127975866D01*
X78238095Y-127975866D02*
X78142857Y-128261580D01*
X78142857Y-128261580D02*
X77000000Y-129404438D01*
X77000000Y-129404438D02*
X78238095Y-129404438D01*
D13*
X100935714Y-122106028D02*
X100935714Y-120606028D01*
X100935714Y-120606028D02*
X101292857Y-120606028D01*
X101292857Y-120606028D02*
X101507143Y-120677457D01*
X101507143Y-120677457D02*
X101650000Y-120820314D01*
X101650000Y-120820314D02*
X101721429Y-120963171D01*
X101721429Y-120963171D02*
X101792857Y-121248885D01*
X101792857Y-121248885D02*
X101792857Y-121463171D01*
X101792857Y-121463171D02*
X101721429Y-121748885D01*
X101721429Y-121748885D02*
X101650000Y-121891742D01*
X101650000Y-121891742D02*
X101507143Y-122034600D01*
X101507143Y-122034600D02*
X101292857Y-122106028D01*
X101292857Y-122106028D02*
X100935714Y-122106028D01*
X102435714Y-121320314D02*
X102935714Y-121320314D01*
X103150000Y-122106028D02*
X102435714Y-122106028D01*
X102435714Y-122106028D02*
X102435714Y-120606028D01*
X102435714Y-120606028D02*
X103150000Y-120606028D01*
X104507143Y-122106028D02*
X103792857Y-122106028D01*
X103792857Y-122106028D02*
X103792857Y-120606028D01*
X104935715Y-121677457D02*
X105650001Y-121677457D01*
X104792858Y-122106028D02*
X105292858Y-120606028D01*
X105292858Y-120606028D02*
X105792858Y-122106028D01*
X106578572Y-121391742D02*
X106578572Y-122106028D01*
X106078572Y-120606028D02*
X106578572Y-121391742D01*
X106578572Y-121391742D02*
X107078572Y-120606028D01*
X59642856Y-66806028D02*
X59642856Y-65306028D01*
X59642856Y-65306028D02*
X60214285Y-65306028D01*
X60214285Y-65306028D02*
X60357142Y-65377457D01*
X60357142Y-65377457D02*
X60428571Y-65448885D01*
X60428571Y-65448885D02*
X60499999Y-65591742D01*
X60499999Y-65591742D02*
X60499999Y-65806028D01*
X60499999Y-65806028D02*
X60428571Y-65948885D01*
X60428571Y-65948885D02*
X60357142Y-66020314D01*
X60357142Y-66020314D02*
X60214285Y-66091742D01*
X60214285Y-66091742D02*
X59642856Y-66091742D01*
X61142856Y-66806028D02*
X61142856Y-65306028D01*
X61642857Y-65306028D02*
X62500000Y-65306028D01*
X62071428Y-66806028D02*
X62071428Y-65306028D01*
X63857142Y-66663171D02*
X63785714Y-66734600D01*
X63785714Y-66734600D02*
X63571428Y-66806028D01*
X63571428Y-66806028D02*
X63428571Y-66806028D01*
X63428571Y-66806028D02*
X63214285Y-66734600D01*
X63214285Y-66734600D02*
X63071428Y-66591742D01*
X63071428Y-66591742D02*
X62999999Y-66448885D01*
X62999999Y-66448885D02*
X62928571Y-66163171D01*
X62928571Y-66163171D02*
X62928571Y-65948885D01*
X62928571Y-65948885D02*
X62999999Y-65663171D01*
X62999999Y-65663171D02*
X63071428Y-65520314D01*
X63071428Y-65520314D02*
X63214285Y-65377457D01*
X63214285Y-65377457D02*
X63428571Y-65306028D01*
X63428571Y-65306028D02*
X63571428Y-65306028D01*
X63571428Y-65306028D02*
X63785714Y-65377457D01*
X63785714Y-65377457D02*
X63857142Y-65448885D01*
X64499999Y-66806028D02*
X64499999Y-65306028D01*
X64499999Y-66020314D02*
X65357142Y-66020314D01*
X65357142Y-66806028D02*
X65357142Y-65306028D01*
D12*
X91714285Y-77904438D02*
X90761904Y-77904438D01*
X90761904Y-77904438D02*
X90761904Y-75904438D01*
X93047619Y-76856819D02*
X92380952Y-76856819D01*
X92380952Y-77904438D02*
X92380952Y-75904438D01*
X92380952Y-75904438D02*
X93333333Y-75904438D01*
X94476190Y-75904438D02*
X94857143Y-75904438D01*
X94857143Y-75904438D02*
X95047619Y-75999676D01*
X95047619Y-75999676D02*
X95238095Y-76190152D01*
X95238095Y-76190152D02*
X95333333Y-76571104D01*
X95333333Y-76571104D02*
X95333333Y-77237771D01*
X95333333Y-77237771D02*
X95238095Y-77618723D01*
X95238095Y-77618723D02*
X95047619Y-77809200D01*
X95047619Y-77809200D02*
X94857143Y-77904438D01*
X94857143Y-77904438D02*
X94476190Y-77904438D01*
X94476190Y-77904438D02*
X94285714Y-77809200D01*
X94285714Y-77809200D02*
X94095238Y-77618723D01*
X94095238Y-77618723D02*
X94000000Y-77237771D01*
X94000000Y-77237771D02*
X94000000Y-76571104D01*
X94000000Y-76571104D02*
X94095238Y-76190152D01*
X94095238Y-76190152D02*
X94285714Y-75999676D01*
X94285714Y-75999676D02*
X94476190Y-75904438D01*
D13*
X114614286Y-122034600D02*
X114828572Y-122106028D01*
X114828572Y-122106028D02*
X115185714Y-122106028D01*
X115185714Y-122106028D02*
X115328572Y-122034600D01*
X115328572Y-122034600D02*
X115400000Y-121963171D01*
X115400000Y-121963171D02*
X115471429Y-121820314D01*
X115471429Y-121820314D02*
X115471429Y-121677457D01*
X115471429Y-121677457D02*
X115400000Y-121534600D01*
X115400000Y-121534600D02*
X115328572Y-121463171D01*
X115328572Y-121463171D02*
X115185714Y-121391742D01*
X115185714Y-121391742D02*
X114900000Y-121320314D01*
X114900000Y-121320314D02*
X114757143Y-121248885D01*
X114757143Y-121248885D02*
X114685714Y-121177457D01*
X114685714Y-121177457D02*
X114614286Y-121034600D01*
X114614286Y-121034600D02*
X114614286Y-120891742D01*
X114614286Y-120891742D02*
X114685714Y-120748885D01*
X114685714Y-120748885D02*
X114757143Y-120677457D01*
X114757143Y-120677457D02*
X114900000Y-120606028D01*
X114900000Y-120606028D02*
X115257143Y-120606028D01*
X115257143Y-120606028D02*
X115471429Y-120677457D01*
X116114285Y-120606028D02*
X116114285Y-121820314D01*
X116114285Y-121820314D02*
X116185714Y-121963171D01*
X116185714Y-121963171D02*
X116257143Y-122034600D01*
X116257143Y-122034600D02*
X116400000Y-122106028D01*
X116400000Y-122106028D02*
X116685714Y-122106028D01*
X116685714Y-122106028D02*
X116828571Y-122034600D01*
X116828571Y-122034600D02*
X116900000Y-121963171D01*
X116900000Y-121963171D02*
X116971428Y-121820314D01*
X116971428Y-121820314D02*
X116971428Y-120606028D01*
X117614286Y-122034600D02*
X117828572Y-122106028D01*
X117828572Y-122106028D02*
X118185714Y-122106028D01*
X118185714Y-122106028D02*
X118328572Y-122034600D01*
X118328572Y-122034600D02*
X118400000Y-121963171D01*
X118400000Y-121963171D02*
X118471429Y-121820314D01*
X118471429Y-121820314D02*
X118471429Y-121677457D01*
X118471429Y-121677457D02*
X118400000Y-121534600D01*
X118400000Y-121534600D02*
X118328572Y-121463171D01*
X118328572Y-121463171D02*
X118185714Y-121391742D01*
X118185714Y-121391742D02*
X117900000Y-121320314D01*
X117900000Y-121320314D02*
X117757143Y-121248885D01*
X117757143Y-121248885D02*
X117685714Y-121177457D01*
X117685714Y-121177457D02*
X117614286Y-121034600D01*
X117614286Y-121034600D02*
X117614286Y-120891742D01*
X117614286Y-120891742D02*
X117685714Y-120748885D01*
X117685714Y-120748885D02*
X117757143Y-120677457D01*
X117757143Y-120677457D02*
X117900000Y-120606028D01*
X117900000Y-120606028D02*
X118257143Y-120606028D01*
X118257143Y-120606028D02*
X118471429Y-120677457D01*
X118900000Y-120606028D02*
X119757143Y-120606028D01*
X119328571Y-122106028D02*
X119328571Y-120606028D01*
X120185714Y-121677457D02*
X120900000Y-121677457D01*
X120042857Y-122106028D02*
X120542857Y-120606028D01*
X120542857Y-120606028D02*
X121042857Y-122106028D01*
X121542856Y-122106028D02*
X121542856Y-120606028D01*
X122257142Y-122106028D02*
X122257142Y-120606028D01*
X122257142Y-120606028D02*
X123114285Y-122106028D01*
X123114285Y-122106028D02*
X123114285Y-120606028D01*
X143662857Y-129910314D02*
X144162857Y-129910314D01*
X144377143Y-130696028D02*
X143662857Y-130696028D01*
X143662857Y-130696028D02*
X143662857Y-129196028D01*
X143662857Y-129196028D02*
X144377143Y-129196028D01*
X145805715Y-129267457D02*
X145662858Y-129196028D01*
X145662858Y-129196028D02*
X145448572Y-129196028D01*
X145448572Y-129196028D02*
X145234286Y-129267457D01*
X145234286Y-129267457D02*
X145091429Y-129410314D01*
X145091429Y-129410314D02*
X145020000Y-129553171D01*
X145020000Y-129553171D02*
X144948572Y-129838885D01*
X144948572Y-129838885D02*
X144948572Y-130053171D01*
X144948572Y-130053171D02*
X145020000Y-130338885D01*
X145020000Y-130338885D02*
X145091429Y-130481742D01*
X145091429Y-130481742D02*
X145234286Y-130624600D01*
X145234286Y-130624600D02*
X145448572Y-130696028D01*
X145448572Y-130696028D02*
X145591429Y-130696028D01*
X145591429Y-130696028D02*
X145805715Y-130624600D01*
X145805715Y-130624600D02*
X145877143Y-130553171D01*
X145877143Y-130553171D02*
X145877143Y-130053171D01*
X145877143Y-130053171D02*
X145591429Y-130053171D01*
X147591429Y-129338885D02*
X147662857Y-129267457D01*
X147662857Y-129267457D02*
X147805715Y-129196028D01*
X147805715Y-129196028D02*
X148162857Y-129196028D01*
X148162857Y-129196028D02*
X148305715Y-129267457D01*
X148305715Y-129267457D02*
X148377143Y-129338885D01*
X148377143Y-129338885D02*
X148448572Y-129481742D01*
X148448572Y-129481742D02*
X148448572Y-129624600D01*
X148448572Y-129624600D02*
X148377143Y-129838885D01*
X148377143Y-129838885D02*
X147520000Y-130696028D01*
X147520000Y-130696028D02*
X148448572Y-130696028D01*
X144520000Y-131611028D02*
X144805714Y-131611028D01*
X144805714Y-131611028D02*
X144948571Y-131682457D01*
X144948571Y-131682457D02*
X145091428Y-131825314D01*
X145091428Y-131825314D02*
X145162857Y-132111028D01*
X145162857Y-132111028D02*
X145162857Y-132611028D01*
X145162857Y-132611028D02*
X145091428Y-132896742D01*
X145091428Y-132896742D02*
X144948571Y-133039600D01*
X144948571Y-133039600D02*
X144805714Y-133111028D01*
X144805714Y-133111028D02*
X144520000Y-133111028D01*
X144520000Y-133111028D02*
X144377143Y-133039600D01*
X144377143Y-133039600D02*
X144234285Y-132896742D01*
X144234285Y-132896742D02*
X144162857Y-132611028D01*
X144162857Y-132611028D02*
X144162857Y-132111028D01*
X144162857Y-132111028D02*
X144234285Y-131825314D01*
X144234285Y-131825314D02*
X144377143Y-131682457D01*
X144377143Y-131682457D02*
X144520000Y-131611028D01*
X145805714Y-131611028D02*
X145805714Y-132825314D01*
X145805714Y-132825314D02*
X145877143Y-132968171D01*
X145877143Y-132968171D02*
X145948572Y-133039600D01*
X145948572Y-133039600D02*
X146091429Y-133111028D01*
X146091429Y-133111028D02*
X146377143Y-133111028D01*
X146377143Y-133111028D02*
X146520000Y-133039600D01*
X146520000Y-133039600D02*
X146591429Y-132968171D01*
X146591429Y-132968171D02*
X146662857Y-132825314D01*
X146662857Y-132825314D02*
X146662857Y-131611028D01*
X147162858Y-131611028D02*
X148020001Y-131611028D01*
X147591429Y-133111028D02*
X147591429Y-131611028D01*
X134642856Y-66806028D02*
X134642856Y-65306028D01*
X134642856Y-65306028D02*
X135214285Y-65306028D01*
X135214285Y-65306028D02*
X135357142Y-65377457D01*
X135357142Y-65377457D02*
X135428571Y-65448885D01*
X135428571Y-65448885D02*
X135499999Y-65591742D01*
X135499999Y-65591742D02*
X135499999Y-65806028D01*
X135499999Y-65806028D02*
X135428571Y-65948885D01*
X135428571Y-65948885D02*
X135357142Y-66020314D01*
X135357142Y-66020314D02*
X135214285Y-66091742D01*
X135214285Y-66091742D02*
X134642856Y-66091742D01*
X136142856Y-66806028D02*
X136142856Y-65306028D01*
X136642857Y-65306028D02*
X137500000Y-65306028D01*
X137071428Y-66806028D02*
X137071428Y-65306028D01*
X138857142Y-66663171D02*
X138785714Y-66734600D01*
X138785714Y-66734600D02*
X138571428Y-66806028D01*
X138571428Y-66806028D02*
X138428571Y-66806028D01*
X138428571Y-66806028D02*
X138214285Y-66734600D01*
X138214285Y-66734600D02*
X138071428Y-66591742D01*
X138071428Y-66591742D02*
X137999999Y-66448885D01*
X137999999Y-66448885D02*
X137928571Y-66163171D01*
X137928571Y-66163171D02*
X137928571Y-65948885D01*
X137928571Y-65948885D02*
X137999999Y-65663171D01*
X137999999Y-65663171D02*
X138071428Y-65520314D01*
X138071428Y-65520314D02*
X138214285Y-65377457D01*
X138214285Y-65377457D02*
X138428571Y-65306028D01*
X138428571Y-65306028D02*
X138571428Y-65306028D01*
X138571428Y-65306028D02*
X138785714Y-65377457D01*
X138785714Y-65377457D02*
X138857142Y-65448885D01*
X139499999Y-66806028D02*
X139499999Y-65306028D01*
X139499999Y-66020314D02*
X140357142Y-66020314D01*
X140357142Y-66806028D02*
X140357142Y-65306028D01*
D12*
X102571428Y-71904438D02*
X103238094Y-73904438D01*
X103238094Y-73904438D02*
X103904761Y-71904438D01*
X105714285Y-73713961D02*
X105619047Y-73809200D01*
X105619047Y-73809200D02*
X105333333Y-73904438D01*
X105333333Y-73904438D02*
X105142857Y-73904438D01*
X105142857Y-73904438D02*
X104857142Y-73809200D01*
X104857142Y-73809200D02*
X104666666Y-73618723D01*
X104666666Y-73618723D02*
X104571428Y-73428247D01*
X104571428Y-73428247D02*
X104476190Y-73047295D01*
X104476190Y-73047295D02*
X104476190Y-72761580D01*
X104476190Y-72761580D02*
X104571428Y-72380628D01*
X104571428Y-72380628D02*
X104666666Y-72190152D01*
X104666666Y-72190152D02*
X104857142Y-71999676D01*
X104857142Y-71999676D02*
X105142857Y-71904438D01*
X105142857Y-71904438D02*
X105333333Y-71904438D01*
X105333333Y-71904438D02*
X105619047Y-71999676D01*
X105619047Y-71999676D02*
X105714285Y-72094914D01*
X106952380Y-71904438D02*
X107333333Y-71904438D01*
X107333333Y-71904438D02*
X107523809Y-71999676D01*
X107523809Y-71999676D02*
X107714285Y-72190152D01*
X107714285Y-72190152D02*
X107809523Y-72571104D01*
X107809523Y-72571104D02*
X107809523Y-73237771D01*
X107809523Y-73237771D02*
X107714285Y-73618723D01*
X107714285Y-73618723D02*
X107523809Y-73809200D01*
X107523809Y-73809200D02*
X107333333Y-73904438D01*
X107333333Y-73904438D02*
X106952380Y-73904438D01*
X106952380Y-73904438D02*
X106761904Y-73809200D01*
X106761904Y-73809200D02*
X106571428Y-73618723D01*
X106571428Y-73618723D02*
X106476190Y-73237771D01*
X106476190Y-73237771D02*
X106476190Y-72571104D01*
X106476190Y-72571104D02*
X106571428Y-72190152D01*
X106571428Y-72190152D02*
X106761904Y-71999676D01*
X106761904Y-71999676D02*
X106952380Y-71904438D01*
X110095238Y-72094914D02*
X110190476Y-71999676D01*
X110190476Y-71999676D02*
X110380952Y-71904438D01*
X110380952Y-71904438D02*
X110857143Y-71904438D01*
X110857143Y-71904438D02*
X111047619Y-71999676D01*
X111047619Y-71999676D02*
X111142857Y-72094914D01*
X111142857Y-72094914D02*
X111238095Y-72285390D01*
X111238095Y-72285390D02*
X111238095Y-72475866D01*
X111238095Y-72475866D02*
X111142857Y-72761580D01*
X111142857Y-72761580D02*
X110000000Y-73904438D01*
X110000000Y-73904438D02*
X111238095Y-73904438D01*
D13*
X74321428Y-94806028D02*
X74321428Y-93306028D01*
X74321428Y-93306028D02*
X74678571Y-93306028D01*
X74678571Y-93306028D02*
X74892857Y-93377457D01*
X74892857Y-93377457D02*
X75035714Y-93520314D01*
X75035714Y-93520314D02*
X75107143Y-93663171D01*
X75107143Y-93663171D02*
X75178571Y-93948885D01*
X75178571Y-93948885D02*
X75178571Y-94163171D01*
X75178571Y-94163171D02*
X75107143Y-94448885D01*
X75107143Y-94448885D02*
X75035714Y-94591742D01*
X75035714Y-94591742D02*
X74892857Y-94734600D01*
X74892857Y-94734600D02*
X74678571Y-94806028D01*
X74678571Y-94806028D02*
X74321428Y-94806028D01*
X75821428Y-94020314D02*
X76321428Y-94020314D01*
X76535714Y-94806028D02*
X75821428Y-94806028D01*
X75821428Y-94806028D02*
X75821428Y-93306028D01*
X75821428Y-93306028D02*
X76535714Y-93306028D01*
X77178571Y-94806028D02*
X77178571Y-93306028D01*
X77178571Y-93306028D02*
X77750000Y-93306028D01*
X77750000Y-93306028D02*
X77892857Y-93377457D01*
X77892857Y-93377457D02*
X77964286Y-93448885D01*
X77964286Y-93448885D02*
X78035714Y-93591742D01*
X78035714Y-93591742D02*
X78035714Y-93806028D01*
X78035714Y-93806028D02*
X77964286Y-93948885D01*
X77964286Y-93948885D02*
X77892857Y-94020314D01*
X77892857Y-94020314D02*
X77750000Y-94091742D01*
X77750000Y-94091742D02*
X77178571Y-94091742D01*
X78464286Y-93306028D02*
X79321429Y-93306028D01*
X78892857Y-94806028D02*
X78892857Y-93306028D01*
X79821428Y-94806028D02*
X79821428Y-93306028D01*
X79821428Y-94020314D02*
X80678571Y-94020314D01*
X80678571Y-94806028D02*
X80678571Y-93306028D01*
X114614286Y-147234600D02*
X114828572Y-147306028D01*
X114828572Y-147306028D02*
X115185714Y-147306028D01*
X115185714Y-147306028D02*
X115328572Y-147234600D01*
X115328572Y-147234600D02*
X115400000Y-147163171D01*
X115400000Y-147163171D02*
X115471429Y-147020314D01*
X115471429Y-147020314D02*
X115471429Y-146877457D01*
X115471429Y-146877457D02*
X115400000Y-146734600D01*
X115400000Y-146734600D02*
X115328572Y-146663171D01*
X115328572Y-146663171D02*
X115185714Y-146591742D01*
X115185714Y-146591742D02*
X114900000Y-146520314D01*
X114900000Y-146520314D02*
X114757143Y-146448885D01*
X114757143Y-146448885D02*
X114685714Y-146377457D01*
X114685714Y-146377457D02*
X114614286Y-146234600D01*
X114614286Y-146234600D02*
X114614286Y-146091742D01*
X114614286Y-146091742D02*
X114685714Y-145948885D01*
X114685714Y-145948885D02*
X114757143Y-145877457D01*
X114757143Y-145877457D02*
X114900000Y-145806028D01*
X114900000Y-145806028D02*
X115257143Y-145806028D01*
X115257143Y-145806028D02*
X115471429Y-145877457D01*
X116114285Y-145806028D02*
X116114285Y-147020314D01*
X116114285Y-147020314D02*
X116185714Y-147163171D01*
X116185714Y-147163171D02*
X116257143Y-147234600D01*
X116257143Y-147234600D02*
X116400000Y-147306028D01*
X116400000Y-147306028D02*
X116685714Y-147306028D01*
X116685714Y-147306028D02*
X116828571Y-147234600D01*
X116828571Y-147234600D02*
X116900000Y-147163171D01*
X116900000Y-147163171D02*
X116971428Y-147020314D01*
X116971428Y-147020314D02*
X116971428Y-145806028D01*
X117614286Y-147234600D02*
X117828572Y-147306028D01*
X117828572Y-147306028D02*
X118185714Y-147306028D01*
X118185714Y-147306028D02*
X118328572Y-147234600D01*
X118328572Y-147234600D02*
X118400000Y-147163171D01*
X118400000Y-147163171D02*
X118471429Y-147020314D01*
X118471429Y-147020314D02*
X118471429Y-146877457D01*
X118471429Y-146877457D02*
X118400000Y-146734600D01*
X118400000Y-146734600D02*
X118328572Y-146663171D01*
X118328572Y-146663171D02*
X118185714Y-146591742D01*
X118185714Y-146591742D02*
X117900000Y-146520314D01*
X117900000Y-146520314D02*
X117757143Y-146448885D01*
X117757143Y-146448885D02*
X117685714Y-146377457D01*
X117685714Y-146377457D02*
X117614286Y-146234600D01*
X117614286Y-146234600D02*
X117614286Y-146091742D01*
X117614286Y-146091742D02*
X117685714Y-145948885D01*
X117685714Y-145948885D02*
X117757143Y-145877457D01*
X117757143Y-145877457D02*
X117900000Y-145806028D01*
X117900000Y-145806028D02*
X118257143Y-145806028D01*
X118257143Y-145806028D02*
X118471429Y-145877457D01*
X118900000Y-145806028D02*
X119757143Y-145806028D01*
X119328571Y-147306028D02*
X119328571Y-145806028D01*
X120185714Y-146877457D02*
X120900000Y-146877457D01*
X120042857Y-147306028D02*
X120542857Y-145806028D01*
X120542857Y-145806028D02*
X121042857Y-147306028D01*
X121542856Y-147306028D02*
X121542856Y-145806028D01*
X122257142Y-147306028D02*
X122257142Y-145806028D01*
X122257142Y-145806028D02*
X123114285Y-147306028D01*
X123114285Y-147306028D02*
X123114285Y-145806028D01*
X115645000Y-57545314D02*
X116145000Y-57545314D01*
X116261072Y-58331028D02*
X115546786Y-58331028D01*
X115546786Y-58331028D02*
X115734286Y-56831028D01*
X115734286Y-56831028D02*
X116448572Y-56831028D01*
X116841429Y-58259600D02*
X117046786Y-58331028D01*
X117046786Y-58331028D02*
X117403929Y-58331028D01*
X117403929Y-58331028D02*
X117555715Y-58259600D01*
X117555715Y-58259600D02*
X117636072Y-58188171D01*
X117636072Y-58188171D02*
X117725357Y-58045314D01*
X117725357Y-58045314D02*
X117743215Y-57902457D01*
X117743215Y-57902457D02*
X117689643Y-57759600D01*
X117689643Y-57759600D02*
X117627143Y-57688171D01*
X117627143Y-57688171D02*
X117493215Y-57616742D01*
X117493215Y-57616742D02*
X117216429Y-57545314D01*
X117216429Y-57545314D02*
X117082500Y-57473885D01*
X117082500Y-57473885D02*
X117020000Y-57402457D01*
X117020000Y-57402457D02*
X116966429Y-57259600D01*
X116966429Y-57259600D02*
X116984286Y-57116742D01*
X116984286Y-57116742D02*
X117073572Y-56973885D01*
X117073572Y-56973885D02*
X117153929Y-56902457D01*
X117153929Y-56902457D02*
X117305715Y-56831028D01*
X117305715Y-56831028D02*
X117662857Y-56831028D01*
X117662857Y-56831028D02*
X117868215Y-56902457D01*
X118332500Y-58331028D02*
X118520000Y-56831028D01*
X118520000Y-56831028D02*
X119091428Y-56831028D01*
X119091428Y-56831028D02*
X119225357Y-56902457D01*
X119225357Y-56902457D02*
X119287857Y-56973885D01*
X119287857Y-56973885D02*
X119341428Y-57116742D01*
X119341428Y-57116742D02*
X119314643Y-57331028D01*
X119314643Y-57331028D02*
X119225357Y-57473885D01*
X119225357Y-57473885D02*
X119145000Y-57545314D01*
X119145000Y-57545314D02*
X118993214Y-57616742D01*
X118993214Y-57616742D02*
X118421786Y-57616742D01*
X119877143Y-56831028D02*
X120805714Y-56831028D01*
X120805714Y-56831028D02*
X120234286Y-57402457D01*
X120234286Y-57402457D02*
X120448571Y-57402457D01*
X120448571Y-57402457D02*
X120582500Y-57473885D01*
X120582500Y-57473885D02*
X120645000Y-57545314D01*
X120645000Y-57545314D02*
X120698571Y-57688171D01*
X120698571Y-57688171D02*
X120653928Y-58045314D01*
X120653928Y-58045314D02*
X120564643Y-58188171D01*
X120564643Y-58188171D02*
X120484286Y-58259600D01*
X120484286Y-58259600D02*
X120332500Y-58331028D01*
X120332500Y-58331028D02*
X119903928Y-58331028D01*
X119903928Y-58331028D02*
X119770000Y-58259600D01*
X119770000Y-58259600D02*
X119707500Y-58188171D01*
X121359285Y-56973885D02*
X121439642Y-56902457D01*
X121439642Y-56902457D02*
X121591428Y-56831028D01*
X121591428Y-56831028D02*
X121948571Y-56831028D01*
X121948571Y-56831028D02*
X122082499Y-56902457D01*
X122082499Y-56902457D02*
X122144999Y-56973885D01*
X122144999Y-56973885D02*
X122198571Y-57116742D01*
X122198571Y-57116742D02*
X122180714Y-57259600D01*
X122180714Y-57259600D02*
X122082499Y-57473885D01*
X122082499Y-57473885D02*
X121118214Y-58331028D01*
X121118214Y-58331028D02*
X122046785Y-58331028D01*
X114966428Y-59960314D02*
X115466428Y-59960314D01*
X115582500Y-60746028D02*
X114868214Y-60746028D01*
X114868214Y-60746028D02*
X115055714Y-59246028D01*
X115055714Y-59246028D02*
X115770000Y-59246028D01*
X116868214Y-60746028D02*
X117055714Y-59246028D01*
X116877143Y-60674600D02*
X116725357Y-60746028D01*
X116725357Y-60746028D02*
X116439643Y-60746028D01*
X116439643Y-60746028D02*
X116305714Y-60674600D01*
X116305714Y-60674600D02*
X116243214Y-60603171D01*
X116243214Y-60603171D02*
X116189643Y-60460314D01*
X116189643Y-60460314D02*
X116243214Y-60031742D01*
X116243214Y-60031742D02*
X116332500Y-59888885D01*
X116332500Y-59888885D02*
X116412857Y-59817457D01*
X116412857Y-59817457D02*
X116564643Y-59746028D01*
X116564643Y-59746028D02*
X116850357Y-59746028D01*
X116850357Y-59746028D02*
X116984285Y-59817457D01*
X118350357Y-59746028D02*
X118225357Y-60746028D01*
X117707500Y-59746028D02*
X117609286Y-60531742D01*
X117609286Y-60531742D02*
X117662857Y-60674600D01*
X117662857Y-60674600D02*
X117796786Y-60746028D01*
X117796786Y-60746028D02*
X118011071Y-60746028D01*
X118011071Y-60746028D02*
X118162857Y-60674600D01*
X118162857Y-60674600D02*
X118243214Y-60603171D01*
X118939643Y-60746028D02*
X119127143Y-59246028D01*
X119127143Y-59246028D02*
X119493214Y-60317457D01*
X119493214Y-60317457D02*
X120127143Y-59246028D01*
X120127143Y-59246028D02*
X119939643Y-60746028D01*
X120868215Y-60746028D02*
X120734286Y-60674600D01*
X120734286Y-60674600D02*
X120671786Y-60603171D01*
X120671786Y-60603171D02*
X120618215Y-60460314D01*
X120618215Y-60460314D02*
X120671786Y-60031742D01*
X120671786Y-60031742D02*
X120761072Y-59888885D01*
X120761072Y-59888885D02*
X120841429Y-59817457D01*
X120841429Y-59817457D02*
X120993215Y-59746028D01*
X120993215Y-59746028D02*
X121207500Y-59746028D01*
X121207500Y-59746028D02*
X121341429Y-59817457D01*
X121341429Y-59817457D02*
X121403929Y-59888885D01*
X121403929Y-59888885D02*
X121457500Y-60031742D01*
X121457500Y-60031742D02*
X121403929Y-60460314D01*
X121403929Y-60460314D02*
X121314643Y-60603171D01*
X121314643Y-60603171D02*
X121234286Y-60674600D01*
X121234286Y-60674600D02*
X121082500Y-60746028D01*
X121082500Y-60746028D02*
X120868215Y-60746028D01*
X122653929Y-60746028D02*
X122841429Y-59246028D01*
X122662858Y-60674600D02*
X122511072Y-60746028D01*
X122511072Y-60746028D02*
X122225358Y-60746028D01*
X122225358Y-60746028D02*
X122091429Y-60674600D01*
X122091429Y-60674600D02*
X122028929Y-60603171D01*
X122028929Y-60603171D02*
X121975358Y-60460314D01*
X121975358Y-60460314D02*
X122028929Y-60031742D01*
X122028929Y-60031742D02*
X122118215Y-59888885D01*
X122118215Y-59888885D02*
X122198572Y-59817457D01*
X122198572Y-59817457D02*
X122350358Y-59746028D01*
X122350358Y-59746028D02*
X122636072Y-59746028D01*
X122636072Y-59746028D02*
X122770000Y-59817457D01*
X116403928Y-63161028D02*
X116591428Y-61661028D01*
X116502142Y-62375314D02*
X117359285Y-62375314D01*
X117261071Y-63161028D02*
X117448571Y-61661028D01*
X118618214Y-63161028D02*
X118716428Y-62375314D01*
X118716428Y-62375314D02*
X118662857Y-62232457D01*
X118662857Y-62232457D02*
X118528928Y-62161028D01*
X118528928Y-62161028D02*
X118243214Y-62161028D01*
X118243214Y-62161028D02*
X118091428Y-62232457D01*
X118627143Y-63089600D02*
X118475357Y-63161028D01*
X118475357Y-63161028D02*
X118118214Y-63161028D01*
X118118214Y-63161028D02*
X117984285Y-63089600D01*
X117984285Y-63089600D02*
X117930714Y-62946742D01*
X117930714Y-62946742D02*
X117948571Y-62803885D01*
X117948571Y-62803885D02*
X118037857Y-62661028D01*
X118037857Y-62661028D02*
X118189643Y-62589600D01*
X118189643Y-62589600D02*
X118546785Y-62589600D01*
X118546785Y-62589600D02*
X118698571Y-62518171D01*
X119984286Y-63089600D02*
X119832500Y-63161028D01*
X119832500Y-63161028D02*
X119546786Y-63161028D01*
X119546786Y-63161028D02*
X119412857Y-63089600D01*
X119412857Y-63089600D02*
X119350357Y-63018171D01*
X119350357Y-63018171D02*
X119296786Y-62875314D01*
X119296786Y-62875314D02*
X119350357Y-62446742D01*
X119350357Y-62446742D02*
X119439643Y-62303885D01*
X119439643Y-62303885D02*
X119520000Y-62232457D01*
X119520000Y-62232457D02*
X119671786Y-62161028D01*
X119671786Y-62161028D02*
X119957500Y-62161028D01*
X119957500Y-62161028D02*
X120091428Y-62232457D01*
X120618214Y-63161028D02*
X120805714Y-61661028D01*
X120832500Y-62589600D02*
X121189642Y-63161028D01*
X121314642Y-62161028D02*
X120671785Y-62732457D01*
X116127142Y-64076028D02*
X116984285Y-64076028D01*
X116368214Y-65576028D02*
X116555714Y-64076028D01*
X117296785Y-65576028D02*
X117484285Y-64076028D01*
X117939642Y-65576028D02*
X118037856Y-64790314D01*
X118037856Y-64790314D02*
X117984285Y-64647457D01*
X117984285Y-64647457D02*
X117850356Y-64576028D01*
X117850356Y-64576028D02*
X117636071Y-64576028D01*
X117636071Y-64576028D02*
X117484285Y-64647457D01*
X117484285Y-64647457D02*
X117403928Y-64718885D01*
X118653928Y-65576028D02*
X118778928Y-64576028D01*
X118841428Y-64076028D02*
X118761071Y-64147457D01*
X118761071Y-64147457D02*
X118823571Y-64218885D01*
X118823571Y-64218885D02*
X118903928Y-64147457D01*
X118903928Y-64147457D02*
X118841428Y-64076028D01*
X118841428Y-64076028D02*
X118823571Y-64218885D01*
X119493214Y-64576028D02*
X119368214Y-65576028D01*
X119475357Y-64718885D02*
X119555714Y-64647457D01*
X119555714Y-64647457D02*
X119707500Y-64576028D01*
X119707500Y-64576028D02*
X119921785Y-64576028D01*
X119921785Y-64576028D02*
X120055714Y-64647457D01*
X120055714Y-64647457D02*
X120109285Y-64790314D01*
X120109285Y-64790314D02*
X120011071Y-65576028D01*
X121493214Y-64576028D02*
X121341428Y-65790314D01*
X121341428Y-65790314D02*
X121252143Y-65933171D01*
X121252143Y-65933171D02*
X121171785Y-66004600D01*
X121171785Y-66004600D02*
X121020000Y-66076028D01*
X121020000Y-66076028D02*
X120805714Y-66076028D01*
X120805714Y-66076028D02*
X120671785Y-66004600D01*
X121377143Y-65504600D02*
X121225357Y-65576028D01*
X121225357Y-65576028D02*
X120939643Y-65576028D01*
X120939643Y-65576028D02*
X120805714Y-65504600D01*
X120805714Y-65504600D02*
X120743214Y-65433171D01*
X120743214Y-65433171D02*
X120689643Y-65290314D01*
X120689643Y-65290314D02*
X120743214Y-64861742D01*
X120743214Y-64861742D02*
X120832500Y-64718885D01*
X120832500Y-64718885D02*
X120912857Y-64647457D01*
X120912857Y-64647457D02*
X121064643Y-64576028D01*
X121064643Y-64576028D02*
X121350357Y-64576028D01*
X121350357Y-64576028D02*
X121484285Y-64647457D01*
X100935714Y-147306028D02*
X100935714Y-145806028D01*
X100935714Y-145806028D02*
X101292857Y-145806028D01*
X101292857Y-145806028D02*
X101507143Y-145877457D01*
X101507143Y-145877457D02*
X101650000Y-146020314D01*
X101650000Y-146020314D02*
X101721429Y-146163171D01*
X101721429Y-146163171D02*
X101792857Y-146448885D01*
X101792857Y-146448885D02*
X101792857Y-146663171D01*
X101792857Y-146663171D02*
X101721429Y-146948885D01*
X101721429Y-146948885D02*
X101650000Y-147091742D01*
X101650000Y-147091742D02*
X101507143Y-147234600D01*
X101507143Y-147234600D02*
X101292857Y-147306028D01*
X101292857Y-147306028D02*
X100935714Y-147306028D01*
X102435714Y-146520314D02*
X102935714Y-146520314D01*
X103150000Y-147306028D02*
X102435714Y-147306028D01*
X102435714Y-147306028D02*
X102435714Y-145806028D01*
X102435714Y-145806028D02*
X103150000Y-145806028D01*
X104507143Y-147306028D02*
X103792857Y-147306028D01*
X103792857Y-147306028D02*
X103792857Y-145806028D01*
X104935715Y-146877457D02*
X105650001Y-146877457D01*
X104792858Y-147306028D02*
X105292858Y-145806028D01*
X105292858Y-145806028D02*
X105792858Y-147306028D01*
X106578572Y-146591742D02*
X106578572Y-147306028D01*
X106078572Y-145806028D02*
X106578572Y-146591742D01*
X106578572Y-146591742D02*
X107078572Y-145806028D01*
X130364285Y-147306028D02*
X129864285Y-146591742D01*
X129507142Y-147306028D02*
X129507142Y-145806028D01*
X129507142Y-145806028D02*
X130078571Y-145806028D01*
X130078571Y-145806028D02*
X130221428Y-145877457D01*
X130221428Y-145877457D02*
X130292857Y-145948885D01*
X130292857Y-145948885D02*
X130364285Y-146091742D01*
X130364285Y-146091742D02*
X130364285Y-146306028D01*
X130364285Y-146306028D02*
X130292857Y-146448885D01*
X130292857Y-146448885D02*
X130221428Y-146520314D01*
X130221428Y-146520314D02*
X130078571Y-146591742D01*
X130078571Y-146591742D02*
X129507142Y-146591742D01*
X131007142Y-146520314D02*
X131507142Y-146520314D01*
X131721428Y-147306028D02*
X131007142Y-147306028D01*
X131007142Y-147306028D02*
X131007142Y-145806028D01*
X131007142Y-145806028D02*
X131721428Y-145806028D01*
X133078571Y-147306028D02*
X132364285Y-147306028D01*
X132364285Y-147306028D02*
X132364285Y-145806028D01*
X133578571Y-146520314D02*
X134078571Y-146520314D01*
X134292857Y-147306028D02*
X133578571Y-147306028D01*
X133578571Y-147306028D02*
X133578571Y-145806028D01*
X133578571Y-145806028D02*
X134292857Y-145806028D01*
X134864286Y-146877457D02*
X135578572Y-146877457D01*
X134721429Y-147306028D02*
X135221429Y-145806028D01*
X135221429Y-145806028D02*
X135721429Y-147306028D01*
X136150000Y-147234600D02*
X136364286Y-147306028D01*
X136364286Y-147306028D02*
X136721428Y-147306028D01*
X136721428Y-147306028D02*
X136864286Y-147234600D01*
X136864286Y-147234600D02*
X136935714Y-147163171D01*
X136935714Y-147163171D02*
X137007143Y-147020314D01*
X137007143Y-147020314D02*
X137007143Y-146877457D01*
X137007143Y-146877457D02*
X136935714Y-146734600D01*
X136935714Y-146734600D02*
X136864286Y-146663171D01*
X136864286Y-146663171D02*
X136721428Y-146591742D01*
X136721428Y-146591742D02*
X136435714Y-146520314D01*
X136435714Y-146520314D02*
X136292857Y-146448885D01*
X136292857Y-146448885D02*
X136221428Y-146377457D01*
X136221428Y-146377457D02*
X136150000Y-146234600D01*
X136150000Y-146234600D02*
X136150000Y-146091742D01*
X136150000Y-146091742D02*
X136221428Y-145948885D01*
X136221428Y-145948885D02*
X136292857Y-145877457D01*
X136292857Y-145877457D02*
X136435714Y-145806028D01*
X136435714Y-145806028D02*
X136792857Y-145806028D01*
X136792857Y-145806028D02*
X137007143Y-145877457D01*
X137649999Y-146520314D02*
X138149999Y-146520314D01*
X138364285Y-147306028D02*
X137649999Y-147306028D01*
X137649999Y-147306028D02*
X137649999Y-145806028D01*
X137649999Y-145806028D02*
X138364285Y-145806028D01*
D12*
X104476190Y-75904438D02*
X105142856Y-77904438D01*
X105142856Y-77904438D02*
X105809523Y-75904438D01*
X107619047Y-77713961D02*
X107523809Y-77809200D01*
X107523809Y-77809200D02*
X107238095Y-77904438D01*
X107238095Y-77904438D02*
X107047619Y-77904438D01*
X107047619Y-77904438D02*
X106761904Y-77809200D01*
X106761904Y-77809200D02*
X106571428Y-77618723D01*
X106571428Y-77618723D02*
X106476190Y-77428247D01*
X106476190Y-77428247D02*
X106380952Y-77047295D01*
X106380952Y-77047295D02*
X106380952Y-76761580D01*
X106380952Y-76761580D02*
X106476190Y-76380628D01*
X106476190Y-76380628D02*
X106571428Y-76190152D01*
X106571428Y-76190152D02*
X106761904Y-75999676D01*
X106761904Y-75999676D02*
X107047619Y-75904438D01*
X107047619Y-75904438D02*
X107238095Y-75904438D01*
X107238095Y-75904438D02*
X107523809Y-75999676D01*
X107523809Y-75999676D02*
X107619047Y-76094914D01*
X108380952Y-77333009D02*
X109333333Y-77333009D01*
X108190476Y-77904438D02*
X108857142Y-75904438D01*
X108857142Y-75904438D02*
X109523809Y-77904438D01*
D15*
G36*
X141931528Y-83878814D02*
G01*
X142005643Y-83912165D01*
X142073947Y-83973639D01*
X142108259Y-84066279D01*
X142108259Y-84174436D01*
X141288259Y-84174436D01*
X141288259Y-84066279D01*
X141322571Y-83973637D01*
X141390870Y-83912167D01*
X141464988Y-83878814D01*
X141636830Y-83840150D01*
X141759687Y-83840150D01*
X141931528Y-83878814D01*
G37*
G36*
X142431116Y-86383007D02*
G01*
X140965402Y-86383007D01*
X140965402Y-85850150D01*
X141108259Y-85850150D01*
X141108351Y-85850404D01*
X141108261Y-85850657D01*
X141113862Y-85881408D01*
X141161481Y-86009979D01*
X141165546Y-86014768D01*
X141166422Y-86020990D01*
X141185671Y-86045617D01*
X141280909Y-86131332D01*
X141283285Y-86132291D01*
X141304183Y-86146509D01*
X141399422Y-86189366D01*
X141403626Y-86189676D01*
X141416598Y-86195098D01*
X141607074Y-86237955D01*
X141611302Y-86237411D01*
X141626830Y-86240150D01*
X141769687Y-86240150D01*
X141773692Y-86238691D01*
X141789443Y-86237955D01*
X141979919Y-86195098D01*
X141983467Y-86192821D01*
X141997096Y-86189366D01*
X142092334Y-86146509D01*
X142094170Y-86144721D01*
X142115608Y-86131333D01*
X142210847Y-86045617D01*
X142213797Y-86040070D01*
X142219256Y-86036960D01*
X142235037Y-86009979D01*
X142282656Y-85881408D01*
X142282657Y-85881138D01*
X142282831Y-85880932D01*
X142288259Y-85850150D01*
X142288259Y-85764436D01*
X142288166Y-85764181D01*
X142288257Y-85763929D01*
X142282656Y-85733178D01*
X142235037Y-85604606D01*
X142230970Y-85599815D01*
X142230095Y-85593593D01*
X142210846Y-85568967D01*
X142163226Y-85526110D01*
X142147112Y-85519604D01*
X142133802Y-85508435D01*
X142108321Y-85503941D01*
X142106140Y-85503061D01*
X142105150Y-85503382D01*
X142103020Y-85503007D01*
X141769687Y-85503007D01*
X141747714Y-85511004D01*
X141724687Y-85515065D01*
X141719467Y-85521285D01*
X141711836Y-85524063D01*
X141700143Y-85544314D01*
X141685115Y-85562225D01*
X141683053Y-85573915D01*
X141681054Y-85577379D01*
X141681748Y-85581316D01*
X141679687Y-85593007D01*
X141679687Y-85764436D01*
X141700743Y-85822287D01*
X141754059Y-85853069D01*
X141814687Y-85842378D01*
X141854259Y-85795218D01*
X141859687Y-85764436D01*
X141859687Y-85683007D01*
X142068485Y-85683007D01*
X142073947Y-85687923D01*
X142108259Y-85780565D01*
X142108259Y-85834020D01*
X142073947Y-85926660D01*
X142005643Y-85988134D01*
X141931528Y-86021485D01*
X141759687Y-86060150D01*
X141636830Y-86060150D01*
X141464988Y-86021485D01*
X141390870Y-85988132D01*
X141322571Y-85926662D01*
X141288259Y-85834020D01*
X141288259Y-85744900D01*
X141324552Y-85679572D01*
X141334241Y-85618775D01*
X141302583Y-85565974D01*
X141244392Y-85545877D01*
X141186897Y-85567884D01*
X141167204Y-85592157D01*
X141119585Y-85677871D01*
X141118424Y-85685150D01*
X141113687Y-85690797D01*
X141108259Y-85721579D01*
X141108259Y-85850150D01*
X140965402Y-85850150D01*
X140965402Y-85191665D01*
X141109626Y-85191665D01*
X141113325Y-85212647D01*
X141112291Y-85233931D01*
X141118526Y-85242141D01*
X141120317Y-85252293D01*
X141136638Y-85265988D01*
X141149527Y-85282958D01*
X141159580Y-85285239D01*
X141167477Y-85291865D01*
X141198259Y-85297293D01*
X142198259Y-85297293D01*
X142256110Y-85276237D01*
X142286892Y-85222921D01*
X142276201Y-85162293D01*
X142229041Y-85122721D01*
X142198259Y-85117293D01*
X141570045Y-85117293D01*
X142239420Y-84773043D01*
X142246422Y-84765477D01*
X142256110Y-84761951D01*
X142266764Y-84743496D01*
X142281236Y-84727860D01*
X142281736Y-84717564D01*
X142286892Y-84708635D01*
X142283191Y-84687648D01*
X142284226Y-84666369D01*
X142277991Y-84658160D01*
X142276201Y-84648007D01*
X142259876Y-84634309D01*
X142246991Y-84617343D01*
X142236938Y-84615062D01*
X142229041Y-84608435D01*
X142198259Y-84603007D01*
X141198259Y-84603007D01*
X141140408Y-84624063D01*
X141109626Y-84677379D01*
X141120317Y-84738007D01*
X141167477Y-84777579D01*
X141198259Y-84783007D01*
X141826472Y-84783007D01*
X141157098Y-85127257D01*
X141150095Y-85134822D01*
X141140408Y-85138349D01*
X141129754Y-85156801D01*
X141115281Y-85172440D01*
X141114780Y-85182737D01*
X141109626Y-85191665D01*
X140965402Y-85191665D01*
X140965402Y-84264436D01*
X141108259Y-84264436D01*
X141116256Y-84286408D01*
X141120317Y-84309436D01*
X141126537Y-84314655D01*
X141129315Y-84322287D01*
X141149566Y-84333979D01*
X141167477Y-84349008D01*
X141179167Y-84351069D01*
X141182631Y-84353069D01*
X141186568Y-84352374D01*
X141198259Y-84354436D01*
X142198259Y-84354436D01*
X142220231Y-84346438D01*
X142243259Y-84342378D01*
X142248478Y-84336157D01*
X142256110Y-84333380D01*
X142267802Y-84313128D01*
X142282831Y-84295218D01*
X142284892Y-84283527D01*
X142286892Y-84280064D01*
X142286197Y-84276126D01*
X142288259Y-84264436D01*
X142288259Y-84050150D01*
X142288166Y-84049895D01*
X142288257Y-84049643D01*
X142282656Y-84018892D01*
X142235037Y-83890321D01*
X142230971Y-83885531D01*
X142230096Y-83879309D01*
X142210847Y-83854683D01*
X142115608Y-83768967D01*
X142113228Y-83768006D01*
X142092334Y-83753791D01*
X141997096Y-83710934D01*
X141992890Y-83710623D01*
X141979919Y-83705202D01*
X141789443Y-83662345D01*
X141785214Y-83662888D01*
X141769687Y-83660150D01*
X141626830Y-83660150D01*
X141622824Y-83661608D01*
X141607074Y-83662345D01*
X141416598Y-83705202D01*
X141413048Y-83707479D01*
X141399422Y-83710934D01*
X141304183Y-83753791D01*
X141302346Y-83755579D01*
X141280909Y-83768968D01*
X141185671Y-83854683D01*
X141182720Y-83860229D01*
X141177262Y-83863340D01*
X141161481Y-83890321D01*
X141113862Y-84018892D01*
X141113860Y-84019161D01*
X141113687Y-84019368D01*
X141108259Y-84050150D01*
X141108259Y-84264436D01*
X140965402Y-84264436D01*
X140965402Y-83517293D01*
X142431116Y-83517293D01*
X142431116Y-86383007D01*
G37*
D13*
X146642742Y-81396993D02*
X146642742Y-80654136D01*
X146642742Y-80654136D02*
X147099885Y-81054136D01*
X147099885Y-81054136D02*
X147099885Y-80882707D01*
X147099885Y-80882707D02*
X147157028Y-80768422D01*
X147157028Y-80768422D02*
X147214171Y-80711279D01*
X147214171Y-80711279D02*
X147328457Y-80654136D01*
X147328457Y-80654136D02*
X147614171Y-80654136D01*
X147614171Y-80654136D02*
X147728457Y-80711279D01*
X147728457Y-80711279D02*
X147785600Y-80768422D01*
X147785600Y-80768422D02*
X147842742Y-80882707D01*
X147842742Y-80882707D02*
X147842742Y-81225564D01*
X147842742Y-81225564D02*
X147785600Y-81339850D01*
X147785600Y-81339850D02*
X147728457Y-81396993D01*
X146642742Y-80311279D02*
X147842742Y-79911279D01*
X147842742Y-79911279D02*
X146642742Y-79511279D01*
X146642742Y-79225565D02*
X146642742Y-78482708D01*
X146642742Y-78482708D02*
X147099885Y-78882708D01*
X147099885Y-78882708D02*
X147099885Y-78711279D01*
X147099885Y-78711279D02*
X147157028Y-78596994D01*
X147157028Y-78596994D02*
X147214171Y-78539851D01*
X147214171Y-78539851D02*
X147328457Y-78482708D01*
X147328457Y-78482708D02*
X147614171Y-78482708D01*
X147614171Y-78482708D02*
X147728457Y-78539851D01*
X147728457Y-78539851D02*
X147785600Y-78596994D01*
X147785600Y-78596994D02*
X147842742Y-78711279D01*
X147842742Y-78711279D02*
X147842742Y-79054136D01*
X147842742Y-79054136D02*
X147785600Y-79168422D01*
X147785600Y-79168422D02*
X147728457Y-79225565D01*
X53281993Y-130836028D02*
X54139136Y-130836028D01*
X53710564Y-132336028D02*
X53710564Y-130836028D01*
X55496278Y-132336028D02*
X54996278Y-131621742D01*
X54639135Y-132336028D02*
X54639135Y-130836028D01*
X54639135Y-130836028D02*
X55210564Y-130836028D01*
X55210564Y-130836028D02*
X55353421Y-130907457D01*
X55353421Y-130907457D02*
X55424850Y-130978885D01*
X55424850Y-130978885D02*
X55496278Y-131121742D01*
X55496278Y-131121742D02*
X55496278Y-131336028D01*
X55496278Y-131336028D02*
X55424850Y-131478885D01*
X55424850Y-131478885D02*
X55353421Y-131550314D01*
X55353421Y-131550314D02*
X55210564Y-131621742D01*
X55210564Y-131621742D02*
X54639135Y-131621742D01*
X56139135Y-132336028D02*
X56139135Y-130836028D01*
X57639136Y-130907457D02*
X57496279Y-130836028D01*
X57496279Y-130836028D02*
X57281993Y-130836028D01*
X57281993Y-130836028D02*
X57067707Y-130907457D01*
X57067707Y-130907457D02*
X56924850Y-131050314D01*
X56924850Y-131050314D02*
X56853421Y-131193171D01*
X56853421Y-131193171D02*
X56781993Y-131478885D01*
X56781993Y-131478885D02*
X56781993Y-131693171D01*
X56781993Y-131693171D02*
X56853421Y-131978885D01*
X56853421Y-131978885D02*
X56924850Y-132121742D01*
X56924850Y-132121742D02*
X57067707Y-132264600D01*
X57067707Y-132264600D02*
X57281993Y-132336028D01*
X57281993Y-132336028D02*
X57424850Y-132336028D01*
X57424850Y-132336028D02*
X57639136Y-132264600D01*
X57639136Y-132264600D02*
X57710564Y-132193171D01*
X57710564Y-132193171D02*
X57710564Y-131693171D01*
X57710564Y-131693171D02*
X57424850Y-131693171D01*
X59139136Y-130907457D02*
X58996279Y-130836028D01*
X58996279Y-130836028D02*
X58781993Y-130836028D01*
X58781993Y-130836028D02*
X58567707Y-130907457D01*
X58567707Y-130907457D02*
X58424850Y-131050314D01*
X58424850Y-131050314D02*
X58353421Y-131193171D01*
X58353421Y-131193171D02*
X58281993Y-131478885D01*
X58281993Y-131478885D02*
X58281993Y-131693171D01*
X58281993Y-131693171D02*
X58353421Y-131978885D01*
X58353421Y-131978885D02*
X58424850Y-132121742D01*
X58424850Y-132121742D02*
X58567707Y-132264600D01*
X58567707Y-132264600D02*
X58781993Y-132336028D01*
X58781993Y-132336028D02*
X58924850Y-132336028D01*
X58924850Y-132336028D02*
X59139136Y-132264600D01*
X59139136Y-132264600D02*
X59210564Y-132193171D01*
X59210564Y-132193171D02*
X59210564Y-131693171D01*
X59210564Y-131693171D02*
X58924850Y-131693171D01*
X59853421Y-131550314D02*
X60353421Y-131550314D01*
X60567707Y-132336028D02*
X59853421Y-132336028D01*
X59853421Y-132336028D02*
X59853421Y-130836028D01*
X59853421Y-130836028D02*
X60567707Y-130836028D01*
X62067707Y-132336028D02*
X61567707Y-131621742D01*
X61210564Y-132336028D02*
X61210564Y-130836028D01*
X61210564Y-130836028D02*
X61781993Y-130836028D01*
X61781993Y-130836028D02*
X61924850Y-130907457D01*
X61924850Y-130907457D02*
X61996279Y-130978885D01*
X61996279Y-130978885D02*
X62067707Y-131121742D01*
X62067707Y-131121742D02*
X62067707Y-131336028D01*
X62067707Y-131336028D02*
X61996279Y-131478885D01*
X61996279Y-131478885D02*
X61924850Y-131550314D01*
X61924850Y-131550314D02*
X61781993Y-131621742D01*
X61781993Y-131621742D02*
X61210564Y-131621742D01*
X58210565Y-139407457D02*
X58067708Y-139336028D01*
X58067708Y-139336028D02*
X57853422Y-139336028D01*
X57853422Y-139336028D02*
X57639136Y-139407457D01*
X57639136Y-139407457D02*
X57496279Y-139550314D01*
X57496279Y-139550314D02*
X57424850Y-139693171D01*
X57424850Y-139693171D02*
X57353422Y-139978885D01*
X57353422Y-139978885D02*
X57353422Y-140193171D01*
X57353422Y-140193171D02*
X57424850Y-140478885D01*
X57424850Y-140478885D02*
X57496279Y-140621742D01*
X57496279Y-140621742D02*
X57639136Y-140764600D01*
X57639136Y-140764600D02*
X57853422Y-140836028D01*
X57853422Y-140836028D02*
X57996279Y-140836028D01*
X57996279Y-140836028D02*
X58210565Y-140764600D01*
X58210565Y-140764600D02*
X58281993Y-140693171D01*
X58281993Y-140693171D02*
X58281993Y-140193171D01*
X58281993Y-140193171D02*
X57996279Y-140193171D01*
X58853422Y-140407457D02*
X59567708Y-140407457D01*
X58710565Y-140836028D02*
X59210565Y-139336028D01*
X59210565Y-139336028D02*
X59710565Y-140836028D01*
X59996279Y-139336028D02*
X60853422Y-139336028D01*
X60424850Y-140836028D02*
X60424850Y-139336028D01*
X61353421Y-140050314D02*
X61853421Y-140050314D01*
X62067707Y-140836028D02*
X61353421Y-140836028D01*
X61353421Y-140836028D02*
X61353421Y-139336028D01*
X61353421Y-139336028D02*
X62067707Y-139336028D01*
D12*
X88571428Y-71904438D02*
X89238094Y-73904438D01*
X89238094Y-73904438D02*
X89904761Y-71904438D01*
X91714285Y-73713961D02*
X91619047Y-73809200D01*
X91619047Y-73809200D02*
X91333333Y-73904438D01*
X91333333Y-73904438D02*
X91142857Y-73904438D01*
X91142857Y-73904438D02*
X90857142Y-73809200D01*
X90857142Y-73809200D02*
X90666666Y-73618723D01*
X90666666Y-73618723D02*
X90571428Y-73428247D01*
X90571428Y-73428247D02*
X90476190Y-73047295D01*
X90476190Y-73047295D02*
X90476190Y-72761580D01*
X90476190Y-72761580D02*
X90571428Y-72380628D01*
X90571428Y-72380628D02*
X90666666Y-72190152D01*
X90666666Y-72190152D02*
X90857142Y-71999676D01*
X90857142Y-71999676D02*
X91142857Y-71904438D01*
X91142857Y-71904438D02*
X91333333Y-71904438D01*
X91333333Y-71904438D02*
X91619047Y-71999676D01*
X91619047Y-71999676D02*
X91714285Y-72094914D01*
X92952380Y-71904438D02*
X93333333Y-71904438D01*
X93333333Y-71904438D02*
X93523809Y-71999676D01*
X93523809Y-71999676D02*
X93714285Y-72190152D01*
X93714285Y-72190152D02*
X93809523Y-72571104D01*
X93809523Y-72571104D02*
X93809523Y-73237771D01*
X93809523Y-73237771D02*
X93714285Y-73618723D01*
X93714285Y-73618723D02*
X93523809Y-73809200D01*
X93523809Y-73809200D02*
X93333333Y-73904438D01*
X93333333Y-73904438D02*
X92952380Y-73904438D01*
X92952380Y-73904438D02*
X92761904Y-73809200D01*
X92761904Y-73809200D02*
X92571428Y-73618723D01*
X92571428Y-73618723D02*
X92476190Y-73237771D01*
X92476190Y-73237771D02*
X92476190Y-72571104D01*
X92476190Y-72571104D02*
X92571428Y-72190152D01*
X92571428Y-72190152D02*
X92761904Y-71999676D01*
X92761904Y-71999676D02*
X92952380Y-71904438D01*
X97238095Y-73904438D02*
X96095238Y-73904438D01*
X96666666Y-73904438D02*
X96666666Y-71904438D01*
X96666666Y-71904438D02*
X96476190Y-72190152D01*
X96476190Y-72190152D02*
X96285714Y-72380628D01*
X96285714Y-72380628D02*
X96095238Y-72475866D01*
D13*
X53296993Y-105806028D02*
X54154136Y-105806028D01*
X53725564Y-107306028D02*
X53725564Y-105806028D01*
X55511278Y-107306028D02*
X55011278Y-106591742D01*
X54654135Y-107306028D02*
X54654135Y-105806028D01*
X54654135Y-105806028D02*
X55225564Y-105806028D01*
X55225564Y-105806028D02*
X55368421Y-105877457D01*
X55368421Y-105877457D02*
X55439850Y-105948885D01*
X55439850Y-105948885D02*
X55511278Y-106091742D01*
X55511278Y-106091742D02*
X55511278Y-106306028D01*
X55511278Y-106306028D02*
X55439850Y-106448885D01*
X55439850Y-106448885D02*
X55368421Y-106520314D01*
X55368421Y-106520314D02*
X55225564Y-106591742D01*
X55225564Y-106591742D02*
X54654135Y-106591742D01*
X56154135Y-107306028D02*
X56154135Y-105806028D01*
X57654136Y-105877457D02*
X57511279Y-105806028D01*
X57511279Y-105806028D02*
X57296993Y-105806028D01*
X57296993Y-105806028D02*
X57082707Y-105877457D01*
X57082707Y-105877457D02*
X56939850Y-106020314D01*
X56939850Y-106020314D02*
X56868421Y-106163171D01*
X56868421Y-106163171D02*
X56796993Y-106448885D01*
X56796993Y-106448885D02*
X56796993Y-106663171D01*
X56796993Y-106663171D02*
X56868421Y-106948885D01*
X56868421Y-106948885D02*
X56939850Y-107091742D01*
X56939850Y-107091742D02*
X57082707Y-107234600D01*
X57082707Y-107234600D02*
X57296993Y-107306028D01*
X57296993Y-107306028D02*
X57439850Y-107306028D01*
X57439850Y-107306028D02*
X57654136Y-107234600D01*
X57654136Y-107234600D02*
X57725564Y-107163171D01*
X57725564Y-107163171D02*
X57725564Y-106663171D01*
X57725564Y-106663171D02*
X57439850Y-106663171D01*
X59154136Y-105877457D02*
X59011279Y-105806028D01*
X59011279Y-105806028D02*
X58796993Y-105806028D01*
X58796993Y-105806028D02*
X58582707Y-105877457D01*
X58582707Y-105877457D02*
X58439850Y-106020314D01*
X58439850Y-106020314D02*
X58368421Y-106163171D01*
X58368421Y-106163171D02*
X58296993Y-106448885D01*
X58296993Y-106448885D02*
X58296993Y-106663171D01*
X58296993Y-106663171D02*
X58368421Y-106948885D01*
X58368421Y-106948885D02*
X58439850Y-107091742D01*
X58439850Y-107091742D02*
X58582707Y-107234600D01*
X58582707Y-107234600D02*
X58796993Y-107306028D01*
X58796993Y-107306028D02*
X58939850Y-107306028D01*
X58939850Y-107306028D02*
X59154136Y-107234600D01*
X59154136Y-107234600D02*
X59225564Y-107163171D01*
X59225564Y-107163171D02*
X59225564Y-106663171D01*
X59225564Y-106663171D02*
X58939850Y-106663171D01*
X59868421Y-106520314D02*
X60368421Y-106520314D01*
X60582707Y-107306028D02*
X59868421Y-107306028D01*
X59868421Y-107306028D02*
X59868421Y-105806028D01*
X59868421Y-105806028D02*
X60582707Y-105806028D01*
X62082707Y-107306028D02*
X61582707Y-106591742D01*
X61225564Y-107306028D02*
X61225564Y-105806028D01*
X61225564Y-105806028D02*
X61796993Y-105806028D01*
X61796993Y-105806028D02*
X61939850Y-105877457D01*
X61939850Y-105877457D02*
X62011279Y-105948885D01*
X62011279Y-105948885D02*
X62082707Y-106091742D01*
X62082707Y-106091742D02*
X62082707Y-106306028D01*
X62082707Y-106306028D02*
X62011279Y-106448885D01*
X62011279Y-106448885D02*
X61939850Y-106520314D01*
X61939850Y-106520314D02*
X61796993Y-106591742D01*
X61796993Y-106591742D02*
X61225564Y-106591742D01*
D12*
X71857142Y-103356819D02*
X72523809Y-103356819D01*
X72809523Y-104404438D02*
X71857142Y-104404438D01*
X71857142Y-104404438D02*
X71857142Y-102404438D01*
X71857142Y-102404438D02*
X72809523Y-102404438D01*
X74714285Y-102499676D02*
X74523809Y-102404438D01*
X74523809Y-102404438D02*
X74238095Y-102404438D01*
X74238095Y-102404438D02*
X73952380Y-102499676D01*
X73952380Y-102499676D02*
X73761904Y-102690152D01*
X73761904Y-102690152D02*
X73666666Y-102880628D01*
X73666666Y-102880628D02*
X73571428Y-103261580D01*
X73571428Y-103261580D02*
X73571428Y-103547295D01*
X73571428Y-103547295D02*
X73666666Y-103928247D01*
X73666666Y-103928247D02*
X73761904Y-104118723D01*
X73761904Y-104118723D02*
X73952380Y-104309200D01*
X73952380Y-104309200D02*
X74238095Y-104404438D01*
X74238095Y-104404438D02*
X74428571Y-104404438D01*
X74428571Y-104404438D02*
X74714285Y-104309200D01*
X74714285Y-104309200D02*
X74809523Y-104213961D01*
X74809523Y-104213961D02*
X74809523Y-103547295D01*
X74809523Y-103547295D02*
X74428571Y-103547295D01*
X78238095Y-104404438D02*
X77095238Y-104404438D01*
X77666666Y-104404438D02*
X77666666Y-102404438D01*
X77666666Y-102404438D02*
X77476190Y-102690152D01*
X77476190Y-102690152D02*
X77285714Y-102880628D01*
X77285714Y-102880628D02*
X77095238Y-102975866D01*
M02*
