M48
; DRILL file {KiCad 7.0.9} date Sun Apr 28 21:16:17 2024
; FORMAT={-:-/ absolute / inch / decimal}
; #@! TF.CreationDate,2024-04-28T21:16:17+01:00
; #@! TF.GenerationSoftware,Kicad,Pcbnew,7.0.9
; #@! TF.FileFunction,MixedPlating,1,2
FMAT,2
INCH
; #@! TA.AperFunction,Plated,PTH,ComponentDrill
T1C0.3307
; #@! TA.AperFunction,NonPlated,NPTH,ComponentDrill
T2C0.1063
; #@! TA.AperFunction,NonPlated,NPTH,ComponentDrill
T3C0.1260
%
G90
G05
T1
X2.4606Y-2.2244
X2.4606Y-3.3268
X3.0512Y-2.2244
X3.0512Y-3.3268
X3.5Y-4.4016
X3.5Y-5.3937
X4.0906Y-4.4016
X4.0906Y-5.3937
X4.6811Y-4.4016
X4.6811Y-5.3937
X5.2362Y-3.189
X5.2717Y-4.4016
X5.2717Y-5.3937
X5.4134Y-2.2244
T2
X2.0866Y-2.0866
X2.0866Y-5.7874
X5.7874Y-2.0866
X5.7874Y-5.7874
X5.7874Y-5.7874
T3
X2.1268Y-3.7799
T0
M30
