%TF.GenerationSoftware,KiCad,Pcbnew,7.0.9*%
%TF.CreationDate,2024-04-28T21:16:16+01:00*%
%TF.ProjectId,Esp32EduModular-Panel,45737033-3245-4647-954d-6f64756c6172,rev?*%
%TF.SameCoordinates,Original*%
%TF.FileFunction,Profile,NP*%
%FSLAX46Y46*%
G04 Gerber Fmt 4.6, Leading zero omitted, Abs format (unit mm)*
G04 Created by KiCad (PCBNEW 7.0.9) date 2024-04-28 21:16:16*
%MOMM*%
%LPD*%
G01*
G04 APERTURE LIST*
%TA.AperFunction,Profile*%
%ADD10C,0.100000*%
%TD*%
G04 APERTURE END LIST*
D10*
X102462000Y-55400000D02*
X105540000Y-55400000D01*
X105540000Y-66200000D01*
X102462000Y-66200000D01*
X102462000Y-55400000D01*
X94458000Y-55400000D02*
X97536000Y-55400000D01*
X97536000Y-66200000D01*
X94458000Y-66200000D01*
X94458000Y-55400000D01*
X134717192Y-69904383D02*
X140382809Y-69904383D01*
X140382809Y-73030000D01*
X134717192Y-73030000D01*
X134717192Y-69904383D01*
X144444383Y-109697191D02*
X147570000Y-109697191D01*
X147570000Y-115362808D01*
X144444383Y-115362808D01*
X144444383Y-109697191D01*
X63394383Y-112457192D02*
X66520000Y-112457192D01*
X66520000Y-118122809D01*
X63394383Y-118122809D01*
X63394383Y-112457192D01*
X74537192Y-69924383D02*
X80202809Y-69924383D01*
X80202809Y-73050000D01*
X74537192Y-73050000D01*
X74537192Y-69924383D01*
X94434383Y-84787191D02*
X97560000Y-84787191D01*
X97560000Y-90452808D01*
X94434383Y-90452808D01*
X94434383Y-84787191D01*
X144434383Y-134687192D02*
X147560000Y-134687192D01*
X147560000Y-140352809D01*
X144434383Y-140352809D01*
X144434383Y-134687192D01*
X63464383Y-103467192D02*
X66590000Y-103467192D01*
X66590000Y-109132809D01*
X63464383Y-109132809D01*
X63464383Y-103467192D01*
X140337191Y-86430000D02*
X146002808Y-86430000D01*
X146002808Y-89555617D01*
X140337191Y-89555617D01*
X140337191Y-86430000D01*
X102434383Y-91437192D02*
X105560000Y-91437192D01*
X105560000Y-97102809D01*
X102434383Y-97102809D01*
X102434383Y-91437192D01*
X59737079Y-69937079D02*
X65402696Y-69937079D01*
X65402696Y-73062696D01*
X59737079Y-73062696D01*
X59737079Y-69937079D01*
X63434383Y-128447192D02*
X66560000Y-128447192D01*
X66560000Y-134112809D01*
X63434383Y-134112809D01*
X63434383Y-128447192D01*
X50000000Y-50000000D02*
X150000000Y-50000000D01*
X150000000Y-150000000D01*
X50000000Y-150000000D01*
X50000000Y-50000000D01*
X140367192Y-76525617D02*
X146032809Y-76525617D01*
X146032809Y-83530000D01*
X140367192Y-83530000D01*
X140367192Y-76525617D01*
X102444383Y-80417192D02*
X105570000Y-80417192D01*
X105570000Y-86082809D01*
X102444383Y-86082809D01*
X102444383Y-80417192D01*
X63424383Y-137437192D02*
X66550000Y-137437192D01*
X66550000Y-143102809D01*
X63424383Y-143102809D01*
X63424383Y-137437192D01*
M02*
