%TF.GenerationSoftware,KiCad,Pcbnew,7.0.9*%
%TF.CreationDate,2024-04-28T21:16:15+01:00*%
%TF.ProjectId,Esp32EduModular-Panel,45737033-3245-4647-954d-6f64756c6172,rev?*%
%TF.SameCoordinates,Original*%
%TF.FileFunction,Copper,L2,Bot*%
%TF.FilePolarity,Positive*%
%FSLAX46Y46*%
G04 Gerber Fmt 4.6, Leading zero omitted, Abs format (unit mm)*
G04 Created by KiCad (PCBNEW 7.0.9) date 2024-04-28 21:16:15*
%MOMM*%
%LPD*%
G01*
G04 APERTURE LIST*
%TA.AperFunction,ComponentPad*%
%ADD10C,12.800562*%
%TD*%
G04 APERTURE END LIST*
D10*
%TO.P,H5,1,1*%
%TO.N,GND*%
X103900000Y-111800000D03*
%TD*%
%TO.P,H8,1,1*%
%TO.N,GND*%
X62500000Y-84500000D03*
%TD*%
%TO.P,H14,1,1*%
%TO.N,GND*%
X133900000Y-137000000D03*
%TD*%
%TO.P,H4,1,1*%
%TO.N,GND*%
X77500000Y-56500000D03*
%TD*%
%TO.P,H1,1,1*%
%TO.N,GND*%
X133000000Y-81000000D03*
%TD*%
%TO.P,H9,1,1*%
%TO.N,GND*%
X77500000Y-84500000D03*
%TD*%
%TO.P,H3,1,1*%
%TO.N,GND*%
X88900000Y-111800000D03*
%TD*%
%TO.P,H12,1,1*%
%TO.N,GND*%
X103900000Y-137000000D03*
%TD*%
%TO.P,H10,1,1*%
%TO.N,GND*%
X133900000Y-111800000D03*
%TD*%
%TO.P,H6,1,1*%
%TO.N,GND*%
X137500000Y-56500000D03*
%TD*%
%TO.P,H13,1,1*%
%TO.N,GND*%
X118900000Y-137000000D03*
%TD*%
%TO.P,H7,1,1*%
%TO.N,GND*%
X118900000Y-111800000D03*
%TD*%
%TO.P,H11,1,1*%
%TO.N,GND*%
X88900000Y-137000000D03*
%TD*%
%TO.P,H2,1,1*%
%TO.N,GND*%
X62500000Y-56500000D03*
%TD*%
%TA.AperFunction,Conductor*%
%TO.N,GND*%
G36*
X59528446Y-50057685D02*
G01*
X59574201Y-50110489D01*
X59584145Y-50179647D01*
X59555120Y-50243203D01*
X59510992Y-50275654D01*
X59503979Y-50278714D01*
X59503980Y-50278714D01*
X59047448Y-50519997D01*
X59047449Y-50519996D01*
X58610216Y-50794728D01*
X58194737Y-51101366D01*
X57803327Y-51438200D01*
X57797540Y-51443986D01*
X57797539Y-51443986D01*
X59712031Y-53358478D01*
X59526570Y-53526570D01*
X59358478Y-53712031D01*
X57443986Y-51797539D01*
X57443986Y-51797540D01*
X57438200Y-51803327D01*
X57101366Y-52194737D01*
X56794728Y-52610216D01*
X56519996Y-53047449D01*
X56519997Y-53047448D01*
X56278714Y-53503980D01*
X56072213Y-53977284D01*
X56072212Y-53977284D01*
X55901665Y-54464682D01*
X55901665Y-54464681D01*
X55768016Y-54963466D01*
X55672013Y-55470855D01*
X55614197Y-55983985D01*
X55594890Y-56500000D01*
X55614197Y-57016015D01*
X55672013Y-57529145D01*
X55768016Y-58036534D01*
X55901665Y-58535319D01*
X55901665Y-58535318D01*
X56072212Y-59022716D01*
X56072213Y-59022716D01*
X56278714Y-59496020D01*
X56519997Y-59952552D01*
X56519996Y-59952551D01*
X56794728Y-60389784D01*
X57101366Y-60805263D01*
X57438194Y-61196666D01*
X57443987Y-61202459D01*
X59358477Y-59287968D01*
X59526570Y-59473430D01*
X59712030Y-59641521D01*
X57797540Y-61556012D01*
X57803334Y-61561806D01*
X58194737Y-61898634D01*
X58610216Y-62205272D01*
X59047449Y-62480004D01*
X59047448Y-62480003D01*
X59503980Y-62721286D01*
X59977284Y-62927787D01*
X59977284Y-62927788D01*
X60464682Y-63098335D01*
X60464681Y-63098335D01*
X60963466Y-63231984D01*
X61470855Y-63327987D01*
X61983985Y-63385803D01*
X62500000Y-63405110D01*
X63016015Y-63385803D01*
X63529145Y-63327987D01*
X64036534Y-63231984D01*
X64535319Y-63098335D01*
X64535318Y-63098335D01*
X65022716Y-62927788D01*
X65022716Y-62927787D01*
X65496020Y-62721286D01*
X65952552Y-62480003D01*
X65952551Y-62480004D01*
X66389784Y-62205272D01*
X66805263Y-61898634D01*
X67196673Y-61561799D01*
X67196673Y-61561800D01*
X67202459Y-61556012D01*
X65287968Y-59641521D01*
X65473430Y-59473430D01*
X65641521Y-59287969D01*
X67556010Y-61202458D01*
X67556012Y-61202459D01*
X67561800Y-61196673D01*
X67561799Y-61196673D01*
X67898634Y-60805263D01*
X68205272Y-60389784D01*
X68480004Y-59952551D01*
X68480003Y-59952552D01*
X68721286Y-59496020D01*
X68927787Y-59022716D01*
X68927788Y-59022716D01*
X69098335Y-58535318D01*
X69098335Y-58535319D01*
X69231984Y-58036534D01*
X69327987Y-57529145D01*
X69385803Y-57016015D01*
X69405110Y-56500000D01*
X69385803Y-55983985D01*
X69327987Y-55470855D01*
X69231984Y-54963466D01*
X69098335Y-54464681D01*
X69098335Y-54464682D01*
X68927788Y-53977284D01*
X68927787Y-53977284D01*
X68721286Y-53503980D01*
X68480003Y-53047448D01*
X68480004Y-53047449D01*
X68205272Y-52610216D01*
X67898634Y-52194737D01*
X67561806Y-51803334D01*
X67556012Y-51797540D01*
X65641521Y-53712030D01*
X65473430Y-53526570D01*
X65287968Y-53358478D01*
X67202459Y-51443988D01*
X67202459Y-51443987D01*
X67196666Y-51438195D01*
X67196666Y-51438194D01*
X66805263Y-51101366D01*
X66389784Y-50794728D01*
X65952551Y-50519996D01*
X65952552Y-50519997D01*
X65496020Y-50278714D01*
X65496021Y-50278714D01*
X65489008Y-50275654D01*
X65435433Y-50230804D01*
X65414611Y-50164109D01*
X65433152Y-50096745D01*
X65485170Y-50050098D01*
X65538593Y-50038000D01*
X74461407Y-50038000D01*
X74528446Y-50057685D01*
X74574201Y-50110489D01*
X74584145Y-50179647D01*
X74555120Y-50243203D01*
X74510992Y-50275654D01*
X74503979Y-50278714D01*
X74503980Y-50278714D01*
X74047448Y-50519997D01*
X74047449Y-50519996D01*
X73610216Y-50794728D01*
X73194737Y-51101366D01*
X72803327Y-51438200D01*
X72797540Y-51443986D01*
X72797539Y-51443986D01*
X74712031Y-53358478D01*
X74526570Y-53526570D01*
X74358478Y-53712031D01*
X72443986Y-51797539D01*
X72443986Y-51797540D01*
X72438200Y-51803327D01*
X72101366Y-52194737D01*
X71794728Y-52610216D01*
X71519996Y-53047449D01*
X71519997Y-53047448D01*
X71278714Y-53503980D01*
X71072213Y-53977284D01*
X71072212Y-53977284D01*
X70901665Y-54464682D01*
X70901665Y-54464681D01*
X70768016Y-54963466D01*
X70672013Y-55470855D01*
X70614197Y-55983985D01*
X70594890Y-56500000D01*
X70614197Y-57016015D01*
X70672013Y-57529145D01*
X70768016Y-58036534D01*
X70901665Y-58535319D01*
X70901665Y-58535318D01*
X71072212Y-59022716D01*
X71072213Y-59022716D01*
X71278714Y-59496020D01*
X71519997Y-59952552D01*
X71519996Y-59952551D01*
X71794728Y-60389784D01*
X72101366Y-60805263D01*
X72438194Y-61196666D01*
X72443987Y-61202459D01*
X74358477Y-59287968D01*
X74526570Y-59473430D01*
X74712030Y-59641521D01*
X72797540Y-61556012D01*
X72803334Y-61561806D01*
X73194737Y-61898634D01*
X73610216Y-62205272D01*
X74047449Y-62480004D01*
X74047448Y-62480003D01*
X74503980Y-62721286D01*
X74977284Y-62927787D01*
X74977284Y-62927788D01*
X75464682Y-63098335D01*
X75464681Y-63098335D01*
X75963466Y-63231984D01*
X76470855Y-63327987D01*
X76983985Y-63385803D01*
X77500000Y-63405110D01*
X78016015Y-63385803D01*
X78529145Y-63327987D01*
X79036534Y-63231984D01*
X79535319Y-63098335D01*
X79535318Y-63098335D01*
X80022716Y-62927788D01*
X80022716Y-62927787D01*
X80496020Y-62721286D01*
X80952552Y-62480003D01*
X80952551Y-62480004D01*
X81389784Y-62205272D01*
X81805263Y-61898634D01*
X82196673Y-61561799D01*
X82196673Y-61561800D01*
X82202459Y-61556012D01*
X80287968Y-59641521D01*
X80473430Y-59473430D01*
X80641521Y-59287969D01*
X82556010Y-61202458D01*
X82556012Y-61202459D01*
X82561800Y-61196673D01*
X82561799Y-61196673D01*
X82898634Y-60805263D01*
X83205272Y-60389784D01*
X83480004Y-59952551D01*
X83480003Y-59952552D01*
X83721286Y-59496020D01*
X83927787Y-59022716D01*
X83927788Y-59022716D01*
X84098335Y-58535318D01*
X84098335Y-58535319D01*
X84231984Y-58036534D01*
X84327987Y-57529145D01*
X84385803Y-57016015D01*
X84405110Y-56500000D01*
X84385803Y-55983985D01*
X84327987Y-55470855D01*
X84231984Y-54963466D01*
X84098335Y-54464681D01*
X84098335Y-54464682D01*
X83927788Y-53977284D01*
X83927787Y-53977284D01*
X83721286Y-53503980D01*
X83480003Y-53047448D01*
X83480004Y-53047449D01*
X83205272Y-52610216D01*
X82898634Y-52194737D01*
X82561806Y-51803334D01*
X82556012Y-51797540D01*
X80641521Y-53712030D01*
X80473430Y-53526570D01*
X80287968Y-53358478D01*
X82202459Y-51443988D01*
X82202459Y-51443987D01*
X82196666Y-51438195D01*
X82196666Y-51438194D01*
X81805263Y-51101366D01*
X81389784Y-50794728D01*
X80952551Y-50519996D01*
X80952552Y-50519997D01*
X80496020Y-50278714D01*
X80496021Y-50278714D01*
X80489008Y-50275654D01*
X80435433Y-50230804D01*
X80414611Y-50164109D01*
X80433152Y-50096745D01*
X80485170Y-50050098D01*
X80538593Y-50038000D01*
X134461407Y-50038000D01*
X134528446Y-50057685D01*
X134574201Y-50110489D01*
X134584145Y-50179647D01*
X134555120Y-50243203D01*
X134510992Y-50275654D01*
X134503979Y-50278714D01*
X134503980Y-50278714D01*
X134047448Y-50519997D01*
X134047449Y-50519996D01*
X133610216Y-50794728D01*
X133194737Y-51101366D01*
X132803327Y-51438200D01*
X132797540Y-51443986D01*
X132797539Y-51443986D01*
X134712031Y-53358478D01*
X134526570Y-53526570D01*
X134358478Y-53712031D01*
X132443986Y-51797539D01*
X132443986Y-51797540D01*
X132438200Y-51803327D01*
X132101366Y-52194737D01*
X131794728Y-52610216D01*
X131519996Y-53047449D01*
X131519997Y-53047448D01*
X131278714Y-53503980D01*
X131072213Y-53977284D01*
X131072212Y-53977284D01*
X130901665Y-54464682D01*
X130901665Y-54464681D01*
X130768016Y-54963466D01*
X130672013Y-55470855D01*
X130614197Y-55983985D01*
X130594890Y-56500000D01*
X130614197Y-57016015D01*
X130672013Y-57529145D01*
X130768016Y-58036534D01*
X130901665Y-58535319D01*
X130901665Y-58535318D01*
X131072212Y-59022716D01*
X131072213Y-59022716D01*
X131278714Y-59496020D01*
X131519997Y-59952552D01*
X131519996Y-59952551D01*
X131794728Y-60389784D01*
X132101366Y-60805263D01*
X132438194Y-61196666D01*
X132443987Y-61202459D01*
X134358477Y-59287968D01*
X134526570Y-59473430D01*
X134712030Y-59641521D01*
X132797540Y-61556012D01*
X132803334Y-61561806D01*
X133194737Y-61898634D01*
X133610216Y-62205272D01*
X134047449Y-62480004D01*
X134047448Y-62480003D01*
X134503980Y-62721286D01*
X134977284Y-62927787D01*
X134977284Y-62927788D01*
X135464682Y-63098335D01*
X135464681Y-63098335D01*
X135963466Y-63231984D01*
X136470855Y-63327987D01*
X136983985Y-63385803D01*
X137500000Y-63405110D01*
X138016015Y-63385803D01*
X138529145Y-63327987D01*
X139036534Y-63231984D01*
X139535319Y-63098335D01*
X139535318Y-63098335D01*
X140022716Y-62927788D01*
X140022716Y-62927787D01*
X140496020Y-62721286D01*
X140952552Y-62480003D01*
X140952551Y-62480004D01*
X141389784Y-62205272D01*
X141805263Y-61898634D01*
X142196673Y-61561799D01*
X142196673Y-61561800D01*
X142202459Y-61556012D01*
X140287968Y-59641521D01*
X140473430Y-59473430D01*
X140641521Y-59287968D01*
X142556012Y-61202459D01*
X142561800Y-61196673D01*
X142561799Y-61196673D01*
X142898634Y-60805263D01*
X143205272Y-60389784D01*
X143480004Y-59952551D01*
X143480003Y-59952552D01*
X143721286Y-59496020D01*
X143927787Y-59022716D01*
X143927788Y-59022716D01*
X144098335Y-58535318D01*
X144098335Y-58535319D01*
X144231984Y-58036534D01*
X144327987Y-57529145D01*
X144385803Y-57016015D01*
X144405110Y-56500000D01*
X144385803Y-55983985D01*
X144327987Y-55470855D01*
X144231984Y-54963466D01*
X144098335Y-54464681D01*
X144098335Y-54464682D01*
X143927788Y-53977284D01*
X143927787Y-53977284D01*
X143721286Y-53503980D01*
X143480003Y-53047448D01*
X143480004Y-53047449D01*
X143450190Y-53000000D01*
X145394551Y-53000000D01*
X145414317Y-53251151D01*
X145473126Y-53496110D01*
X145569533Y-53728859D01*
X145701160Y-53943653D01*
X145701161Y-53943656D01*
X145701164Y-53943659D01*
X145864776Y-54135224D01*
X146013066Y-54261875D01*
X146056343Y-54298838D01*
X146056346Y-54298839D01*
X146271140Y-54430466D01*
X146481854Y-54517746D01*
X146503889Y-54526873D01*
X146748852Y-54585683D01*
X146904950Y-54597968D01*
X146937116Y-54600500D01*
X146937118Y-54600500D01*
X147062884Y-54600500D01*
X147092518Y-54598167D01*
X147251148Y-54585683D01*
X147496111Y-54526873D01*
X147728859Y-54430466D01*
X147943659Y-54298836D01*
X148135224Y-54135224D01*
X148298836Y-53943659D01*
X148430466Y-53728859D01*
X148526873Y-53496111D01*
X148585683Y-53251148D01*
X148605449Y-53000000D01*
X148585683Y-52748852D01*
X148526873Y-52503889D01*
X148430466Y-52271141D01*
X148430466Y-52271140D01*
X148298839Y-52056346D01*
X148298838Y-52056343D01*
X148261875Y-52013066D01*
X148135224Y-51864776D01*
X148008571Y-51756604D01*
X147943656Y-51701161D01*
X147943653Y-51701160D01*
X147728859Y-51569533D01*
X147496110Y-51473126D01*
X147251150Y-51414317D01*
X147062884Y-51399500D01*
X147062882Y-51399500D01*
X146937118Y-51399500D01*
X146937116Y-51399500D01*
X146748849Y-51414317D01*
X146503889Y-51473126D01*
X146271140Y-51569533D01*
X146056346Y-51701160D01*
X146056343Y-51701161D01*
X145864776Y-51864776D01*
X145701161Y-52056343D01*
X145701160Y-52056346D01*
X145569533Y-52271140D01*
X145473126Y-52503889D01*
X145414317Y-52748848D01*
X145394551Y-53000000D01*
X143450190Y-53000000D01*
X143205272Y-52610216D01*
X142898634Y-52194737D01*
X142561806Y-51803334D01*
X142556012Y-51797540D01*
X140641521Y-53712030D01*
X140473430Y-53526570D01*
X140287968Y-53358478D01*
X142202459Y-51443988D01*
X142202459Y-51443987D01*
X142196666Y-51438195D01*
X142196666Y-51438194D01*
X141805263Y-51101366D01*
X141389784Y-50794728D01*
X140952551Y-50519996D01*
X140952552Y-50519997D01*
X140496020Y-50278714D01*
X140496021Y-50278714D01*
X140489008Y-50275654D01*
X140435433Y-50230804D01*
X140414611Y-50164109D01*
X140433152Y-50096745D01*
X140485170Y-50050098D01*
X140538593Y-50038000D01*
X149875500Y-50038000D01*
X149942539Y-50057685D01*
X149988294Y-50110489D01*
X149999500Y-50162000D01*
X149999500Y-149736000D01*
X149979815Y-149803039D01*
X149927011Y-149848794D01*
X149875500Y-149860000D01*
X50162000Y-149860000D01*
X50094961Y-149840315D01*
X50049206Y-149787511D01*
X50038000Y-149736000D01*
X50038000Y-147000000D01*
X51394551Y-147000000D01*
X51414317Y-147251151D01*
X51473126Y-147496110D01*
X51569533Y-147728859D01*
X51701160Y-147943653D01*
X51701161Y-147943656D01*
X51701164Y-147943659D01*
X51864776Y-148135224D01*
X52013066Y-148261875D01*
X52056343Y-148298838D01*
X52056346Y-148298839D01*
X52271140Y-148430466D01*
X52503889Y-148526873D01*
X52748852Y-148585683D01*
X52904950Y-148597968D01*
X52937116Y-148600500D01*
X52937118Y-148600500D01*
X53062884Y-148600500D01*
X53092518Y-148598167D01*
X53251148Y-148585683D01*
X53496111Y-148526873D01*
X53728859Y-148430466D01*
X53943659Y-148298836D01*
X54135224Y-148135224D01*
X54298836Y-147943659D01*
X54430466Y-147728859D01*
X54526873Y-147496111D01*
X54585683Y-147251148D01*
X54605449Y-147000000D01*
X145394551Y-147000000D01*
X145414317Y-147251151D01*
X145473126Y-147496110D01*
X145569533Y-147728859D01*
X145701160Y-147943653D01*
X145701161Y-147943656D01*
X145701164Y-147943659D01*
X145864776Y-148135224D01*
X146013066Y-148261875D01*
X146056343Y-148298838D01*
X146056346Y-148298839D01*
X146271140Y-148430466D01*
X146503889Y-148526873D01*
X146748852Y-148585683D01*
X146904950Y-148597968D01*
X146937116Y-148600500D01*
X146937118Y-148600500D01*
X147062884Y-148600500D01*
X147092518Y-148598167D01*
X147251148Y-148585683D01*
X147496111Y-148526873D01*
X147728859Y-148430466D01*
X147943659Y-148298836D01*
X148135224Y-148135224D01*
X148298836Y-147943659D01*
X148430466Y-147728859D01*
X148526873Y-147496111D01*
X148585683Y-147251148D01*
X148605449Y-147000000D01*
X148585683Y-146748852D01*
X148526873Y-146503889D01*
X148430466Y-146271141D01*
X148430466Y-146271140D01*
X148298839Y-146056346D01*
X148298838Y-146056343D01*
X148261875Y-146013066D01*
X148135224Y-145864776D01*
X148008571Y-145756604D01*
X147943656Y-145701161D01*
X147943653Y-145701160D01*
X147728859Y-145569533D01*
X147496110Y-145473126D01*
X147251150Y-145414317D01*
X147062884Y-145399500D01*
X147062882Y-145399500D01*
X146937118Y-145399500D01*
X146937116Y-145399500D01*
X146748849Y-145414317D01*
X146503889Y-145473126D01*
X146271140Y-145569533D01*
X146056346Y-145701160D01*
X146056343Y-145701161D01*
X145864776Y-145864776D01*
X145701161Y-146056343D01*
X145701160Y-146056346D01*
X145569533Y-146271140D01*
X145473126Y-146503889D01*
X145414317Y-146748848D01*
X145394551Y-147000000D01*
X54605449Y-147000000D01*
X54585683Y-146748852D01*
X54526873Y-146503889D01*
X54430466Y-146271141D01*
X54430466Y-146271140D01*
X54298839Y-146056346D01*
X54298838Y-146056343D01*
X54261875Y-146013066D01*
X54135224Y-145864776D01*
X54008571Y-145756604D01*
X53943656Y-145701161D01*
X53943653Y-145701160D01*
X53728859Y-145569533D01*
X53496110Y-145473126D01*
X53251150Y-145414317D01*
X53062884Y-145399500D01*
X53062882Y-145399500D01*
X52937118Y-145399500D01*
X52937116Y-145399500D01*
X52748849Y-145414317D01*
X52503889Y-145473126D01*
X52271140Y-145569533D01*
X52056346Y-145701160D01*
X52056343Y-145701161D01*
X51864776Y-145864776D01*
X51701161Y-146056343D01*
X51701160Y-146056346D01*
X51569533Y-146271140D01*
X51473126Y-146503889D01*
X51414317Y-146748848D01*
X51394551Y-147000000D01*
X50038000Y-147000000D01*
X50038000Y-143078698D01*
X63423799Y-143078698D01*
X63423842Y-143102810D01*
X63423883Y-143102908D01*
X63423999Y-143103191D01*
X63424001Y-143103193D01*
X63424191Y-143103271D01*
X63424383Y-143103350D01*
X63424385Y-143103348D01*
X63448999Y-143103333D01*
X63448999Y-143103337D01*
X63449143Y-143103309D01*
X66525240Y-143103309D01*
X66525383Y-143103337D01*
X66525384Y-143103333D01*
X66549997Y-143103348D01*
X66550000Y-143103350D01*
X66550383Y-143103192D01*
X66550500Y-143102908D01*
X66550541Y-143102809D01*
X66550540Y-143102806D01*
X66550583Y-143078698D01*
X66550500Y-143078276D01*
X66550500Y-137461951D01*
X66550528Y-137461808D01*
X66550524Y-137461808D01*
X66550539Y-137437194D01*
X66550541Y-137437192D01*
X66550462Y-137437000D01*
X66550384Y-137436810D01*
X66550382Y-137436808D01*
X66550099Y-137436692D01*
X66550000Y-137436651D01*
X66525446Y-137436651D01*
X66525240Y-137436692D01*
X63449143Y-137436692D01*
X63448937Y-137436651D01*
X63424383Y-137436651D01*
X63424284Y-137436692D01*
X63424000Y-137436808D01*
X63423998Y-137436810D01*
X63423842Y-137437191D01*
X63423859Y-137461808D01*
X63423854Y-137461808D01*
X63423883Y-137461951D01*
X63423883Y-143078276D01*
X63423799Y-143078698D01*
X50038000Y-143078698D01*
X50038000Y-137000000D01*
X81994890Y-137000000D01*
X82014197Y-137516015D01*
X82072013Y-138029145D01*
X82168016Y-138536534D01*
X82301665Y-139035319D01*
X82301665Y-139035318D01*
X82472212Y-139522716D01*
X82472213Y-139522716D01*
X82678714Y-139996020D01*
X82919997Y-140452552D01*
X82919996Y-140452551D01*
X83194728Y-140889784D01*
X83501366Y-141305263D01*
X83838194Y-141696666D01*
X83843987Y-141702459D01*
X85758477Y-139787968D01*
X85926570Y-139973430D01*
X86112030Y-140141521D01*
X84197540Y-142056012D01*
X84203334Y-142061806D01*
X84594737Y-142398634D01*
X85010216Y-142705272D01*
X85447449Y-142980004D01*
X85447448Y-142980003D01*
X85903980Y-143221286D01*
X86377284Y-143427787D01*
X86377284Y-143427788D01*
X86864682Y-143598335D01*
X86864681Y-143598335D01*
X87363466Y-143731984D01*
X87870855Y-143827987D01*
X88383985Y-143885803D01*
X88900000Y-143905110D01*
X89416015Y-143885803D01*
X89929145Y-143827987D01*
X90436534Y-143731984D01*
X90935319Y-143598335D01*
X90935318Y-143598335D01*
X91422716Y-143427788D01*
X91422716Y-143427787D01*
X91896020Y-143221286D01*
X92352552Y-142980003D01*
X92352551Y-142980004D01*
X92789784Y-142705272D01*
X93205263Y-142398634D01*
X93596673Y-142061799D01*
X93596673Y-142061800D01*
X93602459Y-142056012D01*
X91687968Y-140141521D01*
X91873430Y-139973430D01*
X92041521Y-139787968D01*
X93956012Y-141702459D01*
X93961800Y-141696673D01*
X93961799Y-141696673D01*
X94298634Y-141305263D01*
X94605272Y-140889784D01*
X94880004Y-140452551D01*
X94880003Y-140452552D01*
X95121286Y-139996020D01*
X95327787Y-139522716D01*
X95327788Y-139522716D01*
X95498335Y-139035318D01*
X95498335Y-139035319D01*
X95631984Y-138536534D01*
X95727987Y-138029145D01*
X95785803Y-137516015D01*
X95805110Y-137000000D01*
X96994890Y-137000000D01*
X97014197Y-137516015D01*
X97072013Y-138029145D01*
X97168016Y-138536534D01*
X97301665Y-139035319D01*
X97301665Y-139035318D01*
X97472212Y-139522716D01*
X97472213Y-139522716D01*
X97678714Y-139996020D01*
X97919997Y-140452552D01*
X97919996Y-140452551D01*
X98194728Y-140889784D01*
X98501366Y-141305263D01*
X98838194Y-141696666D01*
X98843987Y-141702459D01*
X100758477Y-139787968D01*
X100926570Y-139973430D01*
X101112030Y-140141521D01*
X99197540Y-142056012D01*
X99203334Y-142061806D01*
X99594737Y-142398634D01*
X100010216Y-142705272D01*
X100447449Y-142980004D01*
X100447448Y-142980003D01*
X100903980Y-143221286D01*
X101377284Y-143427787D01*
X101377284Y-143427788D01*
X101864682Y-143598335D01*
X101864681Y-143598335D01*
X102363466Y-143731984D01*
X102870855Y-143827987D01*
X103383985Y-143885803D01*
X103900000Y-143905110D01*
X104416015Y-143885803D01*
X104929145Y-143827987D01*
X105436534Y-143731984D01*
X105935319Y-143598335D01*
X105935318Y-143598335D01*
X106422716Y-143427788D01*
X106422716Y-143427787D01*
X106896020Y-143221286D01*
X107352552Y-142980003D01*
X107352551Y-142980004D01*
X107789784Y-142705272D01*
X108205263Y-142398634D01*
X108596673Y-142061799D01*
X108596673Y-142061800D01*
X108602459Y-142056012D01*
X106687968Y-140141521D01*
X106873430Y-139973430D01*
X107041521Y-139787968D01*
X108956012Y-141702459D01*
X108961800Y-141696673D01*
X108961799Y-141696673D01*
X109298634Y-141305263D01*
X109605272Y-140889784D01*
X109880004Y-140452551D01*
X109880003Y-140452552D01*
X110121286Y-139996020D01*
X110327787Y-139522716D01*
X110327788Y-139522716D01*
X110498335Y-139035318D01*
X110498335Y-139035319D01*
X110631984Y-138536534D01*
X110727987Y-138029145D01*
X110785803Y-137516015D01*
X110805110Y-137000000D01*
X111994890Y-137000000D01*
X112014197Y-137516015D01*
X112072013Y-138029145D01*
X112168016Y-138536534D01*
X112301665Y-139035319D01*
X112301665Y-139035318D01*
X112472212Y-139522716D01*
X112472213Y-139522716D01*
X112678714Y-139996020D01*
X112919997Y-140452552D01*
X112919996Y-140452551D01*
X113194728Y-140889784D01*
X113501366Y-141305263D01*
X113838194Y-141696666D01*
X113843987Y-141702459D01*
X115758477Y-139787968D01*
X115926570Y-139973430D01*
X116112030Y-140141521D01*
X114197540Y-142056011D01*
X114203334Y-142061805D01*
X114203334Y-142061806D01*
X114594737Y-142398634D01*
X115010216Y-142705272D01*
X115447449Y-142980004D01*
X115447448Y-142980003D01*
X115903980Y-143221286D01*
X116377284Y-143427787D01*
X116377284Y-143427788D01*
X116864682Y-143598335D01*
X116864681Y-143598335D01*
X117363466Y-143731984D01*
X117870855Y-143827987D01*
X118383985Y-143885803D01*
X118900000Y-143905110D01*
X119416015Y-143885803D01*
X119929145Y-143827987D01*
X120436534Y-143731984D01*
X120935319Y-143598335D01*
X120935318Y-143598335D01*
X121422716Y-143427788D01*
X121422716Y-143427787D01*
X121896020Y-143221286D01*
X122352552Y-142980003D01*
X122352551Y-142980004D01*
X122789784Y-142705272D01*
X123205263Y-142398634D01*
X123596673Y-142061799D01*
X123596673Y-142061800D01*
X123602459Y-142056012D01*
X121687968Y-140141521D01*
X121873430Y-139973430D01*
X122041521Y-139787969D01*
X123956010Y-141702458D01*
X123956012Y-141702459D01*
X123961800Y-141696673D01*
X123961799Y-141696673D01*
X124298634Y-141305263D01*
X124605272Y-140889784D01*
X124880004Y-140452551D01*
X124880003Y-140452552D01*
X125121286Y-139996020D01*
X125327787Y-139522716D01*
X125327788Y-139522716D01*
X125498335Y-139035318D01*
X125498335Y-139035319D01*
X125631984Y-138536534D01*
X125727987Y-138029145D01*
X125785803Y-137516015D01*
X125805110Y-137000000D01*
X126994890Y-137000000D01*
X127014197Y-137516015D01*
X127072013Y-138029145D01*
X127168016Y-138536534D01*
X127301665Y-139035319D01*
X127301665Y-139035318D01*
X127472212Y-139522716D01*
X127472213Y-139522716D01*
X127678714Y-139996020D01*
X127919997Y-140452552D01*
X127919996Y-140452551D01*
X128194728Y-140889784D01*
X128501366Y-141305263D01*
X128838194Y-141696666D01*
X128843987Y-141702459D01*
X130758477Y-139787968D01*
X130926570Y-139973430D01*
X131112030Y-140141521D01*
X129197540Y-142056012D01*
X129203334Y-142061806D01*
X129594737Y-142398634D01*
X130010216Y-142705272D01*
X130447449Y-142980004D01*
X130447448Y-142980003D01*
X130903980Y-143221286D01*
X131377284Y-143427787D01*
X131377284Y-143427788D01*
X131864682Y-143598335D01*
X131864681Y-143598335D01*
X132363466Y-143731984D01*
X132870855Y-143827987D01*
X133383985Y-143885803D01*
X133900000Y-143905110D01*
X134416015Y-143885803D01*
X134929145Y-143827987D01*
X135436534Y-143731984D01*
X135935319Y-143598335D01*
X135935318Y-143598335D01*
X136422716Y-143427788D01*
X136422716Y-143427787D01*
X136896020Y-143221286D01*
X137352552Y-142980003D01*
X137352551Y-142980004D01*
X137789784Y-142705272D01*
X138205263Y-142398634D01*
X138596673Y-142061799D01*
X138596673Y-142061800D01*
X138602459Y-142056012D01*
X136687968Y-140141521D01*
X136873430Y-139973430D01*
X137041521Y-139787969D01*
X138956010Y-141702458D01*
X138956012Y-141702459D01*
X138961800Y-141696673D01*
X138961799Y-141696673D01*
X139298634Y-141305263D01*
X139605272Y-140889784D01*
X139880004Y-140452551D01*
X139880003Y-140452552D01*
X139945461Y-140328698D01*
X144433799Y-140328698D01*
X144433842Y-140352810D01*
X144433883Y-140352908D01*
X144433999Y-140353191D01*
X144434001Y-140353193D01*
X144434191Y-140353271D01*
X144434383Y-140353350D01*
X144434385Y-140353348D01*
X144458999Y-140353333D01*
X144458999Y-140353337D01*
X144459143Y-140353309D01*
X147535240Y-140353309D01*
X147535383Y-140353337D01*
X147535384Y-140353333D01*
X147559997Y-140353348D01*
X147560000Y-140353350D01*
X147560383Y-140353192D01*
X147560500Y-140352908D01*
X147560541Y-140352809D01*
X147560540Y-140352806D01*
X147560583Y-140328698D01*
X147560500Y-140328276D01*
X147560500Y-134711951D01*
X147560528Y-134711808D01*
X147560524Y-134711808D01*
X147560539Y-134687194D01*
X147560541Y-134687192D01*
X147560462Y-134687000D01*
X147560384Y-134686810D01*
X147560382Y-134686808D01*
X147560099Y-134686692D01*
X147560000Y-134686651D01*
X147535446Y-134686651D01*
X147535240Y-134686692D01*
X144459143Y-134686692D01*
X144458937Y-134686651D01*
X144434383Y-134686651D01*
X144434284Y-134686692D01*
X144434000Y-134686808D01*
X144433998Y-134686810D01*
X144433842Y-134687191D01*
X144433859Y-134711808D01*
X144433854Y-134711808D01*
X144433883Y-134711951D01*
X144433883Y-140328276D01*
X144433799Y-140328698D01*
X139945461Y-140328698D01*
X140121286Y-139996020D01*
X140327787Y-139522716D01*
X140327788Y-139522716D01*
X140498335Y-139035318D01*
X140498335Y-139035319D01*
X140631984Y-138536534D01*
X140727987Y-138029145D01*
X140785803Y-137516015D01*
X140805110Y-137000000D01*
X140785803Y-136483985D01*
X140727987Y-135970855D01*
X140631984Y-135463466D01*
X140498335Y-134964681D01*
X140498335Y-134964682D01*
X140327788Y-134477284D01*
X140327787Y-134477284D01*
X140121286Y-134003980D01*
X139880003Y-133547448D01*
X139880004Y-133547449D01*
X139605272Y-133110216D01*
X139298634Y-132694737D01*
X138961806Y-132303334D01*
X138956012Y-132297540D01*
X137041521Y-134212030D01*
X136873430Y-134026570D01*
X136687968Y-133858478D01*
X138602459Y-131943988D01*
X138602459Y-131943987D01*
X138596666Y-131938195D01*
X138596666Y-131938194D01*
X138205263Y-131601366D01*
X137789784Y-131294728D01*
X137352551Y-131019996D01*
X137352552Y-131019997D01*
X136896020Y-130778714D01*
X136422716Y-130572213D01*
X136422716Y-130572212D01*
X135935318Y-130401665D01*
X135935319Y-130401665D01*
X135436534Y-130268016D01*
X134929145Y-130172013D01*
X134416015Y-130114197D01*
X133900000Y-130094890D01*
X133383985Y-130114197D01*
X132870855Y-130172013D01*
X132363466Y-130268016D01*
X131864681Y-130401665D01*
X131864682Y-130401665D01*
X131377284Y-130572212D01*
X131377284Y-130572213D01*
X130903980Y-130778714D01*
X130447448Y-131019997D01*
X130447449Y-131019996D01*
X130010216Y-131294728D01*
X129594737Y-131601366D01*
X129203327Y-131938200D01*
X129197540Y-131943986D01*
X129197539Y-131943986D01*
X131112031Y-133858478D01*
X130926570Y-134026570D01*
X130758478Y-134212031D01*
X128843986Y-132297539D01*
X128843986Y-132297540D01*
X128838200Y-132303327D01*
X128501366Y-132694737D01*
X128194728Y-133110216D01*
X127919996Y-133547449D01*
X127919997Y-133547448D01*
X127678714Y-134003980D01*
X127472213Y-134477284D01*
X127472212Y-134477284D01*
X127301665Y-134964682D01*
X127301665Y-134964681D01*
X127168016Y-135463466D01*
X127072013Y-135970855D01*
X127014197Y-136483985D01*
X126994890Y-137000000D01*
X125805110Y-137000000D01*
X125785803Y-136483985D01*
X125727987Y-135970855D01*
X125631984Y-135463466D01*
X125498335Y-134964681D01*
X125498335Y-134964682D01*
X125327788Y-134477284D01*
X125327787Y-134477284D01*
X125121286Y-134003980D01*
X124880003Y-133547448D01*
X124880004Y-133547449D01*
X124605272Y-133110216D01*
X124298634Y-132694737D01*
X123961806Y-132303334D01*
X123956012Y-132297540D01*
X122041521Y-134212030D01*
X121873430Y-134026570D01*
X121687968Y-133858478D01*
X123602459Y-131943988D01*
X123602459Y-131943987D01*
X123596666Y-131938195D01*
X123596666Y-131938194D01*
X123205263Y-131601366D01*
X122789784Y-131294728D01*
X122352551Y-131019996D01*
X122352552Y-131019997D01*
X121896020Y-130778714D01*
X121422716Y-130572213D01*
X121422716Y-130572212D01*
X120935318Y-130401665D01*
X120935319Y-130401665D01*
X120436534Y-130268016D01*
X119929145Y-130172013D01*
X119416015Y-130114197D01*
X118900000Y-130094890D01*
X118383985Y-130114197D01*
X117870855Y-130172013D01*
X117363466Y-130268016D01*
X116864681Y-130401665D01*
X116864682Y-130401665D01*
X116377284Y-130572212D01*
X116377284Y-130572213D01*
X115903980Y-130778714D01*
X115447448Y-131019997D01*
X115447449Y-131019996D01*
X115010216Y-131294728D01*
X114594737Y-131601366D01*
X114203327Y-131938200D01*
X114197540Y-131943986D01*
X114197539Y-131943986D01*
X116112031Y-133858478D01*
X115926570Y-134026570D01*
X115758478Y-134212031D01*
X113843986Y-132297539D01*
X113843986Y-132297540D01*
X113838200Y-132303327D01*
X113501366Y-132694737D01*
X113194728Y-133110216D01*
X112919996Y-133547449D01*
X112919997Y-133547448D01*
X112678714Y-134003980D01*
X112472213Y-134477284D01*
X112472212Y-134477284D01*
X112301665Y-134964682D01*
X112301665Y-134964681D01*
X112168016Y-135463466D01*
X112072013Y-135970855D01*
X112014197Y-136483985D01*
X111994890Y-137000000D01*
X110805110Y-137000000D01*
X110785803Y-136483985D01*
X110727987Y-135970855D01*
X110631984Y-135463466D01*
X110498335Y-134964681D01*
X110498335Y-134964682D01*
X110327788Y-134477284D01*
X110327787Y-134477284D01*
X110121286Y-134003980D01*
X109880003Y-133547448D01*
X109880004Y-133547449D01*
X109605272Y-133110216D01*
X109298634Y-132694737D01*
X108961806Y-132303334D01*
X108956012Y-132297540D01*
X107041521Y-134212030D01*
X106873430Y-134026570D01*
X106687968Y-133858478D01*
X108602459Y-131943988D01*
X108602459Y-131943987D01*
X108596666Y-131938195D01*
X108596666Y-131938194D01*
X108205263Y-131601366D01*
X107789784Y-131294728D01*
X107352551Y-131019996D01*
X107352552Y-131019997D01*
X106896020Y-130778714D01*
X106422716Y-130572213D01*
X106422716Y-130572212D01*
X105935318Y-130401665D01*
X105935319Y-130401665D01*
X105436534Y-130268016D01*
X104929145Y-130172013D01*
X104416015Y-130114197D01*
X103900000Y-130094890D01*
X103383985Y-130114197D01*
X102870855Y-130172013D01*
X102363466Y-130268016D01*
X101864681Y-130401665D01*
X101864682Y-130401665D01*
X101377284Y-130572212D01*
X101377284Y-130572213D01*
X100903980Y-130778714D01*
X100447448Y-131019997D01*
X100447449Y-131019996D01*
X100010216Y-131294728D01*
X99594737Y-131601366D01*
X99203327Y-131938200D01*
X99197540Y-131943986D01*
X99197539Y-131943986D01*
X101112031Y-133858478D01*
X100926570Y-134026570D01*
X100758478Y-134212031D01*
X98843986Y-132297539D01*
X98843986Y-132297540D01*
X98838200Y-132303327D01*
X98501366Y-132694737D01*
X98194728Y-133110216D01*
X97919996Y-133547449D01*
X97919997Y-133547448D01*
X97678714Y-134003980D01*
X97472213Y-134477284D01*
X97472212Y-134477284D01*
X97301665Y-134964682D01*
X97301665Y-134964681D01*
X97168016Y-135463466D01*
X97072013Y-135970855D01*
X97014197Y-136483985D01*
X96994890Y-137000000D01*
X95805110Y-137000000D01*
X95785803Y-136483985D01*
X95727987Y-135970855D01*
X95631984Y-135463466D01*
X95498335Y-134964681D01*
X95498335Y-134964682D01*
X95327788Y-134477284D01*
X95327787Y-134477284D01*
X95121286Y-134003980D01*
X94880003Y-133547448D01*
X94880004Y-133547449D01*
X94605272Y-133110216D01*
X94298634Y-132694737D01*
X93961806Y-132303334D01*
X93956012Y-132297540D01*
X92041521Y-134212030D01*
X91873430Y-134026570D01*
X91687968Y-133858478D01*
X93602459Y-131943988D01*
X93602459Y-131943987D01*
X93596666Y-131938195D01*
X93596666Y-131938194D01*
X93205263Y-131601366D01*
X92789784Y-131294728D01*
X92352551Y-131019996D01*
X92352552Y-131019997D01*
X91896020Y-130778714D01*
X91422716Y-130572213D01*
X91422716Y-130572212D01*
X90935318Y-130401665D01*
X90935319Y-130401665D01*
X90436534Y-130268016D01*
X89929145Y-130172013D01*
X89416015Y-130114197D01*
X88900000Y-130094890D01*
X88383985Y-130114197D01*
X87870855Y-130172013D01*
X87363466Y-130268016D01*
X86864681Y-130401665D01*
X86864682Y-130401665D01*
X86377284Y-130572212D01*
X86377284Y-130572213D01*
X85903980Y-130778714D01*
X85447448Y-131019997D01*
X85447449Y-131019996D01*
X85010216Y-131294728D01*
X84594737Y-131601366D01*
X84203327Y-131938200D01*
X84197540Y-131943986D01*
X84197539Y-131943986D01*
X86112031Y-133858478D01*
X85926570Y-134026570D01*
X85758478Y-134212031D01*
X83843986Y-132297539D01*
X83843986Y-132297540D01*
X83838200Y-132303327D01*
X83501366Y-132694737D01*
X83194728Y-133110216D01*
X82919996Y-133547449D01*
X82919997Y-133547448D01*
X82678714Y-134003980D01*
X82472213Y-134477284D01*
X82472212Y-134477284D01*
X82301665Y-134964682D01*
X82301665Y-134964681D01*
X82168016Y-135463466D01*
X82072013Y-135970855D01*
X82014197Y-136483985D01*
X81994890Y-137000000D01*
X50038000Y-137000000D01*
X50038000Y-134088698D01*
X63433799Y-134088698D01*
X63433842Y-134112810D01*
X63433883Y-134112908D01*
X63433999Y-134113191D01*
X63434001Y-134113193D01*
X63434191Y-134113271D01*
X63434383Y-134113350D01*
X63434385Y-134113348D01*
X63458999Y-134113333D01*
X63458999Y-134113337D01*
X63459143Y-134113309D01*
X66535240Y-134113309D01*
X66535383Y-134113337D01*
X66535384Y-134113333D01*
X66559997Y-134113348D01*
X66560000Y-134113350D01*
X66560383Y-134113192D01*
X66560500Y-134112908D01*
X66560541Y-134112809D01*
X66560540Y-134112806D01*
X66560583Y-134088698D01*
X66560500Y-134088276D01*
X66560500Y-128471951D01*
X66560528Y-128471808D01*
X66560524Y-128471808D01*
X66560539Y-128447194D01*
X66560541Y-128447192D01*
X66560462Y-128447000D01*
X66560384Y-128446810D01*
X66560382Y-128446808D01*
X66560099Y-128446692D01*
X66560000Y-128446651D01*
X66535446Y-128446651D01*
X66535240Y-128446692D01*
X63459143Y-128446692D01*
X63458937Y-128446651D01*
X63434383Y-128446651D01*
X63434284Y-128446692D01*
X63434000Y-128446808D01*
X63433998Y-128446810D01*
X63433842Y-128447191D01*
X63433859Y-128471808D01*
X63433854Y-128471808D01*
X63433883Y-128471951D01*
X63433883Y-134088276D01*
X63433799Y-134088698D01*
X50038000Y-134088698D01*
X50038000Y-118098698D01*
X63393799Y-118098698D01*
X63393842Y-118122810D01*
X63393883Y-118122908D01*
X63393999Y-118123191D01*
X63394001Y-118123193D01*
X63394191Y-118123271D01*
X63394383Y-118123350D01*
X63394385Y-118123348D01*
X63418999Y-118123333D01*
X63418999Y-118123337D01*
X63419143Y-118123309D01*
X66495240Y-118123309D01*
X66495383Y-118123337D01*
X66495384Y-118123333D01*
X66519997Y-118123348D01*
X66520000Y-118123350D01*
X66520383Y-118123192D01*
X66520500Y-118122908D01*
X66520541Y-118122809D01*
X66520540Y-118122806D01*
X66520583Y-118098698D01*
X66520500Y-118098276D01*
X66520500Y-112481951D01*
X66520528Y-112481808D01*
X66520524Y-112481808D01*
X66520539Y-112457194D01*
X66520541Y-112457192D01*
X66520462Y-112457000D01*
X66520384Y-112456810D01*
X66520382Y-112456808D01*
X66520099Y-112456692D01*
X66520000Y-112456651D01*
X66495446Y-112456651D01*
X66495240Y-112456692D01*
X63419143Y-112456692D01*
X63418937Y-112456651D01*
X63394383Y-112456651D01*
X63394284Y-112456692D01*
X63394000Y-112456808D01*
X63393998Y-112456810D01*
X63393842Y-112457191D01*
X63393859Y-112481808D01*
X63393854Y-112481808D01*
X63393883Y-112481951D01*
X63393883Y-118098276D01*
X63393799Y-118098698D01*
X50038000Y-118098698D01*
X50038000Y-111800000D01*
X81994890Y-111800000D01*
X82014197Y-112316015D01*
X82072013Y-112829145D01*
X82168016Y-113336534D01*
X82301665Y-113835319D01*
X82301665Y-113835318D01*
X82472212Y-114322716D01*
X82472213Y-114322716D01*
X82678714Y-114796020D01*
X82919997Y-115252552D01*
X82919996Y-115252551D01*
X83194728Y-115689784D01*
X83501366Y-116105263D01*
X83838194Y-116496666D01*
X83843987Y-116502459D01*
X85758477Y-114587968D01*
X85926570Y-114773430D01*
X86112030Y-114941521D01*
X84197540Y-116856012D01*
X84203334Y-116861806D01*
X84594737Y-117198634D01*
X85010216Y-117505272D01*
X85447449Y-117780004D01*
X85447448Y-117780003D01*
X85903980Y-118021286D01*
X86377284Y-118227787D01*
X86377284Y-118227788D01*
X86864682Y-118398335D01*
X86864681Y-118398335D01*
X87363466Y-118531984D01*
X87870855Y-118627987D01*
X88383985Y-118685803D01*
X88900000Y-118705110D01*
X89416015Y-118685803D01*
X89929145Y-118627987D01*
X90436534Y-118531984D01*
X90935319Y-118398335D01*
X90935318Y-118398335D01*
X91422716Y-118227788D01*
X91422716Y-118227787D01*
X91896020Y-118021286D01*
X92352552Y-117780003D01*
X92352551Y-117780004D01*
X92789784Y-117505272D01*
X93205263Y-117198634D01*
X93596673Y-116861799D01*
X93596673Y-116861800D01*
X93602459Y-116856012D01*
X91687968Y-114941521D01*
X91873430Y-114773430D01*
X92041521Y-114587968D01*
X93956012Y-116502459D01*
X93961800Y-116496673D01*
X93961799Y-116496673D01*
X94298634Y-116105263D01*
X94605272Y-115689784D01*
X94880004Y-115252551D01*
X94880003Y-115252552D01*
X95121286Y-114796020D01*
X95327787Y-114322716D01*
X95327788Y-114322716D01*
X95498335Y-113835318D01*
X95498335Y-113835319D01*
X95631984Y-113336534D01*
X95727987Y-112829145D01*
X95785803Y-112316015D01*
X95805110Y-111800000D01*
X96994890Y-111800000D01*
X97014197Y-112316015D01*
X97072013Y-112829145D01*
X97168016Y-113336534D01*
X97301665Y-113835319D01*
X97301665Y-113835318D01*
X97472212Y-114322716D01*
X97472213Y-114322716D01*
X97678714Y-114796020D01*
X97919997Y-115252552D01*
X97919996Y-115252551D01*
X98194728Y-115689784D01*
X98501366Y-116105263D01*
X98838194Y-116496666D01*
X98843987Y-116502459D01*
X100758477Y-114587968D01*
X100926570Y-114773430D01*
X101112030Y-114941521D01*
X99197540Y-116856012D01*
X99203334Y-116861806D01*
X99594737Y-117198634D01*
X100010216Y-117505272D01*
X100447449Y-117780004D01*
X100447448Y-117780003D01*
X100903980Y-118021286D01*
X101377284Y-118227787D01*
X101377284Y-118227788D01*
X101864682Y-118398335D01*
X101864681Y-118398335D01*
X102363466Y-118531984D01*
X102870855Y-118627987D01*
X103383985Y-118685803D01*
X103900000Y-118705110D01*
X104416015Y-118685803D01*
X104929145Y-118627987D01*
X105436534Y-118531984D01*
X105935319Y-118398335D01*
X105935318Y-118398335D01*
X106422716Y-118227788D01*
X106422716Y-118227787D01*
X106896020Y-118021286D01*
X107352552Y-117780003D01*
X107352551Y-117780004D01*
X107789784Y-117505272D01*
X108205263Y-117198634D01*
X108596673Y-116861799D01*
X108596673Y-116861800D01*
X108602459Y-116856012D01*
X106687968Y-114941521D01*
X106873430Y-114773430D01*
X107041521Y-114587968D01*
X108956012Y-116502459D01*
X108961800Y-116496673D01*
X108961799Y-116496673D01*
X109298634Y-116105263D01*
X109605272Y-115689784D01*
X109880004Y-115252551D01*
X109880003Y-115252552D01*
X110121286Y-114796020D01*
X110327787Y-114322716D01*
X110327788Y-114322716D01*
X110498335Y-113835318D01*
X110498335Y-113835319D01*
X110631984Y-113336534D01*
X110727987Y-112829145D01*
X110785803Y-112316015D01*
X110805110Y-111800000D01*
X111994890Y-111800000D01*
X112014197Y-112316015D01*
X112072013Y-112829145D01*
X112168016Y-113336534D01*
X112301665Y-113835319D01*
X112301665Y-113835318D01*
X112472212Y-114322716D01*
X112472213Y-114322716D01*
X112678714Y-114796020D01*
X112919997Y-115252552D01*
X112919996Y-115252551D01*
X113194728Y-115689784D01*
X113501366Y-116105263D01*
X113838194Y-116496666D01*
X113843987Y-116502459D01*
X115758477Y-114587968D01*
X115926570Y-114773430D01*
X116112030Y-114941521D01*
X114197540Y-116856011D01*
X114203334Y-116861805D01*
X114203334Y-116861806D01*
X114594737Y-117198634D01*
X115010216Y-117505272D01*
X115447449Y-117780004D01*
X115447448Y-117780003D01*
X115903980Y-118021286D01*
X116377284Y-118227787D01*
X116377284Y-118227788D01*
X116864682Y-118398335D01*
X116864681Y-118398335D01*
X117363466Y-118531984D01*
X117870855Y-118627987D01*
X118383985Y-118685803D01*
X118900000Y-118705110D01*
X119416015Y-118685803D01*
X119929145Y-118627987D01*
X120436534Y-118531984D01*
X120935319Y-118398335D01*
X120935318Y-118398335D01*
X121422716Y-118227788D01*
X121422716Y-118227787D01*
X121896020Y-118021286D01*
X122352552Y-117780003D01*
X122352551Y-117780004D01*
X122789784Y-117505272D01*
X123205263Y-117198634D01*
X123596673Y-116861799D01*
X123596673Y-116861800D01*
X123602459Y-116856012D01*
X121687968Y-114941521D01*
X121873430Y-114773430D01*
X122041521Y-114587969D01*
X123956010Y-116502458D01*
X123956012Y-116502459D01*
X123961800Y-116496673D01*
X123961799Y-116496673D01*
X124298634Y-116105263D01*
X124605272Y-115689784D01*
X124880004Y-115252551D01*
X124880003Y-115252552D01*
X125121286Y-114796020D01*
X125327787Y-114322716D01*
X125327788Y-114322716D01*
X125498335Y-113835318D01*
X125498335Y-113835319D01*
X125631984Y-113336534D01*
X125727987Y-112829145D01*
X125785803Y-112316015D01*
X125805110Y-111800000D01*
X126994890Y-111800000D01*
X127014197Y-112316015D01*
X127072013Y-112829145D01*
X127168016Y-113336534D01*
X127301665Y-113835319D01*
X127301665Y-113835318D01*
X127472212Y-114322716D01*
X127472213Y-114322716D01*
X127678714Y-114796020D01*
X127919997Y-115252552D01*
X127919996Y-115252551D01*
X128194728Y-115689784D01*
X128501366Y-116105263D01*
X128838194Y-116496666D01*
X128843987Y-116502459D01*
X130758477Y-114587968D01*
X130926570Y-114773430D01*
X131112030Y-114941521D01*
X129197540Y-116856012D01*
X129203334Y-116861806D01*
X129594737Y-117198634D01*
X130010216Y-117505272D01*
X130447449Y-117780004D01*
X130447448Y-117780003D01*
X130903980Y-118021286D01*
X131377284Y-118227787D01*
X131377284Y-118227788D01*
X131864682Y-118398335D01*
X131864681Y-118398335D01*
X132363466Y-118531984D01*
X132870855Y-118627987D01*
X133383985Y-118685803D01*
X133900000Y-118705110D01*
X134416015Y-118685803D01*
X134929145Y-118627987D01*
X135436534Y-118531984D01*
X135935319Y-118398335D01*
X135935318Y-118398335D01*
X136422716Y-118227788D01*
X136422716Y-118227787D01*
X136896020Y-118021286D01*
X137352552Y-117780003D01*
X137352551Y-117780004D01*
X137789784Y-117505272D01*
X138205263Y-117198634D01*
X138596673Y-116861799D01*
X138596673Y-116861800D01*
X138602459Y-116856012D01*
X136687968Y-114941521D01*
X136873430Y-114773430D01*
X137041521Y-114587969D01*
X138956010Y-116502458D01*
X138956012Y-116502459D01*
X138961800Y-116496673D01*
X138961799Y-116496673D01*
X139298634Y-116105263D01*
X139605272Y-115689784D01*
X139825875Y-115338697D01*
X144443799Y-115338697D01*
X144443842Y-115362809D01*
X144443883Y-115362907D01*
X144443999Y-115363190D01*
X144444001Y-115363192D01*
X144444191Y-115363270D01*
X144444383Y-115363349D01*
X144444385Y-115363347D01*
X144468999Y-115363332D01*
X144468999Y-115363336D01*
X144469143Y-115363308D01*
X147545240Y-115363308D01*
X147545383Y-115363336D01*
X147545384Y-115363332D01*
X147569997Y-115363347D01*
X147570000Y-115363349D01*
X147570383Y-115363191D01*
X147570500Y-115362907D01*
X147570541Y-115362808D01*
X147570540Y-115362805D01*
X147570583Y-115338697D01*
X147570500Y-115338275D01*
X147570500Y-109721950D01*
X147570528Y-109721807D01*
X147570524Y-109721807D01*
X147570539Y-109697193D01*
X147570541Y-109697191D01*
X147570462Y-109696999D01*
X147570384Y-109696809D01*
X147570382Y-109696807D01*
X147570099Y-109696691D01*
X147570000Y-109696650D01*
X147545446Y-109696650D01*
X147545240Y-109696691D01*
X144469143Y-109696691D01*
X144468937Y-109696650D01*
X144444383Y-109696650D01*
X144444284Y-109696691D01*
X144444000Y-109696807D01*
X144443998Y-109696809D01*
X144443842Y-109697190D01*
X144443859Y-109721807D01*
X144443854Y-109721807D01*
X144443883Y-109721950D01*
X144443883Y-115338275D01*
X144443799Y-115338697D01*
X139825875Y-115338697D01*
X139880004Y-115252551D01*
X139880003Y-115252552D01*
X140121286Y-114796020D01*
X140327787Y-114322716D01*
X140327788Y-114322716D01*
X140498335Y-113835318D01*
X140498335Y-113835319D01*
X140631984Y-113336534D01*
X140727987Y-112829145D01*
X140785803Y-112316015D01*
X140805110Y-111800000D01*
X140785803Y-111283985D01*
X140727987Y-110770855D01*
X140631984Y-110263466D01*
X140498335Y-109764681D01*
X140498335Y-109764682D01*
X140327788Y-109277284D01*
X140327787Y-109277284D01*
X140121286Y-108803980D01*
X139880003Y-108347448D01*
X139880004Y-108347449D01*
X139605272Y-107910216D01*
X139298634Y-107494737D01*
X138961806Y-107103334D01*
X138956012Y-107097540D01*
X137041521Y-109012030D01*
X136873430Y-108826570D01*
X136687968Y-108658478D01*
X138602459Y-106743988D01*
X138602459Y-106743987D01*
X138596666Y-106738195D01*
X138596666Y-106738194D01*
X138205263Y-106401366D01*
X137789784Y-106094728D01*
X137352551Y-105819996D01*
X137352552Y-105819997D01*
X136896020Y-105578714D01*
X136422716Y-105372213D01*
X136422716Y-105372212D01*
X135935318Y-105201665D01*
X135935319Y-105201665D01*
X135436534Y-105068016D01*
X134929145Y-104972013D01*
X134416015Y-104914197D01*
X133900000Y-104894890D01*
X133383985Y-104914197D01*
X132870855Y-104972013D01*
X132363466Y-105068016D01*
X131864681Y-105201665D01*
X131864682Y-105201665D01*
X131377284Y-105372212D01*
X131377284Y-105372213D01*
X130903980Y-105578714D01*
X130447448Y-105819997D01*
X130447449Y-105819996D01*
X130010216Y-106094728D01*
X129594737Y-106401366D01*
X129203327Y-106738200D01*
X129197540Y-106743986D01*
X129197539Y-106743986D01*
X131112031Y-108658478D01*
X130926570Y-108826570D01*
X130758478Y-109012031D01*
X128843986Y-107097539D01*
X128843986Y-107097540D01*
X128838200Y-107103327D01*
X128501366Y-107494737D01*
X128194728Y-107910216D01*
X127919996Y-108347449D01*
X127919997Y-108347448D01*
X127678714Y-108803980D01*
X127472213Y-109277284D01*
X127472212Y-109277284D01*
X127301665Y-109764682D01*
X127301665Y-109764681D01*
X127168016Y-110263466D01*
X127072013Y-110770855D01*
X127014197Y-111283985D01*
X126994890Y-111800000D01*
X125805110Y-111800000D01*
X125785803Y-111283985D01*
X125727987Y-110770855D01*
X125631984Y-110263466D01*
X125498335Y-109764681D01*
X125498335Y-109764682D01*
X125327788Y-109277284D01*
X125327787Y-109277284D01*
X125121286Y-108803980D01*
X124880003Y-108347448D01*
X124880004Y-108347449D01*
X124605272Y-107910216D01*
X124298634Y-107494737D01*
X123961806Y-107103334D01*
X123956012Y-107097540D01*
X122041521Y-109012030D01*
X121873430Y-108826570D01*
X121687968Y-108658478D01*
X123602459Y-106743988D01*
X123602459Y-106743987D01*
X123596666Y-106738195D01*
X123596666Y-106738194D01*
X123205263Y-106401366D01*
X122789784Y-106094728D01*
X122352551Y-105819996D01*
X122352552Y-105819997D01*
X121896020Y-105578714D01*
X121422716Y-105372213D01*
X121422716Y-105372212D01*
X120935318Y-105201665D01*
X120935319Y-105201665D01*
X120436534Y-105068016D01*
X119929145Y-104972013D01*
X119416015Y-104914197D01*
X118900000Y-104894890D01*
X118383985Y-104914197D01*
X117870855Y-104972013D01*
X117363466Y-105068016D01*
X116864681Y-105201665D01*
X116864682Y-105201665D01*
X116377284Y-105372212D01*
X116377284Y-105372213D01*
X115903980Y-105578714D01*
X115447448Y-105819997D01*
X115447449Y-105819996D01*
X115010216Y-106094728D01*
X114594737Y-106401366D01*
X114203327Y-106738200D01*
X114197540Y-106743986D01*
X114197539Y-106743986D01*
X116112031Y-108658478D01*
X115926570Y-108826570D01*
X115758478Y-109012031D01*
X113843986Y-107097539D01*
X113843986Y-107097540D01*
X113838200Y-107103327D01*
X113501366Y-107494737D01*
X113194728Y-107910216D01*
X112919996Y-108347449D01*
X112919997Y-108347448D01*
X112678714Y-108803980D01*
X112472213Y-109277284D01*
X112472212Y-109277284D01*
X112301665Y-109764682D01*
X112301665Y-109764681D01*
X112168016Y-110263466D01*
X112072013Y-110770855D01*
X112014197Y-111283985D01*
X111994890Y-111800000D01*
X110805110Y-111800000D01*
X110785803Y-111283985D01*
X110727987Y-110770855D01*
X110631984Y-110263466D01*
X110498335Y-109764681D01*
X110498335Y-109764682D01*
X110327788Y-109277284D01*
X110327787Y-109277284D01*
X110121286Y-108803980D01*
X109880003Y-108347448D01*
X109880004Y-108347449D01*
X109605272Y-107910216D01*
X109298634Y-107494737D01*
X108961806Y-107103334D01*
X108956012Y-107097540D01*
X107041521Y-109012030D01*
X106873430Y-108826570D01*
X106687968Y-108658478D01*
X108602459Y-106743988D01*
X108602459Y-106743987D01*
X108596666Y-106738195D01*
X108596666Y-106738194D01*
X108205263Y-106401366D01*
X107789784Y-106094728D01*
X107352551Y-105819996D01*
X107352552Y-105819997D01*
X106896020Y-105578714D01*
X106422716Y-105372213D01*
X106422716Y-105372212D01*
X105935318Y-105201665D01*
X105935319Y-105201665D01*
X105436534Y-105068016D01*
X104929145Y-104972013D01*
X104416015Y-104914197D01*
X103900000Y-104894890D01*
X103383985Y-104914197D01*
X102870855Y-104972013D01*
X102363466Y-105068016D01*
X101864681Y-105201665D01*
X101864682Y-105201665D01*
X101377284Y-105372212D01*
X101377284Y-105372213D01*
X100903980Y-105578714D01*
X100447448Y-105819997D01*
X100447449Y-105819996D01*
X100010216Y-106094728D01*
X99594737Y-106401366D01*
X99203327Y-106738200D01*
X99197540Y-106743986D01*
X99197539Y-106743986D01*
X101112031Y-108658478D01*
X100926570Y-108826570D01*
X100758478Y-109012031D01*
X98843986Y-107097539D01*
X98843986Y-107097540D01*
X98838200Y-107103327D01*
X98501366Y-107494737D01*
X98194728Y-107910216D01*
X97919996Y-108347449D01*
X97919997Y-108347448D01*
X97678714Y-108803980D01*
X97472213Y-109277284D01*
X97472212Y-109277284D01*
X97301665Y-109764682D01*
X97301665Y-109764681D01*
X97168016Y-110263466D01*
X97072013Y-110770855D01*
X97014197Y-111283985D01*
X96994890Y-111800000D01*
X95805110Y-111800000D01*
X95785803Y-111283985D01*
X95727987Y-110770855D01*
X95631984Y-110263466D01*
X95498335Y-109764681D01*
X95498335Y-109764682D01*
X95327788Y-109277284D01*
X95327787Y-109277284D01*
X95121286Y-108803980D01*
X94880003Y-108347448D01*
X94880004Y-108347449D01*
X94605272Y-107910216D01*
X94298634Y-107494737D01*
X93961806Y-107103334D01*
X93956012Y-107097540D01*
X92041521Y-109012030D01*
X91873430Y-108826570D01*
X91687968Y-108658478D01*
X93602459Y-106743988D01*
X93602459Y-106743987D01*
X93596666Y-106738195D01*
X93596666Y-106738194D01*
X93205263Y-106401366D01*
X92789784Y-106094728D01*
X92352551Y-105819996D01*
X92352552Y-105819997D01*
X91896020Y-105578714D01*
X91422716Y-105372213D01*
X91422716Y-105372212D01*
X90935318Y-105201665D01*
X90935319Y-105201665D01*
X90436534Y-105068016D01*
X89929145Y-104972013D01*
X89416015Y-104914197D01*
X88900000Y-104894890D01*
X88383985Y-104914197D01*
X87870855Y-104972013D01*
X87363466Y-105068016D01*
X86864681Y-105201665D01*
X86864682Y-105201665D01*
X86377284Y-105372212D01*
X86377284Y-105372213D01*
X85903980Y-105578714D01*
X85447448Y-105819997D01*
X85447449Y-105819996D01*
X85010216Y-106094728D01*
X84594737Y-106401366D01*
X84203327Y-106738200D01*
X84197540Y-106743986D01*
X84197539Y-106743986D01*
X86112031Y-108658478D01*
X85926570Y-108826570D01*
X85758478Y-109012031D01*
X83843986Y-107097539D01*
X83843986Y-107097540D01*
X83838200Y-107103327D01*
X83501366Y-107494737D01*
X83194728Y-107910216D01*
X82919996Y-108347449D01*
X82919997Y-108347448D01*
X82678714Y-108803980D01*
X82472213Y-109277284D01*
X82472212Y-109277284D01*
X82301665Y-109764682D01*
X82301665Y-109764681D01*
X82168016Y-110263466D01*
X82072013Y-110770855D01*
X82014197Y-111283985D01*
X81994890Y-111800000D01*
X50038000Y-111800000D01*
X50038000Y-109108698D01*
X63463799Y-109108698D01*
X63463842Y-109132810D01*
X63463883Y-109132908D01*
X63463999Y-109133191D01*
X63464001Y-109133193D01*
X63464191Y-109133271D01*
X63464383Y-109133350D01*
X63464385Y-109133348D01*
X63488999Y-109133333D01*
X63488999Y-109133337D01*
X63489143Y-109133309D01*
X66565240Y-109133309D01*
X66565383Y-109133337D01*
X66565384Y-109133333D01*
X66589997Y-109133348D01*
X66590000Y-109133350D01*
X66590383Y-109133192D01*
X66590500Y-109132908D01*
X66590541Y-109132809D01*
X66590540Y-109132806D01*
X66590583Y-109108698D01*
X66590500Y-109108276D01*
X66590500Y-103491951D01*
X66590528Y-103491808D01*
X66590524Y-103491808D01*
X66590539Y-103467194D01*
X66590541Y-103467192D01*
X66590462Y-103467000D01*
X66590384Y-103466810D01*
X66590382Y-103466808D01*
X66590099Y-103466692D01*
X66590000Y-103466651D01*
X66565446Y-103466651D01*
X66565240Y-103466692D01*
X63489143Y-103466692D01*
X63488937Y-103466651D01*
X63464383Y-103466651D01*
X63464284Y-103466692D01*
X63464000Y-103466808D01*
X63463998Y-103466810D01*
X63463842Y-103467191D01*
X63463859Y-103491808D01*
X63463854Y-103491808D01*
X63463883Y-103491951D01*
X63463883Y-109108276D01*
X63463799Y-109108698D01*
X50038000Y-109108698D01*
X50038000Y-96077763D01*
X52165787Y-96077763D01*
X52195413Y-96347013D01*
X52195415Y-96347024D01*
X52263926Y-96609082D01*
X52263928Y-96609088D01*
X52369870Y-96858390D01*
X52510979Y-97089605D01*
X52510986Y-97089615D01*
X52684253Y-97297819D01*
X52684259Y-97297824D01*
X52885998Y-97478582D01*
X53111910Y-97628044D01*
X53357176Y-97743020D01*
X53357183Y-97743022D01*
X53357185Y-97743023D01*
X53616557Y-97821057D01*
X53616564Y-97821058D01*
X53616569Y-97821060D01*
X53884561Y-97860500D01*
X53884566Y-97860500D01*
X54087636Y-97860500D01*
X54139133Y-97856730D01*
X54290156Y-97845677D01*
X54402758Y-97820593D01*
X54554546Y-97786782D01*
X54554548Y-97786781D01*
X54554553Y-97786780D01*
X54807558Y-97690014D01*
X55043777Y-97557441D01*
X55258177Y-97391888D01*
X55446186Y-97196881D01*
X55530739Y-97078698D01*
X102433799Y-97078698D01*
X102433842Y-97102810D01*
X102433883Y-97102908D01*
X102433999Y-97103191D01*
X102434001Y-97103193D01*
X102434191Y-97103271D01*
X102434383Y-97103350D01*
X102434385Y-97103348D01*
X102458999Y-97103333D01*
X102458999Y-97103337D01*
X102459143Y-97103309D01*
X105535240Y-97103309D01*
X105535383Y-97103337D01*
X105535384Y-97103333D01*
X105559997Y-97103348D01*
X105560000Y-97103350D01*
X105560383Y-97103192D01*
X105560500Y-97102908D01*
X105560541Y-97102809D01*
X105560540Y-97102806D01*
X105560583Y-97078698D01*
X105560500Y-97078276D01*
X105560500Y-91461951D01*
X105560528Y-91461808D01*
X105560524Y-91461808D01*
X105560539Y-91437194D01*
X105560541Y-91437192D01*
X105560462Y-91437000D01*
X105560384Y-91436810D01*
X105560382Y-91436808D01*
X105560099Y-91436692D01*
X105560000Y-91436651D01*
X105535446Y-91436651D01*
X105535240Y-91436692D01*
X102459143Y-91436692D01*
X102458937Y-91436651D01*
X102434383Y-91436651D01*
X102434284Y-91436692D01*
X102434000Y-91436808D01*
X102433998Y-91436810D01*
X102433842Y-91437191D01*
X102433859Y-91461808D01*
X102433854Y-91461808D01*
X102433883Y-91461951D01*
X102433883Y-97078276D01*
X102433799Y-97078698D01*
X55530739Y-97078698D01*
X55603799Y-96976579D01*
X55677787Y-96832669D01*
X55727649Y-96735690D01*
X55727651Y-96735684D01*
X55727656Y-96735675D01*
X55815118Y-96479305D01*
X55864319Y-96212933D01*
X55874212Y-95942235D01*
X55844586Y-95672982D01*
X55776072Y-95410912D01*
X55670130Y-95161610D01*
X55529018Y-94930390D01*
X55439747Y-94823119D01*
X55355746Y-94722180D01*
X55355740Y-94722175D01*
X55154002Y-94541418D01*
X54928092Y-94391957D01*
X54928090Y-94391956D01*
X54682824Y-94276980D01*
X54682819Y-94276978D01*
X54682814Y-94276976D01*
X54423442Y-94198942D01*
X54423428Y-94198939D01*
X54307791Y-94181921D01*
X54155439Y-94159500D01*
X53952369Y-94159500D01*
X53952364Y-94159500D01*
X53749844Y-94174323D01*
X53749831Y-94174325D01*
X53485453Y-94233217D01*
X53485446Y-94233220D01*
X53232439Y-94329987D01*
X52996226Y-94462557D01*
X52781822Y-94628112D01*
X52593822Y-94823109D01*
X52593816Y-94823116D01*
X52436202Y-95043419D01*
X52436199Y-95043424D01*
X52312350Y-95284309D01*
X52312343Y-95284327D01*
X52224884Y-95540685D01*
X52224881Y-95540699D01*
X52175681Y-95807068D01*
X52175680Y-95807075D01*
X52165787Y-96077763D01*
X50038000Y-96077763D01*
X50038000Y-84500000D01*
X55594890Y-84500000D01*
X55614197Y-85016015D01*
X55672013Y-85529145D01*
X55768016Y-86036534D01*
X55901665Y-86535319D01*
X55901665Y-86535318D01*
X56072212Y-87022716D01*
X56072213Y-87022716D01*
X56278714Y-87496020D01*
X56519997Y-87952552D01*
X56519996Y-87952551D01*
X56794728Y-88389784D01*
X57101366Y-88805263D01*
X57438194Y-89196666D01*
X57443987Y-89202459D01*
X59358477Y-87287968D01*
X59526570Y-87473430D01*
X59712030Y-87641521D01*
X57797540Y-89556012D01*
X57803334Y-89561806D01*
X58194737Y-89898634D01*
X58610216Y-90205272D01*
X59047449Y-90480004D01*
X59047448Y-90480003D01*
X59503980Y-90721286D01*
X59977284Y-90927787D01*
X59977284Y-90927788D01*
X60464682Y-91098335D01*
X60464681Y-91098335D01*
X60963466Y-91231984D01*
X61470855Y-91327987D01*
X61983985Y-91385803D01*
X62500000Y-91405110D01*
X63016015Y-91385803D01*
X63529145Y-91327987D01*
X64036534Y-91231984D01*
X64535319Y-91098335D01*
X64535318Y-91098335D01*
X65022716Y-90927788D01*
X65022716Y-90927787D01*
X65496020Y-90721286D01*
X65952552Y-90480003D01*
X65952551Y-90480004D01*
X66389784Y-90205272D01*
X66805263Y-89898634D01*
X67196673Y-89561799D01*
X67196673Y-89561800D01*
X67202459Y-89556012D01*
X65287968Y-87641521D01*
X65473430Y-87473430D01*
X65641521Y-87287969D01*
X67556010Y-89202458D01*
X67556012Y-89202459D01*
X67561800Y-89196673D01*
X67561799Y-89196673D01*
X67898634Y-88805263D01*
X68205272Y-88389784D01*
X68480004Y-87952551D01*
X68480003Y-87952552D01*
X68721286Y-87496020D01*
X68927787Y-87022716D01*
X68927788Y-87022716D01*
X69098335Y-86535318D01*
X69098335Y-86535319D01*
X69231984Y-86036534D01*
X69327987Y-85529145D01*
X69385803Y-85016015D01*
X69405110Y-84500000D01*
X70594890Y-84500000D01*
X70614197Y-85016015D01*
X70672013Y-85529145D01*
X70768016Y-86036534D01*
X70901665Y-86535319D01*
X70901665Y-86535318D01*
X71072212Y-87022716D01*
X71072213Y-87022716D01*
X71278714Y-87496020D01*
X71519997Y-87952552D01*
X71519996Y-87952551D01*
X71794728Y-88389784D01*
X72101366Y-88805263D01*
X72438194Y-89196666D01*
X72443987Y-89202459D01*
X74358477Y-87287968D01*
X74526570Y-87473430D01*
X74712030Y-87641521D01*
X72797540Y-89556012D01*
X72803334Y-89561806D01*
X73194737Y-89898634D01*
X73610216Y-90205272D01*
X74047449Y-90480004D01*
X74047448Y-90480003D01*
X74503980Y-90721286D01*
X74977284Y-90927787D01*
X74977284Y-90927788D01*
X75464682Y-91098335D01*
X75464681Y-91098335D01*
X75963466Y-91231984D01*
X76470855Y-91327987D01*
X76983985Y-91385803D01*
X77500000Y-91405110D01*
X78016015Y-91385803D01*
X78529145Y-91327987D01*
X79036534Y-91231984D01*
X79535319Y-91098335D01*
X79535318Y-91098335D01*
X80022716Y-90927788D01*
X80022716Y-90927787D01*
X80496020Y-90721286D01*
X80952552Y-90480003D01*
X80952551Y-90480004D01*
X81034206Y-90428697D01*
X94433799Y-90428697D01*
X94433842Y-90452809D01*
X94433883Y-90452907D01*
X94433999Y-90453190D01*
X94434001Y-90453192D01*
X94434191Y-90453270D01*
X94434383Y-90453349D01*
X94434385Y-90453347D01*
X94458999Y-90453332D01*
X94458999Y-90453336D01*
X94459143Y-90453308D01*
X97535240Y-90453308D01*
X97535383Y-90453336D01*
X97535384Y-90453332D01*
X97559997Y-90453347D01*
X97560000Y-90453349D01*
X97560383Y-90453191D01*
X97560500Y-90452907D01*
X97560541Y-90452808D01*
X97560540Y-90452805D01*
X97560583Y-90428697D01*
X97560500Y-90428275D01*
X97560500Y-89531506D01*
X140336607Y-89531506D01*
X140336650Y-89555618D01*
X140336691Y-89555716D01*
X140336807Y-89555999D01*
X140336809Y-89556001D01*
X140336999Y-89556079D01*
X140337191Y-89556158D01*
X140337193Y-89556156D01*
X140361807Y-89556141D01*
X140361807Y-89556145D01*
X140361951Y-89556117D01*
X145978048Y-89556117D01*
X145978191Y-89556145D01*
X145978192Y-89556141D01*
X146002805Y-89556156D01*
X146002808Y-89556158D01*
X146003191Y-89556000D01*
X146003308Y-89555716D01*
X146003349Y-89555617D01*
X146003348Y-89555614D01*
X146003391Y-89531506D01*
X146003308Y-89531084D01*
X146003308Y-86454759D01*
X146003336Y-86454616D01*
X146003332Y-86454616D01*
X146003347Y-86430002D01*
X146003349Y-86430000D01*
X146003270Y-86429808D01*
X146003192Y-86429618D01*
X146003190Y-86429616D01*
X146002907Y-86429500D01*
X146002808Y-86429459D01*
X145978254Y-86429459D01*
X145978048Y-86429500D01*
X140361951Y-86429500D01*
X140361745Y-86429459D01*
X140337191Y-86429459D01*
X140337092Y-86429500D01*
X140336808Y-86429616D01*
X140336806Y-86429618D01*
X140336650Y-86429999D01*
X140336667Y-86454616D01*
X140336662Y-86454616D01*
X140336691Y-86454759D01*
X140336691Y-89531084D01*
X140336607Y-89531506D01*
X97560500Y-89531506D01*
X97560500Y-86058698D01*
X102443799Y-86058698D01*
X102443842Y-86082810D01*
X102443883Y-86082908D01*
X102443999Y-86083191D01*
X102444001Y-86083193D01*
X102444191Y-86083271D01*
X102444383Y-86083350D01*
X102444385Y-86083348D01*
X102468999Y-86083333D01*
X102468999Y-86083337D01*
X102469143Y-86083309D01*
X105545240Y-86083309D01*
X105545383Y-86083337D01*
X105545384Y-86083333D01*
X105569997Y-86083348D01*
X105570000Y-86083350D01*
X105570383Y-86083192D01*
X105570500Y-86082908D01*
X105570541Y-86082809D01*
X105570540Y-86082806D01*
X105570583Y-86058698D01*
X105570500Y-86058276D01*
X105570500Y-81000000D01*
X126094890Y-81000000D01*
X126114197Y-81516015D01*
X126172013Y-82029145D01*
X126268016Y-82536534D01*
X126401665Y-83035319D01*
X126401665Y-83035318D01*
X126572212Y-83522716D01*
X126572213Y-83522716D01*
X126778714Y-83996020D01*
X127019997Y-84452552D01*
X127019996Y-84452551D01*
X127294728Y-84889784D01*
X127601366Y-85305263D01*
X127938194Y-85696666D01*
X127943987Y-85702459D01*
X129858477Y-83787968D01*
X130026570Y-83973430D01*
X130212030Y-84141521D01*
X128297540Y-86056012D01*
X128303334Y-86061806D01*
X128694737Y-86398634D01*
X129110216Y-86705272D01*
X129547449Y-86980004D01*
X129547448Y-86980003D01*
X130003980Y-87221286D01*
X130477284Y-87427787D01*
X130477284Y-87427788D01*
X130964682Y-87598335D01*
X130964681Y-87598335D01*
X131463466Y-87731984D01*
X131970855Y-87827987D01*
X132483985Y-87885803D01*
X133000000Y-87905110D01*
X133516015Y-87885803D01*
X134029145Y-87827987D01*
X134536534Y-87731984D01*
X135035319Y-87598335D01*
X135035318Y-87598335D01*
X135522716Y-87427788D01*
X135522716Y-87427787D01*
X135996020Y-87221286D01*
X136452552Y-86980003D01*
X136452551Y-86980004D01*
X136889784Y-86705272D01*
X137305263Y-86398634D01*
X137696673Y-86061799D01*
X137696673Y-86061800D01*
X137702459Y-86056012D01*
X135787968Y-84141521D01*
X135973430Y-83973430D01*
X136141521Y-83787969D01*
X138056010Y-85702458D01*
X138056012Y-85702459D01*
X138061800Y-85696673D01*
X138061799Y-85696673D01*
X138398634Y-85305263D01*
X138705272Y-84889784D01*
X138980004Y-84452551D01*
X138980003Y-84452552D01*
X139221286Y-83996020D01*
X139427787Y-83522716D01*
X139427788Y-83522716D01*
X139433676Y-83505889D01*
X140366608Y-83505889D01*
X140366651Y-83530001D01*
X140366692Y-83530099D01*
X140366808Y-83530382D01*
X140366810Y-83530384D01*
X140367000Y-83530462D01*
X140367192Y-83530541D01*
X140367194Y-83530539D01*
X140391808Y-83530524D01*
X140391808Y-83530528D01*
X140391952Y-83530500D01*
X146008049Y-83530500D01*
X146008192Y-83530528D01*
X146008193Y-83530524D01*
X146032806Y-83530539D01*
X146032809Y-83530541D01*
X146033192Y-83530383D01*
X146033309Y-83530099D01*
X146033350Y-83530000D01*
X146033349Y-83529997D01*
X146033392Y-83505889D01*
X146033309Y-83505467D01*
X146033309Y-76550376D01*
X146033337Y-76550233D01*
X146033333Y-76550233D01*
X146033348Y-76525619D01*
X146033350Y-76525617D01*
X146033271Y-76525425D01*
X146033193Y-76525235D01*
X146033191Y-76525233D01*
X146032908Y-76525117D01*
X146032809Y-76525076D01*
X146008255Y-76525076D01*
X146008049Y-76525117D01*
X140391952Y-76525117D01*
X140391746Y-76525076D01*
X140367192Y-76525076D01*
X140367093Y-76525117D01*
X140366809Y-76525233D01*
X140366807Y-76525235D01*
X140366651Y-76525616D01*
X140366668Y-76550233D01*
X140366663Y-76550233D01*
X140366692Y-76550376D01*
X140366692Y-83505467D01*
X140366608Y-83505889D01*
X139433676Y-83505889D01*
X139598335Y-83035318D01*
X139598335Y-83035319D01*
X139731984Y-82536534D01*
X139827987Y-82029145D01*
X139885803Y-81516015D01*
X139905110Y-81000000D01*
X139885803Y-80483985D01*
X139827987Y-79970855D01*
X139731984Y-79463466D01*
X139598335Y-78964681D01*
X139598335Y-78964682D01*
X139427788Y-78477284D01*
X139427787Y-78477284D01*
X139221286Y-78003980D01*
X138980003Y-77547448D01*
X138980004Y-77547449D01*
X138705272Y-77110216D01*
X138398634Y-76694737D01*
X138061806Y-76303334D01*
X138056012Y-76297540D01*
X136141521Y-78212030D01*
X135973430Y-78026570D01*
X135787968Y-77858478D01*
X137702459Y-75943988D01*
X137702459Y-75943987D01*
X137696666Y-75938195D01*
X137696666Y-75938194D01*
X137305263Y-75601366D01*
X136889784Y-75294728D01*
X136452551Y-75019996D01*
X136452552Y-75019997D01*
X135996020Y-74778714D01*
X135522716Y-74572213D01*
X135522716Y-74572212D01*
X135035318Y-74401665D01*
X135035319Y-74401665D01*
X134536534Y-74268016D01*
X134029145Y-74172013D01*
X133516015Y-74114197D01*
X133000000Y-74094890D01*
X132483985Y-74114197D01*
X131970855Y-74172013D01*
X131463466Y-74268016D01*
X130964681Y-74401665D01*
X130964682Y-74401665D01*
X130477284Y-74572212D01*
X130477284Y-74572213D01*
X130003980Y-74778714D01*
X129547448Y-75019997D01*
X129547449Y-75019996D01*
X129110216Y-75294728D01*
X128694737Y-75601366D01*
X128303327Y-75938200D01*
X128297540Y-75943986D01*
X128297539Y-75943986D01*
X130212031Y-77858478D01*
X130026570Y-78026570D01*
X129858478Y-78212031D01*
X127943986Y-76297539D01*
X127943986Y-76297540D01*
X127938200Y-76303327D01*
X127601366Y-76694737D01*
X127294728Y-77110216D01*
X127019996Y-77547449D01*
X127019997Y-77547448D01*
X126778714Y-78003980D01*
X126572213Y-78477284D01*
X126572212Y-78477284D01*
X126401665Y-78964682D01*
X126401665Y-78964681D01*
X126268016Y-79463466D01*
X126172013Y-79970855D01*
X126114197Y-80483985D01*
X126094890Y-81000000D01*
X105570500Y-81000000D01*
X105570500Y-80441951D01*
X105570528Y-80441808D01*
X105570524Y-80441808D01*
X105570539Y-80417194D01*
X105570541Y-80417192D01*
X105570462Y-80417000D01*
X105570384Y-80416810D01*
X105570382Y-80416808D01*
X105570099Y-80416692D01*
X105570000Y-80416651D01*
X105545446Y-80416651D01*
X105545240Y-80416692D01*
X102469143Y-80416692D01*
X102468937Y-80416651D01*
X102444383Y-80416651D01*
X102444284Y-80416692D01*
X102444000Y-80416808D01*
X102443998Y-80416810D01*
X102443842Y-80417191D01*
X102443859Y-80441808D01*
X102443854Y-80441808D01*
X102443883Y-80441951D01*
X102443883Y-86058276D01*
X102443799Y-86058698D01*
X97560500Y-86058698D01*
X97560500Y-84811950D01*
X97560528Y-84811807D01*
X97560524Y-84811807D01*
X97560539Y-84787193D01*
X97560541Y-84787191D01*
X97560462Y-84786999D01*
X97560384Y-84786809D01*
X97560382Y-84786807D01*
X97560099Y-84786691D01*
X97560000Y-84786650D01*
X97535446Y-84786650D01*
X97535240Y-84786691D01*
X94459143Y-84786691D01*
X94458937Y-84786650D01*
X94434383Y-84786650D01*
X94434284Y-84786691D01*
X94434000Y-84786807D01*
X94433998Y-84786809D01*
X94433842Y-84787190D01*
X94433859Y-84811807D01*
X94433854Y-84811807D01*
X94433883Y-84811950D01*
X94433883Y-90428275D01*
X94433799Y-90428697D01*
X81034206Y-90428697D01*
X81389784Y-90205272D01*
X81805263Y-89898634D01*
X82196673Y-89561799D01*
X82196673Y-89561800D01*
X82202459Y-89556012D01*
X80287968Y-87641521D01*
X80473430Y-87473430D01*
X80641521Y-87287969D01*
X82556010Y-89202458D01*
X82556012Y-89202459D01*
X82561800Y-89196673D01*
X82561799Y-89196673D01*
X82898634Y-88805263D01*
X83205272Y-88389784D01*
X83480004Y-87952551D01*
X83480003Y-87952552D01*
X83721286Y-87496020D01*
X83927787Y-87022716D01*
X83927788Y-87022716D01*
X84098335Y-86535318D01*
X84098335Y-86535319D01*
X84231984Y-86036534D01*
X84327987Y-85529145D01*
X84385803Y-85016015D01*
X84405110Y-84500000D01*
X84385803Y-83983985D01*
X84327987Y-83470855D01*
X84231984Y-82963466D01*
X84098335Y-82464681D01*
X84098335Y-82464682D01*
X83927788Y-81977284D01*
X83927787Y-81977284D01*
X83721286Y-81503980D01*
X83480003Y-81047448D01*
X83480004Y-81047449D01*
X83205272Y-80610216D01*
X82898634Y-80194737D01*
X82561806Y-79803334D01*
X82556012Y-79797540D01*
X80641521Y-81712030D01*
X80473430Y-81526570D01*
X80287968Y-81358478D01*
X82202459Y-79443988D01*
X82202459Y-79443987D01*
X82196666Y-79438195D01*
X82196666Y-79438194D01*
X81805263Y-79101366D01*
X81389784Y-78794728D01*
X80952551Y-78519996D01*
X80952552Y-78519997D01*
X80496020Y-78278714D01*
X80022716Y-78072213D01*
X80022716Y-78072212D01*
X79535318Y-77901665D01*
X79535319Y-77901665D01*
X79036534Y-77768016D01*
X78529145Y-77672013D01*
X78016015Y-77614197D01*
X77500000Y-77594890D01*
X76983985Y-77614197D01*
X76470855Y-77672013D01*
X75963466Y-77768016D01*
X75464681Y-77901665D01*
X75464682Y-77901665D01*
X74977284Y-78072212D01*
X74977284Y-78072213D01*
X74503980Y-78278714D01*
X74047448Y-78519997D01*
X74047449Y-78519996D01*
X73610216Y-78794728D01*
X73194737Y-79101366D01*
X72803327Y-79438200D01*
X72797540Y-79443986D01*
X72797539Y-79443986D01*
X74712031Y-81358478D01*
X74526570Y-81526570D01*
X74358478Y-81712031D01*
X72443986Y-79797539D01*
X72443986Y-79797540D01*
X72438200Y-79803327D01*
X72101366Y-80194737D01*
X71794728Y-80610216D01*
X71519996Y-81047449D01*
X71519997Y-81047448D01*
X71278714Y-81503980D01*
X71072213Y-81977284D01*
X71072212Y-81977284D01*
X70901665Y-82464682D01*
X70901665Y-82464681D01*
X70768016Y-82963466D01*
X70672013Y-83470855D01*
X70614197Y-83983985D01*
X70594890Y-84500000D01*
X69405110Y-84500000D01*
X69385803Y-83983985D01*
X69327987Y-83470855D01*
X69231984Y-82963466D01*
X69098335Y-82464681D01*
X69098335Y-82464682D01*
X68927788Y-81977284D01*
X68927787Y-81977284D01*
X68721286Y-81503980D01*
X68480003Y-81047448D01*
X68480004Y-81047449D01*
X68205272Y-80610216D01*
X67898634Y-80194737D01*
X67561806Y-79803334D01*
X67556012Y-79797540D01*
X65641521Y-81712030D01*
X65473430Y-81526570D01*
X65287968Y-81358478D01*
X67202459Y-79443988D01*
X67202459Y-79443987D01*
X67196666Y-79438195D01*
X67196666Y-79438194D01*
X66805263Y-79101366D01*
X66389784Y-78794728D01*
X65952551Y-78519996D01*
X65952552Y-78519997D01*
X65496020Y-78278714D01*
X65022716Y-78072213D01*
X65022716Y-78072212D01*
X64535318Y-77901665D01*
X64535319Y-77901665D01*
X64036534Y-77768016D01*
X63529145Y-77672013D01*
X63016015Y-77614197D01*
X62500000Y-77594890D01*
X61983985Y-77614197D01*
X61470855Y-77672013D01*
X60963466Y-77768016D01*
X60464681Y-77901665D01*
X60464682Y-77901665D01*
X59977284Y-78072212D01*
X59977284Y-78072213D01*
X59503980Y-78278714D01*
X59047448Y-78519997D01*
X59047449Y-78519996D01*
X58610216Y-78794728D01*
X58194737Y-79101366D01*
X57803327Y-79438200D01*
X57797540Y-79443986D01*
X57797539Y-79443986D01*
X59712031Y-81358478D01*
X59526570Y-81526570D01*
X59358478Y-81712031D01*
X57443986Y-79797539D01*
X57443986Y-79797540D01*
X57438200Y-79803327D01*
X57101366Y-80194737D01*
X56794728Y-80610216D01*
X56519996Y-81047449D01*
X56519997Y-81047448D01*
X56278714Y-81503980D01*
X56072213Y-81977284D01*
X56072212Y-81977284D01*
X55901665Y-82464682D01*
X55901665Y-82464681D01*
X55768016Y-82963466D01*
X55672013Y-83470855D01*
X55614197Y-83983985D01*
X55594890Y-84500000D01*
X50038000Y-84500000D01*
X50038000Y-73038585D01*
X59736495Y-73038585D01*
X59736538Y-73062697D01*
X59736579Y-73062795D01*
X59736695Y-73063078D01*
X59736697Y-73063080D01*
X59736887Y-73063158D01*
X59737079Y-73063237D01*
X59737081Y-73063235D01*
X59761695Y-73063220D01*
X59761695Y-73063224D01*
X59761839Y-73063196D01*
X65377936Y-73063196D01*
X65378079Y-73063224D01*
X65378080Y-73063220D01*
X65402693Y-73063235D01*
X65402696Y-73063237D01*
X65403079Y-73063079D01*
X65403196Y-73062795D01*
X65403237Y-73062696D01*
X65403236Y-73062693D01*
X65403279Y-73038585D01*
X65403196Y-73038163D01*
X65403196Y-73025889D01*
X74536608Y-73025889D01*
X74536651Y-73050001D01*
X74536692Y-73050099D01*
X74536808Y-73050382D01*
X74536810Y-73050384D01*
X74537000Y-73050462D01*
X74537192Y-73050541D01*
X74537194Y-73050539D01*
X74561808Y-73050524D01*
X74561808Y-73050528D01*
X74561952Y-73050500D01*
X80178049Y-73050500D01*
X80178192Y-73050528D01*
X80178193Y-73050524D01*
X80202806Y-73050539D01*
X80202809Y-73050541D01*
X80203192Y-73050383D01*
X80203309Y-73050099D01*
X80203350Y-73050000D01*
X80203349Y-73049997D01*
X80203392Y-73025889D01*
X80203309Y-73025467D01*
X80203309Y-73005889D01*
X134716608Y-73005889D01*
X134716651Y-73030001D01*
X134716692Y-73030099D01*
X134716808Y-73030382D01*
X134716810Y-73030384D01*
X134717000Y-73030462D01*
X134717192Y-73030541D01*
X134717194Y-73030539D01*
X134741808Y-73030524D01*
X134741808Y-73030528D01*
X134741952Y-73030500D01*
X140358049Y-73030500D01*
X140358192Y-73030528D01*
X140358193Y-73030524D01*
X140382806Y-73030539D01*
X140382809Y-73030541D01*
X140383192Y-73030383D01*
X140383309Y-73030099D01*
X140383350Y-73030000D01*
X140383349Y-73029997D01*
X140383392Y-73005889D01*
X140383309Y-73005467D01*
X140383309Y-69929142D01*
X140383337Y-69928999D01*
X140383333Y-69928999D01*
X140383348Y-69904385D01*
X140383350Y-69904383D01*
X140383271Y-69904191D01*
X140383193Y-69904001D01*
X140383191Y-69903999D01*
X140382908Y-69903883D01*
X140382809Y-69903842D01*
X140358255Y-69903842D01*
X140358049Y-69903883D01*
X134741952Y-69903883D01*
X134741746Y-69903842D01*
X134717192Y-69903842D01*
X134717093Y-69903883D01*
X134716809Y-69903999D01*
X134716807Y-69904001D01*
X134716651Y-69904382D01*
X134716668Y-69928999D01*
X134716663Y-69928999D01*
X134716692Y-69929142D01*
X134716692Y-73005467D01*
X134716608Y-73005889D01*
X80203309Y-73005889D01*
X80203309Y-69949142D01*
X80203337Y-69948999D01*
X80203333Y-69948999D01*
X80203348Y-69924385D01*
X80203350Y-69924383D01*
X80203271Y-69924191D01*
X80203193Y-69924001D01*
X80203191Y-69923999D01*
X80202908Y-69923883D01*
X80202809Y-69923842D01*
X80178255Y-69923842D01*
X80178049Y-69923883D01*
X74561952Y-69923883D01*
X74561746Y-69923842D01*
X74537192Y-69923842D01*
X74537093Y-69923883D01*
X74536809Y-69923999D01*
X74536807Y-69924001D01*
X74536651Y-69924382D01*
X74536668Y-69948999D01*
X74536663Y-69948999D01*
X74536692Y-69949142D01*
X74536692Y-73025467D01*
X74536608Y-73025889D01*
X65403196Y-73025889D01*
X65403196Y-69961838D01*
X65403224Y-69961695D01*
X65403220Y-69961695D01*
X65403235Y-69937081D01*
X65403237Y-69937079D01*
X65403158Y-69936887D01*
X65403080Y-69936697D01*
X65403078Y-69936695D01*
X65402795Y-69936579D01*
X65402696Y-69936538D01*
X65378142Y-69936538D01*
X65377936Y-69936579D01*
X59761839Y-69936579D01*
X59761633Y-69936538D01*
X59737079Y-69936538D01*
X59736980Y-69936579D01*
X59736696Y-69936695D01*
X59736694Y-69936697D01*
X59736538Y-69937078D01*
X59736555Y-69961695D01*
X59736550Y-69961695D01*
X59736579Y-69961838D01*
X59736579Y-73038163D01*
X59736495Y-73038585D01*
X50038000Y-73038585D01*
X50038000Y-66175889D01*
X94457416Y-66175889D01*
X94457459Y-66200001D01*
X94457500Y-66200099D01*
X94457616Y-66200382D01*
X94457618Y-66200384D01*
X94457808Y-66200462D01*
X94458000Y-66200541D01*
X94458002Y-66200539D01*
X94482616Y-66200524D01*
X94482616Y-66200528D01*
X94482760Y-66200500D01*
X97511240Y-66200500D01*
X97511383Y-66200528D01*
X97511384Y-66200524D01*
X97535997Y-66200539D01*
X97536000Y-66200541D01*
X97536383Y-66200383D01*
X97536500Y-66200099D01*
X97536541Y-66200000D01*
X97536540Y-66199997D01*
X97536583Y-66175889D01*
X102461416Y-66175889D01*
X102461459Y-66200001D01*
X102461500Y-66200099D01*
X102461616Y-66200382D01*
X102461618Y-66200384D01*
X102461808Y-66200462D01*
X102462000Y-66200541D01*
X102462002Y-66200539D01*
X102486616Y-66200524D01*
X102486616Y-66200528D01*
X102486760Y-66200500D01*
X105515240Y-66200500D01*
X105515383Y-66200528D01*
X105515384Y-66200524D01*
X105539997Y-66200539D01*
X105540000Y-66200541D01*
X105540383Y-66200383D01*
X105540500Y-66200099D01*
X105540541Y-66200000D01*
X105540540Y-66199997D01*
X105540583Y-66175889D01*
X105540500Y-66175467D01*
X105540500Y-55424759D01*
X105540528Y-55424616D01*
X105540524Y-55424616D01*
X105540539Y-55400002D01*
X105540541Y-55400000D01*
X105540462Y-55399808D01*
X105540384Y-55399618D01*
X105540382Y-55399616D01*
X105540099Y-55399500D01*
X105540000Y-55399459D01*
X105515446Y-55399459D01*
X105515240Y-55399500D01*
X102486760Y-55399500D01*
X102486554Y-55399459D01*
X102462000Y-55399459D01*
X102461901Y-55399500D01*
X102461617Y-55399616D01*
X102461615Y-55399618D01*
X102461459Y-55399999D01*
X102461476Y-55424616D01*
X102461471Y-55424616D01*
X102461500Y-55424759D01*
X102461500Y-66175467D01*
X102461416Y-66175889D01*
X97536583Y-66175889D01*
X97536500Y-66175467D01*
X97536500Y-55424759D01*
X97536528Y-55424616D01*
X97536524Y-55424616D01*
X97536539Y-55400002D01*
X97536541Y-55400000D01*
X97536462Y-55399808D01*
X97536384Y-55399618D01*
X97536382Y-55399616D01*
X97536099Y-55399500D01*
X97536000Y-55399459D01*
X97511446Y-55399459D01*
X97511240Y-55399500D01*
X94482760Y-55399500D01*
X94482554Y-55399459D01*
X94458000Y-55399459D01*
X94457901Y-55399500D01*
X94457617Y-55399616D01*
X94457615Y-55399618D01*
X94457459Y-55399999D01*
X94457476Y-55424616D01*
X94457471Y-55424616D01*
X94457500Y-55424759D01*
X94457500Y-66175467D01*
X94457416Y-66175889D01*
X50038000Y-66175889D01*
X50038000Y-53000000D01*
X51394551Y-53000000D01*
X51414317Y-53251151D01*
X51473126Y-53496110D01*
X51569533Y-53728859D01*
X51701160Y-53943653D01*
X51701161Y-53943656D01*
X51701164Y-53943659D01*
X51864776Y-54135224D01*
X52013066Y-54261875D01*
X52056343Y-54298838D01*
X52056346Y-54298839D01*
X52271140Y-54430466D01*
X52481854Y-54517746D01*
X52503889Y-54526873D01*
X52748852Y-54585683D01*
X52904950Y-54597968D01*
X52937116Y-54600500D01*
X52937118Y-54600500D01*
X53062884Y-54600500D01*
X53092518Y-54598167D01*
X53251148Y-54585683D01*
X53496111Y-54526873D01*
X53728859Y-54430466D01*
X53943659Y-54298836D01*
X54135224Y-54135224D01*
X54298836Y-53943659D01*
X54430466Y-53728859D01*
X54526873Y-53496111D01*
X54585683Y-53251148D01*
X54605449Y-53000000D01*
X54585683Y-52748852D01*
X54526873Y-52503889D01*
X54430466Y-52271141D01*
X54430466Y-52271140D01*
X54298839Y-52056346D01*
X54298838Y-52056343D01*
X54261875Y-52013066D01*
X54135224Y-51864776D01*
X54008571Y-51756604D01*
X53943656Y-51701161D01*
X53943653Y-51701160D01*
X53728859Y-51569533D01*
X53496110Y-51473126D01*
X53251150Y-51414317D01*
X53062884Y-51399500D01*
X53062882Y-51399500D01*
X52937118Y-51399500D01*
X52937116Y-51399500D01*
X52748849Y-51414317D01*
X52503889Y-51473126D01*
X52271140Y-51569533D01*
X52056346Y-51701160D01*
X52056343Y-51701161D01*
X51864776Y-51864776D01*
X51701161Y-52056343D01*
X51701160Y-52056346D01*
X51569533Y-52271140D01*
X51473126Y-52503889D01*
X51414317Y-52748848D01*
X51394551Y-53000000D01*
X50038000Y-53000000D01*
X50038000Y-50162000D01*
X50057685Y-50094961D01*
X50110489Y-50049206D01*
X50162000Y-50038000D01*
X59461407Y-50038000D01*
X59528446Y-50057685D01*
G37*
%TD.AperFunction*%
%TD*%
M02*
