%TF.GenerationSoftware,KiCad,Pcbnew,7.0.9*%
%TF.CreationDate,2024-05-22T12:08:37+01:00*%
%TF.ProjectId,Esp32EduModular-Acc-Panel,45737033-3245-4647-954d-6f64756c6172,rev?*%
%TF.SameCoordinates,Original*%
%TF.FileFunction,Legend,Top*%
%TF.FilePolarity,Positive*%
%FSLAX46Y46*%
G04 Gerber Fmt 4.6, Leading zero omitted, Abs format (unit mm)*
G04 Created by KiCad (PCBNEW 7.0.9) date 2024-05-22 12:08:37*
%MOMM*%
%LPD*%
G01*
G04 APERTURE LIST*
%ADD10C,0.200000*%
%ADD11C,0.100000*%
G04 APERTURE END LIST*
D10*
X72014286Y-77854980D02*
X71490476Y-77854980D01*
X71490476Y-77854980D02*
X71490476Y-76754980D01*
X72380952Y-77854980D02*
X72380952Y-76754980D01*
X72904762Y-77854980D02*
X72904762Y-76754980D01*
X72904762Y-76754980D02*
X73533334Y-77854980D01*
X73533334Y-77854980D02*
X73533334Y-76754980D01*
X74057143Y-77278790D02*
X74423810Y-77278790D01*
X74580953Y-77854980D02*
X74057143Y-77854980D01*
X74057143Y-77854980D02*
X74057143Y-76754980D01*
X74057143Y-76754980D02*
X74580953Y-76754980D01*
X76100000Y-76754980D02*
X76309524Y-76754980D01*
X76309524Y-76754980D02*
X76414286Y-76807361D01*
X76414286Y-76807361D02*
X76519048Y-76912123D01*
X76519048Y-76912123D02*
X76571429Y-77121647D01*
X76571429Y-77121647D02*
X76571429Y-77488314D01*
X76571429Y-77488314D02*
X76519048Y-77697838D01*
X76519048Y-77697838D02*
X76414286Y-77802600D01*
X76414286Y-77802600D02*
X76309524Y-77854980D01*
X76309524Y-77854980D02*
X76100000Y-77854980D01*
X76100000Y-77854980D02*
X75995238Y-77802600D01*
X75995238Y-77802600D02*
X75890476Y-77697838D01*
X75890476Y-77697838D02*
X75838095Y-77488314D01*
X75838095Y-77488314D02*
X75838095Y-77121647D01*
X75838095Y-77121647D02*
X75890476Y-76912123D01*
X75890476Y-76912123D02*
X75995238Y-76807361D01*
X75995238Y-76807361D02*
X76100000Y-76754980D01*
X77042857Y-76754980D02*
X77042857Y-77645457D01*
X77042857Y-77645457D02*
X77095238Y-77750219D01*
X77095238Y-77750219D02*
X77147619Y-77802600D01*
X77147619Y-77802600D02*
X77252381Y-77854980D01*
X77252381Y-77854980D02*
X77461905Y-77854980D01*
X77461905Y-77854980D02*
X77566667Y-77802600D01*
X77566667Y-77802600D02*
X77619048Y-77750219D01*
X77619048Y-77750219D02*
X77671429Y-77645457D01*
X77671429Y-77645457D02*
X77671429Y-76754980D01*
X78038095Y-76754980D02*
X78666667Y-76754980D01*
X78352381Y-77854980D02*
X78352381Y-76754980D01*
X72302380Y-109854980D02*
X72302380Y-108754980D01*
X72302380Y-108754980D02*
X72669047Y-109540695D01*
X72669047Y-109540695D02*
X73035714Y-108754980D01*
X73035714Y-108754980D02*
X73035714Y-109854980D01*
X73559523Y-109854980D02*
X73559523Y-108754980D01*
X74083333Y-109854980D02*
X74083333Y-108754980D01*
X74083333Y-108754980D02*
X74345238Y-108754980D01*
X74345238Y-108754980D02*
X74502381Y-108807361D01*
X74502381Y-108807361D02*
X74607143Y-108912123D01*
X74607143Y-108912123D02*
X74659524Y-109016885D01*
X74659524Y-109016885D02*
X74711905Y-109226409D01*
X74711905Y-109226409D02*
X74711905Y-109383552D01*
X74711905Y-109383552D02*
X74659524Y-109593076D01*
X74659524Y-109593076D02*
X74607143Y-109697838D01*
X74607143Y-109697838D02*
X74502381Y-109802600D01*
X74502381Y-109802600D02*
X74345238Y-109854980D01*
X74345238Y-109854980D02*
X74083333Y-109854980D01*
X75183333Y-109854980D02*
X75183333Y-108754980D01*
X76545238Y-109854980D02*
X76545238Y-108754980D01*
X77069048Y-109854980D02*
X77069048Y-108754980D01*
X77069048Y-108754980D02*
X77697620Y-109854980D01*
X77697620Y-109854980D02*
X77697620Y-108754980D01*
X59019047Y-139612980D02*
X59019047Y-138512980D01*
X59019047Y-138512980D02*
X59280952Y-138512980D01*
X59280952Y-138512980D02*
X59438095Y-138565361D01*
X59438095Y-138565361D02*
X59542857Y-138670123D01*
X59542857Y-138670123D02*
X59595238Y-138774885D01*
X59595238Y-138774885D02*
X59647619Y-138984409D01*
X59647619Y-138984409D02*
X59647619Y-139141552D01*
X59647619Y-139141552D02*
X59595238Y-139351076D01*
X59595238Y-139351076D02*
X59542857Y-139455838D01*
X59542857Y-139455838D02*
X59438095Y-139560600D01*
X59438095Y-139560600D02*
X59280952Y-139612980D01*
X59280952Y-139612980D02*
X59019047Y-139612980D01*
X60747619Y-139508219D02*
X60695238Y-139560600D01*
X60695238Y-139560600D02*
X60538095Y-139612980D01*
X60538095Y-139612980D02*
X60433333Y-139612980D01*
X60433333Y-139612980D02*
X60276190Y-139560600D01*
X60276190Y-139560600D02*
X60171428Y-139455838D01*
X60171428Y-139455838D02*
X60119047Y-139351076D01*
X60119047Y-139351076D02*
X60066666Y-139141552D01*
X60066666Y-139141552D02*
X60066666Y-138984409D01*
X60066666Y-138984409D02*
X60119047Y-138774885D01*
X60119047Y-138774885D02*
X60171428Y-138670123D01*
X60171428Y-138670123D02*
X60276190Y-138565361D01*
X60276190Y-138565361D02*
X60433333Y-138512980D01*
X60433333Y-138512980D02*
X60538095Y-138512980D01*
X60538095Y-138512980D02*
X60695238Y-138565361D01*
X60695238Y-138565361D02*
X60747619Y-138617742D01*
X61952380Y-138512980D02*
X62685714Y-138512980D01*
X62685714Y-138512980D02*
X62214285Y-139612980D01*
X63104761Y-139193933D02*
X63942857Y-139193933D01*
X65042857Y-139612980D02*
X64414285Y-139612980D01*
X64728571Y-139612980D02*
X64728571Y-138512980D01*
X64728571Y-138512980D02*
X64623809Y-138670123D01*
X64623809Y-138670123D02*
X64519047Y-138774885D01*
X64519047Y-138774885D02*
X64414285Y-138827266D01*
X65461904Y-138617742D02*
X65514285Y-138565361D01*
X65514285Y-138565361D02*
X65619047Y-138512980D01*
X65619047Y-138512980D02*
X65880952Y-138512980D01*
X65880952Y-138512980D02*
X65985714Y-138565361D01*
X65985714Y-138565361D02*
X66038095Y-138617742D01*
X66038095Y-138617742D02*
X66090476Y-138722504D01*
X66090476Y-138722504D02*
X66090476Y-138827266D01*
X66090476Y-138827266D02*
X66038095Y-138984409D01*
X66038095Y-138984409D02*
X65409523Y-139612980D01*
X65409523Y-139612980D02*
X66090476Y-139612980D01*
X66404761Y-138512980D02*
X66771428Y-139612980D01*
X66771428Y-139612980D02*
X67138095Y-138512980D01*
X60197619Y-141279219D02*
X60145238Y-141331600D01*
X60145238Y-141331600D02*
X59988095Y-141383980D01*
X59988095Y-141383980D02*
X59883333Y-141383980D01*
X59883333Y-141383980D02*
X59726190Y-141331600D01*
X59726190Y-141331600D02*
X59621428Y-141226838D01*
X59621428Y-141226838D02*
X59569047Y-141122076D01*
X59569047Y-141122076D02*
X59516666Y-140912552D01*
X59516666Y-140912552D02*
X59516666Y-140755409D01*
X59516666Y-140755409D02*
X59569047Y-140545885D01*
X59569047Y-140545885D02*
X59621428Y-140441123D01*
X59621428Y-140441123D02*
X59726190Y-140336361D01*
X59726190Y-140336361D02*
X59883333Y-140283980D01*
X59883333Y-140283980D02*
X59988095Y-140283980D01*
X59988095Y-140283980D02*
X60145238Y-140336361D01*
X60145238Y-140336361D02*
X60197619Y-140388742D01*
X60669047Y-140807790D02*
X61035714Y-140807790D01*
X61192857Y-141383980D02*
X60669047Y-141383980D01*
X60669047Y-141383980D02*
X60669047Y-140283980D01*
X60669047Y-140283980D02*
X61192857Y-140283980D01*
X61664285Y-141383980D02*
X61664285Y-140283980D01*
X61664285Y-140283980D02*
X62292857Y-141383980D01*
X62292857Y-141383980D02*
X62292857Y-140283980D01*
X63654761Y-140964933D02*
X64492857Y-140964933D01*
X64073809Y-141383980D02*
X64073809Y-140545885D01*
X64859523Y-140283980D02*
X65226190Y-141383980D01*
X65226190Y-141383980D02*
X65592857Y-140283980D01*
X65959523Y-140807790D02*
X66326190Y-140807790D01*
X66483333Y-141383980D02*
X65959523Y-141383980D01*
X65959523Y-141383980D02*
X65959523Y-140283980D01*
X65959523Y-140283980D02*
X66483333Y-140283980D01*
D11*
X65857142Y-147896895D02*
X65857142Y-147096895D01*
X65857142Y-147858800D02*
X65780951Y-147896895D01*
X65780951Y-147896895D02*
X65628570Y-147896895D01*
X65628570Y-147896895D02*
X65552380Y-147858800D01*
X65552380Y-147858800D02*
X65514285Y-147820704D01*
X65514285Y-147820704D02*
X65476189Y-147744514D01*
X65476189Y-147744514D02*
X65476189Y-147515942D01*
X65476189Y-147515942D02*
X65514285Y-147439752D01*
X65514285Y-147439752D02*
X65552380Y-147401657D01*
X65552380Y-147401657D02*
X65628570Y-147363561D01*
X65628570Y-147363561D02*
X65780951Y-147363561D01*
X65780951Y-147363561D02*
X65857142Y-147401657D01*
X66238095Y-147896895D02*
X66238095Y-147363561D01*
X66238095Y-147096895D02*
X66199999Y-147134990D01*
X66199999Y-147134990D02*
X66238095Y-147173085D01*
X66238095Y-147173085D02*
X66276190Y-147134990D01*
X66276190Y-147134990D02*
X66238095Y-147096895D01*
X66238095Y-147096895D02*
X66238095Y-147173085D01*
X66542856Y-147363561D02*
X66733332Y-147896895D01*
X66923809Y-147363561D02*
X66733332Y-147896895D01*
X66733332Y-147896895D02*
X66657142Y-148087371D01*
X66657142Y-148087371D02*
X66619047Y-148125466D01*
X66619047Y-148125466D02*
X66542856Y-148163561D01*
X67533333Y-147858800D02*
X67457142Y-147896895D01*
X67457142Y-147896895D02*
X67304761Y-147896895D01*
X67304761Y-147896895D02*
X67228571Y-147858800D01*
X67228571Y-147858800D02*
X67190475Y-147782609D01*
X67190475Y-147782609D02*
X67190475Y-147477847D01*
X67190475Y-147477847D02*
X67228571Y-147401657D01*
X67228571Y-147401657D02*
X67304761Y-147363561D01*
X67304761Y-147363561D02*
X67457142Y-147363561D01*
X67457142Y-147363561D02*
X67533333Y-147401657D01*
X67533333Y-147401657D02*
X67571428Y-147477847D01*
X67571428Y-147477847D02*
X67571428Y-147554038D01*
X67571428Y-147554038D02*
X67190475Y-147630228D01*
X68028570Y-147896895D02*
X67952380Y-147858800D01*
X67952380Y-147858800D02*
X67914285Y-147782609D01*
X67914285Y-147782609D02*
X67914285Y-147096895D01*
X68638095Y-147858800D02*
X68561904Y-147896895D01*
X68561904Y-147896895D02*
X68409523Y-147896895D01*
X68409523Y-147896895D02*
X68333333Y-147858800D01*
X68333333Y-147858800D02*
X68295237Y-147782609D01*
X68295237Y-147782609D02*
X68295237Y-147477847D01*
X68295237Y-147477847D02*
X68333333Y-147401657D01*
X68333333Y-147401657D02*
X68409523Y-147363561D01*
X68409523Y-147363561D02*
X68561904Y-147363561D01*
X68561904Y-147363561D02*
X68638095Y-147401657D01*
X68638095Y-147401657D02*
X68676190Y-147477847D01*
X68676190Y-147477847D02*
X68676190Y-147554038D01*
X68676190Y-147554038D02*
X68295237Y-147630228D01*
X69361904Y-147858800D02*
X69285713Y-147896895D01*
X69285713Y-147896895D02*
X69133332Y-147896895D01*
X69133332Y-147896895D02*
X69057142Y-147858800D01*
X69057142Y-147858800D02*
X69019047Y-147820704D01*
X69019047Y-147820704D02*
X68980951Y-147744514D01*
X68980951Y-147744514D02*
X68980951Y-147515942D01*
X68980951Y-147515942D02*
X69019047Y-147439752D01*
X69019047Y-147439752D02*
X69057142Y-147401657D01*
X69057142Y-147401657D02*
X69133332Y-147363561D01*
X69133332Y-147363561D02*
X69285713Y-147363561D01*
X69285713Y-147363561D02*
X69361904Y-147401657D01*
X69590475Y-147363561D02*
X69895237Y-147363561D01*
X69704761Y-147096895D02*
X69704761Y-147782609D01*
X69704761Y-147782609D02*
X69742856Y-147858800D01*
X69742856Y-147858800D02*
X69819046Y-147896895D01*
X69819046Y-147896895D02*
X69895237Y-147896895D01*
X70161904Y-147896895D02*
X70161904Y-147363561D01*
X70161904Y-147515942D02*
X70199999Y-147439752D01*
X70199999Y-147439752D02*
X70238094Y-147401657D01*
X70238094Y-147401657D02*
X70314285Y-147363561D01*
X70314285Y-147363561D02*
X70390475Y-147363561D01*
X70771427Y-147896895D02*
X70695237Y-147858800D01*
X70695237Y-147858800D02*
X70657142Y-147820704D01*
X70657142Y-147820704D02*
X70619046Y-147744514D01*
X70619046Y-147744514D02*
X70619046Y-147515942D01*
X70619046Y-147515942D02*
X70657142Y-147439752D01*
X70657142Y-147439752D02*
X70695237Y-147401657D01*
X70695237Y-147401657D02*
X70771427Y-147363561D01*
X70771427Y-147363561D02*
X70885713Y-147363561D01*
X70885713Y-147363561D02*
X70961904Y-147401657D01*
X70961904Y-147401657D02*
X70999999Y-147439752D01*
X70999999Y-147439752D02*
X71038094Y-147515942D01*
X71038094Y-147515942D02*
X71038094Y-147744514D01*
X71038094Y-147744514D02*
X70999999Y-147820704D01*
X70999999Y-147820704D02*
X70961904Y-147858800D01*
X70961904Y-147858800D02*
X70885713Y-147896895D01*
X70885713Y-147896895D02*
X70771427Y-147896895D01*
X71380952Y-147896895D02*
X71380952Y-147363561D01*
X71380952Y-147439752D02*
X71419047Y-147401657D01*
X71419047Y-147401657D02*
X71495237Y-147363561D01*
X71495237Y-147363561D02*
X71609523Y-147363561D01*
X71609523Y-147363561D02*
X71685714Y-147401657D01*
X71685714Y-147401657D02*
X71723809Y-147477847D01*
X71723809Y-147477847D02*
X71723809Y-147896895D01*
X71723809Y-147477847D02*
X71761904Y-147401657D01*
X71761904Y-147401657D02*
X71838095Y-147363561D01*
X71838095Y-147363561D02*
X71952380Y-147363561D01*
X71952380Y-147363561D02*
X72028571Y-147401657D01*
X72028571Y-147401657D02*
X72066666Y-147477847D01*
X72066666Y-147477847D02*
X72066666Y-147896895D01*
X72790476Y-147363561D02*
X72790476Y-147896895D01*
X72447619Y-147363561D02*
X72447619Y-147782609D01*
X72447619Y-147782609D02*
X72485714Y-147858800D01*
X72485714Y-147858800D02*
X72561904Y-147896895D01*
X72561904Y-147896895D02*
X72676190Y-147896895D01*
X72676190Y-147896895D02*
X72752381Y-147858800D01*
X72752381Y-147858800D02*
X72790476Y-147820704D01*
X73133333Y-147858800D02*
X73209524Y-147896895D01*
X73209524Y-147896895D02*
X73361905Y-147896895D01*
X73361905Y-147896895D02*
X73438095Y-147858800D01*
X73438095Y-147858800D02*
X73476191Y-147782609D01*
X73476191Y-147782609D02*
X73476191Y-147744514D01*
X73476191Y-147744514D02*
X73438095Y-147668323D01*
X73438095Y-147668323D02*
X73361905Y-147630228D01*
X73361905Y-147630228D02*
X73247619Y-147630228D01*
X73247619Y-147630228D02*
X73171429Y-147592133D01*
X73171429Y-147592133D02*
X73133333Y-147515942D01*
X73133333Y-147515942D02*
X73133333Y-147477847D01*
X73133333Y-147477847D02*
X73171429Y-147401657D01*
X73171429Y-147401657D02*
X73247619Y-147363561D01*
X73247619Y-147363561D02*
X73361905Y-147363561D01*
X73361905Y-147363561D02*
X73438095Y-147401657D01*
X73819048Y-147896895D02*
X73819048Y-147363561D01*
X73819048Y-147096895D02*
X73780952Y-147134990D01*
X73780952Y-147134990D02*
X73819048Y-147173085D01*
X73819048Y-147173085D02*
X73857143Y-147134990D01*
X73857143Y-147134990D02*
X73819048Y-147096895D01*
X73819048Y-147096895D02*
X73819048Y-147173085D01*
X74542857Y-147858800D02*
X74466666Y-147896895D01*
X74466666Y-147896895D02*
X74314285Y-147896895D01*
X74314285Y-147896895D02*
X74238095Y-147858800D01*
X74238095Y-147858800D02*
X74200000Y-147820704D01*
X74200000Y-147820704D02*
X74161904Y-147744514D01*
X74161904Y-147744514D02*
X74161904Y-147515942D01*
X74161904Y-147515942D02*
X74200000Y-147439752D01*
X74200000Y-147439752D02*
X74238095Y-147401657D01*
X74238095Y-147401657D02*
X74314285Y-147363561D01*
X74314285Y-147363561D02*
X74466666Y-147363561D01*
X74466666Y-147363561D02*
X74542857Y-147401657D01*
X75495238Y-147592133D02*
X76104762Y-147592133D01*
X77019047Y-147363561D02*
X77209523Y-147896895D01*
X77209523Y-147896895D02*
X77400000Y-147363561D01*
X77857143Y-147096895D02*
X77933333Y-147096895D01*
X77933333Y-147096895D02*
X78009524Y-147134990D01*
X78009524Y-147134990D02*
X78047619Y-147173085D01*
X78047619Y-147173085D02*
X78085714Y-147249276D01*
X78085714Y-147249276D02*
X78123809Y-147401657D01*
X78123809Y-147401657D02*
X78123809Y-147592133D01*
X78123809Y-147592133D02*
X78085714Y-147744514D01*
X78085714Y-147744514D02*
X78047619Y-147820704D01*
X78047619Y-147820704D02*
X78009524Y-147858800D01*
X78009524Y-147858800D02*
X77933333Y-147896895D01*
X77933333Y-147896895D02*
X77857143Y-147896895D01*
X77857143Y-147896895D02*
X77780952Y-147858800D01*
X77780952Y-147858800D02*
X77742857Y-147820704D01*
X77742857Y-147820704D02*
X77704762Y-147744514D01*
X77704762Y-147744514D02*
X77666666Y-147592133D01*
X77666666Y-147592133D02*
X77666666Y-147401657D01*
X77666666Y-147401657D02*
X77704762Y-147249276D01*
X77704762Y-147249276D02*
X77742857Y-147173085D01*
X77742857Y-147173085D02*
X77780952Y-147134990D01*
X77780952Y-147134990D02*
X77857143Y-147096895D01*
X78466667Y-147820704D02*
X78504762Y-147858800D01*
X78504762Y-147858800D02*
X78466667Y-147896895D01*
X78466667Y-147896895D02*
X78428571Y-147858800D01*
X78428571Y-147858800D02*
X78466667Y-147820704D01*
X78466667Y-147820704D02*
X78466667Y-147896895D01*
X79266666Y-147896895D02*
X78809523Y-147896895D01*
X79038095Y-147896895D02*
X79038095Y-147096895D01*
X79038095Y-147096895D02*
X78961904Y-147211180D01*
X78961904Y-147211180D02*
X78885714Y-147287371D01*
X78885714Y-147287371D02*
X78809523Y-147325466D01*
X80219048Y-147592133D02*
X80828572Y-147592133D01*
X81780952Y-147173085D02*
X81819048Y-147134990D01*
X81819048Y-147134990D02*
X81895238Y-147096895D01*
X81895238Y-147096895D02*
X82085714Y-147096895D01*
X82085714Y-147096895D02*
X82161905Y-147134990D01*
X82161905Y-147134990D02*
X82200000Y-147173085D01*
X82200000Y-147173085D02*
X82238095Y-147249276D01*
X82238095Y-147249276D02*
X82238095Y-147325466D01*
X82238095Y-147325466D02*
X82200000Y-147439752D01*
X82200000Y-147439752D02*
X81742857Y-147896895D01*
X81742857Y-147896895D02*
X82238095Y-147896895D01*
X82733334Y-147096895D02*
X82809524Y-147096895D01*
X82809524Y-147096895D02*
X82885715Y-147134990D01*
X82885715Y-147134990D02*
X82923810Y-147173085D01*
X82923810Y-147173085D02*
X82961905Y-147249276D01*
X82961905Y-147249276D02*
X83000000Y-147401657D01*
X83000000Y-147401657D02*
X83000000Y-147592133D01*
X83000000Y-147592133D02*
X82961905Y-147744514D01*
X82961905Y-147744514D02*
X82923810Y-147820704D01*
X82923810Y-147820704D02*
X82885715Y-147858800D01*
X82885715Y-147858800D02*
X82809524Y-147896895D01*
X82809524Y-147896895D02*
X82733334Y-147896895D01*
X82733334Y-147896895D02*
X82657143Y-147858800D01*
X82657143Y-147858800D02*
X82619048Y-147820704D01*
X82619048Y-147820704D02*
X82580953Y-147744514D01*
X82580953Y-147744514D02*
X82542857Y-147592133D01*
X82542857Y-147592133D02*
X82542857Y-147401657D01*
X82542857Y-147401657D02*
X82580953Y-147249276D01*
X82580953Y-147249276D02*
X82619048Y-147173085D01*
X82619048Y-147173085D02*
X82657143Y-147134990D01*
X82657143Y-147134990D02*
X82733334Y-147096895D01*
X83304762Y-147173085D02*
X83342858Y-147134990D01*
X83342858Y-147134990D02*
X83419048Y-147096895D01*
X83419048Y-147096895D02*
X83609524Y-147096895D01*
X83609524Y-147096895D02*
X83685715Y-147134990D01*
X83685715Y-147134990D02*
X83723810Y-147173085D01*
X83723810Y-147173085D02*
X83761905Y-147249276D01*
X83761905Y-147249276D02*
X83761905Y-147325466D01*
X83761905Y-147325466D02*
X83723810Y-147439752D01*
X83723810Y-147439752D02*
X83266667Y-147896895D01*
X83266667Y-147896895D02*
X83761905Y-147896895D01*
X84447620Y-147363561D02*
X84447620Y-147896895D01*
X84257144Y-147058800D02*
X84066667Y-147630228D01*
X84066667Y-147630228D02*
X84561906Y-147630228D01*
M02*
