%TF.GenerationSoftware,KiCad,Pcbnew,8.0.3*%
%TF.CreationDate,2024-06-30T10:21:18+01:00*%
%TF.ProjectId,JSTSH4pinBreakout,4a535453-4834-4706-996e-427265616b6f,rev?*%
%TF.SameCoordinates,Original*%
%TF.FileFunction,Copper,L1,Top*%
%TF.FilePolarity,Positive*%
%FSLAX46Y46*%
G04 Gerber Fmt 4.6, Leading zero omitted, Abs format (unit mm)*
G04 Created by KiCad (PCBNEW 8.0.3) date 2024-06-30 10:21:18*
%MOMM*%
%LPD*%
G01*
G04 APERTURE LIST*
G04 Aperture macros list*
%AMRoundRect*
0 Rectangle with rounded corners*
0 $1 Rounding radius*
0 $2 $3 $4 $5 $6 $7 $8 $9 X,Y pos of 4 corners*
0 Add a 4 corners polygon primitive as box body*
4,1,4,$2,$3,$4,$5,$6,$7,$8,$9,$2,$3,0*
0 Add four circle primitives for the rounded corners*
1,1,$1+$1,$2,$3*
1,1,$1+$1,$4,$5*
1,1,$1+$1,$6,$7*
1,1,$1+$1,$8,$9*
0 Add four rect primitives between the rounded corners*
20,1,$1+$1,$2,$3,$4,$5,0*
20,1,$1+$1,$4,$5,$6,$7,0*
20,1,$1+$1,$6,$7,$8,$9,0*
20,1,$1+$1,$8,$9,$2,$3,0*%
G04 Aperture macros list end*
%TA.AperFunction,ComponentPad*%
%ADD10RoundRect,0.250000X-0.350000X-0.625000X0.350000X-0.625000X0.350000X0.625000X-0.350000X0.625000X0*%
%TD*%
%TA.AperFunction,ComponentPad*%
%ADD11O,1.200000X1.750000*%
%TD*%
%TA.AperFunction,ComponentPad*%
%ADD12R,1.700000X1.700000*%
%TD*%
%TA.AperFunction,ComponentPad*%
%ADD13O,1.700000X1.700000*%
%TD*%
%TA.AperFunction,Conductor*%
%ADD14C,0.600000*%
%TD*%
G04 APERTURE END LIST*
D10*
%TO.P,J4,1,Pin_1*%
%TO.N,Net-(J1-Pin_1)*%
X109000000Y-70000000D03*
D11*
%TO.P,J4,2,Pin_2*%
%TO.N,Net-(J1-Pin_2)*%
X111000000Y-70000000D03*
%TO.P,J4,3,Pin_3*%
%TO.N,Net-(J1-Pin_3)*%
X113000000Y-70000000D03*
%TO.P,J4,4,Pin_4*%
%TO.N,Net-(J1-Pin_4)*%
X115000000Y-70000000D03*
%TD*%
D12*
%TO.P,J3,1,Pin_1*%
%TO.N,Net-(J1-Pin_1)*%
X108190000Y-65000000D03*
D13*
%TO.P,J3,2,Pin_2*%
%TO.N,Net-(J1-Pin_2)*%
X110730000Y-65000000D03*
%TO.P,J3,3,Pin_3*%
%TO.N,Net-(J1-Pin_3)*%
X113270000Y-65000000D03*
%TO.P,J3,4,Pin_4*%
%TO.N,Net-(J1-Pin_4)*%
X115810000Y-65000000D03*
%TD*%
D12*
%TO.P,J2,1,Pin_1*%
%TO.N,Net-(J1-Pin_1)*%
X108190000Y-59000000D03*
D13*
%TO.P,J2,2,Pin_2*%
%TO.N,Net-(J1-Pin_2)*%
X110730000Y-59000000D03*
%TO.P,J2,3,Pin_3*%
%TO.N,Net-(J1-Pin_3)*%
X113270000Y-59000000D03*
%TO.P,J2,4,Pin_4*%
%TO.N,Net-(J1-Pin_4)*%
X115810000Y-59000000D03*
%TD*%
D11*
%TO.P,J1,4,Pin_4*%
%TO.N,Net-(J1-Pin_4)*%
X115000000Y-53000000D03*
%TO.P,J1,3,Pin_3*%
%TO.N,Net-(J1-Pin_3)*%
X113000000Y-53000000D03*
%TO.P,J1,2,Pin_2*%
%TO.N,Net-(J1-Pin_2)*%
X111000000Y-53000000D03*
D10*
%TO.P,J1,1,Pin_1*%
%TO.N,Net-(J1-Pin_1)*%
X109000000Y-53000000D03*
%TD*%
D14*
%TO.N,Net-(J1-Pin_4)*%
X122428000Y-63754000D02*
X121182000Y-65000000D01*
X122428000Y-60198000D02*
X122428000Y-63754000D01*
X121182000Y-65000000D02*
X115810000Y-65000000D01*
X121230000Y-59000000D02*
X122428000Y-60198000D01*
X115810000Y-59000000D02*
X121230000Y-59000000D01*
%TO.N,Net-(J1-Pin_1)*%
X102846000Y-65000000D02*
X108190000Y-65000000D01*
X101346000Y-63500000D02*
X102846000Y-65000000D01*
X101346000Y-60706000D02*
X101346000Y-63500000D01*
X103052000Y-59000000D02*
X101346000Y-60706000D01*
X108190000Y-59000000D02*
X103052000Y-59000000D01*
%TO.N,Net-(J1-Pin_4)*%
X115000000Y-65810000D02*
X115810000Y-65000000D01*
X115000000Y-70000000D02*
X115000000Y-65810000D01*
%TO.N,Net-(J1-Pin_3)*%
X113000000Y-65270000D02*
X113270000Y-65000000D01*
X113000000Y-70000000D02*
X113000000Y-65270000D01*
%TO.N,Net-(J1-Pin_2)*%
X111000000Y-65270000D02*
X110730000Y-65000000D01*
X111000000Y-70000000D02*
X111000000Y-65270000D01*
%TO.N,Net-(J1-Pin_1)*%
X109000000Y-70000000D02*
X109000000Y-65810000D01*
X109000000Y-65810000D02*
X108190000Y-65000000D01*
X109000000Y-58190000D02*
X108190000Y-59000000D01*
X109000000Y-53000000D02*
X109000000Y-58190000D01*
%TO.N,Net-(J1-Pin_4)*%
X115000000Y-58190000D02*
X115810000Y-59000000D01*
X115000000Y-53000000D02*
X115000000Y-58190000D01*
%TO.N,Net-(J1-Pin_3)*%
X113000000Y-58730000D02*
X113270000Y-59000000D01*
X113000000Y-53000000D02*
X113000000Y-58730000D01*
%TO.N,Net-(J1-Pin_2)*%
X111000000Y-58730000D02*
X110730000Y-59000000D01*
X111000000Y-53000000D02*
X111000000Y-58730000D01*
%TD*%
M02*
