M48
; DRILL file {KiCad 8.0.3} date 2024-06-30T10:21:21+0100
; FORMAT={-:-/ absolute / inch / decimal}
; #@! TF.CreationDate,2024-06-30T10:21:21+01:00
; #@! TF.GenerationSoftware,Kicad,Pcbnew,8.0.3
; #@! TF.FileFunction,MixedPlating,1,2
FMAT,2
INCH
; #@! TA.AperFunction,Plated,PTH,ComponentDrill
T1C0.0295
; #@! TA.AperFunction,Plated,PTH,ComponentDrill
T2C0.0394
; #@! TA.AperFunction,NonPlated,NPTH,ComponentDrill
T3C0.1063
%
G90
G05
T1
X4.2913Y-2.0866
X4.2913Y-2.7559
X4.3701Y-2.0866
X4.3701Y-2.7559
X4.4488Y-2.0866
X4.4488Y-2.7559
X4.5276Y-2.0866
X4.5276Y-2.7559
T2
X4.2594Y-2.3228
X4.2594Y-2.5591
X4.3594Y-2.3228
X4.3594Y-2.5591
X4.4594Y-2.3228
X4.4594Y-2.5591
X4.5594Y-2.3228
X4.5594Y-2.5591
T3
X4.0551Y-2.0866
X4.0551Y-2.7953
X4.7638Y-2.0866
X4.7638Y-2.7953
M30
