%TF.GenerationSoftware,KiCad,Pcbnew,8.0.3*%
%TF.CreationDate,2024-06-30T10:21:18+01:00*%
%TF.ProjectId,JSTSH4pinBreakout,4a535453-4834-4706-996e-427265616b6f,rev?*%
%TF.SameCoordinates,Original*%
%TF.FileFunction,Legend,Top*%
%TF.FilePolarity,Positive*%
%FSLAX46Y46*%
G04 Gerber Fmt 4.6, Leading zero omitted, Abs format (unit mm)*
G04 Created by KiCad (PCBNEW 8.0.3) date 2024-06-30 10:21:18*
%MOMM*%
%LPD*%
G01*
G04 APERTURE LIST*
%ADD10C,0.160000*%
%ADD11C,0.120000*%
G04 APERTURE END LIST*
D10*
X100403865Y-67861715D02*
X100975293Y-67861715D01*
X100975293Y-67861715D02*
X101089579Y-67899810D01*
X101089579Y-67899810D02*
X101165770Y-67976001D01*
X101165770Y-67976001D02*
X101203865Y-68090286D01*
X101203865Y-68090286D02*
X101203865Y-68166477D01*
X101165770Y-67518858D02*
X101203865Y-67404572D01*
X101203865Y-67404572D02*
X101203865Y-67214096D01*
X101203865Y-67214096D02*
X101165770Y-67137905D01*
X101165770Y-67137905D02*
X101127674Y-67099810D01*
X101127674Y-67099810D02*
X101051484Y-67061715D01*
X101051484Y-67061715D02*
X100975293Y-67061715D01*
X100975293Y-67061715D02*
X100899103Y-67099810D01*
X100899103Y-67099810D02*
X100861008Y-67137905D01*
X100861008Y-67137905D02*
X100822912Y-67214096D01*
X100822912Y-67214096D02*
X100784817Y-67366477D01*
X100784817Y-67366477D02*
X100746722Y-67442667D01*
X100746722Y-67442667D02*
X100708627Y-67480762D01*
X100708627Y-67480762D02*
X100632436Y-67518858D01*
X100632436Y-67518858D02*
X100556246Y-67518858D01*
X100556246Y-67518858D02*
X100480055Y-67480762D01*
X100480055Y-67480762D02*
X100441960Y-67442667D01*
X100441960Y-67442667D02*
X100403865Y-67366477D01*
X100403865Y-67366477D02*
X100403865Y-67176000D01*
X100403865Y-67176000D02*
X100441960Y-67061715D01*
X100403865Y-66833143D02*
X100403865Y-66376000D01*
X101203865Y-66604572D02*
X100403865Y-66604572D01*
X101203865Y-65499809D02*
X100403865Y-65499809D01*
X100403865Y-65499809D02*
X100403865Y-65195047D01*
X100403865Y-65195047D02*
X100441960Y-65118857D01*
X100441960Y-65118857D02*
X100480055Y-65080762D01*
X100480055Y-65080762D02*
X100556246Y-65042666D01*
X100556246Y-65042666D02*
X100670531Y-65042666D01*
X100670531Y-65042666D02*
X100746722Y-65080762D01*
X100746722Y-65080762D02*
X100784817Y-65118857D01*
X100784817Y-65118857D02*
X100822912Y-65195047D01*
X100822912Y-65195047D02*
X100822912Y-65499809D01*
X101203865Y-64699809D02*
X100403865Y-64699809D01*
X100784817Y-64699809D02*
X100784817Y-64242666D01*
X101203865Y-64242666D02*
X100403865Y-64242666D01*
X100480055Y-63290286D02*
X100441960Y-63252190D01*
X100441960Y-63252190D02*
X100403865Y-63176000D01*
X100403865Y-63176000D02*
X100403865Y-62985524D01*
X100403865Y-62985524D02*
X100441960Y-62909333D01*
X100441960Y-62909333D02*
X100480055Y-62871238D01*
X100480055Y-62871238D02*
X100556246Y-62833143D01*
X100556246Y-62833143D02*
X100632436Y-62833143D01*
X100632436Y-62833143D02*
X100746722Y-62871238D01*
X100746722Y-62871238D02*
X101203865Y-63328381D01*
X101203865Y-63328381D02*
X101203865Y-62833143D01*
X101127674Y-62490285D02*
X101165770Y-62452190D01*
X101165770Y-62452190D02*
X101203865Y-62490285D01*
X101203865Y-62490285D02*
X101165770Y-62528381D01*
X101165770Y-62528381D02*
X101127674Y-62490285D01*
X101127674Y-62490285D02*
X101203865Y-62490285D01*
X100403865Y-61956952D02*
X100403865Y-61880762D01*
X100403865Y-61880762D02*
X100441960Y-61804571D01*
X100441960Y-61804571D02*
X100480055Y-61766476D01*
X100480055Y-61766476D02*
X100556246Y-61728381D01*
X100556246Y-61728381D02*
X100708627Y-61690286D01*
X100708627Y-61690286D02*
X100899103Y-61690286D01*
X100899103Y-61690286D02*
X101051484Y-61728381D01*
X101051484Y-61728381D02*
X101127674Y-61766476D01*
X101127674Y-61766476D02*
X101165770Y-61804571D01*
X101165770Y-61804571D02*
X101203865Y-61880762D01*
X101203865Y-61880762D02*
X101203865Y-61956952D01*
X101203865Y-61956952D02*
X101165770Y-62033143D01*
X101165770Y-62033143D02*
X101127674Y-62071238D01*
X101127674Y-62071238D02*
X101051484Y-62109333D01*
X101051484Y-62109333D02*
X100899103Y-62147429D01*
X100899103Y-62147429D02*
X100708627Y-62147429D01*
X100708627Y-62147429D02*
X100556246Y-62109333D01*
X100556246Y-62109333D02*
X100480055Y-62071238D01*
X100480055Y-62071238D02*
X100441960Y-62033143D01*
X100441960Y-62033143D02*
X100403865Y-61956952D01*
X100784817Y-60471238D02*
X100822912Y-60356952D01*
X100822912Y-60356952D02*
X100861008Y-60318857D01*
X100861008Y-60318857D02*
X100937198Y-60280761D01*
X100937198Y-60280761D02*
X101051484Y-60280761D01*
X101051484Y-60280761D02*
X101127674Y-60318857D01*
X101127674Y-60318857D02*
X101165770Y-60356952D01*
X101165770Y-60356952D02*
X101203865Y-60433142D01*
X101203865Y-60433142D02*
X101203865Y-60737904D01*
X101203865Y-60737904D02*
X100403865Y-60737904D01*
X100403865Y-60737904D02*
X100403865Y-60471238D01*
X100403865Y-60471238D02*
X100441960Y-60395047D01*
X100441960Y-60395047D02*
X100480055Y-60356952D01*
X100480055Y-60356952D02*
X100556246Y-60318857D01*
X100556246Y-60318857D02*
X100632436Y-60318857D01*
X100632436Y-60318857D02*
X100708627Y-60356952D01*
X100708627Y-60356952D02*
X100746722Y-60395047D01*
X100746722Y-60395047D02*
X100784817Y-60471238D01*
X100784817Y-60471238D02*
X100784817Y-60737904D01*
X101203865Y-59937904D02*
X100670531Y-59937904D01*
X100822912Y-59937904D02*
X100746722Y-59899809D01*
X100746722Y-59899809D02*
X100708627Y-59861714D01*
X100708627Y-59861714D02*
X100670531Y-59785523D01*
X100670531Y-59785523D02*
X100670531Y-59709333D01*
X101165770Y-59137904D02*
X101203865Y-59214095D01*
X101203865Y-59214095D02*
X101203865Y-59366476D01*
X101203865Y-59366476D02*
X101165770Y-59442666D01*
X101165770Y-59442666D02*
X101089579Y-59480762D01*
X101089579Y-59480762D02*
X100784817Y-59480762D01*
X100784817Y-59480762D02*
X100708627Y-59442666D01*
X100708627Y-59442666D02*
X100670531Y-59366476D01*
X100670531Y-59366476D02*
X100670531Y-59214095D01*
X100670531Y-59214095D02*
X100708627Y-59137904D01*
X100708627Y-59137904D02*
X100784817Y-59099809D01*
X100784817Y-59099809D02*
X100861008Y-59099809D01*
X100861008Y-59099809D02*
X100937198Y-59480762D01*
X101203865Y-58414095D02*
X100784817Y-58414095D01*
X100784817Y-58414095D02*
X100708627Y-58452190D01*
X100708627Y-58452190D02*
X100670531Y-58528381D01*
X100670531Y-58528381D02*
X100670531Y-58680762D01*
X100670531Y-58680762D02*
X100708627Y-58756952D01*
X101165770Y-58414095D02*
X101203865Y-58490286D01*
X101203865Y-58490286D02*
X101203865Y-58680762D01*
X101203865Y-58680762D02*
X101165770Y-58756952D01*
X101165770Y-58756952D02*
X101089579Y-58795048D01*
X101089579Y-58795048D02*
X101013389Y-58795048D01*
X101013389Y-58795048D02*
X100937198Y-58756952D01*
X100937198Y-58756952D02*
X100899103Y-58680762D01*
X100899103Y-58680762D02*
X100899103Y-58490286D01*
X100899103Y-58490286D02*
X100861008Y-58414095D01*
X101203865Y-58033142D02*
X100403865Y-58033142D01*
X100899103Y-57956952D02*
X101203865Y-57728380D01*
X100670531Y-57728380D02*
X100975293Y-58033142D01*
X101203865Y-57271238D02*
X101165770Y-57347428D01*
X101165770Y-57347428D02*
X101127674Y-57385523D01*
X101127674Y-57385523D02*
X101051484Y-57423619D01*
X101051484Y-57423619D02*
X100822912Y-57423619D01*
X100822912Y-57423619D02*
X100746722Y-57385523D01*
X100746722Y-57385523D02*
X100708627Y-57347428D01*
X100708627Y-57347428D02*
X100670531Y-57271238D01*
X100670531Y-57271238D02*
X100670531Y-57156952D01*
X100670531Y-57156952D02*
X100708627Y-57080761D01*
X100708627Y-57080761D02*
X100746722Y-57042666D01*
X100746722Y-57042666D02*
X100822912Y-57004571D01*
X100822912Y-57004571D02*
X101051484Y-57004571D01*
X101051484Y-57004571D02*
X101127674Y-57042666D01*
X101127674Y-57042666D02*
X101165770Y-57080761D01*
X101165770Y-57080761D02*
X101203865Y-57156952D01*
X101203865Y-57156952D02*
X101203865Y-57271238D01*
X100670531Y-56318856D02*
X101203865Y-56318856D01*
X100670531Y-56661713D02*
X101089579Y-56661713D01*
X101089579Y-56661713D02*
X101165770Y-56623618D01*
X101165770Y-56623618D02*
X101203865Y-56547428D01*
X101203865Y-56547428D02*
X101203865Y-56433142D01*
X101203865Y-56433142D02*
X101165770Y-56356951D01*
X101165770Y-56356951D02*
X101127674Y-56318856D01*
X100670531Y-56052189D02*
X100670531Y-55747427D01*
X100403865Y-55937903D02*
X101089579Y-55937903D01*
X101089579Y-55937903D02*
X101165770Y-55899808D01*
X101165770Y-55899808D02*
X101203865Y-55823618D01*
X101203865Y-55823618D02*
X101203865Y-55747427D01*
X102491820Y-66128380D02*
X101691820Y-66128380D01*
X102453725Y-66128380D02*
X102491820Y-66204571D01*
X102491820Y-66204571D02*
X102491820Y-66356952D01*
X102491820Y-66356952D02*
X102453725Y-66433142D01*
X102453725Y-66433142D02*
X102415629Y-66471237D01*
X102415629Y-66471237D02*
X102339439Y-66509333D01*
X102339439Y-66509333D02*
X102110867Y-66509333D01*
X102110867Y-66509333D02*
X102034677Y-66471237D01*
X102034677Y-66471237D02*
X101996582Y-66433142D01*
X101996582Y-66433142D02*
X101958486Y-66356952D01*
X101958486Y-66356952D02*
X101958486Y-66204571D01*
X101958486Y-66204571D02*
X101996582Y-66128380D01*
X102491820Y-65747427D02*
X101958486Y-65747427D01*
X101691820Y-65747427D02*
X101729915Y-65785523D01*
X101729915Y-65785523D02*
X101768010Y-65747427D01*
X101768010Y-65747427D02*
X101729915Y-65709332D01*
X101729915Y-65709332D02*
X101691820Y-65747427D01*
X101691820Y-65747427D02*
X101768010Y-65747427D01*
X101958486Y-65442666D02*
X102491820Y-65252190D01*
X101958486Y-65061713D02*
X102491820Y-65252190D01*
X102491820Y-65252190D02*
X102682296Y-65328380D01*
X102682296Y-65328380D02*
X102720391Y-65366475D01*
X102720391Y-65366475D02*
X102758486Y-65442666D01*
X102453725Y-64452189D02*
X102491820Y-64528380D01*
X102491820Y-64528380D02*
X102491820Y-64680761D01*
X102491820Y-64680761D02*
X102453725Y-64756951D01*
X102453725Y-64756951D02*
X102377534Y-64795047D01*
X102377534Y-64795047D02*
X102072772Y-64795047D01*
X102072772Y-64795047D02*
X101996582Y-64756951D01*
X101996582Y-64756951D02*
X101958486Y-64680761D01*
X101958486Y-64680761D02*
X101958486Y-64528380D01*
X101958486Y-64528380D02*
X101996582Y-64452189D01*
X101996582Y-64452189D02*
X102072772Y-64414094D01*
X102072772Y-64414094D02*
X102148963Y-64414094D01*
X102148963Y-64414094D02*
X102225153Y-64795047D01*
X102491820Y-63956952D02*
X102453725Y-64033142D01*
X102453725Y-64033142D02*
X102377534Y-64071237D01*
X102377534Y-64071237D02*
X101691820Y-64071237D01*
X102453725Y-63347427D02*
X102491820Y-63423618D01*
X102491820Y-63423618D02*
X102491820Y-63575999D01*
X102491820Y-63575999D02*
X102453725Y-63652189D01*
X102453725Y-63652189D02*
X102377534Y-63690285D01*
X102377534Y-63690285D02*
X102072772Y-63690285D01*
X102072772Y-63690285D02*
X101996582Y-63652189D01*
X101996582Y-63652189D02*
X101958486Y-63575999D01*
X101958486Y-63575999D02*
X101958486Y-63423618D01*
X101958486Y-63423618D02*
X101996582Y-63347427D01*
X101996582Y-63347427D02*
X102072772Y-63309332D01*
X102072772Y-63309332D02*
X102148963Y-63309332D01*
X102148963Y-63309332D02*
X102225153Y-63690285D01*
X102453725Y-62623618D02*
X102491820Y-62699809D01*
X102491820Y-62699809D02*
X102491820Y-62852190D01*
X102491820Y-62852190D02*
X102453725Y-62928380D01*
X102453725Y-62928380D02*
X102415629Y-62966475D01*
X102415629Y-62966475D02*
X102339439Y-63004571D01*
X102339439Y-63004571D02*
X102110867Y-63004571D01*
X102110867Y-63004571D02*
X102034677Y-62966475D01*
X102034677Y-62966475D02*
X101996582Y-62928380D01*
X101996582Y-62928380D02*
X101958486Y-62852190D01*
X101958486Y-62852190D02*
X101958486Y-62699809D01*
X101958486Y-62699809D02*
X101996582Y-62623618D01*
X101958486Y-62395047D02*
X101958486Y-62090285D01*
X101691820Y-62280761D02*
X102377534Y-62280761D01*
X102377534Y-62280761D02*
X102453725Y-62242666D01*
X102453725Y-62242666D02*
X102491820Y-62166476D01*
X102491820Y-62166476D02*
X102491820Y-62090285D01*
X102491820Y-61823618D02*
X101958486Y-61823618D01*
X102110867Y-61823618D02*
X102034677Y-61785523D01*
X102034677Y-61785523D02*
X101996582Y-61747428D01*
X101996582Y-61747428D02*
X101958486Y-61671237D01*
X101958486Y-61671237D02*
X101958486Y-61595047D01*
X102491820Y-61214095D02*
X102453725Y-61290285D01*
X102453725Y-61290285D02*
X102415629Y-61328380D01*
X102415629Y-61328380D02*
X102339439Y-61366476D01*
X102339439Y-61366476D02*
X102110867Y-61366476D01*
X102110867Y-61366476D02*
X102034677Y-61328380D01*
X102034677Y-61328380D02*
X101996582Y-61290285D01*
X101996582Y-61290285D02*
X101958486Y-61214095D01*
X101958486Y-61214095D02*
X101958486Y-61099809D01*
X101958486Y-61099809D02*
X101996582Y-61023618D01*
X101996582Y-61023618D02*
X102034677Y-60985523D01*
X102034677Y-60985523D02*
X102110867Y-60947428D01*
X102110867Y-60947428D02*
X102339439Y-60947428D01*
X102339439Y-60947428D02*
X102415629Y-60985523D01*
X102415629Y-60985523D02*
X102453725Y-61023618D01*
X102453725Y-61023618D02*
X102491820Y-61099809D01*
X102491820Y-61099809D02*
X102491820Y-61214095D01*
X102491820Y-60604570D02*
X101958486Y-60604570D01*
X102034677Y-60604570D02*
X101996582Y-60566475D01*
X101996582Y-60566475D02*
X101958486Y-60490285D01*
X101958486Y-60490285D02*
X101958486Y-60375999D01*
X101958486Y-60375999D02*
X101996582Y-60299808D01*
X101996582Y-60299808D02*
X102072772Y-60261713D01*
X102072772Y-60261713D02*
X102491820Y-60261713D01*
X102072772Y-60261713D02*
X101996582Y-60223618D01*
X101996582Y-60223618D02*
X101958486Y-60147427D01*
X101958486Y-60147427D02*
X101958486Y-60033142D01*
X101958486Y-60033142D02*
X101996582Y-59956951D01*
X101996582Y-59956951D02*
X102072772Y-59918856D01*
X102072772Y-59918856D02*
X102491820Y-59918856D01*
X101958486Y-59195046D02*
X102491820Y-59195046D01*
X101958486Y-59537903D02*
X102377534Y-59537903D01*
X102377534Y-59537903D02*
X102453725Y-59499808D01*
X102453725Y-59499808D02*
X102491820Y-59423618D01*
X102491820Y-59423618D02*
X102491820Y-59309332D01*
X102491820Y-59309332D02*
X102453725Y-59233141D01*
X102453725Y-59233141D02*
X102415629Y-59195046D01*
X102453725Y-58852189D02*
X102491820Y-58775998D01*
X102491820Y-58775998D02*
X102491820Y-58623617D01*
X102491820Y-58623617D02*
X102453725Y-58547427D01*
X102453725Y-58547427D02*
X102377534Y-58509331D01*
X102377534Y-58509331D02*
X102339439Y-58509331D01*
X102339439Y-58509331D02*
X102263248Y-58547427D01*
X102263248Y-58547427D02*
X102225153Y-58623617D01*
X102225153Y-58623617D02*
X102225153Y-58737903D01*
X102225153Y-58737903D02*
X102187058Y-58814093D01*
X102187058Y-58814093D02*
X102110867Y-58852189D01*
X102110867Y-58852189D02*
X102072772Y-58852189D01*
X102072772Y-58852189D02*
X101996582Y-58814093D01*
X101996582Y-58814093D02*
X101958486Y-58737903D01*
X101958486Y-58737903D02*
X101958486Y-58623617D01*
X101958486Y-58623617D02*
X101996582Y-58547427D01*
X102491820Y-58166474D02*
X101958486Y-58166474D01*
X101691820Y-58166474D02*
X101729915Y-58204570D01*
X101729915Y-58204570D02*
X101768010Y-58166474D01*
X101768010Y-58166474D02*
X101729915Y-58128379D01*
X101729915Y-58128379D02*
X101691820Y-58166474D01*
X101691820Y-58166474D02*
X101768010Y-58166474D01*
X102453725Y-57442665D02*
X102491820Y-57518856D01*
X102491820Y-57518856D02*
X102491820Y-57671237D01*
X102491820Y-57671237D02*
X102453725Y-57747427D01*
X102453725Y-57747427D02*
X102415629Y-57785522D01*
X102415629Y-57785522D02*
X102339439Y-57823618D01*
X102339439Y-57823618D02*
X102110867Y-57823618D01*
X102110867Y-57823618D02*
X102034677Y-57785522D01*
X102034677Y-57785522D02*
X101996582Y-57747427D01*
X101996582Y-57747427D02*
X101958486Y-57671237D01*
X101958486Y-57671237D02*
X101958486Y-57518856D01*
X101958486Y-57518856D02*
X101996582Y-57442665D01*
X103246441Y-64947429D02*
X103779775Y-64756953D01*
X103779775Y-64756953D02*
X103246441Y-64566476D01*
X102979775Y-64109333D02*
X102979775Y-64033143D01*
X102979775Y-64033143D02*
X103017870Y-63956952D01*
X103017870Y-63956952D02*
X103055965Y-63918857D01*
X103055965Y-63918857D02*
X103132156Y-63880762D01*
X103132156Y-63880762D02*
X103284537Y-63842667D01*
X103284537Y-63842667D02*
X103475013Y-63842667D01*
X103475013Y-63842667D02*
X103627394Y-63880762D01*
X103627394Y-63880762D02*
X103703584Y-63918857D01*
X103703584Y-63918857D02*
X103741680Y-63956952D01*
X103741680Y-63956952D02*
X103779775Y-64033143D01*
X103779775Y-64033143D02*
X103779775Y-64109333D01*
X103779775Y-64109333D02*
X103741680Y-64185524D01*
X103741680Y-64185524D02*
X103703584Y-64223619D01*
X103703584Y-64223619D02*
X103627394Y-64261714D01*
X103627394Y-64261714D02*
X103475013Y-64299810D01*
X103475013Y-64299810D02*
X103284537Y-64299810D01*
X103284537Y-64299810D02*
X103132156Y-64261714D01*
X103132156Y-64261714D02*
X103055965Y-64223619D01*
X103055965Y-64223619D02*
X103017870Y-64185524D01*
X103017870Y-64185524D02*
X102979775Y-64109333D01*
X103703584Y-63499809D02*
X103741680Y-63461714D01*
X103741680Y-63461714D02*
X103779775Y-63499809D01*
X103779775Y-63499809D02*
X103741680Y-63537905D01*
X103741680Y-63537905D02*
X103703584Y-63499809D01*
X103703584Y-63499809D02*
X103779775Y-63499809D01*
X103779775Y-62699810D02*
X103779775Y-63156953D01*
X103779775Y-62928381D02*
X102979775Y-62928381D01*
X102979775Y-62928381D02*
X103094060Y-63004572D01*
X103094060Y-63004572D02*
X103170251Y-63080762D01*
X103170251Y-63080762D02*
X103208346Y-63156953D01*
X103055965Y-61785524D02*
X103017870Y-61747428D01*
X103017870Y-61747428D02*
X102979775Y-61671238D01*
X102979775Y-61671238D02*
X102979775Y-61480762D01*
X102979775Y-61480762D02*
X103017870Y-61404571D01*
X103017870Y-61404571D02*
X103055965Y-61366476D01*
X103055965Y-61366476D02*
X103132156Y-61328381D01*
X103132156Y-61328381D02*
X103208346Y-61328381D01*
X103208346Y-61328381D02*
X103322632Y-61366476D01*
X103322632Y-61366476D02*
X103779775Y-61823619D01*
X103779775Y-61823619D02*
X103779775Y-61328381D01*
X102979775Y-60833142D02*
X102979775Y-60756952D01*
X102979775Y-60756952D02*
X103017870Y-60680761D01*
X103017870Y-60680761D02*
X103055965Y-60642666D01*
X103055965Y-60642666D02*
X103132156Y-60604571D01*
X103132156Y-60604571D02*
X103284537Y-60566476D01*
X103284537Y-60566476D02*
X103475013Y-60566476D01*
X103475013Y-60566476D02*
X103627394Y-60604571D01*
X103627394Y-60604571D02*
X103703584Y-60642666D01*
X103703584Y-60642666D02*
X103741680Y-60680761D01*
X103741680Y-60680761D02*
X103779775Y-60756952D01*
X103779775Y-60756952D02*
X103779775Y-60833142D01*
X103779775Y-60833142D02*
X103741680Y-60909333D01*
X103741680Y-60909333D02*
X103703584Y-60947428D01*
X103703584Y-60947428D02*
X103627394Y-60985523D01*
X103627394Y-60985523D02*
X103475013Y-61023619D01*
X103475013Y-61023619D02*
X103284537Y-61023619D01*
X103284537Y-61023619D02*
X103132156Y-60985523D01*
X103132156Y-60985523D02*
X103055965Y-60947428D01*
X103055965Y-60947428D02*
X103017870Y-60909333D01*
X103017870Y-60909333D02*
X102979775Y-60833142D01*
X103055965Y-60261714D02*
X103017870Y-60223618D01*
X103017870Y-60223618D02*
X102979775Y-60147428D01*
X102979775Y-60147428D02*
X102979775Y-59956952D01*
X102979775Y-59956952D02*
X103017870Y-59880761D01*
X103017870Y-59880761D02*
X103055965Y-59842666D01*
X103055965Y-59842666D02*
X103132156Y-59804571D01*
X103132156Y-59804571D02*
X103208346Y-59804571D01*
X103208346Y-59804571D02*
X103322632Y-59842666D01*
X103322632Y-59842666D02*
X103779775Y-60299809D01*
X103779775Y-60299809D02*
X103779775Y-59804571D01*
X103246441Y-59118856D02*
X103779775Y-59118856D01*
X102941680Y-59309332D02*
X103513108Y-59499809D01*
X103513108Y-59499809D02*
X103513108Y-59004570D01*
D11*
%TO.C,J4*%
X106640000Y-67890000D02*
X106640000Y-69140000D01*
X106940000Y-68190000D02*
X106940000Y-72910000D01*
X106940000Y-69500000D02*
X107550000Y-69500000D01*
X106940000Y-70800000D02*
X107550000Y-70800000D01*
X106940000Y-72910000D02*
X117060000Y-72910000D01*
X107550000Y-68800000D02*
X107550000Y-72300000D01*
X107550000Y-72300000D02*
X116450000Y-72300000D01*
X107890000Y-67890000D02*
X106640000Y-67890000D01*
X108400000Y-67990000D02*
X108400000Y-68190000D01*
X108700000Y-67990000D02*
X108400000Y-67990000D01*
X108700000Y-68090000D02*
X108400000Y-68090000D01*
X108700000Y-68190000D02*
X108700000Y-67990000D01*
X109500000Y-68190000D02*
X109500000Y-68800000D01*
X109500000Y-68800000D02*
X107550000Y-68800000D01*
X109900000Y-71800000D02*
X110100000Y-71800000D01*
X109900000Y-72300000D02*
X109900000Y-71800000D01*
X110000000Y-72300000D02*
X110000000Y-71800000D01*
X110100000Y-71800000D02*
X110100000Y-72300000D01*
X111900000Y-71800000D02*
X112100000Y-71800000D01*
X111900000Y-72300000D02*
X111900000Y-71800000D01*
X112000000Y-72300000D02*
X112000000Y-71800000D01*
X112100000Y-71800000D02*
X112100000Y-72300000D01*
X113900000Y-71800000D02*
X114100000Y-71800000D01*
X113900000Y-72300000D02*
X113900000Y-71800000D01*
X114000000Y-72300000D02*
X114000000Y-71800000D01*
X114100000Y-71800000D02*
X114100000Y-72300000D01*
X114500000Y-68800000D02*
X114500000Y-68190000D01*
X116450000Y-68800000D02*
X114500000Y-68800000D01*
X116450000Y-72300000D02*
X116450000Y-68800000D01*
X117060000Y-68190000D02*
X106940000Y-68190000D01*
X117060000Y-69500000D02*
X116450000Y-69500000D01*
X117060000Y-70800000D02*
X116450000Y-70800000D01*
X117060000Y-72910000D02*
X117060000Y-68190000D01*
%TO.C,J3*%
X106860000Y-66330000D02*
X106860000Y-65000000D01*
X108190000Y-66330000D02*
X106860000Y-66330000D01*
X109460000Y-66330000D02*
X117140000Y-66330000D01*
X109460000Y-66330000D02*
X109460000Y-63670000D01*
X117140000Y-66330000D02*
X117140000Y-63670000D01*
X109460000Y-63670000D02*
X117140000Y-63670000D01*
%TO.C,J2*%
X106860000Y-60330000D02*
X106860000Y-59000000D01*
X108190000Y-60330000D02*
X106860000Y-60330000D01*
X109460000Y-60330000D02*
X117140000Y-60330000D01*
X109460000Y-60330000D02*
X109460000Y-57670000D01*
X117140000Y-60330000D02*
X117140000Y-57670000D01*
X109460000Y-57670000D02*
X117140000Y-57670000D01*
%TO.C,J1*%
X117060000Y-55910000D02*
X117060000Y-51190000D01*
X117060000Y-53800000D02*
X116450000Y-53800000D01*
X117060000Y-52500000D02*
X116450000Y-52500000D01*
X117060000Y-51190000D02*
X106940000Y-51190000D01*
X116450000Y-55300000D02*
X116450000Y-51800000D01*
X116450000Y-51800000D02*
X114500000Y-51800000D01*
X114500000Y-51800000D02*
X114500000Y-51190000D01*
X114100000Y-54800000D02*
X114100000Y-55300000D01*
X114000000Y-55300000D02*
X114000000Y-54800000D01*
X113900000Y-55300000D02*
X113900000Y-54800000D01*
X113900000Y-54800000D02*
X114100000Y-54800000D01*
X112100000Y-54800000D02*
X112100000Y-55300000D01*
X112000000Y-55300000D02*
X112000000Y-54800000D01*
X111900000Y-55300000D02*
X111900000Y-54800000D01*
X111900000Y-54800000D02*
X112100000Y-54800000D01*
X110100000Y-54800000D02*
X110100000Y-55300000D01*
X110000000Y-55300000D02*
X110000000Y-54800000D01*
X109900000Y-55300000D02*
X109900000Y-54800000D01*
X109900000Y-54800000D02*
X110100000Y-54800000D01*
X109500000Y-51800000D02*
X107550000Y-51800000D01*
X109500000Y-51190000D02*
X109500000Y-51800000D01*
X108700000Y-51190000D02*
X108700000Y-50990000D01*
X108700000Y-51090000D02*
X108400000Y-51090000D01*
X108700000Y-50990000D02*
X108400000Y-50990000D01*
X108400000Y-50990000D02*
X108400000Y-51190000D01*
X107890000Y-50890000D02*
X106640000Y-50890000D01*
X107550000Y-55300000D02*
X116450000Y-55300000D01*
X107550000Y-51800000D02*
X107550000Y-55300000D01*
X106940000Y-55910000D02*
X117060000Y-55910000D01*
X106940000Y-53800000D02*
X107550000Y-53800000D01*
X106940000Y-52500000D02*
X107550000Y-52500000D01*
X106940000Y-51190000D02*
X106940000Y-55910000D01*
X106640000Y-50890000D02*
X106640000Y-52140000D01*
%TD*%
M02*
