%TF.GenerationSoftware,KiCad,Pcbnew,7.0.9*%
%TF.CreationDate,2024-04-28T18:27:12+01:00*%
%TF.ProjectId,Esp32EduModular,45737033-3245-4647-954d-6f64756c6172,rev?*%
%TF.SameCoordinates,Original*%
%TF.FileFunction,Soldermask,Bot*%
%TF.FilePolarity,Negative*%
%FSLAX46Y46*%
G04 Gerber Fmt 4.6, Leading zero omitted, Abs format (unit mm)*
G04 Created by KiCad (PCBNEW 7.0.9) date 2024-04-28 18:27:12*
%MOMM*%
%LPD*%
G01*
G04 APERTURE LIST*
G04 Aperture macros list*
%AMRoundRect*
0 Rectangle with rounded corners*
0 $1 Rounding radius*
0 $2 $3 $4 $5 $6 $7 $8 $9 X,Y pos of 4 corners*
0 Add a 4 corners polygon primitive as box body*
4,1,4,$2,$3,$4,$5,$6,$7,$8,$9,$2,$3,0*
0 Add four circle primitives for the rounded corners*
1,1,$1+$1,$2,$3*
1,1,$1+$1,$4,$5*
1,1,$1+$1,$6,$7*
1,1,$1+$1,$8,$9*
0 Add four rect primitives between the rounded corners*
20,1,$1+$1,$2,$3,$4,$5,0*
20,1,$1+$1,$4,$5,$6,$7,0*
20,1,$1+$1,$6,$7,$8,$9,0*
20,1,$1+$1,$8,$9,$2,$3,0*%
G04 Aperture macros list end*
%ADD10O,1.700000X1.700000*%
%ADD11R,1.700000X1.700000*%
%ADD12C,1.600000*%
%ADD13O,1.600000X1.600000*%
%ADD14R,1.500000X1.050000*%
%ADD15O,1.500000X1.050000*%
%ADD16R,1.800000X1.800000*%
%ADD17C,1.800000*%
%ADD18RoundRect,0.750000X0.750000X-1.250000X0.750000X1.250000X-0.750000X1.250000X-0.750000X-1.250000X0*%
%ADD19R,1.600000X1.600000*%
%ADD20C,2.700000*%
%ADD21R,1.500000X1.500000*%
%ADD22C,1.500000*%
%ADD23R,1.905000X2.000000*%
%ADD24O,1.905000X2.000000*%
G04 APERTURE END LIST*
D10*
%TO.C,J20*%
X104000000Y-84540000D03*
D11*
X104000000Y-82000000D03*
%TD*%
D10*
%TO.C,J19*%
X104000000Y-95540000D03*
D11*
X104000000Y-93000000D03*
%TD*%
%TO.C,J18*%
X146000000Y-136250000D03*
D10*
X146000000Y-138790000D03*
%TD*%
%TO.C,J17*%
X146000000Y-113790000D03*
D11*
X146000000Y-111250000D03*
%TD*%
%TO.C,J13*%
X65000000Y-105000000D03*
D10*
X65000000Y-107540000D03*
%TD*%
%TO.C,J10*%
X78640000Y-71500000D03*
D11*
X76100000Y-71500000D03*
%TD*%
D10*
%TO.C,J7*%
X65000000Y-141540000D03*
D11*
X65000000Y-139000000D03*
%TD*%
D10*
%TO.C,J6*%
X65000000Y-116540000D03*
D11*
X65000000Y-114000000D03*
%TD*%
D10*
%TO.C,J5*%
X138840000Y-71500000D03*
D11*
X136300000Y-71500000D03*
%TD*%
D10*
%TO.C,J4*%
X65000000Y-132540000D03*
D11*
X65000000Y-130000000D03*
%TD*%
D10*
%TO.C,J3*%
X63840000Y-71500000D03*
D11*
X61300000Y-71500000D03*
%TD*%
D12*
%TO.C,R36*%
X136690000Y-99314000D03*
D13*
X136690000Y-91694000D03*
%TD*%
D11*
%TO.C,J8*%
X76000000Y-147600000D03*
D10*
X78540000Y-147600000D03*
%TD*%
D12*
%TO.C,R13*%
X73500000Y-116000000D03*
D13*
X73500000Y-108380000D03*
%TD*%
D12*
%TO.C,C25*%
X97028000Y-68112000D03*
X97028000Y-73112000D03*
%TD*%
D14*
%TO.C,Q1*%
X79475000Y-131200000D03*
D15*
X79475000Y-132470000D03*
X79475000Y-133740000D03*
%TD*%
D12*
%TO.C,R7*%
X125222000Y-71500000D03*
D13*
X132842000Y-71500000D03*
%TD*%
D16*
%TO.C,RV1*%
X86400000Y-144500000D03*
D17*
X88900000Y-144500000D03*
X91400000Y-144500000D03*
D18*
X84500000Y-137500000D03*
X93300000Y-137500000D03*
%TD*%
D11*
%TO.C,J1*%
X140500000Y-97000000D03*
D10*
X140500000Y-94460000D03*
%TD*%
D12*
%TO.C,C26*%
X93528000Y-68112000D03*
X93528000Y-73112000D03*
%TD*%
%TO.C,C19*%
X114800000Y-85520000D03*
X114800000Y-80520000D03*
%TD*%
%TO.C,R19*%
X73500000Y-128110000D03*
D13*
X73500000Y-120490000D03*
%TD*%
D16*
%TO.C,RV14*%
X130510000Y-88470000D03*
D17*
X133010000Y-88470000D03*
X135510000Y-88470000D03*
D18*
X128610000Y-81470000D03*
X137410000Y-81470000D03*
%TD*%
D12*
%TO.C,C20*%
X114528000Y-68112000D03*
X114528000Y-73112000D03*
%TD*%
D19*
%TO.C,D12*%
X124968000Y-68326000D03*
D13*
X124968000Y-60706000D03*
%TD*%
D12*
%TO.C,R17*%
X70000000Y-128110000D03*
D13*
X70000000Y-120490000D03*
%TD*%
D12*
%TO.C,R12*%
X78486000Y-67056000D03*
D13*
X70866000Y-67056000D03*
%TD*%
D12*
%TO.C,R2*%
X52070000Y-70200000D03*
D13*
X52070000Y-77820000D03*
%TD*%
D12*
%TO.C,R37*%
X53442000Y-109220000D03*
D13*
X53442000Y-101600000D03*
%TD*%
D12*
%TO.C,C16*%
X93000000Y-86350000D03*
X88000000Y-86350000D03*
%TD*%
D16*
%TO.C,RV5*%
X86400000Y-119300000D03*
D17*
X88900000Y-119300000D03*
X91400000Y-119300000D03*
D18*
X84500000Y-112300000D03*
X93300000Y-112300000D03*
%TD*%
D12*
%TO.C,R11*%
X80500000Y-116000000D03*
D13*
X80500000Y-108380000D03*
%TD*%
D16*
%TO.C,RV9*%
X60000000Y-92000000D03*
D17*
X62500000Y-92000000D03*
X65000000Y-92000000D03*
D18*
X58100000Y-85000000D03*
X66900000Y-85000000D03*
%TD*%
D19*
%TO.C,D1*%
X143400000Y-130740000D03*
D13*
X143400000Y-123120000D03*
%TD*%
D12*
%TO.C,R23*%
X111980000Y-91200000D03*
D13*
X111980000Y-98820000D03*
%TD*%
D14*
%TO.C,Q2*%
X80300000Y-125110000D03*
D15*
X80300000Y-126380000D03*
X80300000Y-127650000D03*
%TD*%
D12*
%TO.C,R32*%
X107080000Y-61720000D03*
D13*
X114700000Y-61720000D03*
%TD*%
D12*
%TO.C,R1*%
X57658000Y-67056000D03*
D13*
X65278000Y-67056000D03*
%TD*%
D16*
%TO.C,RV6*%
X101400000Y-119300000D03*
D17*
X103900000Y-119300000D03*
X106400000Y-119300000D03*
D18*
X99500000Y-112300000D03*
X108300000Y-112300000D03*
%TD*%
D12*
%TO.C,R31*%
X107100000Y-58550000D03*
D13*
X114720000Y-58550000D03*
%TD*%
D12*
%TO.C,C18*%
X111028000Y-68112000D03*
X111028000Y-73112000D03*
%TD*%
%TO.C,R4*%
X60800000Y-124000000D03*
D13*
X60800000Y-116380000D03*
%TD*%
D12*
%TO.C,R34*%
X94000000Y-82000000D03*
D13*
X86380000Y-82000000D03*
%TD*%
D12*
%TO.C,R3*%
X146500000Y-123150000D03*
D13*
X146500000Y-130770000D03*
%TD*%
D12*
%TO.C,C17*%
X107528000Y-68112000D03*
X107528000Y-73112000D03*
%TD*%
D19*
%TO.C,U4*%
X117490000Y-80500000D03*
D13*
X117490000Y-83040000D03*
X117490000Y-85580000D03*
X117490000Y-88120000D03*
X125110000Y-88120000D03*
X125110000Y-85580000D03*
X125110000Y-83040000D03*
X125110000Y-80500000D03*
%TD*%
D19*
%TO.C,C13*%
X115126888Y-92660000D03*
D12*
X117626888Y-92660000D03*
%TD*%
D20*
%TO.C,MK1*%
X53000000Y-53000000D03*
%TD*%
D12*
%TO.C,R33*%
X107060000Y-64870000D03*
D13*
X114680000Y-64870000D03*
%TD*%
D12*
%TO.C,C22*%
X104028000Y-68112000D03*
X104028000Y-73112000D03*
%TD*%
%TO.C,R25*%
X111800000Y-81290000D03*
D13*
X111800000Y-88910000D03*
%TD*%
D16*
%TO.C,RV10*%
X75000000Y-92000000D03*
D17*
X77500000Y-92000000D03*
X80000000Y-92000000D03*
D18*
X73100000Y-85000000D03*
X81900000Y-85000000D03*
%TD*%
D11*
%TO.C,J21*%
X146000000Y-97000000D03*
D10*
X146000000Y-94460000D03*
%TD*%
D19*
%TO.C,C23*%
X130780000Y-92770000D03*
D12*
X133280000Y-92770000D03*
%TD*%
D11*
%TO.C,J11*%
X146000000Y-120000000D03*
D10*
X146000000Y-117460000D03*
%TD*%
D14*
%TO.C,Q4*%
X64664000Y-123698000D03*
D15*
X64664000Y-124968000D03*
X64664000Y-126238000D03*
%TD*%
D16*
%TO.C,RV11*%
X75000000Y-64000000D03*
D17*
X77500000Y-64000000D03*
X80000000Y-64000000D03*
D18*
X73100000Y-57000000D03*
X81900000Y-57000000D03*
%TD*%
D12*
%TO.C,R20*%
X77000000Y-116000000D03*
D13*
X77000000Y-108380000D03*
%TD*%
D12*
%TO.C,R35*%
X94000000Y-97000000D03*
D13*
X86380000Y-97000000D03*
%TD*%
D19*
%TO.C,D13*%
X87200000Y-65000000D03*
D13*
X87200000Y-72620000D03*
%TD*%
D12*
%TO.C,R21*%
X65290000Y-95090000D03*
D13*
X57670000Y-95090000D03*
%TD*%
D20*
%TO.C,MK4*%
X147000000Y-147000000D03*
%TD*%
D11*
%TO.C,J12*%
X142000000Y-78000000D03*
D10*
X144540000Y-78000000D03*
%TD*%
D12*
%TO.C,R26*%
X93000000Y-52300000D03*
D13*
X85380000Y-52300000D03*
%TD*%
D12*
%TO.C,R9*%
X125720000Y-129510000D03*
D13*
X125720000Y-121890000D03*
%TD*%
D11*
%TO.C,J2*%
X69250000Y-143675000D03*
D10*
X69250000Y-146215000D03*
%TD*%
D11*
%TO.C,J15*%
X142000000Y-82000000D03*
D10*
X144540000Y-82000000D03*
%TD*%
D16*
%TO.C,RV12*%
X135000000Y-64000000D03*
D17*
X137500000Y-64000000D03*
X140000000Y-64000000D03*
D18*
X133100000Y-57000000D03*
X141900000Y-57000000D03*
%TD*%
D12*
%TO.C,R24*%
X108660000Y-88900000D03*
D13*
X108660000Y-81280000D03*
%TD*%
D12*
%TO.C,C21*%
X118028000Y-68112000D03*
X118028000Y-73112000D03*
%TD*%
%TO.C,C5*%
X82042000Y-71250000D03*
X82042000Y-66250000D03*
%TD*%
D11*
%TO.C,J9*%
X76000000Y-142000000D03*
D10*
X78540000Y-142000000D03*
%TD*%
D16*
%TO.C,RV2*%
X101400000Y-144500000D03*
D17*
X103900000Y-144500000D03*
X106400000Y-144500000D03*
D18*
X99500000Y-137500000D03*
X108300000Y-137500000D03*
%TD*%
D12*
%TO.C,C14*%
X93000000Y-90000000D03*
X88000000Y-90000000D03*
%TD*%
%TO.C,C24*%
X100528000Y-68112000D03*
X100528000Y-73112000D03*
%TD*%
%TO.C,R8*%
X76000000Y-137150000D03*
D13*
X68380000Y-137150000D03*
%TD*%
D19*
%TO.C,D5*%
X76800000Y-128110000D03*
D13*
X76800000Y-120490000D03*
%TD*%
D12*
%TO.C,R27*%
X93000000Y-55500000D03*
D13*
X85380000Y-55500000D03*
%TD*%
D19*
%TO.C,D14*%
X90000000Y-72600000D03*
D13*
X90000000Y-64980000D03*
%TD*%
D20*
%TO.C,MK3*%
X53000000Y-147000000D03*
%TD*%
D19*
%TO.C,C10*%
X57000000Y-130500000D03*
D12*
X53500000Y-130500000D03*
%TD*%
D19*
%TO.C,C15*%
X124824888Y-92880000D03*
D12*
X127324888Y-92880000D03*
%TD*%
D21*
%TO.C,Q3*%
X121052000Y-96266000D03*
D22*
X121052000Y-98806000D03*
X121052000Y-101346000D03*
%TD*%
D12*
%TO.C,R15*%
X68072000Y-73914000D03*
D13*
X68072000Y-66294000D03*
%TD*%
D19*
%TO.C,D8*%
X56642000Y-109220000D03*
D13*
X56642000Y-101600000D03*
%TD*%
D16*
%TO.C,RV8*%
X131400000Y-119300000D03*
D17*
X133900000Y-119300000D03*
X136400000Y-119300000D03*
D18*
X129500000Y-112300000D03*
X138300000Y-112300000D03*
%TD*%
D16*
%TO.C,RV4*%
X131400000Y-144500000D03*
D17*
X133900000Y-144500000D03*
X136400000Y-144500000D03*
D18*
X129500000Y-137500000D03*
X138300000Y-137500000D03*
%TD*%
D12*
%TO.C,R5*%
X138380000Y-67800000D03*
D13*
X146000000Y-67800000D03*
%TD*%
D19*
%TO.C,D7*%
X57700000Y-124000000D03*
D13*
X57700000Y-116380000D03*
%TD*%
D12*
%TO.C,R30*%
X107100000Y-55400000D03*
D13*
X114720000Y-55400000D03*
%TD*%
D12*
%TO.C,R29*%
X93000000Y-61900000D03*
D13*
X85380000Y-61900000D03*
%TD*%
D16*
%TO.C,RV7*%
X116400000Y-119300000D03*
D17*
X118900000Y-119300000D03*
X121400000Y-119300000D03*
D18*
X114500000Y-112300000D03*
X123300000Y-112300000D03*
%TD*%
D20*
%TO.C,MK2*%
X147000000Y-53000000D03*
%TD*%
D11*
%TO.C,J25*%
X96000000Y-86350000D03*
D10*
X96000000Y-88890000D03*
%TD*%
D15*
%TO.C,Q5*%
X60812000Y-106172000D03*
X60812000Y-107442000D03*
D14*
X60812000Y-108712000D03*
%TD*%
D16*
%TO.C,D6*%
X54000000Y-94750000D03*
D17*
X54000000Y-97290000D03*
%TD*%
D11*
%TO.C,J23*%
X96500000Y-147600000D03*
D10*
X93960000Y-147600000D03*
X91420000Y-147600000D03*
X88880000Y-147600000D03*
X86340000Y-147600000D03*
%TD*%
D19*
%TO.C,C6*%
X57000000Y-139500000D03*
D12*
X53500000Y-139500000D03*
%TD*%
D16*
%TO.C,RV13*%
X60000000Y-64000000D03*
D17*
X62500000Y-64000000D03*
X65000000Y-64000000D03*
D18*
X58100000Y-57000000D03*
X66900000Y-57000000D03*
%TD*%
D12*
%TO.C,C2*%
X55372000Y-70104000D03*
X55372000Y-75104000D03*
%TD*%
D19*
%TO.C,D10*%
X51625000Y-67740000D03*
D13*
X51625000Y-60120000D03*
%TD*%
D12*
%TO.C,R22*%
X108680000Y-98840000D03*
D13*
X108680000Y-91220000D03*
%TD*%
D19*
%TO.C,D2*%
X76070000Y-130925000D03*
D13*
X68450000Y-130925000D03*
%TD*%
D12*
%TO.C,R38*%
X70000000Y-116000000D03*
D13*
X70000000Y-108380000D03*
%TD*%
D12*
%TO.C,R10*%
X76060000Y-133850000D03*
D13*
X68440000Y-133850000D03*
%TD*%
D12*
%TO.C,C4*%
X135500000Y-67800000D03*
X130500000Y-67800000D03*
%TD*%
D19*
%TO.C,D9*%
X54225000Y-60090000D03*
D13*
X54225000Y-67710000D03*
%TD*%
D12*
%TO.C,C3*%
X129220000Y-124010000D03*
X129220000Y-129010000D03*
%TD*%
%TO.C,C11*%
X61350000Y-135425000D03*
X61350000Y-130425000D03*
%TD*%
D11*
%TO.C,J16*%
X142000000Y-88000000D03*
D10*
X144540000Y-88000000D03*
%TD*%
D11*
%TO.C,J22*%
X96000000Y-57000000D03*
D10*
X96000000Y-59540000D03*
X96000000Y-62080000D03*
X96000000Y-64620000D03*
%TD*%
D19*
%TO.C,U2*%
X140130000Y-128400000D03*
D13*
X140130000Y-125860000D03*
X140130000Y-123320000D03*
X132510000Y-123320000D03*
X132510000Y-125860000D03*
X132510000Y-128400000D03*
%TD*%
D19*
%TO.C,D11*%
X127762000Y-60706000D03*
D13*
X127762000Y-68326000D03*
%TD*%
D16*
%TO.C,RV3*%
X116400000Y-144500000D03*
D17*
X118900000Y-144500000D03*
X121400000Y-144500000D03*
D18*
X114500000Y-137500000D03*
X123300000Y-137500000D03*
%TD*%
D12*
%TO.C,C1*%
X117640000Y-127920000D03*
X117640000Y-122920000D03*
%TD*%
%TO.C,R14*%
X53594000Y-112014000D03*
D13*
X61214000Y-112014000D03*
%TD*%
D12*
%TO.C,R6*%
X54500000Y-124000000D03*
D13*
X54500000Y-116380000D03*
%TD*%
D12*
%TO.C,R28*%
X93000000Y-58700000D03*
D13*
X85380000Y-58700000D03*
%TD*%
D19*
%TO.C,U1*%
X114340000Y-122050000D03*
D13*
X111800000Y-122050000D03*
X109260000Y-122050000D03*
X106720000Y-122050000D03*
X104180000Y-122050000D03*
X101640000Y-122050000D03*
X99100000Y-122050000D03*
X96560000Y-122050000D03*
X94020000Y-122050000D03*
X91480000Y-122050000D03*
X88940000Y-122050000D03*
X86400000Y-122050000D03*
X86400000Y-129670000D03*
X88940000Y-129670000D03*
X91480000Y-129670000D03*
X94020000Y-129670000D03*
X96560000Y-129670000D03*
X99100000Y-129670000D03*
X101640000Y-129670000D03*
X104180000Y-129670000D03*
X106720000Y-129670000D03*
X109260000Y-129670000D03*
X111800000Y-129670000D03*
X114340000Y-129670000D03*
%TD*%
D11*
%TO.C,J24*%
X104000000Y-57000000D03*
D10*
X104000000Y-59540000D03*
X104000000Y-62080000D03*
X104000000Y-64620000D03*
%TD*%
D11*
%TO.C,J26*%
X95280000Y-76360000D03*
D10*
X92740000Y-76360000D03*
X90200000Y-76360000D03*
X87660000Y-76360000D03*
X85120000Y-76360000D03*
X82580000Y-76360000D03*
X80040000Y-76360000D03*
X77500000Y-76360000D03*
X74960000Y-76360000D03*
X72420000Y-76360000D03*
X69880000Y-76360000D03*
X67340000Y-76360000D03*
X64800000Y-76360000D03*
X62260000Y-76360000D03*
X59720000Y-76360000D03*
%TD*%
D23*
%TO.C,U6*%
X59085000Y-146255000D03*
D24*
X61625000Y-146255000D03*
X64165000Y-146255000D03*
%TD*%
D11*
%TO.C,J14*%
X95280000Y-101760000D03*
D10*
X92740000Y-101760000D03*
X90200000Y-101760000D03*
X87660000Y-101760000D03*
X85120000Y-101760000D03*
X82580000Y-101760000D03*
X80040000Y-101760000D03*
X77500000Y-101760000D03*
X74960000Y-101760000D03*
X72420000Y-101760000D03*
X69880000Y-101760000D03*
X67340000Y-101760000D03*
X64800000Y-101760000D03*
X62260000Y-101760000D03*
X59720000Y-101760000D03*
%TD*%
M02*
