M48
; DRILL file {KiCad 7.0.9} date Sun Apr 28 18:27:14 2024
; FORMAT={-:-/ absolute / inch / decimal}
; #@! TF.CreationDate,2024-04-28T18:27:14+01:00
; #@! TF.GenerationSoftware,Kicad,Pcbnew,7.0.9
; #@! TF.FileFunction,MixedPlating,1,2
FMAT,2
INCH
; #@! TA.AperFunction,Plated,PTH,ViaDrill
T1C0.0157
; #@! TA.AperFunction,Plated,PTH,ComponentDrill
T2C0.0295
; #@! TA.AperFunction,Plated,PTH,ComponentDrill
T3C0.0315
; #@! TA.AperFunction,Plated,PTH,ComponentDrill
T4C0.0354
; #@! TA.AperFunction,Plated,PTH,ComponentDrill
T5C0.0394
; #@! TA.AperFunction,Plated,PTH,ComponentDrill
T6C0.0433
; #@! TA.AperFunction,Plated,PTH,ComponentDrill
T7C0.0709
; #@! TA.AperFunction,NonPlated,NPTH,ComponentDrill
T8C0.1063
%
G90
G05
T1
X2.0Y-3.28
X2.01Y-3.57
X2.0236Y-5.3142
X2.14Y-4.78
X2.1472Y-3.9232
X2.1535Y-3.626
X2.2472Y-5.8469
X2.2642Y-4.9929
X2.3008Y-5.3067
X2.3154Y-2.0067
X2.41Y-2.72
X2.415Y-4.9886
X2.48Y-5.53
X2.563Y-3.189
X2.66Y-4.27
X2.6878Y-2.0067
X2.75Y-4.16
X2.8Y-2.9
X2.8264Y-4.4488
X2.8571Y-5.5917
X2.8602Y-5.8394
X2.89Y-5.14
X2.9622Y-4.4488
X2.963Y-2.9016
X2.9752Y-2.3031
X3.0055Y-3.4315
X3.0465Y-3.189
X3.0642Y-3.7713
X3.0748Y-2.011
X3.0953Y-2.3031
X3.1008Y-4.4488
X3.2654Y-3.8213
X3.2835Y-4.6142
X3.302Y-5.1969
X3.3634Y-4.1929
X3.474Y-5.1969
X3.4823Y-4.9606
X3.4843Y-3.8583
X3.5114Y-2.0591
X3.5461Y-4.1917
X3.5654Y-3.6413
X3.5827Y-5.5512
X3.7Y-4.87
X3.7Y-4.97
X3.7028Y-5.5512
X3.7087Y-4.1173
X3.77Y-3.62
X3.7909Y-5.1969
X3.8197Y-3.8185
X3.86Y-4.87
X3.8602Y-5.5512
X3.878Y-4.1173
X3.878Y-4.2697
X3.8953Y-5.8642
X3.8996Y-3.189
X4.0Y-3.37
X4.002Y-3.9039
X4.0157Y-2.0551
X4.0169Y-5.5512
X4.0445Y-5.1969
X4.06Y-4.88
X4.0933Y-2.9843
X4.1547Y-2.6142
X4.1571Y-4.2815
X4.16Y-3.52
X4.1661Y-5.2878
X4.2362Y-2.9843
X4.2591Y-5.1921
X4.26Y-4.04
X4.2827Y-5.8665
X4.2846Y-5.6862
X4.35Y-4.6181
X4.35Y-4.88
X4.3728Y-2.9843
X4.4016Y-4.0728
X4.4217Y-2.4248
X4.4614Y-4.6181
X4.4661Y-2.0579
X4.4665Y-4.2858
X4.47Y-3.98
X4.6468Y-2.78
X4.6839Y-4.5051
X4.7224Y-4.6181
X4.7268Y-4.8248
X4.8508Y-2.552
X4.8524Y-2.7575
X4.88Y-3.99
X4.88Y-4.12
X4.8819Y-4.6772
X4.8819Y-4.8709
X4.8874Y-5.6929
X4.8917Y-5.8709
X4.9177Y-2.061
X4.92Y-3.09
X5.2Y-4.12
X5.2059Y-3.9252
X5.21Y-3.27
X5.2335Y-4.5051
X5.2382Y-4.2827
X5.27Y-3.07
X5.3228Y-2.035
X5.5449Y-5.8665
X5.5528Y-2.6705
X5.5594Y-2.0343
X5.5693Y-4.2843
X5.58Y-2.88
X5.6689Y-3.9189
X5.7055Y-2.5346
X5.7787Y-2.9024
X5.8043Y-5.2386
X5.8075Y-4.9248
X5.8299Y-4.0268
X5.83Y-4.463
X5.8575Y-5.3827
X5.8594Y-5.6354
T2
X2.3942Y-4.18
X2.3942Y-4.23
X2.3942Y-4.28
X2.5458Y-4.87
X2.5458Y-4.92
X2.5458Y-4.97
X3.1289Y-5.1654
X3.1289Y-5.2154
X3.1289Y-5.2654
X3.1614Y-4.9256
X3.1614Y-4.9756
X3.1614Y-5.0256
T3
X2.0325Y-2.3669
X2.0325Y-2.6669
X2.05Y-2.7638
X2.05Y-3.0638
X2.104Y-4.0
X2.104Y-4.3
X2.1063Y-5.1378
X2.1063Y-5.4921
X2.11Y-4.41
X2.1348Y-2.3657
X2.1348Y-2.6657
X2.1457Y-4.5819
X2.1457Y-4.8819
X2.18Y-2.76
X2.18Y-2.9569
X2.23Y-4.0
X2.23Y-4.3
X2.2441Y-5.1378
X2.2441Y-5.4921
X2.27Y-2.64
X2.2705Y-3.7437
X2.2717Y-4.5819
X2.2717Y-4.8819
X2.3937Y-4.5819
X2.3937Y-4.8819
X2.41Y-4.41
X2.4154Y-5.1348
X2.4154Y-5.3317
X2.57Y-2.64
X2.5705Y-3.7437
X2.68Y-2.61
X2.68Y-2.91
X2.6921Y-5.3996
X2.6945Y-5.2697
X2.6949Y-5.1545
X2.7559Y-4.2669
X2.7559Y-4.5669
X2.7559Y-4.7437
X2.7559Y-5.0437
X2.79Y-2.64
X2.8937Y-4.2669
X2.8937Y-4.5669
X2.8937Y-4.7437
X2.8937Y-5.0437
X2.9921Y-5.3996
X2.9945Y-5.2697
X2.9949Y-5.1545
X3.0236Y-4.7437
X3.0236Y-5.0437
X3.0315Y-4.2669
X3.0315Y-4.5669
X3.09Y-2.64
X3.1693Y-4.2669
X3.1693Y-4.5669
X3.23Y-2.6083
X3.23Y-2.8051
X3.3614Y-2.0591
X3.3614Y-2.185
X3.3614Y-2.311
X3.3614Y-2.437
X3.4008Y-3.2283
X3.4008Y-3.8189
X3.4016Y-4.8051
X3.4016Y-5.1051
X3.4331Y-2.5591
X3.4331Y-2.8591
X3.4646Y-3.3996
X3.4646Y-3.5433
X3.5016Y-4.8051
X3.5016Y-5.1051
X3.5433Y-2.5583
X3.5433Y-2.8583
X3.6016Y-4.8051
X3.6016Y-5.1051
X3.6614Y-2.0591
X3.6614Y-2.185
X3.6614Y-2.311
X3.6614Y-2.437
X3.6614Y-3.3996
X3.6614Y-3.5433
X3.6822Y-2.6816
X3.6822Y-2.8784
X3.7008Y-3.2283
X3.7008Y-3.8189
X3.7016Y-4.8051
X3.7016Y-5.1051
X3.8016Y-4.8051
X3.8016Y-5.1051
X3.82Y-2.6816
X3.82Y-2.8784
X3.9016Y-4.8051
X3.9016Y-5.1051
X3.9578Y-2.6816
X3.9578Y-2.8784
X4.0016Y-4.8051
X4.0016Y-5.1051
X4.0956Y-2.6816
X4.0956Y-2.8784
X4.1016Y-4.8051
X4.1016Y-5.1051
X4.2016Y-4.8051
X4.2016Y-5.1051
X4.215Y-2.5539
X4.2157Y-2.4299
X4.2165Y-2.1811
X4.2165Y-2.3051
X4.2334Y-2.6816
X4.2334Y-2.8784
X4.278Y-3.2
X4.278Y-3.5
X4.2787Y-3.5913
X4.2787Y-3.8913
X4.3016Y-4.8051
X4.3016Y-5.1051
X4.3712Y-2.6816
X4.3712Y-2.8784
X4.4016Y-3.2004
X4.4016Y-3.5004
X4.4016Y-4.8051
X4.4016Y-5.1051
X4.4087Y-3.5906
X4.4087Y-3.8906
X4.5016Y-4.8051
X4.5016Y-5.1051
X4.509Y-2.6816
X4.509Y-2.8784
X4.515Y-2.5539
X4.5157Y-2.4299
X4.5165Y-2.1811
X4.5165Y-2.3051
X4.5197Y-3.1701
X4.5197Y-3.3669
X4.5326Y-3.648
X4.6256Y-3.1693
X4.6256Y-3.2693
X4.6256Y-3.3693
X4.6256Y-3.4693
X4.631Y-3.648
X4.6315Y-4.8394
X4.6315Y-5.0362
X4.6468Y-2.6816
X4.6468Y-2.8784
X4.7658Y-3.79
X4.7658Y-3.89
X4.7658Y-3.99
X4.9144Y-3.6567
X4.92Y-2.39
X4.92Y-2.69
X4.9256Y-3.1693
X4.9256Y-3.2693
X4.9256Y-3.3693
X4.9256Y-3.4693
X4.93Y-2.815
X4.9496Y-4.7988
X4.9496Y-5.0988
X5.0128Y-3.6567
X5.03Y-2.39
X5.03Y-2.69
X5.0874Y-4.8823
X5.0874Y-5.0791
X5.1378Y-2.6693
X5.1488Y-3.6524
X5.2169Y-4.8551
X5.2169Y-4.9551
X5.2169Y-5.0551
X5.23Y-2.815
X5.2472Y-3.6524
X5.3346Y-2.6693
X5.3815Y-3.61
X5.3815Y-3.91
X5.448Y-2.6693
X5.5169Y-4.8551
X5.5169Y-4.9551
X5.5169Y-5.0551
X5.6457Y-4.8472
X5.6457Y-5.1472
X5.748Y-2.6693
X5.7677Y-4.8484
X5.7677Y-5.1484
T4
X2.126Y-3.7303
X2.126Y-3.8303
T5
X2.3512Y-3.0063
X2.3512Y-4.0063
X2.3622Y-2.5197
X2.3622Y-3.622
X2.4134Y-2.815
X2.4512Y-3.0063
X2.4512Y-4.0063
X2.4606Y-2.5197
X2.4606Y-3.622
X2.5134Y-2.815
X2.5512Y-3.0063
X2.5512Y-4.0063
X2.5591Y-2.5197
X2.5591Y-3.622
X2.5591Y-4.1339
X2.5591Y-4.2339
X2.5591Y-4.4882
X2.5591Y-4.5882
X2.5591Y-5.1181
X2.5591Y-5.2181
X2.5591Y-5.4724
X2.5591Y-5.5724
X2.6512Y-3.0063
X2.6512Y-4.0063
X2.7264Y-5.6565
X2.7264Y-5.7565
X2.7512Y-3.0063
X2.7512Y-4.0063
X2.8512Y-3.0063
X2.8512Y-4.0063
X2.9512Y-3.0063
X2.9512Y-4.0063
X2.9528Y-2.5197
X2.9528Y-3.622
X2.9921Y-5.5906
X2.9921Y-5.811
X2.9961Y-2.815
X3.0512Y-2.5197
X3.0512Y-3.0063
X3.0512Y-3.622
X3.0512Y-4.0063
X3.0921Y-5.5906
X3.0921Y-5.811
X3.0961Y-2.815
X3.1496Y-2.5197
X3.1496Y-3.622
X3.1512Y-3.0063
X3.1512Y-4.0063
X3.2512Y-3.0063
X3.2512Y-4.0063
X3.3512Y-3.0063
X3.3512Y-4.0063
X3.3992Y-5.811
X3.4016Y-4.6969
X3.4016Y-5.689
X3.4512Y-3.0063
X3.4512Y-4.0063
X3.4992Y-5.811
X3.5Y-4.6969
X3.5Y-5.689
X3.5512Y-3.0063
X3.5512Y-4.0063
X3.5984Y-4.6969
X3.5984Y-5.689
X3.5992Y-5.811
X3.6512Y-3.0063
X3.6512Y-4.0063
X3.6992Y-5.811
X3.7512Y-3.0063
X3.7512Y-4.0063
X3.7795Y-2.2441
X3.7795Y-2.3441
X3.7795Y-2.4441
X3.7795Y-2.5441
X3.7795Y-3.3996
X3.7795Y-3.4996
X3.7992Y-5.811
X3.9921Y-4.6969
X3.9921Y-5.689
X4.0906Y-4.6969
X4.0906Y-5.689
X4.0945Y-2.2441
X4.0945Y-2.3441
X4.0945Y-2.4441
X4.0945Y-2.5441
X4.0945Y-3.2283
X4.0945Y-3.3283
X4.0945Y-3.6614
X4.0945Y-3.7614
X4.189Y-4.6969
X4.189Y-5.689
X4.5827Y-4.6969
X4.5827Y-5.689
X4.6811Y-4.6969
X4.6811Y-5.689
X4.7795Y-4.6969
X4.7795Y-5.689
X5.1382Y-3.4831
X5.1732Y-4.6969
X5.1732Y-5.689
X5.2366Y-3.4831
X5.2717Y-4.6969
X5.2717Y-5.689
X5.315Y-2.5197
X5.335Y-3.4831
X5.3661Y-2.815
X5.3701Y-4.6969
X5.3701Y-5.689
X5.4134Y-2.5197
X5.4661Y-2.815
X5.5118Y-2.5197
X5.5315Y-3.7189
X5.5315Y-3.8189
X5.5906Y-3.0709
X5.5906Y-3.2283
X5.5906Y-3.4646
X5.6906Y-3.0709
X5.6906Y-3.2283
X5.6906Y-3.4646
X5.748Y-3.7189
X5.748Y-3.8189
X5.748Y-4.3799
X5.748Y-4.4799
X5.748Y-4.6244
X5.748Y-4.7244
X5.748Y-5.3642
X5.748Y-5.4642
T6
X2.3262Y-5.7581
X2.4262Y-5.7581
X2.5262Y-5.7581
T8
X2.0866Y-2.0866
X2.0866Y-5.7874
X5.7874Y-2.0866
X5.7874Y-5.7874
T7
G00X2.2874Y-2.25
M15
G01X2.2874Y-2.2382
M16
G05
G00X2.2874Y-3.3524
M15
G01X2.2874Y-3.3406
M16
G05
G00X2.6339Y-2.25
M15
G01X2.6339Y-2.2382
M16
G05
G00X2.6339Y-3.3524
M15
G01X2.6339Y-3.3406
M16
G05
G00X2.878Y-2.25
M15
G01X2.878Y-2.2382
M16
G05
G00X2.878Y-3.3524
M15
G01X2.878Y-3.3406
M16
G05
G00X3.2244Y-2.25
M15
G01X3.2244Y-2.2382
M16
G05
G00X3.2244Y-3.3524
M15
G01X3.2244Y-3.3406
M16
G05
G00X3.3268Y-4.4272
M15
G01X3.3268Y-4.4154
M16
G05
G00X3.3268Y-5.4193
M15
G01X3.3268Y-5.4075
M16
G05
G00X3.6732Y-4.4272
M15
G01X3.6732Y-4.4154
M16
G05
G00X3.6732Y-5.4193
M15
G01X3.6732Y-5.4075
M16
G05
G00X3.9173Y-4.4272
M15
G01X3.9173Y-4.4154
M16
G05
G00X3.9173Y-5.4193
M15
G01X3.9173Y-5.4075
M16
G05
G00X4.2638Y-4.4272
M15
G01X4.2638Y-4.4154
M16
G05
G00X4.2638Y-5.4193
M15
G01X4.2638Y-5.4075
M16
G05
G00X4.5079Y-4.4272
M15
G01X4.5079Y-4.4154
M16
G05
G00X4.5079Y-5.4193
M15
G01X4.5079Y-5.4075
M16
G05
G00X4.8543Y-4.4272
M15
G01X4.8543Y-4.4154
M16
G05
G00X4.8543Y-5.4193
M15
G01X4.8543Y-5.4075
M16
G05
G00X5.0634Y-3.2134
M15
G01X5.0634Y-3.2016
M16
G05
G00X5.0984Y-4.4272
M15
G01X5.0984Y-4.4154
M16
G05
G00X5.0984Y-5.4193
M15
G01X5.0984Y-5.4075
M16
G05
G00X5.2402Y-2.25
M15
G01X5.2402Y-2.2382
M16
G05
G00X5.4098Y-3.2134
M15
G01X5.4098Y-3.2016
M16
G05
G00X5.4449Y-4.4272
M15
G01X5.4449Y-4.4154
M16
G05
G00X5.4449Y-5.4193
M15
G01X5.4449Y-5.4075
M16
G05
G00X5.5866Y-2.25
M15
G01X5.5866Y-2.2382
M16
G05
T0
M30
