%TF.GenerationSoftware,KiCad,Pcbnew,7.0.9*%
%TF.CreationDate,2024-04-28T18:27:12+01:00*%
%TF.ProjectId,Esp32EduModular,45737033-3245-4647-954d-6f64756c6172,rev?*%
%TF.SameCoordinates,Original*%
%TF.FileFunction,Legend,Bot*%
%TF.FilePolarity,Positive*%
%FSLAX46Y46*%
G04 Gerber Fmt 4.6, Leading zero omitted, Abs format (unit mm)*
G04 Created by KiCad (PCBNEW 7.0.9) date 2024-04-28 18:27:12*
%MOMM*%
%LPD*%
G01*
G04 APERTURE LIST*
%ADD10C,0.150000*%
%ADD11C,0.200000*%
%ADD12C,0.120000*%
G04 APERTURE END LIST*
D10*
X72760000Y-138940000D02*
X81510000Y-138940000D01*
X81510000Y-149220000D01*
X72760000Y-149220000D01*
X72760000Y-138940000D01*
X140690000Y-80660000D02*
X145900000Y-80660000D01*
X145900000Y-83370000D01*
X140690000Y-83370000D01*
X140690000Y-80660000D01*
X51000000Y-85000000D02*
X56000000Y-85000000D01*
X56000000Y-93000000D01*
X51000000Y-93000000D01*
X51000000Y-85000000D01*
X144590000Y-116095000D02*
X147300000Y-116095000D01*
X147300000Y-121305000D01*
X144590000Y-121305000D01*
X144590000Y-116095000D01*
X139100000Y-93115000D02*
X141810000Y-93115000D01*
X141810000Y-98325000D01*
X139100000Y-98325000D01*
X139100000Y-93115000D01*
X144640000Y-93135000D02*
X147350000Y-93135000D01*
X147350000Y-98345000D01*
X144640000Y-98345000D01*
X144640000Y-93135000D01*
X138445000Y-91480000D02*
X149525000Y-91480000D01*
X149525000Y-99970000D01*
X138445000Y-99970000D01*
X138445000Y-91480000D01*
X74655000Y-146240000D02*
X79865000Y-146240000D01*
X79865000Y-148950000D01*
X74655000Y-148950000D01*
X74655000Y-146240000D01*
X85005000Y-146280000D02*
X97755000Y-146280000D01*
X97755000Y-148990000D01*
X85005000Y-148990000D01*
X85005000Y-146280000D01*
X67920000Y-142320000D02*
X70630000Y-142320000D01*
X70630000Y-147530000D01*
X67920000Y-147530000D01*
X67920000Y-142320000D01*
X140660000Y-86660000D02*
X145870000Y-86660000D01*
X145870000Y-89370000D01*
X140660000Y-89370000D01*
X140660000Y-86660000D01*
X74625000Y-140650000D02*
X79835000Y-140650000D01*
X79835000Y-143360000D01*
X74625000Y-143360000D01*
X74625000Y-140650000D01*
X139812498Y-75915000D02*
X148307499Y-75915000D01*
X148307499Y-90160000D01*
X139812498Y-90160000D01*
X139812498Y-75915000D01*
X140690000Y-76640000D02*
X145900000Y-76640000D01*
X145900000Y-79350000D01*
X140690000Y-79350000D01*
X140690000Y-76640000D01*
D11*
X148419523Y-119845552D02*
X148419523Y-120512219D01*
X148657618Y-119464600D02*
X148895713Y-120178885D01*
X148895713Y-120178885D02*
X148276666Y-120178885D01*
D10*
X143479819Y-92865714D02*
X143479819Y-92389524D01*
X143479819Y-92389524D02*
X142479819Y-92389524D01*
X143479819Y-93199048D02*
X142479819Y-93199048D01*
X143479819Y-93675238D02*
X142479819Y-93675238D01*
X142479819Y-93675238D02*
X143479819Y-94246666D01*
X143479819Y-94246666D02*
X142479819Y-94246666D01*
X142956009Y-94722857D02*
X142956009Y-95056190D01*
X143479819Y-95199047D02*
X143479819Y-94722857D01*
X143479819Y-94722857D02*
X142479819Y-94722857D01*
X142479819Y-94722857D02*
X142479819Y-95199047D01*
X142479819Y-96580000D02*
X142479819Y-96770476D01*
X142479819Y-96770476D02*
X142527438Y-96865714D01*
X142527438Y-96865714D02*
X142622676Y-96960952D01*
X142622676Y-96960952D02*
X142813152Y-97008571D01*
X142813152Y-97008571D02*
X143146485Y-97008571D01*
X143146485Y-97008571D02*
X143336961Y-96960952D01*
X143336961Y-96960952D02*
X143432200Y-96865714D01*
X143432200Y-96865714D02*
X143479819Y-96770476D01*
X143479819Y-96770476D02*
X143479819Y-96580000D01*
X143479819Y-96580000D02*
X143432200Y-96484762D01*
X143432200Y-96484762D02*
X143336961Y-96389524D01*
X143336961Y-96389524D02*
X143146485Y-96341905D01*
X143146485Y-96341905D02*
X142813152Y-96341905D01*
X142813152Y-96341905D02*
X142622676Y-96389524D01*
X142622676Y-96389524D02*
X142527438Y-96484762D01*
X142527438Y-96484762D02*
X142479819Y-96580000D01*
X142479819Y-97437143D02*
X143289342Y-97437143D01*
X143289342Y-97437143D02*
X143384580Y-97484762D01*
X143384580Y-97484762D02*
X143432200Y-97532381D01*
X143432200Y-97532381D02*
X143479819Y-97627619D01*
X143479819Y-97627619D02*
X143479819Y-97818095D01*
X143479819Y-97818095D02*
X143432200Y-97913333D01*
X143432200Y-97913333D02*
X143384580Y-97960952D01*
X143384580Y-97960952D02*
X143289342Y-98008571D01*
X143289342Y-98008571D02*
X142479819Y-98008571D01*
X142479819Y-98341905D02*
X142479819Y-98913333D01*
X143479819Y-98627619D02*
X142479819Y-98627619D01*
D11*
X140129048Y-91973733D02*
X140890953Y-91973733D01*
X73930951Y-147676266D02*
X73169047Y-147676266D01*
X73549999Y-148057219D02*
X73549999Y-147295314D01*
X146572742Y-87798720D02*
X146572742Y-87227292D01*
X146572742Y-87227292D02*
X147144171Y-87170149D01*
X147144171Y-87170149D02*
X147087028Y-87227292D01*
X147087028Y-87227292D02*
X147029885Y-87341578D01*
X147029885Y-87341578D02*
X147029885Y-87627292D01*
X147029885Y-87627292D02*
X147087028Y-87741578D01*
X147087028Y-87741578D02*
X147144171Y-87798720D01*
X147144171Y-87798720D02*
X147258457Y-87855863D01*
X147258457Y-87855863D02*
X147544171Y-87855863D01*
X147544171Y-87855863D02*
X147658457Y-87798720D01*
X147658457Y-87798720D02*
X147715600Y-87741578D01*
X147715600Y-87741578D02*
X147772742Y-87627292D01*
X147772742Y-87627292D02*
X147772742Y-87341578D01*
X147772742Y-87341578D02*
X147715600Y-87227292D01*
X147715600Y-87227292D02*
X147658457Y-87170149D01*
X146572742Y-88198720D02*
X147772742Y-88598720D01*
X147772742Y-88598720D02*
X146572742Y-88998720D01*
D10*
X143974819Y-116367620D02*
X142974819Y-116367620D01*
X142974819Y-116367620D02*
X143689104Y-116700953D01*
X143689104Y-116700953D02*
X142974819Y-117034286D01*
X142974819Y-117034286D02*
X143974819Y-117034286D01*
X143974819Y-117510477D02*
X142974819Y-117510477D01*
X143974819Y-117986667D02*
X142974819Y-117986667D01*
X142974819Y-117986667D02*
X142974819Y-118224762D01*
X142974819Y-118224762D02*
X143022438Y-118367619D01*
X143022438Y-118367619D02*
X143117676Y-118462857D01*
X143117676Y-118462857D02*
X143212914Y-118510476D01*
X143212914Y-118510476D02*
X143403390Y-118558095D01*
X143403390Y-118558095D02*
X143546247Y-118558095D01*
X143546247Y-118558095D02*
X143736723Y-118510476D01*
X143736723Y-118510476D02*
X143831961Y-118462857D01*
X143831961Y-118462857D02*
X143927200Y-118367619D01*
X143927200Y-118367619D02*
X143974819Y-118224762D01*
X143974819Y-118224762D02*
X143974819Y-117986667D01*
X143974819Y-118986667D02*
X142974819Y-118986667D01*
X143974819Y-120224762D02*
X142974819Y-120224762D01*
X143974819Y-120700952D02*
X142974819Y-120700952D01*
X142974819Y-120700952D02*
X143974819Y-121272380D01*
X143974819Y-121272380D02*
X142974819Y-121272380D01*
X141487438Y-84370588D02*
X141439819Y-84275350D01*
X141439819Y-84275350D02*
X141439819Y-84132493D01*
X141439819Y-84132493D02*
X141487438Y-83989636D01*
X141487438Y-83989636D02*
X141582676Y-83894398D01*
X141582676Y-83894398D02*
X141677914Y-83846779D01*
X141677914Y-83846779D02*
X141868390Y-83799160D01*
X141868390Y-83799160D02*
X142011247Y-83799160D01*
X142011247Y-83799160D02*
X142201723Y-83846779D01*
X142201723Y-83846779D02*
X142296961Y-83894398D01*
X142296961Y-83894398D02*
X142392200Y-83989636D01*
X142392200Y-83989636D02*
X142439819Y-84132493D01*
X142439819Y-84132493D02*
X142439819Y-84227731D01*
X142439819Y-84227731D02*
X142392200Y-84370588D01*
X142392200Y-84370588D02*
X142344580Y-84418207D01*
X142344580Y-84418207D02*
X142011247Y-84418207D01*
X142011247Y-84418207D02*
X142011247Y-84227731D01*
X142439819Y-84846779D02*
X141439819Y-84846779D01*
X141439819Y-84846779D02*
X142439819Y-85418207D01*
X142439819Y-85418207D02*
X141439819Y-85418207D01*
X142439819Y-85894398D02*
X141439819Y-85894398D01*
X141439819Y-85894398D02*
X141439819Y-86132493D01*
X141439819Y-86132493D02*
X141487438Y-86275350D01*
X141487438Y-86275350D02*
X141582676Y-86370588D01*
X141582676Y-86370588D02*
X141677914Y-86418207D01*
X141677914Y-86418207D02*
X141868390Y-86465826D01*
X141868390Y-86465826D02*
X142011247Y-86465826D01*
X142011247Y-86465826D02*
X142201723Y-86418207D01*
X142201723Y-86418207D02*
X142296961Y-86370588D01*
X142296961Y-86370588D02*
X142392200Y-86275350D01*
X142392200Y-86275350D02*
X142439819Y-86132493D01*
X142439819Y-86132493D02*
X142439819Y-85894398D01*
X148722200Y-92570952D02*
X148769819Y-92713809D01*
X148769819Y-92713809D02*
X148769819Y-92951904D01*
X148769819Y-92951904D02*
X148722200Y-93047142D01*
X148722200Y-93047142D02*
X148674580Y-93094761D01*
X148674580Y-93094761D02*
X148579342Y-93142380D01*
X148579342Y-93142380D02*
X148484104Y-93142380D01*
X148484104Y-93142380D02*
X148388866Y-93094761D01*
X148388866Y-93094761D02*
X148341247Y-93047142D01*
X148341247Y-93047142D02*
X148293628Y-92951904D01*
X148293628Y-92951904D02*
X148246009Y-92761428D01*
X148246009Y-92761428D02*
X148198390Y-92666190D01*
X148198390Y-92666190D02*
X148150771Y-92618571D01*
X148150771Y-92618571D02*
X148055533Y-92570952D01*
X148055533Y-92570952D02*
X147960295Y-92570952D01*
X147960295Y-92570952D02*
X147865057Y-92618571D01*
X147865057Y-92618571D02*
X147817438Y-92666190D01*
X147817438Y-92666190D02*
X147769819Y-92761428D01*
X147769819Y-92761428D02*
X147769819Y-92999523D01*
X147769819Y-92999523D02*
X147817438Y-93142380D01*
X148769819Y-93570952D02*
X147769819Y-93570952D01*
X147769819Y-93570952D02*
X147769819Y-93951904D01*
X147769819Y-93951904D02*
X147817438Y-94047142D01*
X147817438Y-94047142D02*
X147865057Y-94094761D01*
X147865057Y-94094761D02*
X147960295Y-94142380D01*
X147960295Y-94142380D02*
X148103152Y-94142380D01*
X148103152Y-94142380D02*
X148198390Y-94094761D01*
X148198390Y-94094761D02*
X148246009Y-94047142D01*
X148246009Y-94047142D02*
X148293628Y-93951904D01*
X148293628Y-93951904D02*
X148293628Y-93570952D01*
X148246009Y-94570952D02*
X148246009Y-94904285D01*
X148769819Y-95047142D02*
X148769819Y-94570952D01*
X148769819Y-94570952D02*
X147769819Y-94570952D01*
X147769819Y-94570952D02*
X147769819Y-95047142D01*
X148484104Y-95428095D02*
X148484104Y-95904285D01*
X148769819Y-95332857D02*
X147769819Y-95666190D01*
X147769819Y-95666190D02*
X148769819Y-95999523D01*
X148769819Y-96332857D02*
X147769819Y-96332857D01*
X148769819Y-96904285D02*
X148198390Y-96475714D01*
X147769819Y-96904285D02*
X148341247Y-96332857D01*
X148246009Y-97332857D02*
X148246009Y-97666190D01*
X148769819Y-97809047D02*
X148769819Y-97332857D01*
X148769819Y-97332857D02*
X147769819Y-97332857D01*
X147769819Y-97332857D02*
X147769819Y-97809047D01*
X148769819Y-98809047D02*
X148293628Y-98475714D01*
X148769819Y-98237619D02*
X147769819Y-98237619D01*
X147769819Y-98237619D02*
X147769819Y-98618571D01*
X147769819Y-98618571D02*
X147817438Y-98713809D01*
X147817438Y-98713809D02*
X147865057Y-98761428D01*
X147865057Y-98761428D02*
X147960295Y-98809047D01*
X147960295Y-98809047D02*
X148103152Y-98809047D01*
X148103152Y-98809047D02*
X148198390Y-98761428D01*
X148198390Y-98761428D02*
X148246009Y-98713809D01*
X148246009Y-98713809D02*
X148293628Y-98618571D01*
X148293628Y-98618571D02*
X148293628Y-98237619D01*
X61762438Y-97615601D02*
X61714819Y-97520363D01*
X61714819Y-97520363D02*
X61714819Y-97377506D01*
X61714819Y-97377506D02*
X61762438Y-97234649D01*
X61762438Y-97234649D02*
X61857676Y-97139411D01*
X61857676Y-97139411D02*
X61952914Y-97091792D01*
X61952914Y-97091792D02*
X62143390Y-97044173D01*
X62143390Y-97044173D02*
X62286247Y-97044173D01*
X62286247Y-97044173D02*
X62476723Y-97091792D01*
X62476723Y-97091792D02*
X62571961Y-97139411D01*
X62571961Y-97139411D02*
X62667200Y-97234649D01*
X62667200Y-97234649D02*
X62714819Y-97377506D01*
X62714819Y-97377506D02*
X62714819Y-97472744D01*
X62714819Y-97472744D02*
X62667200Y-97615601D01*
X62667200Y-97615601D02*
X62619580Y-97663220D01*
X62619580Y-97663220D02*
X62286247Y-97663220D01*
X62286247Y-97663220D02*
X62286247Y-97472744D01*
X62714819Y-98091792D02*
X61714819Y-98091792D01*
X61714819Y-98091792D02*
X62714819Y-98663220D01*
X62714819Y-98663220D02*
X61714819Y-98663220D01*
X62714819Y-99139411D02*
X61714819Y-99139411D01*
X61714819Y-99139411D02*
X61714819Y-99377506D01*
X61714819Y-99377506D02*
X61762438Y-99520363D01*
X61762438Y-99520363D02*
X61857676Y-99615601D01*
X61857676Y-99615601D02*
X61952914Y-99663220D01*
X61952914Y-99663220D02*
X62143390Y-99710839D01*
X62143390Y-99710839D02*
X62286247Y-99710839D01*
X62286247Y-99710839D02*
X62476723Y-99663220D01*
X62476723Y-99663220D02*
X62571961Y-99615601D01*
X62571961Y-99615601D02*
X62667200Y-99520363D01*
X62667200Y-99520363D02*
X62714819Y-99377506D01*
X62714819Y-99377506D02*
X62714819Y-99139411D01*
D11*
X148271904Y-116952219D02*
X148748094Y-116952219D01*
X148748094Y-116952219D02*
X148795713Y-117428409D01*
X148795713Y-117428409D02*
X148748094Y-117380790D01*
X148748094Y-117380790D02*
X148652856Y-117333171D01*
X148652856Y-117333171D02*
X148414761Y-117333171D01*
X148414761Y-117333171D02*
X148319523Y-117380790D01*
X148319523Y-117380790D02*
X148271904Y-117428409D01*
X148271904Y-117428409D02*
X148224285Y-117523647D01*
X148224285Y-117523647D02*
X148224285Y-117761742D01*
X148224285Y-117761742D02*
X148271904Y-117856980D01*
X148271904Y-117856980D02*
X148319523Y-117904600D01*
X148319523Y-117904600D02*
X148414761Y-117952219D01*
X148414761Y-117952219D02*
X148652856Y-117952219D01*
X148652856Y-117952219D02*
X148748094Y-117904600D01*
X148748094Y-117904600D02*
X148795713Y-117856980D01*
D10*
X80031904Y-140324819D02*
X80031904Y-139324819D01*
X80031904Y-139324819D02*
X79650952Y-139324819D01*
X79650952Y-139324819D02*
X79555714Y-139372438D01*
X79555714Y-139372438D02*
X79508095Y-139420057D01*
X79508095Y-139420057D02*
X79460476Y-139515295D01*
X79460476Y-139515295D02*
X79460476Y-139658152D01*
X79460476Y-139658152D02*
X79508095Y-139753390D01*
X79508095Y-139753390D02*
X79555714Y-139801009D01*
X79555714Y-139801009D02*
X79650952Y-139848628D01*
X79650952Y-139848628D02*
X80031904Y-139848628D01*
X79127142Y-139324819D02*
X78889047Y-140324819D01*
X78889047Y-140324819D02*
X78698571Y-139610533D01*
X78698571Y-139610533D02*
X78508095Y-140324819D01*
X78508095Y-140324819D02*
X78270000Y-139324819D01*
X77317619Y-140324819D02*
X77650952Y-139848628D01*
X77889047Y-140324819D02*
X77889047Y-139324819D01*
X77889047Y-139324819D02*
X77508095Y-139324819D01*
X77508095Y-139324819D02*
X77412857Y-139372438D01*
X77412857Y-139372438D02*
X77365238Y-139420057D01*
X77365238Y-139420057D02*
X77317619Y-139515295D01*
X77317619Y-139515295D02*
X77317619Y-139658152D01*
X77317619Y-139658152D02*
X77365238Y-139753390D01*
X77365238Y-139753390D02*
X77412857Y-139801009D01*
X77412857Y-139801009D02*
X77508095Y-139848628D01*
X77508095Y-139848628D02*
X77889047Y-139848628D01*
X76174761Y-140277200D02*
X76031904Y-140324819D01*
X76031904Y-140324819D02*
X75793809Y-140324819D01*
X75793809Y-140324819D02*
X75698571Y-140277200D01*
X75698571Y-140277200D02*
X75650952Y-140229580D01*
X75650952Y-140229580D02*
X75603333Y-140134342D01*
X75603333Y-140134342D02*
X75603333Y-140039104D01*
X75603333Y-140039104D02*
X75650952Y-139943866D01*
X75650952Y-139943866D02*
X75698571Y-139896247D01*
X75698571Y-139896247D02*
X75793809Y-139848628D01*
X75793809Y-139848628D02*
X75984285Y-139801009D01*
X75984285Y-139801009D02*
X76079523Y-139753390D01*
X76079523Y-139753390D02*
X76127142Y-139705771D01*
X76127142Y-139705771D02*
X76174761Y-139610533D01*
X76174761Y-139610533D02*
X76174761Y-139515295D01*
X76174761Y-139515295D02*
X76127142Y-139420057D01*
X76127142Y-139420057D02*
X76079523Y-139372438D01*
X76079523Y-139372438D02*
X75984285Y-139324819D01*
X75984285Y-139324819D02*
X75746190Y-139324819D01*
X75746190Y-139324819D02*
X75603333Y-139372438D01*
X75269999Y-139324819D02*
X75031904Y-140324819D01*
X75031904Y-140324819D02*
X74841428Y-139610533D01*
X74841428Y-139610533D02*
X74650952Y-140324819D01*
X74650952Y-140324819D02*
X74412857Y-139324819D01*
D11*
X140209048Y-99293733D02*
X140970953Y-99293733D01*
X140590000Y-98912780D02*
X140590000Y-99674685D01*
D10*
X59174819Y-97615602D02*
X60174819Y-97948935D01*
X60174819Y-97948935D02*
X59174819Y-98282268D01*
X60174819Y-98615602D02*
X59174819Y-98615602D01*
X60174819Y-99091792D02*
X59174819Y-99091792D01*
X59174819Y-99091792D02*
X60174819Y-99663220D01*
X60174819Y-99663220D02*
X59174819Y-99663220D01*
X79223332Y-144844819D02*
X78556666Y-144844819D01*
X78556666Y-144844819D02*
X78985237Y-145844819D01*
X78175713Y-145463866D02*
X77413809Y-145463866D01*
X76413809Y-145844819D02*
X76985237Y-145844819D01*
X76699523Y-145844819D02*
X76699523Y-144844819D01*
X76699523Y-144844819D02*
X76794761Y-144987676D01*
X76794761Y-144987676D02*
X76889999Y-145082914D01*
X76889999Y-145082914D02*
X76985237Y-145130533D01*
X76032856Y-144940057D02*
X75985237Y-144892438D01*
X75985237Y-144892438D02*
X75889999Y-144844819D01*
X75889999Y-144844819D02*
X75651904Y-144844819D01*
X75651904Y-144844819D02*
X75556666Y-144892438D01*
X75556666Y-144892438D02*
X75509047Y-144940057D01*
X75509047Y-144940057D02*
X75461428Y-145035295D01*
X75461428Y-145035295D02*
X75461428Y-145130533D01*
X75461428Y-145130533D02*
X75509047Y-145273390D01*
X75509047Y-145273390D02*
X76080475Y-145844819D01*
X76080475Y-145844819D02*
X75461428Y-145844819D01*
X75175713Y-144844819D02*
X74842380Y-145844819D01*
X74842380Y-145844819D02*
X74509047Y-144844819D01*
X82747048Y-88160009D02*
X82413715Y-88160009D01*
X82270858Y-88683819D02*
X82747048Y-88683819D01*
X82747048Y-88683819D02*
X82747048Y-87683819D01*
X82747048Y-87683819D02*
X82270858Y-87683819D01*
X81889905Y-88636200D02*
X81747048Y-88683819D01*
X81747048Y-88683819D02*
X81508953Y-88683819D01*
X81508953Y-88683819D02*
X81413715Y-88636200D01*
X81413715Y-88636200D02*
X81366096Y-88588580D01*
X81366096Y-88588580D02*
X81318477Y-88493342D01*
X81318477Y-88493342D02*
X81318477Y-88398104D01*
X81318477Y-88398104D02*
X81366096Y-88302866D01*
X81366096Y-88302866D02*
X81413715Y-88255247D01*
X81413715Y-88255247D02*
X81508953Y-88207628D01*
X81508953Y-88207628D02*
X81699429Y-88160009D01*
X81699429Y-88160009D02*
X81794667Y-88112390D01*
X81794667Y-88112390D02*
X81842286Y-88064771D01*
X81842286Y-88064771D02*
X81889905Y-87969533D01*
X81889905Y-87969533D02*
X81889905Y-87874295D01*
X81889905Y-87874295D02*
X81842286Y-87779057D01*
X81842286Y-87779057D02*
X81794667Y-87731438D01*
X81794667Y-87731438D02*
X81699429Y-87683819D01*
X81699429Y-87683819D02*
X81461334Y-87683819D01*
X81461334Y-87683819D02*
X81318477Y-87731438D01*
X80889905Y-88683819D02*
X80889905Y-87683819D01*
X80889905Y-87683819D02*
X80508953Y-87683819D01*
X80508953Y-87683819D02*
X80413715Y-87731438D01*
X80413715Y-87731438D02*
X80366096Y-87779057D01*
X80366096Y-87779057D02*
X80318477Y-87874295D01*
X80318477Y-87874295D02*
X80318477Y-88017152D01*
X80318477Y-88017152D02*
X80366096Y-88112390D01*
X80366096Y-88112390D02*
X80413715Y-88160009D01*
X80413715Y-88160009D02*
X80508953Y-88207628D01*
X80508953Y-88207628D02*
X80889905Y-88207628D01*
X79985143Y-87683819D02*
X79366096Y-87683819D01*
X79366096Y-87683819D02*
X79699429Y-88064771D01*
X79699429Y-88064771D02*
X79556572Y-88064771D01*
X79556572Y-88064771D02*
X79461334Y-88112390D01*
X79461334Y-88112390D02*
X79413715Y-88160009D01*
X79413715Y-88160009D02*
X79366096Y-88255247D01*
X79366096Y-88255247D02*
X79366096Y-88493342D01*
X79366096Y-88493342D02*
X79413715Y-88588580D01*
X79413715Y-88588580D02*
X79461334Y-88636200D01*
X79461334Y-88636200D02*
X79556572Y-88683819D01*
X79556572Y-88683819D02*
X79842286Y-88683819D01*
X79842286Y-88683819D02*
X79937524Y-88636200D01*
X79937524Y-88636200D02*
X79985143Y-88588580D01*
X78985143Y-87779057D02*
X78937524Y-87731438D01*
X78937524Y-87731438D02*
X78842286Y-87683819D01*
X78842286Y-87683819D02*
X78604191Y-87683819D01*
X78604191Y-87683819D02*
X78508953Y-87731438D01*
X78508953Y-87731438D02*
X78461334Y-87779057D01*
X78461334Y-87779057D02*
X78413715Y-87874295D01*
X78413715Y-87874295D02*
X78413715Y-87969533D01*
X78413715Y-87969533D02*
X78461334Y-88112390D01*
X78461334Y-88112390D02*
X79032762Y-88683819D01*
X79032762Y-88683819D02*
X78413715Y-88683819D01*
X77318476Y-87683819D02*
X77080381Y-88683819D01*
X77080381Y-88683819D02*
X76889905Y-87969533D01*
X76889905Y-87969533D02*
X76699429Y-88683819D01*
X76699429Y-88683819D02*
X76461334Y-87683819D01*
X75508953Y-88683819D02*
X75842286Y-88207628D01*
X76080381Y-88683819D02*
X76080381Y-87683819D01*
X76080381Y-87683819D02*
X75699429Y-87683819D01*
X75699429Y-87683819D02*
X75604191Y-87731438D01*
X75604191Y-87731438D02*
X75556572Y-87779057D01*
X75556572Y-87779057D02*
X75508953Y-87874295D01*
X75508953Y-87874295D02*
X75508953Y-88017152D01*
X75508953Y-88017152D02*
X75556572Y-88112390D01*
X75556572Y-88112390D02*
X75604191Y-88160009D01*
X75604191Y-88160009D02*
X75699429Y-88207628D01*
X75699429Y-88207628D02*
X76080381Y-88207628D01*
X74889905Y-87683819D02*
X74699429Y-87683819D01*
X74699429Y-87683819D02*
X74604191Y-87731438D01*
X74604191Y-87731438D02*
X74508953Y-87826676D01*
X74508953Y-87826676D02*
X74461334Y-88017152D01*
X74461334Y-88017152D02*
X74461334Y-88350485D01*
X74461334Y-88350485D02*
X74508953Y-88540961D01*
X74508953Y-88540961D02*
X74604191Y-88636200D01*
X74604191Y-88636200D02*
X74699429Y-88683819D01*
X74699429Y-88683819D02*
X74889905Y-88683819D01*
X74889905Y-88683819D02*
X74985143Y-88636200D01*
X74985143Y-88636200D02*
X75080381Y-88540961D01*
X75080381Y-88540961D02*
X75128000Y-88350485D01*
X75128000Y-88350485D02*
X75128000Y-88017152D01*
X75128000Y-88017152D02*
X75080381Y-87826676D01*
X75080381Y-87826676D02*
X74985143Y-87731438D01*
X74985143Y-87731438D02*
X74889905Y-87683819D01*
X73842286Y-87683819D02*
X73651810Y-87683819D01*
X73651810Y-87683819D02*
X73556572Y-87731438D01*
X73556572Y-87731438D02*
X73461334Y-87826676D01*
X73461334Y-87826676D02*
X73413715Y-88017152D01*
X73413715Y-88017152D02*
X73413715Y-88350485D01*
X73413715Y-88350485D02*
X73461334Y-88540961D01*
X73461334Y-88540961D02*
X73556572Y-88636200D01*
X73556572Y-88636200D02*
X73651810Y-88683819D01*
X73651810Y-88683819D02*
X73842286Y-88683819D01*
X73842286Y-88683819D02*
X73937524Y-88636200D01*
X73937524Y-88636200D02*
X74032762Y-88540961D01*
X74032762Y-88540961D02*
X74080381Y-88350485D01*
X74080381Y-88350485D02*
X74080381Y-88017152D01*
X74080381Y-88017152D02*
X74032762Y-87826676D01*
X74032762Y-87826676D02*
X73937524Y-87731438D01*
X73937524Y-87731438D02*
X73842286Y-87683819D01*
X72985143Y-88683819D02*
X72985143Y-87683819D01*
X72985143Y-87683819D02*
X72651810Y-88398104D01*
X72651810Y-88398104D02*
X72318477Y-87683819D01*
X72318477Y-87683819D02*
X72318477Y-88683819D01*
X71080381Y-88683819D02*
X71080381Y-87683819D01*
X71080381Y-87683819D02*
X70842286Y-87683819D01*
X70842286Y-87683819D02*
X70699429Y-87731438D01*
X70699429Y-87731438D02*
X70604191Y-87826676D01*
X70604191Y-87826676D02*
X70556572Y-87921914D01*
X70556572Y-87921914D02*
X70508953Y-88112390D01*
X70508953Y-88112390D02*
X70508953Y-88255247D01*
X70508953Y-88255247D02*
X70556572Y-88445723D01*
X70556572Y-88445723D02*
X70604191Y-88540961D01*
X70604191Y-88540961D02*
X70699429Y-88636200D01*
X70699429Y-88636200D02*
X70842286Y-88683819D01*
X70842286Y-88683819D02*
X71080381Y-88683819D01*
X69699429Y-88636200D02*
X69794667Y-88683819D01*
X69794667Y-88683819D02*
X69985143Y-88683819D01*
X69985143Y-88683819D02*
X70080381Y-88636200D01*
X70080381Y-88636200D02*
X70128000Y-88540961D01*
X70128000Y-88540961D02*
X70128000Y-88160009D01*
X70128000Y-88160009D02*
X70080381Y-88064771D01*
X70080381Y-88064771D02*
X69985143Y-88017152D01*
X69985143Y-88017152D02*
X69794667Y-88017152D01*
X69794667Y-88017152D02*
X69699429Y-88064771D01*
X69699429Y-88064771D02*
X69651810Y-88160009D01*
X69651810Y-88160009D02*
X69651810Y-88255247D01*
X69651810Y-88255247D02*
X70128000Y-88350485D01*
X69318476Y-88017152D02*
X69080381Y-88683819D01*
X69080381Y-88683819D02*
X68842286Y-88017152D01*
X68461333Y-88683819D02*
X68461333Y-87683819D01*
X67889905Y-88683819D02*
X68318476Y-88112390D01*
X67889905Y-87683819D02*
X68461333Y-88255247D01*
X67080381Y-88636200D02*
X67175619Y-88683819D01*
X67175619Y-88683819D02*
X67366095Y-88683819D01*
X67366095Y-88683819D02*
X67461333Y-88636200D01*
X67461333Y-88636200D02*
X67508952Y-88540961D01*
X67508952Y-88540961D02*
X67508952Y-88160009D01*
X67508952Y-88160009D02*
X67461333Y-88064771D01*
X67461333Y-88064771D02*
X67366095Y-88017152D01*
X67366095Y-88017152D02*
X67175619Y-88017152D01*
X67175619Y-88017152D02*
X67080381Y-88064771D01*
X67080381Y-88064771D02*
X67032762Y-88160009D01*
X67032762Y-88160009D02*
X67032762Y-88255247D01*
X67032762Y-88255247D02*
X67508952Y-88350485D01*
X66747047Y-88017152D02*
X66366095Y-88017152D01*
X66604190Y-87683819D02*
X66604190Y-88540961D01*
X66604190Y-88540961D02*
X66556571Y-88636200D01*
X66556571Y-88636200D02*
X66461333Y-88683819D01*
X66461333Y-88683819D02*
X66366095Y-88683819D01*
X65270856Y-88683819D02*
X65270856Y-87683819D01*
X65270856Y-87683819D02*
X64937523Y-88398104D01*
X64937523Y-88398104D02*
X64604190Y-87683819D01*
X64604190Y-87683819D02*
X64604190Y-88683819D01*
X63985142Y-88683819D02*
X64080380Y-88636200D01*
X64080380Y-88636200D02*
X64127999Y-88588580D01*
X64127999Y-88588580D02*
X64175618Y-88493342D01*
X64175618Y-88493342D02*
X64175618Y-88207628D01*
X64175618Y-88207628D02*
X64127999Y-88112390D01*
X64127999Y-88112390D02*
X64080380Y-88064771D01*
X64080380Y-88064771D02*
X63985142Y-88017152D01*
X63985142Y-88017152D02*
X63842285Y-88017152D01*
X63842285Y-88017152D02*
X63747047Y-88064771D01*
X63747047Y-88064771D02*
X63699428Y-88112390D01*
X63699428Y-88112390D02*
X63651809Y-88207628D01*
X63651809Y-88207628D02*
X63651809Y-88493342D01*
X63651809Y-88493342D02*
X63699428Y-88588580D01*
X63699428Y-88588580D02*
X63747047Y-88636200D01*
X63747047Y-88636200D02*
X63842285Y-88683819D01*
X63842285Y-88683819D02*
X63985142Y-88683819D01*
X62794666Y-88683819D02*
X62794666Y-87683819D01*
X62794666Y-88636200D02*
X62889904Y-88683819D01*
X62889904Y-88683819D02*
X63080380Y-88683819D01*
X63080380Y-88683819D02*
X63175618Y-88636200D01*
X63175618Y-88636200D02*
X63223237Y-88588580D01*
X63223237Y-88588580D02*
X63270856Y-88493342D01*
X63270856Y-88493342D02*
X63270856Y-88207628D01*
X63270856Y-88207628D02*
X63223237Y-88112390D01*
X63223237Y-88112390D02*
X63175618Y-88064771D01*
X63175618Y-88064771D02*
X63080380Y-88017152D01*
X63080380Y-88017152D02*
X62889904Y-88017152D01*
X62889904Y-88017152D02*
X62794666Y-88064771D01*
X61889904Y-88017152D02*
X61889904Y-88683819D01*
X62318475Y-88017152D02*
X62318475Y-88540961D01*
X62318475Y-88540961D02*
X62270856Y-88636200D01*
X62270856Y-88636200D02*
X62175618Y-88683819D01*
X62175618Y-88683819D02*
X62032761Y-88683819D01*
X62032761Y-88683819D02*
X61937523Y-88636200D01*
X61937523Y-88636200D02*
X61889904Y-88588580D01*
X61270856Y-88683819D02*
X61366094Y-88636200D01*
X61366094Y-88636200D02*
X61413713Y-88540961D01*
X61413713Y-88540961D02*
X61413713Y-87683819D01*
X60508951Y-88636200D02*
X60604189Y-88683819D01*
X60604189Y-88683819D02*
X60794665Y-88683819D01*
X60794665Y-88683819D02*
X60889903Y-88636200D01*
X60889903Y-88636200D02*
X60937522Y-88540961D01*
X60937522Y-88540961D02*
X60937522Y-88160009D01*
X60937522Y-88160009D02*
X60889903Y-88064771D01*
X60889903Y-88064771D02*
X60794665Y-88017152D01*
X60794665Y-88017152D02*
X60604189Y-88017152D01*
X60604189Y-88017152D02*
X60508951Y-88064771D01*
X60508951Y-88064771D02*
X60461332Y-88160009D01*
X60461332Y-88160009D02*
X60461332Y-88255247D01*
X60461332Y-88255247D02*
X60937522Y-88350485D01*
X77556572Y-90674771D02*
X77604191Y-90627152D01*
X77604191Y-90627152D02*
X77699429Y-90484295D01*
X77699429Y-90484295D02*
X77747048Y-90389057D01*
X77747048Y-90389057D02*
X77794667Y-90246200D01*
X77794667Y-90246200D02*
X77842286Y-90008104D01*
X77842286Y-90008104D02*
X77842286Y-89817628D01*
X77842286Y-89817628D02*
X77794667Y-89579533D01*
X77794667Y-89579533D02*
X77747048Y-89436676D01*
X77747048Y-89436676D02*
X77699429Y-89341438D01*
X77699429Y-89341438D02*
X77604191Y-89198580D01*
X77604191Y-89198580D02*
X77556572Y-89150961D01*
X77032762Y-90293819D02*
X77128000Y-90246200D01*
X77128000Y-90246200D02*
X77175619Y-90198580D01*
X77175619Y-90198580D02*
X77223238Y-90103342D01*
X77223238Y-90103342D02*
X77223238Y-89817628D01*
X77223238Y-89817628D02*
X77175619Y-89722390D01*
X77175619Y-89722390D02*
X77128000Y-89674771D01*
X77128000Y-89674771D02*
X77032762Y-89627152D01*
X77032762Y-89627152D02*
X76889905Y-89627152D01*
X76889905Y-89627152D02*
X76794667Y-89674771D01*
X76794667Y-89674771D02*
X76747048Y-89722390D01*
X76747048Y-89722390D02*
X76699429Y-89817628D01*
X76699429Y-89817628D02*
X76699429Y-90103342D01*
X76699429Y-90103342D02*
X76747048Y-90198580D01*
X76747048Y-90198580D02*
X76794667Y-90246200D01*
X76794667Y-90246200D02*
X76889905Y-90293819D01*
X76889905Y-90293819D02*
X77032762Y-90293819D01*
X76270857Y-89627152D02*
X76270857Y-90293819D01*
X76270857Y-89722390D02*
X76223238Y-89674771D01*
X76223238Y-89674771D02*
X76128000Y-89627152D01*
X76128000Y-89627152D02*
X75985143Y-89627152D01*
X75985143Y-89627152D02*
X75889905Y-89674771D01*
X75889905Y-89674771D02*
X75842286Y-89770009D01*
X75842286Y-89770009D02*
X75842286Y-90293819D01*
X74604190Y-90293819D02*
X74604190Y-89627152D01*
X74604190Y-89817628D02*
X74556571Y-89722390D01*
X74556571Y-89722390D02*
X74508952Y-89674771D01*
X74508952Y-89674771D02*
X74413714Y-89627152D01*
X74413714Y-89627152D02*
X74318476Y-89627152D01*
X73604190Y-90246200D02*
X73699428Y-90293819D01*
X73699428Y-90293819D02*
X73889904Y-90293819D01*
X73889904Y-90293819D02*
X73985142Y-90246200D01*
X73985142Y-90246200D02*
X74032761Y-90150961D01*
X74032761Y-90150961D02*
X74032761Y-89770009D01*
X74032761Y-89770009D02*
X73985142Y-89674771D01*
X73985142Y-89674771D02*
X73889904Y-89627152D01*
X73889904Y-89627152D02*
X73699428Y-89627152D01*
X73699428Y-89627152D02*
X73604190Y-89674771D01*
X73604190Y-89674771D02*
X73556571Y-89770009D01*
X73556571Y-89770009D02*
X73556571Y-89865247D01*
X73556571Y-89865247D02*
X74032761Y-89960485D01*
X72699428Y-90293819D02*
X72699428Y-89770009D01*
X72699428Y-89770009D02*
X72747047Y-89674771D01*
X72747047Y-89674771D02*
X72842285Y-89627152D01*
X72842285Y-89627152D02*
X73032761Y-89627152D01*
X73032761Y-89627152D02*
X73127999Y-89674771D01*
X72699428Y-90246200D02*
X72794666Y-90293819D01*
X72794666Y-90293819D02*
X73032761Y-90293819D01*
X73032761Y-90293819D02*
X73127999Y-90246200D01*
X73127999Y-90246200D02*
X73175618Y-90150961D01*
X73175618Y-90150961D02*
X73175618Y-90055723D01*
X73175618Y-90055723D02*
X73127999Y-89960485D01*
X73127999Y-89960485D02*
X73032761Y-89912866D01*
X73032761Y-89912866D02*
X72794666Y-89912866D01*
X72794666Y-89912866D02*
X72699428Y-89865247D01*
X72223237Y-90293819D02*
X72223237Y-89627152D01*
X72223237Y-89817628D02*
X72175618Y-89722390D01*
X72175618Y-89722390D02*
X72127999Y-89674771D01*
X72127999Y-89674771D02*
X72032761Y-89627152D01*
X72032761Y-89627152D02*
X71937523Y-89627152D01*
X70699427Y-90293819D02*
X70794665Y-90246200D01*
X70794665Y-90246200D02*
X70842284Y-90198580D01*
X70842284Y-90198580D02*
X70889903Y-90103342D01*
X70889903Y-90103342D02*
X70889903Y-89817628D01*
X70889903Y-89817628D02*
X70842284Y-89722390D01*
X70842284Y-89722390D02*
X70794665Y-89674771D01*
X70794665Y-89674771D02*
X70699427Y-89627152D01*
X70699427Y-89627152D02*
X70556570Y-89627152D01*
X70556570Y-89627152D02*
X70461332Y-89674771D01*
X70461332Y-89674771D02*
X70413713Y-89722390D01*
X70413713Y-89722390D02*
X70366094Y-89817628D01*
X70366094Y-89817628D02*
X70366094Y-90103342D01*
X70366094Y-90103342D02*
X70413713Y-90198580D01*
X70413713Y-90198580D02*
X70461332Y-90246200D01*
X70461332Y-90246200D02*
X70556570Y-90293819D01*
X70556570Y-90293819D02*
X70699427Y-90293819D01*
X70080379Y-89627152D02*
X69699427Y-89627152D01*
X69937522Y-90293819D02*
X69937522Y-89436676D01*
X69937522Y-89436676D02*
X69889903Y-89341438D01*
X69889903Y-89341438D02*
X69794665Y-89293819D01*
X69794665Y-89293819D02*
X69699427Y-89293819D01*
X68604188Y-90293819D02*
X68604188Y-89293819D01*
X68604188Y-89293819D02*
X68223236Y-89293819D01*
X68223236Y-89293819D02*
X68127998Y-89341438D01*
X68127998Y-89341438D02*
X68080379Y-89389057D01*
X68080379Y-89389057D02*
X68032760Y-89484295D01*
X68032760Y-89484295D02*
X68032760Y-89627152D01*
X68032760Y-89627152D02*
X68080379Y-89722390D01*
X68080379Y-89722390D02*
X68127998Y-89770009D01*
X68127998Y-89770009D02*
X68223236Y-89817628D01*
X68223236Y-89817628D02*
X68604188Y-89817628D01*
X67032760Y-90198580D02*
X67080379Y-90246200D01*
X67080379Y-90246200D02*
X67223236Y-90293819D01*
X67223236Y-90293819D02*
X67318474Y-90293819D01*
X67318474Y-90293819D02*
X67461331Y-90246200D01*
X67461331Y-90246200D02*
X67556569Y-90150961D01*
X67556569Y-90150961D02*
X67604188Y-90055723D01*
X67604188Y-90055723D02*
X67651807Y-89865247D01*
X67651807Y-89865247D02*
X67651807Y-89722390D01*
X67651807Y-89722390D02*
X67604188Y-89531914D01*
X67604188Y-89531914D02*
X67556569Y-89436676D01*
X67556569Y-89436676D02*
X67461331Y-89341438D01*
X67461331Y-89341438D02*
X67318474Y-89293819D01*
X67318474Y-89293819D02*
X67223236Y-89293819D01*
X67223236Y-89293819D02*
X67080379Y-89341438D01*
X67080379Y-89341438D02*
X67032760Y-89389057D01*
X66270855Y-89770009D02*
X66127998Y-89817628D01*
X66127998Y-89817628D02*
X66080379Y-89865247D01*
X66080379Y-89865247D02*
X66032760Y-89960485D01*
X66032760Y-89960485D02*
X66032760Y-90103342D01*
X66032760Y-90103342D02*
X66080379Y-90198580D01*
X66080379Y-90198580D02*
X66127998Y-90246200D01*
X66127998Y-90246200D02*
X66223236Y-90293819D01*
X66223236Y-90293819D02*
X66604188Y-90293819D01*
X66604188Y-90293819D02*
X66604188Y-89293819D01*
X66604188Y-89293819D02*
X66270855Y-89293819D01*
X66270855Y-89293819D02*
X66175617Y-89341438D01*
X66175617Y-89341438D02*
X66127998Y-89389057D01*
X66127998Y-89389057D02*
X66080379Y-89484295D01*
X66080379Y-89484295D02*
X66080379Y-89579533D01*
X66080379Y-89579533D02*
X66127998Y-89674771D01*
X66127998Y-89674771D02*
X66175617Y-89722390D01*
X66175617Y-89722390D02*
X66270855Y-89770009D01*
X66270855Y-89770009D02*
X66604188Y-89770009D01*
X65699426Y-90674771D02*
X65651807Y-90627152D01*
X65651807Y-90627152D02*
X65556569Y-90484295D01*
X65556569Y-90484295D02*
X65508950Y-90389057D01*
X65508950Y-90389057D02*
X65461331Y-90246200D01*
X65461331Y-90246200D02*
X65413712Y-90008104D01*
X65413712Y-90008104D02*
X65413712Y-89817628D01*
X65413712Y-89817628D02*
X65461331Y-89579533D01*
X65461331Y-89579533D02*
X65508950Y-89436676D01*
X65508950Y-89436676D02*
X65556569Y-89341438D01*
X65556569Y-89341438D02*
X65651807Y-89198580D01*
X65651807Y-89198580D02*
X65699426Y-89150961D01*
D11*
X81230951Y-147656266D02*
X80469047Y-147656266D01*
D10*
X52954819Y-87738095D02*
X53764342Y-87738095D01*
X53764342Y-87738095D02*
X53859580Y-87785714D01*
X53859580Y-87785714D02*
X53907200Y-87833333D01*
X53907200Y-87833333D02*
X53954819Y-87928571D01*
X53954819Y-87928571D02*
X53954819Y-88119047D01*
X53954819Y-88119047D02*
X53907200Y-88214285D01*
X53907200Y-88214285D02*
X53859580Y-88261904D01*
X53859580Y-88261904D02*
X53764342Y-88309523D01*
X53764342Y-88309523D02*
X52954819Y-88309523D01*
X53907200Y-88738095D02*
X53954819Y-88880952D01*
X53954819Y-88880952D02*
X53954819Y-89119047D01*
X53954819Y-89119047D02*
X53907200Y-89214285D01*
X53907200Y-89214285D02*
X53859580Y-89261904D01*
X53859580Y-89261904D02*
X53764342Y-89309523D01*
X53764342Y-89309523D02*
X53669104Y-89309523D01*
X53669104Y-89309523D02*
X53573866Y-89261904D01*
X53573866Y-89261904D02*
X53526247Y-89214285D01*
X53526247Y-89214285D02*
X53478628Y-89119047D01*
X53478628Y-89119047D02*
X53431009Y-88928571D01*
X53431009Y-88928571D02*
X53383390Y-88833333D01*
X53383390Y-88833333D02*
X53335771Y-88785714D01*
X53335771Y-88785714D02*
X53240533Y-88738095D01*
X53240533Y-88738095D02*
X53145295Y-88738095D01*
X53145295Y-88738095D02*
X53050057Y-88785714D01*
X53050057Y-88785714D02*
X53002438Y-88833333D01*
X53002438Y-88833333D02*
X52954819Y-88928571D01*
X52954819Y-88928571D02*
X52954819Y-89166666D01*
X52954819Y-89166666D02*
X53002438Y-89309523D01*
X53431009Y-90071428D02*
X53478628Y-90214285D01*
X53478628Y-90214285D02*
X53526247Y-90261904D01*
X53526247Y-90261904D02*
X53621485Y-90309523D01*
X53621485Y-90309523D02*
X53764342Y-90309523D01*
X53764342Y-90309523D02*
X53859580Y-90261904D01*
X53859580Y-90261904D02*
X53907200Y-90214285D01*
X53907200Y-90214285D02*
X53954819Y-90119047D01*
X53954819Y-90119047D02*
X53954819Y-89738095D01*
X53954819Y-89738095D02*
X52954819Y-89738095D01*
X52954819Y-89738095D02*
X52954819Y-90071428D01*
X52954819Y-90071428D02*
X53002438Y-90166666D01*
X53002438Y-90166666D02*
X53050057Y-90214285D01*
X53050057Y-90214285D02*
X53145295Y-90261904D01*
X53145295Y-90261904D02*
X53240533Y-90261904D01*
X53240533Y-90261904D02*
X53335771Y-90214285D01*
X53335771Y-90214285D02*
X53383390Y-90166666D01*
X53383390Y-90166666D02*
X53431009Y-90071428D01*
X53431009Y-90071428D02*
X53431009Y-89738095D01*
X113430474Y-146999819D02*
X112811427Y-146999819D01*
X112811427Y-146999819D02*
X113144760Y-147380771D01*
X113144760Y-147380771D02*
X113001903Y-147380771D01*
X113001903Y-147380771D02*
X112906665Y-147428390D01*
X112906665Y-147428390D02*
X112859046Y-147476009D01*
X112859046Y-147476009D02*
X112811427Y-147571247D01*
X112811427Y-147571247D02*
X112811427Y-147809342D01*
X112811427Y-147809342D02*
X112859046Y-147904580D01*
X112859046Y-147904580D02*
X112906665Y-147952200D01*
X112906665Y-147952200D02*
X113001903Y-147999819D01*
X113001903Y-147999819D02*
X113287617Y-147999819D01*
X113287617Y-147999819D02*
X113382855Y-147952200D01*
X113382855Y-147952200D02*
X113430474Y-147904580D01*
X112525712Y-146999819D02*
X112192379Y-147999819D01*
X112192379Y-147999819D02*
X111859046Y-146999819D01*
X111620950Y-146999819D02*
X111001903Y-146999819D01*
X111001903Y-146999819D02*
X111335236Y-147380771D01*
X111335236Y-147380771D02*
X111192379Y-147380771D01*
X111192379Y-147380771D02*
X111097141Y-147428390D01*
X111097141Y-147428390D02*
X111049522Y-147476009D01*
X111049522Y-147476009D02*
X111001903Y-147571247D01*
X111001903Y-147571247D02*
X111001903Y-147809342D01*
X111001903Y-147809342D02*
X111049522Y-147904580D01*
X111049522Y-147904580D02*
X111097141Y-147952200D01*
X111097141Y-147952200D02*
X111192379Y-147999819D01*
X111192379Y-147999819D02*
X111478093Y-147999819D01*
X111478093Y-147999819D02*
X111573331Y-147952200D01*
X111573331Y-147952200D02*
X111620950Y-147904580D01*
X110573331Y-147618866D02*
X109811427Y-147618866D01*
X108811427Y-147999819D02*
X109382855Y-147999819D01*
X109097141Y-147999819D02*
X109097141Y-146999819D01*
X109097141Y-146999819D02*
X109192379Y-147142676D01*
X109192379Y-147142676D02*
X109287617Y-147237914D01*
X109287617Y-147237914D02*
X109382855Y-147285533D01*
X108192379Y-146999819D02*
X108097141Y-146999819D01*
X108097141Y-146999819D02*
X108001903Y-147047438D01*
X108001903Y-147047438D02*
X107954284Y-147095057D01*
X107954284Y-147095057D02*
X107906665Y-147190295D01*
X107906665Y-147190295D02*
X107859046Y-147380771D01*
X107859046Y-147380771D02*
X107859046Y-147618866D01*
X107859046Y-147618866D02*
X107906665Y-147809342D01*
X107906665Y-147809342D02*
X107954284Y-147904580D01*
X107954284Y-147904580D02*
X108001903Y-147952200D01*
X108001903Y-147952200D02*
X108097141Y-147999819D01*
X108097141Y-147999819D02*
X108192379Y-147999819D01*
X108192379Y-147999819D02*
X108287617Y-147952200D01*
X108287617Y-147952200D02*
X108335236Y-147904580D01*
X108335236Y-147904580D02*
X108382855Y-147809342D01*
X108382855Y-147809342D02*
X108430474Y-147618866D01*
X108430474Y-147618866D02*
X108430474Y-147380771D01*
X108430474Y-147380771D02*
X108382855Y-147190295D01*
X108382855Y-147190295D02*
X108335236Y-147095057D01*
X108335236Y-147095057D02*
X108287617Y-147047438D01*
X108287617Y-147047438D02*
X108192379Y-146999819D01*
X107430474Y-147618866D02*
X106668570Y-147618866D01*
X105668570Y-147999819D02*
X106239998Y-147999819D01*
X105954284Y-147999819D02*
X105954284Y-146999819D01*
X105954284Y-146999819D02*
X106049522Y-147142676D01*
X106049522Y-147142676D02*
X106144760Y-147237914D01*
X106144760Y-147237914D02*
X106239998Y-147285533D01*
X104716189Y-147999819D02*
X105287617Y-147999819D01*
X105001903Y-147999819D02*
X105001903Y-146999819D01*
X105001903Y-146999819D02*
X105097141Y-147142676D01*
X105097141Y-147142676D02*
X105192379Y-147237914D01*
X105192379Y-147237914D02*
X105287617Y-147285533D01*
X104287617Y-147618866D02*
X103525713Y-147618866D01*
X102859046Y-146999819D02*
X102763808Y-146999819D01*
X102763808Y-146999819D02*
X102668570Y-147047438D01*
X102668570Y-147047438D02*
X102620951Y-147095057D01*
X102620951Y-147095057D02*
X102573332Y-147190295D01*
X102573332Y-147190295D02*
X102525713Y-147380771D01*
X102525713Y-147380771D02*
X102525713Y-147618866D01*
X102525713Y-147618866D02*
X102573332Y-147809342D01*
X102573332Y-147809342D02*
X102620951Y-147904580D01*
X102620951Y-147904580D02*
X102668570Y-147952200D01*
X102668570Y-147952200D02*
X102763808Y-147999819D01*
X102763808Y-147999819D02*
X102859046Y-147999819D01*
X102859046Y-147999819D02*
X102954284Y-147952200D01*
X102954284Y-147952200D02*
X103001903Y-147904580D01*
X103001903Y-147904580D02*
X103049522Y-147809342D01*
X103049522Y-147809342D02*
X103097141Y-147618866D01*
X103097141Y-147618866D02*
X103097141Y-147380771D01*
X103097141Y-147380771D02*
X103049522Y-147190295D01*
X103049522Y-147190295D02*
X103001903Y-147095057D01*
X103001903Y-147095057D02*
X102954284Y-147047438D01*
X102954284Y-147047438D02*
X102859046Y-146999819D01*
X102097141Y-147618866D02*
X101335237Y-147618866D01*
X100335237Y-147047438D02*
X100430475Y-146999819D01*
X100430475Y-146999819D02*
X100573332Y-146999819D01*
X100573332Y-146999819D02*
X100716189Y-147047438D01*
X100716189Y-147047438D02*
X100811427Y-147142676D01*
X100811427Y-147142676D02*
X100859046Y-147237914D01*
X100859046Y-147237914D02*
X100906665Y-147428390D01*
X100906665Y-147428390D02*
X100906665Y-147571247D01*
X100906665Y-147571247D02*
X100859046Y-147761723D01*
X100859046Y-147761723D02*
X100811427Y-147856961D01*
X100811427Y-147856961D02*
X100716189Y-147952200D01*
X100716189Y-147952200D02*
X100573332Y-147999819D01*
X100573332Y-147999819D02*
X100478094Y-147999819D01*
X100478094Y-147999819D02*
X100335237Y-147952200D01*
X100335237Y-147952200D02*
X100287618Y-147904580D01*
X100287618Y-147904580D02*
X100287618Y-147571247D01*
X100287618Y-147571247D02*
X100478094Y-147571247D01*
X99859046Y-147999819D02*
X99859046Y-146999819D01*
X99859046Y-146999819D02*
X99287618Y-147999819D01*
X99287618Y-147999819D02*
X99287618Y-146999819D01*
X98811427Y-147999819D02*
X98811427Y-146999819D01*
X98811427Y-146999819D02*
X98573332Y-146999819D01*
X98573332Y-146999819D02*
X98430475Y-147047438D01*
X98430475Y-147047438D02*
X98335237Y-147142676D01*
X98335237Y-147142676D02*
X98287618Y-147237914D01*
X98287618Y-147237914D02*
X98239999Y-147428390D01*
X98239999Y-147428390D02*
X98239999Y-147571247D01*
X98239999Y-147571247D02*
X98287618Y-147761723D01*
X98287618Y-147761723D02*
X98335237Y-147856961D01*
X98335237Y-147856961D02*
X98430475Y-147952200D01*
X98430475Y-147952200D02*
X98573332Y-147999819D01*
X98573332Y-147999819D02*
X98811427Y-147999819D01*
D11*
X146702742Y-78493006D02*
X146702742Y-79235863D01*
X146702742Y-79235863D02*
X147159885Y-78835863D01*
X147159885Y-78835863D02*
X147159885Y-79007292D01*
X147159885Y-79007292D02*
X147217028Y-79121578D01*
X147217028Y-79121578D02*
X147274171Y-79178720D01*
X147274171Y-79178720D02*
X147388457Y-79235863D01*
X147388457Y-79235863D02*
X147674171Y-79235863D01*
X147674171Y-79235863D02*
X147788457Y-79178720D01*
X147788457Y-79178720D02*
X147845600Y-79121578D01*
X147845600Y-79121578D02*
X147902742Y-79007292D01*
X147902742Y-79007292D02*
X147902742Y-78664435D01*
X147902742Y-78664435D02*
X147845600Y-78550149D01*
X147845600Y-78550149D02*
X147788457Y-78493006D01*
X146702742Y-79578720D02*
X147902742Y-79978720D01*
X147902742Y-79978720D02*
X146702742Y-80378720D01*
X146702742Y-80664434D02*
X146702742Y-81407291D01*
X146702742Y-81407291D02*
X147159885Y-81007291D01*
X147159885Y-81007291D02*
X147159885Y-81178720D01*
X147159885Y-81178720D02*
X147217028Y-81293006D01*
X147217028Y-81293006D02*
X147274171Y-81350148D01*
X147274171Y-81350148D02*
X147388457Y-81407291D01*
X147388457Y-81407291D02*
X147674171Y-81407291D01*
X147674171Y-81407291D02*
X147788457Y-81350148D01*
X147788457Y-81350148D02*
X147845600Y-81293006D01*
X147845600Y-81293006D02*
X147902742Y-81178720D01*
X147902742Y-81178720D02*
X147902742Y-80835863D01*
X147902742Y-80835863D02*
X147845600Y-80721577D01*
X147845600Y-80721577D02*
X147788457Y-80664434D01*
D10*
X84282856Y-146696009D02*
X83949523Y-146696009D01*
X83806666Y-147219819D02*
X84282856Y-147219819D01*
X84282856Y-147219819D02*
X84282856Y-146219819D01*
X84282856Y-146219819D02*
X83806666Y-146219819D01*
X83473332Y-146219819D02*
X82806666Y-147219819D01*
X82806666Y-146219819D02*
X83473332Y-147219819D01*
X82568570Y-146219819D02*
X81997142Y-146219819D01*
X82282856Y-147219819D02*
X82282856Y-146219819D01*
X84354284Y-148544104D02*
X83878094Y-148544104D01*
X84449522Y-148829819D02*
X84116189Y-147829819D01*
X84116189Y-147829819D02*
X83782856Y-148829819D01*
X82973332Y-148829819D02*
X83449522Y-148829819D01*
X83449522Y-148829819D02*
X83449522Y-147829819D01*
X82116189Y-147877438D02*
X82211427Y-147829819D01*
X82211427Y-147829819D02*
X82354284Y-147829819D01*
X82354284Y-147829819D02*
X82497141Y-147877438D01*
X82497141Y-147877438D02*
X82592379Y-147972676D01*
X82592379Y-147972676D02*
X82639998Y-148067914D01*
X82639998Y-148067914D02*
X82687617Y-148258390D01*
X82687617Y-148258390D02*
X82687617Y-148401247D01*
X82687617Y-148401247D02*
X82639998Y-148591723D01*
X82639998Y-148591723D02*
X82592379Y-148686961D01*
X82592379Y-148686961D02*
X82497141Y-148782200D01*
X82497141Y-148782200D02*
X82354284Y-148829819D01*
X82354284Y-148829819D02*
X82259046Y-148829819D01*
X82259046Y-148829819D02*
X82116189Y-148782200D01*
X82116189Y-148782200D02*
X82068570Y-148734580D01*
X82068570Y-148734580D02*
X82068570Y-148401247D01*
X82068570Y-148401247D02*
X82259046Y-148401247D01*
X70054285Y-138859819D02*
X70530475Y-138859819D01*
X70530475Y-138859819D02*
X70578094Y-139336009D01*
X70578094Y-139336009D02*
X70530475Y-139288390D01*
X70530475Y-139288390D02*
X70435237Y-139240771D01*
X70435237Y-139240771D02*
X70197142Y-139240771D01*
X70197142Y-139240771D02*
X70101904Y-139288390D01*
X70101904Y-139288390D02*
X70054285Y-139336009D01*
X70054285Y-139336009D02*
X70006666Y-139431247D01*
X70006666Y-139431247D02*
X70006666Y-139669342D01*
X70006666Y-139669342D02*
X70054285Y-139764580D01*
X70054285Y-139764580D02*
X70101904Y-139812200D01*
X70101904Y-139812200D02*
X70197142Y-139859819D01*
X70197142Y-139859819D02*
X70435237Y-139859819D01*
X70435237Y-139859819D02*
X70530475Y-139812200D01*
X70530475Y-139812200D02*
X70578094Y-139764580D01*
X69720951Y-138859819D02*
X69387618Y-139859819D01*
X69387618Y-139859819D02*
X69054285Y-138859819D01*
X68006666Y-138812200D02*
X68863808Y-140097914D01*
X70673332Y-140469819D02*
X70339999Y-141469819D01*
X70339999Y-141469819D02*
X70006666Y-140469819D01*
X69101904Y-141374580D02*
X69149523Y-141422200D01*
X69149523Y-141422200D02*
X69292380Y-141469819D01*
X69292380Y-141469819D02*
X69387618Y-141469819D01*
X69387618Y-141469819D02*
X69530475Y-141422200D01*
X69530475Y-141422200D02*
X69625713Y-141326961D01*
X69625713Y-141326961D02*
X69673332Y-141231723D01*
X69673332Y-141231723D02*
X69720951Y-141041247D01*
X69720951Y-141041247D02*
X69720951Y-140898390D01*
X69720951Y-140898390D02*
X69673332Y-140707914D01*
X69673332Y-140707914D02*
X69625713Y-140612676D01*
X69625713Y-140612676D02*
X69530475Y-140517438D01*
X69530475Y-140517438D02*
X69387618Y-140469819D01*
X69387618Y-140469819D02*
X69292380Y-140469819D01*
X69292380Y-140469819D02*
X69149523Y-140517438D01*
X69149523Y-140517438D02*
X69101904Y-140565057D01*
X68101904Y-141374580D02*
X68149523Y-141422200D01*
X68149523Y-141422200D02*
X68292380Y-141469819D01*
X68292380Y-141469819D02*
X68387618Y-141469819D01*
X68387618Y-141469819D02*
X68530475Y-141422200D01*
X68530475Y-141422200D02*
X68625713Y-141326961D01*
X68625713Y-141326961D02*
X68673332Y-141231723D01*
X68673332Y-141231723D02*
X68720951Y-141041247D01*
X68720951Y-141041247D02*
X68720951Y-140898390D01*
X68720951Y-140898390D02*
X68673332Y-140707914D01*
X68673332Y-140707914D02*
X68625713Y-140612676D01*
X68625713Y-140612676D02*
X68530475Y-140517438D01*
X68530475Y-140517438D02*
X68387618Y-140469819D01*
X68387618Y-140469819D02*
X68292380Y-140469819D01*
X68292380Y-140469819D02*
X68149523Y-140517438D01*
X68149523Y-140517438D02*
X68101904Y-140565057D01*
X61762438Y-78860588D02*
X61714819Y-78765350D01*
X61714819Y-78765350D02*
X61714819Y-78622493D01*
X61714819Y-78622493D02*
X61762438Y-78479636D01*
X61762438Y-78479636D02*
X61857676Y-78384398D01*
X61857676Y-78384398D02*
X61952914Y-78336779D01*
X61952914Y-78336779D02*
X62143390Y-78289160D01*
X62143390Y-78289160D02*
X62286247Y-78289160D01*
X62286247Y-78289160D02*
X62476723Y-78336779D01*
X62476723Y-78336779D02*
X62571961Y-78384398D01*
X62571961Y-78384398D02*
X62667200Y-78479636D01*
X62667200Y-78479636D02*
X62714819Y-78622493D01*
X62714819Y-78622493D02*
X62714819Y-78717731D01*
X62714819Y-78717731D02*
X62667200Y-78860588D01*
X62667200Y-78860588D02*
X62619580Y-78908207D01*
X62619580Y-78908207D02*
X62286247Y-78908207D01*
X62286247Y-78908207D02*
X62286247Y-78717731D01*
X62714819Y-79336779D02*
X61714819Y-79336779D01*
X61714819Y-79336779D02*
X62714819Y-79908207D01*
X62714819Y-79908207D02*
X61714819Y-79908207D01*
X62714819Y-80384398D02*
X61714819Y-80384398D01*
X61714819Y-80384398D02*
X61714819Y-80622493D01*
X61714819Y-80622493D02*
X61762438Y-80765350D01*
X61762438Y-80765350D02*
X61857676Y-80860588D01*
X61857676Y-80860588D02*
X61952914Y-80908207D01*
X61952914Y-80908207D02*
X62143390Y-80955826D01*
X62143390Y-80955826D02*
X62286247Y-80955826D01*
X62286247Y-80955826D02*
X62476723Y-80908207D01*
X62476723Y-80908207D02*
X62571961Y-80860588D01*
X62571961Y-80860588D02*
X62667200Y-80765350D01*
X62667200Y-80765350D02*
X62714819Y-80622493D01*
X62714819Y-80622493D02*
X62714819Y-80384398D01*
X59174819Y-78241541D02*
X59174819Y-78860588D01*
X59174819Y-78860588D02*
X59555771Y-78527255D01*
X59555771Y-78527255D02*
X59555771Y-78670112D01*
X59555771Y-78670112D02*
X59603390Y-78765350D01*
X59603390Y-78765350D02*
X59651009Y-78812969D01*
X59651009Y-78812969D02*
X59746247Y-78860588D01*
X59746247Y-78860588D02*
X59984342Y-78860588D01*
X59984342Y-78860588D02*
X60079580Y-78812969D01*
X60079580Y-78812969D02*
X60127200Y-78765350D01*
X60127200Y-78765350D02*
X60174819Y-78670112D01*
X60174819Y-78670112D02*
X60174819Y-78384398D01*
X60174819Y-78384398D02*
X60127200Y-78289160D01*
X60127200Y-78289160D02*
X60079580Y-78241541D01*
X59174819Y-79146303D02*
X60174819Y-79479636D01*
X60174819Y-79479636D02*
X59174819Y-79812969D01*
X59174819Y-80051065D02*
X59174819Y-80670112D01*
X59174819Y-80670112D02*
X59555771Y-80336779D01*
X59555771Y-80336779D02*
X59555771Y-80479636D01*
X59555771Y-80479636D02*
X59603390Y-80574874D01*
X59603390Y-80574874D02*
X59651009Y-80622493D01*
X59651009Y-80622493D02*
X59746247Y-80670112D01*
X59746247Y-80670112D02*
X59984342Y-80670112D01*
X59984342Y-80670112D02*
X60079580Y-80622493D01*
X60079580Y-80622493D02*
X60127200Y-80574874D01*
X60127200Y-80574874D02*
X60174819Y-80479636D01*
X60174819Y-80479636D02*
X60174819Y-80193922D01*
X60174819Y-80193922D02*
X60127200Y-80098684D01*
X60127200Y-80098684D02*
X60079580Y-80051065D01*
X63220238Y-144209819D02*
X63696428Y-144209819D01*
X63696428Y-144209819D02*
X63696428Y-143209819D01*
X62982142Y-143209819D02*
X62315476Y-143209819D01*
X62315476Y-143209819D02*
X62744047Y-144209819D01*
X61791666Y-143638390D02*
X61886904Y-143590771D01*
X61886904Y-143590771D02*
X61934523Y-143543152D01*
X61934523Y-143543152D02*
X61982142Y-143447914D01*
X61982142Y-143447914D02*
X61982142Y-143400295D01*
X61982142Y-143400295D02*
X61934523Y-143305057D01*
X61934523Y-143305057D02*
X61886904Y-143257438D01*
X61886904Y-143257438D02*
X61791666Y-143209819D01*
X61791666Y-143209819D02*
X61601190Y-143209819D01*
X61601190Y-143209819D02*
X61505952Y-143257438D01*
X61505952Y-143257438D02*
X61458333Y-143305057D01*
X61458333Y-143305057D02*
X61410714Y-143400295D01*
X61410714Y-143400295D02*
X61410714Y-143447914D01*
X61410714Y-143447914D02*
X61458333Y-143543152D01*
X61458333Y-143543152D02*
X61505952Y-143590771D01*
X61505952Y-143590771D02*
X61601190Y-143638390D01*
X61601190Y-143638390D02*
X61791666Y-143638390D01*
X61791666Y-143638390D02*
X61886904Y-143686009D01*
X61886904Y-143686009D02*
X61934523Y-143733628D01*
X61934523Y-143733628D02*
X61982142Y-143828866D01*
X61982142Y-143828866D02*
X61982142Y-144019342D01*
X61982142Y-144019342D02*
X61934523Y-144114580D01*
X61934523Y-144114580D02*
X61886904Y-144162200D01*
X61886904Y-144162200D02*
X61791666Y-144209819D01*
X61791666Y-144209819D02*
X61601190Y-144209819D01*
X61601190Y-144209819D02*
X61505952Y-144162200D01*
X61505952Y-144162200D02*
X61458333Y-144114580D01*
X61458333Y-144114580D02*
X61410714Y-144019342D01*
X61410714Y-144019342D02*
X61410714Y-143828866D01*
X61410714Y-143828866D02*
X61458333Y-143733628D01*
X61458333Y-143733628D02*
X61505952Y-143686009D01*
X61505952Y-143686009D02*
X61601190Y-143638390D01*
X60791666Y-143209819D02*
X60696428Y-143209819D01*
X60696428Y-143209819D02*
X60601190Y-143257438D01*
X60601190Y-143257438D02*
X60553571Y-143305057D01*
X60553571Y-143305057D02*
X60505952Y-143400295D01*
X60505952Y-143400295D02*
X60458333Y-143590771D01*
X60458333Y-143590771D02*
X60458333Y-143828866D01*
X60458333Y-143828866D02*
X60505952Y-144019342D01*
X60505952Y-144019342D02*
X60553571Y-144114580D01*
X60553571Y-144114580D02*
X60601190Y-144162200D01*
X60601190Y-144162200D02*
X60696428Y-144209819D01*
X60696428Y-144209819D02*
X60791666Y-144209819D01*
X60791666Y-144209819D02*
X60886904Y-144162200D01*
X60886904Y-144162200D02*
X60934523Y-144114580D01*
X60934523Y-144114580D02*
X60982142Y-144019342D01*
X60982142Y-144019342D02*
X61029761Y-143828866D01*
X61029761Y-143828866D02*
X61029761Y-143590771D01*
X61029761Y-143590771D02*
X60982142Y-143400295D01*
X60982142Y-143400295D02*
X60934523Y-143305057D01*
X60934523Y-143305057D02*
X60886904Y-143257438D01*
X60886904Y-143257438D02*
X60791666Y-143209819D01*
X59553571Y-143209819D02*
X60029761Y-143209819D01*
X60029761Y-143209819D02*
X60077380Y-143686009D01*
X60077380Y-143686009D02*
X60029761Y-143638390D01*
X60029761Y-143638390D02*
X59934523Y-143590771D01*
X59934523Y-143590771D02*
X59696428Y-143590771D01*
X59696428Y-143590771D02*
X59601190Y-143638390D01*
X59601190Y-143638390D02*
X59553571Y-143686009D01*
X59553571Y-143686009D02*
X59505952Y-143781247D01*
X59505952Y-143781247D02*
X59505952Y-144019342D01*
X59505952Y-144019342D02*
X59553571Y-144114580D01*
X59553571Y-144114580D02*
X59601190Y-144162200D01*
X59601190Y-144162200D02*
X59696428Y-144209819D01*
X59696428Y-144209819D02*
X59934523Y-144209819D01*
X59934523Y-144209819D02*
X60029761Y-144162200D01*
X60029761Y-144162200D02*
X60077380Y-144114580D01*
D12*
%TO.C,J26*%
X58390000Y-77690000D02*
X58390000Y-75030000D01*
X94010000Y-77690000D02*
X58390000Y-77690000D01*
X94010000Y-77690000D02*
X94010000Y-75030000D01*
X96610000Y-76360000D02*
X96610000Y-75030000D01*
X94010000Y-75030000D02*
X58390000Y-75030000D01*
X96610000Y-75030000D02*
X95280000Y-75030000D01*
%TO.C,U6*%
X56505000Y-144884000D02*
X66745000Y-144884000D01*
X56505000Y-148015000D02*
X66745000Y-148015000D01*
X56505000Y-149525000D02*
X56505000Y-144884000D01*
X56505000Y-149525000D02*
X66745000Y-149525000D01*
X59775000Y-149525000D02*
X59775000Y-148015000D01*
X63476000Y-149525000D02*
X63476000Y-148015000D01*
X66745000Y-149525000D02*
X66745000Y-144884000D01*
%TO.C,J14*%
X58390000Y-103090000D02*
X58390000Y-100430000D01*
X94010000Y-103090000D02*
X58390000Y-103090000D01*
X94010000Y-103090000D02*
X94010000Y-100430000D01*
X96610000Y-101760000D02*
X96610000Y-100430000D01*
X94010000Y-100430000D02*
X58390000Y-100430000D01*
X96610000Y-100430000D02*
X95280000Y-100430000D01*
%TD*%
M02*
