%TF.GenerationSoftware,KiCad,Pcbnew,8.0.3*%
%TF.CreationDate,2024-06-30T10:59:25+01:00*%
%TF.ProjectId,Esp32EduModular-Acc-Panel+JST,45737033-3245-4647-954d-6f64756c6172,rev?*%
%TF.SameCoordinates,Original*%
%TF.FileFunction,Copper,L2,Bot*%
%TF.FilePolarity,Positive*%
%FSLAX46Y46*%
G04 Gerber Fmt 4.6, Leading zero omitted, Abs format (unit mm)*
G04 Created by KiCad (PCBNEW 8.0.3) date 2024-06-30 10:59:25*
%MOMM*%
%LPD*%
G01*
G04 APERTURE LIST*
%TA.AperFunction,SMDPad,CuDef*%
%ADD10R,4.000000X8.000000*%
%TD*%
G04 APERTURE END LIST*
D10*
%TO.P,REF\u002A\u002A,1*%
%TO.N,GND*%
X58000000Y-65000000D03*
%TD*%
%TA.AperFunction,Conductor*%
%TO.N,GND*%
G36*
X99943039Y-50057685D02*
G01*
X99988794Y-50110489D01*
X100000000Y-50162000D01*
X100000000Y-149736000D01*
X99980315Y-149803039D01*
X99927511Y-149848794D01*
X99876000Y-149860000D01*
X81124000Y-149860000D01*
X81056961Y-149840315D01*
X81011206Y-149787511D01*
X81000000Y-149736000D01*
X81000000Y-146874038D01*
X82399500Y-146874038D01*
X82399500Y-147125961D01*
X82438910Y-147374785D01*
X82516760Y-147614383D01*
X82631132Y-147838848D01*
X82779201Y-148042649D01*
X82779205Y-148042654D01*
X82957345Y-148220794D01*
X82957350Y-148220798D01*
X83135117Y-148349952D01*
X83161155Y-148368870D01*
X83304184Y-148441747D01*
X83385616Y-148483239D01*
X83385618Y-148483239D01*
X83385621Y-148483241D01*
X83625215Y-148561090D01*
X83874038Y-148600500D01*
X83874039Y-148600500D01*
X84125961Y-148600500D01*
X84125962Y-148600500D01*
X84374785Y-148561090D01*
X84614379Y-148483241D01*
X84838845Y-148368870D01*
X85042656Y-148220793D01*
X85220793Y-148042656D01*
X85368870Y-147838845D01*
X85483241Y-147614379D01*
X85561090Y-147374785D01*
X85600500Y-147125962D01*
X85600500Y-146874038D01*
X95399500Y-146874038D01*
X95399500Y-147125961D01*
X95438910Y-147374785D01*
X95516760Y-147614383D01*
X95631132Y-147838848D01*
X95779201Y-148042649D01*
X95779205Y-148042654D01*
X95957345Y-148220794D01*
X95957350Y-148220798D01*
X96135117Y-148349952D01*
X96161155Y-148368870D01*
X96304184Y-148441747D01*
X96385616Y-148483239D01*
X96385618Y-148483239D01*
X96385621Y-148483241D01*
X96625215Y-148561090D01*
X96874038Y-148600500D01*
X96874039Y-148600500D01*
X97125961Y-148600500D01*
X97125962Y-148600500D01*
X97374785Y-148561090D01*
X97614379Y-148483241D01*
X97838845Y-148368870D01*
X98042656Y-148220793D01*
X98220793Y-148042656D01*
X98368870Y-147838845D01*
X98483241Y-147614379D01*
X98561090Y-147374785D01*
X98600500Y-147125962D01*
X98600500Y-146874038D01*
X98561090Y-146625215D01*
X98483241Y-146385621D01*
X98483239Y-146385618D01*
X98483239Y-146385616D01*
X98441747Y-146304184D01*
X98368870Y-146161155D01*
X98349952Y-146135117D01*
X98220798Y-145957350D01*
X98220794Y-145957345D01*
X98042654Y-145779205D01*
X98042649Y-145779201D01*
X97838848Y-145631132D01*
X97838847Y-145631131D01*
X97838845Y-145631130D01*
X97768747Y-145595413D01*
X97614383Y-145516760D01*
X97374785Y-145438910D01*
X97125962Y-145399500D01*
X96874038Y-145399500D01*
X96749626Y-145419205D01*
X96625214Y-145438910D01*
X96385616Y-145516760D01*
X96161151Y-145631132D01*
X95957350Y-145779201D01*
X95957345Y-145779205D01*
X95779205Y-145957345D01*
X95779201Y-145957350D01*
X95631132Y-146161151D01*
X95516760Y-146385616D01*
X95438910Y-146625214D01*
X95399500Y-146874038D01*
X85600500Y-146874038D01*
X85561090Y-146625215D01*
X85483241Y-146385621D01*
X85483239Y-146385618D01*
X85483239Y-146385616D01*
X85441747Y-146304184D01*
X85368870Y-146161155D01*
X85349952Y-146135117D01*
X85220798Y-145957350D01*
X85220794Y-145957345D01*
X85042654Y-145779205D01*
X85042649Y-145779201D01*
X84838848Y-145631132D01*
X84838847Y-145631131D01*
X84838845Y-145631130D01*
X84768747Y-145595413D01*
X84614383Y-145516760D01*
X84374785Y-145438910D01*
X84125962Y-145399500D01*
X83874038Y-145399500D01*
X83749626Y-145419205D01*
X83625214Y-145438910D01*
X83385616Y-145516760D01*
X83161151Y-145631132D01*
X82957350Y-145779201D01*
X82957345Y-145779205D01*
X82779205Y-145957345D01*
X82779201Y-145957350D01*
X82631132Y-146161151D01*
X82516760Y-146385616D01*
X82438910Y-146625214D01*
X82399500Y-146874038D01*
X81000000Y-146874038D01*
X81000000Y-143400000D01*
X69000000Y-143400000D01*
X69000000Y-149736000D01*
X68980315Y-149803039D01*
X68927511Y-149848794D01*
X68876000Y-149860000D01*
X50162000Y-149860000D01*
X50094961Y-149840315D01*
X50049206Y-149787511D01*
X50038000Y-149736000D01*
X50038000Y-146874038D01*
X51399500Y-146874038D01*
X51399500Y-147125961D01*
X51438910Y-147374785D01*
X51516760Y-147614383D01*
X51631132Y-147838848D01*
X51779201Y-148042649D01*
X51779205Y-148042654D01*
X51957345Y-148220794D01*
X51957350Y-148220798D01*
X52135117Y-148349952D01*
X52161155Y-148368870D01*
X52304184Y-148441747D01*
X52385616Y-148483239D01*
X52385618Y-148483239D01*
X52385621Y-148483241D01*
X52625215Y-148561090D01*
X52874038Y-148600500D01*
X52874039Y-148600500D01*
X53125961Y-148600500D01*
X53125962Y-148600500D01*
X53374785Y-148561090D01*
X53614379Y-148483241D01*
X53838845Y-148368870D01*
X54042656Y-148220793D01*
X54220793Y-148042656D01*
X54368870Y-147838845D01*
X54483241Y-147614379D01*
X54561090Y-147374785D01*
X54600500Y-147125962D01*
X54600500Y-146874038D01*
X64399500Y-146874038D01*
X64399500Y-147125961D01*
X64438910Y-147374785D01*
X64516760Y-147614383D01*
X64631132Y-147838848D01*
X64779201Y-148042649D01*
X64779205Y-148042654D01*
X64957345Y-148220794D01*
X64957350Y-148220798D01*
X65135117Y-148349952D01*
X65161155Y-148368870D01*
X65304184Y-148441747D01*
X65385616Y-148483239D01*
X65385618Y-148483239D01*
X65385621Y-148483241D01*
X65625215Y-148561090D01*
X65874038Y-148600500D01*
X65874039Y-148600500D01*
X66125961Y-148600500D01*
X66125962Y-148600500D01*
X66374785Y-148561090D01*
X66614379Y-148483241D01*
X66838845Y-148368870D01*
X67042656Y-148220793D01*
X67220793Y-148042656D01*
X67368870Y-147838845D01*
X67483241Y-147614379D01*
X67561090Y-147374785D01*
X67600500Y-147125962D01*
X67600500Y-146874038D01*
X67561090Y-146625215D01*
X67483241Y-146385621D01*
X67483239Y-146385618D01*
X67483239Y-146385616D01*
X67441747Y-146304184D01*
X67368870Y-146161155D01*
X67349952Y-146135117D01*
X67220798Y-145957350D01*
X67220794Y-145957345D01*
X67042654Y-145779205D01*
X67042649Y-145779201D01*
X66838848Y-145631132D01*
X66838847Y-145631131D01*
X66838845Y-145631130D01*
X66768747Y-145595413D01*
X66614383Y-145516760D01*
X66374785Y-145438910D01*
X66125962Y-145399500D01*
X65874038Y-145399500D01*
X65749626Y-145419205D01*
X65625214Y-145438910D01*
X65385616Y-145516760D01*
X65161151Y-145631132D01*
X64957350Y-145779201D01*
X64957345Y-145779205D01*
X64779205Y-145957345D01*
X64779201Y-145957350D01*
X64631132Y-146161151D01*
X64516760Y-146385616D01*
X64438910Y-146625214D01*
X64399500Y-146874038D01*
X54600500Y-146874038D01*
X54561090Y-146625215D01*
X54483241Y-146385621D01*
X54483239Y-146385618D01*
X54483239Y-146385616D01*
X54441747Y-146304184D01*
X54368870Y-146161155D01*
X54349952Y-146135117D01*
X54220798Y-145957350D01*
X54220794Y-145957345D01*
X54042654Y-145779205D01*
X54042649Y-145779201D01*
X53838848Y-145631132D01*
X53838847Y-145631131D01*
X53838845Y-145631130D01*
X53768747Y-145595413D01*
X53614383Y-145516760D01*
X53374785Y-145438910D01*
X53125962Y-145399500D01*
X52874038Y-145399500D01*
X52749626Y-145419205D01*
X52625214Y-145438910D01*
X52385616Y-145516760D01*
X52161151Y-145631132D01*
X51957350Y-145779201D01*
X51957345Y-145779205D01*
X51779205Y-145957345D01*
X51779201Y-145957350D01*
X51631132Y-146161151D01*
X51516760Y-146385616D01*
X51438910Y-146625214D01*
X51399500Y-146874038D01*
X50038000Y-146874038D01*
X50038000Y-121000000D01*
X56997502Y-121000000D01*
X57017473Y-121489257D01*
X57077259Y-121975256D01*
X57077260Y-121975263D01*
X57131001Y-122235035D01*
X57176461Y-122454780D01*
X57176462Y-122454786D01*
X57314412Y-122924598D01*
X57314415Y-122924608D01*
X57490207Y-123381632D01*
X57702666Y-123822806D01*
X57859531Y-124090287D01*
X57950381Y-124245202D01*
X58231690Y-124645985D01*
X58231695Y-124645992D01*
X58544743Y-125022521D01*
X58544744Y-125022522D01*
X58719514Y-125200894D01*
X58887438Y-125372279D01*
X59257503Y-125692942D01*
X59652475Y-125982375D01*
X60069723Y-126238651D01*
X60506472Y-126460065D01*
X60959815Y-126645142D01*
X61426735Y-126792653D01*
X61904125Y-126901614D01*
X62388808Y-126971301D01*
X62877558Y-127001250D01*
X63367123Y-126991261D01*
X63854245Y-126941402D01*
X64335682Y-126852003D01*
X64808230Y-126723661D01*
X65268745Y-126557228D01*
X65714161Y-126353813D01*
X66141516Y-126114770D01*
X66547964Y-125841688D01*
X66930801Y-125536386D01*
X67287479Y-125200894D01*
X67615624Y-124837447D01*
X67913054Y-124448462D01*
X68177788Y-124036528D01*
X68408064Y-123604386D01*
X68602351Y-123154913D01*
X68759355Y-122691099D01*
X68878032Y-122216031D01*
X68957591Y-121732871D01*
X68997503Y-121244833D01*
X69000000Y-121000000D01*
X80747528Y-121000000D01*
X80767292Y-121496751D01*
X80767292Y-121496755D01*
X80767293Y-121496760D01*
X80824651Y-121975263D01*
X80826464Y-121990384D01*
X80924660Y-122477721D01*
X80924662Y-122477731D01*
X80924664Y-122477737D01*
X80985641Y-122691099D01*
X81061275Y-122955749D01*
X81235435Y-123421405D01*
X81341715Y-123648667D01*
X81446037Y-123871744D01*
X81691755Y-124303929D01*
X81971033Y-124715226D01*
X82282105Y-125103033D01*
X82623006Y-125464901D01*
X82701982Y-125536391D01*
X82991577Y-125798537D01*
X82991586Y-125798544D01*
X83385474Y-126101824D01*
X83385501Y-126101844D01*
X83802250Y-126372876D01*
X83802257Y-126372881D01*
X83802262Y-126372883D01*
X83802264Y-126372885D01*
X84239249Y-126609961D01*
X84693688Y-126811569D01*
X85162709Y-126976435D01*
X85162715Y-126976437D01*
X85643335Y-127103514D01*
X85643345Y-127103515D01*
X85643346Y-127103516D01*
X86132560Y-127192008D01*
X86627258Y-127241352D01*
X86751521Y-127243823D01*
X87124289Y-127251237D01*
X87124312Y-127251237D01*
X87124312Y-127251236D01*
X87124313Y-127251237D01*
X87620582Y-127221599D01*
X88112927Y-127152626D01*
X88598236Y-127044754D01*
X89073440Y-126898666D01*
X89535536Y-126715284D01*
X89981601Y-126495768D01*
X90408815Y-126241507D01*
X90605948Y-126101844D01*
X90814465Y-125954116D01*
X90814471Y-125954110D01*
X90814478Y-125954106D01*
X91196024Y-125635385D01*
X91551042Y-125287357D01*
X91877287Y-124912223D01*
X92172696Y-124512354D01*
X92435401Y-124090279D01*
X92663742Y-123648667D01*
X92856275Y-123190309D01*
X93011783Y-122718103D01*
X93129282Y-122235035D01*
X93208030Y-121744158D01*
X93247529Y-121248577D01*
X93250000Y-121000000D01*
X93247529Y-120751423D01*
X93208030Y-120255842D01*
X93129282Y-119764965D01*
X93011783Y-119281897D01*
X92856275Y-118809691D01*
X92663742Y-118351333D01*
X92435401Y-117909721D01*
X92172696Y-117487646D01*
X92172692Y-117487641D01*
X92172688Y-117487634D01*
X91877296Y-117087789D01*
X91877282Y-117087771D01*
X91551049Y-116712650D01*
X91369932Y-116535099D01*
X91196024Y-116364615D01*
X91127113Y-116307051D01*
X90814465Y-116045883D01*
X90408819Y-115758495D01*
X90408817Y-115758494D01*
X89981603Y-115504233D01*
X89981601Y-115504232D01*
X89535536Y-115284716D01*
X89514425Y-115276338D01*
X89073451Y-115101338D01*
X89073446Y-115101336D01*
X89073441Y-115101334D01*
X89073440Y-115101334D01*
X88820468Y-115023565D01*
X88598230Y-114955244D01*
X88598222Y-114955242D01*
X88112925Y-114847373D01*
X87620588Y-114778401D01*
X87620572Y-114778400D01*
X87124301Y-114748762D01*
X86627266Y-114758647D01*
X86429234Y-114778400D01*
X86132560Y-114807992D01*
X86132558Y-114807992D01*
X86132552Y-114807993D01*
X85643335Y-114896485D01*
X85162715Y-115023562D01*
X85162701Y-115023567D01*
X84693686Y-115188431D01*
X84693680Y-115188434D01*
X84239255Y-115390036D01*
X84239245Y-115390040D01*
X83802257Y-115627118D01*
X83802250Y-115627123D01*
X83385501Y-115898155D01*
X83385474Y-115898175D01*
X82991586Y-116201455D01*
X82991577Y-116201462D01*
X82701976Y-116463614D01*
X82623006Y-116535099D01*
X82535751Y-116627721D01*
X82282114Y-116896957D01*
X82282103Y-116896969D01*
X81971038Y-117284767D01*
X81971034Y-117284772D01*
X81691755Y-117696071D01*
X81446037Y-118128256D01*
X81446033Y-118128264D01*
X81446031Y-118128268D01*
X81235435Y-118578594D01*
X81061275Y-119044250D01*
X80924663Y-119522267D01*
X80924660Y-119522278D01*
X80871930Y-119783973D01*
X80826463Y-120009621D01*
X80795598Y-120267114D01*
X80767293Y-120503243D01*
X80767292Y-120503248D01*
X80747528Y-121000000D01*
X69000000Y-121000000D01*
X68997503Y-120755167D01*
X68957591Y-120267129D01*
X68878032Y-119783969D01*
X68759355Y-119308901D01*
X68602351Y-118845087D01*
X68408064Y-118395614D01*
X68177788Y-117963472D01*
X67913054Y-117551538D01*
X67615624Y-117162553D01*
X67548122Y-117087789D01*
X67287485Y-116799112D01*
X67006800Y-116535099D01*
X66930801Y-116463614D01*
X66930796Y-116463610D01*
X66930794Y-116463608D01*
X66547978Y-116158323D01*
X66547959Y-116158308D01*
X66141519Y-115885232D01*
X66141512Y-115885227D01*
X65714171Y-115646192D01*
X65714165Y-115646189D01*
X65714161Y-115646187D01*
X65268745Y-115442772D01*
X65268742Y-115442770D01*
X65268740Y-115442770D01*
X64808229Y-115276338D01*
X64335690Y-115147999D01*
X64335678Y-115147996D01*
X63854249Y-115058598D01*
X63663773Y-115039102D01*
X63367123Y-115008739D01*
X63367115Y-115008738D01*
X63367107Y-115008738D01*
X62877559Y-114998749D01*
X62388804Y-115028699D01*
X61904126Y-115098385D01*
X61426736Y-115207346D01*
X60959816Y-115354857D01*
X60506460Y-115539940D01*
X60069743Y-115761338D01*
X60069711Y-115761356D01*
X59652485Y-116017618D01*
X59652468Y-116017630D01*
X59257511Y-116307051D01*
X59257501Y-116307059D01*
X58887439Y-116627719D01*
X58544744Y-116977477D01*
X58544743Y-116977478D01*
X58231695Y-117354007D01*
X58231690Y-117354014D01*
X57950381Y-117754797D01*
X57702670Y-118177187D01*
X57702665Y-118177195D01*
X57490209Y-118618363D01*
X57314420Y-119075378D01*
X57314412Y-119075401D01*
X57176462Y-119545213D01*
X57176461Y-119545219D01*
X57176460Y-119545224D01*
X57080389Y-120009615D01*
X57077259Y-120024743D01*
X57017473Y-120510742D01*
X56997502Y-121000000D01*
X50038000Y-121000000D01*
X50038000Y-92840316D01*
X71749500Y-92840316D01*
X71749500Y-93159683D01*
X71780803Y-93477522D01*
X71843109Y-93790754D01*
X71935820Y-94096382D01*
X72058040Y-94391446D01*
X72058042Y-94391451D01*
X72208584Y-94673094D01*
X72208601Y-94673122D01*
X72386012Y-94938638D01*
X72386029Y-94938661D01*
X72588638Y-95185540D01*
X72814459Y-95411361D01*
X72814464Y-95411365D01*
X72814465Y-95411366D01*
X73061344Y-95613975D01*
X73061351Y-95613980D01*
X73061361Y-95613987D01*
X73326877Y-95791398D01*
X73326882Y-95791401D01*
X73326894Y-95791409D01*
X73326903Y-95791413D01*
X73326905Y-95791415D01*
X73608548Y-95941957D01*
X73608550Y-95941957D01*
X73608556Y-95941961D01*
X73903619Y-96064180D01*
X74209240Y-96156889D01*
X74522477Y-96219196D01*
X74840313Y-96250500D01*
X74840316Y-96250500D01*
X75159684Y-96250500D01*
X75159687Y-96250500D01*
X75477523Y-96219196D01*
X75790760Y-96156889D01*
X76096381Y-96064180D01*
X76391444Y-95941961D01*
X76673106Y-95791409D01*
X76938656Y-95613975D01*
X77185535Y-95411366D01*
X77411366Y-95185535D01*
X77613975Y-94938656D01*
X77791409Y-94673106D01*
X77941961Y-94391444D01*
X78064180Y-94096381D01*
X78156889Y-93790760D01*
X78219196Y-93477523D01*
X78250500Y-93159687D01*
X78250500Y-92840313D01*
X78219196Y-92522477D01*
X78156889Y-92209240D01*
X78064180Y-91903619D01*
X77941961Y-91608556D01*
X77791409Y-91326894D01*
X77791398Y-91326877D01*
X77613987Y-91061361D01*
X77613980Y-91061351D01*
X77613975Y-91061344D01*
X77411366Y-90814465D01*
X77411365Y-90814464D01*
X77411361Y-90814459D01*
X77185540Y-90588638D01*
X76938661Y-90386029D01*
X76938638Y-90386012D01*
X76673122Y-90208601D01*
X76673094Y-90208584D01*
X76391451Y-90058042D01*
X76391446Y-90058040D01*
X76096382Y-89935820D01*
X75790754Y-89843109D01*
X75477521Y-89780803D01*
X75477522Y-89780803D01*
X75238141Y-89757227D01*
X75159687Y-89749500D01*
X74840313Y-89749500D01*
X74767822Y-89756639D01*
X74522477Y-89780803D01*
X74209245Y-89843109D01*
X73903617Y-89935820D01*
X73608553Y-90058040D01*
X73608548Y-90058042D01*
X73326905Y-90208584D01*
X73326877Y-90208601D01*
X73061361Y-90386012D01*
X73061338Y-90386029D01*
X72814459Y-90588638D01*
X72588638Y-90814459D01*
X72386029Y-91061338D01*
X72386012Y-91061361D01*
X72208601Y-91326877D01*
X72208584Y-91326905D01*
X72058042Y-91608548D01*
X72058040Y-91608553D01*
X71935820Y-91903617D01*
X71843109Y-92209245D01*
X71780803Y-92522477D01*
X71749500Y-92840316D01*
X50038000Y-92840316D01*
X50038000Y-64805683D01*
X70549500Y-64805683D01*
X70549500Y-65194316D01*
X70583371Y-65581462D01*
X70583371Y-65581466D01*
X70650853Y-65964172D01*
X70650857Y-65964189D01*
X70751435Y-66339555D01*
X70884362Y-66704768D01*
X71048587Y-67056952D01*
X71048600Y-67056976D01*
X71242905Y-67393521D01*
X71242914Y-67393536D01*
X71465821Y-67711880D01*
X71656358Y-67938952D01*
X71715621Y-68009579D01*
X71990421Y-68284379D01*
X72096361Y-68373273D01*
X72288119Y-68534178D01*
X72288125Y-68534182D01*
X72288126Y-68534183D01*
X72606470Y-68757090D01*
X72921894Y-68939200D01*
X72943023Y-68951399D01*
X72943047Y-68951412D01*
X73295231Y-69115637D01*
X73295236Y-69115638D01*
X73295245Y-69115643D01*
X73660434Y-69248561D01*
X73660440Y-69248562D01*
X73660444Y-69248564D01*
X73762666Y-69275954D01*
X74035818Y-69349145D01*
X74418540Y-69416629D01*
X74805685Y-69450499D01*
X74805686Y-69450500D01*
X74805687Y-69450500D01*
X75194314Y-69450500D01*
X75194314Y-69450499D01*
X75581460Y-69416629D01*
X75964182Y-69349145D01*
X76339566Y-69248561D01*
X76704755Y-69115643D01*
X76704768Y-69115637D01*
X77056952Y-68951412D01*
X77056960Y-68951407D01*
X77056970Y-68951403D01*
X77393530Y-68757090D01*
X77711874Y-68534183D01*
X78009579Y-68284379D01*
X78284379Y-68009579D01*
X78534183Y-67711874D01*
X78757090Y-67393530D01*
X78951403Y-67056970D01*
X78951407Y-67056960D01*
X78951412Y-67056952D01*
X79115637Y-66704768D01*
X79115637Y-66704767D01*
X79115643Y-66704755D01*
X79248561Y-66339566D01*
X79349145Y-65964182D01*
X79416629Y-65581460D01*
X79450500Y-65194313D01*
X79450500Y-64805687D01*
X79416629Y-64418540D01*
X79349145Y-64035818D01*
X79248561Y-63660434D01*
X79115643Y-63295245D01*
X79115638Y-63295236D01*
X79115637Y-63295231D01*
X78951412Y-62943047D01*
X78951399Y-62943023D01*
X78939200Y-62921894D01*
X78757090Y-62606470D01*
X78534183Y-62288126D01*
X78534182Y-62288125D01*
X78534178Y-62288119D01*
X78284376Y-61990418D01*
X78009581Y-61715623D01*
X77711880Y-61465821D01*
X77393536Y-61242914D01*
X77393533Y-61242912D01*
X77393530Y-61242910D01*
X77293538Y-61185179D01*
X77056976Y-61048600D01*
X77056952Y-61048587D01*
X76704768Y-60884362D01*
X76704757Y-60884358D01*
X76704755Y-60884357D01*
X76339566Y-60751439D01*
X76339565Y-60751438D01*
X76339555Y-60751435D01*
X75964189Y-60650857D01*
X75964192Y-60650857D01*
X75964182Y-60650855D01*
X75964176Y-60650853D01*
X75964172Y-60650853D01*
X75581464Y-60583371D01*
X75194316Y-60549500D01*
X75194313Y-60549500D01*
X74805687Y-60549500D01*
X74805683Y-60549500D01*
X74418537Y-60583371D01*
X74418533Y-60583371D01*
X74035827Y-60650853D01*
X74035810Y-60650857D01*
X73660444Y-60751435D01*
X73295231Y-60884362D01*
X72943047Y-61048587D01*
X72943023Y-61048600D01*
X72606478Y-61242905D01*
X72606463Y-61242914D01*
X72288119Y-61465821D01*
X71990418Y-61715623D01*
X71715623Y-61990418D01*
X71465821Y-62288119D01*
X71242914Y-62606463D01*
X71242905Y-62606478D01*
X71048600Y-62943023D01*
X71048587Y-62943047D01*
X70884362Y-63295231D01*
X70751435Y-63660444D01*
X70650857Y-64035810D01*
X70650853Y-64035827D01*
X70583371Y-64418533D01*
X70583371Y-64418537D01*
X70549500Y-64805683D01*
X50038000Y-64805683D01*
X50038000Y-52874038D01*
X51399500Y-52874038D01*
X51399500Y-53125961D01*
X51438910Y-53374785D01*
X51516760Y-53614383D01*
X51631132Y-53838848D01*
X51779201Y-54042649D01*
X51779205Y-54042654D01*
X51957345Y-54220794D01*
X51957350Y-54220798D01*
X52135117Y-54349952D01*
X52161155Y-54368870D01*
X52304184Y-54441747D01*
X52385616Y-54483239D01*
X52385618Y-54483239D01*
X52385621Y-54483241D01*
X52625215Y-54561090D01*
X52874038Y-54600500D01*
X52874039Y-54600500D01*
X53125961Y-54600500D01*
X53125962Y-54600500D01*
X53374785Y-54561090D01*
X53614379Y-54483241D01*
X53838845Y-54368870D01*
X54042656Y-54220793D01*
X54220793Y-54042656D01*
X54368870Y-53838845D01*
X54483241Y-53614379D01*
X54561090Y-53374785D01*
X54600500Y-53125962D01*
X54600500Y-52874038D01*
X95399500Y-52874038D01*
X95399500Y-53125961D01*
X95438910Y-53374785D01*
X95516760Y-53614383D01*
X95631132Y-53838848D01*
X95779201Y-54042649D01*
X95779205Y-54042654D01*
X95957345Y-54220794D01*
X95957350Y-54220798D01*
X96135117Y-54349952D01*
X96161155Y-54368870D01*
X96304184Y-54441747D01*
X96385616Y-54483239D01*
X96385618Y-54483239D01*
X96385621Y-54483241D01*
X96625215Y-54561090D01*
X96874038Y-54600500D01*
X96874039Y-54600500D01*
X97125961Y-54600500D01*
X97125962Y-54600500D01*
X97374785Y-54561090D01*
X97614379Y-54483241D01*
X97838845Y-54368870D01*
X98042656Y-54220793D01*
X98220793Y-54042656D01*
X98368870Y-53838845D01*
X98483241Y-53614379D01*
X98561090Y-53374785D01*
X98600500Y-53125962D01*
X98600500Y-52874038D01*
X98561090Y-52625215D01*
X98483241Y-52385621D01*
X98483239Y-52385618D01*
X98483239Y-52385616D01*
X98441747Y-52304184D01*
X98368870Y-52161155D01*
X98349952Y-52135117D01*
X98220798Y-51957350D01*
X98220794Y-51957345D01*
X98042654Y-51779205D01*
X98042649Y-51779201D01*
X97838848Y-51631132D01*
X97838847Y-51631131D01*
X97838845Y-51631130D01*
X97768747Y-51595413D01*
X97614383Y-51516760D01*
X97374785Y-51438910D01*
X97125962Y-51399500D01*
X96874038Y-51399500D01*
X96749626Y-51419205D01*
X96625214Y-51438910D01*
X96385616Y-51516760D01*
X96161151Y-51631132D01*
X95957350Y-51779201D01*
X95957345Y-51779205D01*
X95779205Y-51957345D01*
X95779201Y-51957350D01*
X95631132Y-52161151D01*
X95516760Y-52385616D01*
X95438910Y-52625214D01*
X95399500Y-52874038D01*
X54600500Y-52874038D01*
X54561090Y-52625215D01*
X54483241Y-52385621D01*
X54483239Y-52385618D01*
X54483239Y-52385616D01*
X54441747Y-52304184D01*
X54368870Y-52161155D01*
X54349952Y-52135117D01*
X54220798Y-51957350D01*
X54220794Y-51957345D01*
X54042654Y-51779205D01*
X54042649Y-51779201D01*
X53838848Y-51631132D01*
X53838847Y-51631131D01*
X53838845Y-51631130D01*
X53768747Y-51595413D01*
X53614383Y-51516760D01*
X53374785Y-51438910D01*
X53125962Y-51399500D01*
X52874038Y-51399500D01*
X52749626Y-51419205D01*
X52625214Y-51438910D01*
X52385616Y-51516760D01*
X52161151Y-51631132D01*
X51957350Y-51779201D01*
X51957345Y-51779205D01*
X51779205Y-51957345D01*
X51779201Y-51957350D01*
X51631132Y-52161151D01*
X51516760Y-52385616D01*
X51438910Y-52625214D01*
X51399500Y-52874038D01*
X50038000Y-52874038D01*
X50038000Y-50162000D01*
X50057685Y-50094961D01*
X50110489Y-50049206D01*
X50162000Y-50038000D01*
X99876000Y-50038000D01*
X99943039Y-50057685D01*
G37*
%TD.AperFunction*%
%TD*%
M02*
