M48
; DRILL file {KiCad 7.0.9} date Fri May  3 11:46:23 2024
; FORMAT={-:-/ absolute / inch / decimal}
; #@! TF.CreationDate,2024-05-03T11:46:23+01:00
; #@! TF.GenerationSoftware,Kicad,Pcbnew,7.0.9
; #@! TF.FileFunction,MixedPlating,1,2
FMAT,2
INCH
; #@! TA.AperFunction,Plated,PTH,ComponentDrill
T1C0.0315
%
G90
G05
T1
X1.9685Y-1.9685
X1.9685Y-2.0685
X1.9685Y-2.1685
X1.9685Y-2.2685
X1.9685Y-2.3685
X1.9685Y-2.4685
X1.9685Y-2.5685
X1.9685Y-2.6685
X1.9685Y-2.7685
X1.9685Y-2.8685
X1.9685Y-2.9685
X1.9685Y-3.0685
X2.1193Y-1.9705
X2.1193Y-2.0705
X2.1193Y-2.1705
X2.1193Y-2.2705
X2.1193Y-2.3705
X2.1193Y-2.4705
X2.1193Y-2.5705
X2.1193Y-2.6705
X2.1193Y-2.7705
X2.1193Y-2.8705
X2.1193Y-2.9705
X2.1193Y-3.0705
X2.4193Y-1.9705
X2.4193Y-2.0705
X2.4193Y-2.1705
X2.4193Y-2.2705
X2.4193Y-2.3705
X2.4193Y-2.4705
X2.4193Y-2.5705
X2.4193Y-2.6705
X2.4193Y-2.7705
X2.4193Y-2.8705
X2.4193Y-2.9705
X2.4193Y-3.0705
X2.5685Y-1.9685
X2.5685Y-2.0685
X2.5685Y-2.1685
X2.5685Y-2.2685
X2.5685Y-2.3685
X2.5685Y-2.4685
X2.5685Y-2.5685
X2.5685Y-2.6685
X2.5685Y-2.7685
X2.5685Y-2.8685
X2.5685Y-2.9685
X2.5685Y-3.0685
X2.8346Y-1.9685
X2.8346Y-2.0685
X2.8346Y-2.1685
X2.8346Y-2.2685
X2.8346Y-2.3685
X2.8346Y-2.4685
X2.8346Y-2.5685
X2.8346Y-2.6685
X2.8346Y-2.7685
X2.8346Y-2.8685
X2.8346Y-2.9685
X2.8346Y-3.0685
X2.9854Y-1.9705
X2.9854Y-2.0705
X2.9854Y-2.1705
X2.9854Y-2.2705
X2.9854Y-2.3705
X2.9854Y-2.4705
X2.9854Y-2.5705
X2.9854Y-2.6705
X2.9854Y-2.7705
X2.9854Y-2.8705
X2.9854Y-2.9705
X2.9854Y-3.0705
X3.2854Y-1.9705
X3.2854Y-2.0705
X3.2854Y-2.1705
X3.2854Y-2.2705
X3.2854Y-2.3705
X3.2854Y-2.4705
X3.2854Y-2.5705
X3.2854Y-2.6705
X3.2854Y-2.7705
X3.2854Y-2.8705
X3.2854Y-2.9705
X3.2854Y-3.0705
X3.4346Y-1.9685
X3.4346Y-2.0685
X3.4346Y-2.1685
X3.4346Y-2.2685
X3.4346Y-2.3685
X3.4346Y-2.4685
X3.4346Y-2.5685
X3.4346Y-2.6685
X3.4346Y-2.7685
X3.4346Y-2.8685
X3.4346Y-2.9685
X3.4346Y-3.0685
X3.7008Y-1.9685
X3.7008Y-2.0685
X3.7008Y-2.1685
X3.7008Y-2.2685
X3.7008Y-2.3685
X3.7008Y-2.4685
X3.7008Y-2.5685
X3.7008Y-2.6685
X3.7008Y-2.7685
X3.7008Y-2.8685
X3.7008Y-2.9685
X3.7008Y-3.0685
X3.8516Y-1.9705
X3.8516Y-2.0705
X3.8516Y-2.1705
X3.8516Y-2.2705
X3.8516Y-2.3705
X3.8516Y-2.4705
X3.8516Y-2.5705
X3.8516Y-2.6705
X3.8516Y-2.7705
X3.8516Y-2.8705
X3.8516Y-2.9705
X3.8516Y-3.0705
X4.1516Y-1.9705
X4.1516Y-2.0705
X4.1516Y-2.1705
X4.1516Y-2.2705
X4.1516Y-2.3705
X4.1516Y-2.4705
X4.1516Y-2.5705
X4.1516Y-2.6705
X4.1516Y-2.7705
X4.1516Y-2.8705
X4.1516Y-2.9705
X4.1516Y-3.0705
X4.3008Y-1.9685
X4.3008Y-2.0685
X4.3008Y-2.1685
X4.3008Y-2.2685
X4.3008Y-2.3685
X4.3008Y-2.4685
X4.3008Y-2.5685
X4.3008Y-2.6685
X4.3008Y-2.7685
X4.3008Y-2.8685
X4.3008Y-2.9685
X4.3008Y-3.0685
T0
M30
