%TF.GenerationSoftware,KiCad,Pcbnew,7.0.9*%
%TF.CreationDate,2024-05-03T11:46:21+01:00*%
%TF.ProjectId,DIP24Converter,44495032-3443-46f6-9e76-65727465722e,rev?*%
%TF.SameCoordinates,Original*%
%TF.FileFunction,Legend,Top*%
%TF.FilePolarity,Positive*%
%FSLAX46Y46*%
G04 Gerber Fmt 4.6, Leading zero omitted, Abs format (unit mm)*
G04 Created by KiCad (PCBNEW 7.0.9) date 2024-05-03 11:46:21*
%MOMM*%
%LPD*%
G01*
G04 APERTURE LIST*
%ADD10C,0.150000*%
%ADD11C,0.120000*%
G04 APERTURE END LIST*
D10*
X99495057Y-72851904D02*
X99447438Y-72804285D01*
X99447438Y-72804285D02*
X99399819Y-72709047D01*
X99399819Y-72709047D02*
X99399819Y-72470952D01*
X99399819Y-72470952D02*
X99447438Y-72375714D01*
X99447438Y-72375714D02*
X99495057Y-72328095D01*
X99495057Y-72328095D02*
X99590295Y-72280476D01*
X99590295Y-72280476D02*
X99685533Y-72280476D01*
X99685533Y-72280476D02*
X99828390Y-72328095D01*
X99828390Y-72328095D02*
X100399819Y-72899523D01*
X100399819Y-72899523D02*
X100399819Y-72280476D01*
X99733152Y-71423333D02*
X100399819Y-71423333D01*
X99352200Y-71661428D02*
X100066485Y-71899523D01*
X100066485Y-71899523D02*
X100066485Y-71280476D01*
X100018866Y-70899523D02*
X100018866Y-70137619D01*
X100399819Y-69661428D02*
X99399819Y-69661428D01*
X99399819Y-69661428D02*
X99399819Y-69423333D01*
X99399819Y-69423333D02*
X99447438Y-69280476D01*
X99447438Y-69280476D02*
X99542676Y-69185238D01*
X99542676Y-69185238D02*
X99637914Y-69137619D01*
X99637914Y-69137619D02*
X99828390Y-69090000D01*
X99828390Y-69090000D02*
X99971247Y-69090000D01*
X99971247Y-69090000D02*
X100161723Y-69137619D01*
X100161723Y-69137619D02*
X100256961Y-69185238D01*
X100256961Y-69185238D02*
X100352200Y-69280476D01*
X100352200Y-69280476D02*
X100399819Y-69423333D01*
X100399819Y-69423333D02*
X100399819Y-69661428D01*
X100399819Y-68661428D02*
X99399819Y-68661428D01*
X100399819Y-68185238D02*
X99399819Y-68185238D01*
X99399819Y-68185238D02*
X99399819Y-67804286D01*
X99399819Y-67804286D02*
X99447438Y-67709048D01*
X99447438Y-67709048D02*
X99495057Y-67661429D01*
X99495057Y-67661429D02*
X99590295Y-67613810D01*
X99590295Y-67613810D02*
X99733152Y-67613810D01*
X99733152Y-67613810D02*
X99828390Y-67661429D01*
X99828390Y-67661429D02*
X99876009Y-67709048D01*
X99876009Y-67709048D02*
X99923628Y-67804286D01*
X99923628Y-67804286D02*
X99923628Y-68185238D01*
X100399819Y-66423333D02*
X99399819Y-66423333D01*
X99399819Y-66423333D02*
X100399819Y-65851905D01*
X100399819Y-65851905D02*
X99399819Y-65851905D01*
X100399819Y-64947143D02*
X99876009Y-64947143D01*
X99876009Y-64947143D02*
X99780771Y-64994762D01*
X99780771Y-64994762D02*
X99733152Y-65090000D01*
X99733152Y-65090000D02*
X99733152Y-65280476D01*
X99733152Y-65280476D02*
X99780771Y-65375714D01*
X100352200Y-64947143D02*
X100399819Y-65042381D01*
X100399819Y-65042381D02*
X100399819Y-65280476D01*
X100399819Y-65280476D02*
X100352200Y-65375714D01*
X100352200Y-65375714D02*
X100256961Y-65423333D01*
X100256961Y-65423333D02*
X100161723Y-65423333D01*
X100161723Y-65423333D02*
X100066485Y-65375714D01*
X100066485Y-65375714D02*
X100018866Y-65280476D01*
X100018866Y-65280476D02*
X100018866Y-65042381D01*
X100018866Y-65042381D02*
X99971247Y-64947143D01*
X100399819Y-64470952D02*
X99733152Y-64470952D01*
X99923628Y-64470952D02*
X99828390Y-64423333D01*
X99828390Y-64423333D02*
X99780771Y-64375714D01*
X99780771Y-64375714D02*
X99733152Y-64280476D01*
X99733152Y-64280476D02*
X99733152Y-64185238D01*
X100399819Y-63851904D02*
X99733152Y-63851904D01*
X99923628Y-63851904D02*
X99828390Y-63804285D01*
X99828390Y-63804285D02*
X99780771Y-63756666D01*
X99780771Y-63756666D02*
X99733152Y-63661428D01*
X99733152Y-63661428D02*
X99733152Y-63566190D01*
X100399819Y-63089999D02*
X100352200Y-63185237D01*
X100352200Y-63185237D02*
X100304580Y-63232856D01*
X100304580Y-63232856D02*
X100209342Y-63280475D01*
X100209342Y-63280475D02*
X99923628Y-63280475D01*
X99923628Y-63280475D02*
X99828390Y-63232856D01*
X99828390Y-63232856D02*
X99780771Y-63185237D01*
X99780771Y-63185237D02*
X99733152Y-63089999D01*
X99733152Y-63089999D02*
X99733152Y-62947142D01*
X99733152Y-62947142D02*
X99780771Y-62851904D01*
X99780771Y-62851904D02*
X99828390Y-62804285D01*
X99828390Y-62804285D02*
X99923628Y-62756666D01*
X99923628Y-62756666D02*
X100209342Y-62756666D01*
X100209342Y-62756666D02*
X100304580Y-62804285D01*
X100304580Y-62804285D02*
X100352200Y-62851904D01*
X100352200Y-62851904D02*
X100399819Y-62947142D01*
X100399819Y-62947142D02*
X100399819Y-63089999D01*
X99733152Y-62423332D02*
X100399819Y-62232856D01*
X100399819Y-62232856D02*
X99923628Y-62042380D01*
X99923628Y-62042380D02*
X100399819Y-61851904D01*
X100399819Y-61851904D02*
X99733152Y-61661428D01*
X99733152Y-60661427D02*
X99733152Y-60280475D01*
X99399819Y-60518570D02*
X100256961Y-60518570D01*
X100256961Y-60518570D02*
X100352200Y-60470951D01*
X100352200Y-60470951D02*
X100399819Y-60375713D01*
X100399819Y-60375713D02*
X100399819Y-60280475D01*
X100399819Y-59804284D02*
X100352200Y-59899522D01*
X100352200Y-59899522D02*
X100304580Y-59947141D01*
X100304580Y-59947141D02*
X100209342Y-59994760D01*
X100209342Y-59994760D02*
X99923628Y-59994760D01*
X99923628Y-59994760D02*
X99828390Y-59947141D01*
X99828390Y-59947141D02*
X99780771Y-59899522D01*
X99780771Y-59899522D02*
X99733152Y-59804284D01*
X99733152Y-59804284D02*
X99733152Y-59661427D01*
X99733152Y-59661427D02*
X99780771Y-59566189D01*
X99780771Y-59566189D02*
X99828390Y-59518570D01*
X99828390Y-59518570D02*
X99923628Y-59470951D01*
X99923628Y-59470951D02*
X100209342Y-59470951D01*
X100209342Y-59470951D02*
X100304580Y-59518570D01*
X100304580Y-59518570D02*
X100352200Y-59566189D01*
X100352200Y-59566189D02*
X100399819Y-59661427D01*
X100399819Y-59661427D02*
X100399819Y-59804284D01*
X99399819Y-58375712D02*
X100399819Y-58137617D01*
X100399819Y-58137617D02*
X99685533Y-57947141D01*
X99685533Y-57947141D02*
X100399819Y-57756665D01*
X100399819Y-57756665D02*
X99399819Y-57518570D01*
X100399819Y-57137617D02*
X99733152Y-57137617D01*
X99399819Y-57137617D02*
X99447438Y-57185236D01*
X99447438Y-57185236D02*
X99495057Y-57137617D01*
X99495057Y-57137617D02*
X99447438Y-57089998D01*
X99447438Y-57089998D02*
X99399819Y-57137617D01*
X99399819Y-57137617D02*
X99495057Y-57137617D01*
X100399819Y-56232856D02*
X99399819Y-56232856D01*
X100352200Y-56232856D02*
X100399819Y-56328094D01*
X100399819Y-56328094D02*
X100399819Y-56518570D01*
X100399819Y-56518570D02*
X100352200Y-56613808D01*
X100352200Y-56613808D02*
X100304580Y-56661427D01*
X100304580Y-56661427D02*
X100209342Y-56709046D01*
X100209342Y-56709046D02*
X99923628Y-56709046D01*
X99923628Y-56709046D02*
X99828390Y-56661427D01*
X99828390Y-56661427D02*
X99780771Y-56613808D01*
X99780771Y-56613808D02*
X99733152Y-56518570D01*
X99733152Y-56518570D02*
X99733152Y-56328094D01*
X99733152Y-56328094D02*
X99780771Y-56232856D01*
X100352200Y-55375713D02*
X100399819Y-55470951D01*
X100399819Y-55470951D02*
X100399819Y-55661427D01*
X100399819Y-55661427D02*
X100352200Y-55756665D01*
X100352200Y-55756665D02*
X100256961Y-55804284D01*
X100256961Y-55804284D02*
X99876009Y-55804284D01*
X99876009Y-55804284D02*
X99780771Y-55756665D01*
X99780771Y-55756665D02*
X99733152Y-55661427D01*
X99733152Y-55661427D02*
X99733152Y-55470951D01*
X99733152Y-55470951D02*
X99780771Y-55375713D01*
X99780771Y-55375713D02*
X99876009Y-55328094D01*
X99876009Y-55328094D02*
X99971247Y-55328094D01*
X99971247Y-55328094D02*
X100066485Y-55804284D01*
X101914580Y-66828096D02*
X101962200Y-66875715D01*
X101962200Y-66875715D02*
X102009819Y-67018572D01*
X102009819Y-67018572D02*
X102009819Y-67113810D01*
X102009819Y-67113810D02*
X101962200Y-67256667D01*
X101962200Y-67256667D02*
X101866961Y-67351905D01*
X101866961Y-67351905D02*
X101771723Y-67399524D01*
X101771723Y-67399524D02*
X101581247Y-67447143D01*
X101581247Y-67447143D02*
X101438390Y-67447143D01*
X101438390Y-67447143D02*
X101247914Y-67399524D01*
X101247914Y-67399524D02*
X101152676Y-67351905D01*
X101152676Y-67351905D02*
X101057438Y-67256667D01*
X101057438Y-67256667D02*
X101009819Y-67113810D01*
X101009819Y-67113810D02*
X101009819Y-67018572D01*
X101009819Y-67018572D02*
X101057438Y-66875715D01*
X101057438Y-66875715D02*
X101105057Y-66828096D01*
X102009819Y-66256667D02*
X101962200Y-66351905D01*
X101962200Y-66351905D02*
X101914580Y-66399524D01*
X101914580Y-66399524D02*
X101819342Y-66447143D01*
X101819342Y-66447143D02*
X101533628Y-66447143D01*
X101533628Y-66447143D02*
X101438390Y-66399524D01*
X101438390Y-66399524D02*
X101390771Y-66351905D01*
X101390771Y-66351905D02*
X101343152Y-66256667D01*
X101343152Y-66256667D02*
X101343152Y-66113810D01*
X101343152Y-66113810D02*
X101390771Y-66018572D01*
X101390771Y-66018572D02*
X101438390Y-65970953D01*
X101438390Y-65970953D02*
X101533628Y-65923334D01*
X101533628Y-65923334D02*
X101819342Y-65923334D01*
X101819342Y-65923334D02*
X101914580Y-65970953D01*
X101914580Y-65970953D02*
X101962200Y-66018572D01*
X101962200Y-66018572D02*
X102009819Y-66113810D01*
X102009819Y-66113810D02*
X102009819Y-66256667D01*
X101343152Y-65494762D02*
X102009819Y-65494762D01*
X101438390Y-65494762D02*
X101390771Y-65447143D01*
X101390771Y-65447143D02*
X101343152Y-65351905D01*
X101343152Y-65351905D02*
X101343152Y-65209048D01*
X101343152Y-65209048D02*
X101390771Y-65113810D01*
X101390771Y-65113810D02*
X101486009Y-65066191D01*
X101486009Y-65066191D02*
X102009819Y-65066191D01*
X101343152Y-64685238D02*
X102009819Y-64447143D01*
X102009819Y-64447143D02*
X101343152Y-64209048D01*
X101962200Y-63447143D02*
X102009819Y-63542381D01*
X102009819Y-63542381D02*
X102009819Y-63732857D01*
X102009819Y-63732857D02*
X101962200Y-63828095D01*
X101962200Y-63828095D02*
X101866961Y-63875714D01*
X101866961Y-63875714D02*
X101486009Y-63875714D01*
X101486009Y-63875714D02*
X101390771Y-63828095D01*
X101390771Y-63828095D02*
X101343152Y-63732857D01*
X101343152Y-63732857D02*
X101343152Y-63542381D01*
X101343152Y-63542381D02*
X101390771Y-63447143D01*
X101390771Y-63447143D02*
X101486009Y-63399524D01*
X101486009Y-63399524D02*
X101581247Y-63399524D01*
X101581247Y-63399524D02*
X101676485Y-63875714D01*
X102009819Y-62970952D02*
X101343152Y-62970952D01*
X101533628Y-62970952D02*
X101438390Y-62923333D01*
X101438390Y-62923333D02*
X101390771Y-62875714D01*
X101390771Y-62875714D02*
X101343152Y-62780476D01*
X101343152Y-62780476D02*
X101343152Y-62685238D01*
X101343152Y-62494761D02*
X101343152Y-62113809D01*
X101009819Y-62351904D02*
X101866961Y-62351904D01*
X101866961Y-62351904D02*
X101962200Y-62304285D01*
X101962200Y-62304285D02*
X102009819Y-62209047D01*
X102009819Y-62209047D02*
X102009819Y-62113809D01*
X101962200Y-61399523D02*
X102009819Y-61494761D01*
X102009819Y-61494761D02*
X102009819Y-61685237D01*
X102009819Y-61685237D02*
X101962200Y-61780475D01*
X101962200Y-61780475D02*
X101866961Y-61828094D01*
X101866961Y-61828094D02*
X101486009Y-61828094D01*
X101486009Y-61828094D02*
X101390771Y-61780475D01*
X101390771Y-61780475D02*
X101343152Y-61685237D01*
X101343152Y-61685237D02*
X101343152Y-61494761D01*
X101343152Y-61494761D02*
X101390771Y-61399523D01*
X101390771Y-61399523D02*
X101486009Y-61351904D01*
X101486009Y-61351904D02*
X101581247Y-61351904D01*
X101581247Y-61351904D02*
X101676485Y-61828094D01*
X102009819Y-60923332D02*
X101343152Y-60923332D01*
X101533628Y-60923332D02*
X101438390Y-60875713D01*
X101438390Y-60875713D02*
X101390771Y-60828094D01*
X101390771Y-60828094D02*
X101343152Y-60732856D01*
X101343152Y-60732856D02*
X101343152Y-60637618D01*
X104000771Y-69542381D02*
X103953152Y-69590000D01*
X103953152Y-69590000D02*
X103810295Y-69685238D01*
X103810295Y-69685238D02*
X103715057Y-69732857D01*
X103715057Y-69732857D02*
X103572200Y-69780476D01*
X103572200Y-69780476D02*
X103334104Y-69828095D01*
X103334104Y-69828095D02*
X103143628Y-69828095D01*
X103143628Y-69828095D02*
X102905533Y-69780476D01*
X102905533Y-69780476D02*
X102762676Y-69732857D01*
X102762676Y-69732857D02*
X102667438Y-69685238D01*
X102667438Y-69685238D02*
X102524580Y-69590000D01*
X102524580Y-69590000D02*
X102476961Y-69542381D01*
X103619819Y-69161428D02*
X102619819Y-69161428D01*
X102619819Y-69161428D02*
X102619819Y-68780476D01*
X102619819Y-68780476D02*
X102667438Y-68685238D01*
X102667438Y-68685238D02*
X102715057Y-68637619D01*
X102715057Y-68637619D02*
X102810295Y-68590000D01*
X102810295Y-68590000D02*
X102953152Y-68590000D01*
X102953152Y-68590000D02*
X103048390Y-68637619D01*
X103048390Y-68637619D02*
X103096009Y-68685238D01*
X103096009Y-68685238D02*
X103143628Y-68780476D01*
X103143628Y-68780476D02*
X103143628Y-69161428D01*
X103619819Y-68161428D02*
X102953152Y-68161428D01*
X102619819Y-68161428D02*
X102667438Y-68209047D01*
X102667438Y-68209047D02*
X102715057Y-68161428D01*
X102715057Y-68161428D02*
X102667438Y-68113809D01*
X102667438Y-68113809D02*
X102619819Y-68161428D01*
X102619819Y-68161428D02*
X102715057Y-68161428D01*
X102953152Y-67685238D02*
X103619819Y-67685238D01*
X103048390Y-67685238D02*
X103000771Y-67637619D01*
X103000771Y-67637619D02*
X102953152Y-67542381D01*
X102953152Y-67542381D02*
X102953152Y-67399524D01*
X102953152Y-67399524D02*
X103000771Y-67304286D01*
X103000771Y-67304286D02*
X103096009Y-67256667D01*
X103096009Y-67256667D02*
X103619819Y-67256667D01*
X103572200Y-66828095D02*
X103619819Y-66732857D01*
X103619819Y-66732857D02*
X103619819Y-66542381D01*
X103619819Y-66542381D02*
X103572200Y-66447143D01*
X103572200Y-66447143D02*
X103476961Y-66399524D01*
X103476961Y-66399524D02*
X103429342Y-66399524D01*
X103429342Y-66399524D02*
X103334104Y-66447143D01*
X103334104Y-66447143D02*
X103286485Y-66542381D01*
X103286485Y-66542381D02*
X103286485Y-66685238D01*
X103286485Y-66685238D02*
X103238866Y-66780476D01*
X103238866Y-66780476D02*
X103143628Y-66828095D01*
X103143628Y-66828095D02*
X103096009Y-66828095D01*
X103096009Y-66828095D02*
X103000771Y-66780476D01*
X103000771Y-66780476D02*
X102953152Y-66685238D01*
X102953152Y-66685238D02*
X102953152Y-66542381D01*
X102953152Y-66542381D02*
X103000771Y-66447143D01*
X103619819Y-64637619D02*
X103143628Y-64970952D01*
X103619819Y-65209047D02*
X102619819Y-65209047D01*
X102619819Y-65209047D02*
X102619819Y-64828095D01*
X102619819Y-64828095D02*
X102667438Y-64732857D01*
X102667438Y-64732857D02*
X102715057Y-64685238D01*
X102715057Y-64685238D02*
X102810295Y-64637619D01*
X102810295Y-64637619D02*
X102953152Y-64637619D01*
X102953152Y-64637619D02*
X103048390Y-64685238D01*
X103048390Y-64685238D02*
X103096009Y-64732857D01*
X103096009Y-64732857D02*
X103143628Y-64828095D01*
X103143628Y-64828095D02*
X103143628Y-65209047D01*
X103572200Y-63828095D02*
X103619819Y-63923333D01*
X103619819Y-63923333D02*
X103619819Y-64113809D01*
X103619819Y-64113809D02*
X103572200Y-64209047D01*
X103572200Y-64209047D02*
X103476961Y-64256666D01*
X103476961Y-64256666D02*
X103096009Y-64256666D01*
X103096009Y-64256666D02*
X103000771Y-64209047D01*
X103000771Y-64209047D02*
X102953152Y-64113809D01*
X102953152Y-64113809D02*
X102953152Y-63923333D01*
X102953152Y-63923333D02*
X103000771Y-63828095D01*
X103000771Y-63828095D02*
X103096009Y-63780476D01*
X103096009Y-63780476D02*
X103191247Y-63780476D01*
X103191247Y-63780476D02*
X103286485Y-64256666D01*
X102953152Y-63447142D02*
X103619819Y-63209047D01*
X103619819Y-63209047D02*
X102953152Y-62970952D01*
X103572200Y-62209047D02*
X103619819Y-62304285D01*
X103619819Y-62304285D02*
X103619819Y-62494761D01*
X103619819Y-62494761D02*
X103572200Y-62589999D01*
X103572200Y-62589999D02*
X103476961Y-62637618D01*
X103476961Y-62637618D02*
X103096009Y-62637618D01*
X103096009Y-62637618D02*
X103000771Y-62589999D01*
X103000771Y-62589999D02*
X102953152Y-62494761D01*
X102953152Y-62494761D02*
X102953152Y-62304285D01*
X102953152Y-62304285D02*
X103000771Y-62209047D01*
X103000771Y-62209047D02*
X103096009Y-62161428D01*
X103096009Y-62161428D02*
X103191247Y-62161428D01*
X103191247Y-62161428D02*
X103286485Y-62637618D01*
X103619819Y-61732856D02*
X102953152Y-61732856D01*
X103143628Y-61732856D02*
X103048390Y-61685237D01*
X103048390Y-61685237D02*
X103000771Y-61637618D01*
X103000771Y-61637618D02*
X102953152Y-61542380D01*
X102953152Y-61542380D02*
X102953152Y-61447142D01*
X103572200Y-61161427D02*
X103619819Y-61066189D01*
X103619819Y-61066189D02*
X103619819Y-60875713D01*
X103619819Y-60875713D02*
X103572200Y-60780475D01*
X103572200Y-60780475D02*
X103476961Y-60732856D01*
X103476961Y-60732856D02*
X103429342Y-60732856D01*
X103429342Y-60732856D02*
X103334104Y-60780475D01*
X103334104Y-60780475D02*
X103286485Y-60875713D01*
X103286485Y-60875713D02*
X103286485Y-61018570D01*
X103286485Y-61018570D02*
X103238866Y-61113808D01*
X103238866Y-61113808D02*
X103143628Y-61161427D01*
X103143628Y-61161427D02*
X103096009Y-61161427D01*
X103096009Y-61161427D02*
X103000771Y-61113808D01*
X103000771Y-61113808D02*
X102953152Y-61018570D01*
X102953152Y-61018570D02*
X102953152Y-60875713D01*
X102953152Y-60875713D02*
X103000771Y-60780475D01*
X103572200Y-59923332D02*
X103619819Y-60018570D01*
X103619819Y-60018570D02*
X103619819Y-60209046D01*
X103619819Y-60209046D02*
X103572200Y-60304284D01*
X103572200Y-60304284D02*
X103476961Y-60351903D01*
X103476961Y-60351903D02*
X103096009Y-60351903D01*
X103096009Y-60351903D02*
X103000771Y-60304284D01*
X103000771Y-60304284D02*
X102953152Y-60209046D01*
X102953152Y-60209046D02*
X102953152Y-60018570D01*
X102953152Y-60018570D02*
X103000771Y-59923332D01*
X103000771Y-59923332D02*
X103096009Y-59875713D01*
X103096009Y-59875713D02*
X103191247Y-59875713D01*
X103191247Y-59875713D02*
X103286485Y-60351903D01*
X103619819Y-59018570D02*
X102619819Y-59018570D01*
X103572200Y-59018570D02*
X103619819Y-59113808D01*
X103619819Y-59113808D02*
X103619819Y-59304284D01*
X103619819Y-59304284D02*
X103572200Y-59399522D01*
X103572200Y-59399522D02*
X103524580Y-59447141D01*
X103524580Y-59447141D02*
X103429342Y-59494760D01*
X103429342Y-59494760D02*
X103143628Y-59494760D01*
X103143628Y-59494760D02*
X103048390Y-59447141D01*
X103048390Y-59447141D02*
X103000771Y-59399522D01*
X103000771Y-59399522D02*
X102953152Y-59304284D01*
X102953152Y-59304284D02*
X102953152Y-59113808D01*
X102953152Y-59113808D02*
X103000771Y-59018570D01*
X104000771Y-58637617D02*
X103953152Y-58589998D01*
X103953152Y-58589998D02*
X103810295Y-58494760D01*
X103810295Y-58494760D02*
X103715057Y-58447141D01*
X103715057Y-58447141D02*
X103572200Y-58399522D01*
X103572200Y-58399522D02*
X103334104Y-58351903D01*
X103334104Y-58351903D02*
X103143628Y-58351903D01*
X103143628Y-58351903D02*
X102905533Y-58399522D01*
X102905533Y-58399522D02*
X102762676Y-58447141D01*
X102762676Y-58447141D02*
X102667438Y-58494760D01*
X102667438Y-58494760D02*
X102524580Y-58589998D01*
X102524580Y-58589998D02*
X102476961Y-58637617D01*
X77495057Y-72851904D02*
X77447438Y-72804285D01*
X77447438Y-72804285D02*
X77399819Y-72709047D01*
X77399819Y-72709047D02*
X77399819Y-72470952D01*
X77399819Y-72470952D02*
X77447438Y-72375714D01*
X77447438Y-72375714D02*
X77495057Y-72328095D01*
X77495057Y-72328095D02*
X77590295Y-72280476D01*
X77590295Y-72280476D02*
X77685533Y-72280476D01*
X77685533Y-72280476D02*
X77828390Y-72328095D01*
X77828390Y-72328095D02*
X78399819Y-72899523D01*
X78399819Y-72899523D02*
X78399819Y-72280476D01*
X77733152Y-71423333D02*
X78399819Y-71423333D01*
X77352200Y-71661428D02*
X78066485Y-71899523D01*
X78066485Y-71899523D02*
X78066485Y-71280476D01*
X78018866Y-70899523D02*
X78018866Y-70137619D01*
X78399819Y-69661428D02*
X77399819Y-69661428D01*
X77399819Y-69661428D02*
X77399819Y-69423333D01*
X77399819Y-69423333D02*
X77447438Y-69280476D01*
X77447438Y-69280476D02*
X77542676Y-69185238D01*
X77542676Y-69185238D02*
X77637914Y-69137619D01*
X77637914Y-69137619D02*
X77828390Y-69090000D01*
X77828390Y-69090000D02*
X77971247Y-69090000D01*
X77971247Y-69090000D02*
X78161723Y-69137619D01*
X78161723Y-69137619D02*
X78256961Y-69185238D01*
X78256961Y-69185238D02*
X78352200Y-69280476D01*
X78352200Y-69280476D02*
X78399819Y-69423333D01*
X78399819Y-69423333D02*
X78399819Y-69661428D01*
X78399819Y-68661428D02*
X77399819Y-68661428D01*
X78399819Y-68185238D02*
X77399819Y-68185238D01*
X77399819Y-68185238D02*
X77399819Y-67804286D01*
X77399819Y-67804286D02*
X77447438Y-67709048D01*
X77447438Y-67709048D02*
X77495057Y-67661429D01*
X77495057Y-67661429D02*
X77590295Y-67613810D01*
X77590295Y-67613810D02*
X77733152Y-67613810D01*
X77733152Y-67613810D02*
X77828390Y-67661429D01*
X77828390Y-67661429D02*
X77876009Y-67709048D01*
X77876009Y-67709048D02*
X77923628Y-67804286D01*
X77923628Y-67804286D02*
X77923628Y-68185238D01*
X78399819Y-66423333D02*
X77399819Y-66423333D01*
X77399819Y-66423333D02*
X78399819Y-65851905D01*
X78399819Y-65851905D02*
X77399819Y-65851905D01*
X78399819Y-64947143D02*
X77876009Y-64947143D01*
X77876009Y-64947143D02*
X77780771Y-64994762D01*
X77780771Y-64994762D02*
X77733152Y-65090000D01*
X77733152Y-65090000D02*
X77733152Y-65280476D01*
X77733152Y-65280476D02*
X77780771Y-65375714D01*
X78352200Y-64947143D02*
X78399819Y-65042381D01*
X78399819Y-65042381D02*
X78399819Y-65280476D01*
X78399819Y-65280476D02*
X78352200Y-65375714D01*
X78352200Y-65375714D02*
X78256961Y-65423333D01*
X78256961Y-65423333D02*
X78161723Y-65423333D01*
X78161723Y-65423333D02*
X78066485Y-65375714D01*
X78066485Y-65375714D02*
X78018866Y-65280476D01*
X78018866Y-65280476D02*
X78018866Y-65042381D01*
X78018866Y-65042381D02*
X77971247Y-64947143D01*
X78399819Y-64470952D02*
X77733152Y-64470952D01*
X77923628Y-64470952D02*
X77828390Y-64423333D01*
X77828390Y-64423333D02*
X77780771Y-64375714D01*
X77780771Y-64375714D02*
X77733152Y-64280476D01*
X77733152Y-64280476D02*
X77733152Y-64185238D01*
X78399819Y-63851904D02*
X77733152Y-63851904D01*
X77923628Y-63851904D02*
X77828390Y-63804285D01*
X77828390Y-63804285D02*
X77780771Y-63756666D01*
X77780771Y-63756666D02*
X77733152Y-63661428D01*
X77733152Y-63661428D02*
X77733152Y-63566190D01*
X78399819Y-63089999D02*
X78352200Y-63185237D01*
X78352200Y-63185237D02*
X78304580Y-63232856D01*
X78304580Y-63232856D02*
X78209342Y-63280475D01*
X78209342Y-63280475D02*
X77923628Y-63280475D01*
X77923628Y-63280475D02*
X77828390Y-63232856D01*
X77828390Y-63232856D02*
X77780771Y-63185237D01*
X77780771Y-63185237D02*
X77733152Y-63089999D01*
X77733152Y-63089999D02*
X77733152Y-62947142D01*
X77733152Y-62947142D02*
X77780771Y-62851904D01*
X77780771Y-62851904D02*
X77828390Y-62804285D01*
X77828390Y-62804285D02*
X77923628Y-62756666D01*
X77923628Y-62756666D02*
X78209342Y-62756666D01*
X78209342Y-62756666D02*
X78304580Y-62804285D01*
X78304580Y-62804285D02*
X78352200Y-62851904D01*
X78352200Y-62851904D02*
X78399819Y-62947142D01*
X78399819Y-62947142D02*
X78399819Y-63089999D01*
X77733152Y-62423332D02*
X78399819Y-62232856D01*
X78399819Y-62232856D02*
X77923628Y-62042380D01*
X77923628Y-62042380D02*
X78399819Y-61851904D01*
X78399819Y-61851904D02*
X77733152Y-61661428D01*
X77733152Y-60661427D02*
X77733152Y-60280475D01*
X77399819Y-60518570D02*
X78256961Y-60518570D01*
X78256961Y-60518570D02*
X78352200Y-60470951D01*
X78352200Y-60470951D02*
X78399819Y-60375713D01*
X78399819Y-60375713D02*
X78399819Y-60280475D01*
X78399819Y-59804284D02*
X78352200Y-59899522D01*
X78352200Y-59899522D02*
X78304580Y-59947141D01*
X78304580Y-59947141D02*
X78209342Y-59994760D01*
X78209342Y-59994760D02*
X77923628Y-59994760D01*
X77923628Y-59994760D02*
X77828390Y-59947141D01*
X77828390Y-59947141D02*
X77780771Y-59899522D01*
X77780771Y-59899522D02*
X77733152Y-59804284D01*
X77733152Y-59804284D02*
X77733152Y-59661427D01*
X77733152Y-59661427D02*
X77780771Y-59566189D01*
X77780771Y-59566189D02*
X77828390Y-59518570D01*
X77828390Y-59518570D02*
X77923628Y-59470951D01*
X77923628Y-59470951D02*
X78209342Y-59470951D01*
X78209342Y-59470951D02*
X78304580Y-59518570D01*
X78304580Y-59518570D02*
X78352200Y-59566189D01*
X78352200Y-59566189D02*
X78399819Y-59661427D01*
X78399819Y-59661427D02*
X78399819Y-59804284D01*
X77399819Y-58375712D02*
X78399819Y-58137617D01*
X78399819Y-58137617D02*
X77685533Y-57947141D01*
X77685533Y-57947141D02*
X78399819Y-57756665D01*
X78399819Y-57756665D02*
X77399819Y-57518570D01*
X78399819Y-57137617D02*
X77733152Y-57137617D01*
X77399819Y-57137617D02*
X77447438Y-57185236D01*
X77447438Y-57185236D02*
X77495057Y-57137617D01*
X77495057Y-57137617D02*
X77447438Y-57089998D01*
X77447438Y-57089998D02*
X77399819Y-57137617D01*
X77399819Y-57137617D02*
X77495057Y-57137617D01*
X78399819Y-56232856D02*
X77399819Y-56232856D01*
X78352200Y-56232856D02*
X78399819Y-56328094D01*
X78399819Y-56328094D02*
X78399819Y-56518570D01*
X78399819Y-56518570D02*
X78352200Y-56613808D01*
X78352200Y-56613808D02*
X78304580Y-56661427D01*
X78304580Y-56661427D02*
X78209342Y-56709046D01*
X78209342Y-56709046D02*
X77923628Y-56709046D01*
X77923628Y-56709046D02*
X77828390Y-56661427D01*
X77828390Y-56661427D02*
X77780771Y-56613808D01*
X77780771Y-56613808D02*
X77733152Y-56518570D01*
X77733152Y-56518570D02*
X77733152Y-56328094D01*
X77733152Y-56328094D02*
X77780771Y-56232856D01*
X78352200Y-55375713D02*
X78399819Y-55470951D01*
X78399819Y-55470951D02*
X78399819Y-55661427D01*
X78399819Y-55661427D02*
X78352200Y-55756665D01*
X78352200Y-55756665D02*
X78256961Y-55804284D01*
X78256961Y-55804284D02*
X77876009Y-55804284D01*
X77876009Y-55804284D02*
X77780771Y-55756665D01*
X77780771Y-55756665D02*
X77733152Y-55661427D01*
X77733152Y-55661427D02*
X77733152Y-55470951D01*
X77733152Y-55470951D02*
X77780771Y-55375713D01*
X77780771Y-55375713D02*
X77876009Y-55328094D01*
X77876009Y-55328094D02*
X77971247Y-55328094D01*
X77971247Y-55328094D02*
X78066485Y-55804284D01*
X79914580Y-66828096D02*
X79962200Y-66875715D01*
X79962200Y-66875715D02*
X80009819Y-67018572D01*
X80009819Y-67018572D02*
X80009819Y-67113810D01*
X80009819Y-67113810D02*
X79962200Y-67256667D01*
X79962200Y-67256667D02*
X79866961Y-67351905D01*
X79866961Y-67351905D02*
X79771723Y-67399524D01*
X79771723Y-67399524D02*
X79581247Y-67447143D01*
X79581247Y-67447143D02*
X79438390Y-67447143D01*
X79438390Y-67447143D02*
X79247914Y-67399524D01*
X79247914Y-67399524D02*
X79152676Y-67351905D01*
X79152676Y-67351905D02*
X79057438Y-67256667D01*
X79057438Y-67256667D02*
X79009819Y-67113810D01*
X79009819Y-67113810D02*
X79009819Y-67018572D01*
X79009819Y-67018572D02*
X79057438Y-66875715D01*
X79057438Y-66875715D02*
X79105057Y-66828096D01*
X80009819Y-66256667D02*
X79962200Y-66351905D01*
X79962200Y-66351905D02*
X79914580Y-66399524D01*
X79914580Y-66399524D02*
X79819342Y-66447143D01*
X79819342Y-66447143D02*
X79533628Y-66447143D01*
X79533628Y-66447143D02*
X79438390Y-66399524D01*
X79438390Y-66399524D02*
X79390771Y-66351905D01*
X79390771Y-66351905D02*
X79343152Y-66256667D01*
X79343152Y-66256667D02*
X79343152Y-66113810D01*
X79343152Y-66113810D02*
X79390771Y-66018572D01*
X79390771Y-66018572D02*
X79438390Y-65970953D01*
X79438390Y-65970953D02*
X79533628Y-65923334D01*
X79533628Y-65923334D02*
X79819342Y-65923334D01*
X79819342Y-65923334D02*
X79914580Y-65970953D01*
X79914580Y-65970953D02*
X79962200Y-66018572D01*
X79962200Y-66018572D02*
X80009819Y-66113810D01*
X80009819Y-66113810D02*
X80009819Y-66256667D01*
X79343152Y-65494762D02*
X80009819Y-65494762D01*
X79438390Y-65494762D02*
X79390771Y-65447143D01*
X79390771Y-65447143D02*
X79343152Y-65351905D01*
X79343152Y-65351905D02*
X79343152Y-65209048D01*
X79343152Y-65209048D02*
X79390771Y-65113810D01*
X79390771Y-65113810D02*
X79486009Y-65066191D01*
X79486009Y-65066191D02*
X80009819Y-65066191D01*
X79343152Y-64685238D02*
X80009819Y-64447143D01*
X80009819Y-64447143D02*
X79343152Y-64209048D01*
X79962200Y-63447143D02*
X80009819Y-63542381D01*
X80009819Y-63542381D02*
X80009819Y-63732857D01*
X80009819Y-63732857D02*
X79962200Y-63828095D01*
X79962200Y-63828095D02*
X79866961Y-63875714D01*
X79866961Y-63875714D02*
X79486009Y-63875714D01*
X79486009Y-63875714D02*
X79390771Y-63828095D01*
X79390771Y-63828095D02*
X79343152Y-63732857D01*
X79343152Y-63732857D02*
X79343152Y-63542381D01*
X79343152Y-63542381D02*
X79390771Y-63447143D01*
X79390771Y-63447143D02*
X79486009Y-63399524D01*
X79486009Y-63399524D02*
X79581247Y-63399524D01*
X79581247Y-63399524D02*
X79676485Y-63875714D01*
X80009819Y-62970952D02*
X79343152Y-62970952D01*
X79533628Y-62970952D02*
X79438390Y-62923333D01*
X79438390Y-62923333D02*
X79390771Y-62875714D01*
X79390771Y-62875714D02*
X79343152Y-62780476D01*
X79343152Y-62780476D02*
X79343152Y-62685238D01*
X79343152Y-62494761D02*
X79343152Y-62113809D01*
X79009819Y-62351904D02*
X79866961Y-62351904D01*
X79866961Y-62351904D02*
X79962200Y-62304285D01*
X79962200Y-62304285D02*
X80009819Y-62209047D01*
X80009819Y-62209047D02*
X80009819Y-62113809D01*
X79962200Y-61399523D02*
X80009819Y-61494761D01*
X80009819Y-61494761D02*
X80009819Y-61685237D01*
X80009819Y-61685237D02*
X79962200Y-61780475D01*
X79962200Y-61780475D02*
X79866961Y-61828094D01*
X79866961Y-61828094D02*
X79486009Y-61828094D01*
X79486009Y-61828094D02*
X79390771Y-61780475D01*
X79390771Y-61780475D02*
X79343152Y-61685237D01*
X79343152Y-61685237D02*
X79343152Y-61494761D01*
X79343152Y-61494761D02*
X79390771Y-61399523D01*
X79390771Y-61399523D02*
X79486009Y-61351904D01*
X79486009Y-61351904D02*
X79581247Y-61351904D01*
X79581247Y-61351904D02*
X79676485Y-61828094D01*
X80009819Y-60923332D02*
X79343152Y-60923332D01*
X79533628Y-60923332D02*
X79438390Y-60875713D01*
X79438390Y-60875713D02*
X79390771Y-60828094D01*
X79390771Y-60828094D02*
X79343152Y-60732856D01*
X79343152Y-60732856D02*
X79343152Y-60637618D01*
X82000771Y-69542381D02*
X81953152Y-69590000D01*
X81953152Y-69590000D02*
X81810295Y-69685238D01*
X81810295Y-69685238D02*
X81715057Y-69732857D01*
X81715057Y-69732857D02*
X81572200Y-69780476D01*
X81572200Y-69780476D02*
X81334104Y-69828095D01*
X81334104Y-69828095D02*
X81143628Y-69828095D01*
X81143628Y-69828095D02*
X80905533Y-69780476D01*
X80905533Y-69780476D02*
X80762676Y-69732857D01*
X80762676Y-69732857D02*
X80667438Y-69685238D01*
X80667438Y-69685238D02*
X80524580Y-69590000D01*
X80524580Y-69590000D02*
X80476961Y-69542381D01*
X81619819Y-69161428D02*
X80619819Y-69161428D01*
X80619819Y-69161428D02*
X80619819Y-68780476D01*
X80619819Y-68780476D02*
X80667438Y-68685238D01*
X80667438Y-68685238D02*
X80715057Y-68637619D01*
X80715057Y-68637619D02*
X80810295Y-68590000D01*
X80810295Y-68590000D02*
X80953152Y-68590000D01*
X80953152Y-68590000D02*
X81048390Y-68637619D01*
X81048390Y-68637619D02*
X81096009Y-68685238D01*
X81096009Y-68685238D02*
X81143628Y-68780476D01*
X81143628Y-68780476D02*
X81143628Y-69161428D01*
X81619819Y-68161428D02*
X80953152Y-68161428D01*
X80619819Y-68161428D02*
X80667438Y-68209047D01*
X80667438Y-68209047D02*
X80715057Y-68161428D01*
X80715057Y-68161428D02*
X80667438Y-68113809D01*
X80667438Y-68113809D02*
X80619819Y-68161428D01*
X80619819Y-68161428D02*
X80715057Y-68161428D01*
X80953152Y-67685238D02*
X81619819Y-67685238D01*
X81048390Y-67685238D02*
X81000771Y-67637619D01*
X81000771Y-67637619D02*
X80953152Y-67542381D01*
X80953152Y-67542381D02*
X80953152Y-67399524D01*
X80953152Y-67399524D02*
X81000771Y-67304286D01*
X81000771Y-67304286D02*
X81096009Y-67256667D01*
X81096009Y-67256667D02*
X81619819Y-67256667D01*
X81572200Y-66828095D02*
X81619819Y-66732857D01*
X81619819Y-66732857D02*
X81619819Y-66542381D01*
X81619819Y-66542381D02*
X81572200Y-66447143D01*
X81572200Y-66447143D02*
X81476961Y-66399524D01*
X81476961Y-66399524D02*
X81429342Y-66399524D01*
X81429342Y-66399524D02*
X81334104Y-66447143D01*
X81334104Y-66447143D02*
X81286485Y-66542381D01*
X81286485Y-66542381D02*
X81286485Y-66685238D01*
X81286485Y-66685238D02*
X81238866Y-66780476D01*
X81238866Y-66780476D02*
X81143628Y-66828095D01*
X81143628Y-66828095D02*
X81096009Y-66828095D01*
X81096009Y-66828095D02*
X81000771Y-66780476D01*
X81000771Y-66780476D02*
X80953152Y-66685238D01*
X80953152Y-66685238D02*
X80953152Y-66542381D01*
X80953152Y-66542381D02*
X81000771Y-66447143D01*
X81619819Y-64637619D02*
X81143628Y-64970952D01*
X81619819Y-65209047D02*
X80619819Y-65209047D01*
X80619819Y-65209047D02*
X80619819Y-64828095D01*
X80619819Y-64828095D02*
X80667438Y-64732857D01*
X80667438Y-64732857D02*
X80715057Y-64685238D01*
X80715057Y-64685238D02*
X80810295Y-64637619D01*
X80810295Y-64637619D02*
X80953152Y-64637619D01*
X80953152Y-64637619D02*
X81048390Y-64685238D01*
X81048390Y-64685238D02*
X81096009Y-64732857D01*
X81096009Y-64732857D02*
X81143628Y-64828095D01*
X81143628Y-64828095D02*
X81143628Y-65209047D01*
X81572200Y-63828095D02*
X81619819Y-63923333D01*
X81619819Y-63923333D02*
X81619819Y-64113809D01*
X81619819Y-64113809D02*
X81572200Y-64209047D01*
X81572200Y-64209047D02*
X81476961Y-64256666D01*
X81476961Y-64256666D02*
X81096009Y-64256666D01*
X81096009Y-64256666D02*
X81000771Y-64209047D01*
X81000771Y-64209047D02*
X80953152Y-64113809D01*
X80953152Y-64113809D02*
X80953152Y-63923333D01*
X80953152Y-63923333D02*
X81000771Y-63828095D01*
X81000771Y-63828095D02*
X81096009Y-63780476D01*
X81096009Y-63780476D02*
X81191247Y-63780476D01*
X81191247Y-63780476D02*
X81286485Y-64256666D01*
X80953152Y-63447142D02*
X81619819Y-63209047D01*
X81619819Y-63209047D02*
X80953152Y-62970952D01*
X81572200Y-62209047D02*
X81619819Y-62304285D01*
X81619819Y-62304285D02*
X81619819Y-62494761D01*
X81619819Y-62494761D02*
X81572200Y-62589999D01*
X81572200Y-62589999D02*
X81476961Y-62637618D01*
X81476961Y-62637618D02*
X81096009Y-62637618D01*
X81096009Y-62637618D02*
X81000771Y-62589999D01*
X81000771Y-62589999D02*
X80953152Y-62494761D01*
X80953152Y-62494761D02*
X80953152Y-62304285D01*
X80953152Y-62304285D02*
X81000771Y-62209047D01*
X81000771Y-62209047D02*
X81096009Y-62161428D01*
X81096009Y-62161428D02*
X81191247Y-62161428D01*
X81191247Y-62161428D02*
X81286485Y-62637618D01*
X81619819Y-61732856D02*
X80953152Y-61732856D01*
X81143628Y-61732856D02*
X81048390Y-61685237D01*
X81048390Y-61685237D02*
X81000771Y-61637618D01*
X81000771Y-61637618D02*
X80953152Y-61542380D01*
X80953152Y-61542380D02*
X80953152Y-61447142D01*
X81572200Y-61161427D02*
X81619819Y-61066189D01*
X81619819Y-61066189D02*
X81619819Y-60875713D01*
X81619819Y-60875713D02*
X81572200Y-60780475D01*
X81572200Y-60780475D02*
X81476961Y-60732856D01*
X81476961Y-60732856D02*
X81429342Y-60732856D01*
X81429342Y-60732856D02*
X81334104Y-60780475D01*
X81334104Y-60780475D02*
X81286485Y-60875713D01*
X81286485Y-60875713D02*
X81286485Y-61018570D01*
X81286485Y-61018570D02*
X81238866Y-61113808D01*
X81238866Y-61113808D02*
X81143628Y-61161427D01*
X81143628Y-61161427D02*
X81096009Y-61161427D01*
X81096009Y-61161427D02*
X81000771Y-61113808D01*
X81000771Y-61113808D02*
X80953152Y-61018570D01*
X80953152Y-61018570D02*
X80953152Y-60875713D01*
X80953152Y-60875713D02*
X81000771Y-60780475D01*
X81572200Y-59923332D02*
X81619819Y-60018570D01*
X81619819Y-60018570D02*
X81619819Y-60209046D01*
X81619819Y-60209046D02*
X81572200Y-60304284D01*
X81572200Y-60304284D02*
X81476961Y-60351903D01*
X81476961Y-60351903D02*
X81096009Y-60351903D01*
X81096009Y-60351903D02*
X81000771Y-60304284D01*
X81000771Y-60304284D02*
X80953152Y-60209046D01*
X80953152Y-60209046D02*
X80953152Y-60018570D01*
X80953152Y-60018570D02*
X81000771Y-59923332D01*
X81000771Y-59923332D02*
X81096009Y-59875713D01*
X81096009Y-59875713D02*
X81191247Y-59875713D01*
X81191247Y-59875713D02*
X81286485Y-60351903D01*
X81619819Y-59018570D02*
X80619819Y-59018570D01*
X81572200Y-59018570D02*
X81619819Y-59113808D01*
X81619819Y-59113808D02*
X81619819Y-59304284D01*
X81619819Y-59304284D02*
X81572200Y-59399522D01*
X81572200Y-59399522D02*
X81524580Y-59447141D01*
X81524580Y-59447141D02*
X81429342Y-59494760D01*
X81429342Y-59494760D02*
X81143628Y-59494760D01*
X81143628Y-59494760D02*
X81048390Y-59447141D01*
X81048390Y-59447141D02*
X81000771Y-59399522D01*
X81000771Y-59399522D02*
X80953152Y-59304284D01*
X80953152Y-59304284D02*
X80953152Y-59113808D01*
X80953152Y-59113808D02*
X81000771Y-59018570D01*
X82000771Y-58637617D02*
X81953152Y-58589998D01*
X81953152Y-58589998D02*
X81810295Y-58494760D01*
X81810295Y-58494760D02*
X81715057Y-58447141D01*
X81715057Y-58447141D02*
X81572200Y-58399522D01*
X81572200Y-58399522D02*
X81334104Y-58351903D01*
X81334104Y-58351903D02*
X81143628Y-58351903D01*
X81143628Y-58351903D02*
X80905533Y-58399522D01*
X80905533Y-58399522D02*
X80762676Y-58447141D01*
X80762676Y-58447141D02*
X80667438Y-58494760D01*
X80667438Y-58494760D02*
X80524580Y-58589998D01*
X80524580Y-58589998D02*
X80476961Y-58637617D01*
X55495057Y-72851904D02*
X55447438Y-72804285D01*
X55447438Y-72804285D02*
X55399819Y-72709047D01*
X55399819Y-72709047D02*
X55399819Y-72470952D01*
X55399819Y-72470952D02*
X55447438Y-72375714D01*
X55447438Y-72375714D02*
X55495057Y-72328095D01*
X55495057Y-72328095D02*
X55590295Y-72280476D01*
X55590295Y-72280476D02*
X55685533Y-72280476D01*
X55685533Y-72280476D02*
X55828390Y-72328095D01*
X55828390Y-72328095D02*
X56399819Y-72899523D01*
X56399819Y-72899523D02*
X56399819Y-72280476D01*
X55733152Y-71423333D02*
X56399819Y-71423333D01*
X55352200Y-71661428D02*
X56066485Y-71899523D01*
X56066485Y-71899523D02*
X56066485Y-71280476D01*
X56018866Y-70899523D02*
X56018866Y-70137619D01*
X56399819Y-69661428D02*
X55399819Y-69661428D01*
X55399819Y-69661428D02*
X55399819Y-69423333D01*
X55399819Y-69423333D02*
X55447438Y-69280476D01*
X55447438Y-69280476D02*
X55542676Y-69185238D01*
X55542676Y-69185238D02*
X55637914Y-69137619D01*
X55637914Y-69137619D02*
X55828390Y-69090000D01*
X55828390Y-69090000D02*
X55971247Y-69090000D01*
X55971247Y-69090000D02*
X56161723Y-69137619D01*
X56161723Y-69137619D02*
X56256961Y-69185238D01*
X56256961Y-69185238D02*
X56352200Y-69280476D01*
X56352200Y-69280476D02*
X56399819Y-69423333D01*
X56399819Y-69423333D02*
X56399819Y-69661428D01*
X56399819Y-68661428D02*
X55399819Y-68661428D01*
X56399819Y-68185238D02*
X55399819Y-68185238D01*
X55399819Y-68185238D02*
X55399819Y-67804286D01*
X55399819Y-67804286D02*
X55447438Y-67709048D01*
X55447438Y-67709048D02*
X55495057Y-67661429D01*
X55495057Y-67661429D02*
X55590295Y-67613810D01*
X55590295Y-67613810D02*
X55733152Y-67613810D01*
X55733152Y-67613810D02*
X55828390Y-67661429D01*
X55828390Y-67661429D02*
X55876009Y-67709048D01*
X55876009Y-67709048D02*
X55923628Y-67804286D01*
X55923628Y-67804286D02*
X55923628Y-68185238D01*
X56399819Y-66423333D02*
X55399819Y-66423333D01*
X55399819Y-66423333D02*
X56399819Y-65851905D01*
X56399819Y-65851905D02*
X55399819Y-65851905D01*
X56399819Y-64947143D02*
X55876009Y-64947143D01*
X55876009Y-64947143D02*
X55780771Y-64994762D01*
X55780771Y-64994762D02*
X55733152Y-65090000D01*
X55733152Y-65090000D02*
X55733152Y-65280476D01*
X55733152Y-65280476D02*
X55780771Y-65375714D01*
X56352200Y-64947143D02*
X56399819Y-65042381D01*
X56399819Y-65042381D02*
X56399819Y-65280476D01*
X56399819Y-65280476D02*
X56352200Y-65375714D01*
X56352200Y-65375714D02*
X56256961Y-65423333D01*
X56256961Y-65423333D02*
X56161723Y-65423333D01*
X56161723Y-65423333D02*
X56066485Y-65375714D01*
X56066485Y-65375714D02*
X56018866Y-65280476D01*
X56018866Y-65280476D02*
X56018866Y-65042381D01*
X56018866Y-65042381D02*
X55971247Y-64947143D01*
X56399819Y-64470952D02*
X55733152Y-64470952D01*
X55923628Y-64470952D02*
X55828390Y-64423333D01*
X55828390Y-64423333D02*
X55780771Y-64375714D01*
X55780771Y-64375714D02*
X55733152Y-64280476D01*
X55733152Y-64280476D02*
X55733152Y-64185238D01*
X56399819Y-63851904D02*
X55733152Y-63851904D01*
X55923628Y-63851904D02*
X55828390Y-63804285D01*
X55828390Y-63804285D02*
X55780771Y-63756666D01*
X55780771Y-63756666D02*
X55733152Y-63661428D01*
X55733152Y-63661428D02*
X55733152Y-63566190D01*
X56399819Y-63089999D02*
X56352200Y-63185237D01*
X56352200Y-63185237D02*
X56304580Y-63232856D01*
X56304580Y-63232856D02*
X56209342Y-63280475D01*
X56209342Y-63280475D02*
X55923628Y-63280475D01*
X55923628Y-63280475D02*
X55828390Y-63232856D01*
X55828390Y-63232856D02*
X55780771Y-63185237D01*
X55780771Y-63185237D02*
X55733152Y-63089999D01*
X55733152Y-63089999D02*
X55733152Y-62947142D01*
X55733152Y-62947142D02*
X55780771Y-62851904D01*
X55780771Y-62851904D02*
X55828390Y-62804285D01*
X55828390Y-62804285D02*
X55923628Y-62756666D01*
X55923628Y-62756666D02*
X56209342Y-62756666D01*
X56209342Y-62756666D02*
X56304580Y-62804285D01*
X56304580Y-62804285D02*
X56352200Y-62851904D01*
X56352200Y-62851904D02*
X56399819Y-62947142D01*
X56399819Y-62947142D02*
X56399819Y-63089999D01*
X55733152Y-62423332D02*
X56399819Y-62232856D01*
X56399819Y-62232856D02*
X55923628Y-62042380D01*
X55923628Y-62042380D02*
X56399819Y-61851904D01*
X56399819Y-61851904D02*
X55733152Y-61661428D01*
X55733152Y-60661427D02*
X55733152Y-60280475D01*
X55399819Y-60518570D02*
X56256961Y-60518570D01*
X56256961Y-60518570D02*
X56352200Y-60470951D01*
X56352200Y-60470951D02*
X56399819Y-60375713D01*
X56399819Y-60375713D02*
X56399819Y-60280475D01*
X56399819Y-59804284D02*
X56352200Y-59899522D01*
X56352200Y-59899522D02*
X56304580Y-59947141D01*
X56304580Y-59947141D02*
X56209342Y-59994760D01*
X56209342Y-59994760D02*
X55923628Y-59994760D01*
X55923628Y-59994760D02*
X55828390Y-59947141D01*
X55828390Y-59947141D02*
X55780771Y-59899522D01*
X55780771Y-59899522D02*
X55733152Y-59804284D01*
X55733152Y-59804284D02*
X55733152Y-59661427D01*
X55733152Y-59661427D02*
X55780771Y-59566189D01*
X55780771Y-59566189D02*
X55828390Y-59518570D01*
X55828390Y-59518570D02*
X55923628Y-59470951D01*
X55923628Y-59470951D02*
X56209342Y-59470951D01*
X56209342Y-59470951D02*
X56304580Y-59518570D01*
X56304580Y-59518570D02*
X56352200Y-59566189D01*
X56352200Y-59566189D02*
X56399819Y-59661427D01*
X56399819Y-59661427D02*
X56399819Y-59804284D01*
X55399819Y-58375712D02*
X56399819Y-58137617D01*
X56399819Y-58137617D02*
X55685533Y-57947141D01*
X55685533Y-57947141D02*
X56399819Y-57756665D01*
X56399819Y-57756665D02*
X55399819Y-57518570D01*
X56399819Y-57137617D02*
X55733152Y-57137617D01*
X55399819Y-57137617D02*
X55447438Y-57185236D01*
X55447438Y-57185236D02*
X55495057Y-57137617D01*
X55495057Y-57137617D02*
X55447438Y-57089998D01*
X55447438Y-57089998D02*
X55399819Y-57137617D01*
X55399819Y-57137617D02*
X55495057Y-57137617D01*
X56399819Y-56232856D02*
X55399819Y-56232856D01*
X56352200Y-56232856D02*
X56399819Y-56328094D01*
X56399819Y-56328094D02*
X56399819Y-56518570D01*
X56399819Y-56518570D02*
X56352200Y-56613808D01*
X56352200Y-56613808D02*
X56304580Y-56661427D01*
X56304580Y-56661427D02*
X56209342Y-56709046D01*
X56209342Y-56709046D02*
X55923628Y-56709046D01*
X55923628Y-56709046D02*
X55828390Y-56661427D01*
X55828390Y-56661427D02*
X55780771Y-56613808D01*
X55780771Y-56613808D02*
X55733152Y-56518570D01*
X55733152Y-56518570D02*
X55733152Y-56328094D01*
X55733152Y-56328094D02*
X55780771Y-56232856D01*
X56352200Y-55375713D02*
X56399819Y-55470951D01*
X56399819Y-55470951D02*
X56399819Y-55661427D01*
X56399819Y-55661427D02*
X56352200Y-55756665D01*
X56352200Y-55756665D02*
X56256961Y-55804284D01*
X56256961Y-55804284D02*
X55876009Y-55804284D01*
X55876009Y-55804284D02*
X55780771Y-55756665D01*
X55780771Y-55756665D02*
X55733152Y-55661427D01*
X55733152Y-55661427D02*
X55733152Y-55470951D01*
X55733152Y-55470951D02*
X55780771Y-55375713D01*
X55780771Y-55375713D02*
X55876009Y-55328094D01*
X55876009Y-55328094D02*
X55971247Y-55328094D01*
X55971247Y-55328094D02*
X56066485Y-55804284D01*
X57914580Y-66828096D02*
X57962200Y-66875715D01*
X57962200Y-66875715D02*
X58009819Y-67018572D01*
X58009819Y-67018572D02*
X58009819Y-67113810D01*
X58009819Y-67113810D02*
X57962200Y-67256667D01*
X57962200Y-67256667D02*
X57866961Y-67351905D01*
X57866961Y-67351905D02*
X57771723Y-67399524D01*
X57771723Y-67399524D02*
X57581247Y-67447143D01*
X57581247Y-67447143D02*
X57438390Y-67447143D01*
X57438390Y-67447143D02*
X57247914Y-67399524D01*
X57247914Y-67399524D02*
X57152676Y-67351905D01*
X57152676Y-67351905D02*
X57057438Y-67256667D01*
X57057438Y-67256667D02*
X57009819Y-67113810D01*
X57009819Y-67113810D02*
X57009819Y-67018572D01*
X57009819Y-67018572D02*
X57057438Y-66875715D01*
X57057438Y-66875715D02*
X57105057Y-66828096D01*
X58009819Y-66256667D02*
X57962200Y-66351905D01*
X57962200Y-66351905D02*
X57914580Y-66399524D01*
X57914580Y-66399524D02*
X57819342Y-66447143D01*
X57819342Y-66447143D02*
X57533628Y-66447143D01*
X57533628Y-66447143D02*
X57438390Y-66399524D01*
X57438390Y-66399524D02*
X57390771Y-66351905D01*
X57390771Y-66351905D02*
X57343152Y-66256667D01*
X57343152Y-66256667D02*
X57343152Y-66113810D01*
X57343152Y-66113810D02*
X57390771Y-66018572D01*
X57390771Y-66018572D02*
X57438390Y-65970953D01*
X57438390Y-65970953D02*
X57533628Y-65923334D01*
X57533628Y-65923334D02*
X57819342Y-65923334D01*
X57819342Y-65923334D02*
X57914580Y-65970953D01*
X57914580Y-65970953D02*
X57962200Y-66018572D01*
X57962200Y-66018572D02*
X58009819Y-66113810D01*
X58009819Y-66113810D02*
X58009819Y-66256667D01*
X57343152Y-65494762D02*
X58009819Y-65494762D01*
X57438390Y-65494762D02*
X57390771Y-65447143D01*
X57390771Y-65447143D02*
X57343152Y-65351905D01*
X57343152Y-65351905D02*
X57343152Y-65209048D01*
X57343152Y-65209048D02*
X57390771Y-65113810D01*
X57390771Y-65113810D02*
X57486009Y-65066191D01*
X57486009Y-65066191D02*
X58009819Y-65066191D01*
X57343152Y-64685238D02*
X58009819Y-64447143D01*
X58009819Y-64447143D02*
X57343152Y-64209048D01*
X57962200Y-63447143D02*
X58009819Y-63542381D01*
X58009819Y-63542381D02*
X58009819Y-63732857D01*
X58009819Y-63732857D02*
X57962200Y-63828095D01*
X57962200Y-63828095D02*
X57866961Y-63875714D01*
X57866961Y-63875714D02*
X57486009Y-63875714D01*
X57486009Y-63875714D02*
X57390771Y-63828095D01*
X57390771Y-63828095D02*
X57343152Y-63732857D01*
X57343152Y-63732857D02*
X57343152Y-63542381D01*
X57343152Y-63542381D02*
X57390771Y-63447143D01*
X57390771Y-63447143D02*
X57486009Y-63399524D01*
X57486009Y-63399524D02*
X57581247Y-63399524D01*
X57581247Y-63399524D02*
X57676485Y-63875714D01*
X58009819Y-62970952D02*
X57343152Y-62970952D01*
X57533628Y-62970952D02*
X57438390Y-62923333D01*
X57438390Y-62923333D02*
X57390771Y-62875714D01*
X57390771Y-62875714D02*
X57343152Y-62780476D01*
X57343152Y-62780476D02*
X57343152Y-62685238D01*
X57343152Y-62494761D02*
X57343152Y-62113809D01*
X57009819Y-62351904D02*
X57866961Y-62351904D01*
X57866961Y-62351904D02*
X57962200Y-62304285D01*
X57962200Y-62304285D02*
X58009819Y-62209047D01*
X58009819Y-62209047D02*
X58009819Y-62113809D01*
X57962200Y-61399523D02*
X58009819Y-61494761D01*
X58009819Y-61494761D02*
X58009819Y-61685237D01*
X58009819Y-61685237D02*
X57962200Y-61780475D01*
X57962200Y-61780475D02*
X57866961Y-61828094D01*
X57866961Y-61828094D02*
X57486009Y-61828094D01*
X57486009Y-61828094D02*
X57390771Y-61780475D01*
X57390771Y-61780475D02*
X57343152Y-61685237D01*
X57343152Y-61685237D02*
X57343152Y-61494761D01*
X57343152Y-61494761D02*
X57390771Y-61399523D01*
X57390771Y-61399523D02*
X57486009Y-61351904D01*
X57486009Y-61351904D02*
X57581247Y-61351904D01*
X57581247Y-61351904D02*
X57676485Y-61828094D01*
X58009819Y-60923332D02*
X57343152Y-60923332D01*
X57533628Y-60923332D02*
X57438390Y-60875713D01*
X57438390Y-60875713D02*
X57390771Y-60828094D01*
X57390771Y-60828094D02*
X57343152Y-60732856D01*
X57343152Y-60732856D02*
X57343152Y-60637618D01*
X60000771Y-69542381D02*
X59953152Y-69590000D01*
X59953152Y-69590000D02*
X59810295Y-69685238D01*
X59810295Y-69685238D02*
X59715057Y-69732857D01*
X59715057Y-69732857D02*
X59572200Y-69780476D01*
X59572200Y-69780476D02*
X59334104Y-69828095D01*
X59334104Y-69828095D02*
X59143628Y-69828095D01*
X59143628Y-69828095D02*
X58905533Y-69780476D01*
X58905533Y-69780476D02*
X58762676Y-69732857D01*
X58762676Y-69732857D02*
X58667438Y-69685238D01*
X58667438Y-69685238D02*
X58524580Y-69590000D01*
X58524580Y-69590000D02*
X58476961Y-69542381D01*
X59619819Y-69161428D02*
X58619819Y-69161428D01*
X58619819Y-69161428D02*
X58619819Y-68780476D01*
X58619819Y-68780476D02*
X58667438Y-68685238D01*
X58667438Y-68685238D02*
X58715057Y-68637619D01*
X58715057Y-68637619D02*
X58810295Y-68590000D01*
X58810295Y-68590000D02*
X58953152Y-68590000D01*
X58953152Y-68590000D02*
X59048390Y-68637619D01*
X59048390Y-68637619D02*
X59096009Y-68685238D01*
X59096009Y-68685238D02*
X59143628Y-68780476D01*
X59143628Y-68780476D02*
X59143628Y-69161428D01*
X59619819Y-68161428D02*
X58953152Y-68161428D01*
X58619819Y-68161428D02*
X58667438Y-68209047D01*
X58667438Y-68209047D02*
X58715057Y-68161428D01*
X58715057Y-68161428D02*
X58667438Y-68113809D01*
X58667438Y-68113809D02*
X58619819Y-68161428D01*
X58619819Y-68161428D02*
X58715057Y-68161428D01*
X58953152Y-67685238D02*
X59619819Y-67685238D01*
X59048390Y-67685238D02*
X59000771Y-67637619D01*
X59000771Y-67637619D02*
X58953152Y-67542381D01*
X58953152Y-67542381D02*
X58953152Y-67399524D01*
X58953152Y-67399524D02*
X59000771Y-67304286D01*
X59000771Y-67304286D02*
X59096009Y-67256667D01*
X59096009Y-67256667D02*
X59619819Y-67256667D01*
X59572200Y-66828095D02*
X59619819Y-66732857D01*
X59619819Y-66732857D02*
X59619819Y-66542381D01*
X59619819Y-66542381D02*
X59572200Y-66447143D01*
X59572200Y-66447143D02*
X59476961Y-66399524D01*
X59476961Y-66399524D02*
X59429342Y-66399524D01*
X59429342Y-66399524D02*
X59334104Y-66447143D01*
X59334104Y-66447143D02*
X59286485Y-66542381D01*
X59286485Y-66542381D02*
X59286485Y-66685238D01*
X59286485Y-66685238D02*
X59238866Y-66780476D01*
X59238866Y-66780476D02*
X59143628Y-66828095D01*
X59143628Y-66828095D02*
X59096009Y-66828095D01*
X59096009Y-66828095D02*
X59000771Y-66780476D01*
X59000771Y-66780476D02*
X58953152Y-66685238D01*
X58953152Y-66685238D02*
X58953152Y-66542381D01*
X58953152Y-66542381D02*
X59000771Y-66447143D01*
X59619819Y-64637619D02*
X59143628Y-64970952D01*
X59619819Y-65209047D02*
X58619819Y-65209047D01*
X58619819Y-65209047D02*
X58619819Y-64828095D01*
X58619819Y-64828095D02*
X58667438Y-64732857D01*
X58667438Y-64732857D02*
X58715057Y-64685238D01*
X58715057Y-64685238D02*
X58810295Y-64637619D01*
X58810295Y-64637619D02*
X58953152Y-64637619D01*
X58953152Y-64637619D02*
X59048390Y-64685238D01*
X59048390Y-64685238D02*
X59096009Y-64732857D01*
X59096009Y-64732857D02*
X59143628Y-64828095D01*
X59143628Y-64828095D02*
X59143628Y-65209047D01*
X59572200Y-63828095D02*
X59619819Y-63923333D01*
X59619819Y-63923333D02*
X59619819Y-64113809D01*
X59619819Y-64113809D02*
X59572200Y-64209047D01*
X59572200Y-64209047D02*
X59476961Y-64256666D01*
X59476961Y-64256666D02*
X59096009Y-64256666D01*
X59096009Y-64256666D02*
X59000771Y-64209047D01*
X59000771Y-64209047D02*
X58953152Y-64113809D01*
X58953152Y-64113809D02*
X58953152Y-63923333D01*
X58953152Y-63923333D02*
X59000771Y-63828095D01*
X59000771Y-63828095D02*
X59096009Y-63780476D01*
X59096009Y-63780476D02*
X59191247Y-63780476D01*
X59191247Y-63780476D02*
X59286485Y-64256666D01*
X58953152Y-63447142D02*
X59619819Y-63209047D01*
X59619819Y-63209047D02*
X58953152Y-62970952D01*
X59572200Y-62209047D02*
X59619819Y-62304285D01*
X59619819Y-62304285D02*
X59619819Y-62494761D01*
X59619819Y-62494761D02*
X59572200Y-62589999D01*
X59572200Y-62589999D02*
X59476961Y-62637618D01*
X59476961Y-62637618D02*
X59096009Y-62637618D01*
X59096009Y-62637618D02*
X59000771Y-62589999D01*
X59000771Y-62589999D02*
X58953152Y-62494761D01*
X58953152Y-62494761D02*
X58953152Y-62304285D01*
X58953152Y-62304285D02*
X59000771Y-62209047D01*
X59000771Y-62209047D02*
X59096009Y-62161428D01*
X59096009Y-62161428D02*
X59191247Y-62161428D01*
X59191247Y-62161428D02*
X59286485Y-62637618D01*
X59619819Y-61732856D02*
X58953152Y-61732856D01*
X59143628Y-61732856D02*
X59048390Y-61685237D01*
X59048390Y-61685237D02*
X59000771Y-61637618D01*
X59000771Y-61637618D02*
X58953152Y-61542380D01*
X58953152Y-61542380D02*
X58953152Y-61447142D01*
X59572200Y-61161427D02*
X59619819Y-61066189D01*
X59619819Y-61066189D02*
X59619819Y-60875713D01*
X59619819Y-60875713D02*
X59572200Y-60780475D01*
X59572200Y-60780475D02*
X59476961Y-60732856D01*
X59476961Y-60732856D02*
X59429342Y-60732856D01*
X59429342Y-60732856D02*
X59334104Y-60780475D01*
X59334104Y-60780475D02*
X59286485Y-60875713D01*
X59286485Y-60875713D02*
X59286485Y-61018570D01*
X59286485Y-61018570D02*
X59238866Y-61113808D01*
X59238866Y-61113808D02*
X59143628Y-61161427D01*
X59143628Y-61161427D02*
X59096009Y-61161427D01*
X59096009Y-61161427D02*
X59000771Y-61113808D01*
X59000771Y-61113808D02*
X58953152Y-61018570D01*
X58953152Y-61018570D02*
X58953152Y-60875713D01*
X58953152Y-60875713D02*
X59000771Y-60780475D01*
X59572200Y-59923332D02*
X59619819Y-60018570D01*
X59619819Y-60018570D02*
X59619819Y-60209046D01*
X59619819Y-60209046D02*
X59572200Y-60304284D01*
X59572200Y-60304284D02*
X59476961Y-60351903D01*
X59476961Y-60351903D02*
X59096009Y-60351903D01*
X59096009Y-60351903D02*
X59000771Y-60304284D01*
X59000771Y-60304284D02*
X58953152Y-60209046D01*
X58953152Y-60209046D02*
X58953152Y-60018570D01*
X58953152Y-60018570D02*
X59000771Y-59923332D01*
X59000771Y-59923332D02*
X59096009Y-59875713D01*
X59096009Y-59875713D02*
X59191247Y-59875713D01*
X59191247Y-59875713D02*
X59286485Y-60351903D01*
X59619819Y-59018570D02*
X58619819Y-59018570D01*
X59572200Y-59018570D02*
X59619819Y-59113808D01*
X59619819Y-59113808D02*
X59619819Y-59304284D01*
X59619819Y-59304284D02*
X59572200Y-59399522D01*
X59572200Y-59399522D02*
X59524580Y-59447141D01*
X59524580Y-59447141D02*
X59429342Y-59494760D01*
X59429342Y-59494760D02*
X59143628Y-59494760D01*
X59143628Y-59494760D02*
X59048390Y-59447141D01*
X59048390Y-59447141D02*
X59000771Y-59399522D01*
X59000771Y-59399522D02*
X58953152Y-59304284D01*
X58953152Y-59304284D02*
X58953152Y-59113808D01*
X58953152Y-59113808D02*
X59000771Y-59018570D01*
X60000771Y-58637617D02*
X59953152Y-58589998D01*
X59953152Y-58589998D02*
X59810295Y-58494760D01*
X59810295Y-58494760D02*
X59715057Y-58447141D01*
X59715057Y-58447141D02*
X59572200Y-58399522D01*
X59572200Y-58399522D02*
X59334104Y-58351903D01*
X59334104Y-58351903D02*
X59143628Y-58351903D01*
X59143628Y-58351903D02*
X58905533Y-58399522D01*
X58905533Y-58399522D02*
X58762676Y-58447141D01*
X58762676Y-58447141D02*
X58667438Y-58494760D01*
X58667438Y-58494760D02*
X58524580Y-58589998D01*
X58524580Y-58589998D02*
X58476961Y-58637617D01*
D11*
%TO.C,U2*%
X95160000Y-48670000D02*
X95160000Y-79270000D01*
X95160000Y-79270000D02*
X108080000Y-79270000D01*
X100620000Y-48670000D02*
X95160000Y-48670000D01*
X108080000Y-48670000D02*
X102620000Y-48670000D01*
X108080000Y-79270000D02*
X108080000Y-48670000D01*
X100620000Y-48670000D02*
G75*
G03*
X102620000Y-48670000I1000000J0D01*
G01*
X73160000Y-48670000D02*
X73160000Y-79270000D01*
X73160000Y-79270000D02*
X86080000Y-79270000D01*
X78620000Y-48670000D02*
X73160000Y-48670000D01*
X86080000Y-48670000D02*
X80620000Y-48670000D01*
X86080000Y-79270000D02*
X86080000Y-48670000D01*
X78620000Y-48670000D02*
G75*
G03*
X80620000Y-48670000I1000000J0D01*
G01*
X56620000Y-48670000D02*
G75*
G03*
X58620000Y-48670000I1000000J0D01*
G01*
X64080000Y-79270000D02*
X64080000Y-48670000D01*
X56620000Y-48670000D02*
X51160000Y-48670000D01*
X64080000Y-48670000D02*
X58620000Y-48670000D01*
X51160000Y-48670000D02*
X51160000Y-79270000D01*
X51160000Y-79270000D02*
X64080000Y-79270000D01*
%TD*%
M02*
