%TF.GenerationSoftware,KiCad,Pcbnew,7.0.9*%
%TF.CreationDate,2024-05-03T11:46:20+01:00*%
%TF.ProjectId,DIP24Converter,44495032-3443-46f6-9e76-65727465722e,rev?*%
%TF.SameCoordinates,Original*%
%TF.FileFunction,Copper,L2,Bot*%
%TF.FilePolarity,Positive*%
%FSLAX46Y46*%
G04 Gerber Fmt 4.6, Leading zero omitted, Abs format (unit mm)*
G04 Created by KiCad (PCBNEW 7.0.9) date 2024-05-03 11:46:20*
%MOMM*%
%LPD*%
G01*
G04 APERTURE LIST*
%TA.AperFunction,ComponentPad*%
%ADD10R,1.600000X1.600000*%
%TD*%
%TA.AperFunction,ComponentPad*%
%ADD11O,1.600000X1.600000*%
%TD*%
%TA.AperFunction,Conductor*%
%ADD12C,0.250000*%
%TD*%
G04 APERTURE END LIST*
D10*
%TO.P,U1,1,COM*%
%TO.N,Net-(U1-COM)*%
X105450000Y-50050000D03*
D11*
%TO.P,U1,2,I7*%
%TO.N,Net-(U1-I7)*%
X105450000Y-52590000D03*
%TO.P,U1,3,I6*%
%TO.N,Net-(U1-I6)*%
X105450000Y-55130000D03*
%TO.P,U1,4,I5*%
%TO.N,Net-(U1-I5)*%
X105450000Y-57670000D03*
%TO.P,U1,5,I4*%
%TO.N,Net-(U1-I4)*%
X105450000Y-60210000D03*
%TO.P,U1,6,I3*%
%TO.N,Net-(U1-I3)*%
X105450000Y-62750000D03*
%TO.P,U1,7,I2*%
%TO.N,Net-(U1-I2)*%
X105450000Y-65290000D03*
%TO.P,U1,8,I1*%
%TO.N,Net-(U1-I1)*%
X105450000Y-67830000D03*
%TO.P,U1,9,I0*%
%TO.N,Net-(U1-I0)*%
X105450000Y-70370000D03*
%TO.P,U1,10,S0*%
%TO.N,Net-(U1-S0)*%
X105450000Y-72910000D03*
%TO.P,U1,11,S1*%
%TO.N,Net-(U1-S1)*%
X105450000Y-75450000D03*
%TO.P,U1,12,GND*%
%TO.N,GND*%
X105450000Y-77990000D03*
%TO.P,U1,13,S3*%
%TO.N,Net-(U1-S3)*%
X97830000Y-77990000D03*
%TO.P,U1,14,S2*%
%TO.N,Net-(U1-S2)*%
X97830000Y-75450000D03*
%TO.P,U1,15,~{E}*%
%TO.N,Net-(U1-~{E})*%
X97830000Y-72910000D03*
%TO.P,U1,16,I15*%
%TO.N,Net-(U1-I15)*%
X97830000Y-70370000D03*
%TO.P,U1,17,I14*%
%TO.N,Net-(U1-I14)*%
X97830000Y-67830000D03*
%TO.P,U1,18,I13*%
%TO.N,Net-(U1-I13)*%
X97830000Y-65290000D03*
%TO.P,U1,19,I12*%
%TO.N,Net-(U1-I12)*%
X97830000Y-62750000D03*
%TO.P,U1,20,I11*%
%TO.N,Net-(U1-I11)*%
X97830000Y-60210000D03*
%TO.P,U1,21,I10*%
%TO.N,Net-(U1-I10)*%
X97830000Y-57670000D03*
%TO.P,U1,22,I9*%
%TO.N,Net-(U1-I9)*%
X97830000Y-55130000D03*
%TO.P,U1,23,I8*%
%TO.N,Net-(U1-I8)*%
X97830000Y-52590000D03*
%TO.P,U1,24,VCC*%
%TO.N,Net-(U1-VCC)*%
X97830000Y-50050000D03*
%TD*%
D10*
%TO.P,U2,1,COM*%
%TO.N,Net-(U1-COM)*%
X94000000Y-50000000D03*
D11*
%TO.P,U2,2,I7*%
%TO.N,Net-(U1-I7)*%
X94000000Y-52540000D03*
%TO.P,U2,3,I6*%
%TO.N,Net-(U1-I6)*%
X94000000Y-55080000D03*
%TO.P,U2,4,I5*%
%TO.N,Net-(U1-I5)*%
X94000000Y-57620000D03*
%TO.P,U2,5,I4*%
%TO.N,Net-(U1-I4)*%
X94000000Y-60160000D03*
%TO.P,U2,6,I3*%
%TO.N,Net-(U1-I3)*%
X94000000Y-62700000D03*
%TO.P,U2,7,I2*%
%TO.N,Net-(U1-I2)*%
X94000000Y-65240000D03*
%TO.P,U2,8,I1*%
%TO.N,Net-(U1-I1)*%
X94000000Y-67780000D03*
%TO.P,U2,9,I0*%
%TO.N,Net-(U1-I0)*%
X94000000Y-70320000D03*
%TO.P,U2,10,S0*%
%TO.N,Net-(U1-S0)*%
X94000000Y-72860000D03*
%TO.P,U2,11,S1*%
%TO.N,Net-(U1-S1)*%
X94000000Y-75400000D03*
%TO.P,U2,12,GND*%
%TO.N,GND*%
X94000000Y-77940000D03*
%TO.P,U2,13,S3*%
%TO.N,Net-(U1-S3)*%
X109240000Y-77940000D03*
%TO.P,U2,14,S2*%
%TO.N,Net-(U1-S2)*%
X109240000Y-75400000D03*
%TO.P,U2,15,~{E}*%
%TO.N,Net-(U1-~{E})*%
X109240000Y-72860000D03*
%TO.P,U2,16,I15*%
%TO.N,Net-(U1-I15)*%
X109240000Y-70320000D03*
%TO.P,U2,17,I14*%
%TO.N,Net-(U1-I14)*%
X109240000Y-67780000D03*
%TO.P,U2,18,I13*%
%TO.N,Net-(U1-I13)*%
X109240000Y-65240000D03*
%TO.P,U2,19,I12*%
%TO.N,Net-(U1-I12)*%
X109240000Y-62700000D03*
%TO.P,U2,20,I11*%
%TO.N,Net-(U1-I11)*%
X109240000Y-60160000D03*
%TO.P,U2,21,I10*%
%TO.N,Net-(U1-I10)*%
X109240000Y-57620000D03*
%TO.P,U2,22,I9*%
%TO.N,Net-(U1-I9)*%
X109240000Y-55080000D03*
%TO.P,U2,23,I8*%
%TO.N,Net-(U1-I8)*%
X109240000Y-52540000D03*
%TO.P,U2,24,VCC*%
%TO.N,Net-(U1-VCC)*%
X109240000Y-50000000D03*
%TD*%
D10*
%TO.P,U1,1,COM*%
%TO.N,Net-(U1-COM)*%
X83450000Y-50050000D03*
D11*
%TO.P,U1,2,I7*%
%TO.N,Net-(U1-I7)*%
X83450000Y-52590000D03*
%TO.P,U1,3,I6*%
%TO.N,Net-(U1-I6)*%
X83450000Y-55130000D03*
%TO.P,U1,4,I5*%
%TO.N,Net-(U1-I5)*%
X83450000Y-57670000D03*
%TO.P,U1,5,I4*%
%TO.N,Net-(U1-I4)*%
X83450000Y-60210000D03*
%TO.P,U1,6,I3*%
%TO.N,Net-(U1-I3)*%
X83450000Y-62750000D03*
%TO.P,U1,7,I2*%
%TO.N,Net-(U1-I2)*%
X83450000Y-65290000D03*
%TO.P,U1,8,I1*%
%TO.N,Net-(U1-I1)*%
X83450000Y-67830000D03*
%TO.P,U1,9,I0*%
%TO.N,Net-(U1-I0)*%
X83450000Y-70370000D03*
%TO.P,U1,10,S0*%
%TO.N,Net-(U1-S0)*%
X83450000Y-72910000D03*
%TO.P,U1,11,S1*%
%TO.N,Net-(U1-S1)*%
X83450000Y-75450000D03*
%TO.P,U1,12,GND*%
%TO.N,GND*%
X83450000Y-77990000D03*
%TO.P,U1,13,S3*%
%TO.N,Net-(U1-S3)*%
X75830000Y-77990000D03*
%TO.P,U1,14,S2*%
%TO.N,Net-(U1-S2)*%
X75830000Y-75450000D03*
%TO.P,U1,15,~{E}*%
%TO.N,Net-(U1-~{E})*%
X75830000Y-72910000D03*
%TO.P,U1,16,I15*%
%TO.N,Net-(U1-I15)*%
X75830000Y-70370000D03*
%TO.P,U1,17,I14*%
%TO.N,Net-(U1-I14)*%
X75830000Y-67830000D03*
%TO.P,U1,18,I13*%
%TO.N,Net-(U1-I13)*%
X75830000Y-65290000D03*
%TO.P,U1,19,I12*%
%TO.N,Net-(U1-I12)*%
X75830000Y-62750000D03*
%TO.P,U1,20,I11*%
%TO.N,Net-(U1-I11)*%
X75830000Y-60210000D03*
%TO.P,U1,21,I10*%
%TO.N,Net-(U1-I10)*%
X75830000Y-57670000D03*
%TO.P,U1,22,I9*%
%TO.N,Net-(U1-I9)*%
X75830000Y-55130000D03*
%TO.P,U1,23,I8*%
%TO.N,Net-(U1-I8)*%
X75830000Y-52590000D03*
%TO.P,U1,24,VCC*%
%TO.N,Net-(U1-VCC)*%
X75830000Y-50050000D03*
%TD*%
D10*
%TO.P,U2,1,COM*%
%TO.N,Net-(U1-COM)*%
X72000000Y-50000000D03*
D11*
%TO.P,U2,2,I7*%
%TO.N,Net-(U1-I7)*%
X72000000Y-52540000D03*
%TO.P,U2,3,I6*%
%TO.N,Net-(U1-I6)*%
X72000000Y-55080000D03*
%TO.P,U2,4,I5*%
%TO.N,Net-(U1-I5)*%
X72000000Y-57620000D03*
%TO.P,U2,5,I4*%
%TO.N,Net-(U1-I4)*%
X72000000Y-60160000D03*
%TO.P,U2,6,I3*%
%TO.N,Net-(U1-I3)*%
X72000000Y-62700000D03*
%TO.P,U2,7,I2*%
%TO.N,Net-(U1-I2)*%
X72000000Y-65240000D03*
%TO.P,U2,8,I1*%
%TO.N,Net-(U1-I1)*%
X72000000Y-67780000D03*
%TO.P,U2,9,I0*%
%TO.N,Net-(U1-I0)*%
X72000000Y-70320000D03*
%TO.P,U2,10,S0*%
%TO.N,Net-(U1-S0)*%
X72000000Y-72860000D03*
%TO.P,U2,11,S1*%
%TO.N,Net-(U1-S1)*%
X72000000Y-75400000D03*
%TO.P,U2,12,GND*%
%TO.N,GND*%
X72000000Y-77940000D03*
%TO.P,U2,13,S3*%
%TO.N,Net-(U1-S3)*%
X87240000Y-77940000D03*
%TO.P,U2,14,S2*%
%TO.N,Net-(U1-S2)*%
X87240000Y-75400000D03*
%TO.P,U2,15,~{E}*%
%TO.N,Net-(U1-~{E})*%
X87240000Y-72860000D03*
%TO.P,U2,16,I15*%
%TO.N,Net-(U1-I15)*%
X87240000Y-70320000D03*
%TO.P,U2,17,I14*%
%TO.N,Net-(U1-I14)*%
X87240000Y-67780000D03*
%TO.P,U2,18,I13*%
%TO.N,Net-(U1-I13)*%
X87240000Y-65240000D03*
%TO.P,U2,19,I12*%
%TO.N,Net-(U1-I12)*%
X87240000Y-62700000D03*
%TO.P,U2,20,I11*%
%TO.N,Net-(U1-I11)*%
X87240000Y-60160000D03*
%TO.P,U2,21,I10*%
%TO.N,Net-(U1-I10)*%
X87240000Y-57620000D03*
%TO.P,U2,22,I9*%
%TO.N,Net-(U1-I9)*%
X87240000Y-55080000D03*
%TO.P,U2,23,I8*%
%TO.N,Net-(U1-I8)*%
X87240000Y-52540000D03*
%TO.P,U2,24,VCC*%
%TO.N,Net-(U1-VCC)*%
X87240000Y-50000000D03*
%TD*%
%TO.P,U2,24,VCC*%
%TO.N,Net-(U1-VCC)*%
X65240000Y-50000000D03*
%TO.P,U2,23,I8*%
%TO.N,Net-(U1-I8)*%
X65240000Y-52540000D03*
%TO.P,U2,22,I9*%
%TO.N,Net-(U1-I9)*%
X65240000Y-55080000D03*
%TO.P,U2,21,I10*%
%TO.N,Net-(U1-I10)*%
X65240000Y-57620000D03*
%TO.P,U2,20,I11*%
%TO.N,Net-(U1-I11)*%
X65240000Y-60160000D03*
%TO.P,U2,19,I12*%
%TO.N,Net-(U1-I12)*%
X65240000Y-62700000D03*
%TO.P,U2,18,I13*%
%TO.N,Net-(U1-I13)*%
X65240000Y-65240000D03*
%TO.P,U2,17,I14*%
%TO.N,Net-(U1-I14)*%
X65240000Y-67780000D03*
%TO.P,U2,16,I15*%
%TO.N,Net-(U1-I15)*%
X65240000Y-70320000D03*
%TO.P,U2,15,~{E}*%
%TO.N,Net-(U1-~{E})*%
X65240000Y-72860000D03*
%TO.P,U2,14,S2*%
%TO.N,Net-(U1-S2)*%
X65240000Y-75400000D03*
%TO.P,U2,13,S3*%
%TO.N,Net-(U1-S3)*%
X65240000Y-77940000D03*
%TO.P,U2,12,GND*%
%TO.N,GND*%
X50000000Y-77940000D03*
%TO.P,U2,11,S1*%
%TO.N,Net-(U1-S1)*%
X50000000Y-75400000D03*
%TO.P,U2,10,S0*%
%TO.N,Net-(U1-S0)*%
X50000000Y-72860000D03*
%TO.P,U2,9,I0*%
%TO.N,Net-(U1-I0)*%
X50000000Y-70320000D03*
%TO.P,U2,8,I1*%
%TO.N,Net-(U1-I1)*%
X50000000Y-67780000D03*
%TO.P,U2,7,I2*%
%TO.N,Net-(U1-I2)*%
X50000000Y-65240000D03*
%TO.P,U2,6,I3*%
%TO.N,Net-(U1-I3)*%
X50000000Y-62700000D03*
%TO.P,U2,5,I4*%
%TO.N,Net-(U1-I4)*%
X50000000Y-60160000D03*
%TO.P,U2,4,I5*%
%TO.N,Net-(U1-I5)*%
X50000000Y-57620000D03*
%TO.P,U2,3,I6*%
%TO.N,Net-(U1-I6)*%
X50000000Y-55080000D03*
%TO.P,U2,2,I7*%
%TO.N,Net-(U1-I7)*%
X50000000Y-52540000D03*
D10*
%TO.P,U2,1,COM*%
%TO.N,Net-(U1-COM)*%
X50000000Y-50000000D03*
%TD*%
D11*
%TO.P,U1,24,VCC*%
%TO.N,Net-(U1-VCC)*%
X53830000Y-50050000D03*
%TO.P,U1,23,I8*%
%TO.N,Net-(U1-I8)*%
X53830000Y-52590000D03*
%TO.P,U1,22,I9*%
%TO.N,Net-(U1-I9)*%
X53830000Y-55130000D03*
%TO.P,U1,21,I10*%
%TO.N,Net-(U1-I10)*%
X53830000Y-57670000D03*
%TO.P,U1,20,I11*%
%TO.N,Net-(U1-I11)*%
X53830000Y-60210000D03*
%TO.P,U1,19,I12*%
%TO.N,Net-(U1-I12)*%
X53830000Y-62750000D03*
%TO.P,U1,18,I13*%
%TO.N,Net-(U1-I13)*%
X53830000Y-65290000D03*
%TO.P,U1,17,I14*%
%TO.N,Net-(U1-I14)*%
X53830000Y-67830000D03*
%TO.P,U1,16,I15*%
%TO.N,Net-(U1-I15)*%
X53830000Y-70370000D03*
%TO.P,U1,15,~{E}*%
%TO.N,Net-(U1-~{E})*%
X53830000Y-72910000D03*
%TO.P,U1,14,S2*%
%TO.N,Net-(U1-S2)*%
X53830000Y-75450000D03*
%TO.P,U1,13,S3*%
%TO.N,Net-(U1-S3)*%
X53830000Y-77990000D03*
%TO.P,U1,12,GND*%
%TO.N,GND*%
X61450000Y-77990000D03*
%TO.P,U1,11,S1*%
%TO.N,Net-(U1-S1)*%
X61450000Y-75450000D03*
%TO.P,U1,10,S0*%
%TO.N,Net-(U1-S0)*%
X61450000Y-72910000D03*
%TO.P,U1,9,I0*%
%TO.N,Net-(U1-I0)*%
X61450000Y-70370000D03*
%TO.P,U1,8,I1*%
%TO.N,Net-(U1-I1)*%
X61450000Y-67830000D03*
%TO.P,U1,7,I2*%
%TO.N,Net-(U1-I2)*%
X61450000Y-65290000D03*
%TO.P,U1,6,I3*%
%TO.N,Net-(U1-I3)*%
X61450000Y-62750000D03*
%TO.P,U1,5,I4*%
%TO.N,Net-(U1-I4)*%
X61450000Y-60210000D03*
%TO.P,U1,4,I5*%
%TO.N,Net-(U1-I5)*%
X61450000Y-57670000D03*
%TO.P,U1,3,I6*%
%TO.N,Net-(U1-I6)*%
X61450000Y-55130000D03*
%TO.P,U1,2,I7*%
%TO.N,Net-(U1-I7)*%
X61450000Y-52590000D03*
D10*
%TO.P,U1,1,COM*%
%TO.N,Net-(U1-COM)*%
X61450000Y-50050000D03*
%TD*%
D12*
%TO.N,Net-(U1-I10)*%
X109240000Y-57620000D02*
X108165000Y-56545000D01*
X108165000Y-56545000D02*
X98955000Y-56545000D01*
X98955000Y-56545000D02*
X97830000Y-57670000D01*
%TO.N,Net-(U1-I12)*%
X108165000Y-61625000D02*
X98955000Y-61625000D01*
%TO.N,Net-(U1-I11)*%
X98955000Y-59085000D02*
X97830000Y-60210000D01*
%TO.N,Net-(U1-I9)*%
X109240000Y-55080000D02*
X108165000Y-54005000D01*
%TO.N,Net-(U1-I12)*%
X98955000Y-61625000D02*
X97830000Y-62750000D01*
%TO.N,Net-(U1-I9)*%
X108165000Y-54005000D02*
X98955000Y-54005000D01*
%TO.N,Net-(U1-I11)*%
X109240000Y-60160000D02*
X108165000Y-59085000D01*
%TO.N,Net-(U1-I8)*%
X98955000Y-51465000D02*
X97830000Y-52590000D01*
%TO.N,Net-(U1-I11)*%
X108165000Y-59085000D02*
X98955000Y-59085000D01*
%TO.N,Net-(U1-I8)*%
X108165000Y-51465000D02*
X98955000Y-51465000D01*
X109240000Y-52540000D02*
X108165000Y-51465000D01*
%TO.N,Net-(U1-I12)*%
X109240000Y-62700000D02*
X108165000Y-61625000D01*
%TO.N,Net-(U1-I9)*%
X98955000Y-54005000D02*
X97830000Y-55130000D01*
%TO.N,Net-(U1-VCC)*%
X98955000Y-48925000D02*
X97830000Y-50050000D01*
X108165000Y-48925000D02*
X98955000Y-48925000D01*
X109240000Y-50000000D02*
X108165000Y-48925000D01*
%TO.N,Net-(U1-I13)*%
X108165000Y-64165000D02*
X98955000Y-64165000D01*
X109240000Y-65240000D02*
X108165000Y-64165000D01*
X98955000Y-64165000D02*
X97830000Y-65290000D01*
%TO.N,Net-(U1-I14)*%
X108165000Y-66705000D02*
X98955000Y-66705000D01*
X109240000Y-67780000D02*
X108165000Y-66705000D01*
X98955000Y-66705000D02*
X97830000Y-67830000D01*
%TO.N,Net-(U1-~{E})*%
X98955000Y-71785000D02*
X97830000Y-72910000D01*
%TO.N,Net-(U1-S2)*%
X108165000Y-74325000D02*
X98955000Y-74325000D01*
X98955000Y-74325000D02*
X97830000Y-75450000D01*
%TO.N,Net-(U1-~{E})*%
X108165000Y-71785000D02*
X98955000Y-71785000D01*
X109240000Y-72860000D02*
X108165000Y-71785000D01*
%TO.N,Net-(U1-S2)*%
X109240000Y-75400000D02*
X108165000Y-74325000D01*
%TO.N,Net-(U1-S3)*%
X108165000Y-76865000D02*
X98955000Y-76865000D01*
X109240000Y-77940000D02*
X108165000Y-76865000D01*
%TO.N,Net-(U1-I15)*%
X98955000Y-69245000D02*
X97830000Y-70370000D01*
X108165000Y-69245000D02*
X98955000Y-69245000D01*
X109240000Y-70320000D02*
X108165000Y-69245000D01*
%TO.N,Net-(U1-S3)*%
X98955000Y-76865000D02*
X97830000Y-77990000D01*
%TO.N,Net-(U1-I10)*%
X87240000Y-57620000D02*
X86165000Y-56545000D01*
X86165000Y-56545000D02*
X76955000Y-56545000D01*
X76955000Y-56545000D02*
X75830000Y-57670000D01*
%TO.N,Net-(U1-I12)*%
X86165000Y-61625000D02*
X76955000Y-61625000D01*
%TO.N,Net-(U1-I11)*%
X76955000Y-59085000D02*
X75830000Y-60210000D01*
%TO.N,Net-(U1-I9)*%
X87240000Y-55080000D02*
X86165000Y-54005000D01*
%TO.N,Net-(U1-I12)*%
X76955000Y-61625000D02*
X75830000Y-62750000D01*
%TO.N,Net-(U1-I9)*%
X86165000Y-54005000D02*
X76955000Y-54005000D01*
%TO.N,Net-(U1-I11)*%
X87240000Y-60160000D02*
X86165000Y-59085000D01*
%TO.N,Net-(U1-I8)*%
X76955000Y-51465000D02*
X75830000Y-52590000D01*
%TO.N,Net-(U1-I11)*%
X86165000Y-59085000D02*
X76955000Y-59085000D01*
%TO.N,Net-(U1-I8)*%
X86165000Y-51465000D02*
X76955000Y-51465000D01*
X87240000Y-52540000D02*
X86165000Y-51465000D01*
%TO.N,Net-(U1-I12)*%
X87240000Y-62700000D02*
X86165000Y-61625000D01*
%TO.N,Net-(U1-I9)*%
X76955000Y-54005000D02*
X75830000Y-55130000D01*
%TO.N,Net-(U1-VCC)*%
X76955000Y-48925000D02*
X75830000Y-50050000D01*
X86165000Y-48925000D02*
X76955000Y-48925000D01*
X87240000Y-50000000D02*
X86165000Y-48925000D01*
%TO.N,Net-(U1-I13)*%
X86165000Y-64165000D02*
X76955000Y-64165000D01*
X87240000Y-65240000D02*
X86165000Y-64165000D01*
X76955000Y-64165000D02*
X75830000Y-65290000D01*
%TO.N,Net-(U1-I14)*%
X86165000Y-66705000D02*
X76955000Y-66705000D01*
X87240000Y-67780000D02*
X86165000Y-66705000D01*
X76955000Y-66705000D02*
X75830000Y-67830000D01*
%TO.N,Net-(U1-~{E})*%
X76955000Y-71785000D02*
X75830000Y-72910000D01*
%TO.N,Net-(U1-S2)*%
X86165000Y-74325000D02*
X76955000Y-74325000D01*
X76955000Y-74325000D02*
X75830000Y-75450000D01*
%TO.N,Net-(U1-~{E})*%
X86165000Y-71785000D02*
X76955000Y-71785000D01*
X87240000Y-72860000D02*
X86165000Y-71785000D01*
%TO.N,Net-(U1-S2)*%
X87240000Y-75400000D02*
X86165000Y-74325000D01*
%TO.N,Net-(U1-S3)*%
X86165000Y-76865000D02*
X76955000Y-76865000D01*
X87240000Y-77940000D02*
X86165000Y-76865000D01*
%TO.N,Net-(U1-I15)*%
X76955000Y-69245000D02*
X75830000Y-70370000D01*
X86165000Y-69245000D02*
X76955000Y-69245000D01*
X87240000Y-70320000D02*
X86165000Y-69245000D01*
%TO.N,Net-(U1-S3)*%
X76955000Y-76865000D02*
X75830000Y-77990000D01*
X64165000Y-76865000D02*
X54955000Y-76865000D01*
X65240000Y-77940000D02*
X64165000Y-76865000D01*
X54955000Y-76865000D02*
X53830000Y-77990000D01*
%TO.N,Net-(U1-S2)*%
X54955000Y-74325000D02*
X53830000Y-75450000D01*
X64165000Y-74325000D02*
X54955000Y-74325000D01*
X65240000Y-75400000D02*
X64165000Y-74325000D01*
%TO.N,Net-(U1-~{E})*%
X54955000Y-71785000D02*
X53830000Y-72910000D01*
X64165000Y-71785000D02*
X54955000Y-71785000D01*
X65240000Y-72860000D02*
X64165000Y-71785000D01*
%TO.N,Net-(U1-I15)*%
X54955000Y-69245000D02*
X53830000Y-70370000D01*
X64165000Y-69245000D02*
X54955000Y-69245000D01*
X65240000Y-70320000D02*
X64165000Y-69245000D01*
%TO.N,Net-(U1-I14)*%
X54955000Y-66705000D02*
X53830000Y-67830000D01*
X64165000Y-66705000D02*
X54955000Y-66705000D01*
X65240000Y-67780000D02*
X64165000Y-66705000D01*
%TO.N,Net-(U1-I13)*%
X54955000Y-64165000D02*
X53830000Y-65290000D01*
X64165000Y-64165000D02*
X54955000Y-64165000D01*
X65240000Y-65240000D02*
X64165000Y-64165000D01*
%TO.N,Net-(U1-I12)*%
X54955000Y-61625000D02*
X53830000Y-62750000D01*
X64165000Y-61625000D02*
X54955000Y-61625000D01*
X65240000Y-62700000D02*
X64165000Y-61625000D01*
%TO.N,Net-(U1-I11)*%
X64165000Y-59085000D02*
X54955000Y-59085000D01*
X65240000Y-60160000D02*
X64165000Y-59085000D01*
X54955000Y-59085000D02*
X53830000Y-60210000D01*
%TO.N,Net-(U1-I10)*%
X54955000Y-56545000D02*
X53830000Y-57670000D01*
X64165000Y-56545000D02*
X54955000Y-56545000D01*
X65240000Y-57620000D02*
X64165000Y-56545000D01*
%TO.N,Net-(U1-I9)*%
X54955000Y-54005000D02*
X53830000Y-55130000D01*
X65240000Y-55080000D02*
X64165000Y-54005000D01*
X64165000Y-54005000D02*
X54955000Y-54005000D01*
%TO.N,Net-(U1-I8)*%
X64165000Y-51465000D02*
X54955000Y-51465000D01*
X65240000Y-52540000D02*
X64165000Y-51465000D01*
X54955000Y-51465000D02*
X53830000Y-52590000D01*
%TO.N,Net-(U1-VCC)*%
X54955000Y-48925000D02*
X53830000Y-50050000D01*
X64165000Y-48925000D02*
X54955000Y-48925000D01*
X65240000Y-50000000D02*
X64165000Y-48925000D01*
%TD*%
%TA.AperFunction,Conductor*%
%TO.N,GND*%
G36*
X54312585Y-48470185D02*
G01*
X54358340Y-48522989D01*
X54368284Y-48592147D01*
X54339259Y-48655703D01*
X54333240Y-48662167D01*
X54282501Y-48712907D01*
X54244821Y-48750587D01*
X54183497Y-48784071D01*
X54125048Y-48782680D01*
X54056697Y-48764366D01*
X54056693Y-48764365D01*
X54056692Y-48764365D01*
X53943346Y-48754448D01*
X53830001Y-48744532D01*
X53829998Y-48744532D01*
X53603313Y-48764364D01*
X53603302Y-48764366D01*
X53383511Y-48823258D01*
X53383502Y-48823261D01*
X53177267Y-48919431D01*
X53177265Y-48919432D01*
X52990858Y-49049954D01*
X52829954Y-49210858D01*
X52699432Y-49397265D01*
X52699431Y-49397267D01*
X52603261Y-49603502D01*
X52603258Y-49603511D01*
X52544366Y-49823302D01*
X52544364Y-49823313D01*
X52524532Y-50049998D01*
X52524532Y-50050001D01*
X52544364Y-50276686D01*
X52544366Y-50276697D01*
X52603258Y-50496488D01*
X52603261Y-50496497D01*
X52699431Y-50702732D01*
X52699432Y-50702734D01*
X52829954Y-50889141D01*
X52990858Y-51050045D01*
X52990861Y-51050047D01*
X53177266Y-51180568D01*
X53235275Y-51207618D01*
X53287714Y-51253791D01*
X53306866Y-51320984D01*
X53286650Y-51387865D01*
X53235275Y-51432382D01*
X53177267Y-51459431D01*
X53177265Y-51459432D01*
X52990858Y-51589954D01*
X52829954Y-51750858D01*
X52699432Y-51937265D01*
X52699431Y-51937267D01*
X52603261Y-52143502D01*
X52603258Y-52143511D01*
X52544366Y-52363302D01*
X52544364Y-52363313D01*
X52524532Y-52589998D01*
X52524532Y-52590001D01*
X52544364Y-52816686D01*
X52544366Y-52816697D01*
X52603258Y-53036488D01*
X52603261Y-53036497D01*
X52699431Y-53242732D01*
X52699432Y-53242734D01*
X52829954Y-53429141D01*
X52990858Y-53590045D01*
X52990861Y-53590047D01*
X53177266Y-53720568D01*
X53227068Y-53743791D01*
X53235275Y-53747618D01*
X53287714Y-53793791D01*
X53306866Y-53860984D01*
X53286650Y-53927865D01*
X53235275Y-53972382D01*
X53177267Y-53999431D01*
X53177265Y-53999432D01*
X52990858Y-54129954D01*
X52829954Y-54290858D01*
X52699432Y-54477265D01*
X52699431Y-54477267D01*
X52603261Y-54683502D01*
X52603258Y-54683511D01*
X52544366Y-54903302D01*
X52544364Y-54903313D01*
X52524532Y-55129998D01*
X52524532Y-55130001D01*
X52544364Y-55356686D01*
X52544366Y-55356697D01*
X52603258Y-55576488D01*
X52603261Y-55576497D01*
X52699431Y-55782732D01*
X52699432Y-55782734D01*
X52829954Y-55969141D01*
X52990858Y-56130045D01*
X52990861Y-56130047D01*
X53177266Y-56260568D01*
X53227068Y-56283791D01*
X53235275Y-56287618D01*
X53287714Y-56333791D01*
X53306866Y-56400984D01*
X53286650Y-56467865D01*
X53235275Y-56512382D01*
X53177267Y-56539431D01*
X53177265Y-56539432D01*
X52990858Y-56669954D01*
X52829954Y-56830858D01*
X52699432Y-57017265D01*
X52699431Y-57017267D01*
X52603261Y-57223502D01*
X52603258Y-57223511D01*
X52544366Y-57443302D01*
X52544364Y-57443313D01*
X52524532Y-57669998D01*
X52524532Y-57670001D01*
X52544364Y-57896686D01*
X52544366Y-57896697D01*
X52603258Y-58116488D01*
X52603261Y-58116497D01*
X52699431Y-58322732D01*
X52699432Y-58322734D01*
X52829954Y-58509141D01*
X52990858Y-58670045D01*
X52990861Y-58670047D01*
X53177266Y-58800568D01*
X53227068Y-58823791D01*
X53235275Y-58827618D01*
X53287714Y-58873791D01*
X53306866Y-58940984D01*
X53286650Y-59007865D01*
X53235275Y-59052382D01*
X53177267Y-59079431D01*
X53177265Y-59079432D01*
X52990858Y-59209954D01*
X52829954Y-59370858D01*
X52699432Y-59557265D01*
X52699431Y-59557267D01*
X52603261Y-59763502D01*
X52603258Y-59763511D01*
X52544366Y-59983302D01*
X52544364Y-59983313D01*
X52524532Y-60209998D01*
X52524532Y-60210001D01*
X52544364Y-60436686D01*
X52544366Y-60436697D01*
X52603258Y-60656488D01*
X52603261Y-60656497D01*
X52699431Y-60862732D01*
X52699432Y-60862734D01*
X52829954Y-61049141D01*
X52990858Y-61210045D01*
X52990861Y-61210047D01*
X53177266Y-61340568D01*
X53227068Y-61363791D01*
X53235275Y-61367618D01*
X53287714Y-61413791D01*
X53306866Y-61480984D01*
X53286650Y-61547865D01*
X53235275Y-61592382D01*
X53177267Y-61619431D01*
X53177265Y-61619432D01*
X52990858Y-61749954D01*
X52829954Y-61910858D01*
X52699432Y-62097265D01*
X52699431Y-62097267D01*
X52603261Y-62303502D01*
X52603258Y-62303511D01*
X52544366Y-62523302D01*
X52544364Y-62523313D01*
X52524532Y-62749998D01*
X52524532Y-62750001D01*
X52544364Y-62976686D01*
X52544366Y-62976697D01*
X52603258Y-63196488D01*
X52603261Y-63196497D01*
X52699431Y-63402732D01*
X52699432Y-63402734D01*
X52829954Y-63589141D01*
X52990858Y-63750045D01*
X52990861Y-63750047D01*
X53177266Y-63880568D01*
X53227068Y-63903791D01*
X53235275Y-63907618D01*
X53287714Y-63953791D01*
X53306866Y-64020984D01*
X53286650Y-64087865D01*
X53235275Y-64132382D01*
X53177267Y-64159431D01*
X53177265Y-64159432D01*
X52990858Y-64289954D01*
X52829954Y-64450858D01*
X52699432Y-64637265D01*
X52699431Y-64637267D01*
X52603261Y-64843502D01*
X52603258Y-64843511D01*
X52544366Y-65063302D01*
X52544364Y-65063313D01*
X52524532Y-65289998D01*
X52524532Y-65290001D01*
X52544364Y-65516686D01*
X52544366Y-65516697D01*
X52603258Y-65736488D01*
X52603261Y-65736497D01*
X52699431Y-65942732D01*
X52699432Y-65942734D01*
X52829954Y-66129141D01*
X52990858Y-66290045D01*
X52990861Y-66290047D01*
X53177266Y-66420568D01*
X53227068Y-66443791D01*
X53235275Y-66447618D01*
X53287714Y-66493791D01*
X53306866Y-66560984D01*
X53286650Y-66627865D01*
X53235275Y-66672382D01*
X53177267Y-66699431D01*
X53177265Y-66699432D01*
X52990858Y-66829954D01*
X52829954Y-66990858D01*
X52699432Y-67177265D01*
X52699431Y-67177267D01*
X52603261Y-67383502D01*
X52603258Y-67383511D01*
X52544366Y-67603302D01*
X52544364Y-67603313D01*
X52524532Y-67829998D01*
X52524532Y-67830001D01*
X52544364Y-68056686D01*
X52544366Y-68056697D01*
X52603258Y-68276488D01*
X52603261Y-68276497D01*
X52699431Y-68482732D01*
X52699432Y-68482734D01*
X52829954Y-68669141D01*
X52990858Y-68830045D01*
X52990861Y-68830047D01*
X53177266Y-68960568D01*
X53227068Y-68983791D01*
X53235275Y-68987618D01*
X53287714Y-69033791D01*
X53306866Y-69100984D01*
X53286650Y-69167865D01*
X53235275Y-69212382D01*
X53177267Y-69239431D01*
X53177265Y-69239432D01*
X52990858Y-69369954D01*
X52829954Y-69530858D01*
X52699432Y-69717265D01*
X52699431Y-69717267D01*
X52603261Y-69923502D01*
X52603258Y-69923511D01*
X52544366Y-70143302D01*
X52544364Y-70143313D01*
X52524532Y-70369998D01*
X52524532Y-70370001D01*
X52544364Y-70596686D01*
X52544366Y-70596697D01*
X52603258Y-70816488D01*
X52603261Y-70816497D01*
X52699431Y-71022732D01*
X52699432Y-71022734D01*
X52829954Y-71209141D01*
X52990858Y-71370045D01*
X52990861Y-71370047D01*
X53177266Y-71500568D01*
X53227068Y-71523791D01*
X53235275Y-71527618D01*
X53287714Y-71573791D01*
X53306866Y-71640984D01*
X53286650Y-71707865D01*
X53235275Y-71752382D01*
X53177267Y-71779431D01*
X53177265Y-71779432D01*
X52990858Y-71909954D01*
X52829954Y-72070858D01*
X52699432Y-72257265D01*
X52699431Y-72257267D01*
X52603261Y-72463502D01*
X52603258Y-72463511D01*
X52544366Y-72683302D01*
X52544364Y-72683313D01*
X52524532Y-72909998D01*
X52524532Y-72910001D01*
X52544364Y-73136686D01*
X52544366Y-73136697D01*
X52603258Y-73356488D01*
X52603261Y-73356497D01*
X52699431Y-73562732D01*
X52699432Y-73562734D01*
X52829954Y-73749141D01*
X52990858Y-73910045D01*
X52990861Y-73910047D01*
X53177266Y-74040568D01*
X53227068Y-74063791D01*
X53235275Y-74067618D01*
X53287714Y-74113791D01*
X53306866Y-74180984D01*
X53286650Y-74247865D01*
X53235275Y-74292382D01*
X53177267Y-74319431D01*
X53177265Y-74319432D01*
X52990858Y-74449954D01*
X52829954Y-74610858D01*
X52699432Y-74797265D01*
X52699431Y-74797267D01*
X52603261Y-75003502D01*
X52603258Y-75003511D01*
X52544366Y-75223302D01*
X52544364Y-75223313D01*
X52524532Y-75449998D01*
X52524532Y-75450001D01*
X52544364Y-75676686D01*
X52544366Y-75676697D01*
X52603258Y-75896488D01*
X52603261Y-75896497D01*
X52699431Y-76102732D01*
X52699432Y-76102734D01*
X52829954Y-76289141D01*
X52990858Y-76450045D01*
X52990861Y-76450047D01*
X53177266Y-76580568D01*
X53235275Y-76607618D01*
X53287714Y-76653791D01*
X53306866Y-76720984D01*
X53286650Y-76787865D01*
X53235275Y-76832382D01*
X53177267Y-76859431D01*
X53177265Y-76859432D01*
X52990858Y-76989954D01*
X52829954Y-77150858D01*
X52699432Y-77337265D01*
X52699431Y-77337267D01*
X52603261Y-77543502D01*
X52603258Y-77543511D01*
X52544366Y-77763302D01*
X52544364Y-77763313D01*
X52524532Y-77989998D01*
X52524532Y-77990001D01*
X52544364Y-78216686D01*
X52544366Y-78216697D01*
X52603258Y-78436488D01*
X52603261Y-78436497D01*
X52699431Y-78642732D01*
X52699432Y-78642734D01*
X52829954Y-78829141D01*
X52990858Y-78990045D01*
X52990861Y-78990047D01*
X53177266Y-79120568D01*
X53383504Y-79216739D01*
X53383509Y-79216740D01*
X53383511Y-79216741D01*
X53416697Y-79225633D01*
X53603308Y-79275635D01*
X53765230Y-79289801D01*
X53829998Y-79295468D01*
X53830000Y-79295468D01*
X53830002Y-79295468D01*
X53886673Y-79290509D01*
X54056692Y-79275635D01*
X54276496Y-79216739D01*
X54482734Y-79120568D01*
X54669139Y-78990047D01*
X54830047Y-78829139D01*
X54960568Y-78642734D01*
X55056739Y-78436496D01*
X55115635Y-78216692D01*
X55135468Y-77990000D01*
X55131093Y-77939999D01*
X55124519Y-77864852D01*
X55115635Y-77763308D01*
X55097319Y-77694951D01*
X55098982Y-77625103D01*
X55129414Y-77575177D01*
X55177774Y-77526818D01*
X55239097Y-77493334D01*
X55265454Y-77490500D01*
X60076381Y-77490500D01*
X60143420Y-77510185D01*
X60189175Y-77562989D01*
X60199119Y-77632147D01*
X60196156Y-77646594D01*
X60171128Y-77739999D01*
X60171128Y-77740000D01*
X61134314Y-77740000D01*
X61122359Y-77751955D01*
X61064835Y-77864852D01*
X61045014Y-77990000D01*
X61064835Y-78115148D01*
X61122359Y-78228045D01*
X61134314Y-78240000D01*
X60171128Y-78240000D01*
X60223730Y-78436317D01*
X60223734Y-78436326D01*
X60319865Y-78642482D01*
X60450342Y-78828820D01*
X60611179Y-78989657D01*
X60797517Y-79120134D01*
X61003673Y-79216265D01*
X61003682Y-79216269D01*
X61199999Y-79268872D01*
X61200000Y-79268871D01*
X61200000Y-78305686D01*
X61211955Y-78317641D01*
X61324852Y-78375165D01*
X61418519Y-78390000D01*
X61481481Y-78390000D01*
X61575148Y-78375165D01*
X61688045Y-78317641D01*
X61700000Y-78305686D01*
X61700000Y-79268872D01*
X61896317Y-79216269D01*
X61896326Y-79216265D01*
X62102482Y-79120134D01*
X62288820Y-78989657D01*
X62449657Y-78828820D01*
X62580134Y-78642482D01*
X62676265Y-78436326D01*
X62676269Y-78436317D01*
X62728872Y-78240000D01*
X61765686Y-78240000D01*
X61777641Y-78228045D01*
X61835165Y-78115148D01*
X61854986Y-77990000D01*
X61835165Y-77864852D01*
X61777641Y-77751955D01*
X61765686Y-77740000D01*
X62728872Y-77740000D01*
X62728871Y-77739999D01*
X62703844Y-77646594D01*
X62705507Y-77576744D01*
X62744669Y-77518881D01*
X62808898Y-77491377D01*
X62823619Y-77490500D01*
X63852466Y-77490500D01*
X63919505Y-77510185D01*
X63965260Y-77562989D01*
X63975204Y-77632147D01*
X63972242Y-77646585D01*
X63968016Y-77662359D01*
X63954366Y-77713303D01*
X63954364Y-77713313D01*
X63934532Y-77939999D01*
X63934532Y-77940001D01*
X63954364Y-78166686D01*
X63954366Y-78166697D01*
X64013258Y-78386488D01*
X64013261Y-78386497D01*
X64109431Y-78592732D01*
X64109432Y-78592734D01*
X64239954Y-78779141D01*
X64400858Y-78940045D01*
X64400861Y-78940047D01*
X64587266Y-79070568D01*
X64793504Y-79166739D01*
X65013308Y-79225635D01*
X65175230Y-79239801D01*
X65239998Y-79245468D01*
X65240000Y-79245468D01*
X65240002Y-79245468D01*
X65296673Y-79240509D01*
X65466692Y-79225635D01*
X65686496Y-79166739D01*
X65892734Y-79070568D01*
X66079139Y-78940047D01*
X66240047Y-78779139D01*
X66370568Y-78592734D01*
X66466739Y-78386496D01*
X66525635Y-78166692D01*
X66545468Y-77940000D01*
X66525635Y-77713308D01*
X66466739Y-77493504D01*
X66370568Y-77287266D01*
X66240047Y-77100861D01*
X66240045Y-77100858D01*
X66079141Y-76939954D01*
X65892734Y-76809432D01*
X65892728Y-76809429D01*
X65865038Y-76796517D01*
X65834724Y-76782381D01*
X65782285Y-76736210D01*
X65763133Y-76669017D01*
X65783348Y-76602135D01*
X65834725Y-76557618D01*
X65892734Y-76530568D01*
X66079139Y-76400047D01*
X66240047Y-76239139D01*
X66370568Y-76052734D01*
X66466739Y-75846496D01*
X66525635Y-75626692D01*
X66545468Y-75400001D01*
X70694532Y-75400001D01*
X70714364Y-75626686D01*
X70714366Y-75626697D01*
X70773258Y-75846488D01*
X70773261Y-75846497D01*
X70869431Y-76052732D01*
X70869432Y-76052734D01*
X70999954Y-76239141D01*
X71160858Y-76400045D01*
X71160861Y-76400047D01*
X71347266Y-76530568D01*
X71405865Y-76557893D01*
X71458305Y-76604065D01*
X71477457Y-76671258D01*
X71457242Y-76738139D01*
X71405867Y-76782657D01*
X71347515Y-76809867D01*
X71161179Y-76940342D01*
X71000342Y-77101179D01*
X70869865Y-77287517D01*
X70773734Y-77493673D01*
X70773730Y-77493682D01*
X70721127Y-77689999D01*
X70721128Y-77690000D01*
X71684314Y-77690000D01*
X71672359Y-77701955D01*
X71614835Y-77814852D01*
X71595014Y-77940000D01*
X71614835Y-78065148D01*
X71672359Y-78178045D01*
X71684314Y-78190000D01*
X70721128Y-78190000D01*
X70773730Y-78386317D01*
X70773734Y-78386326D01*
X70869865Y-78592482D01*
X71000342Y-78778820D01*
X71161179Y-78939657D01*
X71347517Y-79070134D01*
X71553673Y-79166265D01*
X71553682Y-79166269D01*
X71749999Y-79218872D01*
X71750000Y-79218871D01*
X71750000Y-78255686D01*
X71761955Y-78267641D01*
X71874852Y-78325165D01*
X71968519Y-78340000D01*
X72031481Y-78340000D01*
X72125148Y-78325165D01*
X72238045Y-78267641D01*
X72250000Y-78255686D01*
X72250000Y-79218872D01*
X72446317Y-79166269D01*
X72446326Y-79166265D01*
X72652482Y-79070134D01*
X72838820Y-78939657D01*
X72999657Y-78778820D01*
X73130134Y-78592482D01*
X73226265Y-78386326D01*
X73226269Y-78386317D01*
X73278872Y-78190000D01*
X72315686Y-78190000D01*
X72327641Y-78178045D01*
X72385165Y-78065148D01*
X72404986Y-77940000D01*
X72385165Y-77814852D01*
X72327641Y-77701955D01*
X72315686Y-77690000D01*
X73278872Y-77690000D01*
X73278872Y-77689999D01*
X73226269Y-77493682D01*
X73226265Y-77493673D01*
X73130134Y-77287517D01*
X72999657Y-77101179D01*
X72838820Y-76940342D01*
X72652482Y-76809865D01*
X72594133Y-76782657D01*
X72541694Y-76736484D01*
X72522542Y-76669291D01*
X72542758Y-76602410D01*
X72594129Y-76557895D01*
X72652734Y-76530568D01*
X72839139Y-76400047D01*
X73000047Y-76239139D01*
X73130568Y-76052734D01*
X73226739Y-75846496D01*
X73285635Y-75626692D01*
X73305468Y-75400000D01*
X73285635Y-75173308D01*
X73226739Y-74953504D01*
X73130568Y-74747266D01*
X73000047Y-74560861D01*
X73000045Y-74560858D01*
X72839141Y-74399954D01*
X72652734Y-74269432D01*
X72652728Y-74269429D01*
X72625038Y-74256517D01*
X72594724Y-74242381D01*
X72542285Y-74196210D01*
X72523133Y-74129017D01*
X72543348Y-74062135D01*
X72594725Y-74017618D01*
X72652734Y-73990568D01*
X72839139Y-73860047D01*
X73000047Y-73699139D01*
X73130568Y-73512734D01*
X73226739Y-73306496D01*
X73285635Y-73086692D01*
X73305468Y-72860000D01*
X73285635Y-72633308D01*
X73226739Y-72413504D01*
X73130568Y-72207266D01*
X73000047Y-72020861D01*
X73000045Y-72020858D01*
X72839141Y-71859954D01*
X72652734Y-71729432D01*
X72652728Y-71729429D01*
X72625038Y-71716517D01*
X72594724Y-71702381D01*
X72542285Y-71656210D01*
X72523133Y-71589017D01*
X72543348Y-71522135D01*
X72594725Y-71477618D01*
X72652734Y-71450568D01*
X72839139Y-71320047D01*
X73000047Y-71159139D01*
X73130568Y-70972734D01*
X73226739Y-70766496D01*
X73285635Y-70546692D01*
X73305468Y-70320000D01*
X73285635Y-70093308D01*
X73226739Y-69873504D01*
X73130568Y-69667266D01*
X73000047Y-69480861D01*
X73000045Y-69480858D01*
X72839141Y-69319954D01*
X72652734Y-69189432D01*
X72652728Y-69189429D01*
X72625038Y-69176517D01*
X72594724Y-69162381D01*
X72542285Y-69116210D01*
X72523133Y-69049017D01*
X72543348Y-68982135D01*
X72594725Y-68937618D01*
X72652734Y-68910568D01*
X72839139Y-68780047D01*
X73000047Y-68619139D01*
X73130568Y-68432734D01*
X73226739Y-68226496D01*
X73285635Y-68006692D01*
X73305468Y-67780000D01*
X73285635Y-67553308D01*
X73226739Y-67333504D01*
X73130568Y-67127266D01*
X73000047Y-66940861D01*
X73000045Y-66940858D01*
X72839141Y-66779954D01*
X72652734Y-66649432D01*
X72652728Y-66649429D01*
X72625038Y-66636517D01*
X72594724Y-66622381D01*
X72542285Y-66576210D01*
X72523133Y-66509017D01*
X72543348Y-66442135D01*
X72594725Y-66397618D01*
X72652734Y-66370568D01*
X72839139Y-66240047D01*
X73000047Y-66079139D01*
X73130568Y-65892734D01*
X73226739Y-65686496D01*
X73285635Y-65466692D01*
X73305468Y-65240000D01*
X73285635Y-65013308D01*
X73226739Y-64793504D01*
X73130568Y-64587266D01*
X73000047Y-64400861D01*
X73000045Y-64400858D01*
X72839141Y-64239954D01*
X72652734Y-64109432D01*
X72652728Y-64109429D01*
X72625038Y-64096517D01*
X72594724Y-64082381D01*
X72542285Y-64036210D01*
X72523133Y-63969017D01*
X72543348Y-63902135D01*
X72594725Y-63857618D01*
X72652734Y-63830568D01*
X72839139Y-63700047D01*
X73000047Y-63539139D01*
X73130568Y-63352734D01*
X73226739Y-63146496D01*
X73285635Y-62926692D01*
X73305468Y-62700000D01*
X73285635Y-62473308D01*
X73226739Y-62253504D01*
X73130568Y-62047266D01*
X73000047Y-61860861D01*
X73000045Y-61860858D01*
X72839141Y-61699954D01*
X72652734Y-61569432D01*
X72652728Y-61569429D01*
X72625038Y-61556517D01*
X72594724Y-61542381D01*
X72542285Y-61496210D01*
X72523133Y-61429017D01*
X72543348Y-61362135D01*
X72594725Y-61317618D01*
X72652734Y-61290568D01*
X72839139Y-61160047D01*
X73000047Y-60999139D01*
X73130568Y-60812734D01*
X73226739Y-60606496D01*
X73285635Y-60386692D01*
X73305468Y-60160000D01*
X73285635Y-59933308D01*
X73226739Y-59713504D01*
X73130568Y-59507266D01*
X73000047Y-59320861D01*
X73000045Y-59320858D01*
X72839141Y-59159954D01*
X72652734Y-59029432D01*
X72652728Y-59029429D01*
X72625038Y-59016517D01*
X72594724Y-59002381D01*
X72542285Y-58956210D01*
X72523133Y-58889017D01*
X72543348Y-58822135D01*
X72594725Y-58777618D01*
X72652734Y-58750568D01*
X72839139Y-58620047D01*
X73000047Y-58459139D01*
X73130568Y-58272734D01*
X73226739Y-58066496D01*
X73285635Y-57846692D01*
X73305468Y-57620000D01*
X73285635Y-57393308D01*
X73226739Y-57173504D01*
X73130568Y-56967266D01*
X73000047Y-56780861D01*
X73000045Y-56780858D01*
X72839141Y-56619954D01*
X72652734Y-56489432D01*
X72652728Y-56489429D01*
X72625038Y-56476517D01*
X72594724Y-56462381D01*
X72542285Y-56416210D01*
X72523133Y-56349017D01*
X72543348Y-56282135D01*
X72594725Y-56237618D01*
X72652734Y-56210568D01*
X72839139Y-56080047D01*
X73000047Y-55919139D01*
X73130568Y-55732734D01*
X73226739Y-55526496D01*
X73285635Y-55306692D01*
X73305468Y-55080000D01*
X73285635Y-54853308D01*
X73226739Y-54633504D01*
X73130568Y-54427266D01*
X73000047Y-54240861D01*
X73000045Y-54240858D01*
X72839141Y-54079954D01*
X72652734Y-53949432D01*
X72652728Y-53949429D01*
X72625038Y-53936517D01*
X72594724Y-53922381D01*
X72542285Y-53876210D01*
X72523133Y-53809017D01*
X72543348Y-53742135D01*
X72594725Y-53697618D01*
X72652734Y-53670568D01*
X72839139Y-53540047D01*
X73000047Y-53379139D01*
X73130568Y-53192734D01*
X73226739Y-52986496D01*
X73285635Y-52766692D01*
X73305468Y-52540000D01*
X73285635Y-52313308D01*
X73226739Y-52093504D01*
X73130568Y-51887266D01*
X73000047Y-51700861D01*
X73000045Y-51700858D01*
X72839143Y-51539956D01*
X72814536Y-51522726D01*
X72770912Y-51468149D01*
X72763719Y-51398650D01*
X72795241Y-51336296D01*
X72855471Y-51300882D01*
X72872404Y-51297861D01*
X72907483Y-51294091D01*
X73042331Y-51243796D01*
X73157546Y-51157546D01*
X73243796Y-51042331D01*
X73294091Y-50907483D01*
X73300500Y-50847873D01*
X73300499Y-49152128D01*
X73294091Y-49092517D01*
X73259567Y-48999954D01*
X73243797Y-48957671D01*
X73243793Y-48957664D01*
X73157547Y-48842455D01*
X73157544Y-48842452D01*
X73042335Y-48756206D01*
X73042328Y-48756202D01*
X72907482Y-48705908D01*
X72907483Y-48705908D01*
X72847883Y-48699501D01*
X72847881Y-48699500D01*
X72847873Y-48699500D01*
X72847864Y-48699500D01*
X71152129Y-48699500D01*
X71152123Y-48699501D01*
X71092516Y-48705908D01*
X70957671Y-48756202D01*
X70957664Y-48756206D01*
X70842455Y-48842452D01*
X70842452Y-48842455D01*
X70756206Y-48957664D01*
X70756202Y-48957671D01*
X70705908Y-49092517D01*
X70701482Y-49133689D01*
X70699501Y-49152123D01*
X70699500Y-49152135D01*
X70699500Y-50847870D01*
X70699501Y-50847876D01*
X70705908Y-50907483D01*
X70756202Y-51042328D01*
X70756206Y-51042335D01*
X70842452Y-51157544D01*
X70842455Y-51157547D01*
X70957664Y-51243793D01*
X70957671Y-51243797D01*
X70979756Y-51252034D01*
X71092517Y-51294091D01*
X71127596Y-51297862D01*
X71192144Y-51324599D01*
X71231993Y-51381991D01*
X71234488Y-51451816D01*
X71198836Y-51511905D01*
X71185464Y-51522725D01*
X71160858Y-51539954D01*
X70999954Y-51700858D01*
X70869432Y-51887265D01*
X70869431Y-51887267D01*
X70773261Y-52093502D01*
X70773258Y-52093511D01*
X70714366Y-52313302D01*
X70714364Y-52313313D01*
X70694532Y-52539998D01*
X70694532Y-52540001D01*
X70714364Y-52766686D01*
X70714366Y-52766697D01*
X70773258Y-52986488D01*
X70773261Y-52986497D01*
X70869431Y-53192732D01*
X70869432Y-53192734D01*
X70999954Y-53379141D01*
X71160858Y-53540045D01*
X71160861Y-53540047D01*
X71347266Y-53670568D01*
X71405275Y-53697618D01*
X71457714Y-53743791D01*
X71476866Y-53810984D01*
X71456650Y-53877865D01*
X71405275Y-53922382D01*
X71347267Y-53949431D01*
X71347265Y-53949432D01*
X71160858Y-54079954D01*
X70999954Y-54240858D01*
X70869432Y-54427265D01*
X70869431Y-54427267D01*
X70773261Y-54633502D01*
X70773258Y-54633511D01*
X70714366Y-54853302D01*
X70714364Y-54853313D01*
X70694532Y-55079998D01*
X70694532Y-55080001D01*
X70714364Y-55306686D01*
X70714366Y-55306697D01*
X70773258Y-55526488D01*
X70773261Y-55526497D01*
X70869431Y-55732732D01*
X70869432Y-55732734D01*
X70999954Y-55919141D01*
X71160858Y-56080045D01*
X71160861Y-56080047D01*
X71347266Y-56210568D01*
X71405275Y-56237618D01*
X71457714Y-56283791D01*
X71476866Y-56350984D01*
X71456650Y-56417865D01*
X71405275Y-56462382D01*
X71347267Y-56489431D01*
X71347265Y-56489432D01*
X71160858Y-56619954D01*
X70999954Y-56780858D01*
X70869432Y-56967265D01*
X70869431Y-56967267D01*
X70773261Y-57173502D01*
X70773258Y-57173511D01*
X70714366Y-57393302D01*
X70714364Y-57393313D01*
X70694532Y-57619998D01*
X70694532Y-57620001D01*
X70714364Y-57846686D01*
X70714366Y-57846697D01*
X70773258Y-58066488D01*
X70773261Y-58066497D01*
X70869431Y-58272732D01*
X70869432Y-58272734D01*
X70999954Y-58459141D01*
X71160858Y-58620045D01*
X71160861Y-58620047D01*
X71347266Y-58750568D01*
X71405275Y-58777618D01*
X71457714Y-58823791D01*
X71476866Y-58890984D01*
X71456650Y-58957865D01*
X71405275Y-59002382D01*
X71347267Y-59029431D01*
X71347265Y-59029432D01*
X71160858Y-59159954D01*
X70999954Y-59320858D01*
X70869432Y-59507265D01*
X70869431Y-59507267D01*
X70773261Y-59713502D01*
X70773258Y-59713511D01*
X70714366Y-59933302D01*
X70714364Y-59933313D01*
X70694532Y-60159998D01*
X70694532Y-60160001D01*
X70714364Y-60386686D01*
X70714366Y-60386697D01*
X70773258Y-60606488D01*
X70773261Y-60606497D01*
X70869431Y-60812732D01*
X70869432Y-60812734D01*
X70999954Y-60999141D01*
X71160858Y-61160045D01*
X71160861Y-61160047D01*
X71347266Y-61290568D01*
X71405275Y-61317618D01*
X71457714Y-61363791D01*
X71476866Y-61430984D01*
X71456650Y-61497865D01*
X71405275Y-61542382D01*
X71347267Y-61569431D01*
X71347265Y-61569432D01*
X71160858Y-61699954D01*
X70999954Y-61860858D01*
X70869432Y-62047265D01*
X70869431Y-62047267D01*
X70773261Y-62253502D01*
X70773258Y-62253511D01*
X70714366Y-62473302D01*
X70714364Y-62473313D01*
X70694532Y-62699998D01*
X70694532Y-62700001D01*
X70714364Y-62926686D01*
X70714366Y-62926697D01*
X70773258Y-63146488D01*
X70773261Y-63146497D01*
X70869431Y-63352732D01*
X70869432Y-63352734D01*
X70999954Y-63539141D01*
X71160858Y-63700045D01*
X71160861Y-63700047D01*
X71347266Y-63830568D01*
X71405275Y-63857618D01*
X71457714Y-63903791D01*
X71476866Y-63970984D01*
X71456650Y-64037865D01*
X71405275Y-64082382D01*
X71347267Y-64109431D01*
X71347265Y-64109432D01*
X71160858Y-64239954D01*
X70999954Y-64400858D01*
X70869432Y-64587265D01*
X70869431Y-64587267D01*
X70773261Y-64793502D01*
X70773258Y-64793511D01*
X70714366Y-65013302D01*
X70714364Y-65013313D01*
X70694532Y-65239998D01*
X70694532Y-65240001D01*
X70714364Y-65466686D01*
X70714366Y-65466697D01*
X70773258Y-65686488D01*
X70773261Y-65686497D01*
X70869431Y-65892732D01*
X70869432Y-65892734D01*
X70999954Y-66079141D01*
X71160858Y-66240045D01*
X71160861Y-66240047D01*
X71347266Y-66370568D01*
X71405275Y-66397618D01*
X71457714Y-66443791D01*
X71476866Y-66510984D01*
X71456650Y-66577865D01*
X71405275Y-66622382D01*
X71347267Y-66649431D01*
X71347265Y-66649432D01*
X71160858Y-66779954D01*
X70999954Y-66940858D01*
X70869432Y-67127265D01*
X70869431Y-67127267D01*
X70773261Y-67333502D01*
X70773258Y-67333511D01*
X70714366Y-67553302D01*
X70714364Y-67553313D01*
X70694532Y-67779998D01*
X70694532Y-67780001D01*
X70714364Y-68006686D01*
X70714366Y-68006697D01*
X70773258Y-68226488D01*
X70773261Y-68226497D01*
X70869431Y-68432732D01*
X70869432Y-68432734D01*
X70999954Y-68619141D01*
X71160858Y-68780045D01*
X71160861Y-68780047D01*
X71347266Y-68910568D01*
X71405275Y-68937618D01*
X71457714Y-68983791D01*
X71476866Y-69050984D01*
X71456650Y-69117865D01*
X71405275Y-69162382D01*
X71347267Y-69189431D01*
X71347265Y-69189432D01*
X71160858Y-69319954D01*
X70999954Y-69480858D01*
X70869432Y-69667265D01*
X70869431Y-69667267D01*
X70773261Y-69873502D01*
X70773258Y-69873511D01*
X70714366Y-70093302D01*
X70714364Y-70093313D01*
X70694532Y-70319998D01*
X70694532Y-70320001D01*
X70714364Y-70546686D01*
X70714366Y-70546697D01*
X70773258Y-70766488D01*
X70773261Y-70766497D01*
X70869431Y-70972732D01*
X70869432Y-70972734D01*
X70999954Y-71159141D01*
X71160858Y-71320045D01*
X71160861Y-71320047D01*
X71347266Y-71450568D01*
X71405275Y-71477618D01*
X71457714Y-71523791D01*
X71476866Y-71590984D01*
X71456650Y-71657865D01*
X71405275Y-71702382D01*
X71347267Y-71729431D01*
X71347265Y-71729432D01*
X71160858Y-71859954D01*
X70999954Y-72020858D01*
X70869432Y-72207265D01*
X70869431Y-72207267D01*
X70773261Y-72413502D01*
X70773258Y-72413511D01*
X70714366Y-72633302D01*
X70714364Y-72633313D01*
X70694532Y-72859998D01*
X70694532Y-72860001D01*
X70714364Y-73086686D01*
X70714366Y-73086697D01*
X70773258Y-73306488D01*
X70773261Y-73306497D01*
X70869431Y-73512732D01*
X70869432Y-73512734D01*
X70999954Y-73699141D01*
X71160858Y-73860045D01*
X71160861Y-73860047D01*
X71347266Y-73990568D01*
X71405275Y-74017618D01*
X71457714Y-74063791D01*
X71476866Y-74130984D01*
X71456650Y-74197865D01*
X71405275Y-74242382D01*
X71347267Y-74269431D01*
X71347265Y-74269432D01*
X71160858Y-74399954D01*
X70999954Y-74560858D01*
X70869432Y-74747265D01*
X70869431Y-74747267D01*
X70773261Y-74953502D01*
X70773258Y-74953511D01*
X70714366Y-75173302D01*
X70714364Y-75173313D01*
X70694532Y-75399998D01*
X70694532Y-75400001D01*
X66545468Y-75400001D01*
X66545468Y-75400000D01*
X66525635Y-75173308D01*
X66466739Y-74953504D01*
X66370568Y-74747266D01*
X66240047Y-74560861D01*
X66240045Y-74560858D01*
X66079141Y-74399954D01*
X65892734Y-74269432D01*
X65892728Y-74269429D01*
X65865038Y-74256517D01*
X65834724Y-74242381D01*
X65782285Y-74196210D01*
X65763133Y-74129017D01*
X65783348Y-74062135D01*
X65834725Y-74017618D01*
X65892734Y-73990568D01*
X66079139Y-73860047D01*
X66240047Y-73699139D01*
X66370568Y-73512734D01*
X66466739Y-73306496D01*
X66525635Y-73086692D01*
X66545468Y-72860000D01*
X66525635Y-72633308D01*
X66466739Y-72413504D01*
X66370568Y-72207266D01*
X66240047Y-72020861D01*
X66240045Y-72020858D01*
X66079141Y-71859954D01*
X65892734Y-71729432D01*
X65892728Y-71729429D01*
X65865038Y-71716517D01*
X65834724Y-71702381D01*
X65782285Y-71656210D01*
X65763133Y-71589017D01*
X65783348Y-71522135D01*
X65834725Y-71477618D01*
X65892734Y-71450568D01*
X66079139Y-71320047D01*
X66240047Y-71159139D01*
X66370568Y-70972734D01*
X66466739Y-70766496D01*
X66525635Y-70546692D01*
X66545468Y-70320000D01*
X66525635Y-70093308D01*
X66466739Y-69873504D01*
X66370568Y-69667266D01*
X66240047Y-69480861D01*
X66240045Y-69480858D01*
X66079141Y-69319954D01*
X65892734Y-69189432D01*
X65892728Y-69189429D01*
X65865038Y-69176517D01*
X65834724Y-69162381D01*
X65782285Y-69116210D01*
X65763133Y-69049017D01*
X65783348Y-68982135D01*
X65834725Y-68937618D01*
X65892734Y-68910568D01*
X66079139Y-68780047D01*
X66240047Y-68619139D01*
X66370568Y-68432734D01*
X66466739Y-68226496D01*
X66525635Y-68006692D01*
X66545468Y-67780000D01*
X66525635Y-67553308D01*
X66466739Y-67333504D01*
X66370568Y-67127266D01*
X66240047Y-66940861D01*
X66240045Y-66940858D01*
X66079141Y-66779954D01*
X65892734Y-66649432D01*
X65892728Y-66649429D01*
X65865038Y-66636517D01*
X65834724Y-66622381D01*
X65782285Y-66576210D01*
X65763133Y-66509017D01*
X65783348Y-66442135D01*
X65834725Y-66397618D01*
X65892734Y-66370568D01*
X66079139Y-66240047D01*
X66240047Y-66079139D01*
X66370568Y-65892734D01*
X66466739Y-65686496D01*
X66525635Y-65466692D01*
X66545468Y-65240000D01*
X66525635Y-65013308D01*
X66466739Y-64793504D01*
X66370568Y-64587266D01*
X66240047Y-64400861D01*
X66240045Y-64400858D01*
X66079141Y-64239954D01*
X65892734Y-64109432D01*
X65892728Y-64109429D01*
X65865038Y-64096517D01*
X65834724Y-64082381D01*
X65782285Y-64036210D01*
X65763133Y-63969017D01*
X65783348Y-63902135D01*
X65834725Y-63857618D01*
X65892734Y-63830568D01*
X66079139Y-63700047D01*
X66240047Y-63539139D01*
X66370568Y-63352734D01*
X66466739Y-63146496D01*
X66525635Y-62926692D01*
X66545468Y-62700000D01*
X66525635Y-62473308D01*
X66466739Y-62253504D01*
X66370568Y-62047266D01*
X66240047Y-61860861D01*
X66240045Y-61860858D01*
X66079141Y-61699954D01*
X65892734Y-61569432D01*
X65892728Y-61569429D01*
X65865038Y-61556517D01*
X65834724Y-61542381D01*
X65782285Y-61496210D01*
X65763133Y-61429017D01*
X65783348Y-61362135D01*
X65834725Y-61317618D01*
X65892734Y-61290568D01*
X66079139Y-61160047D01*
X66240047Y-60999139D01*
X66370568Y-60812734D01*
X66466739Y-60606496D01*
X66525635Y-60386692D01*
X66545468Y-60160000D01*
X66525635Y-59933308D01*
X66466739Y-59713504D01*
X66370568Y-59507266D01*
X66240047Y-59320861D01*
X66240045Y-59320858D01*
X66079141Y-59159954D01*
X65892734Y-59029432D01*
X65892728Y-59029429D01*
X65865038Y-59016517D01*
X65834724Y-59002381D01*
X65782285Y-58956210D01*
X65763133Y-58889017D01*
X65783348Y-58822135D01*
X65834725Y-58777618D01*
X65892734Y-58750568D01*
X66079139Y-58620047D01*
X66240047Y-58459139D01*
X66370568Y-58272734D01*
X66466739Y-58066496D01*
X66525635Y-57846692D01*
X66545468Y-57620000D01*
X66525635Y-57393308D01*
X66466739Y-57173504D01*
X66370568Y-56967266D01*
X66240047Y-56780861D01*
X66240045Y-56780858D01*
X66079141Y-56619954D01*
X65892734Y-56489432D01*
X65892728Y-56489429D01*
X65865038Y-56476517D01*
X65834724Y-56462381D01*
X65782285Y-56416210D01*
X65763133Y-56349017D01*
X65783348Y-56282135D01*
X65834725Y-56237618D01*
X65892734Y-56210568D01*
X66079139Y-56080047D01*
X66240047Y-55919139D01*
X66370568Y-55732734D01*
X66466739Y-55526496D01*
X66525635Y-55306692D01*
X66545468Y-55080000D01*
X66525635Y-54853308D01*
X66466739Y-54633504D01*
X66370568Y-54427266D01*
X66240047Y-54240861D01*
X66240045Y-54240858D01*
X66079141Y-54079954D01*
X65892734Y-53949432D01*
X65892728Y-53949429D01*
X65865038Y-53936517D01*
X65834724Y-53922381D01*
X65782285Y-53876210D01*
X65763133Y-53809017D01*
X65783348Y-53742135D01*
X65834725Y-53697618D01*
X65892734Y-53670568D01*
X66079139Y-53540047D01*
X66240047Y-53379139D01*
X66370568Y-53192734D01*
X66466739Y-52986496D01*
X66525635Y-52766692D01*
X66545468Y-52540000D01*
X66525635Y-52313308D01*
X66466739Y-52093504D01*
X66370568Y-51887266D01*
X66240047Y-51700861D01*
X66240045Y-51700858D01*
X66079141Y-51539954D01*
X65892734Y-51409432D01*
X65892728Y-51409429D01*
X65865038Y-51396517D01*
X65834724Y-51382381D01*
X65782285Y-51336210D01*
X65763133Y-51269017D01*
X65783348Y-51202135D01*
X65834725Y-51157618D01*
X65892734Y-51130568D01*
X66079139Y-51000047D01*
X66240047Y-50839139D01*
X66370568Y-50652734D01*
X66466739Y-50446496D01*
X66525635Y-50226692D01*
X66545468Y-50000000D01*
X66525635Y-49773308D01*
X66466739Y-49553504D01*
X66370568Y-49347266D01*
X66240047Y-49160861D01*
X66240045Y-49160858D01*
X66079141Y-48999954D01*
X65892734Y-48869432D01*
X65892732Y-48869431D01*
X65686497Y-48773261D01*
X65686488Y-48773258D01*
X65466697Y-48714366D01*
X65466693Y-48714365D01*
X65466692Y-48714365D01*
X65466691Y-48714364D01*
X65466686Y-48714364D01*
X65279961Y-48698028D01*
X65240875Y-48682739D01*
X65224167Y-48693477D01*
X65200040Y-48698028D01*
X65013313Y-48714364D01*
X65013296Y-48714367D01*
X64944949Y-48732680D01*
X64875099Y-48731016D01*
X64825177Y-48700586D01*
X64786772Y-48662181D01*
X64753287Y-48600858D01*
X64758271Y-48531166D01*
X64800143Y-48475233D01*
X64865607Y-48450816D01*
X64874453Y-48450500D01*
X65189232Y-48450500D01*
X65241667Y-48465897D01*
X65266336Y-48452931D01*
X65290768Y-48450500D01*
X76245546Y-48450500D01*
X76312585Y-48470185D01*
X76358340Y-48522989D01*
X76368284Y-48592147D01*
X76339259Y-48655703D01*
X76333240Y-48662167D01*
X76282501Y-48712907D01*
X76244821Y-48750587D01*
X76183497Y-48784071D01*
X76125048Y-48782680D01*
X76056697Y-48764366D01*
X76056693Y-48764365D01*
X76056692Y-48764365D01*
X75943346Y-48754448D01*
X75830001Y-48744532D01*
X75829998Y-48744532D01*
X75603313Y-48764364D01*
X75603302Y-48764366D01*
X75383511Y-48823258D01*
X75383502Y-48823261D01*
X75177267Y-48919431D01*
X75177265Y-48919432D01*
X74990858Y-49049954D01*
X74829954Y-49210858D01*
X74699432Y-49397265D01*
X74699431Y-49397267D01*
X74603261Y-49603502D01*
X74603258Y-49603511D01*
X74544366Y-49823302D01*
X74544364Y-49823313D01*
X74524532Y-50049998D01*
X74524532Y-50050001D01*
X74544364Y-50276686D01*
X74544366Y-50276697D01*
X74603258Y-50496488D01*
X74603261Y-50496497D01*
X74699431Y-50702732D01*
X74699432Y-50702734D01*
X74829954Y-50889141D01*
X74990858Y-51050045D01*
X74990861Y-51050047D01*
X75177266Y-51180568D01*
X75235275Y-51207618D01*
X75287714Y-51253791D01*
X75306866Y-51320984D01*
X75286650Y-51387865D01*
X75235275Y-51432382D01*
X75177267Y-51459431D01*
X75177265Y-51459432D01*
X74990858Y-51589954D01*
X74829954Y-51750858D01*
X74699432Y-51937265D01*
X74699431Y-51937267D01*
X74603261Y-52143502D01*
X74603258Y-52143511D01*
X74544366Y-52363302D01*
X74544364Y-52363313D01*
X74524532Y-52589998D01*
X74524532Y-52590001D01*
X74544364Y-52816686D01*
X74544366Y-52816697D01*
X74603258Y-53036488D01*
X74603261Y-53036497D01*
X74699431Y-53242732D01*
X74699432Y-53242734D01*
X74829954Y-53429141D01*
X74990858Y-53590045D01*
X74990861Y-53590047D01*
X75177266Y-53720568D01*
X75227068Y-53743791D01*
X75235275Y-53747618D01*
X75287714Y-53793791D01*
X75306866Y-53860984D01*
X75286650Y-53927865D01*
X75235275Y-53972382D01*
X75177267Y-53999431D01*
X75177265Y-53999432D01*
X74990858Y-54129954D01*
X74829954Y-54290858D01*
X74699432Y-54477265D01*
X74699431Y-54477267D01*
X74603261Y-54683502D01*
X74603258Y-54683511D01*
X74544366Y-54903302D01*
X74544364Y-54903313D01*
X74524532Y-55129998D01*
X74524532Y-55130001D01*
X74544364Y-55356686D01*
X74544366Y-55356697D01*
X74603258Y-55576488D01*
X74603261Y-55576497D01*
X74699431Y-55782732D01*
X74699432Y-55782734D01*
X74829954Y-55969141D01*
X74990858Y-56130045D01*
X74990861Y-56130047D01*
X75177266Y-56260568D01*
X75227068Y-56283791D01*
X75235275Y-56287618D01*
X75287714Y-56333791D01*
X75306866Y-56400984D01*
X75286650Y-56467865D01*
X75235275Y-56512382D01*
X75177267Y-56539431D01*
X75177265Y-56539432D01*
X74990858Y-56669954D01*
X74829954Y-56830858D01*
X74699432Y-57017265D01*
X74699431Y-57017267D01*
X74603261Y-57223502D01*
X74603258Y-57223511D01*
X74544366Y-57443302D01*
X74544364Y-57443313D01*
X74524532Y-57669998D01*
X74524532Y-57670001D01*
X74544364Y-57896686D01*
X74544366Y-57896697D01*
X74603258Y-58116488D01*
X74603261Y-58116497D01*
X74699431Y-58322732D01*
X74699432Y-58322734D01*
X74829954Y-58509141D01*
X74990858Y-58670045D01*
X74990861Y-58670047D01*
X75177266Y-58800568D01*
X75227068Y-58823791D01*
X75235275Y-58827618D01*
X75287714Y-58873791D01*
X75306866Y-58940984D01*
X75286650Y-59007865D01*
X75235275Y-59052382D01*
X75177267Y-59079431D01*
X75177265Y-59079432D01*
X74990858Y-59209954D01*
X74829954Y-59370858D01*
X74699432Y-59557265D01*
X74699431Y-59557267D01*
X74603261Y-59763502D01*
X74603258Y-59763511D01*
X74544366Y-59983302D01*
X74544364Y-59983313D01*
X74524532Y-60209998D01*
X74524532Y-60210001D01*
X74544364Y-60436686D01*
X74544366Y-60436697D01*
X74603258Y-60656488D01*
X74603261Y-60656497D01*
X74699431Y-60862732D01*
X74699432Y-60862734D01*
X74829954Y-61049141D01*
X74990858Y-61210045D01*
X74990861Y-61210047D01*
X75177266Y-61340568D01*
X75227068Y-61363791D01*
X75235275Y-61367618D01*
X75287714Y-61413791D01*
X75306866Y-61480984D01*
X75286650Y-61547865D01*
X75235275Y-61592382D01*
X75177267Y-61619431D01*
X75177265Y-61619432D01*
X74990858Y-61749954D01*
X74829954Y-61910858D01*
X74699432Y-62097265D01*
X74699431Y-62097267D01*
X74603261Y-62303502D01*
X74603258Y-62303511D01*
X74544366Y-62523302D01*
X74544364Y-62523313D01*
X74524532Y-62749998D01*
X74524532Y-62750001D01*
X74544364Y-62976686D01*
X74544366Y-62976697D01*
X74603258Y-63196488D01*
X74603261Y-63196497D01*
X74699431Y-63402732D01*
X74699432Y-63402734D01*
X74829954Y-63589141D01*
X74990858Y-63750045D01*
X74990861Y-63750047D01*
X75177266Y-63880568D01*
X75227068Y-63903791D01*
X75235275Y-63907618D01*
X75287714Y-63953791D01*
X75306866Y-64020984D01*
X75286650Y-64087865D01*
X75235275Y-64132382D01*
X75177267Y-64159431D01*
X75177265Y-64159432D01*
X74990858Y-64289954D01*
X74829954Y-64450858D01*
X74699432Y-64637265D01*
X74699431Y-64637267D01*
X74603261Y-64843502D01*
X74603258Y-64843511D01*
X74544366Y-65063302D01*
X74544364Y-65063313D01*
X74524532Y-65289998D01*
X74524532Y-65290001D01*
X74544364Y-65516686D01*
X74544366Y-65516697D01*
X74603258Y-65736488D01*
X74603261Y-65736497D01*
X74699431Y-65942732D01*
X74699432Y-65942734D01*
X74829954Y-66129141D01*
X74990858Y-66290045D01*
X74990861Y-66290047D01*
X75177266Y-66420568D01*
X75227068Y-66443791D01*
X75235275Y-66447618D01*
X75287714Y-66493791D01*
X75306866Y-66560984D01*
X75286650Y-66627865D01*
X75235275Y-66672382D01*
X75177267Y-66699431D01*
X75177265Y-66699432D01*
X74990858Y-66829954D01*
X74829954Y-66990858D01*
X74699432Y-67177265D01*
X74699431Y-67177267D01*
X74603261Y-67383502D01*
X74603258Y-67383511D01*
X74544366Y-67603302D01*
X74544364Y-67603313D01*
X74524532Y-67829998D01*
X74524532Y-67830001D01*
X74544364Y-68056686D01*
X74544366Y-68056697D01*
X74603258Y-68276488D01*
X74603261Y-68276497D01*
X74699431Y-68482732D01*
X74699432Y-68482734D01*
X74829954Y-68669141D01*
X74990858Y-68830045D01*
X74990861Y-68830047D01*
X75177266Y-68960568D01*
X75227068Y-68983791D01*
X75235275Y-68987618D01*
X75287714Y-69033791D01*
X75306866Y-69100984D01*
X75286650Y-69167865D01*
X75235275Y-69212382D01*
X75177267Y-69239431D01*
X75177265Y-69239432D01*
X74990858Y-69369954D01*
X74829954Y-69530858D01*
X74699432Y-69717265D01*
X74699431Y-69717267D01*
X74603261Y-69923502D01*
X74603258Y-69923511D01*
X74544366Y-70143302D01*
X74544364Y-70143313D01*
X74524532Y-70369998D01*
X74524532Y-70370001D01*
X74544364Y-70596686D01*
X74544366Y-70596697D01*
X74603258Y-70816488D01*
X74603261Y-70816497D01*
X74699431Y-71022732D01*
X74699432Y-71022734D01*
X74829954Y-71209141D01*
X74990858Y-71370045D01*
X74990861Y-71370047D01*
X75177266Y-71500568D01*
X75227068Y-71523791D01*
X75235275Y-71527618D01*
X75287714Y-71573791D01*
X75306866Y-71640984D01*
X75286650Y-71707865D01*
X75235275Y-71752382D01*
X75177267Y-71779431D01*
X75177265Y-71779432D01*
X74990858Y-71909954D01*
X74829954Y-72070858D01*
X74699432Y-72257265D01*
X74699431Y-72257267D01*
X74603261Y-72463502D01*
X74603258Y-72463511D01*
X74544366Y-72683302D01*
X74544364Y-72683313D01*
X74524532Y-72909998D01*
X74524532Y-72910001D01*
X74544364Y-73136686D01*
X74544366Y-73136697D01*
X74603258Y-73356488D01*
X74603261Y-73356497D01*
X74699431Y-73562732D01*
X74699432Y-73562734D01*
X74829954Y-73749141D01*
X74990858Y-73910045D01*
X74990861Y-73910047D01*
X75177266Y-74040568D01*
X75227068Y-74063791D01*
X75235275Y-74067618D01*
X75287714Y-74113791D01*
X75306866Y-74180984D01*
X75286650Y-74247865D01*
X75235275Y-74292382D01*
X75177267Y-74319431D01*
X75177265Y-74319432D01*
X74990858Y-74449954D01*
X74829954Y-74610858D01*
X74699432Y-74797265D01*
X74699431Y-74797267D01*
X74603261Y-75003502D01*
X74603258Y-75003511D01*
X74544366Y-75223302D01*
X74544364Y-75223313D01*
X74524532Y-75449998D01*
X74524532Y-75450001D01*
X74544364Y-75676686D01*
X74544366Y-75676697D01*
X74603258Y-75896488D01*
X74603261Y-75896497D01*
X74699431Y-76102732D01*
X74699432Y-76102734D01*
X74829954Y-76289141D01*
X74990858Y-76450045D01*
X74990861Y-76450047D01*
X75177266Y-76580568D01*
X75235275Y-76607618D01*
X75287714Y-76653791D01*
X75306866Y-76720984D01*
X75286650Y-76787865D01*
X75235275Y-76832382D01*
X75177267Y-76859431D01*
X75177265Y-76859432D01*
X74990858Y-76989954D01*
X74829954Y-77150858D01*
X74699432Y-77337265D01*
X74699431Y-77337267D01*
X74603261Y-77543502D01*
X74603258Y-77543511D01*
X74544366Y-77763302D01*
X74544364Y-77763313D01*
X74524532Y-77989998D01*
X74524532Y-77990001D01*
X74544364Y-78216686D01*
X74544366Y-78216697D01*
X74603258Y-78436488D01*
X74603261Y-78436497D01*
X74699431Y-78642732D01*
X74699432Y-78642734D01*
X74829954Y-78829141D01*
X74990858Y-78990045D01*
X74990861Y-78990047D01*
X75177266Y-79120568D01*
X75383504Y-79216739D01*
X75383509Y-79216740D01*
X75383511Y-79216741D01*
X75416697Y-79225633D01*
X75603308Y-79275635D01*
X75765230Y-79289801D01*
X75829998Y-79295468D01*
X75830000Y-79295468D01*
X75830002Y-79295468D01*
X75886673Y-79290509D01*
X76056692Y-79275635D01*
X76276496Y-79216739D01*
X76482734Y-79120568D01*
X76669139Y-78990047D01*
X76830047Y-78829139D01*
X76960568Y-78642734D01*
X77056739Y-78436496D01*
X77115635Y-78216692D01*
X77135468Y-77990000D01*
X77131093Y-77939999D01*
X77124519Y-77864852D01*
X77115635Y-77763308D01*
X77097319Y-77694951D01*
X77098982Y-77625103D01*
X77129414Y-77575177D01*
X77177774Y-77526818D01*
X77239097Y-77493334D01*
X77265454Y-77490500D01*
X82076381Y-77490500D01*
X82143420Y-77510185D01*
X82189175Y-77562989D01*
X82199119Y-77632147D01*
X82196156Y-77646594D01*
X82171128Y-77739999D01*
X82171128Y-77740000D01*
X83134314Y-77740000D01*
X83122359Y-77751955D01*
X83064835Y-77864852D01*
X83045014Y-77990000D01*
X83064835Y-78115148D01*
X83122359Y-78228045D01*
X83134314Y-78240000D01*
X82171128Y-78240000D01*
X82223730Y-78436317D01*
X82223734Y-78436326D01*
X82319865Y-78642482D01*
X82450342Y-78828820D01*
X82611179Y-78989657D01*
X82797517Y-79120134D01*
X83003673Y-79216265D01*
X83003682Y-79216269D01*
X83199999Y-79268872D01*
X83200000Y-79268871D01*
X83200000Y-78305686D01*
X83211955Y-78317641D01*
X83324852Y-78375165D01*
X83418519Y-78390000D01*
X83481481Y-78390000D01*
X83575148Y-78375165D01*
X83688045Y-78317641D01*
X83700000Y-78305686D01*
X83700000Y-79268872D01*
X83896317Y-79216269D01*
X83896326Y-79216265D01*
X84102482Y-79120134D01*
X84288820Y-78989657D01*
X84449657Y-78828820D01*
X84580134Y-78642482D01*
X84676265Y-78436326D01*
X84676269Y-78436317D01*
X84728872Y-78240000D01*
X83765686Y-78240000D01*
X83777641Y-78228045D01*
X83835165Y-78115148D01*
X83854986Y-77990000D01*
X83835165Y-77864852D01*
X83777641Y-77751955D01*
X83765686Y-77740000D01*
X84728872Y-77740000D01*
X84728871Y-77739999D01*
X84703844Y-77646594D01*
X84705507Y-77576744D01*
X84744669Y-77518881D01*
X84808898Y-77491377D01*
X84823619Y-77490500D01*
X85852466Y-77490500D01*
X85919505Y-77510185D01*
X85965260Y-77562989D01*
X85975204Y-77632147D01*
X85972242Y-77646585D01*
X85968016Y-77662359D01*
X85954366Y-77713303D01*
X85954364Y-77713313D01*
X85934532Y-77939999D01*
X85934532Y-77940001D01*
X85954364Y-78166686D01*
X85954366Y-78166697D01*
X86013258Y-78386488D01*
X86013261Y-78386497D01*
X86109431Y-78592732D01*
X86109432Y-78592734D01*
X86239954Y-78779141D01*
X86400858Y-78940045D01*
X86400861Y-78940047D01*
X86587266Y-79070568D01*
X86793504Y-79166739D01*
X87013308Y-79225635D01*
X87175230Y-79239801D01*
X87239998Y-79245468D01*
X87240000Y-79245468D01*
X87240002Y-79245468D01*
X87296673Y-79240509D01*
X87466692Y-79225635D01*
X87686496Y-79166739D01*
X87892734Y-79070568D01*
X88079139Y-78940047D01*
X88240047Y-78779139D01*
X88370568Y-78592734D01*
X88466739Y-78386496D01*
X88525635Y-78166692D01*
X88545468Y-77940000D01*
X88525635Y-77713308D01*
X88466739Y-77493504D01*
X88370568Y-77287266D01*
X88240047Y-77100861D01*
X88240045Y-77100858D01*
X88079141Y-76939954D01*
X87892734Y-76809432D01*
X87892728Y-76809429D01*
X87865038Y-76796517D01*
X87834724Y-76782381D01*
X87782285Y-76736210D01*
X87763133Y-76669017D01*
X87783348Y-76602135D01*
X87834725Y-76557618D01*
X87892734Y-76530568D01*
X88079139Y-76400047D01*
X88240047Y-76239139D01*
X88370568Y-76052734D01*
X88466739Y-75846496D01*
X88525635Y-75626692D01*
X88545468Y-75400001D01*
X92694532Y-75400001D01*
X92714364Y-75626686D01*
X92714366Y-75626697D01*
X92773258Y-75846488D01*
X92773261Y-75846497D01*
X92869431Y-76052732D01*
X92869432Y-76052734D01*
X92999954Y-76239141D01*
X93160858Y-76400045D01*
X93160861Y-76400047D01*
X93347266Y-76530568D01*
X93405865Y-76557893D01*
X93458305Y-76604065D01*
X93477457Y-76671258D01*
X93457242Y-76738139D01*
X93405867Y-76782657D01*
X93347515Y-76809867D01*
X93161179Y-76940342D01*
X93000342Y-77101179D01*
X92869865Y-77287517D01*
X92773734Y-77493673D01*
X92773730Y-77493682D01*
X92721127Y-77689999D01*
X92721128Y-77690000D01*
X93684314Y-77690000D01*
X93672359Y-77701955D01*
X93614835Y-77814852D01*
X93595014Y-77940000D01*
X93614835Y-78065148D01*
X93672359Y-78178045D01*
X93684314Y-78190000D01*
X92721128Y-78190000D01*
X92773730Y-78386317D01*
X92773734Y-78386326D01*
X92869865Y-78592482D01*
X93000342Y-78778820D01*
X93161179Y-78939657D01*
X93347517Y-79070134D01*
X93553673Y-79166265D01*
X93553682Y-79166269D01*
X93749999Y-79218872D01*
X93750000Y-79218871D01*
X93750000Y-78255686D01*
X93761955Y-78267641D01*
X93874852Y-78325165D01*
X93968519Y-78340000D01*
X94031481Y-78340000D01*
X94125148Y-78325165D01*
X94238045Y-78267641D01*
X94250000Y-78255686D01*
X94250000Y-79218872D01*
X94446317Y-79166269D01*
X94446326Y-79166265D01*
X94652482Y-79070134D01*
X94838820Y-78939657D01*
X94999657Y-78778820D01*
X95130134Y-78592482D01*
X95226265Y-78386326D01*
X95226269Y-78386317D01*
X95278872Y-78190000D01*
X94315686Y-78190000D01*
X94327641Y-78178045D01*
X94385165Y-78065148D01*
X94404986Y-77940000D01*
X94385165Y-77814852D01*
X94327641Y-77701955D01*
X94315686Y-77690000D01*
X95278872Y-77690000D01*
X95278872Y-77689999D01*
X95226269Y-77493682D01*
X95226265Y-77493673D01*
X95130134Y-77287517D01*
X94999657Y-77101179D01*
X94838820Y-76940342D01*
X94652482Y-76809865D01*
X94594133Y-76782657D01*
X94541694Y-76736484D01*
X94522542Y-76669291D01*
X94542758Y-76602410D01*
X94594129Y-76557895D01*
X94652734Y-76530568D01*
X94839139Y-76400047D01*
X95000047Y-76239139D01*
X95130568Y-76052734D01*
X95226739Y-75846496D01*
X95285635Y-75626692D01*
X95305468Y-75400000D01*
X95285635Y-75173308D01*
X95226739Y-74953504D01*
X95130568Y-74747266D01*
X95000047Y-74560861D01*
X95000045Y-74560858D01*
X94839141Y-74399954D01*
X94652734Y-74269432D01*
X94652728Y-74269429D01*
X94625038Y-74256517D01*
X94594724Y-74242381D01*
X94542285Y-74196210D01*
X94523133Y-74129017D01*
X94543348Y-74062135D01*
X94594725Y-74017618D01*
X94652734Y-73990568D01*
X94839139Y-73860047D01*
X95000047Y-73699139D01*
X95130568Y-73512734D01*
X95226739Y-73306496D01*
X95285635Y-73086692D01*
X95305468Y-72860000D01*
X95285635Y-72633308D01*
X95226739Y-72413504D01*
X95130568Y-72207266D01*
X95000047Y-72020861D01*
X95000045Y-72020858D01*
X94839141Y-71859954D01*
X94652734Y-71729432D01*
X94652728Y-71729429D01*
X94625038Y-71716517D01*
X94594724Y-71702381D01*
X94542285Y-71656210D01*
X94523133Y-71589017D01*
X94543348Y-71522135D01*
X94594725Y-71477618D01*
X94652734Y-71450568D01*
X94839139Y-71320047D01*
X95000047Y-71159139D01*
X95130568Y-70972734D01*
X95226739Y-70766496D01*
X95285635Y-70546692D01*
X95305468Y-70320000D01*
X95285635Y-70093308D01*
X95226739Y-69873504D01*
X95130568Y-69667266D01*
X95000047Y-69480861D01*
X95000045Y-69480858D01*
X94839141Y-69319954D01*
X94652734Y-69189432D01*
X94652728Y-69189429D01*
X94625038Y-69176517D01*
X94594724Y-69162381D01*
X94542285Y-69116210D01*
X94523133Y-69049017D01*
X94543348Y-68982135D01*
X94594725Y-68937618D01*
X94652734Y-68910568D01*
X94839139Y-68780047D01*
X95000047Y-68619139D01*
X95130568Y-68432734D01*
X95226739Y-68226496D01*
X95285635Y-68006692D01*
X95305468Y-67780000D01*
X95285635Y-67553308D01*
X95226739Y-67333504D01*
X95130568Y-67127266D01*
X95000047Y-66940861D01*
X95000045Y-66940858D01*
X94839141Y-66779954D01*
X94652734Y-66649432D01*
X94652728Y-66649429D01*
X94625038Y-66636517D01*
X94594724Y-66622381D01*
X94542285Y-66576210D01*
X94523133Y-66509017D01*
X94543348Y-66442135D01*
X94594725Y-66397618D01*
X94652734Y-66370568D01*
X94839139Y-66240047D01*
X95000047Y-66079139D01*
X95130568Y-65892734D01*
X95226739Y-65686496D01*
X95285635Y-65466692D01*
X95305468Y-65240000D01*
X95285635Y-65013308D01*
X95226739Y-64793504D01*
X95130568Y-64587266D01*
X95000047Y-64400861D01*
X95000045Y-64400858D01*
X94839141Y-64239954D01*
X94652734Y-64109432D01*
X94652728Y-64109429D01*
X94625038Y-64096517D01*
X94594724Y-64082381D01*
X94542285Y-64036210D01*
X94523133Y-63969017D01*
X94543348Y-63902135D01*
X94594725Y-63857618D01*
X94652734Y-63830568D01*
X94839139Y-63700047D01*
X95000047Y-63539139D01*
X95130568Y-63352734D01*
X95226739Y-63146496D01*
X95285635Y-62926692D01*
X95305468Y-62700000D01*
X95285635Y-62473308D01*
X95226739Y-62253504D01*
X95130568Y-62047266D01*
X95000047Y-61860861D01*
X95000045Y-61860858D01*
X94839141Y-61699954D01*
X94652734Y-61569432D01*
X94652728Y-61569429D01*
X94625038Y-61556517D01*
X94594724Y-61542381D01*
X94542285Y-61496210D01*
X94523133Y-61429017D01*
X94543348Y-61362135D01*
X94594725Y-61317618D01*
X94652734Y-61290568D01*
X94839139Y-61160047D01*
X95000047Y-60999139D01*
X95130568Y-60812734D01*
X95226739Y-60606496D01*
X95285635Y-60386692D01*
X95305468Y-60160000D01*
X95285635Y-59933308D01*
X95226739Y-59713504D01*
X95130568Y-59507266D01*
X95000047Y-59320861D01*
X95000045Y-59320858D01*
X94839141Y-59159954D01*
X94652734Y-59029432D01*
X94652728Y-59029429D01*
X94625038Y-59016517D01*
X94594724Y-59002381D01*
X94542285Y-58956210D01*
X94523133Y-58889017D01*
X94543348Y-58822135D01*
X94594725Y-58777618D01*
X94652734Y-58750568D01*
X94839139Y-58620047D01*
X95000047Y-58459139D01*
X95130568Y-58272734D01*
X95226739Y-58066496D01*
X95285635Y-57846692D01*
X95305468Y-57620000D01*
X95285635Y-57393308D01*
X95226739Y-57173504D01*
X95130568Y-56967266D01*
X95000047Y-56780861D01*
X95000045Y-56780858D01*
X94839141Y-56619954D01*
X94652734Y-56489432D01*
X94652728Y-56489429D01*
X94625038Y-56476517D01*
X94594724Y-56462381D01*
X94542285Y-56416210D01*
X94523133Y-56349017D01*
X94543348Y-56282135D01*
X94594725Y-56237618D01*
X94652734Y-56210568D01*
X94839139Y-56080047D01*
X95000047Y-55919139D01*
X95130568Y-55732734D01*
X95226739Y-55526496D01*
X95285635Y-55306692D01*
X95305468Y-55080000D01*
X95285635Y-54853308D01*
X95226739Y-54633504D01*
X95130568Y-54427266D01*
X95000047Y-54240861D01*
X95000045Y-54240858D01*
X94839141Y-54079954D01*
X94652734Y-53949432D01*
X94652728Y-53949429D01*
X94625038Y-53936517D01*
X94594724Y-53922381D01*
X94542285Y-53876210D01*
X94523133Y-53809017D01*
X94543348Y-53742135D01*
X94594725Y-53697618D01*
X94652734Y-53670568D01*
X94839139Y-53540047D01*
X95000047Y-53379139D01*
X95130568Y-53192734D01*
X95226739Y-52986496D01*
X95285635Y-52766692D01*
X95305468Y-52540000D01*
X95285635Y-52313308D01*
X95226739Y-52093504D01*
X95130568Y-51887266D01*
X95000047Y-51700861D01*
X95000045Y-51700858D01*
X94839143Y-51539956D01*
X94814536Y-51522726D01*
X94770912Y-51468149D01*
X94763719Y-51398650D01*
X94795241Y-51336296D01*
X94855471Y-51300882D01*
X94872404Y-51297861D01*
X94907483Y-51294091D01*
X95042331Y-51243796D01*
X95157546Y-51157546D01*
X95243796Y-51042331D01*
X95294091Y-50907483D01*
X95300500Y-50847873D01*
X95300499Y-49152128D01*
X95294091Y-49092517D01*
X95259567Y-48999954D01*
X95243797Y-48957671D01*
X95243793Y-48957664D01*
X95157547Y-48842455D01*
X95157544Y-48842452D01*
X95042335Y-48756206D01*
X95042328Y-48756202D01*
X94907482Y-48705908D01*
X94907483Y-48705908D01*
X94847883Y-48699501D01*
X94847881Y-48699500D01*
X94847873Y-48699500D01*
X94847864Y-48699500D01*
X93152129Y-48699500D01*
X93152123Y-48699501D01*
X93092516Y-48705908D01*
X92957671Y-48756202D01*
X92957664Y-48756206D01*
X92842455Y-48842452D01*
X92842452Y-48842455D01*
X92756206Y-48957664D01*
X92756202Y-48957671D01*
X92705908Y-49092517D01*
X92701482Y-49133689D01*
X92699501Y-49152123D01*
X92699500Y-49152135D01*
X92699500Y-50847870D01*
X92699501Y-50847876D01*
X92705908Y-50907483D01*
X92756202Y-51042328D01*
X92756206Y-51042335D01*
X92842452Y-51157544D01*
X92842455Y-51157547D01*
X92957664Y-51243793D01*
X92957671Y-51243797D01*
X92979756Y-51252034D01*
X93092517Y-51294091D01*
X93127596Y-51297862D01*
X93192144Y-51324599D01*
X93231993Y-51381991D01*
X93234488Y-51451816D01*
X93198836Y-51511905D01*
X93185464Y-51522725D01*
X93160858Y-51539954D01*
X92999954Y-51700858D01*
X92869432Y-51887265D01*
X92869431Y-51887267D01*
X92773261Y-52093502D01*
X92773258Y-52093511D01*
X92714366Y-52313302D01*
X92714364Y-52313313D01*
X92694532Y-52539998D01*
X92694532Y-52540001D01*
X92714364Y-52766686D01*
X92714366Y-52766697D01*
X92773258Y-52986488D01*
X92773261Y-52986497D01*
X92869431Y-53192732D01*
X92869432Y-53192734D01*
X92999954Y-53379141D01*
X93160858Y-53540045D01*
X93160861Y-53540047D01*
X93347266Y-53670568D01*
X93405275Y-53697618D01*
X93457714Y-53743791D01*
X93476866Y-53810984D01*
X93456650Y-53877865D01*
X93405275Y-53922382D01*
X93347267Y-53949431D01*
X93347265Y-53949432D01*
X93160858Y-54079954D01*
X92999954Y-54240858D01*
X92869432Y-54427265D01*
X92869431Y-54427267D01*
X92773261Y-54633502D01*
X92773258Y-54633511D01*
X92714366Y-54853302D01*
X92714364Y-54853313D01*
X92694532Y-55079998D01*
X92694532Y-55080001D01*
X92714364Y-55306686D01*
X92714366Y-55306697D01*
X92773258Y-55526488D01*
X92773261Y-55526497D01*
X92869431Y-55732732D01*
X92869432Y-55732734D01*
X92999954Y-55919141D01*
X93160858Y-56080045D01*
X93160861Y-56080047D01*
X93347266Y-56210568D01*
X93405275Y-56237618D01*
X93457714Y-56283791D01*
X93476866Y-56350984D01*
X93456650Y-56417865D01*
X93405275Y-56462382D01*
X93347267Y-56489431D01*
X93347265Y-56489432D01*
X93160858Y-56619954D01*
X92999954Y-56780858D01*
X92869432Y-56967265D01*
X92869431Y-56967267D01*
X92773261Y-57173502D01*
X92773258Y-57173511D01*
X92714366Y-57393302D01*
X92714364Y-57393313D01*
X92694532Y-57619998D01*
X92694532Y-57620001D01*
X92714364Y-57846686D01*
X92714366Y-57846697D01*
X92773258Y-58066488D01*
X92773261Y-58066497D01*
X92869431Y-58272732D01*
X92869432Y-58272734D01*
X92999954Y-58459141D01*
X93160858Y-58620045D01*
X93160861Y-58620047D01*
X93347266Y-58750568D01*
X93405275Y-58777618D01*
X93457714Y-58823791D01*
X93476866Y-58890984D01*
X93456650Y-58957865D01*
X93405275Y-59002382D01*
X93347267Y-59029431D01*
X93347265Y-59029432D01*
X93160858Y-59159954D01*
X92999954Y-59320858D01*
X92869432Y-59507265D01*
X92869431Y-59507267D01*
X92773261Y-59713502D01*
X92773258Y-59713511D01*
X92714366Y-59933302D01*
X92714364Y-59933313D01*
X92694532Y-60159998D01*
X92694532Y-60160001D01*
X92714364Y-60386686D01*
X92714366Y-60386697D01*
X92773258Y-60606488D01*
X92773261Y-60606497D01*
X92869431Y-60812732D01*
X92869432Y-60812734D01*
X92999954Y-60999141D01*
X93160858Y-61160045D01*
X93160861Y-61160047D01*
X93347266Y-61290568D01*
X93405275Y-61317618D01*
X93457714Y-61363791D01*
X93476866Y-61430984D01*
X93456650Y-61497865D01*
X93405275Y-61542382D01*
X93347267Y-61569431D01*
X93347265Y-61569432D01*
X93160858Y-61699954D01*
X92999954Y-61860858D01*
X92869432Y-62047265D01*
X92869431Y-62047267D01*
X92773261Y-62253502D01*
X92773258Y-62253511D01*
X92714366Y-62473302D01*
X92714364Y-62473313D01*
X92694532Y-62699998D01*
X92694532Y-62700001D01*
X92714364Y-62926686D01*
X92714366Y-62926697D01*
X92773258Y-63146488D01*
X92773261Y-63146497D01*
X92869431Y-63352732D01*
X92869432Y-63352734D01*
X92999954Y-63539141D01*
X93160858Y-63700045D01*
X93160861Y-63700047D01*
X93347266Y-63830568D01*
X93405275Y-63857618D01*
X93457714Y-63903791D01*
X93476866Y-63970984D01*
X93456650Y-64037865D01*
X93405275Y-64082382D01*
X93347267Y-64109431D01*
X93347265Y-64109432D01*
X93160858Y-64239954D01*
X92999954Y-64400858D01*
X92869432Y-64587265D01*
X92869431Y-64587267D01*
X92773261Y-64793502D01*
X92773258Y-64793511D01*
X92714366Y-65013302D01*
X92714364Y-65013313D01*
X92694532Y-65239998D01*
X92694532Y-65240001D01*
X92714364Y-65466686D01*
X92714366Y-65466697D01*
X92773258Y-65686488D01*
X92773261Y-65686497D01*
X92869431Y-65892732D01*
X92869432Y-65892734D01*
X92999954Y-66079141D01*
X93160858Y-66240045D01*
X93160861Y-66240047D01*
X93347266Y-66370568D01*
X93405275Y-66397618D01*
X93457714Y-66443791D01*
X93476866Y-66510984D01*
X93456650Y-66577865D01*
X93405275Y-66622382D01*
X93347267Y-66649431D01*
X93347265Y-66649432D01*
X93160858Y-66779954D01*
X92999954Y-66940858D01*
X92869432Y-67127265D01*
X92869431Y-67127267D01*
X92773261Y-67333502D01*
X92773258Y-67333511D01*
X92714366Y-67553302D01*
X92714364Y-67553313D01*
X92694532Y-67779998D01*
X92694532Y-67780001D01*
X92714364Y-68006686D01*
X92714366Y-68006697D01*
X92773258Y-68226488D01*
X92773261Y-68226497D01*
X92869431Y-68432732D01*
X92869432Y-68432734D01*
X92999954Y-68619141D01*
X93160858Y-68780045D01*
X93160861Y-68780047D01*
X93347266Y-68910568D01*
X93405275Y-68937618D01*
X93457714Y-68983791D01*
X93476866Y-69050984D01*
X93456650Y-69117865D01*
X93405275Y-69162382D01*
X93347267Y-69189431D01*
X93347265Y-69189432D01*
X93160858Y-69319954D01*
X92999954Y-69480858D01*
X92869432Y-69667265D01*
X92869431Y-69667267D01*
X92773261Y-69873502D01*
X92773258Y-69873511D01*
X92714366Y-70093302D01*
X92714364Y-70093313D01*
X92694532Y-70319998D01*
X92694532Y-70320001D01*
X92714364Y-70546686D01*
X92714366Y-70546697D01*
X92773258Y-70766488D01*
X92773261Y-70766497D01*
X92869431Y-70972732D01*
X92869432Y-70972734D01*
X92999954Y-71159141D01*
X93160858Y-71320045D01*
X93160861Y-71320047D01*
X93347266Y-71450568D01*
X93405275Y-71477618D01*
X93457714Y-71523791D01*
X93476866Y-71590984D01*
X93456650Y-71657865D01*
X93405275Y-71702382D01*
X93347267Y-71729431D01*
X93347265Y-71729432D01*
X93160858Y-71859954D01*
X92999954Y-72020858D01*
X92869432Y-72207265D01*
X92869431Y-72207267D01*
X92773261Y-72413502D01*
X92773258Y-72413511D01*
X92714366Y-72633302D01*
X92714364Y-72633313D01*
X92694532Y-72859998D01*
X92694532Y-72860001D01*
X92714364Y-73086686D01*
X92714366Y-73086697D01*
X92773258Y-73306488D01*
X92773261Y-73306497D01*
X92869431Y-73512732D01*
X92869432Y-73512734D01*
X92999954Y-73699141D01*
X93160858Y-73860045D01*
X93160861Y-73860047D01*
X93347266Y-73990568D01*
X93405275Y-74017618D01*
X93457714Y-74063791D01*
X93476866Y-74130984D01*
X93456650Y-74197865D01*
X93405275Y-74242382D01*
X93347267Y-74269431D01*
X93347265Y-74269432D01*
X93160858Y-74399954D01*
X92999954Y-74560858D01*
X92869432Y-74747265D01*
X92869431Y-74747267D01*
X92773261Y-74953502D01*
X92773258Y-74953511D01*
X92714366Y-75173302D01*
X92714364Y-75173313D01*
X92694532Y-75399998D01*
X92694532Y-75400001D01*
X88545468Y-75400001D01*
X88545468Y-75400000D01*
X88525635Y-75173308D01*
X88466739Y-74953504D01*
X88370568Y-74747266D01*
X88240047Y-74560861D01*
X88240045Y-74560858D01*
X88079141Y-74399954D01*
X87892734Y-74269432D01*
X87892728Y-74269429D01*
X87865038Y-74256517D01*
X87834724Y-74242381D01*
X87782285Y-74196210D01*
X87763133Y-74129017D01*
X87783348Y-74062135D01*
X87834725Y-74017618D01*
X87892734Y-73990568D01*
X88079139Y-73860047D01*
X88240047Y-73699139D01*
X88370568Y-73512734D01*
X88466739Y-73306496D01*
X88525635Y-73086692D01*
X88545468Y-72860000D01*
X88525635Y-72633308D01*
X88466739Y-72413504D01*
X88370568Y-72207266D01*
X88240047Y-72020861D01*
X88240045Y-72020858D01*
X88079141Y-71859954D01*
X87892734Y-71729432D01*
X87892728Y-71729429D01*
X87865038Y-71716517D01*
X87834724Y-71702381D01*
X87782285Y-71656210D01*
X87763133Y-71589017D01*
X87783348Y-71522135D01*
X87834725Y-71477618D01*
X87892734Y-71450568D01*
X88079139Y-71320047D01*
X88240047Y-71159139D01*
X88370568Y-70972734D01*
X88466739Y-70766496D01*
X88525635Y-70546692D01*
X88545468Y-70320000D01*
X88525635Y-70093308D01*
X88466739Y-69873504D01*
X88370568Y-69667266D01*
X88240047Y-69480861D01*
X88240045Y-69480858D01*
X88079141Y-69319954D01*
X87892734Y-69189432D01*
X87892728Y-69189429D01*
X87865038Y-69176517D01*
X87834724Y-69162381D01*
X87782285Y-69116210D01*
X87763133Y-69049017D01*
X87783348Y-68982135D01*
X87834725Y-68937618D01*
X87892734Y-68910568D01*
X88079139Y-68780047D01*
X88240047Y-68619139D01*
X88370568Y-68432734D01*
X88466739Y-68226496D01*
X88525635Y-68006692D01*
X88545468Y-67780000D01*
X88525635Y-67553308D01*
X88466739Y-67333504D01*
X88370568Y-67127266D01*
X88240047Y-66940861D01*
X88240045Y-66940858D01*
X88079141Y-66779954D01*
X87892734Y-66649432D01*
X87892728Y-66649429D01*
X87865038Y-66636517D01*
X87834724Y-66622381D01*
X87782285Y-66576210D01*
X87763133Y-66509017D01*
X87783348Y-66442135D01*
X87834725Y-66397618D01*
X87892734Y-66370568D01*
X88079139Y-66240047D01*
X88240047Y-66079139D01*
X88370568Y-65892734D01*
X88466739Y-65686496D01*
X88525635Y-65466692D01*
X88545468Y-65240000D01*
X88525635Y-65013308D01*
X88466739Y-64793504D01*
X88370568Y-64587266D01*
X88240047Y-64400861D01*
X88240045Y-64400858D01*
X88079141Y-64239954D01*
X87892734Y-64109432D01*
X87892728Y-64109429D01*
X87865038Y-64096517D01*
X87834724Y-64082381D01*
X87782285Y-64036210D01*
X87763133Y-63969017D01*
X87783348Y-63902135D01*
X87834725Y-63857618D01*
X87892734Y-63830568D01*
X88079139Y-63700047D01*
X88240047Y-63539139D01*
X88370568Y-63352734D01*
X88466739Y-63146496D01*
X88525635Y-62926692D01*
X88545468Y-62700000D01*
X88525635Y-62473308D01*
X88466739Y-62253504D01*
X88370568Y-62047266D01*
X88240047Y-61860861D01*
X88240045Y-61860858D01*
X88079141Y-61699954D01*
X87892734Y-61569432D01*
X87892728Y-61569429D01*
X87865038Y-61556517D01*
X87834724Y-61542381D01*
X87782285Y-61496210D01*
X87763133Y-61429017D01*
X87783348Y-61362135D01*
X87834725Y-61317618D01*
X87892734Y-61290568D01*
X88079139Y-61160047D01*
X88240047Y-60999139D01*
X88370568Y-60812734D01*
X88466739Y-60606496D01*
X88525635Y-60386692D01*
X88545468Y-60160000D01*
X88525635Y-59933308D01*
X88466739Y-59713504D01*
X88370568Y-59507266D01*
X88240047Y-59320861D01*
X88240045Y-59320858D01*
X88079141Y-59159954D01*
X87892734Y-59029432D01*
X87892728Y-59029429D01*
X87865038Y-59016517D01*
X87834724Y-59002381D01*
X87782285Y-58956210D01*
X87763133Y-58889017D01*
X87783348Y-58822135D01*
X87834725Y-58777618D01*
X87892734Y-58750568D01*
X88079139Y-58620047D01*
X88240047Y-58459139D01*
X88370568Y-58272734D01*
X88466739Y-58066496D01*
X88525635Y-57846692D01*
X88545468Y-57620000D01*
X88525635Y-57393308D01*
X88466739Y-57173504D01*
X88370568Y-56967266D01*
X88240047Y-56780861D01*
X88240045Y-56780858D01*
X88079141Y-56619954D01*
X87892734Y-56489432D01*
X87892728Y-56489429D01*
X87865038Y-56476517D01*
X87834724Y-56462381D01*
X87782285Y-56416210D01*
X87763133Y-56349017D01*
X87783348Y-56282135D01*
X87834725Y-56237618D01*
X87892734Y-56210568D01*
X88079139Y-56080047D01*
X88240047Y-55919139D01*
X88370568Y-55732734D01*
X88466739Y-55526496D01*
X88525635Y-55306692D01*
X88545468Y-55080000D01*
X88525635Y-54853308D01*
X88466739Y-54633504D01*
X88370568Y-54427266D01*
X88240047Y-54240861D01*
X88240045Y-54240858D01*
X88079141Y-54079954D01*
X87892734Y-53949432D01*
X87892728Y-53949429D01*
X87865038Y-53936517D01*
X87834724Y-53922381D01*
X87782285Y-53876210D01*
X87763133Y-53809017D01*
X87783348Y-53742135D01*
X87834725Y-53697618D01*
X87892734Y-53670568D01*
X88079139Y-53540047D01*
X88240047Y-53379139D01*
X88370568Y-53192734D01*
X88466739Y-52986496D01*
X88525635Y-52766692D01*
X88545468Y-52540000D01*
X88525635Y-52313308D01*
X88466739Y-52093504D01*
X88370568Y-51887266D01*
X88240047Y-51700861D01*
X88240045Y-51700858D01*
X88079141Y-51539954D01*
X87892734Y-51409432D01*
X87892728Y-51409429D01*
X87865038Y-51396517D01*
X87834724Y-51382381D01*
X87782285Y-51336210D01*
X87763133Y-51269017D01*
X87783348Y-51202135D01*
X87834725Y-51157618D01*
X87892734Y-51130568D01*
X88079139Y-51000047D01*
X88240047Y-50839139D01*
X88370568Y-50652734D01*
X88466739Y-50446496D01*
X88525635Y-50226692D01*
X88545468Y-50000000D01*
X88525635Y-49773308D01*
X88466739Y-49553504D01*
X88370568Y-49347266D01*
X88240047Y-49160861D01*
X88240045Y-49160858D01*
X88079141Y-48999954D01*
X87892734Y-48869432D01*
X87892732Y-48869431D01*
X87686497Y-48773261D01*
X87686488Y-48773258D01*
X87466697Y-48714366D01*
X87466693Y-48714365D01*
X87466692Y-48714365D01*
X87466691Y-48714364D01*
X87466686Y-48714364D01*
X87279961Y-48698028D01*
X87240875Y-48682739D01*
X87224167Y-48693477D01*
X87200040Y-48698028D01*
X87013313Y-48714364D01*
X87013296Y-48714367D01*
X86944949Y-48732680D01*
X86875099Y-48731016D01*
X86825177Y-48700586D01*
X86786772Y-48662181D01*
X86753287Y-48600858D01*
X86758271Y-48531166D01*
X86800143Y-48475233D01*
X86865607Y-48450816D01*
X86874453Y-48450500D01*
X87189232Y-48450500D01*
X87241667Y-48465897D01*
X87266336Y-48452931D01*
X87290768Y-48450500D01*
X98245546Y-48450500D01*
X98312585Y-48470185D01*
X98358340Y-48522989D01*
X98368284Y-48592147D01*
X98339259Y-48655703D01*
X98333240Y-48662167D01*
X98282501Y-48712907D01*
X98244821Y-48750587D01*
X98183497Y-48784071D01*
X98125048Y-48782680D01*
X98056697Y-48764366D01*
X98056693Y-48764365D01*
X98056692Y-48764365D01*
X97943346Y-48754448D01*
X97830001Y-48744532D01*
X97829998Y-48744532D01*
X97603313Y-48764364D01*
X97603302Y-48764366D01*
X97383511Y-48823258D01*
X97383502Y-48823261D01*
X97177267Y-48919431D01*
X97177265Y-48919432D01*
X96990858Y-49049954D01*
X96829954Y-49210858D01*
X96699432Y-49397265D01*
X96699431Y-49397267D01*
X96603261Y-49603502D01*
X96603258Y-49603511D01*
X96544366Y-49823302D01*
X96544364Y-49823313D01*
X96524532Y-50049998D01*
X96524532Y-50050001D01*
X96544364Y-50276686D01*
X96544366Y-50276697D01*
X96603258Y-50496488D01*
X96603261Y-50496497D01*
X96699431Y-50702732D01*
X96699432Y-50702734D01*
X96829954Y-50889141D01*
X96990858Y-51050045D01*
X96990861Y-51050047D01*
X97177266Y-51180568D01*
X97235275Y-51207618D01*
X97287714Y-51253791D01*
X97306866Y-51320984D01*
X97286650Y-51387865D01*
X97235275Y-51432382D01*
X97177267Y-51459431D01*
X97177265Y-51459432D01*
X96990858Y-51589954D01*
X96829954Y-51750858D01*
X96699432Y-51937265D01*
X96699431Y-51937267D01*
X96603261Y-52143502D01*
X96603258Y-52143511D01*
X96544366Y-52363302D01*
X96544364Y-52363313D01*
X96524532Y-52589998D01*
X96524532Y-52590001D01*
X96544364Y-52816686D01*
X96544366Y-52816697D01*
X96603258Y-53036488D01*
X96603261Y-53036497D01*
X96699431Y-53242732D01*
X96699432Y-53242734D01*
X96829954Y-53429141D01*
X96990858Y-53590045D01*
X96990861Y-53590047D01*
X97177266Y-53720568D01*
X97227068Y-53743791D01*
X97235275Y-53747618D01*
X97287714Y-53793791D01*
X97306866Y-53860984D01*
X97286650Y-53927865D01*
X97235275Y-53972382D01*
X97177267Y-53999431D01*
X97177265Y-53999432D01*
X96990858Y-54129954D01*
X96829954Y-54290858D01*
X96699432Y-54477265D01*
X96699431Y-54477267D01*
X96603261Y-54683502D01*
X96603258Y-54683511D01*
X96544366Y-54903302D01*
X96544364Y-54903313D01*
X96524532Y-55129998D01*
X96524532Y-55130001D01*
X96544364Y-55356686D01*
X96544366Y-55356697D01*
X96603258Y-55576488D01*
X96603261Y-55576497D01*
X96699431Y-55782732D01*
X96699432Y-55782734D01*
X96829954Y-55969141D01*
X96990858Y-56130045D01*
X96990861Y-56130047D01*
X97177266Y-56260568D01*
X97227068Y-56283791D01*
X97235275Y-56287618D01*
X97287714Y-56333791D01*
X97306866Y-56400984D01*
X97286650Y-56467865D01*
X97235275Y-56512382D01*
X97177267Y-56539431D01*
X97177265Y-56539432D01*
X96990858Y-56669954D01*
X96829954Y-56830858D01*
X96699432Y-57017265D01*
X96699431Y-57017267D01*
X96603261Y-57223502D01*
X96603258Y-57223511D01*
X96544366Y-57443302D01*
X96544364Y-57443313D01*
X96524532Y-57669998D01*
X96524532Y-57670001D01*
X96544364Y-57896686D01*
X96544366Y-57896697D01*
X96603258Y-58116488D01*
X96603261Y-58116497D01*
X96699431Y-58322732D01*
X96699432Y-58322734D01*
X96829954Y-58509141D01*
X96990858Y-58670045D01*
X96990861Y-58670047D01*
X97177266Y-58800568D01*
X97227068Y-58823791D01*
X97235275Y-58827618D01*
X97287714Y-58873791D01*
X97306866Y-58940984D01*
X97286650Y-59007865D01*
X97235275Y-59052382D01*
X97177267Y-59079431D01*
X97177265Y-59079432D01*
X96990858Y-59209954D01*
X96829954Y-59370858D01*
X96699432Y-59557265D01*
X96699431Y-59557267D01*
X96603261Y-59763502D01*
X96603258Y-59763511D01*
X96544366Y-59983302D01*
X96544364Y-59983313D01*
X96524532Y-60209998D01*
X96524532Y-60210001D01*
X96544364Y-60436686D01*
X96544366Y-60436697D01*
X96603258Y-60656488D01*
X96603261Y-60656497D01*
X96699431Y-60862732D01*
X96699432Y-60862734D01*
X96829954Y-61049141D01*
X96990858Y-61210045D01*
X96990861Y-61210047D01*
X97177266Y-61340568D01*
X97227068Y-61363791D01*
X97235275Y-61367618D01*
X97287714Y-61413791D01*
X97306866Y-61480984D01*
X97286650Y-61547865D01*
X97235275Y-61592382D01*
X97177267Y-61619431D01*
X97177265Y-61619432D01*
X96990858Y-61749954D01*
X96829954Y-61910858D01*
X96699432Y-62097265D01*
X96699431Y-62097267D01*
X96603261Y-62303502D01*
X96603258Y-62303511D01*
X96544366Y-62523302D01*
X96544364Y-62523313D01*
X96524532Y-62749998D01*
X96524532Y-62750001D01*
X96544364Y-62976686D01*
X96544366Y-62976697D01*
X96603258Y-63196488D01*
X96603261Y-63196497D01*
X96699431Y-63402732D01*
X96699432Y-63402734D01*
X96829954Y-63589141D01*
X96990858Y-63750045D01*
X96990861Y-63750047D01*
X97177266Y-63880568D01*
X97227068Y-63903791D01*
X97235275Y-63907618D01*
X97287714Y-63953791D01*
X97306866Y-64020984D01*
X97286650Y-64087865D01*
X97235275Y-64132382D01*
X97177267Y-64159431D01*
X97177265Y-64159432D01*
X96990858Y-64289954D01*
X96829954Y-64450858D01*
X96699432Y-64637265D01*
X96699431Y-64637267D01*
X96603261Y-64843502D01*
X96603258Y-64843511D01*
X96544366Y-65063302D01*
X96544364Y-65063313D01*
X96524532Y-65289998D01*
X96524532Y-65290001D01*
X96544364Y-65516686D01*
X96544366Y-65516697D01*
X96603258Y-65736488D01*
X96603261Y-65736497D01*
X96699431Y-65942732D01*
X96699432Y-65942734D01*
X96829954Y-66129141D01*
X96990858Y-66290045D01*
X96990861Y-66290047D01*
X97177266Y-66420568D01*
X97227068Y-66443791D01*
X97235275Y-66447618D01*
X97287714Y-66493791D01*
X97306866Y-66560984D01*
X97286650Y-66627865D01*
X97235275Y-66672382D01*
X97177267Y-66699431D01*
X97177265Y-66699432D01*
X96990858Y-66829954D01*
X96829954Y-66990858D01*
X96699432Y-67177265D01*
X96699431Y-67177267D01*
X96603261Y-67383502D01*
X96603258Y-67383511D01*
X96544366Y-67603302D01*
X96544364Y-67603313D01*
X96524532Y-67829998D01*
X96524532Y-67830001D01*
X96544364Y-68056686D01*
X96544366Y-68056697D01*
X96603258Y-68276488D01*
X96603261Y-68276497D01*
X96699431Y-68482732D01*
X96699432Y-68482734D01*
X96829954Y-68669141D01*
X96990858Y-68830045D01*
X96990861Y-68830047D01*
X97177266Y-68960568D01*
X97227068Y-68983791D01*
X97235275Y-68987618D01*
X97287714Y-69033791D01*
X97306866Y-69100984D01*
X97286650Y-69167865D01*
X97235275Y-69212382D01*
X97177267Y-69239431D01*
X97177265Y-69239432D01*
X96990858Y-69369954D01*
X96829954Y-69530858D01*
X96699432Y-69717265D01*
X96699431Y-69717267D01*
X96603261Y-69923502D01*
X96603258Y-69923511D01*
X96544366Y-70143302D01*
X96544364Y-70143313D01*
X96524532Y-70369998D01*
X96524532Y-70370001D01*
X96544364Y-70596686D01*
X96544366Y-70596697D01*
X96603258Y-70816488D01*
X96603261Y-70816497D01*
X96699431Y-71022732D01*
X96699432Y-71022734D01*
X96829954Y-71209141D01*
X96990858Y-71370045D01*
X96990861Y-71370047D01*
X97177266Y-71500568D01*
X97227068Y-71523791D01*
X97235275Y-71527618D01*
X97287714Y-71573791D01*
X97306866Y-71640984D01*
X97286650Y-71707865D01*
X97235275Y-71752382D01*
X97177267Y-71779431D01*
X97177265Y-71779432D01*
X96990858Y-71909954D01*
X96829954Y-72070858D01*
X96699432Y-72257265D01*
X96699431Y-72257267D01*
X96603261Y-72463502D01*
X96603258Y-72463511D01*
X96544366Y-72683302D01*
X96544364Y-72683313D01*
X96524532Y-72909998D01*
X96524532Y-72910001D01*
X96544364Y-73136686D01*
X96544366Y-73136697D01*
X96603258Y-73356488D01*
X96603261Y-73356497D01*
X96699431Y-73562732D01*
X96699432Y-73562734D01*
X96829954Y-73749141D01*
X96990858Y-73910045D01*
X96990861Y-73910047D01*
X97177266Y-74040568D01*
X97227068Y-74063791D01*
X97235275Y-74067618D01*
X97287714Y-74113791D01*
X97306866Y-74180984D01*
X97286650Y-74247865D01*
X97235275Y-74292382D01*
X97177267Y-74319431D01*
X97177265Y-74319432D01*
X96990858Y-74449954D01*
X96829954Y-74610858D01*
X96699432Y-74797265D01*
X96699431Y-74797267D01*
X96603261Y-75003502D01*
X96603258Y-75003511D01*
X96544366Y-75223302D01*
X96544364Y-75223313D01*
X96524532Y-75449998D01*
X96524532Y-75450001D01*
X96544364Y-75676686D01*
X96544366Y-75676697D01*
X96603258Y-75896488D01*
X96603261Y-75896497D01*
X96699431Y-76102732D01*
X96699432Y-76102734D01*
X96829954Y-76289141D01*
X96990858Y-76450045D01*
X96990861Y-76450047D01*
X97177266Y-76580568D01*
X97235275Y-76607618D01*
X97287714Y-76653791D01*
X97306866Y-76720984D01*
X97286650Y-76787865D01*
X97235275Y-76832382D01*
X97177267Y-76859431D01*
X97177265Y-76859432D01*
X96990858Y-76989954D01*
X96829954Y-77150858D01*
X96699432Y-77337265D01*
X96699431Y-77337267D01*
X96603261Y-77543502D01*
X96603258Y-77543511D01*
X96544366Y-77763302D01*
X96544364Y-77763313D01*
X96524532Y-77989998D01*
X96524532Y-77990001D01*
X96544364Y-78216686D01*
X96544366Y-78216697D01*
X96603258Y-78436488D01*
X96603261Y-78436497D01*
X96699431Y-78642732D01*
X96699432Y-78642734D01*
X96829954Y-78829141D01*
X96990858Y-78990045D01*
X96990861Y-78990047D01*
X97177266Y-79120568D01*
X97383504Y-79216739D01*
X97383509Y-79216740D01*
X97383511Y-79216741D01*
X97416697Y-79225633D01*
X97603308Y-79275635D01*
X97765230Y-79289801D01*
X97829998Y-79295468D01*
X97830000Y-79295468D01*
X97830002Y-79295468D01*
X97886673Y-79290509D01*
X98056692Y-79275635D01*
X98276496Y-79216739D01*
X98482734Y-79120568D01*
X98669139Y-78990047D01*
X98830047Y-78829139D01*
X98960568Y-78642734D01*
X99056739Y-78436496D01*
X99115635Y-78216692D01*
X99135468Y-77990000D01*
X99131093Y-77939999D01*
X99124519Y-77864852D01*
X99115635Y-77763308D01*
X99097319Y-77694951D01*
X99098982Y-77625103D01*
X99129414Y-77575177D01*
X99177774Y-77526818D01*
X99239097Y-77493334D01*
X99265454Y-77490500D01*
X104076381Y-77490500D01*
X104143420Y-77510185D01*
X104189175Y-77562989D01*
X104199119Y-77632147D01*
X104196156Y-77646594D01*
X104171128Y-77739999D01*
X104171128Y-77740000D01*
X105134314Y-77740000D01*
X105122359Y-77751955D01*
X105064835Y-77864852D01*
X105045014Y-77990000D01*
X105064835Y-78115148D01*
X105122359Y-78228045D01*
X105134314Y-78240000D01*
X104171128Y-78240000D01*
X104223730Y-78436317D01*
X104223734Y-78436326D01*
X104319865Y-78642482D01*
X104450342Y-78828820D01*
X104611179Y-78989657D01*
X104797517Y-79120134D01*
X105003673Y-79216265D01*
X105003682Y-79216269D01*
X105199999Y-79268872D01*
X105200000Y-79268871D01*
X105200000Y-78305686D01*
X105211955Y-78317641D01*
X105324852Y-78375165D01*
X105418519Y-78390000D01*
X105481481Y-78390000D01*
X105575148Y-78375165D01*
X105688045Y-78317641D01*
X105700000Y-78305686D01*
X105700000Y-79268872D01*
X105896317Y-79216269D01*
X105896326Y-79216265D01*
X106102482Y-79120134D01*
X106288820Y-78989657D01*
X106449657Y-78828820D01*
X106580134Y-78642482D01*
X106676265Y-78436326D01*
X106676269Y-78436317D01*
X106728872Y-78240000D01*
X105765686Y-78240000D01*
X105777641Y-78228045D01*
X105835165Y-78115148D01*
X105854986Y-77990000D01*
X105835165Y-77864852D01*
X105777641Y-77751955D01*
X105765686Y-77740000D01*
X106728872Y-77740000D01*
X106728871Y-77739999D01*
X106703844Y-77646594D01*
X106705507Y-77576744D01*
X106744669Y-77518881D01*
X106808898Y-77491377D01*
X106823619Y-77490500D01*
X107852466Y-77490500D01*
X107919505Y-77510185D01*
X107965260Y-77562989D01*
X107975204Y-77632147D01*
X107972242Y-77646585D01*
X107968016Y-77662359D01*
X107954366Y-77713303D01*
X107954364Y-77713313D01*
X107934532Y-77939999D01*
X107934532Y-77940001D01*
X107954364Y-78166686D01*
X107954366Y-78166697D01*
X108013258Y-78386488D01*
X108013261Y-78386497D01*
X108109431Y-78592732D01*
X108109432Y-78592734D01*
X108239954Y-78779141D01*
X108400858Y-78940045D01*
X108400861Y-78940047D01*
X108587266Y-79070568D01*
X108793504Y-79166739D01*
X109013308Y-79225635D01*
X109175230Y-79239801D01*
X109239998Y-79245468D01*
X109240000Y-79245468D01*
X109240002Y-79245468D01*
X109296673Y-79240509D01*
X109466692Y-79225635D01*
X109686496Y-79166739D01*
X109892734Y-79070568D01*
X110079139Y-78940047D01*
X110111346Y-78907840D01*
X110177819Y-78841368D01*
X110239142Y-78807883D01*
X110308834Y-78812867D01*
X110364767Y-78854739D01*
X110389184Y-78920203D01*
X110389500Y-78929049D01*
X110389500Y-79465500D01*
X110369815Y-79532539D01*
X110317011Y-79578294D01*
X110265500Y-79589500D01*
X48954000Y-79589500D01*
X48886961Y-79569815D01*
X48841206Y-79517011D01*
X48830000Y-79465500D01*
X48830000Y-78907840D01*
X48849685Y-78840801D01*
X48902489Y-78795046D01*
X48971647Y-78785102D01*
X49035203Y-78814127D01*
X49041681Y-78820159D01*
X49161179Y-78939657D01*
X49347517Y-79070134D01*
X49553673Y-79166265D01*
X49553682Y-79166269D01*
X49749999Y-79218872D01*
X49750000Y-79218871D01*
X49750000Y-78255686D01*
X49761955Y-78267641D01*
X49874852Y-78325165D01*
X49968519Y-78340000D01*
X50031481Y-78340000D01*
X50125148Y-78325165D01*
X50238045Y-78267641D01*
X50250000Y-78255686D01*
X50250000Y-79218872D01*
X50446317Y-79166269D01*
X50446326Y-79166265D01*
X50652482Y-79070134D01*
X50838820Y-78939657D01*
X50999657Y-78778820D01*
X51130134Y-78592482D01*
X51226265Y-78386326D01*
X51226269Y-78386317D01*
X51278872Y-78190000D01*
X50315686Y-78190000D01*
X50327641Y-78178045D01*
X50385165Y-78065148D01*
X50404986Y-77940000D01*
X50385165Y-77814852D01*
X50327641Y-77701955D01*
X50315686Y-77690000D01*
X51278872Y-77690000D01*
X51278872Y-77689999D01*
X51226269Y-77493682D01*
X51226265Y-77493673D01*
X51130134Y-77287517D01*
X50999657Y-77101179D01*
X50838820Y-76940342D01*
X50652482Y-76809865D01*
X50594133Y-76782657D01*
X50541694Y-76736484D01*
X50522542Y-76669291D01*
X50542758Y-76602410D01*
X50594129Y-76557895D01*
X50652734Y-76530568D01*
X50839139Y-76400047D01*
X51000047Y-76239139D01*
X51130568Y-76052734D01*
X51226739Y-75846496D01*
X51285635Y-75626692D01*
X51305468Y-75400000D01*
X51285635Y-75173308D01*
X51226739Y-74953504D01*
X51130568Y-74747266D01*
X51000047Y-74560861D01*
X51000045Y-74560858D01*
X50839141Y-74399954D01*
X50652734Y-74269432D01*
X50652728Y-74269429D01*
X50625038Y-74256517D01*
X50594724Y-74242381D01*
X50542285Y-74196210D01*
X50523133Y-74129017D01*
X50543348Y-74062135D01*
X50594725Y-74017618D01*
X50652734Y-73990568D01*
X50839139Y-73860047D01*
X51000047Y-73699139D01*
X51130568Y-73512734D01*
X51226739Y-73306496D01*
X51285635Y-73086692D01*
X51305468Y-72860000D01*
X51285635Y-72633308D01*
X51226739Y-72413504D01*
X51130568Y-72207266D01*
X51000047Y-72020861D01*
X51000045Y-72020858D01*
X50839141Y-71859954D01*
X50652734Y-71729432D01*
X50652728Y-71729429D01*
X50625038Y-71716517D01*
X50594724Y-71702381D01*
X50542285Y-71656210D01*
X50523133Y-71589017D01*
X50543348Y-71522135D01*
X50594725Y-71477618D01*
X50652734Y-71450568D01*
X50839139Y-71320047D01*
X51000047Y-71159139D01*
X51130568Y-70972734D01*
X51226739Y-70766496D01*
X51285635Y-70546692D01*
X51305468Y-70320000D01*
X51285635Y-70093308D01*
X51226739Y-69873504D01*
X51130568Y-69667266D01*
X51000047Y-69480861D01*
X51000045Y-69480858D01*
X50839141Y-69319954D01*
X50652734Y-69189432D01*
X50652728Y-69189429D01*
X50625038Y-69176517D01*
X50594724Y-69162381D01*
X50542285Y-69116210D01*
X50523133Y-69049017D01*
X50543348Y-68982135D01*
X50594725Y-68937618D01*
X50652734Y-68910568D01*
X50839139Y-68780047D01*
X51000047Y-68619139D01*
X51130568Y-68432734D01*
X51226739Y-68226496D01*
X51285635Y-68006692D01*
X51305468Y-67780000D01*
X51285635Y-67553308D01*
X51226739Y-67333504D01*
X51130568Y-67127266D01*
X51000047Y-66940861D01*
X51000045Y-66940858D01*
X50839141Y-66779954D01*
X50652734Y-66649432D01*
X50652728Y-66649429D01*
X50625038Y-66636517D01*
X50594724Y-66622381D01*
X50542285Y-66576210D01*
X50523133Y-66509017D01*
X50543348Y-66442135D01*
X50594725Y-66397618D01*
X50652734Y-66370568D01*
X50839139Y-66240047D01*
X51000047Y-66079139D01*
X51130568Y-65892734D01*
X51226739Y-65686496D01*
X51285635Y-65466692D01*
X51305468Y-65240000D01*
X51285635Y-65013308D01*
X51226739Y-64793504D01*
X51130568Y-64587266D01*
X51000047Y-64400861D01*
X51000045Y-64400858D01*
X50839141Y-64239954D01*
X50652734Y-64109432D01*
X50652728Y-64109429D01*
X50625038Y-64096517D01*
X50594724Y-64082381D01*
X50542285Y-64036210D01*
X50523133Y-63969017D01*
X50543348Y-63902135D01*
X50594725Y-63857618D01*
X50652734Y-63830568D01*
X50839139Y-63700047D01*
X51000047Y-63539139D01*
X51130568Y-63352734D01*
X51226739Y-63146496D01*
X51285635Y-62926692D01*
X51305468Y-62700000D01*
X51285635Y-62473308D01*
X51226739Y-62253504D01*
X51130568Y-62047266D01*
X51000047Y-61860861D01*
X51000045Y-61860858D01*
X50839141Y-61699954D01*
X50652734Y-61569432D01*
X50652728Y-61569429D01*
X50625038Y-61556517D01*
X50594724Y-61542381D01*
X50542285Y-61496210D01*
X50523133Y-61429017D01*
X50543348Y-61362135D01*
X50594725Y-61317618D01*
X50652734Y-61290568D01*
X50839139Y-61160047D01*
X51000047Y-60999139D01*
X51130568Y-60812734D01*
X51226739Y-60606496D01*
X51285635Y-60386692D01*
X51305468Y-60160000D01*
X51285635Y-59933308D01*
X51226739Y-59713504D01*
X51130568Y-59507266D01*
X51000047Y-59320861D01*
X51000045Y-59320858D01*
X50839141Y-59159954D01*
X50652734Y-59029432D01*
X50652728Y-59029429D01*
X50625038Y-59016517D01*
X50594724Y-59002381D01*
X50542285Y-58956210D01*
X50523133Y-58889017D01*
X50543348Y-58822135D01*
X50594725Y-58777618D01*
X50652734Y-58750568D01*
X50839139Y-58620047D01*
X51000047Y-58459139D01*
X51130568Y-58272734D01*
X51226739Y-58066496D01*
X51285635Y-57846692D01*
X51305468Y-57620000D01*
X51285635Y-57393308D01*
X51226739Y-57173504D01*
X51130568Y-56967266D01*
X51000047Y-56780861D01*
X51000045Y-56780858D01*
X50839141Y-56619954D01*
X50652734Y-56489432D01*
X50652728Y-56489429D01*
X50625038Y-56476517D01*
X50594724Y-56462381D01*
X50542285Y-56416210D01*
X50523133Y-56349017D01*
X50543348Y-56282135D01*
X50594725Y-56237618D01*
X50652734Y-56210568D01*
X50839139Y-56080047D01*
X51000047Y-55919139D01*
X51130568Y-55732734D01*
X51226739Y-55526496D01*
X51285635Y-55306692D01*
X51305468Y-55080000D01*
X51285635Y-54853308D01*
X51226739Y-54633504D01*
X51130568Y-54427266D01*
X51000047Y-54240861D01*
X51000045Y-54240858D01*
X50839141Y-54079954D01*
X50652734Y-53949432D01*
X50652728Y-53949429D01*
X50625038Y-53936517D01*
X50594724Y-53922381D01*
X50542285Y-53876210D01*
X50523133Y-53809017D01*
X50543348Y-53742135D01*
X50594725Y-53697618D01*
X50652734Y-53670568D01*
X50839139Y-53540047D01*
X51000047Y-53379139D01*
X51130568Y-53192734D01*
X51226739Y-52986496D01*
X51285635Y-52766692D01*
X51305468Y-52540000D01*
X51285635Y-52313308D01*
X51226739Y-52093504D01*
X51130568Y-51887266D01*
X51000047Y-51700861D01*
X51000045Y-51700858D01*
X50839143Y-51539956D01*
X50814536Y-51522726D01*
X50770912Y-51468149D01*
X50763719Y-51398650D01*
X50795241Y-51336296D01*
X50855471Y-51300882D01*
X50872404Y-51297861D01*
X50907483Y-51294091D01*
X51042331Y-51243796D01*
X51157546Y-51157546D01*
X51243796Y-51042331D01*
X51294091Y-50907483D01*
X51300500Y-50847873D01*
X51300499Y-49152128D01*
X51294091Y-49092517D01*
X51259567Y-48999954D01*
X51243797Y-48957671D01*
X51243793Y-48957664D01*
X51157547Y-48842455D01*
X51157544Y-48842452D01*
X51042335Y-48756206D01*
X51042328Y-48756202D01*
X50907482Y-48705908D01*
X50907483Y-48705908D01*
X50847883Y-48699501D01*
X50847881Y-48699500D01*
X50847873Y-48699500D01*
X50847864Y-48699500D01*
X49152129Y-48699500D01*
X49152123Y-48699501D01*
X49092514Y-48705909D01*
X48997332Y-48741409D01*
X48927640Y-48746393D01*
X48866318Y-48712907D01*
X48832833Y-48651583D01*
X48830000Y-48625227D01*
X48830000Y-48574500D01*
X48849685Y-48507461D01*
X48902489Y-48461706D01*
X48954000Y-48450500D01*
X54245546Y-48450500D01*
X54312585Y-48470185D01*
G37*
%TD.AperFunction*%
%TD*%
%TA.AperFunction,NonConductor*%
G36*
X109241667Y-48465897D02*
G01*
X109266336Y-48452931D01*
X109290768Y-48450500D01*
X110265500Y-48450500D01*
X110332539Y-48470185D01*
X110378294Y-48522989D01*
X110389500Y-48574500D01*
X110389500Y-49010951D01*
X110369815Y-49077990D01*
X110317011Y-49123745D01*
X110247853Y-49133689D01*
X110184297Y-49104664D01*
X110177819Y-49098632D01*
X110079141Y-48999954D01*
X109892734Y-48869432D01*
X109892732Y-48869431D01*
X109686497Y-48773261D01*
X109686488Y-48773258D01*
X109466697Y-48714366D01*
X109466693Y-48714365D01*
X109466692Y-48714365D01*
X109466691Y-48714364D01*
X109466686Y-48714364D01*
X109279961Y-48698028D01*
X109240875Y-48682739D01*
X109224167Y-48693477D01*
X109200040Y-48698028D01*
X109013313Y-48714364D01*
X109013296Y-48714367D01*
X108944949Y-48732680D01*
X108875099Y-48731016D01*
X108825177Y-48700586D01*
X108786772Y-48662181D01*
X108753287Y-48600858D01*
X108758271Y-48531166D01*
X108800143Y-48475233D01*
X108865607Y-48450816D01*
X108874453Y-48450500D01*
X109189232Y-48450500D01*
X109241667Y-48465897D01*
G37*
%TD.AperFunction*%
%TA.AperFunction,NonConductor*%
G36*
X107919505Y-49570185D02*
G01*
X107965260Y-49622989D01*
X107975204Y-49692147D01*
X107972241Y-49706593D01*
X107954366Y-49773303D01*
X107954364Y-49773313D01*
X107934532Y-49999999D01*
X107934532Y-50000001D01*
X107954364Y-50226686D01*
X107954366Y-50226697D01*
X108013258Y-50446488D01*
X108013261Y-50446497D01*
X108036577Y-50496497D01*
X108109432Y-50652734D01*
X108109435Y-50652738D01*
X108109870Y-50653492D01*
X108109961Y-50653868D01*
X108111720Y-50657640D01*
X108110962Y-50657993D01*
X108126348Y-50721391D01*
X108103501Y-50787419D01*
X108048583Y-50830614D01*
X108002488Y-50839500D01*
X106874500Y-50839500D01*
X106807461Y-50819815D01*
X106761706Y-50767011D01*
X106750500Y-50715500D01*
X106750499Y-49674500D01*
X106770183Y-49607461D01*
X106822987Y-49561706D01*
X106874499Y-49550500D01*
X107852466Y-49550500D01*
X107919505Y-49570185D01*
G37*
%TD.AperFunction*%
%TA.AperFunction,NonConductor*%
G36*
X104092539Y-49570185D02*
G01*
X104138294Y-49622989D01*
X104149500Y-49674500D01*
X104149501Y-50715500D01*
X104129817Y-50782539D01*
X104077013Y-50828294D01*
X104025501Y-50839500D01*
X99091434Y-50839500D01*
X99024395Y-50819815D01*
X98978640Y-50767011D01*
X98968696Y-50697853D01*
X98979052Y-50663095D01*
X98983530Y-50653492D01*
X99056739Y-50496496D01*
X99115635Y-50276692D01*
X99135468Y-50050000D01*
X99131093Y-49999999D01*
X99115635Y-49823313D01*
X99115635Y-49823308D01*
X99097319Y-49754951D01*
X99098982Y-49685103D01*
X99129414Y-49635177D01*
X99177774Y-49586818D01*
X99239097Y-49553334D01*
X99265454Y-49550500D01*
X104025500Y-49550500D01*
X104092539Y-49570185D01*
G37*
%TD.AperFunction*%
%TA.AperFunction,NonConductor*%
G36*
X85919505Y-49570185D02*
G01*
X85965260Y-49622989D01*
X85975204Y-49692147D01*
X85972241Y-49706593D01*
X85954366Y-49773303D01*
X85954364Y-49773313D01*
X85934532Y-49999999D01*
X85934532Y-50000001D01*
X85954364Y-50226686D01*
X85954366Y-50226697D01*
X86013258Y-50446488D01*
X86013261Y-50446497D01*
X86036577Y-50496497D01*
X86109432Y-50652734D01*
X86109435Y-50652738D01*
X86109870Y-50653492D01*
X86109961Y-50653868D01*
X86111720Y-50657640D01*
X86110962Y-50657993D01*
X86126348Y-50721391D01*
X86103501Y-50787419D01*
X86048583Y-50830614D01*
X86002488Y-50839500D01*
X84874500Y-50839500D01*
X84807461Y-50819815D01*
X84761706Y-50767011D01*
X84750500Y-50715500D01*
X84750499Y-49674500D01*
X84770183Y-49607461D01*
X84822987Y-49561706D01*
X84874499Y-49550500D01*
X85852466Y-49550500D01*
X85919505Y-49570185D01*
G37*
%TD.AperFunction*%
%TA.AperFunction,NonConductor*%
G36*
X82092539Y-49570185D02*
G01*
X82138294Y-49622989D01*
X82149500Y-49674500D01*
X82149501Y-50715500D01*
X82129817Y-50782539D01*
X82077013Y-50828294D01*
X82025501Y-50839500D01*
X77091434Y-50839500D01*
X77024395Y-50819815D01*
X76978640Y-50767011D01*
X76968696Y-50697853D01*
X76979052Y-50663095D01*
X76983530Y-50653492D01*
X77056739Y-50496496D01*
X77115635Y-50276692D01*
X77135468Y-50050000D01*
X77131093Y-49999999D01*
X77115635Y-49823313D01*
X77115635Y-49823308D01*
X77097319Y-49754951D01*
X77098982Y-49685103D01*
X77129414Y-49635177D01*
X77177774Y-49586818D01*
X77239097Y-49553334D01*
X77265454Y-49550500D01*
X82025500Y-49550500D01*
X82092539Y-49570185D01*
G37*
%TD.AperFunction*%
%TA.AperFunction,NonConductor*%
G36*
X63919505Y-49570185D02*
G01*
X63965260Y-49622989D01*
X63975204Y-49692147D01*
X63972241Y-49706593D01*
X63954366Y-49773303D01*
X63954364Y-49773313D01*
X63934532Y-49999999D01*
X63934532Y-50000001D01*
X63954364Y-50226686D01*
X63954366Y-50226697D01*
X64013258Y-50446488D01*
X64013261Y-50446497D01*
X64036577Y-50496497D01*
X64109432Y-50652734D01*
X64109435Y-50652738D01*
X64109870Y-50653492D01*
X64109961Y-50653868D01*
X64111720Y-50657640D01*
X64110962Y-50657993D01*
X64126348Y-50721391D01*
X64103501Y-50787419D01*
X64048583Y-50830614D01*
X64002488Y-50839500D01*
X62874500Y-50839500D01*
X62807461Y-50819815D01*
X62761706Y-50767011D01*
X62750500Y-50715500D01*
X62750499Y-49674500D01*
X62770183Y-49607461D01*
X62822987Y-49561706D01*
X62874499Y-49550500D01*
X63852466Y-49550500D01*
X63919505Y-49570185D01*
G37*
%TD.AperFunction*%
%TA.AperFunction,NonConductor*%
G36*
X60092539Y-49570185D02*
G01*
X60138294Y-49622989D01*
X60149500Y-49674500D01*
X60149501Y-50715500D01*
X60129817Y-50782539D01*
X60077013Y-50828294D01*
X60025501Y-50839500D01*
X55091434Y-50839500D01*
X55024395Y-50819815D01*
X54978640Y-50767011D01*
X54968696Y-50697853D01*
X54979052Y-50663095D01*
X54983530Y-50653492D01*
X55056739Y-50496496D01*
X55115635Y-50276692D01*
X55135468Y-50050000D01*
X55131093Y-49999999D01*
X55115635Y-49823313D01*
X55115635Y-49823308D01*
X55097319Y-49754951D01*
X55098982Y-49685103D01*
X55129414Y-49635177D01*
X55177774Y-49586818D01*
X55239097Y-49553334D01*
X55265454Y-49550500D01*
X60025500Y-49550500D01*
X60092539Y-49570185D01*
G37*
%TD.AperFunction*%
%TA.AperFunction,NonConductor*%
G36*
X110308834Y-50872867D02*
G01*
X110364767Y-50914739D01*
X110389184Y-50980203D01*
X110389500Y-50989049D01*
X110389500Y-51550951D01*
X110369815Y-51617990D01*
X110317011Y-51663745D01*
X110247853Y-51673689D01*
X110184297Y-51644664D01*
X110177819Y-51638632D01*
X110079141Y-51539954D01*
X109892734Y-51409432D01*
X109892728Y-51409429D01*
X109865038Y-51396517D01*
X109834724Y-51382381D01*
X109782285Y-51336210D01*
X109763133Y-51269017D01*
X109783348Y-51202135D01*
X109834725Y-51157618D01*
X109892734Y-51130568D01*
X110079139Y-51000047D01*
X110098983Y-50980203D01*
X110177819Y-50901368D01*
X110239142Y-50867883D01*
X110308834Y-50872867D01*
G37*
%TD.AperFunction*%
%TA.AperFunction,NonConductor*%
G36*
X48997333Y-51258590D02*
G01*
X49025290Y-51269017D01*
X49092517Y-51294091D01*
X49127596Y-51297862D01*
X49192144Y-51324599D01*
X49231993Y-51381991D01*
X49234488Y-51451816D01*
X49198836Y-51511905D01*
X49185464Y-51522725D01*
X49160858Y-51539954D01*
X49041681Y-51659132D01*
X48980358Y-51692617D01*
X48910666Y-51687633D01*
X48854733Y-51645761D01*
X48830316Y-51580297D01*
X48830000Y-51571451D01*
X48830000Y-51374772D01*
X48849685Y-51307733D01*
X48902489Y-51261978D01*
X48971647Y-51252034D01*
X48997333Y-51258590D01*
G37*
%TD.AperFunction*%
%TA.AperFunction,NonConductor*%
G36*
X107919505Y-52110185D02*
G01*
X107965260Y-52162989D01*
X107975204Y-52232147D01*
X107972241Y-52246593D01*
X107954366Y-52313303D01*
X107954364Y-52313313D01*
X107934532Y-52539999D01*
X107934532Y-52540001D01*
X107954364Y-52766686D01*
X107954366Y-52766697D01*
X108013258Y-52986488D01*
X108013261Y-52986497D01*
X108036577Y-53036497D01*
X108109432Y-53192734D01*
X108109435Y-53192738D01*
X108109870Y-53193492D01*
X108109961Y-53193868D01*
X108111720Y-53197640D01*
X108110962Y-53197993D01*
X108126348Y-53261391D01*
X108103501Y-53327419D01*
X108048583Y-53370614D01*
X108002488Y-53379500D01*
X106711434Y-53379500D01*
X106644395Y-53359815D01*
X106598640Y-53307011D01*
X106588696Y-53237853D01*
X106599052Y-53203095D01*
X106603530Y-53193492D01*
X106676739Y-53036496D01*
X106735635Y-52816692D01*
X106755468Y-52590000D01*
X106751093Y-52539999D01*
X106735635Y-52363313D01*
X106735635Y-52363308D01*
X106717319Y-52294952D01*
X106704362Y-52246593D01*
X106706025Y-52176743D01*
X106745188Y-52118881D01*
X106809417Y-52091377D01*
X106824137Y-52090500D01*
X107852466Y-52090500D01*
X107919505Y-52110185D01*
G37*
%TD.AperFunction*%
%TA.AperFunction,NonConductor*%
G36*
X104142902Y-52110185D02*
G01*
X104188657Y-52162989D01*
X104198601Y-52232147D01*
X104195638Y-52246593D01*
X104164366Y-52363302D01*
X104164364Y-52363313D01*
X104144532Y-52589998D01*
X104144532Y-52590001D01*
X104164364Y-52816686D01*
X104164366Y-52816697D01*
X104223258Y-53036488D01*
X104223260Y-53036492D01*
X104223261Y-53036496D01*
X104296470Y-53193492D01*
X104300948Y-53203095D01*
X104311440Y-53272173D01*
X104282920Y-53335957D01*
X104224444Y-53374196D01*
X104188566Y-53379500D01*
X99091434Y-53379500D01*
X99024395Y-53359815D01*
X98978640Y-53307011D01*
X98968696Y-53237853D01*
X98979052Y-53203095D01*
X98983530Y-53193492D01*
X99056739Y-53036496D01*
X99115635Y-52816692D01*
X99135468Y-52590000D01*
X99131093Y-52539999D01*
X99115635Y-52363313D01*
X99115635Y-52363308D01*
X99097319Y-52294951D01*
X99098982Y-52225103D01*
X99129414Y-52175177D01*
X99177774Y-52126818D01*
X99239097Y-52093334D01*
X99265454Y-52090500D01*
X104075863Y-52090500D01*
X104142902Y-52110185D01*
G37*
%TD.AperFunction*%
%TA.AperFunction,NonConductor*%
G36*
X85919505Y-52110185D02*
G01*
X85965260Y-52162989D01*
X85975204Y-52232147D01*
X85972241Y-52246593D01*
X85954366Y-52313303D01*
X85954364Y-52313313D01*
X85934532Y-52539999D01*
X85934532Y-52540001D01*
X85954364Y-52766686D01*
X85954366Y-52766697D01*
X86013258Y-52986488D01*
X86013261Y-52986497D01*
X86036577Y-53036497D01*
X86109432Y-53192734D01*
X86109435Y-53192738D01*
X86109870Y-53193492D01*
X86109961Y-53193868D01*
X86111720Y-53197640D01*
X86110962Y-53197993D01*
X86126348Y-53261391D01*
X86103501Y-53327419D01*
X86048583Y-53370614D01*
X86002488Y-53379500D01*
X84711434Y-53379500D01*
X84644395Y-53359815D01*
X84598640Y-53307011D01*
X84588696Y-53237853D01*
X84599052Y-53203095D01*
X84603530Y-53193492D01*
X84676739Y-53036496D01*
X84735635Y-52816692D01*
X84755468Y-52590000D01*
X84751093Y-52539999D01*
X84735635Y-52363313D01*
X84735635Y-52363308D01*
X84717319Y-52294952D01*
X84704362Y-52246593D01*
X84706025Y-52176743D01*
X84745188Y-52118881D01*
X84809417Y-52091377D01*
X84824137Y-52090500D01*
X85852466Y-52090500D01*
X85919505Y-52110185D01*
G37*
%TD.AperFunction*%
%TA.AperFunction,NonConductor*%
G36*
X82142902Y-52110185D02*
G01*
X82188657Y-52162989D01*
X82198601Y-52232147D01*
X82195638Y-52246593D01*
X82164366Y-52363302D01*
X82164364Y-52363313D01*
X82144532Y-52589998D01*
X82144532Y-52590001D01*
X82164364Y-52816686D01*
X82164366Y-52816697D01*
X82223258Y-53036488D01*
X82223260Y-53036492D01*
X82223261Y-53036496D01*
X82296470Y-53193492D01*
X82300948Y-53203095D01*
X82311440Y-53272173D01*
X82282920Y-53335957D01*
X82224444Y-53374196D01*
X82188566Y-53379500D01*
X77091434Y-53379500D01*
X77024395Y-53359815D01*
X76978640Y-53307011D01*
X76968696Y-53237853D01*
X76979052Y-53203095D01*
X76983530Y-53193492D01*
X77056739Y-53036496D01*
X77115635Y-52816692D01*
X77135468Y-52590000D01*
X77131093Y-52539999D01*
X77115635Y-52363313D01*
X77115635Y-52363308D01*
X77097319Y-52294951D01*
X77098982Y-52225103D01*
X77129414Y-52175177D01*
X77177774Y-52126818D01*
X77239097Y-52093334D01*
X77265454Y-52090500D01*
X82075863Y-52090500D01*
X82142902Y-52110185D01*
G37*
%TD.AperFunction*%
%TA.AperFunction,NonConductor*%
G36*
X63919505Y-52110185D02*
G01*
X63965260Y-52162989D01*
X63975204Y-52232147D01*
X63972241Y-52246593D01*
X63954366Y-52313303D01*
X63954364Y-52313313D01*
X63934532Y-52539999D01*
X63934532Y-52540001D01*
X63954364Y-52766686D01*
X63954366Y-52766697D01*
X64013258Y-52986488D01*
X64013261Y-52986497D01*
X64036577Y-53036497D01*
X64109432Y-53192734D01*
X64109435Y-53192738D01*
X64109870Y-53193492D01*
X64109961Y-53193868D01*
X64111720Y-53197640D01*
X64110962Y-53197993D01*
X64126348Y-53261391D01*
X64103501Y-53327419D01*
X64048583Y-53370614D01*
X64002488Y-53379500D01*
X62711434Y-53379500D01*
X62644395Y-53359815D01*
X62598640Y-53307011D01*
X62588696Y-53237853D01*
X62599052Y-53203095D01*
X62603530Y-53193492D01*
X62676739Y-53036496D01*
X62735635Y-52816692D01*
X62755468Y-52590000D01*
X62751093Y-52539999D01*
X62735635Y-52363313D01*
X62735635Y-52363308D01*
X62717319Y-52294952D01*
X62704362Y-52246593D01*
X62706025Y-52176743D01*
X62745188Y-52118881D01*
X62809417Y-52091377D01*
X62824137Y-52090500D01*
X63852466Y-52090500D01*
X63919505Y-52110185D01*
G37*
%TD.AperFunction*%
%TA.AperFunction,NonConductor*%
G36*
X60142902Y-52110185D02*
G01*
X60188657Y-52162989D01*
X60198601Y-52232147D01*
X60195638Y-52246593D01*
X60164366Y-52363302D01*
X60164364Y-52363313D01*
X60144532Y-52589998D01*
X60144532Y-52590001D01*
X60164364Y-52816686D01*
X60164366Y-52816697D01*
X60223258Y-53036488D01*
X60223260Y-53036492D01*
X60223261Y-53036496D01*
X60296470Y-53193492D01*
X60300948Y-53203095D01*
X60311440Y-53272173D01*
X60282920Y-53335957D01*
X60224444Y-53374196D01*
X60188566Y-53379500D01*
X55091434Y-53379500D01*
X55024395Y-53359815D01*
X54978640Y-53307011D01*
X54968696Y-53237853D01*
X54979052Y-53203095D01*
X54983530Y-53193492D01*
X55056739Y-53036496D01*
X55115635Y-52816692D01*
X55135468Y-52590000D01*
X55131093Y-52539999D01*
X55115635Y-52363313D01*
X55115635Y-52363308D01*
X55097319Y-52294951D01*
X55098982Y-52225103D01*
X55129414Y-52175177D01*
X55177774Y-52126818D01*
X55239097Y-52093334D01*
X55265454Y-52090500D01*
X60075863Y-52090500D01*
X60142902Y-52110185D01*
G37*
%TD.AperFunction*%
%TA.AperFunction,NonConductor*%
G36*
X110308834Y-53412867D02*
G01*
X110364767Y-53454739D01*
X110389184Y-53520203D01*
X110389500Y-53529049D01*
X110389500Y-54090951D01*
X110369815Y-54157990D01*
X110317011Y-54203745D01*
X110247853Y-54213689D01*
X110184297Y-54184664D01*
X110177819Y-54178632D01*
X110079141Y-54079954D01*
X109892734Y-53949432D01*
X109892728Y-53949429D01*
X109865038Y-53936517D01*
X109834724Y-53922381D01*
X109782285Y-53876210D01*
X109763133Y-53809017D01*
X109783348Y-53742135D01*
X109834725Y-53697618D01*
X109892734Y-53670568D01*
X110079139Y-53540047D01*
X110110637Y-53508549D01*
X110177819Y-53441368D01*
X110239142Y-53407883D01*
X110308834Y-53412867D01*
G37*
%TD.AperFunction*%
%TA.AperFunction,NonConductor*%
G36*
X49035203Y-53414836D02*
G01*
X49041681Y-53420868D01*
X49160858Y-53540045D01*
X49160861Y-53540047D01*
X49347266Y-53670568D01*
X49405275Y-53697618D01*
X49457714Y-53743791D01*
X49476866Y-53810984D01*
X49456650Y-53877865D01*
X49405275Y-53922382D01*
X49347267Y-53949431D01*
X49347265Y-53949432D01*
X49160858Y-54079954D01*
X49041681Y-54199132D01*
X48980358Y-54232617D01*
X48910666Y-54227633D01*
X48854733Y-54185761D01*
X48830316Y-54120297D01*
X48830000Y-54111451D01*
X48830000Y-53508549D01*
X48849685Y-53441510D01*
X48902489Y-53395755D01*
X48971647Y-53385811D01*
X49035203Y-53414836D01*
G37*
%TD.AperFunction*%
%TA.AperFunction,NonConductor*%
G36*
X107919505Y-54650185D02*
G01*
X107965260Y-54702989D01*
X107975204Y-54772147D01*
X107972241Y-54786593D01*
X107954366Y-54853303D01*
X107954364Y-54853313D01*
X107934532Y-55079999D01*
X107934532Y-55080001D01*
X107954364Y-55306686D01*
X107954366Y-55306697D01*
X108013258Y-55526488D01*
X108013261Y-55526497D01*
X108036577Y-55576497D01*
X108109432Y-55732734D01*
X108109435Y-55732738D01*
X108109870Y-55733492D01*
X108109961Y-55733868D01*
X108111720Y-55737640D01*
X108110962Y-55737993D01*
X108126348Y-55801391D01*
X108103501Y-55867419D01*
X108048583Y-55910614D01*
X108002488Y-55919500D01*
X106711434Y-55919500D01*
X106644395Y-55899815D01*
X106598640Y-55847011D01*
X106588696Y-55777853D01*
X106599052Y-55743095D01*
X106603530Y-55733492D01*
X106676739Y-55576496D01*
X106735635Y-55356692D01*
X106755468Y-55130000D01*
X106751093Y-55079999D01*
X106735635Y-54903313D01*
X106735635Y-54903308D01*
X106717319Y-54834952D01*
X106704362Y-54786593D01*
X106706025Y-54716743D01*
X106745188Y-54658881D01*
X106809417Y-54631377D01*
X106824137Y-54630500D01*
X107852466Y-54630500D01*
X107919505Y-54650185D01*
G37*
%TD.AperFunction*%
%TA.AperFunction,NonConductor*%
G36*
X104142902Y-54650185D02*
G01*
X104188657Y-54702989D01*
X104198601Y-54772147D01*
X104195638Y-54786593D01*
X104164366Y-54903302D01*
X104164364Y-54903313D01*
X104144532Y-55129998D01*
X104144532Y-55130001D01*
X104164364Y-55356686D01*
X104164366Y-55356697D01*
X104223258Y-55576488D01*
X104223260Y-55576492D01*
X104223261Y-55576496D01*
X104296470Y-55733492D01*
X104300948Y-55743095D01*
X104311440Y-55812173D01*
X104282920Y-55875957D01*
X104224444Y-55914196D01*
X104188566Y-55919500D01*
X99091434Y-55919500D01*
X99024395Y-55899815D01*
X98978640Y-55847011D01*
X98968696Y-55777853D01*
X98979052Y-55743095D01*
X98983530Y-55733492D01*
X99056739Y-55576496D01*
X99115635Y-55356692D01*
X99135468Y-55130000D01*
X99131093Y-55079999D01*
X99115635Y-54903313D01*
X99115635Y-54903308D01*
X99097319Y-54834951D01*
X99098982Y-54765103D01*
X99129414Y-54715177D01*
X99177774Y-54666818D01*
X99239097Y-54633334D01*
X99265454Y-54630500D01*
X104075863Y-54630500D01*
X104142902Y-54650185D01*
G37*
%TD.AperFunction*%
%TA.AperFunction,NonConductor*%
G36*
X85919505Y-54650185D02*
G01*
X85965260Y-54702989D01*
X85975204Y-54772147D01*
X85972241Y-54786593D01*
X85954366Y-54853303D01*
X85954364Y-54853313D01*
X85934532Y-55079999D01*
X85934532Y-55080001D01*
X85954364Y-55306686D01*
X85954366Y-55306697D01*
X86013258Y-55526488D01*
X86013261Y-55526497D01*
X86036577Y-55576497D01*
X86109432Y-55732734D01*
X86109435Y-55732738D01*
X86109870Y-55733492D01*
X86109961Y-55733868D01*
X86111720Y-55737640D01*
X86110962Y-55737993D01*
X86126348Y-55801391D01*
X86103501Y-55867419D01*
X86048583Y-55910614D01*
X86002488Y-55919500D01*
X84711434Y-55919500D01*
X84644395Y-55899815D01*
X84598640Y-55847011D01*
X84588696Y-55777853D01*
X84599052Y-55743095D01*
X84603530Y-55733492D01*
X84676739Y-55576496D01*
X84735635Y-55356692D01*
X84755468Y-55130000D01*
X84751093Y-55079999D01*
X84735635Y-54903313D01*
X84735635Y-54903308D01*
X84717319Y-54834952D01*
X84704362Y-54786593D01*
X84706025Y-54716743D01*
X84745188Y-54658881D01*
X84809417Y-54631377D01*
X84824137Y-54630500D01*
X85852466Y-54630500D01*
X85919505Y-54650185D01*
G37*
%TD.AperFunction*%
%TA.AperFunction,NonConductor*%
G36*
X82142902Y-54650185D02*
G01*
X82188657Y-54702989D01*
X82198601Y-54772147D01*
X82195638Y-54786593D01*
X82164366Y-54903302D01*
X82164364Y-54903313D01*
X82144532Y-55129998D01*
X82144532Y-55130001D01*
X82164364Y-55356686D01*
X82164366Y-55356697D01*
X82223258Y-55576488D01*
X82223260Y-55576492D01*
X82223261Y-55576496D01*
X82296470Y-55733492D01*
X82300948Y-55743095D01*
X82311440Y-55812173D01*
X82282920Y-55875957D01*
X82224444Y-55914196D01*
X82188566Y-55919500D01*
X77091434Y-55919500D01*
X77024395Y-55899815D01*
X76978640Y-55847011D01*
X76968696Y-55777853D01*
X76979052Y-55743095D01*
X76983530Y-55733492D01*
X77056739Y-55576496D01*
X77115635Y-55356692D01*
X77135468Y-55130000D01*
X77131093Y-55079999D01*
X77115635Y-54903313D01*
X77115635Y-54903308D01*
X77097319Y-54834951D01*
X77098982Y-54765103D01*
X77129414Y-54715177D01*
X77177774Y-54666818D01*
X77239097Y-54633334D01*
X77265454Y-54630500D01*
X82075863Y-54630500D01*
X82142902Y-54650185D01*
G37*
%TD.AperFunction*%
%TA.AperFunction,NonConductor*%
G36*
X63919505Y-54650185D02*
G01*
X63965260Y-54702989D01*
X63975204Y-54772147D01*
X63972241Y-54786593D01*
X63954366Y-54853303D01*
X63954364Y-54853313D01*
X63934532Y-55079999D01*
X63934532Y-55080001D01*
X63954364Y-55306686D01*
X63954366Y-55306697D01*
X64013258Y-55526488D01*
X64013261Y-55526497D01*
X64036577Y-55576497D01*
X64109432Y-55732734D01*
X64109435Y-55732738D01*
X64109870Y-55733492D01*
X64109961Y-55733868D01*
X64111720Y-55737640D01*
X64110962Y-55737993D01*
X64126348Y-55801391D01*
X64103501Y-55867419D01*
X64048583Y-55910614D01*
X64002488Y-55919500D01*
X62711434Y-55919500D01*
X62644395Y-55899815D01*
X62598640Y-55847011D01*
X62588696Y-55777853D01*
X62599052Y-55743095D01*
X62603530Y-55733492D01*
X62676739Y-55576496D01*
X62735635Y-55356692D01*
X62755468Y-55130000D01*
X62751093Y-55079999D01*
X62735635Y-54903313D01*
X62735635Y-54903308D01*
X62717319Y-54834952D01*
X62704362Y-54786593D01*
X62706025Y-54716743D01*
X62745188Y-54658881D01*
X62809417Y-54631377D01*
X62824137Y-54630500D01*
X63852466Y-54630500D01*
X63919505Y-54650185D01*
G37*
%TD.AperFunction*%
%TA.AperFunction,NonConductor*%
G36*
X60142902Y-54650185D02*
G01*
X60188657Y-54702989D01*
X60198601Y-54772147D01*
X60195638Y-54786593D01*
X60164366Y-54903302D01*
X60164364Y-54903313D01*
X60144532Y-55129998D01*
X60144532Y-55130001D01*
X60164364Y-55356686D01*
X60164366Y-55356697D01*
X60223258Y-55576488D01*
X60223260Y-55576492D01*
X60223261Y-55576496D01*
X60296470Y-55733492D01*
X60300948Y-55743095D01*
X60311440Y-55812173D01*
X60282920Y-55875957D01*
X60224444Y-55914196D01*
X60188566Y-55919500D01*
X55091434Y-55919500D01*
X55024395Y-55899815D01*
X54978640Y-55847011D01*
X54968696Y-55777853D01*
X54979052Y-55743095D01*
X54983530Y-55733492D01*
X55056739Y-55576496D01*
X55115635Y-55356692D01*
X55135468Y-55130000D01*
X55131093Y-55079999D01*
X55115635Y-54903313D01*
X55115635Y-54903308D01*
X55097319Y-54834951D01*
X55098982Y-54765103D01*
X55129414Y-54715177D01*
X55177774Y-54666818D01*
X55239097Y-54633334D01*
X55265454Y-54630500D01*
X60075863Y-54630500D01*
X60142902Y-54650185D01*
G37*
%TD.AperFunction*%
%TA.AperFunction,NonConductor*%
G36*
X110308834Y-55952867D02*
G01*
X110364767Y-55994739D01*
X110389184Y-56060203D01*
X110389500Y-56069049D01*
X110389500Y-56630951D01*
X110369815Y-56697990D01*
X110317011Y-56743745D01*
X110247853Y-56753689D01*
X110184297Y-56724664D01*
X110177819Y-56718632D01*
X110079141Y-56619954D01*
X109892734Y-56489432D01*
X109892728Y-56489429D01*
X109865038Y-56476517D01*
X109834724Y-56462381D01*
X109782285Y-56416210D01*
X109763133Y-56349017D01*
X109783348Y-56282135D01*
X109834725Y-56237618D01*
X109892734Y-56210568D01*
X110079139Y-56080047D01*
X110110637Y-56048549D01*
X110177819Y-55981368D01*
X110239142Y-55947883D01*
X110308834Y-55952867D01*
G37*
%TD.AperFunction*%
%TA.AperFunction,NonConductor*%
G36*
X49035203Y-55954836D02*
G01*
X49041681Y-55960868D01*
X49160858Y-56080045D01*
X49160861Y-56080047D01*
X49347266Y-56210568D01*
X49405275Y-56237618D01*
X49457714Y-56283791D01*
X49476866Y-56350984D01*
X49456650Y-56417865D01*
X49405275Y-56462382D01*
X49347267Y-56489431D01*
X49347265Y-56489432D01*
X49160858Y-56619954D01*
X49041681Y-56739132D01*
X48980358Y-56772617D01*
X48910666Y-56767633D01*
X48854733Y-56725761D01*
X48830316Y-56660297D01*
X48830000Y-56651451D01*
X48830000Y-56048549D01*
X48849685Y-55981510D01*
X48902489Y-55935755D01*
X48971647Y-55925811D01*
X49035203Y-55954836D01*
G37*
%TD.AperFunction*%
%TA.AperFunction,NonConductor*%
G36*
X107919505Y-57190185D02*
G01*
X107965260Y-57242989D01*
X107975204Y-57312147D01*
X107972241Y-57326593D01*
X107954366Y-57393303D01*
X107954364Y-57393313D01*
X107934532Y-57619999D01*
X107934532Y-57620001D01*
X107954364Y-57846686D01*
X107954366Y-57846697D01*
X108013258Y-58066488D01*
X108013261Y-58066497D01*
X108036577Y-58116497D01*
X108109432Y-58272734D01*
X108109435Y-58272738D01*
X108109870Y-58273492D01*
X108109961Y-58273868D01*
X108111720Y-58277640D01*
X108110962Y-58277993D01*
X108126348Y-58341391D01*
X108103501Y-58407419D01*
X108048583Y-58450614D01*
X108002488Y-58459500D01*
X106711434Y-58459500D01*
X106644395Y-58439815D01*
X106598640Y-58387011D01*
X106588696Y-58317853D01*
X106599052Y-58283095D01*
X106603530Y-58273492D01*
X106676739Y-58116496D01*
X106735635Y-57896692D01*
X106755468Y-57670000D01*
X106751093Y-57619999D01*
X106735635Y-57443313D01*
X106735635Y-57443308D01*
X106717319Y-57374952D01*
X106704362Y-57326593D01*
X106706025Y-57256743D01*
X106745188Y-57198881D01*
X106809417Y-57171377D01*
X106824137Y-57170500D01*
X107852466Y-57170500D01*
X107919505Y-57190185D01*
G37*
%TD.AperFunction*%
%TA.AperFunction,NonConductor*%
G36*
X104142902Y-57190185D02*
G01*
X104188657Y-57242989D01*
X104198601Y-57312147D01*
X104195638Y-57326593D01*
X104164366Y-57443302D01*
X104164364Y-57443313D01*
X104144532Y-57669998D01*
X104144532Y-57670001D01*
X104164364Y-57896686D01*
X104164366Y-57896697D01*
X104223258Y-58116488D01*
X104223260Y-58116492D01*
X104223261Y-58116496D01*
X104296470Y-58273492D01*
X104300948Y-58283095D01*
X104311440Y-58352173D01*
X104282920Y-58415957D01*
X104224444Y-58454196D01*
X104188566Y-58459500D01*
X99091434Y-58459500D01*
X99024395Y-58439815D01*
X98978640Y-58387011D01*
X98968696Y-58317853D01*
X98979052Y-58283095D01*
X98983530Y-58273492D01*
X99056739Y-58116496D01*
X99115635Y-57896692D01*
X99135468Y-57670000D01*
X99131093Y-57619999D01*
X99115635Y-57443313D01*
X99115635Y-57443308D01*
X99097319Y-57374951D01*
X99098982Y-57305103D01*
X99129414Y-57255177D01*
X99177774Y-57206818D01*
X99239097Y-57173334D01*
X99265454Y-57170500D01*
X104075863Y-57170500D01*
X104142902Y-57190185D01*
G37*
%TD.AperFunction*%
%TA.AperFunction,NonConductor*%
G36*
X85919505Y-57190185D02*
G01*
X85965260Y-57242989D01*
X85975204Y-57312147D01*
X85972241Y-57326593D01*
X85954366Y-57393303D01*
X85954364Y-57393313D01*
X85934532Y-57619999D01*
X85934532Y-57620001D01*
X85954364Y-57846686D01*
X85954366Y-57846697D01*
X86013258Y-58066488D01*
X86013261Y-58066497D01*
X86036577Y-58116497D01*
X86109432Y-58272734D01*
X86109435Y-58272738D01*
X86109870Y-58273492D01*
X86109961Y-58273868D01*
X86111720Y-58277640D01*
X86110962Y-58277993D01*
X86126348Y-58341391D01*
X86103501Y-58407419D01*
X86048583Y-58450614D01*
X86002488Y-58459500D01*
X84711434Y-58459500D01*
X84644395Y-58439815D01*
X84598640Y-58387011D01*
X84588696Y-58317853D01*
X84599052Y-58283095D01*
X84603530Y-58273492D01*
X84676739Y-58116496D01*
X84735635Y-57896692D01*
X84755468Y-57670000D01*
X84751093Y-57619999D01*
X84735635Y-57443313D01*
X84735635Y-57443308D01*
X84717319Y-57374952D01*
X84704362Y-57326593D01*
X84706025Y-57256743D01*
X84745188Y-57198881D01*
X84809417Y-57171377D01*
X84824137Y-57170500D01*
X85852466Y-57170500D01*
X85919505Y-57190185D01*
G37*
%TD.AperFunction*%
%TA.AperFunction,NonConductor*%
G36*
X82142902Y-57190185D02*
G01*
X82188657Y-57242989D01*
X82198601Y-57312147D01*
X82195638Y-57326593D01*
X82164366Y-57443302D01*
X82164364Y-57443313D01*
X82144532Y-57669998D01*
X82144532Y-57670001D01*
X82164364Y-57896686D01*
X82164366Y-57896697D01*
X82223258Y-58116488D01*
X82223260Y-58116492D01*
X82223261Y-58116496D01*
X82296470Y-58273492D01*
X82300948Y-58283095D01*
X82311440Y-58352173D01*
X82282920Y-58415957D01*
X82224444Y-58454196D01*
X82188566Y-58459500D01*
X77091434Y-58459500D01*
X77024395Y-58439815D01*
X76978640Y-58387011D01*
X76968696Y-58317853D01*
X76979052Y-58283095D01*
X76983530Y-58273492D01*
X77056739Y-58116496D01*
X77115635Y-57896692D01*
X77135468Y-57670000D01*
X77131093Y-57619999D01*
X77115635Y-57443313D01*
X77115635Y-57443308D01*
X77097319Y-57374951D01*
X77098982Y-57305103D01*
X77129414Y-57255177D01*
X77177774Y-57206818D01*
X77239097Y-57173334D01*
X77265454Y-57170500D01*
X82075863Y-57170500D01*
X82142902Y-57190185D01*
G37*
%TD.AperFunction*%
%TA.AperFunction,NonConductor*%
G36*
X63919505Y-57190185D02*
G01*
X63965260Y-57242989D01*
X63975204Y-57312147D01*
X63972241Y-57326593D01*
X63954366Y-57393303D01*
X63954364Y-57393313D01*
X63934532Y-57619999D01*
X63934532Y-57620001D01*
X63954364Y-57846686D01*
X63954366Y-57846697D01*
X64013258Y-58066488D01*
X64013261Y-58066497D01*
X64036577Y-58116497D01*
X64109432Y-58272734D01*
X64109435Y-58272738D01*
X64109870Y-58273492D01*
X64109961Y-58273868D01*
X64111720Y-58277640D01*
X64110962Y-58277993D01*
X64126348Y-58341391D01*
X64103501Y-58407419D01*
X64048583Y-58450614D01*
X64002488Y-58459500D01*
X62711434Y-58459500D01*
X62644395Y-58439815D01*
X62598640Y-58387011D01*
X62588696Y-58317853D01*
X62599052Y-58283095D01*
X62603530Y-58273492D01*
X62676739Y-58116496D01*
X62735635Y-57896692D01*
X62755468Y-57670000D01*
X62751093Y-57619999D01*
X62735635Y-57443313D01*
X62735635Y-57443308D01*
X62717319Y-57374952D01*
X62704362Y-57326593D01*
X62706025Y-57256743D01*
X62745188Y-57198881D01*
X62809417Y-57171377D01*
X62824137Y-57170500D01*
X63852466Y-57170500D01*
X63919505Y-57190185D01*
G37*
%TD.AperFunction*%
%TA.AperFunction,NonConductor*%
G36*
X60142902Y-57190185D02*
G01*
X60188657Y-57242989D01*
X60198601Y-57312147D01*
X60195638Y-57326593D01*
X60164366Y-57443302D01*
X60164364Y-57443313D01*
X60144532Y-57669998D01*
X60144532Y-57670001D01*
X60164364Y-57896686D01*
X60164366Y-57896697D01*
X60223258Y-58116488D01*
X60223260Y-58116492D01*
X60223261Y-58116496D01*
X60296470Y-58273492D01*
X60300948Y-58283095D01*
X60311440Y-58352173D01*
X60282920Y-58415957D01*
X60224444Y-58454196D01*
X60188566Y-58459500D01*
X55091434Y-58459500D01*
X55024395Y-58439815D01*
X54978640Y-58387011D01*
X54968696Y-58317853D01*
X54979052Y-58283095D01*
X54983530Y-58273492D01*
X55056739Y-58116496D01*
X55115635Y-57896692D01*
X55135468Y-57670000D01*
X55131093Y-57619999D01*
X55115635Y-57443313D01*
X55115635Y-57443308D01*
X55097319Y-57374951D01*
X55098982Y-57305103D01*
X55129414Y-57255177D01*
X55177774Y-57206818D01*
X55239097Y-57173334D01*
X55265454Y-57170500D01*
X60075863Y-57170500D01*
X60142902Y-57190185D01*
G37*
%TD.AperFunction*%
%TA.AperFunction,NonConductor*%
G36*
X110308834Y-58492867D02*
G01*
X110364767Y-58534739D01*
X110389184Y-58600203D01*
X110389500Y-58609049D01*
X110389500Y-59170951D01*
X110369815Y-59237990D01*
X110317011Y-59283745D01*
X110247853Y-59293689D01*
X110184297Y-59264664D01*
X110177819Y-59258632D01*
X110079141Y-59159954D01*
X109892734Y-59029432D01*
X109892728Y-59029429D01*
X109865038Y-59016517D01*
X109834724Y-59002381D01*
X109782285Y-58956210D01*
X109763133Y-58889017D01*
X109783348Y-58822135D01*
X109834725Y-58777618D01*
X109892734Y-58750568D01*
X110079139Y-58620047D01*
X110110637Y-58588549D01*
X110177819Y-58521368D01*
X110239142Y-58487883D01*
X110308834Y-58492867D01*
G37*
%TD.AperFunction*%
%TA.AperFunction,NonConductor*%
G36*
X49035203Y-58494836D02*
G01*
X49041681Y-58500868D01*
X49160858Y-58620045D01*
X49160861Y-58620047D01*
X49347266Y-58750568D01*
X49405275Y-58777618D01*
X49457714Y-58823791D01*
X49476866Y-58890984D01*
X49456650Y-58957865D01*
X49405275Y-59002382D01*
X49347267Y-59029431D01*
X49347265Y-59029432D01*
X49160858Y-59159954D01*
X49041681Y-59279132D01*
X48980358Y-59312617D01*
X48910666Y-59307633D01*
X48854733Y-59265761D01*
X48830316Y-59200297D01*
X48830000Y-59191451D01*
X48830000Y-58588549D01*
X48849685Y-58521510D01*
X48902489Y-58475755D01*
X48971647Y-58465811D01*
X49035203Y-58494836D01*
G37*
%TD.AperFunction*%
%TA.AperFunction,NonConductor*%
G36*
X107919505Y-59730185D02*
G01*
X107965260Y-59782989D01*
X107975204Y-59852147D01*
X107972241Y-59866593D01*
X107954366Y-59933303D01*
X107954364Y-59933313D01*
X107934532Y-60159999D01*
X107934532Y-60160001D01*
X107954364Y-60386686D01*
X107954366Y-60386697D01*
X108013258Y-60606488D01*
X108013261Y-60606497D01*
X108036577Y-60656497D01*
X108109432Y-60812734D01*
X108109435Y-60812738D01*
X108109870Y-60813492D01*
X108109961Y-60813868D01*
X108111720Y-60817640D01*
X108110962Y-60817993D01*
X108126348Y-60881391D01*
X108103501Y-60947419D01*
X108048583Y-60990614D01*
X108002488Y-60999500D01*
X106711434Y-60999500D01*
X106644395Y-60979815D01*
X106598640Y-60927011D01*
X106588696Y-60857853D01*
X106599052Y-60823095D01*
X106603530Y-60813492D01*
X106676739Y-60656496D01*
X106735635Y-60436692D01*
X106755468Y-60210000D01*
X106751093Y-60159999D01*
X106735635Y-59983313D01*
X106735635Y-59983308D01*
X106717319Y-59914952D01*
X106704362Y-59866593D01*
X106706025Y-59796743D01*
X106745188Y-59738881D01*
X106809417Y-59711377D01*
X106824137Y-59710500D01*
X107852466Y-59710500D01*
X107919505Y-59730185D01*
G37*
%TD.AperFunction*%
%TA.AperFunction,NonConductor*%
G36*
X104142902Y-59730185D02*
G01*
X104188657Y-59782989D01*
X104198601Y-59852147D01*
X104195638Y-59866593D01*
X104164366Y-59983302D01*
X104164364Y-59983313D01*
X104144532Y-60209998D01*
X104144532Y-60210001D01*
X104164364Y-60436686D01*
X104164366Y-60436697D01*
X104223258Y-60656488D01*
X104223260Y-60656492D01*
X104223261Y-60656496D01*
X104296470Y-60813492D01*
X104300948Y-60823095D01*
X104311440Y-60892173D01*
X104282920Y-60955957D01*
X104224444Y-60994196D01*
X104188566Y-60999500D01*
X99091434Y-60999500D01*
X99024395Y-60979815D01*
X98978640Y-60927011D01*
X98968696Y-60857853D01*
X98979052Y-60823095D01*
X98983530Y-60813492D01*
X99056739Y-60656496D01*
X99115635Y-60436692D01*
X99135468Y-60210000D01*
X99131093Y-60159999D01*
X99115635Y-59983313D01*
X99115635Y-59983308D01*
X99097319Y-59914951D01*
X99098982Y-59845103D01*
X99129414Y-59795177D01*
X99177774Y-59746818D01*
X99239097Y-59713334D01*
X99265454Y-59710500D01*
X104075863Y-59710500D01*
X104142902Y-59730185D01*
G37*
%TD.AperFunction*%
%TA.AperFunction,NonConductor*%
G36*
X85919505Y-59730185D02*
G01*
X85965260Y-59782989D01*
X85975204Y-59852147D01*
X85972241Y-59866593D01*
X85954366Y-59933303D01*
X85954364Y-59933313D01*
X85934532Y-60159999D01*
X85934532Y-60160001D01*
X85954364Y-60386686D01*
X85954366Y-60386697D01*
X86013258Y-60606488D01*
X86013261Y-60606497D01*
X86036577Y-60656497D01*
X86109432Y-60812734D01*
X86109435Y-60812738D01*
X86109870Y-60813492D01*
X86109961Y-60813868D01*
X86111720Y-60817640D01*
X86110962Y-60817993D01*
X86126348Y-60881391D01*
X86103501Y-60947419D01*
X86048583Y-60990614D01*
X86002488Y-60999500D01*
X84711434Y-60999500D01*
X84644395Y-60979815D01*
X84598640Y-60927011D01*
X84588696Y-60857853D01*
X84599052Y-60823095D01*
X84603530Y-60813492D01*
X84676739Y-60656496D01*
X84735635Y-60436692D01*
X84755468Y-60210000D01*
X84751093Y-60159999D01*
X84735635Y-59983313D01*
X84735635Y-59983308D01*
X84717319Y-59914952D01*
X84704362Y-59866593D01*
X84706025Y-59796743D01*
X84745188Y-59738881D01*
X84809417Y-59711377D01*
X84824137Y-59710500D01*
X85852466Y-59710500D01*
X85919505Y-59730185D01*
G37*
%TD.AperFunction*%
%TA.AperFunction,NonConductor*%
G36*
X82142902Y-59730185D02*
G01*
X82188657Y-59782989D01*
X82198601Y-59852147D01*
X82195638Y-59866593D01*
X82164366Y-59983302D01*
X82164364Y-59983313D01*
X82144532Y-60209998D01*
X82144532Y-60210001D01*
X82164364Y-60436686D01*
X82164366Y-60436697D01*
X82223258Y-60656488D01*
X82223260Y-60656492D01*
X82223261Y-60656496D01*
X82296470Y-60813492D01*
X82300948Y-60823095D01*
X82311440Y-60892173D01*
X82282920Y-60955957D01*
X82224444Y-60994196D01*
X82188566Y-60999500D01*
X77091434Y-60999500D01*
X77024395Y-60979815D01*
X76978640Y-60927011D01*
X76968696Y-60857853D01*
X76979052Y-60823095D01*
X76983530Y-60813492D01*
X77056739Y-60656496D01*
X77115635Y-60436692D01*
X77135468Y-60210000D01*
X77131093Y-60159999D01*
X77115635Y-59983313D01*
X77115635Y-59983308D01*
X77097319Y-59914951D01*
X77098982Y-59845103D01*
X77129414Y-59795177D01*
X77177774Y-59746818D01*
X77239097Y-59713334D01*
X77265454Y-59710500D01*
X82075863Y-59710500D01*
X82142902Y-59730185D01*
G37*
%TD.AperFunction*%
%TA.AperFunction,NonConductor*%
G36*
X63919505Y-59730185D02*
G01*
X63965260Y-59782989D01*
X63975204Y-59852147D01*
X63972241Y-59866593D01*
X63954366Y-59933303D01*
X63954364Y-59933313D01*
X63934532Y-60159999D01*
X63934532Y-60160001D01*
X63954364Y-60386686D01*
X63954366Y-60386697D01*
X64013258Y-60606488D01*
X64013261Y-60606497D01*
X64036577Y-60656497D01*
X64109432Y-60812734D01*
X64109435Y-60812738D01*
X64109870Y-60813492D01*
X64109961Y-60813868D01*
X64111720Y-60817640D01*
X64110962Y-60817993D01*
X64126348Y-60881391D01*
X64103501Y-60947419D01*
X64048583Y-60990614D01*
X64002488Y-60999500D01*
X62711434Y-60999500D01*
X62644395Y-60979815D01*
X62598640Y-60927011D01*
X62588696Y-60857853D01*
X62599052Y-60823095D01*
X62603530Y-60813492D01*
X62676739Y-60656496D01*
X62735635Y-60436692D01*
X62755468Y-60210000D01*
X62751093Y-60159999D01*
X62735635Y-59983313D01*
X62735635Y-59983308D01*
X62717319Y-59914952D01*
X62704362Y-59866593D01*
X62706025Y-59796743D01*
X62745188Y-59738881D01*
X62809417Y-59711377D01*
X62824137Y-59710500D01*
X63852466Y-59710500D01*
X63919505Y-59730185D01*
G37*
%TD.AperFunction*%
%TA.AperFunction,NonConductor*%
G36*
X60142902Y-59730185D02*
G01*
X60188657Y-59782989D01*
X60198601Y-59852147D01*
X60195638Y-59866593D01*
X60164366Y-59983302D01*
X60164364Y-59983313D01*
X60144532Y-60209998D01*
X60144532Y-60210001D01*
X60164364Y-60436686D01*
X60164366Y-60436697D01*
X60223258Y-60656488D01*
X60223260Y-60656492D01*
X60223261Y-60656496D01*
X60296470Y-60813492D01*
X60300948Y-60823095D01*
X60311440Y-60892173D01*
X60282920Y-60955957D01*
X60224444Y-60994196D01*
X60188566Y-60999500D01*
X55091434Y-60999500D01*
X55024395Y-60979815D01*
X54978640Y-60927011D01*
X54968696Y-60857853D01*
X54979052Y-60823095D01*
X54983530Y-60813492D01*
X55056739Y-60656496D01*
X55115635Y-60436692D01*
X55135468Y-60210000D01*
X55131093Y-60159999D01*
X55115635Y-59983313D01*
X55115635Y-59983308D01*
X55097319Y-59914951D01*
X55098982Y-59845103D01*
X55129414Y-59795177D01*
X55177774Y-59746818D01*
X55239097Y-59713334D01*
X55265454Y-59710500D01*
X60075863Y-59710500D01*
X60142902Y-59730185D01*
G37*
%TD.AperFunction*%
%TA.AperFunction,NonConductor*%
G36*
X110308834Y-61032867D02*
G01*
X110364767Y-61074739D01*
X110389184Y-61140203D01*
X110389500Y-61149049D01*
X110389500Y-61710951D01*
X110369815Y-61777990D01*
X110317011Y-61823745D01*
X110247853Y-61833689D01*
X110184297Y-61804664D01*
X110177819Y-61798632D01*
X110079141Y-61699954D01*
X109892734Y-61569432D01*
X109892728Y-61569429D01*
X109865038Y-61556517D01*
X109834724Y-61542381D01*
X109782285Y-61496210D01*
X109763133Y-61429017D01*
X109783348Y-61362135D01*
X109834725Y-61317618D01*
X109892734Y-61290568D01*
X110079139Y-61160047D01*
X110110637Y-61128549D01*
X110177819Y-61061368D01*
X110239142Y-61027883D01*
X110308834Y-61032867D01*
G37*
%TD.AperFunction*%
%TA.AperFunction,NonConductor*%
G36*
X49035203Y-61034836D02*
G01*
X49041681Y-61040868D01*
X49160858Y-61160045D01*
X49160861Y-61160047D01*
X49347266Y-61290568D01*
X49405275Y-61317618D01*
X49457714Y-61363791D01*
X49476866Y-61430984D01*
X49456650Y-61497865D01*
X49405275Y-61542382D01*
X49347267Y-61569431D01*
X49347265Y-61569432D01*
X49160858Y-61699954D01*
X49041681Y-61819132D01*
X48980358Y-61852617D01*
X48910666Y-61847633D01*
X48854733Y-61805761D01*
X48830316Y-61740297D01*
X48830000Y-61731451D01*
X48830000Y-61128549D01*
X48849685Y-61061510D01*
X48902489Y-61015755D01*
X48971647Y-61005811D01*
X49035203Y-61034836D01*
G37*
%TD.AperFunction*%
%TA.AperFunction,NonConductor*%
G36*
X107919505Y-62270185D02*
G01*
X107965260Y-62322989D01*
X107975204Y-62392147D01*
X107972241Y-62406593D01*
X107954366Y-62473303D01*
X107954364Y-62473313D01*
X107934532Y-62699999D01*
X107934532Y-62700001D01*
X107954364Y-62926686D01*
X107954366Y-62926697D01*
X108013258Y-63146488D01*
X108013261Y-63146497D01*
X108036577Y-63196497D01*
X108109432Y-63352734D01*
X108109435Y-63352738D01*
X108109870Y-63353492D01*
X108109961Y-63353868D01*
X108111720Y-63357640D01*
X108110962Y-63357993D01*
X108126348Y-63421391D01*
X108103501Y-63487419D01*
X108048583Y-63530614D01*
X108002488Y-63539500D01*
X106711434Y-63539500D01*
X106644395Y-63519815D01*
X106598640Y-63467011D01*
X106588696Y-63397853D01*
X106599052Y-63363095D01*
X106603530Y-63353492D01*
X106676739Y-63196496D01*
X106735635Y-62976692D01*
X106755468Y-62750000D01*
X106751093Y-62699999D01*
X106735635Y-62523313D01*
X106735635Y-62523308D01*
X106717319Y-62454952D01*
X106704362Y-62406593D01*
X106706025Y-62336743D01*
X106745188Y-62278881D01*
X106809417Y-62251377D01*
X106824137Y-62250500D01*
X107852466Y-62250500D01*
X107919505Y-62270185D01*
G37*
%TD.AperFunction*%
%TA.AperFunction,NonConductor*%
G36*
X104142902Y-62270185D02*
G01*
X104188657Y-62322989D01*
X104198601Y-62392147D01*
X104195638Y-62406593D01*
X104164366Y-62523302D01*
X104164364Y-62523313D01*
X104144532Y-62749998D01*
X104144532Y-62750001D01*
X104164364Y-62976686D01*
X104164366Y-62976697D01*
X104223258Y-63196488D01*
X104223260Y-63196492D01*
X104223261Y-63196496D01*
X104296470Y-63353492D01*
X104300948Y-63363095D01*
X104311440Y-63432173D01*
X104282920Y-63495957D01*
X104224444Y-63534196D01*
X104188566Y-63539500D01*
X99091434Y-63539500D01*
X99024395Y-63519815D01*
X98978640Y-63467011D01*
X98968696Y-63397853D01*
X98979052Y-63363095D01*
X98983530Y-63353492D01*
X99056739Y-63196496D01*
X99115635Y-62976692D01*
X99135468Y-62750000D01*
X99131093Y-62699999D01*
X99115635Y-62523313D01*
X99115635Y-62523308D01*
X99097319Y-62454951D01*
X99098982Y-62385103D01*
X99129414Y-62335177D01*
X99177774Y-62286818D01*
X99239097Y-62253334D01*
X99265454Y-62250500D01*
X104075863Y-62250500D01*
X104142902Y-62270185D01*
G37*
%TD.AperFunction*%
%TA.AperFunction,NonConductor*%
G36*
X85919505Y-62270185D02*
G01*
X85965260Y-62322989D01*
X85975204Y-62392147D01*
X85972241Y-62406593D01*
X85954366Y-62473303D01*
X85954364Y-62473313D01*
X85934532Y-62699999D01*
X85934532Y-62700001D01*
X85954364Y-62926686D01*
X85954366Y-62926697D01*
X86013258Y-63146488D01*
X86013261Y-63146497D01*
X86036577Y-63196497D01*
X86109432Y-63352734D01*
X86109435Y-63352738D01*
X86109870Y-63353492D01*
X86109961Y-63353868D01*
X86111720Y-63357640D01*
X86110962Y-63357993D01*
X86126348Y-63421391D01*
X86103501Y-63487419D01*
X86048583Y-63530614D01*
X86002488Y-63539500D01*
X84711434Y-63539500D01*
X84644395Y-63519815D01*
X84598640Y-63467011D01*
X84588696Y-63397853D01*
X84599052Y-63363095D01*
X84603530Y-63353492D01*
X84676739Y-63196496D01*
X84735635Y-62976692D01*
X84755468Y-62750000D01*
X84751093Y-62699999D01*
X84735635Y-62523313D01*
X84735635Y-62523308D01*
X84717319Y-62454952D01*
X84704362Y-62406593D01*
X84706025Y-62336743D01*
X84745188Y-62278881D01*
X84809417Y-62251377D01*
X84824137Y-62250500D01*
X85852466Y-62250500D01*
X85919505Y-62270185D01*
G37*
%TD.AperFunction*%
%TA.AperFunction,NonConductor*%
G36*
X82142902Y-62270185D02*
G01*
X82188657Y-62322989D01*
X82198601Y-62392147D01*
X82195638Y-62406593D01*
X82164366Y-62523302D01*
X82164364Y-62523313D01*
X82144532Y-62749998D01*
X82144532Y-62750001D01*
X82164364Y-62976686D01*
X82164366Y-62976697D01*
X82223258Y-63196488D01*
X82223260Y-63196492D01*
X82223261Y-63196496D01*
X82296470Y-63353492D01*
X82300948Y-63363095D01*
X82311440Y-63432173D01*
X82282920Y-63495957D01*
X82224444Y-63534196D01*
X82188566Y-63539500D01*
X77091434Y-63539500D01*
X77024395Y-63519815D01*
X76978640Y-63467011D01*
X76968696Y-63397853D01*
X76979052Y-63363095D01*
X76983530Y-63353492D01*
X77056739Y-63196496D01*
X77115635Y-62976692D01*
X77135468Y-62750000D01*
X77131093Y-62699999D01*
X77115635Y-62523313D01*
X77115635Y-62523308D01*
X77097319Y-62454951D01*
X77098982Y-62385103D01*
X77129414Y-62335177D01*
X77177774Y-62286818D01*
X77239097Y-62253334D01*
X77265454Y-62250500D01*
X82075863Y-62250500D01*
X82142902Y-62270185D01*
G37*
%TD.AperFunction*%
%TA.AperFunction,NonConductor*%
G36*
X63919505Y-62270185D02*
G01*
X63965260Y-62322989D01*
X63975204Y-62392147D01*
X63972241Y-62406593D01*
X63954366Y-62473303D01*
X63954364Y-62473313D01*
X63934532Y-62699999D01*
X63934532Y-62700001D01*
X63954364Y-62926686D01*
X63954366Y-62926697D01*
X64013258Y-63146488D01*
X64013261Y-63146497D01*
X64036577Y-63196497D01*
X64109432Y-63352734D01*
X64109435Y-63352738D01*
X64109870Y-63353492D01*
X64109961Y-63353868D01*
X64111720Y-63357640D01*
X64110962Y-63357993D01*
X64126348Y-63421391D01*
X64103501Y-63487419D01*
X64048583Y-63530614D01*
X64002488Y-63539500D01*
X62711434Y-63539500D01*
X62644395Y-63519815D01*
X62598640Y-63467011D01*
X62588696Y-63397853D01*
X62599052Y-63363095D01*
X62603530Y-63353492D01*
X62676739Y-63196496D01*
X62735635Y-62976692D01*
X62755468Y-62750000D01*
X62751093Y-62699999D01*
X62735635Y-62523313D01*
X62735635Y-62523308D01*
X62717319Y-62454952D01*
X62704362Y-62406593D01*
X62706025Y-62336743D01*
X62745188Y-62278881D01*
X62809417Y-62251377D01*
X62824137Y-62250500D01*
X63852466Y-62250500D01*
X63919505Y-62270185D01*
G37*
%TD.AperFunction*%
%TA.AperFunction,NonConductor*%
G36*
X60142902Y-62270185D02*
G01*
X60188657Y-62322989D01*
X60198601Y-62392147D01*
X60195638Y-62406593D01*
X60164366Y-62523302D01*
X60164364Y-62523313D01*
X60144532Y-62749998D01*
X60144532Y-62750001D01*
X60164364Y-62976686D01*
X60164366Y-62976697D01*
X60223258Y-63196488D01*
X60223260Y-63196492D01*
X60223261Y-63196496D01*
X60296470Y-63353492D01*
X60300948Y-63363095D01*
X60311440Y-63432173D01*
X60282920Y-63495957D01*
X60224444Y-63534196D01*
X60188566Y-63539500D01*
X55091434Y-63539500D01*
X55024395Y-63519815D01*
X54978640Y-63467011D01*
X54968696Y-63397853D01*
X54979052Y-63363095D01*
X54983530Y-63353492D01*
X55056739Y-63196496D01*
X55115635Y-62976692D01*
X55135468Y-62750000D01*
X55131093Y-62699999D01*
X55115635Y-62523313D01*
X55115635Y-62523308D01*
X55097319Y-62454951D01*
X55098982Y-62385103D01*
X55129414Y-62335177D01*
X55177774Y-62286818D01*
X55239097Y-62253334D01*
X55265454Y-62250500D01*
X60075863Y-62250500D01*
X60142902Y-62270185D01*
G37*
%TD.AperFunction*%
%TA.AperFunction,NonConductor*%
G36*
X110308834Y-63572867D02*
G01*
X110364767Y-63614739D01*
X110389184Y-63680203D01*
X110389500Y-63689049D01*
X110389500Y-64250951D01*
X110369815Y-64317990D01*
X110317011Y-64363745D01*
X110247853Y-64373689D01*
X110184297Y-64344664D01*
X110177819Y-64338632D01*
X110079141Y-64239954D01*
X109892734Y-64109432D01*
X109892728Y-64109429D01*
X109865038Y-64096517D01*
X109834724Y-64082381D01*
X109782285Y-64036210D01*
X109763133Y-63969017D01*
X109783348Y-63902135D01*
X109834725Y-63857618D01*
X109892734Y-63830568D01*
X110079139Y-63700047D01*
X110110637Y-63668549D01*
X110177819Y-63601368D01*
X110239142Y-63567883D01*
X110308834Y-63572867D01*
G37*
%TD.AperFunction*%
%TA.AperFunction,NonConductor*%
G36*
X49035203Y-63574836D02*
G01*
X49041681Y-63580868D01*
X49160858Y-63700045D01*
X49160861Y-63700047D01*
X49347266Y-63830568D01*
X49405275Y-63857618D01*
X49457714Y-63903791D01*
X49476866Y-63970984D01*
X49456650Y-64037865D01*
X49405275Y-64082382D01*
X49347267Y-64109431D01*
X49347265Y-64109432D01*
X49160858Y-64239954D01*
X49041681Y-64359132D01*
X48980358Y-64392617D01*
X48910666Y-64387633D01*
X48854733Y-64345761D01*
X48830316Y-64280297D01*
X48830000Y-64271451D01*
X48830000Y-63668549D01*
X48849685Y-63601510D01*
X48902489Y-63555755D01*
X48971647Y-63545811D01*
X49035203Y-63574836D01*
G37*
%TD.AperFunction*%
%TA.AperFunction,NonConductor*%
G36*
X107919505Y-64810185D02*
G01*
X107965260Y-64862989D01*
X107975204Y-64932147D01*
X107972241Y-64946593D01*
X107954366Y-65013303D01*
X107954364Y-65013313D01*
X107934532Y-65239999D01*
X107934532Y-65240001D01*
X107954364Y-65466686D01*
X107954366Y-65466697D01*
X108013258Y-65686488D01*
X108013261Y-65686497D01*
X108036577Y-65736497D01*
X108109432Y-65892734D01*
X108109435Y-65892738D01*
X108109870Y-65893492D01*
X108109961Y-65893868D01*
X108111720Y-65897640D01*
X108110962Y-65897993D01*
X108126348Y-65961391D01*
X108103501Y-66027419D01*
X108048583Y-66070614D01*
X108002488Y-66079500D01*
X106711434Y-66079500D01*
X106644395Y-66059815D01*
X106598640Y-66007011D01*
X106588696Y-65937853D01*
X106599052Y-65903095D01*
X106603530Y-65893492D01*
X106676739Y-65736496D01*
X106735635Y-65516692D01*
X106755468Y-65290000D01*
X106751093Y-65239999D01*
X106735635Y-65063313D01*
X106735635Y-65063308D01*
X106717319Y-64994952D01*
X106704362Y-64946593D01*
X106706025Y-64876743D01*
X106745188Y-64818881D01*
X106809417Y-64791377D01*
X106824137Y-64790500D01*
X107852466Y-64790500D01*
X107919505Y-64810185D01*
G37*
%TD.AperFunction*%
%TA.AperFunction,NonConductor*%
G36*
X104142902Y-64810185D02*
G01*
X104188657Y-64862989D01*
X104198601Y-64932147D01*
X104195638Y-64946593D01*
X104164366Y-65063302D01*
X104164364Y-65063313D01*
X104144532Y-65289998D01*
X104144532Y-65290001D01*
X104164364Y-65516686D01*
X104164366Y-65516697D01*
X104223258Y-65736488D01*
X104223260Y-65736492D01*
X104223261Y-65736496D01*
X104296470Y-65893492D01*
X104300948Y-65903095D01*
X104311440Y-65972173D01*
X104282920Y-66035957D01*
X104224444Y-66074196D01*
X104188566Y-66079500D01*
X99091434Y-66079500D01*
X99024395Y-66059815D01*
X98978640Y-66007011D01*
X98968696Y-65937853D01*
X98979052Y-65903095D01*
X98983530Y-65893492D01*
X99056739Y-65736496D01*
X99115635Y-65516692D01*
X99135468Y-65290000D01*
X99131093Y-65239999D01*
X99115635Y-65063313D01*
X99115635Y-65063308D01*
X99097319Y-64994951D01*
X99098982Y-64925103D01*
X99129414Y-64875177D01*
X99177774Y-64826818D01*
X99239097Y-64793334D01*
X99265454Y-64790500D01*
X104075863Y-64790500D01*
X104142902Y-64810185D01*
G37*
%TD.AperFunction*%
%TA.AperFunction,NonConductor*%
G36*
X85919505Y-64810185D02*
G01*
X85965260Y-64862989D01*
X85975204Y-64932147D01*
X85972241Y-64946593D01*
X85954366Y-65013303D01*
X85954364Y-65013313D01*
X85934532Y-65239999D01*
X85934532Y-65240001D01*
X85954364Y-65466686D01*
X85954366Y-65466697D01*
X86013258Y-65686488D01*
X86013261Y-65686497D01*
X86036577Y-65736497D01*
X86109432Y-65892734D01*
X86109435Y-65892738D01*
X86109870Y-65893492D01*
X86109961Y-65893868D01*
X86111720Y-65897640D01*
X86110962Y-65897993D01*
X86126348Y-65961391D01*
X86103501Y-66027419D01*
X86048583Y-66070614D01*
X86002488Y-66079500D01*
X84711434Y-66079500D01*
X84644395Y-66059815D01*
X84598640Y-66007011D01*
X84588696Y-65937853D01*
X84599052Y-65903095D01*
X84603530Y-65893492D01*
X84676739Y-65736496D01*
X84735635Y-65516692D01*
X84755468Y-65290000D01*
X84751093Y-65239999D01*
X84735635Y-65063313D01*
X84735635Y-65063308D01*
X84717319Y-64994952D01*
X84704362Y-64946593D01*
X84706025Y-64876743D01*
X84745188Y-64818881D01*
X84809417Y-64791377D01*
X84824137Y-64790500D01*
X85852466Y-64790500D01*
X85919505Y-64810185D01*
G37*
%TD.AperFunction*%
%TA.AperFunction,NonConductor*%
G36*
X82142902Y-64810185D02*
G01*
X82188657Y-64862989D01*
X82198601Y-64932147D01*
X82195638Y-64946593D01*
X82164366Y-65063302D01*
X82164364Y-65063313D01*
X82144532Y-65289998D01*
X82144532Y-65290001D01*
X82164364Y-65516686D01*
X82164366Y-65516697D01*
X82223258Y-65736488D01*
X82223260Y-65736492D01*
X82223261Y-65736496D01*
X82296470Y-65893492D01*
X82300948Y-65903095D01*
X82311440Y-65972173D01*
X82282920Y-66035957D01*
X82224444Y-66074196D01*
X82188566Y-66079500D01*
X77091434Y-66079500D01*
X77024395Y-66059815D01*
X76978640Y-66007011D01*
X76968696Y-65937853D01*
X76979052Y-65903095D01*
X76983530Y-65893492D01*
X77056739Y-65736496D01*
X77115635Y-65516692D01*
X77135468Y-65290000D01*
X77131093Y-65239999D01*
X77115635Y-65063313D01*
X77115635Y-65063308D01*
X77097319Y-64994951D01*
X77098982Y-64925103D01*
X77129414Y-64875177D01*
X77177774Y-64826818D01*
X77239097Y-64793334D01*
X77265454Y-64790500D01*
X82075863Y-64790500D01*
X82142902Y-64810185D01*
G37*
%TD.AperFunction*%
%TA.AperFunction,NonConductor*%
G36*
X63919505Y-64810185D02*
G01*
X63965260Y-64862989D01*
X63975204Y-64932147D01*
X63972241Y-64946593D01*
X63954366Y-65013303D01*
X63954364Y-65013313D01*
X63934532Y-65239999D01*
X63934532Y-65240001D01*
X63954364Y-65466686D01*
X63954366Y-65466697D01*
X64013258Y-65686488D01*
X64013261Y-65686497D01*
X64036577Y-65736497D01*
X64109432Y-65892734D01*
X64109435Y-65892738D01*
X64109870Y-65893492D01*
X64109961Y-65893868D01*
X64111720Y-65897640D01*
X64110962Y-65897993D01*
X64126348Y-65961391D01*
X64103501Y-66027419D01*
X64048583Y-66070614D01*
X64002488Y-66079500D01*
X62711434Y-66079500D01*
X62644395Y-66059815D01*
X62598640Y-66007011D01*
X62588696Y-65937853D01*
X62599052Y-65903095D01*
X62603530Y-65893492D01*
X62676739Y-65736496D01*
X62735635Y-65516692D01*
X62755468Y-65290000D01*
X62751093Y-65239999D01*
X62735635Y-65063313D01*
X62735635Y-65063308D01*
X62717319Y-64994952D01*
X62704362Y-64946593D01*
X62706025Y-64876743D01*
X62745188Y-64818881D01*
X62809417Y-64791377D01*
X62824137Y-64790500D01*
X63852466Y-64790500D01*
X63919505Y-64810185D01*
G37*
%TD.AperFunction*%
%TA.AperFunction,NonConductor*%
G36*
X60142902Y-64810185D02*
G01*
X60188657Y-64862989D01*
X60198601Y-64932147D01*
X60195638Y-64946593D01*
X60164366Y-65063302D01*
X60164364Y-65063313D01*
X60144532Y-65289998D01*
X60144532Y-65290001D01*
X60164364Y-65516686D01*
X60164366Y-65516697D01*
X60223258Y-65736488D01*
X60223260Y-65736492D01*
X60223261Y-65736496D01*
X60296470Y-65893492D01*
X60300948Y-65903095D01*
X60311440Y-65972173D01*
X60282920Y-66035957D01*
X60224444Y-66074196D01*
X60188566Y-66079500D01*
X55091434Y-66079500D01*
X55024395Y-66059815D01*
X54978640Y-66007011D01*
X54968696Y-65937853D01*
X54979052Y-65903095D01*
X54983530Y-65893492D01*
X55056739Y-65736496D01*
X55115635Y-65516692D01*
X55135468Y-65290000D01*
X55131093Y-65239999D01*
X55115635Y-65063313D01*
X55115635Y-65063308D01*
X55097319Y-64994951D01*
X55098982Y-64925103D01*
X55129414Y-64875177D01*
X55177774Y-64826818D01*
X55239097Y-64793334D01*
X55265454Y-64790500D01*
X60075863Y-64790500D01*
X60142902Y-64810185D01*
G37*
%TD.AperFunction*%
%TA.AperFunction,NonConductor*%
G36*
X110308834Y-66112867D02*
G01*
X110364767Y-66154739D01*
X110389184Y-66220203D01*
X110389500Y-66229049D01*
X110389500Y-66790951D01*
X110369815Y-66857990D01*
X110317011Y-66903745D01*
X110247853Y-66913689D01*
X110184297Y-66884664D01*
X110177819Y-66878632D01*
X110079141Y-66779954D01*
X109892734Y-66649432D01*
X109892728Y-66649429D01*
X109865038Y-66636517D01*
X109834724Y-66622381D01*
X109782285Y-66576210D01*
X109763133Y-66509017D01*
X109783348Y-66442135D01*
X109834725Y-66397618D01*
X109892734Y-66370568D01*
X110079139Y-66240047D01*
X110110637Y-66208549D01*
X110177819Y-66141368D01*
X110239142Y-66107883D01*
X110308834Y-66112867D01*
G37*
%TD.AperFunction*%
%TA.AperFunction,NonConductor*%
G36*
X49035203Y-66114836D02*
G01*
X49041681Y-66120868D01*
X49160858Y-66240045D01*
X49160861Y-66240047D01*
X49347266Y-66370568D01*
X49405275Y-66397618D01*
X49457714Y-66443791D01*
X49476866Y-66510984D01*
X49456650Y-66577865D01*
X49405275Y-66622382D01*
X49347267Y-66649431D01*
X49347265Y-66649432D01*
X49160858Y-66779954D01*
X49041681Y-66899132D01*
X48980358Y-66932617D01*
X48910666Y-66927633D01*
X48854733Y-66885761D01*
X48830316Y-66820297D01*
X48830000Y-66811451D01*
X48830000Y-66208549D01*
X48849685Y-66141510D01*
X48902489Y-66095755D01*
X48971647Y-66085811D01*
X49035203Y-66114836D01*
G37*
%TD.AperFunction*%
%TA.AperFunction,NonConductor*%
G36*
X107919505Y-67350185D02*
G01*
X107965260Y-67402989D01*
X107975204Y-67472147D01*
X107972241Y-67486593D01*
X107954366Y-67553303D01*
X107954364Y-67553313D01*
X107934532Y-67779999D01*
X107934532Y-67780001D01*
X107954364Y-68006686D01*
X107954366Y-68006697D01*
X108013258Y-68226488D01*
X108013261Y-68226497D01*
X108036577Y-68276497D01*
X108109432Y-68432734D01*
X108109435Y-68432738D01*
X108109870Y-68433492D01*
X108109961Y-68433868D01*
X108111720Y-68437640D01*
X108110962Y-68437993D01*
X108126348Y-68501391D01*
X108103501Y-68567419D01*
X108048583Y-68610614D01*
X108002488Y-68619500D01*
X106711434Y-68619500D01*
X106644395Y-68599815D01*
X106598640Y-68547011D01*
X106588696Y-68477853D01*
X106599052Y-68443095D01*
X106603530Y-68433492D01*
X106676739Y-68276496D01*
X106735635Y-68056692D01*
X106755468Y-67830000D01*
X106751093Y-67779999D01*
X106735635Y-67603313D01*
X106735635Y-67603308D01*
X106717319Y-67534952D01*
X106704362Y-67486593D01*
X106706025Y-67416743D01*
X106745188Y-67358881D01*
X106809417Y-67331377D01*
X106824137Y-67330500D01*
X107852466Y-67330500D01*
X107919505Y-67350185D01*
G37*
%TD.AperFunction*%
%TA.AperFunction,NonConductor*%
G36*
X104142902Y-67350185D02*
G01*
X104188657Y-67402989D01*
X104198601Y-67472147D01*
X104195638Y-67486593D01*
X104164366Y-67603302D01*
X104164364Y-67603313D01*
X104144532Y-67829998D01*
X104144532Y-67830001D01*
X104164364Y-68056686D01*
X104164366Y-68056697D01*
X104223258Y-68276488D01*
X104223260Y-68276492D01*
X104223261Y-68276496D01*
X104296470Y-68433492D01*
X104300948Y-68443095D01*
X104311440Y-68512173D01*
X104282920Y-68575957D01*
X104224444Y-68614196D01*
X104188566Y-68619500D01*
X99091434Y-68619500D01*
X99024395Y-68599815D01*
X98978640Y-68547011D01*
X98968696Y-68477853D01*
X98979052Y-68443095D01*
X98983530Y-68433492D01*
X99056739Y-68276496D01*
X99115635Y-68056692D01*
X99135468Y-67830000D01*
X99131093Y-67779999D01*
X99115635Y-67603313D01*
X99115635Y-67603308D01*
X99097319Y-67534951D01*
X99098982Y-67465103D01*
X99129414Y-67415177D01*
X99177774Y-67366818D01*
X99239097Y-67333334D01*
X99265454Y-67330500D01*
X104075863Y-67330500D01*
X104142902Y-67350185D01*
G37*
%TD.AperFunction*%
%TA.AperFunction,NonConductor*%
G36*
X85919505Y-67350185D02*
G01*
X85965260Y-67402989D01*
X85975204Y-67472147D01*
X85972241Y-67486593D01*
X85954366Y-67553303D01*
X85954364Y-67553313D01*
X85934532Y-67779999D01*
X85934532Y-67780001D01*
X85954364Y-68006686D01*
X85954366Y-68006697D01*
X86013258Y-68226488D01*
X86013261Y-68226497D01*
X86036577Y-68276497D01*
X86109432Y-68432734D01*
X86109435Y-68432738D01*
X86109870Y-68433492D01*
X86109961Y-68433868D01*
X86111720Y-68437640D01*
X86110962Y-68437993D01*
X86126348Y-68501391D01*
X86103501Y-68567419D01*
X86048583Y-68610614D01*
X86002488Y-68619500D01*
X84711434Y-68619500D01*
X84644395Y-68599815D01*
X84598640Y-68547011D01*
X84588696Y-68477853D01*
X84599052Y-68443095D01*
X84603530Y-68433492D01*
X84676739Y-68276496D01*
X84735635Y-68056692D01*
X84755468Y-67830000D01*
X84751093Y-67779999D01*
X84735635Y-67603313D01*
X84735635Y-67603308D01*
X84717319Y-67534952D01*
X84704362Y-67486593D01*
X84706025Y-67416743D01*
X84745188Y-67358881D01*
X84809417Y-67331377D01*
X84824137Y-67330500D01*
X85852466Y-67330500D01*
X85919505Y-67350185D01*
G37*
%TD.AperFunction*%
%TA.AperFunction,NonConductor*%
G36*
X82142902Y-67350185D02*
G01*
X82188657Y-67402989D01*
X82198601Y-67472147D01*
X82195638Y-67486593D01*
X82164366Y-67603302D01*
X82164364Y-67603313D01*
X82144532Y-67829998D01*
X82144532Y-67830001D01*
X82164364Y-68056686D01*
X82164366Y-68056697D01*
X82223258Y-68276488D01*
X82223260Y-68276492D01*
X82223261Y-68276496D01*
X82296470Y-68433492D01*
X82300948Y-68443095D01*
X82311440Y-68512173D01*
X82282920Y-68575957D01*
X82224444Y-68614196D01*
X82188566Y-68619500D01*
X77091434Y-68619500D01*
X77024395Y-68599815D01*
X76978640Y-68547011D01*
X76968696Y-68477853D01*
X76979052Y-68443095D01*
X76983530Y-68433492D01*
X77056739Y-68276496D01*
X77115635Y-68056692D01*
X77135468Y-67830000D01*
X77131093Y-67779999D01*
X77115635Y-67603313D01*
X77115635Y-67603308D01*
X77097319Y-67534951D01*
X77098982Y-67465103D01*
X77129414Y-67415177D01*
X77177774Y-67366818D01*
X77239097Y-67333334D01*
X77265454Y-67330500D01*
X82075863Y-67330500D01*
X82142902Y-67350185D01*
G37*
%TD.AperFunction*%
%TA.AperFunction,NonConductor*%
G36*
X63919505Y-67350185D02*
G01*
X63965260Y-67402989D01*
X63975204Y-67472147D01*
X63972241Y-67486593D01*
X63954366Y-67553303D01*
X63954364Y-67553313D01*
X63934532Y-67779999D01*
X63934532Y-67780001D01*
X63954364Y-68006686D01*
X63954366Y-68006697D01*
X64013258Y-68226488D01*
X64013261Y-68226497D01*
X64036577Y-68276497D01*
X64109432Y-68432734D01*
X64109435Y-68432738D01*
X64109870Y-68433492D01*
X64109961Y-68433868D01*
X64111720Y-68437640D01*
X64110962Y-68437993D01*
X64126348Y-68501391D01*
X64103501Y-68567419D01*
X64048583Y-68610614D01*
X64002488Y-68619500D01*
X62711434Y-68619500D01*
X62644395Y-68599815D01*
X62598640Y-68547011D01*
X62588696Y-68477853D01*
X62599052Y-68443095D01*
X62603530Y-68433492D01*
X62676739Y-68276496D01*
X62735635Y-68056692D01*
X62755468Y-67830000D01*
X62751093Y-67779999D01*
X62735635Y-67603313D01*
X62735635Y-67603308D01*
X62717319Y-67534952D01*
X62704362Y-67486593D01*
X62706025Y-67416743D01*
X62745188Y-67358881D01*
X62809417Y-67331377D01*
X62824137Y-67330500D01*
X63852466Y-67330500D01*
X63919505Y-67350185D01*
G37*
%TD.AperFunction*%
%TA.AperFunction,NonConductor*%
G36*
X60142902Y-67350185D02*
G01*
X60188657Y-67402989D01*
X60198601Y-67472147D01*
X60195638Y-67486593D01*
X60164366Y-67603302D01*
X60164364Y-67603313D01*
X60144532Y-67829998D01*
X60144532Y-67830001D01*
X60164364Y-68056686D01*
X60164366Y-68056697D01*
X60223258Y-68276488D01*
X60223260Y-68276492D01*
X60223261Y-68276496D01*
X60296470Y-68433492D01*
X60300948Y-68443095D01*
X60311440Y-68512173D01*
X60282920Y-68575957D01*
X60224444Y-68614196D01*
X60188566Y-68619500D01*
X55091434Y-68619500D01*
X55024395Y-68599815D01*
X54978640Y-68547011D01*
X54968696Y-68477853D01*
X54979052Y-68443095D01*
X54983530Y-68433492D01*
X55056739Y-68276496D01*
X55115635Y-68056692D01*
X55135468Y-67830000D01*
X55131093Y-67779999D01*
X55115635Y-67603313D01*
X55115635Y-67603308D01*
X55097319Y-67534951D01*
X55098982Y-67465103D01*
X55129414Y-67415177D01*
X55177774Y-67366818D01*
X55239097Y-67333334D01*
X55265454Y-67330500D01*
X60075863Y-67330500D01*
X60142902Y-67350185D01*
G37*
%TD.AperFunction*%
%TA.AperFunction,NonConductor*%
G36*
X110308834Y-68652867D02*
G01*
X110364767Y-68694739D01*
X110389184Y-68760203D01*
X110389500Y-68769049D01*
X110389500Y-69330951D01*
X110369815Y-69397990D01*
X110317011Y-69443745D01*
X110247853Y-69453689D01*
X110184297Y-69424664D01*
X110177819Y-69418632D01*
X110079141Y-69319954D01*
X109892734Y-69189432D01*
X109892728Y-69189429D01*
X109865038Y-69176517D01*
X109834724Y-69162381D01*
X109782285Y-69116210D01*
X109763133Y-69049017D01*
X109783348Y-68982135D01*
X109834725Y-68937618D01*
X109892734Y-68910568D01*
X110079139Y-68780047D01*
X110110637Y-68748549D01*
X110177819Y-68681368D01*
X110239142Y-68647883D01*
X110308834Y-68652867D01*
G37*
%TD.AperFunction*%
%TA.AperFunction,NonConductor*%
G36*
X49035203Y-68654836D02*
G01*
X49041681Y-68660868D01*
X49160858Y-68780045D01*
X49160861Y-68780047D01*
X49347266Y-68910568D01*
X49405275Y-68937618D01*
X49457714Y-68983791D01*
X49476866Y-69050984D01*
X49456650Y-69117865D01*
X49405275Y-69162382D01*
X49347267Y-69189431D01*
X49347265Y-69189432D01*
X49160858Y-69319954D01*
X49041681Y-69439132D01*
X48980358Y-69472617D01*
X48910666Y-69467633D01*
X48854733Y-69425761D01*
X48830316Y-69360297D01*
X48830000Y-69351451D01*
X48830000Y-68748549D01*
X48849685Y-68681510D01*
X48902489Y-68635755D01*
X48971647Y-68625811D01*
X49035203Y-68654836D01*
G37*
%TD.AperFunction*%
%TA.AperFunction,NonConductor*%
G36*
X107919505Y-69890185D02*
G01*
X107965260Y-69942989D01*
X107975204Y-70012147D01*
X107972241Y-70026593D01*
X107954366Y-70093303D01*
X107954364Y-70093313D01*
X107934532Y-70319999D01*
X107934532Y-70320001D01*
X107954364Y-70546686D01*
X107954366Y-70546697D01*
X108013258Y-70766488D01*
X108013261Y-70766497D01*
X108036577Y-70816497D01*
X108109432Y-70972734D01*
X108109435Y-70972738D01*
X108109870Y-70973492D01*
X108109961Y-70973868D01*
X108111720Y-70977640D01*
X108110962Y-70977993D01*
X108126348Y-71041391D01*
X108103501Y-71107419D01*
X108048583Y-71150614D01*
X108002488Y-71159500D01*
X106711434Y-71159500D01*
X106644395Y-71139815D01*
X106598640Y-71087011D01*
X106588696Y-71017853D01*
X106599052Y-70983095D01*
X106603530Y-70973492D01*
X106676739Y-70816496D01*
X106735635Y-70596692D01*
X106755468Y-70370000D01*
X106751093Y-70319999D01*
X106735635Y-70143313D01*
X106735635Y-70143308D01*
X106717319Y-70074952D01*
X106704362Y-70026593D01*
X106706025Y-69956743D01*
X106745188Y-69898881D01*
X106809417Y-69871377D01*
X106824137Y-69870500D01*
X107852466Y-69870500D01*
X107919505Y-69890185D01*
G37*
%TD.AperFunction*%
%TA.AperFunction,NonConductor*%
G36*
X104142902Y-69890185D02*
G01*
X104188657Y-69942989D01*
X104198601Y-70012147D01*
X104195638Y-70026593D01*
X104164366Y-70143302D01*
X104164364Y-70143313D01*
X104144532Y-70369998D01*
X104144532Y-70370001D01*
X104164364Y-70596686D01*
X104164366Y-70596697D01*
X104223258Y-70816488D01*
X104223260Y-70816492D01*
X104223261Y-70816496D01*
X104296470Y-70973492D01*
X104300948Y-70983095D01*
X104311440Y-71052173D01*
X104282920Y-71115957D01*
X104224444Y-71154196D01*
X104188566Y-71159500D01*
X99091434Y-71159500D01*
X99024395Y-71139815D01*
X98978640Y-71087011D01*
X98968696Y-71017853D01*
X98979052Y-70983095D01*
X98983530Y-70973492D01*
X99056739Y-70816496D01*
X99115635Y-70596692D01*
X99135468Y-70370000D01*
X99131093Y-70319999D01*
X99115635Y-70143313D01*
X99115635Y-70143308D01*
X99097319Y-70074951D01*
X99098982Y-70005103D01*
X99129414Y-69955177D01*
X99177774Y-69906818D01*
X99239097Y-69873334D01*
X99265454Y-69870500D01*
X104075863Y-69870500D01*
X104142902Y-69890185D01*
G37*
%TD.AperFunction*%
%TA.AperFunction,NonConductor*%
G36*
X85919505Y-69890185D02*
G01*
X85965260Y-69942989D01*
X85975204Y-70012147D01*
X85972241Y-70026593D01*
X85954366Y-70093303D01*
X85954364Y-70093313D01*
X85934532Y-70319999D01*
X85934532Y-70320001D01*
X85954364Y-70546686D01*
X85954366Y-70546697D01*
X86013258Y-70766488D01*
X86013261Y-70766497D01*
X86036577Y-70816497D01*
X86109432Y-70972734D01*
X86109435Y-70972738D01*
X86109870Y-70973492D01*
X86109961Y-70973868D01*
X86111720Y-70977640D01*
X86110962Y-70977993D01*
X86126348Y-71041391D01*
X86103501Y-71107419D01*
X86048583Y-71150614D01*
X86002488Y-71159500D01*
X84711434Y-71159500D01*
X84644395Y-71139815D01*
X84598640Y-71087011D01*
X84588696Y-71017853D01*
X84599052Y-70983095D01*
X84603530Y-70973492D01*
X84676739Y-70816496D01*
X84735635Y-70596692D01*
X84755468Y-70370000D01*
X84751093Y-70319999D01*
X84735635Y-70143313D01*
X84735635Y-70143308D01*
X84717319Y-70074952D01*
X84704362Y-70026593D01*
X84706025Y-69956743D01*
X84745188Y-69898881D01*
X84809417Y-69871377D01*
X84824137Y-69870500D01*
X85852466Y-69870500D01*
X85919505Y-69890185D01*
G37*
%TD.AperFunction*%
%TA.AperFunction,NonConductor*%
G36*
X82142902Y-69890185D02*
G01*
X82188657Y-69942989D01*
X82198601Y-70012147D01*
X82195638Y-70026593D01*
X82164366Y-70143302D01*
X82164364Y-70143313D01*
X82144532Y-70369998D01*
X82144532Y-70370001D01*
X82164364Y-70596686D01*
X82164366Y-70596697D01*
X82223258Y-70816488D01*
X82223260Y-70816492D01*
X82223261Y-70816496D01*
X82296470Y-70973492D01*
X82300948Y-70983095D01*
X82311440Y-71052173D01*
X82282920Y-71115957D01*
X82224444Y-71154196D01*
X82188566Y-71159500D01*
X77091434Y-71159500D01*
X77024395Y-71139815D01*
X76978640Y-71087011D01*
X76968696Y-71017853D01*
X76979052Y-70983095D01*
X76983530Y-70973492D01*
X77056739Y-70816496D01*
X77115635Y-70596692D01*
X77135468Y-70370000D01*
X77131093Y-70319999D01*
X77115635Y-70143313D01*
X77115635Y-70143308D01*
X77097319Y-70074951D01*
X77098982Y-70005103D01*
X77129414Y-69955177D01*
X77177774Y-69906818D01*
X77239097Y-69873334D01*
X77265454Y-69870500D01*
X82075863Y-69870500D01*
X82142902Y-69890185D01*
G37*
%TD.AperFunction*%
%TA.AperFunction,NonConductor*%
G36*
X63919505Y-69890185D02*
G01*
X63965260Y-69942989D01*
X63975204Y-70012147D01*
X63972241Y-70026593D01*
X63954366Y-70093303D01*
X63954364Y-70093313D01*
X63934532Y-70319999D01*
X63934532Y-70320001D01*
X63954364Y-70546686D01*
X63954366Y-70546697D01*
X64013258Y-70766488D01*
X64013261Y-70766497D01*
X64036577Y-70816497D01*
X64109432Y-70972734D01*
X64109435Y-70972738D01*
X64109870Y-70973492D01*
X64109961Y-70973868D01*
X64111720Y-70977640D01*
X64110962Y-70977993D01*
X64126348Y-71041391D01*
X64103501Y-71107419D01*
X64048583Y-71150614D01*
X64002488Y-71159500D01*
X62711434Y-71159500D01*
X62644395Y-71139815D01*
X62598640Y-71087011D01*
X62588696Y-71017853D01*
X62599052Y-70983095D01*
X62603530Y-70973492D01*
X62676739Y-70816496D01*
X62735635Y-70596692D01*
X62755468Y-70370000D01*
X62751093Y-70319999D01*
X62735635Y-70143313D01*
X62735635Y-70143308D01*
X62717319Y-70074952D01*
X62704362Y-70026593D01*
X62706025Y-69956743D01*
X62745188Y-69898881D01*
X62809417Y-69871377D01*
X62824137Y-69870500D01*
X63852466Y-69870500D01*
X63919505Y-69890185D01*
G37*
%TD.AperFunction*%
%TA.AperFunction,NonConductor*%
G36*
X60142902Y-69890185D02*
G01*
X60188657Y-69942989D01*
X60198601Y-70012147D01*
X60195638Y-70026593D01*
X60164366Y-70143302D01*
X60164364Y-70143313D01*
X60144532Y-70369998D01*
X60144532Y-70370001D01*
X60164364Y-70596686D01*
X60164366Y-70596697D01*
X60223258Y-70816488D01*
X60223260Y-70816492D01*
X60223261Y-70816496D01*
X60296470Y-70973492D01*
X60300948Y-70983095D01*
X60311440Y-71052173D01*
X60282920Y-71115957D01*
X60224444Y-71154196D01*
X60188566Y-71159500D01*
X55091434Y-71159500D01*
X55024395Y-71139815D01*
X54978640Y-71087011D01*
X54968696Y-71017853D01*
X54979052Y-70983095D01*
X54983530Y-70973492D01*
X55056739Y-70816496D01*
X55115635Y-70596692D01*
X55135468Y-70370000D01*
X55131093Y-70319999D01*
X55115635Y-70143313D01*
X55115635Y-70143308D01*
X55097319Y-70074951D01*
X55098982Y-70005103D01*
X55129414Y-69955177D01*
X55177774Y-69906818D01*
X55239097Y-69873334D01*
X55265454Y-69870500D01*
X60075863Y-69870500D01*
X60142902Y-69890185D01*
G37*
%TD.AperFunction*%
%TA.AperFunction,NonConductor*%
G36*
X110308834Y-71192867D02*
G01*
X110364767Y-71234739D01*
X110389184Y-71300203D01*
X110389500Y-71309049D01*
X110389500Y-71870951D01*
X110369815Y-71937990D01*
X110317011Y-71983745D01*
X110247853Y-71993689D01*
X110184297Y-71964664D01*
X110177819Y-71958632D01*
X110079141Y-71859954D01*
X109892734Y-71729432D01*
X109892728Y-71729429D01*
X109865038Y-71716517D01*
X109834724Y-71702381D01*
X109782285Y-71656210D01*
X109763133Y-71589017D01*
X109783348Y-71522135D01*
X109834725Y-71477618D01*
X109892734Y-71450568D01*
X110079139Y-71320047D01*
X110110637Y-71288549D01*
X110177819Y-71221368D01*
X110239142Y-71187883D01*
X110308834Y-71192867D01*
G37*
%TD.AperFunction*%
%TA.AperFunction,NonConductor*%
G36*
X49035203Y-71194836D02*
G01*
X49041681Y-71200868D01*
X49160858Y-71320045D01*
X49160861Y-71320047D01*
X49347266Y-71450568D01*
X49405275Y-71477618D01*
X49457714Y-71523791D01*
X49476866Y-71590984D01*
X49456650Y-71657865D01*
X49405275Y-71702382D01*
X49347267Y-71729431D01*
X49347265Y-71729432D01*
X49160858Y-71859954D01*
X49041681Y-71979132D01*
X48980358Y-72012617D01*
X48910666Y-72007633D01*
X48854733Y-71965761D01*
X48830316Y-71900297D01*
X48830000Y-71891451D01*
X48830000Y-71288549D01*
X48849685Y-71221510D01*
X48902489Y-71175755D01*
X48971647Y-71165811D01*
X49035203Y-71194836D01*
G37*
%TD.AperFunction*%
%TA.AperFunction,NonConductor*%
G36*
X107919505Y-72430185D02*
G01*
X107965260Y-72482989D01*
X107975204Y-72552147D01*
X107972241Y-72566593D01*
X107954366Y-72633303D01*
X107954364Y-72633313D01*
X107934532Y-72859999D01*
X107934532Y-72860001D01*
X107954364Y-73086686D01*
X107954366Y-73086697D01*
X108013258Y-73306488D01*
X108013261Y-73306497D01*
X108036577Y-73356497D01*
X108109432Y-73512734D01*
X108109435Y-73512738D01*
X108109870Y-73513492D01*
X108109961Y-73513868D01*
X108111720Y-73517640D01*
X108110962Y-73517993D01*
X108126348Y-73581391D01*
X108103501Y-73647419D01*
X108048583Y-73690614D01*
X108002488Y-73699500D01*
X106711434Y-73699500D01*
X106644395Y-73679815D01*
X106598640Y-73627011D01*
X106588696Y-73557853D01*
X106599052Y-73523095D01*
X106603530Y-73513492D01*
X106676739Y-73356496D01*
X106735635Y-73136692D01*
X106755468Y-72910000D01*
X106751093Y-72859999D01*
X106735635Y-72683313D01*
X106735635Y-72683308D01*
X106717319Y-72614952D01*
X106704362Y-72566593D01*
X106706025Y-72496743D01*
X106745188Y-72438881D01*
X106809417Y-72411377D01*
X106824137Y-72410500D01*
X107852466Y-72410500D01*
X107919505Y-72430185D01*
G37*
%TD.AperFunction*%
%TA.AperFunction,NonConductor*%
G36*
X104142902Y-72430185D02*
G01*
X104188657Y-72482989D01*
X104198601Y-72552147D01*
X104195638Y-72566593D01*
X104164366Y-72683302D01*
X104164364Y-72683313D01*
X104144532Y-72909998D01*
X104144532Y-72910001D01*
X104164364Y-73136686D01*
X104164366Y-73136697D01*
X104223258Y-73356488D01*
X104223260Y-73356492D01*
X104223261Y-73356496D01*
X104296470Y-73513492D01*
X104300948Y-73523095D01*
X104311440Y-73592173D01*
X104282920Y-73655957D01*
X104224444Y-73694196D01*
X104188566Y-73699500D01*
X99091434Y-73699500D01*
X99024395Y-73679815D01*
X98978640Y-73627011D01*
X98968696Y-73557853D01*
X98979052Y-73523095D01*
X98983530Y-73513492D01*
X99056739Y-73356496D01*
X99115635Y-73136692D01*
X99135468Y-72910000D01*
X99131093Y-72859999D01*
X99115635Y-72683313D01*
X99115635Y-72683308D01*
X99097319Y-72614951D01*
X99098982Y-72545103D01*
X99129414Y-72495177D01*
X99177774Y-72446818D01*
X99239097Y-72413334D01*
X99265454Y-72410500D01*
X104075863Y-72410500D01*
X104142902Y-72430185D01*
G37*
%TD.AperFunction*%
%TA.AperFunction,NonConductor*%
G36*
X85919505Y-72430185D02*
G01*
X85965260Y-72482989D01*
X85975204Y-72552147D01*
X85972241Y-72566593D01*
X85954366Y-72633303D01*
X85954364Y-72633313D01*
X85934532Y-72859999D01*
X85934532Y-72860001D01*
X85954364Y-73086686D01*
X85954366Y-73086697D01*
X86013258Y-73306488D01*
X86013261Y-73306497D01*
X86036577Y-73356497D01*
X86109432Y-73512734D01*
X86109435Y-73512738D01*
X86109870Y-73513492D01*
X86109961Y-73513868D01*
X86111720Y-73517640D01*
X86110962Y-73517993D01*
X86126348Y-73581391D01*
X86103501Y-73647419D01*
X86048583Y-73690614D01*
X86002488Y-73699500D01*
X84711434Y-73699500D01*
X84644395Y-73679815D01*
X84598640Y-73627011D01*
X84588696Y-73557853D01*
X84599052Y-73523095D01*
X84603530Y-73513492D01*
X84676739Y-73356496D01*
X84735635Y-73136692D01*
X84755468Y-72910000D01*
X84751093Y-72859999D01*
X84735635Y-72683313D01*
X84735635Y-72683308D01*
X84717319Y-72614952D01*
X84704362Y-72566593D01*
X84706025Y-72496743D01*
X84745188Y-72438881D01*
X84809417Y-72411377D01*
X84824137Y-72410500D01*
X85852466Y-72410500D01*
X85919505Y-72430185D01*
G37*
%TD.AperFunction*%
%TA.AperFunction,NonConductor*%
G36*
X82142902Y-72430185D02*
G01*
X82188657Y-72482989D01*
X82198601Y-72552147D01*
X82195638Y-72566593D01*
X82164366Y-72683302D01*
X82164364Y-72683313D01*
X82144532Y-72909998D01*
X82144532Y-72910001D01*
X82164364Y-73136686D01*
X82164366Y-73136697D01*
X82223258Y-73356488D01*
X82223260Y-73356492D01*
X82223261Y-73356496D01*
X82296470Y-73513492D01*
X82300948Y-73523095D01*
X82311440Y-73592173D01*
X82282920Y-73655957D01*
X82224444Y-73694196D01*
X82188566Y-73699500D01*
X77091434Y-73699500D01*
X77024395Y-73679815D01*
X76978640Y-73627011D01*
X76968696Y-73557853D01*
X76979052Y-73523095D01*
X76983530Y-73513492D01*
X77056739Y-73356496D01*
X77115635Y-73136692D01*
X77135468Y-72910000D01*
X77131093Y-72859999D01*
X77115635Y-72683313D01*
X77115635Y-72683308D01*
X77097319Y-72614951D01*
X77098982Y-72545103D01*
X77129414Y-72495177D01*
X77177774Y-72446818D01*
X77239097Y-72413334D01*
X77265454Y-72410500D01*
X82075863Y-72410500D01*
X82142902Y-72430185D01*
G37*
%TD.AperFunction*%
%TA.AperFunction,NonConductor*%
G36*
X63919505Y-72430185D02*
G01*
X63965260Y-72482989D01*
X63975204Y-72552147D01*
X63972241Y-72566593D01*
X63954366Y-72633303D01*
X63954364Y-72633313D01*
X63934532Y-72859999D01*
X63934532Y-72860001D01*
X63954364Y-73086686D01*
X63954366Y-73086697D01*
X64013258Y-73306488D01*
X64013261Y-73306497D01*
X64036577Y-73356497D01*
X64109432Y-73512734D01*
X64109435Y-73512738D01*
X64109870Y-73513492D01*
X64109961Y-73513868D01*
X64111720Y-73517640D01*
X64110962Y-73517993D01*
X64126348Y-73581391D01*
X64103501Y-73647419D01*
X64048583Y-73690614D01*
X64002488Y-73699500D01*
X62711434Y-73699500D01*
X62644395Y-73679815D01*
X62598640Y-73627011D01*
X62588696Y-73557853D01*
X62599052Y-73523095D01*
X62603530Y-73513492D01*
X62676739Y-73356496D01*
X62735635Y-73136692D01*
X62755468Y-72910000D01*
X62751093Y-72859999D01*
X62735635Y-72683313D01*
X62735635Y-72683308D01*
X62717319Y-72614952D01*
X62704362Y-72566593D01*
X62706025Y-72496743D01*
X62745188Y-72438881D01*
X62809417Y-72411377D01*
X62824137Y-72410500D01*
X63852466Y-72410500D01*
X63919505Y-72430185D01*
G37*
%TD.AperFunction*%
%TA.AperFunction,NonConductor*%
G36*
X60142902Y-72430185D02*
G01*
X60188657Y-72482989D01*
X60198601Y-72552147D01*
X60195638Y-72566593D01*
X60164366Y-72683302D01*
X60164364Y-72683313D01*
X60144532Y-72909998D01*
X60144532Y-72910001D01*
X60164364Y-73136686D01*
X60164366Y-73136697D01*
X60223258Y-73356488D01*
X60223260Y-73356492D01*
X60223261Y-73356496D01*
X60296470Y-73513492D01*
X60300948Y-73523095D01*
X60311440Y-73592173D01*
X60282920Y-73655957D01*
X60224444Y-73694196D01*
X60188566Y-73699500D01*
X55091434Y-73699500D01*
X55024395Y-73679815D01*
X54978640Y-73627011D01*
X54968696Y-73557853D01*
X54979052Y-73523095D01*
X54983530Y-73513492D01*
X55056739Y-73356496D01*
X55115635Y-73136692D01*
X55135468Y-72910000D01*
X55131093Y-72859999D01*
X55115635Y-72683313D01*
X55115635Y-72683308D01*
X55097319Y-72614951D01*
X55098982Y-72545103D01*
X55129414Y-72495177D01*
X55177774Y-72446818D01*
X55239097Y-72413334D01*
X55265454Y-72410500D01*
X60075863Y-72410500D01*
X60142902Y-72430185D01*
G37*
%TD.AperFunction*%
%TA.AperFunction,NonConductor*%
G36*
X110308834Y-73732867D02*
G01*
X110364767Y-73774739D01*
X110389184Y-73840203D01*
X110389500Y-73849049D01*
X110389500Y-74410951D01*
X110369815Y-74477990D01*
X110317011Y-74523745D01*
X110247853Y-74533689D01*
X110184297Y-74504664D01*
X110177819Y-74498632D01*
X110079141Y-74399954D01*
X109892734Y-74269432D01*
X109892728Y-74269429D01*
X109865038Y-74256517D01*
X109834724Y-74242381D01*
X109782285Y-74196210D01*
X109763133Y-74129017D01*
X109783348Y-74062135D01*
X109834725Y-74017618D01*
X109892734Y-73990568D01*
X110079139Y-73860047D01*
X110110637Y-73828549D01*
X110177819Y-73761368D01*
X110239142Y-73727883D01*
X110308834Y-73732867D01*
G37*
%TD.AperFunction*%
%TA.AperFunction,NonConductor*%
G36*
X49035203Y-73734836D02*
G01*
X49041681Y-73740868D01*
X49160858Y-73860045D01*
X49160861Y-73860047D01*
X49347266Y-73990568D01*
X49405275Y-74017618D01*
X49457714Y-74063791D01*
X49476866Y-74130984D01*
X49456650Y-74197865D01*
X49405275Y-74242382D01*
X49347267Y-74269431D01*
X49347265Y-74269432D01*
X49160858Y-74399954D01*
X49041681Y-74519132D01*
X48980358Y-74552617D01*
X48910666Y-74547633D01*
X48854733Y-74505761D01*
X48830316Y-74440297D01*
X48830000Y-74431451D01*
X48830000Y-73828549D01*
X48849685Y-73761510D01*
X48902489Y-73715755D01*
X48971647Y-73705811D01*
X49035203Y-73734836D01*
G37*
%TD.AperFunction*%
%TA.AperFunction,NonConductor*%
G36*
X107919505Y-74970185D02*
G01*
X107965260Y-75022989D01*
X107975204Y-75092147D01*
X107972241Y-75106593D01*
X107954366Y-75173303D01*
X107954364Y-75173313D01*
X107934532Y-75399999D01*
X107934532Y-75400001D01*
X107954364Y-75626686D01*
X107954366Y-75626697D01*
X108013258Y-75846488D01*
X108013261Y-75846497D01*
X108036577Y-75896497D01*
X108109432Y-76052734D01*
X108109435Y-76052738D01*
X108109870Y-76053492D01*
X108109961Y-76053868D01*
X108111720Y-76057640D01*
X108110962Y-76057993D01*
X108126348Y-76121391D01*
X108103501Y-76187419D01*
X108048583Y-76230614D01*
X108002488Y-76239500D01*
X106711434Y-76239500D01*
X106644395Y-76219815D01*
X106598640Y-76167011D01*
X106588696Y-76097853D01*
X106599052Y-76063095D01*
X106603530Y-76053492D01*
X106676739Y-75896496D01*
X106735635Y-75676692D01*
X106755468Y-75450000D01*
X106751093Y-75399999D01*
X106735635Y-75223313D01*
X106735635Y-75223308D01*
X106717319Y-75154952D01*
X106704362Y-75106593D01*
X106706025Y-75036743D01*
X106745188Y-74978881D01*
X106809417Y-74951377D01*
X106824137Y-74950500D01*
X107852466Y-74950500D01*
X107919505Y-74970185D01*
G37*
%TD.AperFunction*%
%TA.AperFunction,NonConductor*%
G36*
X104142902Y-74970185D02*
G01*
X104188657Y-75022989D01*
X104198601Y-75092147D01*
X104195638Y-75106593D01*
X104164366Y-75223302D01*
X104164364Y-75223313D01*
X104144532Y-75449998D01*
X104144532Y-75450001D01*
X104164364Y-75676686D01*
X104164366Y-75676697D01*
X104223258Y-75896488D01*
X104223260Y-75896492D01*
X104223261Y-75896496D01*
X104296470Y-76053492D01*
X104300948Y-76063095D01*
X104311440Y-76132173D01*
X104282920Y-76195957D01*
X104224444Y-76234196D01*
X104188566Y-76239500D01*
X99091434Y-76239500D01*
X99024395Y-76219815D01*
X98978640Y-76167011D01*
X98968696Y-76097853D01*
X98979052Y-76063095D01*
X98983530Y-76053492D01*
X99056739Y-75896496D01*
X99115635Y-75676692D01*
X99135468Y-75450000D01*
X99131093Y-75399999D01*
X99115635Y-75223313D01*
X99115635Y-75223308D01*
X99097319Y-75154951D01*
X99098982Y-75085103D01*
X99129414Y-75035177D01*
X99177774Y-74986818D01*
X99239097Y-74953334D01*
X99265454Y-74950500D01*
X104075863Y-74950500D01*
X104142902Y-74970185D01*
G37*
%TD.AperFunction*%
%TA.AperFunction,NonConductor*%
G36*
X85919505Y-74970185D02*
G01*
X85965260Y-75022989D01*
X85975204Y-75092147D01*
X85972241Y-75106593D01*
X85954366Y-75173303D01*
X85954364Y-75173313D01*
X85934532Y-75399999D01*
X85934532Y-75400001D01*
X85954364Y-75626686D01*
X85954366Y-75626697D01*
X86013258Y-75846488D01*
X86013261Y-75846497D01*
X86036577Y-75896497D01*
X86109432Y-76052734D01*
X86109435Y-76052738D01*
X86109870Y-76053492D01*
X86109961Y-76053868D01*
X86111720Y-76057640D01*
X86110962Y-76057993D01*
X86126348Y-76121391D01*
X86103501Y-76187419D01*
X86048583Y-76230614D01*
X86002488Y-76239500D01*
X84711434Y-76239500D01*
X84644395Y-76219815D01*
X84598640Y-76167011D01*
X84588696Y-76097853D01*
X84599052Y-76063095D01*
X84603530Y-76053492D01*
X84676739Y-75896496D01*
X84735635Y-75676692D01*
X84755468Y-75450000D01*
X84751093Y-75399999D01*
X84735635Y-75223313D01*
X84735635Y-75223308D01*
X84717319Y-75154952D01*
X84704362Y-75106593D01*
X84706025Y-75036743D01*
X84745188Y-74978881D01*
X84809417Y-74951377D01*
X84824137Y-74950500D01*
X85852466Y-74950500D01*
X85919505Y-74970185D01*
G37*
%TD.AperFunction*%
%TA.AperFunction,NonConductor*%
G36*
X82142902Y-74970185D02*
G01*
X82188657Y-75022989D01*
X82198601Y-75092147D01*
X82195638Y-75106593D01*
X82164366Y-75223302D01*
X82164364Y-75223313D01*
X82144532Y-75449998D01*
X82144532Y-75450001D01*
X82164364Y-75676686D01*
X82164366Y-75676697D01*
X82223258Y-75896488D01*
X82223260Y-75896492D01*
X82223261Y-75896496D01*
X82296470Y-76053492D01*
X82300948Y-76063095D01*
X82311440Y-76132173D01*
X82282920Y-76195957D01*
X82224444Y-76234196D01*
X82188566Y-76239500D01*
X77091434Y-76239500D01*
X77024395Y-76219815D01*
X76978640Y-76167011D01*
X76968696Y-76097853D01*
X76979052Y-76063095D01*
X76983530Y-76053492D01*
X77056739Y-75896496D01*
X77115635Y-75676692D01*
X77135468Y-75450000D01*
X77131093Y-75399999D01*
X77115635Y-75223313D01*
X77115635Y-75223308D01*
X77097319Y-75154951D01*
X77098982Y-75085103D01*
X77129414Y-75035177D01*
X77177774Y-74986818D01*
X77239097Y-74953334D01*
X77265454Y-74950500D01*
X82075863Y-74950500D01*
X82142902Y-74970185D01*
G37*
%TD.AperFunction*%
%TA.AperFunction,NonConductor*%
G36*
X63919505Y-74970185D02*
G01*
X63965260Y-75022989D01*
X63975204Y-75092147D01*
X63972241Y-75106593D01*
X63954366Y-75173303D01*
X63954364Y-75173313D01*
X63934532Y-75399999D01*
X63934532Y-75400001D01*
X63954364Y-75626686D01*
X63954366Y-75626697D01*
X64013258Y-75846488D01*
X64013261Y-75846497D01*
X64036577Y-75896497D01*
X64109432Y-76052734D01*
X64109435Y-76052738D01*
X64109870Y-76053492D01*
X64109961Y-76053868D01*
X64111720Y-76057640D01*
X64110962Y-76057993D01*
X64126348Y-76121391D01*
X64103501Y-76187419D01*
X64048583Y-76230614D01*
X64002488Y-76239500D01*
X62711434Y-76239500D01*
X62644395Y-76219815D01*
X62598640Y-76167011D01*
X62588696Y-76097853D01*
X62599052Y-76063095D01*
X62603530Y-76053492D01*
X62676739Y-75896496D01*
X62735635Y-75676692D01*
X62755468Y-75450000D01*
X62751093Y-75399999D01*
X62735635Y-75223313D01*
X62735635Y-75223308D01*
X62717319Y-75154952D01*
X62704362Y-75106593D01*
X62706025Y-75036743D01*
X62745188Y-74978881D01*
X62809417Y-74951377D01*
X62824137Y-74950500D01*
X63852466Y-74950500D01*
X63919505Y-74970185D01*
G37*
%TD.AperFunction*%
%TA.AperFunction,NonConductor*%
G36*
X60142902Y-74970185D02*
G01*
X60188657Y-75022989D01*
X60198601Y-75092147D01*
X60195638Y-75106593D01*
X60164366Y-75223302D01*
X60164364Y-75223313D01*
X60144532Y-75449998D01*
X60144532Y-75450001D01*
X60164364Y-75676686D01*
X60164366Y-75676697D01*
X60223258Y-75896488D01*
X60223260Y-75896492D01*
X60223261Y-75896496D01*
X60296470Y-76053492D01*
X60300948Y-76063095D01*
X60311440Y-76132173D01*
X60282920Y-76195957D01*
X60224444Y-76234196D01*
X60188566Y-76239500D01*
X55091434Y-76239500D01*
X55024395Y-76219815D01*
X54978640Y-76167011D01*
X54968696Y-76097853D01*
X54979052Y-76063095D01*
X54983530Y-76053492D01*
X55056739Y-75896496D01*
X55115635Y-75676692D01*
X55135468Y-75450000D01*
X55131093Y-75399999D01*
X55115635Y-75223313D01*
X55115635Y-75223308D01*
X55097319Y-75154951D01*
X55098982Y-75085103D01*
X55129414Y-75035177D01*
X55177774Y-74986818D01*
X55239097Y-74953334D01*
X55265454Y-74950500D01*
X60075863Y-74950500D01*
X60142902Y-74970185D01*
G37*
%TD.AperFunction*%
%TA.AperFunction,NonConductor*%
G36*
X110308834Y-76272867D02*
G01*
X110364767Y-76314739D01*
X110389184Y-76380203D01*
X110389500Y-76389049D01*
X110389500Y-76950951D01*
X110369815Y-77017990D01*
X110317011Y-77063745D01*
X110247853Y-77073689D01*
X110184297Y-77044664D01*
X110177819Y-77038632D01*
X110079141Y-76939954D01*
X109892734Y-76809432D01*
X109892728Y-76809429D01*
X109865038Y-76796517D01*
X109834724Y-76782381D01*
X109782285Y-76736210D01*
X109763133Y-76669017D01*
X109783348Y-76602135D01*
X109834725Y-76557618D01*
X109892734Y-76530568D01*
X110079139Y-76400047D01*
X110110637Y-76368549D01*
X110177819Y-76301368D01*
X110239142Y-76267883D01*
X110308834Y-76272867D01*
G37*
%TD.AperFunction*%
%TA.AperFunction,NonConductor*%
G36*
X49035203Y-76274836D02*
G01*
X49041681Y-76280868D01*
X49160858Y-76400045D01*
X49160861Y-76400047D01*
X49347266Y-76530568D01*
X49405865Y-76557893D01*
X49458305Y-76604065D01*
X49477457Y-76671258D01*
X49457242Y-76738139D01*
X49405867Y-76782657D01*
X49347515Y-76809867D01*
X49161179Y-76940342D01*
X49041681Y-77059841D01*
X48980358Y-77093326D01*
X48910666Y-77088342D01*
X48854733Y-77046470D01*
X48830316Y-76981006D01*
X48830000Y-76972160D01*
X48830000Y-76368549D01*
X48849685Y-76301510D01*
X48902489Y-76255755D01*
X48971647Y-76245811D01*
X49035203Y-76274836D01*
G37*
%TD.AperFunction*%
M02*
