%TF.GenerationSoftware,KiCad,Pcbnew,7.0.9*%
%TF.CreationDate,2024-05-03T11:46:20+01:00*%
%TF.ProjectId,DIP24Converter,44495032-3443-46f6-9e76-65727465722e,rev?*%
%TF.SameCoordinates,Original*%
%TF.FileFunction,Copper,L1,Top*%
%TF.FilePolarity,Positive*%
%FSLAX46Y46*%
G04 Gerber Fmt 4.6, Leading zero omitted, Abs format (unit mm)*
G04 Created by KiCad (PCBNEW 7.0.9) date 2024-05-03 11:46:20*
%MOMM*%
%LPD*%
G01*
G04 APERTURE LIST*
%TA.AperFunction,ComponentPad*%
%ADD10R,1.600000X1.600000*%
%TD*%
%TA.AperFunction,ComponentPad*%
%ADD11O,1.600000X1.600000*%
%TD*%
%TA.AperFunction,Conductor*%
%ADD12C,0.250000*%
%TD*%
G04 APERTURE END LIST*
D10*
%TO.P,U1,1,COM*%
%TO.N,Net-(U1-COM)*%
X105450000Y-50050000D03*
D11*
%TO.P,U1,2,I7*%
%TO.N,Net-(U1-I7)*%
X105450000Y-52590000D03*
%TO.P,U1,3,I6*%
%TO.N,Net-(U1-I6)*%
X105450000Y-55130000D03*
%TO.P,U1,4,I5*%
%TO.N,Net-(U1-I5)*%
X105450000Y-57670000D03*
%TO.P,U1,5,I4*%
%TO.N,Net-(U1-I4)*%
X105450000Y-60210000D03*
%TO.P,U1,6,I3*%
%TO.N,Net-(U1-I3)*%
X105450000Y-62750000D03*
%TO.P,U1,7,I2*%
%TO.N,Net-(U1-I2)*%
X105450000Y-65290000D03*
%TO.P,U1,8,I1*%
%TO.N,Net-(U1-I1)*%
X105450000Y-67830000D03*
%TO.P,U1,9,I0*%
%TO.N,Net-(U1-I0)*%
X105450000Y-70370000D03*
%TO.P,U1,10,S0*%
%TO.N,Net-(U1-S0)*%
X105450000Y-72910000D03*
%TO.P,U1,11,S1*%
%TO.N,Net-(U1-S1)*%
X105450000Y-75450000D03*
%TO.P,U1,12,GND*%
%TO.N,GND*%
X105450000Y-77990000D03*
%TO.P,U1,13,S3*%
%TO.N,Net-(U1-S3)*%
X97830000Y-77990000D03*
%TO.P,U1,14,S2*%
%TO.N,Net-(U1-S2)*%
X97830000Y-75450000D03*
%TO.P,U1,15,~{E}*%
%TO.N,Net-(U1-~{E})*%
X97830000Y-72910000D03*
%TO.P,U1,16,I15*%
%TO.N,Net-(U1-I15)*%
X97830000Y-70370000D03*
%TO.P,U1,17,I14*%
%TO.N,Net-(U1-I14)*%
X97830000Y-67830000D03*
%TO.P,U1,18,I13*%
%TO.N,Net-(U1-I13)*%
X97830000Y-65290000D03*
%TO.P,U1,19,I12*%
%TO.N,Net-(U1-I12)*%
X97830000Y-62750000D03*
%TO.P,U1,20,I11*%
%TO.N,Net-(U1-I11)*%
X97830000Y-60210000D03*
%TO.P,U1,21,I10*%
%TO.N,Net-(U1-I10)*%
X97830000Y-57670000D03*
%TO.P,U1,22,I9*%
%TO.N,Net-(U1-I9)*%
X97830000Y-55130000D03*
%TO.P,U1,23,I8*%
%TO.N,Net-(U1-I8)*%
X97830000Y-52590000D03*
%TO.P,U1,24,VCC*%
%TO.N,Net-(U1-VCC)*%
X97830000Y-50050000D03*
%TD*%
D10*
%TO.P,U2,1,COM*%
%TO.N,Net-(U1-COM)*%
X94000000Y-50000000D03*
D11*
%TO.P,U2,2,I7*%
%TO.N,Net-(U1-I7)*%
X94000000Y-52540000D03*
%TO.P,U2,3,I6*%
%TO.N,Net-(U1-I6)*%
X94000000Y-55080000D03*
%TO.P,U2,4,I5*%
%TO.N,Net-(U1-I5)*%
X94000000Y-57620000D03*
%TO.P,U2,5,I4*%
%TO.N,Net-(U1-I4)*%
X94000000Y-60160000D03*
%TO.P,U2,6,I3*%
%TO.N,Net-(U1-I3)*%
X94000000Y-62700000D03*
%TO.P,U2,7,I2*%
%TO.N,Net-(U1-I2)*%
X94000000Y-65240000D03*
%TO.P,U2,8,I1*%
%TO.N,Net-(U1-I1)*%
X94000000Y-67780000D03*
%TO.P,U2,9,I0*%
%TO.N,Net-(U1-I0)*%
X94000000Y-70320000D03*
%TO.P,U2,10,S0*%
%TO.N,Net-(U1-S0)*%
X94000000Y-72860000D03*
%TO.P,U2,11,S1*%
%TO.N,Net-(U1-S1)*%
X94000000Y-75400000D03*
%TO.P,U2,12,GND*%
%TO.N,GND*%
X94000000Y-77940000D03*
%TO.P,U2,13,S3*%
%TO.N,Net-(U1-S3)*%
X109240000Y-77940000D03*
%TO.P,U2,14,S2*%
%TO.N,Net-(U1-S2)*%
X109240000Y-75400000D03*
%TO.P,U2,15,~{E}*%
%TO.N,Net-(U1-~{E})*%
X109240000Y-72860000D03*
%TO.P,U2,16,I15*%
%TO.N,Net-(U1-I15)*%
X109240000Y-70320000D03*
%TO.P,U2,17,I14*%
%TO.N,Net-(U1-I14)*%
X109240000Y-67780000D03*
%TO.P,U2,18,I13*%
%TO.N,Net-(U1-I13)*%
X109240000Y-65240000D03*
%TO.P,U2,19,I12*%
%TO.N,Net-(U1-I12)*%
X109240000Y-62700000D03*
%TO.P,U2,20,I11*%
%TO.N,Net-(U1-I11)*%
X109240000Y-60160000D03*
%TO.P,U2,21,I10*%
%TO.N,Net-(U1-I10)*%
X109240000Y-57620000D03*
%TO.P,U2,22,I9*%
%TO.N,Net-(U1-I9)*%
X109240000Y-55080000D03*
%TO.P,U2,23,I8*%
%TO.N,Net-(U1-I8)*%
X109240000Y-52540000D03*
%TO.P,U2,24,VCC*%
%TO.N,Net-(U1-VCC)*%
X109240000Y-50000000D03*
%TD*%
D10*
%TO.P,U1,1,COM*%
%TO.N,Net-(U1-COM)*%
X83450000Y-50050000D03*
D11*
%TO.P,U1,2,I7*%
%TO.N,Net-(U1-I7)*%
X83450000Y-52590000D03*
%TO.P,U1,3,I6*%
%TO.N,Net-(U1-I6)*%
X83450000Y-55130000D03*
%TO.P,U1,4,I5*%
%TO.N,Net-(U1-I5)*%
X83450000Y-57670000D03*
%TO.P,U1,5,I4*%
%TO.N,Net-(U1-I4)*%
X83450000Y-60210000D03*
%TO.P,U1,6,I3*%
%TO.N,Net-(U1-I3)*%
X83450000Y-62750000D03*
%TO.P,U1,7,I2*%
%TO.N,Net-(U1-I2)*%
X83450000Y-65290000D03*
%TO.P,U1,8,I1*%
%TO.N,Net-(U1-I1)*%
X83450000Y-67830000D03*
%TO.P,U1,9,I0*%
%TO.N,Net-(U1-I0)*%
X83450000Y-70370000D03*
%TO.P,U1,10,S0*%
%TO.N,Net-(U1-S0)*%
X83450000Y-72910000D03*
%TO.P,U1,11,S1*%
%TO.N,Net-(U1-S1)*%
X83450000Y-75450000D03*
%TO.P,U1,12,GND*%
%TO.N,GND*%
X83450000Y-77990000D03*
%TO.P,U1,13,S3*%
%TO.N,Net-(U1-S3)*%
X75830000Y-77990000D03*
%TO.P,U1,14,S2*%
%TO.N,Net-(U1-S2)*%
X75830000Y-75450000D03*
%TO.P,U1,15,~{E}*%
%TO.N,Net-(U1-~{E})*%
X75830000Y-72910000D03*
%TO.P,U1,16,I15*%
%TO.N,Net-(U1-I15)*%
X75830000Y-70370000D03*
%TO.P,U1,17,I14*%
%TO.N,Net-(U1-I14)*%
X75830000Y-67830000D03*
%TO.P,U1,18,I13*%
%TO.N,Net-(U1-I13)*%
X75830000Y-65290000D03*
%TO.P,U1,19,I12*%
%TO.N,Net-(U1-I12)*%
X75830000Y-62750000D03*
%TO.P,U1,20,I11*%
%TO.N,Net-(U1-I11)*%
X75830000Y-60210000D03*
%TO.P,U1,21,I10*%
%TO.N,Net-(U1-I10)*%
X75830000Y-57670000D03*
%TO.P,U1,22,I9*%
%TO.N,Net-(U1-I9)*%
X75830000Y-55130000D03*
%TO.P,U1,23,I8*%
%TO.N,Net-(U1-I8)*%
X75830000Y-52590000D03*
%TO.P,U1,24,VCC*%
%TO.N,Net-(U1-VCC)*%
X75830000Y-50050000D03*
%TD*%
D10*
%TO.P,U2,1,COM*%
%TO.N,Net-(U1-COM)*%
X72000000Y-50000000D03*
D11*
%TO.P,U2,2,I7*%
%TO.N,Net-(U1-I7)*%
X72000000Y-52540000D03*
%TO.P,U2,3,I6*%
%TO.N,Net-(U1-I6)*%
X72000000Y-55080000D03*
%TO.P,U2,4,I5*%
%TO.N,Net-(U1-I5)*%
X72000000Y-57620000D03*
%TO.P,U2,5,I4*%
%TO.N,Net-(U1-I4)*%
X72000000Y-60160000D03*
%TO.P,U2,6,I3*%
%TO.N,Net-(U1-I3)*%
X72000000Y-62700000D03*
%TO.P,U2,7,I2*%
%TO.N,Net-(U1-I2)*%
X72000000Y-65240000D03*
%TO.P,U2,8,I1*%
%TO.N,Net-(U1-I1)*%
X72000000Y-67780000D03*
%TO.P,U2,9,I0*%
%TO.N,Net-(U1-I0)*%
X72000000Y-70320000D03*
%TO.P,U2,10,S0*%
%TO.N,Net-(U1-S0)*%
X72000000Y-72860000D03*
%TO.P,U2,11,S1*%
%TO.N,Net-(U1-S1)*%
X72000000Y-75400000D03*
%TO.P,U2,12,GND*%
%TO.N,GND*%
X72000000Y-77940000D03*
%TO.P,U2,13,S3*%
%TO.N,Net-(U1-S3)*%
X87240000Y-77940000D03*
%TO.P,U2,14,S2*%
%TO.N,Net-(U1-S2)*%
X87240000Y-75400000D03*
%TO.P,U2,15,~{E}*%
%TO.N,Net-(U1-~{E})*%
X87240000Y-72860000D03*
%TO.P,U2,16,I15*%
%TO.N,Net-(U1-I15)*%
X87240000Y-70320000D03*
%TO.P,U2,17,I14*%
%TO.N,Net-(U1-I14)*%
X87240000Y-67780000D03*
%TO.P,U2,18,I13*%
%TO.N,Net-(U1-I13)*%
X87240000Y-65240000D03*
%TO.P,U2,19,I12*%
%TO.N,Net-(U1-I12)*%
X87240000Y-62700000D03*
%TO.P,U2,20,I11*%
%TO.N,Net-(U1-I11)*%
X87240000Y-60160000D03*
%TO.P,U2,21,I10*%
%TO.N,Net-(U1-I10)*%
X87240000Y-57620000D03*
%TO.P,U2,22,I9*%
%TO.N,Net-(U1-I9)*%
X87240000Y-55080000D03*
%TO.P,U2,23,I8*%
%TO.N,Net-(U1-I8)*%
X87240000Y-52540000D03*
%TO.P,U2,24,VCC*%
%TO.N,Net-(U1-VCC)*%
X87240000Y-50000000D03*
%TD*%
%TO.P,U2,24,VCC*%
%TO.N,Net-(U1-VCC)*%
X65240000Y-50000000D03*
%TO.P,U2,23,I8*%
%TO.N,Net-(U1-I8)*%
X65240000Y-52540000D03*
%TO.P,U2,22,I9*%
%TO.N,Net-(U1-I9)*%
X65240000Y-55080000D03*
%TO.P,U2,21,I10*%
%TO.N,Net-(U1-I10)*%
X65240000Y-57620000D03*
%TO.P,U2,20,I11*%
%TO.N,Net-(U1-I11)*%
X65240000Y-60160000D03*
%TO.P,U2,19,I12*%
%TO.N,Net-(U1-I12)*%
X65240000Y-62700000D03*
%TO.P,U2,18,I13*%
%TO.N,Net-(U1-I13)*%
X65240000Y-65240000D03*
%TO.P,U2,17,I14*%
%TO.N,Net-(U1-I14)*%
X65240000Y-67780000D03*
%TO.P,U2,16,I15*%
%TO.N,Net-(U1-I15)*%
X65240000Y-70320000D03*
%TO.P,U2,15,~{E}*%
%TO.N,Net-(U1-~{E})*%
X65240000Y-72860000D03*
%TO.P,U2,14,S2*%
%TO.N,Net-(U1-S2)*%
X65240000Y-75400000D03*
%TO.P,U2,13,S3*%
%TO.N,Net-(U1-S3)*%
X65240000Y-77940000D03*
%TO.P,U2,12,GND*%
%TO.N,GND*%
X50000000Y-77940000D03*
%TO.P,U2,11,S1*%
%TO.N,Net-(U1-S1)*%
X50000000Y-75400000D03*
%TO.P,U2,10,S0*%
%TO.N,Net-(U1-S0)*%
X50000000Y-72860000D03*
%TO.P,U2,9,I0*%
%TO.N,Net-(U1-I0)*%
X50000000Y-70320000D03*
%TO.P,U2,8,I1*%
%TO.N,Net-(U1-I1)*%
X50000000Y-67780000D03*
%TO.P,U2,7,I2*%
%TO.N,Net-(U1-I2)*%
X50000000Y-65240000D03*
%TO.P,U2,6,I3*%
%TO.N,Net-(U1-I3)*%
X50000000Y-62700000D03*
%TO.P,U2,5,I4*%
%TO.N,Net-(U1-I4)*%
X50000000Y-60160000D03*
%TO.P,U2,4,I5*%
%TO.N,Net-(U1-I5)*%
X50000000Y-57620000D03*
%TO.P,U2,3,I6*%
%TO.N,Net-(U1-I6)*%
X50000000Y-55080000D03*
%TO.P,U2,2,I7*%
%TO.N,Net-(U1-I7)*%
X50000000Y-52540000D03*
D10*
%TO.P,U2,1,COM*%
%TO.N,Net-(U1-COM)*%
X50000000Y-50000000D03*
%TD*%
D11*
%TO.P,U1,24,VCC*%
%TO.N,Net-(U1-VCC)*%
X53830000Y-50050000D03*
%TO.P,U1,23,I8*%
%TO.N,Net-(U1-I8)*%
X53830000Y-52590000D03*
%TO.P,U1,22,I9*%
%TO.N,Net-(U1-I9)*%
X53830000Y-55130000D03*
%TO.P,U1,21,I10*%
%TO.N,Net-(U1-I10)*%
X53830000Y-57670000D03*
%TO.P,U1,20,I11*%
%TO.N,Net-(U1-I11)*%
X53830000Y-60210000D03*
%TO.P,U1,19,I12*%
%TO.N,Net-(U1-I12)*%
X53830000Y-62750000D03*
%TO.P,U1,18,I13*%
%TO.N,Net-(U1-I13)*%
X53830000Y-65290000D03*
%TO.P,U1,17,I14*%
%TO.N,Net-(U1-I14)*%
X53830000Y-67830000D03*
%TO.P,U1,16,I15*%
%TO.N,Net-(U1-I15)*%
X53830000Y-70370000D03*
%TO.P,U1,15,~{E}*%
%TO.N,Net-(U1-~{E})*%
X53830000Y-72910000D03*
%TO.P,U1,14,S2*%
%TO.N,Net-(U1-S2)*%
X53830000Y-75450000D03*
%TO.P,U1,13,S3*%
%TO.N,Net-(U1-S3)*%
X53830000Y-77990000D03*
%TO.P,U1,12,GND*%
%TO.N,GND*%
X61450000Y-77990000D03*
%TO.P,U1,11,S1*%
%TO.N,Net-(U1-S1)*%
X61450000Y-75450000D03*
%TO.P,U1,10,S0*%
%TO.N,Net-(U1-S0)*%
X61450000Y-72910000D03*
%TO.P,U1,9,I0*%
%TO.N,Net-(U1-I0)*%
X61450000Y-70370000D03*
%TO.P,U1,8,I1*%
%TO.N,Net-(U1-I1)*%
X61450000Y-67830000D03*
%TO.P,U1,7,I2*%
%TO.N,Net-(U1-I2)*%
X61450000Y-65290000D03*
%TO.P,U1,6,I3*%
%TO.N,Net-(U1-I3)*%
X61450000Y-62750000D03*
%TO.P,U1,5,I4*%
%TO.N,Net-(U1-I4)*%
X61450000Y-60210000D03*
%TO.P,U1,4,I5*%
%TO.N,Net-(U1-I5)*%
X61450000Y-57670000D03*
%TO.P,U1,3,I6*%
%TO.N,Net-(U1-I6)*%
X61450000Y-55130000D03*
%TO.P,U1,2,I7*%
%TO.N,Net-(U1-I7)*%
X61450000Y-52590000D03*
D10*
%TO.P,U1,1,COM*%
%TO.N,Net-(U1-COM)*%
X61450000Y-50050000D03*
%TD*%
D12*
%TO.N,Net-(U1-S0)*%
X104325000Y-74035000D02*
X105450000Y-72910000D01*
X94000000Y-72860000D02*
X95175000Y-74035000D01*
%TO.N,Net-(U1-I1)*%
X94000000Y-67780000D02*
X95175000Y-68955000D01*
%TO.N,GND*%
X104325000Y-79115000D02*
X105450000Y-77990000D01*
X95175000Y-79115000D02*
X104325000Y-79115000D01*
%TO.N,Net-(U1-S0)*%
X95175000Y-74035000D02*
X104325000Y-74035000D01*
%TO.N,Net-(U1-I1)*%
X95175000Y-68955000D02*
X104325000Y-68955000D01*
%TO.N,GND*%
X94000000Y-77940000D02*
X95175000Y-79115000D01*
%TO.N,Net-(U1-I1)*%
X104325000Y-68955000D02*
X105450000Y-67830000D01*
%TO.N,Net-(U1-S1)*%
X104325000Y-76575000D02*
X105450000Y-75450000D01*
%TO.N,Net-(U1-I0)*%
X95175000Y-71495000D02*
X104325000Y-71495000D01*
%TO.N,Net-(U1-S1)*%
X94000000Y-75400000D02*
X95175000Y-76575000D01*
%TO.N,Net-(U1-I0)*%
X104325000Y-71495000D02*
X105450000Y-70370000D01*
X94000000Y-70320000D02*
X95175000Y-71495000D01*
%TO.N,Net-(U1-S1)*%
X95175000Y-76575000D02*
X104325000Y-76575000D01*
%TO.N,Net-(U1-I5)*%
X95175000Y-58795000D02*
X104325000Y-58795000D01*
%TO.N,Net-(U1-COM)*%
X95465000Y-51465000D02*
X104035000Y-51465000D01*
X94000000Y-50000000D02*
X95465000Y-51465000D01*
X104035000Y-51465000D02*
X105450000Y-50050000D01*
%TO.N,Net-(U1-I4)*%
X104085000Y-61575000D02*
X105450000Y-60210000D01*
%TO.N,Net-(U1-I2)*%
X104325000Y-66415000D02*
X105450000Y-65290000D01*
%TO.N,Net-(U1-I7)*%
X95415000Y-53955000D02*
X104085000Y-53955000D01*
%TO.N,Net-(U1-I5)*%
X94000000Y-57620000D02*
X95175000Y-58795000D01*
%TO.N,Net-(U1-I2)*%
X95175000Y-66415000D02*
X104325000Y-66415000D01*
%TO.N,Net-(U1-I5)*%
X104325000Y-58795000D02*
X105450000Y-57670000D01*
%TO.N,Net-(U1-I4)*%
X94000000Y-60160000D02*
X95415000Y-61575000D01*
%TO.N,Net-(U1-I7)*%
X94000000Y-52540000D02*
X95415000Y-53955000D01*
X104085000Y-53955000D02*
X105450000Y-52590000D01*
%TO.N,Net-(U1-I2)*%
X94000000Y-65240000D02*
X95175000Y-66415000D01*
%TO.N,Net-(U1-I4)*%
X95415000Y-61575000D02*
X104085000Y-61575000D01*
%TO.N,Net-(U1-I3)*%
X94000000Y-62700000D02*
X95415000Y-64115000D01*
X104085000Y-64115000D02*
X105450000Y-62750000D01*
X95415000Y-64115000D02*
X104085000Y-64115000D01*
%TO.N,Net-(U1-I6)*%
X94000000Y-55080000D02*
X95415000Y-56495000D01*
X104085000Y-56495000D02*
X105450000Y-55130000D01*
X95415000Y-56495000D02*
X104085000Y-56495000D01*
%TO.N,Net-(U1-S0)*%
X82325000Y-74035000D02*
X83450000Y-72910000D01*
X72000000Y-72860000D02*
X73175000Y-74035000D01*
%TO.N,Net-(U1-I1)*%
X72000000Y-67780000D02*
X73175000Y-68955000D01*
%TO.N,GND*%
X82325000Y-79115000D02*
X83450000Y-77990000D01*
X73175000Y-79115000D02*
X82325000Y-79115000D01*
%TO.N,Net-(U1-S0)*%
X73175000Y-74035000D02*
X82325000Y-74035000D01*
%TO.N,Net-(U1-I1)*%
X73175000Y-68955000D02*
X82325000Y-68955000D01*
%TO.N,GND*%
X72000000Y-77940000D02*
X73175000Y-79115000D01*
%TO.N,Net-(U1-I1)*%
X82325000Y-68955000D02*
X83450000Y-67830000D01*
%TO.N,Net-(U1-S1)*%
X82325000Y-76575000D02*
X83450000Y-75450000D01*
%TO.N,Net-(U1-I0)*%
X73175000Y-71495000D02*
X82325000Y-71495000D01*
%TO.N,Net-(U1-S1)*%
X72000000Y-75400000D02*
X73175000Y-76575000D01*
%TO.N,Net-(U1-I0)*%
X82325000Y-71495000D02*
X83450000Y-70370000D01*
X72000000Y-70320000D02*
X73175000Y-71495000D01*
%TO.N,Net-(U1-S1)*%
X73175000Y-76575000D02*
X82325000Y-76575000D01*
%TO.N,Net-(U1-I5)*%
X73175000Y-58795000D02*
X82325000Y-58795000D01*
%TO.N,Net-(U1-COM)*%
X73465000Y-51465000D02*
X82035000Y-51465000D01*
X72000000Y-50000000D02*
X73465000Y-51465000D01*
X82035000Y-51465000D02*
X83450000Y-50050000D01*
%TO.N,Net-(U1-I4)*%
X82085000Y-61575000D02*
X83450000Y-60210000D01*
%TO.N,Net-(U1-I2)*%
X82325000Y-66415000D02*
X83450000Y-65290000D01*
%TO.N,Net-(U1-I7)*%
X73415000Y-53955000D02*
X82085000Y-53955000D01*
%TO.N,Net-(U1-I5)*%
X72000000Y-57620000D02*
X73175000Y-58795000D01*
%TO.N,Net-(U1-I2)*%
X73175000Y-66415000D02*
X82325000Y-66415000D01*
%TO.N,Net-(U1-I5)*%
X82325000Y-58795000D02*
X83450000Y-57670000D01*
%TO.N,Net-(U1-I4)*%
X72000000Y-60160000D02*
X73415000Y-61575000D01*
%TO.N,Net-(U1-I7)*%
X72000000Y-52540000D02*
X73415000Y-53955000D01*
X82085000Y-53955000D02*
X83450000Y-52590000D01*
%TO.N,Net-(U1-I2)*%
X72000000Y-65240000D02*
X73175000Y-66415000D01*
%TO.N,Net-(U1-I4)*%
X73415000Y-61575000D02*
X82085000Y-61575000D01*
%TO.N,Net-(U1-I3)*%
X72000000Y-62700000D02*
X73415000Y-64115000D01*
X82085000Y-64115000D02*
X83450000Y-62750000D01*
X73415000Y-64115000D02*
X82085000Y-64115000D01*
%TO.N,Net-(U1-I6)*%
X72000000Y-55080000D02*
X73415000Y-56495000D01*
X82085000Y-56495000D02*
X83450000Y-55130000D01*
X73415000Y-56495000D02*
X82085000Y-56495000D01*
%TO.N,GND*%
X60325000Y-79115000D02*
X61450000Y-77990000D01*
X51175000Y-79115000D02*
X60325000Y-79115000D01*
X50000000Y-77940000D02*
X51175000Y-79115000D01*
%TO.N,Net-(U1-S1)*%
X60325000Y-76575000D02*
X61450000Y-75450000D01*
X51175000Y-76575000D02*
X60325000Y-76575000D01*
X50000000Y-75400000D02*
X51175000Y-76575000D01*
%TO.N,Net-(U1-S0)*%
X60325000Y-74035000D02*
X61450000Y-72910000D01*
X50000000Y-72860000D02*
X51175000Y-74035000D01*
X51175000Y-74035000D02*
X60325000Y-74035000D01*
%TO.N,Net-(U1-I0)*%
X60325000Y-71495000D02*
X61450000Y-70370000D01*
X51175000Y-71495000D02*
X60325000Y-71495000D01*
X50000000Y-70320000D02*
X51175000Y-71495000D01*
%TO.N,Net-(U1-I1)*%
X60325000Y-68955000D02*
X61450000Y-67830000D01*
X51175000Y-68955000D02*
X60325000Y-68955000D01*
X50000000Y-67780000D02*
X51175000Y-68955000D01*
%TO.N,Net-(U1-I2)*%
X60325000Y-66415000D02*
X61450000Y-65290000D01*
X51175000Y-66415000D02*
X60325000Y-66415000D01*
X50000000Y-65240000D02*
X51175000Y-66415000D01*
%TO.N,Net-(U1-I3)*%
X51415000Y-64115000D02*
X60085000Y-64115000D01*
X60085000Y-64115000D02*
X61450000Y-62750000D01*
X50000000Y-62700000D02*
X51415000Y-64115000D01*
%TO.N,Net-(U1-I4)*%
X60085000Y-61575000D02*
X61450000Y-60210000D01*
X51415000Y-61575000D02*
X60085000Y-61575000D01*
X50000000Y-60160000D02*
X51415000Y-61575000D01*
%TO.N,Net-(U1-I5)*%
X51175000Y-58795000D02*
X60325000Y-58795000D01*
X50000000Y-57620000D02*
X51175000Y-58795000D01*
X60325000Y-58795000D02*
X61450000Y-57670000D01*
%TO.N,Net-(U1-I6)*%
X51415000Y-56495000D02*
X60085000Y-56495000D01*
X60085000Y-56495000D02*
X61450000Y-55130000D01*
X50000000Y-55080000D02*
X51415000Y-56495000D01*
%TO.N,Net-(U1-I7)*%
X51415000Y-53955000D02*
X60085000Y-53955000D01*
X50000000Y-52540000D02*
X51415000Y-53955000D01*
X60085000Y-53955000D02*
X61450000Y-52590000D01*
%TO.N,Net-(U1-COM)*%
X51465000Y-51465000D02*
X60035000Y-51465000D01*
X50000000Y-50000000D02*
X51465000Y-51465000D01*
X60035000Y-51465000D02*
X61450000Y-50050000D01*
%TD*%
%TA.AperFunction,Conductor*%
%TO.N,GND*%
G36*
X65241667Y-48465897D02*
G01*
X65266336Y-48452931D01*
X65290768Y-48450500D01*
X87189232Y-48450500D01*
X87241667Y-48465897D01*
X87266336Y-48452931D01*
X87290768Y-48450500D01*
X109189232Y-48450500D01*
X109241667Y-48465897D01*
X109266336Y-48452931D01*
X109290768Y-48450500D01*
X110265500Y-48450500D01*
X110332539Y-48470185D01*
X110378294Y-48522989D01*
X110389500Y-48574500D01*
X110389500Y-49010951D01*
X110369815Y-49077990D01*
X110317011Y-49123745D01*
X110247853Y-49133689D01*
X110184297Y-49104664D01*
X110177819Y-49098632D01*
X110079141Y-48999954D01*
X109892734Y-48869432D01*
X109892732Y-48869431D01*
X109686497Y-48773261D01*
X109686488Y-48773258D01*
X109466697Y-48714366D01*
X109466693Y-48714365D01*
X109466692Y-48714365D01*
X109466691Y-48714364D01*
X109466686Y-48714364D01*
X109279961Y-48698028D01*
X109240875Y-48682739D01*
X109224167Y-48693477D01*
X109200039Y-48698028D01*
X109013313Y-48714364D01*
X109013302Y-48714366D01*
X108793511Y-48773258D01*
X108793502Y-48773261D01*
X108587267Y-48869431D01*
X108587265Y-48869432D01*
X108400858Y-48999954D01*
X108239954Y-49160858D01*
X108109432Y-49347265D01*
X108109431Y-49347267D01*
X108013261Y-49553502D01*
X108013258Y-49553511D01*
X107954366Y-49773302D01*
X107954364Y-49773313D01*
X107934532Y-49999998D01*
X107934532Y-50000001D01*
X107954364Y-50226686D01*
X107954366Y-50226697D01*
X108013258Y-50446488D01*
X108013261Y-50446497D01*
X108109431Y-50652732D01*
X108109432Y-50652734D01*
X108239954Y-50839141D01*
X108400858Y-51000045D01*
X108400861Y-51000047D01*
X108587266Y-51130568D01*
X108645275Y-51157618D01*
X108697714Y-51203791D01*
X108716866Y-51270984D01*
X108696650Y-51337865D01*
X108645275Y-51382382D01*
X108587267Y-51409431D01*
X108587265Y-51409432D01*
X108400858Y-51539954D01*
X108239954Y-51700858D01*
X108109432Y-51887265D01*
X108109431Y-51887267D01*
X108013261Y-52093502D01*
X108013258Y-52093511D01*
X107954366Y-52313302D01*
X107954364Y-52313313D01*
X107934532Y-52539998D01*
X107934532Y-52540001D01*
X107954364Y-52766686D01*
X107954366Y-52766697D01*
X108013258Y-52986488D01*
X108013261Y-52986497D01*
X108109431Y-53192732D01*
X108109432Y-53192734D01*
X108239954Y-53379141D01*
X108400858Y-53540045D01*
X108400861Y-53540047D01*
X108587266Y-53670568D01*
X108645275Y-53697618D01*
X108697714Y-53743791D01*
X108716866Y-53810984D01*
X108696650Y-53877865D01*
X108645275Y-53922381D01*
X108628272Y-53930310D01*
X108587267Y-53949431D01*
X108587265Y-53949432D01*
X108400858Y-54079954D01*
X108239954Y-54240858D01*
X108109432Y-54427265D01*
X108109431Y-54427267D01*
X108013261Y-54633502D01*
X108013258Y-54633511D01*
X107954366Y-54853302D01*
X107954364Y-54853313D01*
X107934532Y-55079998D01*
X107934532Y-55080001D01*
X107954364Y-55306686D01*
X107954366Y-55306697D01*
X108013258Y-55526488D01*
X108013261Y-55526497D01*
X108109431Y-55732732D01*
X108109432Y-55732734D01*
X108239954Y-55919141D01*
X108400858Y-56080045D01*
X108400861Y-56080047D01*
X108587266Y-56210568D01*
X108645275Y-56237618D01*
X108697714Y-56283791D01*
X108716866Y-56350984D01*
X108696650Y-56417865D01*
X108645275Y-56462381D01*
X108628272Y-56470310D01*
X108587267Y-56489431D01*
X108587265Y-56489432D01*
X108400858Y-56619954D01*
X108239954Y-56780858D01*
X108109432Y-56967265D01*
X108109431Y-56967267D01*
X108013261Y-57173502D01*
X108013258Y-57173511D01*
X107954366Y-57393302D01*
X107954364Y-57393313D01*
X107934532Y-57619998D01*
X107934532Y-57620001D01*
X107954364Y-57846686D01*
X107954366Y-57846697D01*
X108013258Y-58066488D01*
X108013261Y-58066497D01*
X108109431Y-58272732D01*
X108109432Y-58272734D01*
X108239954Y-58459141D01*
X108400858Y-58620045D01*
X108400861Y-58620047D01*
X108587266Y-58750568D01*
X108645275Y-58777618D01*
X108697714Y-58823791D01*
X108716866Y-58890984D01*
X108696650Y-58957865D01*
X108645275Y-59002381D01*
X108628272Y-59010310D01*
X108587267Y-59029431D01*
X108587265Y-59029432D01*
X108400858Y-59159954D01*
X108239954Y-59320858D01*
X108109432Y-59507265D01*
X108109431Y-59507267D01*
X108013261Y-59713502D01*
X108013258Y-59713511D01*
X107954366Y-59933302D01*
X107954364Y-59933313D01*
X107934532Y-60159998D01*
X107934532Y-60160001D01*
X107954364Y-60386686D01*
X107954366Y-60386697D01*
X108013258Y-60606488D01*
X108013261Y-60606497D01*
X108109431Y-60812732D01*
X108109432Y-60812734D01*
X108239954Y-60999141D01*
X108400858Y-61160045D01*
X108400861Y-61160047D01*
X108587266Y-61290568D01*
X108645275Y-61317618D01*
X108697714Y-61363791D01*
X108716866Y-61430984D01*
X108696650Y-61497865D01*
X108645275Y-61542381D01*
X108628272Y-61550310D01*
X108587267Y-61569431D01*
X108587265Y-61569432D01*
X108400858Y-61699954D01*
X108239954Y-61860858D01*
X108109432Y-62047265D01*
X108109431Y-62047267D01*
X108013261Y-62253502D01*
X108013258Y-62253511D01*
X107954366Y-62473302D01*
X107954364Y-62473313D01*
X107934532Y-62699998D01*
X107934532Y-62700001D01*
X107954364Y-62926686D01*
X107954366Y-62926697D01*
X108013258Y-63146488D01*
X108013261Y-63146497D01*
X108109431Y-63352732D01*
X108109432Y-63352734D01*
X108239954Y-63539141D01*
X108400858Y-63700045D01*
X108400861Y-63700047D01*
X108587266Y-63830568D01*
X108645275Y-63857618D01*
X108697714Y-63903791D01*
X108716866Y-63970984D01*
X108696650Y-64037865D01*
X108645275Y-64082381D01*
X108628272Y-64090310D01*
X108587267Y-64109431D01*
X108587265Y-64109432D01*
X108400858Y-64239954D01*
X108239954Y-64400858D01*
X108109432Y-64587265D01*
X108109431Y-64587267D01*
X108013261Y-64793502D01*
X108013258Y-64793511D01*
X107954366Y-65013302D01*
X107954364Y-65013313D01*
X107934532Y-65239998D01*
X107934532Y-65240001D01*
X107954364Y-65466686D01*
X107954366Y-65466697D01*
X108013258Y-65686488D01*
X108013261Y-65686497D01*
X108109431Y-65892732D01*
X108109432Y-65892734D01*
X108239954Y-66079141D01*
X108400858Y-66240045D01*
X108400861Y-66240047D01*
X108587266Y-66370568D01*
X108645275Y-66397618D01*
X108697714Y-66443791D01*
X108716866Y-66510984D01*
X108696650Y-66577865D01*
X108645275Y-66622381D01*
X108628272Y-66630310D01*
X108587267Y-66649431D01*
X108587265Y-66649432D01*
X108400858Y-66779954D01*
X108239954Y-66940858D01*
X108109432Y-67127265D01*
X108109431Y-67127267D01*
X108013261Y-67333502D01*
X108013258Y-67333511D01*
X107954366Y-67553302D01*
X107954364Y-67553313D01*
X107934532Y-67779998D01*
X107934532Y-67780001D01*
X107954364Y-68006686D01*
X107954366Y-68006697D01*
X108013258Y-68226488D01*
X108013261Y-68226497D01*
X108109431Y-68432732D01*
X108109432Y-68432734D01*
X108239954Y-68619141D01*
X108400858Y-68780045D01*
X108400861Y-68780047D01*
X108587266Y-68910568D01*
X108645275Y-68937618D01*
X108697714Y-68983791D01*
X108716866Y-69050984D01*
X108696650Y-69117865D01*
X108645275Y-69162381D01*
X108628272Y-69170310D01*
X108587267Y-69189431D01*
X108587265Y-69189432D01*
X108400858Y-69319954D01*
X108239954Y-69480858D01*
X108109432Y-69667265D01*
X108109431Y-69667267D01*
X108013261Y-69873502D01*
X108013258Y-69873511D01*
X107954366Y-70093302D01*
X107954364Y-70093313D01*
X107934532Y-70319998D01*
X107934532Y-70320001D01*
X107954364Y-70546686D01*
X107954366Y-70546697D01*
X108013258Y-70766488D01*
X108013261Y-70766497D01*
X108109431Y-70972732D01*
X108109432Y-70972734D01*
X108239954Y-71159141D01*
X108400858Y-71320045D01*
X108400861Y-71320047D01*
X108587266Y-71450568D01*
X108645275Y-71477618D01*
X108697714Y-71523791D01*
X108716866Y-71590984D01*
X108696650Y-71657865D01*
X108645275Y-71702381D01*
X108628272Y-71710310D01*
X108587267Y-71729431D01*
X108587265Y-71729432D01*
X108400858Y-71859954D01*
X108239954Y-72020858D01*
X108109432Y-72207265D01*
X108109431Y-72207267D01*
X108013261Y-72413502D01*
X108013258Y-72413511D01*
X107954366Y-72633302D01*
X107954364Y-72633313D01*
X107934532Y-72859998D01*
X107934532Y-72860001D01*
X107954364Y-73086686D01*
X107954366Y-73086697D01*
X108013258Y-73306488D01*
X108013261Y-73306497D01*
X108109431Y-73512732D01*
X108109432Y-73512734D01*
X108239954Y-73699141D01*
X108400858Y-73860045D01*
X108400861Y-73860047D01*
X108587266Y-73990568D01*
X108645275Y-74017618D01*
X108697714Y-74063791D01*
X108716866Y-74130984D01*
X108696650Y-74197865D01*
X108645275Y-74242381D01*
X108628272Y-74250310D01*
X108587267Y-74269431D01*
X108587265Y-74269432D01*
X108400858Y-74399954D01*
X108239954Y-74560858D01*
X108109432Y-74747265D01*
X108109431Y-74747267D01*
X108013261Y-74953502D01*
X108013258Y-74953511D01*
X107954366Y-75173302D01*
X107954364Y-75173313D01*
X107934532Y-75399998D01*
X107934532Y-75400001D01*
X107954364Y-75626686D01*
X107954366Y-75626697D01*
X108013258Y-75846488D01*
X108013261Y-75846497D01*
X108109431Y-76052732D01*
X108109432Y-76052734D01*
X108239954Y-76239141D01*
X108400858Y-76400045D01*
X108400861Y-76400047D01*
X108587266Y-76530568D01*
X108645275Y-76557618D01*
X108697714Y-76603791D01*
X108716866Y-76670984D01*
X108696650Y-76737865D01*
X108645275Y-76782382D01*
X108587267Y-76809431D01*
X108587265Y-76809432D01*
X108400858Y-76939954D01*
X108239954Y-77100858D01*
X108109432Y-77287265D01*
X108109431Y-77287267D01*
X108013261Y-77493502D01*
X108013258Y-77493511D01*
X107954366Y-77713302D01*
X107954364Y-77713313D01*
X107934532Y-77939998D01*
X107934532Y-77940001D01*
X107954364Y-78166686D01*
X107954366Y-78166697D01*
X108013258Y-78386488D01*
X108013261Y-78386497D01*
X108109431Y-78592732D01*
X108109432Y-78592734D01*
X108239954Y-78779141D01*
X108400858Y-78940045D01*
X108400861Y-78940047D01*
X108587266Y-79070568D01*
X108793504Y-79166739D01*
X109013308Y-79225635D01*
X109175230Y-79239801D01*
X109239998Y-79245468D01*
X109240000Y-79245468D01*
X109240002Y-79245468D01*
X109296673Y-79240509D01*
X109466692Y-79225635D01*
X109686496Y-79166739D01*
X109892734Y-79070568D01*
X110079139Y-78940047D01*
X110111346Y-78907840D01*
X110177819Y-78841368D01*
X110239142Y-78807883D01*
X110308834Y-78812867D01*
X110364767Y-78854739D01*
X110389184Y-78920203D01*
X110389500Y-78929049D01*
X110389500Y-79465500D01*
X110369815Y-79532539D01*
X110317011Y-79578294D01*
X110265500Y-79589500D01*
X48954000Y-79589500D01*
X48886961Y-79569815D01*
X48841206Y-79517011D01*
X48830000Y-79465500D01*
X48830000Y-78907840D01*
X48849685Y-78840801D01*
X48902489Y-78795046D01*
X48971647Y-78785102D01*
X49035203Y-78814127D01*
X49041681Y-78820159D01*
X49161179Y-78939657D01*
X49347517Y-79070134D01*
X49553673Y-79166265D01*
X49553682Y-79166269D01*
X49749999Y-79218872D01*
X49750000Y-79218871D01*
X49750000Y-78255686D01*
X49761955Y-78267641D01*
X49874852Y-78325165D01*
X49968519Y-78340000D01*
X50031481Y-78340000D01*
X50125148Y-78325165D01*
X50238045Y-78267641D01*
X50250000Y-78255686D01*
X50250000Y-79218872D01*
X50446317Y-79166269D01*
X50446326Y-79166265D01*
X50652482Y-79070134D01*
X50838820Y-78939657D01*
X50999657Y-78778820D01*
X51130134Y-78592482D01*
X51226265Y-78386326D01*
X51226269Y-78386317D01*
X51278872Y-78190000D01*
X50315686Y-78190000D01*
X50327641Y-78178045D01*
X50385165Y-78065148D01*
X50404986Y-77940000D01*
X50385165Y-77814852D01*
X50327641Y-77701955D01*
X50315686Y-77690000D01*
X51278872Y-77690000D01*
X51278872Y-77689999D01*
X51226269Y-77493682D01*
X51226265Y-77493673D01*
X51171816Y-77376905D01*
X51161324Y-77307827D01*
X51189844Y-77244043D01*
X51248320Y-77205804D01*
X51284198Y-77200500D01*
X52568566Y-77200500D01*
X52635605Y-77220185D01*
X52681360Y-77272989D01*
X52691304Y-77342147D01*
X52680948Y-77376904D01*
X52626577Y-77493504D01*
X52603262Y-77543502D01*
X52603258Y-77543511D01*
X52544366Y-77763302D01*
X52544364Y-77763313D01*
X52524532Y-77989998D01*
X52524532Y-77990001D01*
X52544364Y-78216686D01*
X52544366Y-78216697D01*
X52603258Y-78436488D01*
X52603261Y-78436497D01*
X52699431Y-78642732D01*
X52699432Y-78642734D01*
X52829954Y-78829141D01*
X52990858Y-78990045D01*
X52990861Y-78990047D01*
X53177266Y-79120568D01*
X53383504Y-79216739D01*
X53383509Y-79216740D01*
X53383511Y-79216741D01*
X53416697Y-79225633D01*
X53603308Y-79275635D01*
X53765230Y-79289801D01*
X53829998Y-79295468D01*
X53830000Y-79295468D01*
X53830002Y-79295468D01*
X53886673Y-79290509D01*
X54056692Y-79275635D01*
X54276496Y-79216739D01*
X54482734Y-79120568D01*
X54669139Y-78990047D01*
X54830047Y-78829139D01*
X54960568Y-78642734D01*
X55056739Y-78436496D01*
X55115635Y-78216692D01*
X55135468Y-77990000D01*
X55115635Y-77763308D01*
X55056739Y-77543504D01*
X54979051Y-77376904D01*
X54968560Y-77307827D01*
X54997080Y-77244043D01*
X55055556Y-77205804D01*
X55091434Y-77200500D01*
X60189117Y-77200500D01*
X60256156Y-77220185D01*
X60301911Y-77272989D01*
X60311855Y-77342147D01*
X60301499Y-77376905D01*
X60223734Y-77543673D01*
X60223730Y-77543682D01*
X60171127Y-77739999D01*
X60171128Y-77740000D01*
X61134314Y-77740000D01*
X61122359Y-77751955D01*
X61064835Y-77864852D01*
X61045014Y-77990000D01*
X61064835Y-78115148D01*
X61122359Y-78228045D01*
X61134314Y-78240000D01*
X60171128Y-78240000D01*
X60223730Y-78436317D01*
X60223734Y-78436326D01*
X60319865Y-78642482D01*
X60450342Y-78828820D01*
X60611179Y-78989657D01*
X60797517Y-79120134D01*
X61003673Y-79216265D01*
X61003682Y-79216269D01*
X61199999Y-79268872D01*
X61200000Y-79268871D01*
X61200000Y-78305686D01*
X61211955Y-78317641D01*
X61324852Y-78375165D01*
X61418519Y-78390000D01*
X61481481Y-78390000D01*
X61575148Y-78375165D01*
X61688045Y-78317641D01*
X61700000Y-78305686D01*
X61700000Y-79268872D01*
X61896317Y-79216269D01*
X61896326Y-79216265D01*
X62102482Y-79120134D01*
X62288820Y-78989657D01*
X62449657Y-78828820D01*
X62580134Y-78642482D01*
X62676265Y-78436326D01*
X62676269Y-78436317D01*
X62728872Y-78240000D01*
X61765686Y-78240000D01*
X61777641Y-78228045D01*
X61835165Y-78115148D01*
X61854986Y-77990000D01*
X61847067Y-77940001D01*
X63934532Y-77940001D01*
X63954364Y-78166686D01*
X63954366Y-78166697D01*
X64013258Y-78386488D01*
X64013261Y-78386497D01*
X64109431Y-78592732D01*
X64109432Y-78592734D01*
X64239954Y-78779141D01*
X64400858Y-78940045D01*
X64400861Y-78940047D01*
X64587266Y-79070568D01*
X64793504Y-79166739D01*
X65013308Y-79225635D01*
X65175230Y-79239801D01*
X65239998Y-79245468D01*
X65240000Y-79245468D01*
X65240002Y-79245468D01*
X65296673Y-79240509D01*
X65466692Y-79225635D01*
X65686496Y-79166739D01*
X65892734Y-79070568D01*
X66079139Y-78940047D01*
X66240047Y-78779139D01*
X66370568Y-78592734D01*
X66466739Y-78386496D01*
X66525635Y-78166692D01*
X66545468Y-77940000D01*
X66525635Y-77713308D01*
X66466739Y-77493504D01*
X66370568Y-77287266D01*
X66240047Y-77100861D01*
X66240045Y-77100858D01*
X66079141Y-76939954D01*
X65892734Y-76809432D01*
X65892728Y-76809429D01*
X65834725Y-76782382D01*
X65782285Y-76736210D01*
X65763133Y-76669017D01*
X65783348Y-76602135D01*
X65834725Y-76557618D01*
X65892734Y-76530568D01*
X66079139Y-76400047D01*
X66240047Y-76239139D01*
X66370568Y-76052734D01*
X66466739Y-75846496D01*
X66525635Y-75626692D01*
X66545468Y-75400001D01*
X70694532Y-75400001D01*
X70714364Y-75626686D01*
X70714366Y-75626697D01*
X70773258Y-75846488D01*
X70773261Y-75846497D01*
X70869431Y-76052732D01*
X70869432Y-76052734D01*
X70999954Y-76239141D01*
X71160858Y-76400045D01*
X71160861Y-76400047D01*
X71347266Y-76530568D01*
X71405865Y-76557893D01*
X71458305Y-76604065D01*
X71477457Y-76671258D01*
X71457242Y-76738139D01*
X71405867Y-76782657D01*
X71347515Y-76809867D01*
X71161179Y-76940342D01*
X71000342Y-77101179D01*
X70869865Y-77287517D01*
X70773734Y-77493673D01*
X70773730Y-77493682D01*
X70721127Y-77689999D01*
X70721128Y-77690000D01*
X71684314Y-77690000D01*
X71672359Y-77701955D01*
X71614835Y-77814852D01*
X71595014Y-77940000D01*
X71614835Y-78065148D01*
X71672359Y-78178045D01*
X71684314Y-78190000D01*
X70721128Y-78190000D01*
X70773730Y-78386317D01*
X70773734Y-78386326D01*
X70869865Y-78592482D01*
X71000342Y-78778820D01*
X71161179Y-78939657D01*
X71347517Y-79070134D01*
X71553673Y-79166265D01*
X71553682Y-79166269D01*
X71749999Y-79218872D01*
X71750000Y-79218871D01*
X71750000Y-78255686D01*
X71761955Y-78267641D01*
X71874852Y-78325165D01*
X71968519Y-78340000D01*
X72031481Y-78340000D01*
X72125148Y-78325165D01*
X72238045Y-78267641D01*
X72250000Y-78255686D01*
X72250000Y-79218872D01*
X72446317Y-79166269D01*
X72446326Y-79166265D01*
X72652482Y-79070134D01*
X72838820Y-78939657D01*
X72999657Y-78778820D01*
X73130134Y-78592482D01*
X73226265Y-78386326D01*
X73226269Y-78386317D01*
X73278872Y-78190000D01*
X72315686Y-78190000D01*
X72327641Y-78178045D01*
X72385165Y-78065148D01*
X72404986Y-77940000D01*
X72385165Y-77814852D01*
X72327641Y-77701955D01*
X72315686Y-77690000D01*
X73278872Y-77690000D01*
X73278872Y-77689999D01*
X73226269Y-77493682D01*
X73226265Y-77493673D01*
X73171816Y-77376905D01*
X73161324Y-77307827D01*
X73189844Y-77244043D01*
X73248320Y-77205804D01*
X73284198Y-77200500D01*
X74568566Y-77200500D01*
X74635605Y-77220185D01*
X74681360Y-77272989D01*
X74691304Y-77342147D01*
X74680948Y-77376904D01*
X74626577Y-77493504D01*
X74603262Y-77543502D01*
X74603258Y-77543511D01*
X74544366Y-77763302D01*
X74544364Y-77763313D01*
X74524532Y-77989998D01*
X74524532Y-77990001D01*
X74544364Y-78216686D01*
X74544366Y-78216697D01*
X74603258Y-78436488D01*
X74603261Y-78436497D01*
X74699431Y-78642732D01*
X74699432Y-78642734D01*
X74829954Y-78829141D01*
X74990858Y-78990045D01*
X74990861Y-78990047D01*
X75177266Y-79120568D01*
X75383504Y-79216739D01*
X75383509Y-79216740D01*
X75383511Y-79216741D01*
X75416697Y-79225633D01*
X75603308Y-79275635D01*
X75765230Y-79289801D01*
X75829998Y-79295468D01*
X75830000Y-79295468D01*
X75830002Y-79295468D01*
X75886673Y-79290509D01*
X76056692Y-79275635D01*
X76276496Y-79216739D01*
X76482734Y-79120568D01*
X76669139Y-78990047D01*
X76830047Y-78829139D01*
X76960568Y-78642734D01*
X77056739Y-78436496D01*
X77115635Y-78216692D01*
X77135468Y-77990000D01*
X77115635Y-77763308D01*
X77056739Y-77543504D01*
X76979051Y-77376904D01*
X76968560Y-77307827D01*
X76997080Y-77244043D01*
X77055556Y-77205804D01*
X77091434Y-77200500D01*
X82189117Y-77200500D01*
X82256156Y-77220185D01*
X82301911Y-77272989D01*
X82311855Y-77342147D01*
X82301499Y-77376905D01*
X82223734Y-77543673D01*
X82223730Y-77543682D01*
X82171127Y-77739999D01*
X82171128Y-77740000D01*
X83134314Y-77740000D01*
X83122359Y-77751955D01*
X83064835Y-77864852D01*
X83045014Y-77990000D01*
X83064835Y-78115148D01*
X83122359Y-78228045D01*
X83134314Y-78240000D01*
X82171128Y-78240000D01*
X82223730Y-78436317D01*
X82223734Y-78436326D01*
X82319865Y-78642482D01*
X82450342Y-78828820D01*
X82611179Y-78989657D01*
X82797517Y-79120134D01*
X83003673Y-79216265D01*
X83003682Y-79216269D01*
X83199999Y-79268872D01*
X83200000Y-79268871D01*
X83200000Y-78305686D01*
X83211955Y-78317641D01*
X83324852Y-78375165D01*
X83418519Y-78390000D01*
X83481481Y-78390000D01*
X83575148Y-78375165D01*
X83688045Y-78317641D01*
X83700000Y-78305686D01*
X83700000Y-79268872D01*
X83896317Y-79216269D01*
X83896326Y-79216265D01*
X84102482Y-79120134D01*
X84288820Y-78989657D01*
X84449657Y-78828820D01*
X84580134Y-78642482D01*
X84676265Y-78436326D01*
X84676269Y-78436317D01*
X84728872Y-78240000D01*
X83765686Y-78240000D01*
X83777641Y-78228045D01*
X83835165Y-78115148D01*
X83854986Y-77990000D01*
X83847067Y-77940001D01*
X85934532Y-77940001D01*
X85954364Y-78166686D01*
X85954366Y-78166697D01*
X86013258Y-78386488D01*
X86013261Y-78386497D01*
X86109431Y-78592732D01*
X86109432Y-78592734D01*
X86239954Y-78779141D01*
X86400858Y-78940045D01*
X86400861Y-78940047D01*
X86587266Y-79070568D01*
X86793504Y-79166739D01*
X87013308Y-79225635D01*
X87175230Y-79239801D01*
X87239998Y-79245468D01*
X87240000Y-79245468D01*
X87240002Y-79245468D01*
X87296673Y-79240509D01*
X87466692Y-79225635D01*
X87686496Y-79166739D01*
X87892734Y-79070568D01*
X88079139Y-78940047D01*
X88240047Y-78779139D01*
X88370568Y-78592734D01*
X88466739Y-78386496D01*
X88525635Y-78166692D01*
X88545468Y-77940000D01*
X88525635Y-77713308D01*
X88466739Y-77493504D01*
X88370568Y-77287266D01*
X88240047Y-77100861D01*
X88240045Y-77100858D01*
X88079141Y-76939954D01*
X87892734Y-76809432D01*
X87892728Y-76809429D01*
X87834725Y-76782382D01*
X87782285Y-76736210D01*
X87763133Y-76669017D01*
X87783348Y-76602135D01*
X87834725Y-76557618D01*
X87892734Y-76530568D01*
X88079139Y-76400047D01*
X88240047Y-76239139D01*
X88370568Y-76052734D01*
X88466739Y-75846496D01*
X88525635Y-75626692D01*
X88545468Y-75400001D01*
X92694532Y-75400001D01*
X92714364Y-75626686D01*
X92714366Y-75626697D01*
X92773258Y-75846488D01*
X92773261Y-75846497D01*
X92869431Y-76052732D01*
X92869432Y-76052734D01*
X92999954Y-76239141D01*
X93160858Y-76400045D01*
X93160861Y-76400047D01*
X93347266Y-76530568D01*
X93405865Y-76557893D01*
X93458305Y-76604065D01*
X93477457Y-76671258D01*
X93457242Y-76738139D01*
X93405867Y-76782657D01*
X93347515Y-76809867D01*
X93161179Y-76940342D01*
X93000342Y-77101179D01*
X92869865Y-77287517D01*
X92773734Y-77493673D01*
X92773730Y-77493682D01*
X92721127Y-77689999D01*
X92721128Y-77690000D01*
X93684314Y-77690000D01*
X93672359Y-77701955D01*
X93614835Y-77814852D01*
X93595014Y-77940000D01*
X93614835Y-78065148D01*
X93672359Y-78178045D01*
X93684314Y-78190000D01*
X92721128Y-78190000D01*
X92773730Y-78386317D01*
X92773734Y-78386326D01*
X92869865Y-78592482D01*
X93000342Y-78778820D01*
X93161179Y-78939657D01*
X93347517Y-79070134D01*
X93553673Y-79166265D01*
X93553682Y-79166269D01*
X93749999Y-79218872D01*
X93750000Y-79218871D01*
X93750000Y-78255686D01*
X93761955Y-78267641D01*
X93874852Y-78325165D01*
X93968519Y-78340000D01*
X94031481Y-78340000D01*
X94125148Y-78325165D01*
X94238045Y-78267641D01*
X94250000Y-78255686D01*
X94250000Y-79218872D01*
X94446317Y-79166269D01*
X94446326Y-79166265D01*
X94652482Y-79070134D01*
X94838820Y-78939657D01*
X94999657Y-78778820D01*
X95130134Y-78592482D01*
X95226265Y-78386326D01*
X95226269Y-78386317D01*
X95278872Y-78190000D01*
X94315686Y-78190000D01*
X94327641Y-78178045D01*
X94385165Y-78065148D01*
X94404986Y-77940000D01*
X94385165Y-77814852D01*
X94327641Y-77701955D01*
X94315686Y-77690000D01*
X95278872Y-77690000D01*
X95278872Y-77689999D01*
X95226269Y-77493682D01*
X95226265Y-77493673D01*
X95171816Y-77376905D01*
X95161324Y-77307827D01*
X95189844Y-77244043D01*
X95248320Y-77205804D01*
X95284198Y-77200500D01*
X96568566Y-77200500D01*
X96635605Y-77220185D01*
X96681360Y-77272989D01*
X96691304Y-77342147D01*
X96680948Y-77376904D01*
X96626577Y-77493504D01*
X96603262Y-77543502D01*
X96603258Y-77543511D01*
X96544366Y-77763302D01*
X96544364Y-77763313D01*
X96524532Y-77989998D01*
X96524532Y-77990001D01*
X96544364Y-78216686D01*
X96544366Y-78216697D01*
X96603258Y-78436488D01*
X96603261Y-78436497D01*
X96699431Y-78642732D01*
X96699432Y-78642734D01*
X96829954Y-78829141D01*
X96990858Y-78990045D01*
X96990861Y-78990047D01*
X97177266Y-79120568D01*
X97383504Y-79216739D01*
X97383509Y-79216740D01*
X97383511Y-79216741D01*
X97416697Y-79225633D01*
X97603308Y-79275635D01*
X97765230Y-79289801D01*
X97829998Y-79295468D01*
X97830000Y-79295468D01*
X97830002Y-79295468D01*
X97886673Y-79290509D01*
X98056692Y-79275635D01*
X98276496Y-79216739D01*
X98482734Y-79120568D01*
X98669139Y-78990047D01*
X98830047Y-78829139D01*
X98960568Y-78642734D01*
X99056739Y-78436496D01*
X99115635Y-78216692D01*
X99135468Y-77990000D01*
X99115635Y-77763308D01*
X99056739Y-77543504D01*
X98979051Y-77376904D01*
X98968560Y-77307827D01*
X98997080Y-77244043D01*
X99055556Y-77205804D01*
X99091434Y-77200500D01*
X104189117Y-77200500D01*
X104256156Y-77220185D01*
X104301911Y-77272989D01*
X104311855Y-77342147D01*
X104301499Y-77376905D01*
X104223734Y-77543673D01*
X104223730Y-77543682D01*
X104171127Y-77739999D01*
X104171128Y-77740000D01*
X105134314Y-77740000D01*
X105122359Y-77751955D01*
X105064835Y-77864852D01*
X105045014Y-77990000D01*
X105064835Y-78115148D01*
X105122359Y-78228045D01*
X105134314Y-78240000D01*
X104171128Y-78240000D01*
X104223730Y-78436317D01*
X104223734Y-78436326D01*
X104319865Y-78642482D01*
X104450342Y-78828820D01*
X104611179Y-78989657D01*
X104797517Y-79120134D01*
X105003673Y-79216265D01*
X105003682Y-79216269D01*
X105199999Y-79268872D01*
X105200000Y-79268871D01*
X105200000Y-78305686D01*
X105211955Y-78317641D01*
X105324852Y-78375165D01*
X105418519Y-78390000D01*
X105481481Y-78390000D01*
X105575148Y-78375165D01*
X105688045Y-78317641D01*
X105700000Y-78305686D01*
X105700000Y-79268872D01*
X105896317Y-79216269D01*
X105896326Y-79216265D01*
X106102482Y-79120134D01*
X106288820Y-78989657D01*
X106449657Y-78828820D01*
X106580134Y-78642482D01*
X106676265Y-78436326D01*
X106676269Y-78436317D01*
X106728872Y-78240000D01*
X105765686Y-78240000D01*
X105777641Y-78228045D01*
X105835165Y-78115148D01*
X105854986Y-77990000D01*
X105835165Y-77864852D01*
X105777641Y-77751955D01*
X105765686Y-77740000D01*
X106728872Y-77740000D01*
X106728872Y-77739999D01*
X106676269Y-77543682D01*
X106676265Y-77543673D01*
X106580134Y-77337517D01*
X106449657Y-77151179D01*
X106288820Y-76990342D01*
X106102482Y-76859865D01*
X106044133Y-76832657D01*
X105991694Y-76786484D01*
X105972542Y-76719291D01*
X105992758Y-76652410D01*
X106044129Y-76607895D01*
X106102734Y-76580568D01*
X106289139Y-76450047D01*
X106450047Y-76289139D01*
X106580568Y-76102734D01*
X106676739Y-75896496D01*
X106735635Y-75676692D01*
X106755468Y-75450000D01*
X106735635Y-75223308D01*
X106676739Y-75003504D01*
X106580568Y-74797266D01*
X106450047Y-74610861D01*
X106450045Y-74610858D01*
X106289141Y-74449954D01*
X106102734Y-74319432D01*
X106102728Y-74319429D01*
X106044725Y-74292382D01*
X105992285Y-74246210D01*
X105973133Y-74179017D01*
X105993348Y-74112135D01*
X106044725Y-74067618D01*
X106052932Y-74063791D01*
X106102734Y-74040568D01*
X106289139Y-73910047D01*
X106450047Y-73749139D01*
X106580568Y-73562734D01*
X106676739Y-73356496D01*
X106735635Y-73136692D01*
X106755468Y-72910000D01*
X106735635Y-72683308D01*
X106676739Y-72463504D01*
X106580568Y-72257266D01*
X106450047Y-72070861D01*
X106450045Y-72070858D01*
X106289141Y-71909954D01*
X106102734Y-71779432D01*
X106102728Y-71779429D01*
X106044725Y-71752382D01*
X105992285Y-71706210D01*
X105973133Y-71639017D01*
X105993348Y-71572135D01*
X106044725Y-71527618D01*
X106052932Y-71523791D01*
X106102734Y-71500568D01*
X106289139Y-71370047D01*
X106450047Y-71209139D01*
X106580568Y-71022734D01*
X106676739Y-70816496D01*
X106735635Y-70596692D01*
X106755468Y-70370000D01*
X106735635Y-70143308D01*
X106676739Y-69923504D01*
X106580568Y-69717266D01*
X106450047Y-69530861D01*
X106450045Y-69530858D01*
X106289141Y-69369954D01*
X106102734Y-69239432D01*
X106102728Y-69239429D01*
X106044725Y-69212382D01*
X105992285Y-69166210D01*
X105973133Y-69099017D01*
X105993348Y-69032135D01*
X106044725Y-68987618D01*
X106052932Y-68983791D01*
X106102734Y-68960568D01*
X106289139Y-68830047D01*
X106450047Y-68669139D01*
X106580568Y-68482734D01*
X106676739Y-68276496D01*
X106735635Y-68056692D01*
X106755468Y-67830000D01*
X106735635Y-67603308D01*
X106676739Y-67383504D01*
X106580568Y-67177266D01*
X106450047Y-66990861D01*
X106450045Y-66990858D01*
X106289141Y-66829954D01*
X106102734Y-66699432D01*
X106102728Y-66699429D01*
X106044725Y-66672382D01*
X105992285Y-66626210D01*
X105973133Y-66559017D01*
X105993348Y-66492135D01*
X106044725Y-66447618D01*
X106052932Y-66443791D01*
X106102734Y-66420568D01*
X106289139Y-66290047D01*
X106450047Y-66129139D01*
X106580568Y-65942734D01*
X106676739Y-65736496D01*
X106735635Y-65516692D01*
X106755468Y-65290000D01*
X106735635Y-65063308D01*
X106676739Y-64843504D01*
X106580568Y-64637266D01*
X106450047Y-64450861D01*
X106450045Y-64450858D01*
X106289141Y-64289954D01*
X106102734Y-64159432D01*
X106102728Y-64159429D01*
X106044725Y-64132382D01*
X105992285Y-64086210D01*
X105973133Y-64019017D01*
X105993348Y-63952135D01*
X106044725Y-63907618D01*
X106052932Y-63903791D01*
X106102734Y-63880568D01*
X106289139Y-63750047D01*
X106450047Y-63589139D01*
X106580568Y-63402734D01*
X106676739Y-63196496D01*
X106735635Y-62976692D01*
X106755468Y-62750000D01*
X106735635Y-62523308D01*
X106676739Y-62303504D01*
X106580568Y-62097266D01*
X106450047Y-61910861D01*
X106450045Y-61910858D01*
X106289141Y-61749954D01*
X106102734Y-61619432D01*
X106102728Y-61619429D01*
X106044725Y-61592382D01*
X105992285Y-61546210D01*
X105973133Y-61479017D01*
X105993348Y-61412135D01*
X106044725Y-61367618D01*
X106052932Y-61363791D01*
X106102734Y-61340568D01*
X106289139Y-61210047D01*
X106450047Y-61049139D01*
X106580568Y-60862734D01*
X106676739Y-60656496D01*
X106735635Y-60436692D01*
X106755468Y-60210000D01*
X106735635Y-59983308D01*
X106676739Y-59763504D01*
X106580568Y-59557266D01*
X106450047Y-59370861D01*
X106450045Y-59370858D01*
X106289141Y-59209954D01*
X106102734Y-59079432D01*
X106102728Y-59079429D01*
X106044725Y-59052382D01*
X105992285Y-59006210D01*
X105973133Y-58939017D01*
X105993348Y-58872135D01*
X106044725Y-58827618D01*
X106052932Y-58823791D01*
X106102734Y-58800568D01*
X106289139Y-58670047D01*
X106450047Y-58509139D01*
X106580568Y-58322734D01*
X106676739Y-58116496D01*
X106735635Y-57896692D01*
X106755468Y-57670000D01*
X106735635Y-57443308D01*
X106676739Y-57223504D01*
X106580568Y-57017266D01*
X106450047Y-56830861D01*
X106450045Y-56830858D01*
X106289141Y-56669954D01*
X106102734Y-56539432D01*
X106102728Y-56539429D01*
X106044725Y-56512382D01*
X105992285Y-56466210D01*
X105973133Y-56399017D01*
X105993348Y-56332135D01*
X106044725Y-56287618D01*
X106052932Y-56283791D01*
X106102734Y-56260568D01*
X106289139Y-56130047D01*
X106450047Y-55969139D01*
X106580568Y-55782734D01*
X106676739Y-55576496D01*
X106735635Y-55356692D01*
X106755468Y-55130000D01*
X106735635Y-54903308D01*
X106676739Y-54683504D01*
X106580568Y-54477266D01*
X106450047Y-54290861D01*
X106450045Y-54290858D01*
X106289141Y-54129954D01*
X106102734Y-53999432D01*
X106102728Y-53999429D01*
X106044725Y-53972382D01*
X105992285Y-53926210D01*
X105973133Y-53859017D01*
X105993348Y-53792135D01*
X106044725Y-53747618D01*
X106052932Y-53743791D01*
X106102734Y-53720568D01*
X106289139Y-53590047D01*
X106450047Y-53429139D01*
X106580568Y-53242734D01*
X106676739Y-53036496D01*
X106735635Y-52816692D01*
X106755468Y-52590000D01*
X106735635Y-52363308D01*
X106676739Y-52143504D01*
X106580568Y-51937266D01*
X106450047Y-51750861D01*
X106450045Y-51750858D01*
X106289143Y-51589956D01*
X106264536Y-51572726D01*
X106220912Y-51518149D01*
X106213719Y-51448650D01*
X106245241Y-51386296D01*
X106305471Y-51350882D01*
X106322404Y-51347861D01*
X106357483Y-51344091D01*
X106492331Y-51293796D01*
X106607546Y-51207546D01*
X106693796Y-51092331D01*
X106744091Y-50957483D01*
X106750500Y-50897873D01*
X106750499Y-49202128D01*
X106744091Y-49142517D01*
X106740798Y-49133689D01*
X106693797Y-49007671D01*
X106693793Y-49007664D01*
X106607547Y-48892455D01*
X106607544Y-48892452D01*
X106492335Y-48806206D01*
X106492328Y-48806202D01*
X106357482Y-48755908D01*
X106357483Y-48755908D01*
X106297883Y-48749501D01*
X106297881Y-48749500D01*
X106297873Y-48749500D01*
X106297864Y-48749500D01*
X104602129Y-48749500D01*
X104602123Y-48749501D01*
X104542516Y-48755908D01*
X104407671Y-48806202D01*
X104407664Y-48806206D01*
X104292455Y-48892452D01*
X104292452Y-48892455D01*
X104206206Y-49007664D01*
X104206202Y-49007671D01*
X104155908Y-49142517D01*
X104149501Y-49202116D01*
X104149501Y-49202123D01*
X104149500Y-49202135D01*
X104149500Y-50414546D01*
X104129815Y-50481585D01*
X104113181Y-50502227D01*
X103812228Y-50803181D01*
X103750905Y-50836666D01*
X103724547Y-50839500D01*
X99091434Y-50839500D01*
X99024395Y-50819815D01*
X98978640Y-50767011D01*
X98968696Y-50697853D01*
X98979052Y-50663095D01*
X99056739Y-50496496D01*
X99115635Y-50276692D01*
X99135468Y-50050000D01*
X99115635Y-49823308D01*
X99056739Y-49603504D01*
X98960568Y-49397266D01*
X98830047Y-49210861D01*
X98830045Y-49210858D01*
X98669141Y-49049954D01*
X98482734Y-48919432D01*
X98482732Y-48919431D01*
X98276497Y-48823261D01*
X98276488Y-48823258D01*
X98056697Y-48764366D01*
X98056693Y-48764365D01*
X98056692Y-48764365D01*
X98056691Y-48764364D01*
X98056686Y-48764364D01*
X97830002Y-48744532D01*
X97829998Y-48744532D01*
X97603313Y-48764364D01*
X97603302Y-48764366D01*
X97383511Y-48823258D01*
X97383502Y-48823261D01*
X97177267Y-48919431D01*
X97177265Y-48919432D01*
X96990858Y-49049954D01*
X96829954Y-49210858D01*
X96699432Y-49397265D01*
X96699431Y-49397267D01*
X96603261Y-49603502D01*
X96603258Y-49603511D01*
X96544366Y-49823302D01*
X96544364Y-49823313D01*
X96524532Y-50049998D01*
X96524532Y-50050001D01*
X96544364Y-50276686D01*
X96544366Y-50276697D01*
X96603258Y-50496488D01*
X96603260Y-50496492D01*
X96603261Y-50496496D01*
X96680948Y-50663095D01*
X96691440Y-50732173D01*
X96662920Y-50795957D01*
X96604444Y-50834196D01*
X96568566Y-50839500D01*
X95775452Y-50839500D01*
X95708413Y-50819815D01*
X95687771Y-50803181D01*
X95336818Y-50452228D01*
X95303333Y-50390905D01*
X95300499Y-50364547D01*
X95300499Y-49152129D01*
X95300498Y-49152123D01*
X95300497Y-49152116D01*
X95294091Y-49092517D01*
X95259567Y-48999954D01*
X95243797Y-48957671D01*
X95243793Y-48957664D01*
X95157547Y-48842455D01*
X95157544Y-48842452D01*
X95042335Y-48756206D01*
X95042328Y-48756202D01*
X94907482Y-48705908D01*
X94907483Y-48705908D01*
X94847883Y-48699501D01*
X94847881Y-48699500D01*
X94847873Y-48699500D01*
X94847864Y-48699500D01*
X93152129Y-48699500D01*
X93152123Y-48699501D01*
X93092516Y-48705908D01*
X92957671Y-48756202D01*
X92957664Y-48756206D01*
X92842455Y-48842452D01*
X92842452Y-48842455D01*
X92756206Y-48957664D01*
X92756202Y-48957671D01*
X92705908Y-49092517D01*
X92701482Y-49133689D01*
X92699501Y-49152123D01*
X92699500Y-49152135D01*
X92699500Y-50847870D01*
X92699501Y-50847876D01*
X92705908Y-50907483D01*
X92756202Y-51042328D01*
X92756206Y-51042335D01*
X92842452Y-51157544D01*
X92842455Y-51157547D01*
X92957664Y-51243793D01*
X92957671Y-51243797D01*
X92979756Y-51252034D01*
X93092517Y-51294091D01*
X93127596Y-51297862D01*
X93192144Y-51324599D01*
X93231993Y-51381991D01*
X93234488Y-51451816D01*
X93198836Y-51511905D01*
X93185464Y-51522725D01*
X93160858Y-51539954D01*
X92999954Y-51700858D01*
X92869432Y-51887265D01*
X92869431Y-51887267D01*
X92773261Y-52093502D01*
X92773258Y-52093511D01*
X92714366Y-52313302D01*
X92714364Y-52313313D01*
X92694532Y-52539998D01*
X92694532Y-52540001D01*
X92714364Y-52766686D01*
X92714366Y-52766697D01*
X92773258Y-52986488D01*
X92773261Y-52986497D01*
X92869431Y-53192732D01*
X92869432Y-53192734D01*
X92999954Y-53379141D01*
X93160858Y-53540045D01*
X93160861Y-53540047D01*
X93347266Y-53670568D01*
X93405275Y-53697618D01*
X93457714Y-53743791D01*
X93476866Y-53810984D01*
X93456650Y-53877865D01*
X93405275Y-53922381D01*
X93388272Y-53930310D01*
X93347267Y-53949431D01*
X93347265Y-53949432D01*
X93160858Y-54079954D01*
X92999954Y-54240858D01*
X92869432Y-54427265D01*
X92869431Y-54427267D01*
X92773261Y-54633502D01*
X92773258Y-54633511D01*
X92714366Y-54853302D01*
X92714364Y-54853313D01*
X92694532Y-55079998D01*
X92694532Y-55080001D01*
X92714364Y-55306686D01*
X92714366Y-55306697D01*
X92773258Y-55526488D01*
X92773261Y-55526497D01*
X92869431Y-55732732D01*
X92869432Y-55732734D01*
X92999954Y-55919141D01*
X93160858Y-56080045D01*
X93160861Y-56080047D01*
X93347266Y-56210568D01*
X93405275Y-56237618D01*
X93457714Y-56283791D01*
X93476866Y-56350984D01*
X93456650Y-56417865D01*
X93405275Y-56462381D01*
X93388272Y-56470310D01*
X93347267Y-56489431D01*
X93347265Y-56489432D01*
X93160858Y-56619954D01*
X92999954Y-56780858D01*
X92869432Y-56967265D01*
X92869431Y-56967267D01*
X92773261Y-57173502D01*
X92773258Y-57173511D01*
X92714366Y-57393302D01*
X92714364Y-57393313D01*
X92694532Y-57619998D01*
X92694532Y-57620001D01*
X92714364Y-57846686D01*
X92714366Y-57846697D01*
X92773258Y-58066488D01*
X92773261Y-58066497D01*
X92869431Y-58272732D01*
X92869432Y-58272734D01*
X92999954Y-58459141D01*
X93160858Y-58620045D01*
X93160861Y-58620047D01*
X93347266Y-58750568D01*
X93405275Y-58777618D01*
X93457714Y-58823791D01*
X93476866Y-58890984D01*
X93456650Y-58957865D01*
X93405275Y-59002381D01*
X93388272Y-59010310D01*
X93347267Y-59029431D01*
X93347265Y-59029432D01*
X93160858Y-59159954D01*
X92999954Y-59320858D01*
X92869432Y-59507265D01*
X92869431Y-59507267D01*
X92773261Y-59713502D01*
X92773258Y-59713511D01*
X92714366Y-59933302D01*
X92714364Y-59933313D01*
X92694532Y-60159998D01*
X92694532Y-60160001D01*
X92714364Y-60386686D01*
X92714366Y-60386697D01*
X92773258Y-60606488D01*
X92773261Y-60606497D01*
X92869431Y-60812732D01*
X92869432Y-60812734D01*
X92999954Y-60999141D01*
X93160858Y-61160045D01*
X93160861Y-61160047D01*
X93347266Y-61290568D01*
X93405275Y-61317618D01*
X93457714Y-61363791D01*
X93476866Y-61430984D01*
X93456650Y-61497865D01*
X93405275Y-61542381D01*
X93388272Y-61550310D01*
X93347267Y-61569431D01*
X93347265Y-61569432D01*
X93160858Y-61699954D01*
X92999954Y-61860858D01*
X92869432Y-62047265D01*
X92869431Y-62047267D01*
X92773261Y-62253502D01*
X92773258Y-62253511D01*
X92714366Y-62473302D01*
X92714364Y-62473313D01*
X92694532Y-62699998D01*
X92694532Y-62700001D01*
X92714364Y-62926686D01*
X92714366Y-62926697D01*
X92773258Y-63146488D01*
X92773261Y-63146497D01*
X92869431Y-63352732D01*
X92869432Y-63352734D01*
X92999954Y-63539141D01*
X93160858Y-63700045D01*
X93160861Y-63700047D01*
X93347266Y-63830568D01*
X93405275Y-63857618D01*
X93457714Y-63903791D01*
X93476866Y-63970984D01*
X93456650Y-64037865D01*
X93405275Y-64082381D01*
X93388272Y-64090310D01*
X93347267Y-64109431D01*
X93347265Y-64109432D01*
X93160858Y-64239954D01*
X92999954Y-64400858D01*
X92869432Y-64587265D01*
X92869431Y-64587267D01*
X92773261Y-64793502D01*
X92773258Y-64793511D01*
X92714366Y-65013302D01*
X92714364Y-65013313D01*
X92694532Y-65239998D01*
X92694532Y-65240001D01*
X92714364Y-65466686D01*
X92714366Y-65466697D01*
X92773258Y-65686488D01*
X92773261Y-65686497D01*
X92869431Y-65892732D01*
X92869432Y-65892734D01*
X92999954Y-66079141D01*
X93160858Y-66240045D01*
X93160861Y-66240047D01*
X93347266Y-66370568D01*
X93405275Y-66397618D01*
X93457714Y-66443791D01*
X93476866Y-66510984D01*
X93456650Y-66577865D01*
X93405275Y-66622381D01*
X93388272Y-66630310D01*
X93347267Y-66649431D01*
X93347265Y-66649432D01*
X93160858Y-66779954D01*
X92999954Y-66940858D01*
X92869432Y-67127265D01*
X92869431Y-67127267D01*
X92773261Y-67333502D01*
X92773258Y-67333511D01*
X92714366Y-67553302D01*
X92714364Y-67553313D01*
X92694532Y-67779998D01*
X92694532Y-67780001D01*
X92714364Y-68006686D01*
X92714366Y-68006697D01*
X92773258Y-68226488D01*
X92773261Y-68226497D01*
X92869431Y-68432732D01*
X92869432Y-68432734D01*
X92999954Y-68619141D01*
X93160858Y-68780045D01*
X93160861Y-68780047D01*
X93347266Y-68910568D01*
X93405275Y-68937618D01*
X93457714Y-68983791D01*
X93476866Y-69050984D01*
X93456650Y-69117865D01*
X93405275Y-69162381D01*
X93388272Y-69170310D01*
X93347267Y-69189431D01*
X93347265Y-69189432D01*
X93160858Y-69319954D01*
X92999954Y-69480858D01*
X92869432Y-69667265D01*
X92869431Y-69667267D01*
X92773261Y-69873502D01*
X92773258Y-69873511D01*
X92714366Y-70093302D01*
X92714364Y-70093313D01*
X92694532Y-70319998D01*
X92694532Y-70320001D01*
X92714364Y-70546686D01*
X92714366Y-70546697D01*
X92773258Y-70766488D01*
X92773261Y-70766497D01*
X92869431Y-70972732D01*
X92869432Y-70972734D01*
X92999954Y-71159141D01*
X93160858Y-71320045D01*
X93160861Y-71320047D01*
X93347266Y-71450568D01*
X93405275Y-71477618D01*
X93457714Y-71523791D01*
X93476866Y-71590984D01*
X93456650Y-71657865D01*
X93405275Y-71702381D01*
X93388272Y-71710310D01*
X93347267Y-71729431D01*
X93347265Y-71729432D01*
X93160858Y-71859954D01*
X92999954Y-72020858D01*
X92869432Y-72207265D01*
X92869431Y-72207267D01*
X92773261Y-72413502D01*
X92773258Y-72413511D01*
X92714366Y-72633302D01*
X92714364Y-72633313D01*
X92694532Y-72859998D01*
X92694532Y-72860001D01*
X92714364Y-73086686D01*
X92714366Y-73086697D01*
X92773258Y-73306488D01*
X92773261Y-73306497D01*
X92869431Y-73512732D01*
X92869432Y-73512734D01*
X92999954Y-73699141D01*
X93160858Y-73860045D01*
X93160861Y-73860047D01*
X93347266Y-73990568D01*
X93405275Y-74017618D01*
X93457714Y-74063791D01*
X93476866Y-74130984D01*
X93456650Y-74197865D01*
X93405275Y-74242381D01*
X93388272Y-74250310D01*
X93347267Y-74269431D01*
X93347265Y-74269432D01*
X93160858Y-74399954D01*
X92999954Y-74560858D01*
X92869432Y-74747265D01*
X92869431Y-74747267D01*
X92773261Y-74953502D01*
X92773258Y-74953511D01*
X92714366Y-75173302D01*
X92714364Y-75173313D01*
X92694532Y-75399998D01*
X92694532Y-75400001D01*
X88545468Y-75400001D01*
X88545468Y-75400000D01*
X88525635Y-75173308D01*
X88466739Y-74953504D01*
X88370568Y-74747266D01*
X88240047Y-74560861D01*
X88240045Y-74560858D01*
X88079141Y-74399954D01*
X87892734Y-74269432D01*
X87892728Y-74269429D01*
X87865038Y-74256517D01*
X87834724Y-74242381D01*
X87782285Y-74196210D01*
X87763133Y-74129017D01*
X87783348Y-74062135D01*
X87834725Y-74017618D01*
X87892734Y-73990568D01*
X88079139Y-73860047D01*
X88240047Y-73699139D01*
X88370568Y-73512734D01*
X88466739Y-73306496D01*
X88525635Y-73086692D01*
X88545468Y-72860000D01*
X88525635Y-72633308D01*
X88466739Y-72413504D01*
X88370568Y-72207266D01*
X88240047Y-72020861D01*
X88240045Y-72020858D01*
X88079141Y-71859954D01*
X87892734Y-71729432D01*
X87892728Y-71729429D01*
X87865038Y-71716517D01*
X87834724Y-71702381D01*
X87782285Y-71656210D01*
X87763133Y-71589017D01*
X87783348Y-71522135D01*
X87834725Y-71477618D01*
X87892734Y-71450568D01*
X88079139Y-71320047D01*
X88240047Y-71159139D01*
X88370568Y-70972734D01*
X88466739Y-70766496D01*
X88525635Y-70546692D01*
X88545468Y-70320000D01*
X88525635Y-70093308D01*
X88466739Y-69873504D01*
X88370568Y-69667266D01*
X88240047Y-69480861D01*
X88240045Y-69480858D01*
X88079141Y-69319954D01*
X87892734Y-69189432D01*
X87892728Y-69189429D01*
X87865038Y-69176517D01*
X87834724Y-69162381D01*
X87782285Y-69116210D01*
X87763133Y-69049017D01*
X87783348Y-68982135D01*
X87834725Y-68937618D01*
X87892734Y-68910568D01*
X88079139Y-68780047D01*
X88240047Y-68619139D01*
X88370568Y-68432734D01*
X88466739Y-68226496D01*
X88525635Y-68006692D01*
X88545468Y-67780000D01*
X88525635Y-67553308D01*
X88466739Y-67333504D01*
X88370568Y-67127266D01*
X88240047Y-66940861D01*
X88240045Y-66940858D01*
X88079141Y-66779954D01*
X87892734Y-66649432D01*
X87892728Y-66649429D01*
X87865038Y-66636517D01*
X87834724Y-66622381D01*
X87782285Y-66576210D01*
X87763133Y-66509017D01*
X87783348Y-66442135D01*
X87834725Y-66397618D01*
X87892734Y-66370568D01*
X88079139Y-66240047D01*
X88240047Y-66079139D01*
X88370568Y-65892734D01*
X88466739Y-65686496D01*
X88525635Y-65466692D01*
X88545468Y-65240000D01*
X88525635Y-65013308D01*
X88466739Y-64793504D01*
X88370568Y-64587266D01*
X88240047Y-64400861D01*
X88240045Y-64400858D01*
X88079141Y-64239954D01*
X87892734Y-64109432D01*
X87892728Y-64109429D01*
X87865038Y-64096517D01*
X87834724Y-64082381D01*
X87782285Y-64036210D01*
X87763133Y-63969017D01*
X87783348Y-63902135D01*
X87834725Y-63857618D01*
X87892734Y-63830568D01*
X88079139Y-63700047D01*
X88240047Y-63539139D01*
X88370568Y-63352734D01*
X88466739Y-63146496D01*
X88525635Y-62926692D01*
X88545468Y-62700000D01*
X88525635Y-62473308D01*
X88466739Y-62253504D01*
X88370568Y-62047266D01*
X88240047Y-61860861D01*
X88240045Y-61860858D01*
X88079141Y-61699954D01*
X87892734Y-61569432D01*
X87892728Y-61569429D01*
X87865038Y-61556517D01*
X87834724Y-61542381D01*
X87782285Y-61496210D01*
X87763133Y-61429017D01*
X87783348Y-61362135D01*
X87834725Y-61317618D01*
X87892734Y-61290568D01*
X88079139Y-61160047D01*
X88240047Y-60999139D01*
X88370568Y-60812734D01*
X88466739Y-60606496D01*
X88525635Y-60386692D01*
X88545468Y-60160000D01*
X88525635Y-59933308D01*
X88466739Y-59713504D01*
X88370568Y-59507266D01*
X88240047Y-59320861D01*
X88240045Y-59320858D01*
X88079141Y-59159954D01*
X87892734Y-59029432D01*
X87892728Y-59029429D01*
X87865038Y-59016517D01*
X87834724Y-59002381D01*
X87782285Y-58956210D01*
X87763133Y-58889017D01*
X87783348Y-58822135D01*
X87834725Y-58777618D01*
X87892734Y-58750568D01*
X88079139Y-58620047D01*
X88240047Y-58459139D01*
X88370568Y-58272734D01*
X88466739Y-58066496D01*
X88525635Y-57846692D01*
X88545468Y-57620000D01*
X88525635Y-57393308D01*
X88466739Y-57173504D01*
X88370568Y-56967266D01*
X88240047Y-56780861D01*
X88240045Y-56780858D01*
X88079141Y-56619954D01*
X87892734Y-56489432D01*
X87892728Y-56489429D01*
X87865038Y-56476517D01*
X87834724Y-56462381D01*
X87782285Y-56416210D01*
X87763133Y-56349017D01*
X87783348Y-56282135D01*
X87834725Y-56237618D01*
X87892734Y-56210568D01*
X88079139Y-56080047D01*
X88240047Y-55919139D01*
X88370568Y-55732734D01*
X88466739Y-55526496D01*
X88525635Y-55306692D01*
X88545468Y-55080000D01*
X88525635Y-54853308D01*
X88466739Y-54633504D01*
X88370568Y-54427266D01*
X88240047Y-54240861D01*
X88240045Y-54240858D01*
X88079141Y-54079954D01*
X87892734Y-53949432D01*
X87892728Y-53949429D01*
X87865038Y-53936517D01*
X87834724Y-53922381D01*
X87782285Y-53876210D01*
X87763133Y-53809017D01*
X87783348Y-53742135D01*
X87834725Y-53697618D01*
X87892734Y-53670568D01*
X88079139Y-53540047D01*
X88240047Y-53379139D01*
X88370568Y-53192734D01*
X88466739Y-52986496D01*
X88525635Y-52766692D01*
X88545468Y-52540000D01*
X88525635Y-52313308D01*
X88467183Y-52095160D01*
X88466741Y-52093511D01*
X88466738Y-52093502D01*
X88460161Y-52079397D01*
X88370568Y-51887266D01*
X88240047Y-51700861D01*
X88240045Y-51700858D01*
X88079141Y-51539954D01*
X87892734Y-51409432D01*
X87892728Y-51409429D01*
X87834725Y-51382382D01*
X87782285Y-51336210D01*
X87763133Y-51269017D01*
X87783348Y-51202135D01*
X87834725Y-51157618D01*
X87892734Y-51130568D01*
X88079139Y-51000047D01*
X88240047Y-50839139D01*
X88370568Y-50652734D01*
X88466739Y-50446496D01*
X88525635Y-50226692D01*
X88545468Y-50000000D01*
X88525635Y-49773308D01*
X88466739Y-49553504D01*
X88370568Y-49347266D01*
X88240047Y-49160861D01*
X88240045Y-49160858D01*
X88079141Y-48999954D01*
X87892734Y-48869432D01*
X87892732Y-48869431D01*
X87686497Y-48773261D01*
X87686488Y-48773258D01*
X87466697Y-48714366D01*
X87466693Y-48714365D01*
X87466692Y-48714365D01*
X87466691Y-48714364D01*
X87466686Y-48714364D01*
X87279961Y-48698028D01*
X87240875Y-48682739D01*
X87224167Y-48693477D01*
X87200039Y-48698028D01*
X87013313Y-48714364D01*
X87013302Y-48714366D01*
X86793511Y-48773258D01*
X86793502Y-48773261D01*
X86587267Y-48869431D01*
X86587265Y-48869432D01*
X86400858Y-48999954D01*
X86239954Y-49160858D01*
X86109432Y-49347265D01*
X86109431Y-49347267D01*
X86013261Y-49553502D01*
X86013258Y-49553511D01*
X85954366Y-49773302D01*
X85954364Y-49773313D01*
X85934532Y-49999998D01*
X85934532Y-50000001D01*
X85954364Y-50226686D01*
X85954366Y-50226697D01*
X86013258Y-50446488D01*
X86013261Y-50446497D01*
X86109431Y-50652732D01*
X86109432Y-50652734D01*
X86239954Y-50839141D01*
X86400858Y-51000045D01*
X86400861Y-51000047D01*
X86587266Y-51130568D01*
X86645275Y-51157618D01*
X86697714Y-51203791D01*
X86716866Y-51270984D01*
X86696650Y-51337865D01*
X86645275Y-51382382D01*
X86587267Y-51409431D01*
X86587265Y-51409432D01*
X86400858Y-51539954D01*
X86239954Y-51700858D01*
X86109432Y-51887265D01*
X86109431Y-51887267D01*
X86013261Y-52093502D01*
X86013258Y-52093511D01*
X85954366Y-52313302D01*
X85954364Y-52313313D01*
X85934532Y-52539998D01*
X85934532Y-52540001D01*
X85954364Y-52766686D01*
X85954366Y-52766697D01*
X86013258Y-52986488D01*
X86013261Y-52986497D01*
X86109431Y-53192732D01*
X86109432Y-53192734D01*
X86239954Y-53379141D01*
X86400858Y-53540045D01*
X86400861Y-53540047D01*
X86587266Y-53670568D01*
X86645275Y-53697618D01*
X86697714Y-53743791D01*
X86716866Y-53810984D01*
X86696650Y-53877865D01*
X86645275Y-53922381D01*
X86628272Y-53930310D01*
X86587267Y-53949431D01*
X86587265Y-53949432D01*
X86400858Y-54079954D01*
X86239954Y-54240858D01*
X86109432Y-54427265D01*
X86109431Y-54427267D01*
X86013261Y-54633502D01*
X86013258Y-54633511D01*
X85954366Y-54853302D01*
X85954364Y-54853313D01*
X85934532Y-55079998D01*
X85934532Y-55080001D01*
X85954364Y-55306686D01*
X85954366Y-55306697D01*
X86013258Y-55526488D01*
X86013261Y-55526497D01*
X86109431Y-55732732D01*
X86109432Y-55732734D01*
X86239954Y-55919141D01*
X86400858Y-56080045D01*
X86400861Y-56080047D01*
X86587266Y-56210568D01*
X86645275Y-56237618D01*
X86697714Y-56283791D01*
X86716866Y-56350984D01*
X86696650Y-56417865D01*
X86645275Y-56462381D01*
X86628272Y-56470310D01*
X86587267Y-56489431D01*
X86587265Y-56489432D01*
X86400858Y-56619954D01*
X86239954Y-56780858D01*
X86109432Y-56967265D01*
X86109431Y-56967267D01*
X86013261Y-57173502D01*
X86013258Y-57173511D01*
X85954366Y-57393302D01*
X85954364Y-57393313D01*
X85934532Y-57619998D01*
X85934532Y-57620001D01*
X85954364Y-57846686D01*
X85954366Y-57846697D01*
X86013258Y-58066488D01*
X86013261Y-58066497D01*
X86109431Y-58272732D01*
X86109432Y-58272734D01*
X86239954Y-58459141D01*
X86400858Y-58620045D01*
X86400861Y-58620047D01*
X86587266Y-58750568D01*
X86645275Y-58777618D01*
X86697714Y-58823791D01*
X86716866Y-58890984D01*
X86696650Y-58957865D01*
X86645275Y-59002381D01*
X86628272Y-59010310D01*
X86587267Y-59029431D01*
X86587265Y-59029432D01*
X86400858Y-59159954D01*
X86239954Y-59320858D01*
X86109432Y-59507265D01*
X86109431Y-59507267D01*
X86013261Y-59713502D01*
X86013258Y-59713511D01*
X85954366Y-59933302D01*
X85954364Y-59933313D01*
X85934532Y-60159998D01*
X85934532Y-60160001D01*
X85954364Y-60386686D01*
X85954366Y-60386697D01*
X86013258Y-60606488D01*
X86013261Y-60606497D01*
X86109431Y-60812732D01*
X86109432Y-60812734D01*
X86239954Y-60999141D01*
X86400858Y-61160045D01*
X86400861Y-61160047D01*
X86587266Y-61290568D01*
X86645275Y-61317618D01*
X86697714Y-61363791D01*
X86716866Y-61430984D01*
X86696650Y-61497865D01*
X86645275Y-61542381D01*
X86628272Y-61550310D01*
X86587267Y-61569431D01*
X86587265Y-61569432D01*
X86400858Y-61699954D01*
X86239954Y-61860858D01*
X86109432Y-62047265D01*
X86109431Y-62047267D01*
X86013261Y-62253502D01*
X86013258Y-62253511D01*
X85954366Y-62473302D01*
X85954364Y-62473313D01*
X85934532Y-62699998D01*
X85934532Y-62700001D01*
X85954364Y-62926686D01*
X85954366Y-62926697D01*
X86013258Y-63146488D01*
X86013261Y-63146497D01*
X86109431Y-63352732D01*
X86109432Y-63352734D01*
X86239954Y-63539141D01*
X86400858Y-63700045D01*
X86400861Y-63700047D01*
X86587266Y-63830568D01*
X86645275Y-63857618D01*
X86697714Y-63903791D01*
X86716866Y-63970984D01*
X86696650Y-64037865D01*
X86645275Y-64082381D01*
X86628272Y-64090310D01*
X86587267Y-64109431D01*
X86587265Y-64109432D01*
X86400858Y-64239954D01*
X86239954Y-64400858D01*
X86109432Y-64587265D01*
X86109431Y-64587267D01*
X86013261Y-64793502D01*
X86013258Y-64793511D01*
X85954366Y-65013302D01*
X85954364Y-65013313D01*
X85934532Y-65239998D01*
X85934532Y-65240001D01*
X85954364Y-65466686D01*
X85954366Y-65466697D01*
X86013258Y-65686488D01*
X86013261Y-65686497D01*
X86109431Y-65892732D01*
X86109432Y-65892734D01*
X86239954Y-66079141D01*
X86400858Y-66240045D01*
X86400861Y-66240047D01*
X86587266Y-66370568D01*
X86645275Y-66397618D01*
X86697714Y-66443791D01*
X86716866Y-66510984D01*
X86696650Y-66577865D01*
X86645275Y-66622381D01*
X86628272Y-66630310D01*
X86587267Y-66649431D01*
X86587265Y-66649432D01*
X86400858Y-66779954D01*
X86239954Y-66940858D01*
X86109432Y-67127265D01*
X86109431Y-67127267D01*
X86013261Y-67333502D01*
X86013258Y-67333511D01*
X85954366Y-67553302D01*
X85954364Y-67553313D01*
X85934532Y-67779998D01*
X85934532Y-67780001D01*
X85954364Y-68006686D01*
X85954366Y-68006697D01*
X86013258Y-68226488D01*
X86013261Y-68226497D01*
X86109431Y-68432732D01*
X86109432Y-68432734D01*
X86239954Y-68619141D01*
X86400858Y-68780045D01*
X86400861Y-68780047D01*
X86587266Y-68910568D01*
X86645275Y-68937618D01*
X86697714Y-68983791D01*
X86716866Y-69050984D01*
X86696650Y-69117865D01*
X86645275Y-69162381D01*
X86628272Y-69170310D01*
X86587267Y-69189431D01*
X86587265Y-69189432D01*
X86400858Y-69319954D01*
X86239954Y-69480858D01*
X86109432Y-69667265D01*
X86109431Y-69667267D01*
X86013261Y-69873502D01*
X86013258Y-69873511D01*
X85954366Y-70093302D01*
X85954364Y-70093313D01*
X85934532Y-70319998D01*
X85934532Y-70320001D01*
X85954364Y-70546686D01*
X85954366Y-70546697D01*
X86013258Y-70766488D01*
X86013261Y-70766497D01*
X86109431Y-70972732D01*
X86109432Y-70972734D01*
X86239954Y-71159141D01*
X86400858Y-71320045D01*
X86400861Y-71320047D01*
X86587266Y-71450568D01*
X86645275Y-71477618D01*
X86697714Y-71523791D01*
X86716866Y-71590984D01*
X86696650Y-71657865D01*
X86645275Y-71702381D01*
X86628272Y-71710310D01*
X86587267Y-71729431D01*
X86587265Y-71729432D01*
X86400858Y-71859954D01*
X86239954Y-72020858D01*
X86109432Y-72207265D01*
X86109431Y-72207267D01*
X86013261Y-72413502D01*
X86013258Y-72413511D01*
X85954366Y-72633302D01*
X85954364Y-72633313D01*
X85934532Y-72859998D01*
X85934532Y-72860001D01*
X85954364Y-73086686D01*
X85954366Y-73086697D01*
X86013258Y-73306488D01*
X86013261Y-73306497D01*
X86109431Y-73512732D01*
X86109432Y-73512734D01*
X86239954Y-73699141D01*
X86400858Y-73860045D01*
X86400861Y-73860047D01*
X86587266Y-73990568D01*
X86645275Y-74017618D01*
X86697714Y-74063791D01*
X86716866Y-74130984D01*
X86696650Y-74197865D01*
X86645275Y-74242381D01*
X86628272Y-74250310D01*
X86587267Y-74269431D01*
X86587265Y-74269432D01*
X86400858Y-74399954D01*
X86239954Y-74560858D01*
X86109432Y-74747265D01*
X86109431Y-74747267D01*
X86013261Y-74953502D01*
X86013258Y-74953511D01*
X85954366Y-75173302D01*
X85954364Y-75173313D01*
X85934532Y-75399998D01*
X85934532Y-75400001D01*
X85954364Y-75626686D01*
X85954366Y-75626697D01*
X86013258Y-75846488D01*
X86013261Y-75846497D01*
X86109431Y-76052732D01*
X86109432Y-76052734D01*
X86239954Y-76239141D01*
X86400858Y-76400045D01*
X86400861Y-76400047D01*
X86587266Y-76530568D01*
X86645275Y-76557618D01*
X86697714Y-76603791D01*
X86716866Y-76670984D01*
X86696650Y-76737865D01*
X86645275Y-76782382D01*
X86587267Y-76809431D01*
X86587265Y-76809432D01*
X86400858Y-76939954D01*
X86239954Y-77100858D01*
X86109432Y-77287265D01*
X86109431Y-77287267D01*
X86013261Y-77493502D01*
X86013258Y-77493511D01*
X85954366Y-77713302D01*
X85954364Y-77713313D01*
X85934532Y-77939998D01*
X85934532Y-77940001D01*
X83847067Y-77940001D01*
X83835165Y-77864852D01*
X83777641Y-77751955D01*
X83765686Y-77740000D01*
X84728872Y-77740000D01*
X84728872Y-77739999D01*
X84676269Y-77543682D01*
X84676265Y-77543673D01*
X84580134Y-77337517D01*
X84449657Y-77151179D01*
X84288820Y-76990342D01*
X84102482Y-76859865D01*
X84044133Y-76832657D01*
X83991694Y-76786484D01*
X83972542Y-76719291D01*
X83992758Y-76652410D01*
X84044129Y-76607895D01*
X84102734Y-76580568D01*
X84289139Y-76450047D01*
X84450047Y-76289139D01*
X84580568Y-76102734D01*
X84676739Y-75896496D01*
X84735635Y-75676692D01*
X84755468Y-75450000D01*
X84735635Y-75223308D01*
X84676739Y-75003504D01*
X84580568Y-74797266D01*
X84450047Y-74610861D01*
X84450045Y-74610858D01*
X84289141Y-74449954D01*
X84102734Y-74319432D01*
X84102728Y-74319429D01*
X84044725Y-74292382D01*
X83992285Y-74246210D01*
X83973133Y-74179017D01*
X83993348Y-74112135D01*
X84044725Y-74067618D01*
X84052932Y-74063791D01*
X84102734Y-74040568D01*
X84289139Y-73910047D01*
X84450047Y-73749139D01*
X84580568Y-73562734D01*
X84676739Y-73356496D01*
X84735635Y-73136692D01*
X84755468Y-72910000D01*
X84735635Y-72683308D01*
X84676739Y-72463504D01*
X84580568Y-72257266D01*
X84450047Y-72070861D01*
X84450045Y-72070858D01*
X84289141Y-71909954D01*
X84102734Y-71779432D01*
X84102728Y-71779429D01*
X84044725Y-71752382D01*
X83992285Y-71706210D01*
X83973133Y-71639017D01*
X83993348Y-71572135D01*
X84044725Y-71527618D01*
X84052932Y-71523791D01*
X84102734Y-71500568D01*
X84289139Y-71370047D01*
X84450047Y-71209139D01*
X84580568Y-71022734D01*
X84676739Y-70816496D01*
X84735635Y-70596692D01*
X84755468Y-70370000D01*
X84735635Y-70143308D01*
X84676739Y-69923504D01*
X84580568Y-69717266D01*
X84450047Y-69530861D01*
X84450045Y-69530858D01*
X84289141Y-69369954D01*
X84102734Y-69239432D01*
X84102728Y-69239429D01*
X84044725Y-69212382D01*
X83992285Y-69166210D01*
X83973133Y-69099017D01*
X83993348Y-69032135D01*
X84044725Y-68987618D01*
X84052932Y-68983791D01*
X84102734Y-68960568D01*
X84289139Y-68830047D01*
X84450047Y-68669139D01*
X84580568Y-68482734D01*
X84676739Y-68276496D01*
X84735635Y-68056692D01*
X84755468Y-67830000D01*
X84735635Y-67603308D01*
X84676739Y-67383504D01*
X84580568Y-67177266D01*
X84450047Y-66990861D01*
X84450045Y-66990858D01*
X84289141Y-66829954D01*
X84102734Y-66699432D01*
X84102728Y-66699429D01*
X84044725Y-66672382D01*
X83992285Y-66626210D01*
X83973133Y-66559017D01*
X83993348Y-66492135D01*
X84044725Y-66447618D01*
X84052932Y-66443791D01*
X84102734Y-66420568D01*
X84289139Y-66290047D01*
X84450047Y-66129139D01*
X84580568Y-65942734D01*
X84676739Y-65736496D01*
X84735635Y-65516692D01*
X84755468Y-65290000D01*
X84735635Y-65063308D01*
X84676739Y-64843504D01*
X84580568Y-64637266D01*
X84450047Y-64450861D01*
X84450045Y-64450858D01*
X84289141Y-64289954D01*
X84102734Y-64159432D01*
X84102728Y-64159429D01*
X84044725Y-64132382D01*
X83992285Y-64086210D01*
X83973133Y-64019017D01*
X83993348Y-63952135D01*
X84044725Y-63907618D01*
X84052932Y-63903791D01*
X84102734Y-63880568D01*
X84289139Y-63750047D01*
X84450047Y-63589139D01*
X84580568Y-63402734D01*
X84676739Y-63196496D01*
X84735635Y-62976692D01*
X84755468Y-62750000D01*
X84735635Y-62523308D01*
X84676739Y-62303504D01*
X84580568Y-62097266D01*
X84450047Y-61910861D01*
X84450045Y-61910858D01*
X84289141Y-61749954D01*
X84102734Y-61619432D01*
X84102728Y-61619429D01*
X84044725Y-61592382D01*
X83992285Y-61546210D01*
X83973133Y-61479017D01*
X83993348Y-61412135D01*
X84044725Y-61367618D01*
X84052932Y-61363791D01*
X84102734Y-61340568D01*
X84289139Y-61210047D01*
X84450047Y-61049139D01*
X84580568Y-60862734D01*
X84676739Y-60656496D01*
X84735635Y-60436692D01*
X84755468Y-60210000D01*
X84735635Y-59983308D01*
X84676739Y-59763504D01*
X84580568Y-59557266D01*
X84450047Y-59370861D01*
X84450045Y-59370858D01*
X84289141Y-59209954D01*
X84102734Y-59079432D01*
X84102728Y-59079429D01*
X84044725Y-59052382D01*
X83992285Y-59006210D01*
X83973133Y-58939017D01*
X83993348Y-58872135D01*
X84044725Y-58827618D01*
X84052932Y-58823791D01*
X84102734Y-58800568D01*
X84289139Y-58670047D01*
X84450047Y-58509139D01*
X84580568Y-58322734D01*
X84676739Y-58116496D01*
X84735635Y-57896692D01*
X84755468Y-57670000D01*
X84735635Y-57443308D01*
X84676739Y-57223504D01*
X84580568Y-57017266D01*
X84450047Y-56830861D01*
X84450045Y-56830858D01*
X84289141Y-56669954D01*
X84102734Y-56539432D01*
X84102728Y-56539429D01*
X84044725Y-56512382D01*
X83992285Y-56466210D01*
X83973133Y-56399017D01*
X83993348Y-56332135D01*
X84044725Y-56287618D01*
X84052932Y-56283791D01*
X84102734Y-56260568D01*
X84289139Y-56130047D01*
X84450047Y-55969139D01*
X84580568Y-55782734D01*
X84676739Y-55576496D01*
X84735635Y-55356692D01*
X84755468Y-55130000D01*
X84735635Y-54903308D01*
X84676739Y-54683504D01*
X84580568Y-54477266D01*
X84450047Y-54290861D01*
X84450045Y-54290858D01*
X84289141Y-54129954D01*
X84102734Y-53999432D01*
X84102728Y-53999429D01*
X84044725Y-53972382D01*
X83992285Y-53926210D01*
X83973133Y-53859017D01*
X83993348Y-53792135D01*
X84044725Y-53747618D01*
X84052932Y-53743791D01*
X84102734Y-53720568D01*
X84289139Y-53590047D01*
X84450047Y-53429139D01*
X84580568Y-53242734D01*
X84676739Y-53036496D01*
X84735635Y-52816692D01*
X84755468Y-52590000D01*
X84735635Y-52363308D01*
X84676739Y-52143504D01*
X84580568Y-51937266D01*
X84450047Y-51750861D01*
X84450045Y-51750858D01*
X84289143Y-51589956D01*
X84264536Y-51572726D01*
X84220912Y-51518149D01*
X84213719Y-51448650D01*
X84245241Y-51386296D01*
X84305471Y-51350882D01*
X84322404Y-51347861D01*
X84357483Y-51344091D01*
X84492331Y-51293796D01*
X84607546Y-51207546D01*
X84693796Y-51092331D01*
X84744091Y-50957483D01*
X84750500Y-50897873D01*
X84750499Y-49202128D01*
X84744091Y-49142517D01*
X84740798Y-49133689D01*
X84693797Y-49007671D01*
X84693793Y-49007664D01*
X84607547Y-48892455D01*
X84607544Y-48892452D01*
X84492335Y-48806206D01*
X84492328Y-48806202D01*
X84357482Y-48755908D01*
X84357483Y-48755908D01*
X84297883Y-48749501D01*
X84297881Y-48749500D01*
X84297873Y-48749500D01*
X84297864Y-48749500D01*
X82602129Y-48749500D01*
X82602123Y-48749501D01*
X82542516Y-48755908D01*
X82407671Y-48806202D01*
X82407664Y-48806206D01*
X82292455Y-48892452D01*
X82292452Y-48892455D01*
X82206206Y-49007664D01*
X82206202Y-49007671D01*
X82155908Y-49142517D01*
X82149501Y-49202116D01*
X82149501Y-49202123D01*
X82149500Y-49202135D01*
X82149500Y-50414546D01*
X82129815Y-50481585D01*
X82113181Y-50502227D01*
X81812228Y-50803181D01*
X81750905Y-50836666D01*
X81724547Y-50839500D01*
X77091434Y-50839500D01*
X77024395Y-50819815D01*
X76978640Y-50767011D01*
X76968696Y-50697853D01*
X76979052Y-50663095D01*
X77056739Y-50496496D01*
X77115635Y-50276692D01*
X77135468Y-50050000D01*
X77115635Y-49823308D01*
X77056739Y-49603504D01*
X76960568Y-49397266D01*
X76830047Y-49210861D01*
X76830045Y-49210858D01*
X76669141Y-49049954D01*
X76482734Y-48919432D01*
X76482732Y-48919431D01*
X76276497Y-48823261D01*
X76276488Y-48823258D01*
X76056697Y-48764366D01*
X76056693Y-48764365D01*
X76056692Y-48764365D01*
X76056691Y-48764364D01*
X76056686Y-48764364D01*
X75830002Y-48744532D01*
X75829998Y-48744532D01*
X75603313Y-48764364D01*
X75603302Y-48764366D01*
X75383511Y-48823258D01*
X75383502Y-48823261D01*
X75177267Y-48919431D01*
X75177265Y-48919432D01*
X74990858Y-49049954D01*
X74829954Y-49210858D01*
X74699432Y-49397265D01*
X74699431Y-49397267D01*
X74603261Y-49603502D01*
X74603258Y-49603511D01*
X74544366Y-49823302D01*
X74544364Y-49823313D01*
X74524532Y-50049998D01*
X74524532Y-50050001D01*
X74544364Y-50276686D01*
X74544366Y-50276697D01*
X74603258Y-50496488D01*
X74603260Y-50496492D01*
X74603261Y-50496496D01*
X74680948Y-50663095D01*
X74691440Y-50732173D01*
X74662920Y-50795957D01*
X74604444Y-50834196D01*
X74568566Y-50839500D01*
X73775452Y-50839500D01*
X73708413Y-50819815D01*
X73687771Y-50803181D01*
X73336818Y-50452228D01*
X73303333Y-50390905D01*
X73300499Y-50364547D01*
X73300499Y-49152129D01*
X73300498Y-49152123D01*
X73300497Y-49152116D01*
X73294091Y-49092517D01*
X73259567Y-48999954D01*
X73243797Y-48957671D01*
X73243793Y-48957664D01*
X73157547Y-48842455D01*
X73157544Y-48842452D01*
X73042335Y-48756206D01*
X73042328Y-48756202D01*
X72907482Y-48705908D01*
X72907483Y-48705908D01*
X72847883Y-48699501D01*
X72847881Y-48699500D01*
X72847873Y-48699500D01*
X72847864Y-48699500D01*
X71152129Y-48699500D01*
X71152123Y-48699501D01*
X71092516Y-48705908D01*
X70957671Y-48756202D01*
X70957664Y-48756206D01*
X70842455Y-48842452D01*
X70842452Y-48842455D01*
X70756206Y-48957664D01*
X70756202Y-48957671D01*
X70705908Y-49092517D01*
X70701482Y-49133689D01*
X70699501Y-49152123D01*
X70699500Y-49152135D01*
X70699500Y-50847870D01*
X70699501Y-50847876D01*
X70705908Y-50907483D01*
X70756202Y-51042328D01*
X70756206Y-51042335D01*
X70842452Y-51157544D01*
X70842455Y-51157547D01*
X70957664Y-51243793D01*
X70957671Y-51243797D01*
X70979756Y-51252034D01*
X71092517Y-51294091D01*
X71127596Y-51297862D01*
X71192144Y-51324599D01*
X71231993Y-51381991D01*
X71234488Y-51451816D01*
X71198836Y-51511905D01*
X71185464Y-51522725D01*
X71160858Y-51539954D01*
X70999954Y-51700858D01*
X70869432Y-51887265D01*
X70869431Y-51887267D01*
X70773261Y-52093502D01*
X70773258Y-52093511D01*
X70714366Y-52313302D01*
X70714364Y-52313313D01*
X70694532Y-52539998D01*
X70694532Y-52540001D01*
X70714364Y-52766686D01*
X70714366Y-52766697D01*
X70773258Y-52986488D01*
X70773261Y-52986497D01*
X70869431Y-53192732D01*
X70869432Y-53192734D01*
X70999954Y-53379141D01*
X71160858Y-53540045D01*
X71160861Y-53540047D01*
X71347266Y-53670568D01*
X71405275Y-53697618D01*
X71457714Y-53743791D01*
X71476866Y-53810984D01*
X71456650Y-53877865D01*
X71405275Y-53922381D01*
X71388272Y-53930310D01*
X71347267Y-53949431D01*
X71347265Y-53949432D01*
X71160858Y-54079954D01*
X70999954Y-54240858D01*
X70869432Y-54427265D01*
X70869431Y-54427267D01*
X70773261Y-54633502D01*
X70773258Y-54633511D01*
X70714366Y-54853302D01*
X70714364Y-54853313D01*
X70694532Y-55079998D01*
X70694532Y-55080001D01*
X70714364Y-55306686D01*
X70714366Y-55306697D01*
X70773258Y-55526488D01*
X70773261Y-55526497D01*
X70869431Y-55732732D01*
X70869432Y-55732734D01*
X70999954Y-55919141D01*
X71160858Y-56080045D01*
X71160861Y-56080047D01*
X71347266Y-56210568D01*
X71405275Y-56237618D01*
X71457714Y-56283791D01*
X71476866Y-56350984D01*
X71456650Y-56417865D01*
X71405275Y-56462381D01*
X71388272Y-56470310D01*
X71347267Y-56489431D01*
X71347265Y-56489432D01*
X71160858Y-56619954D01*
X70999954Y-56780858D01*
X70869432Y-56967265D01*
X70869431Y-56967267D01*
X70773261Y-57173502D01*
X70773258Y-57173511D01*
X70714366Y-57393302D01*
X70714364Y-57393313D01*
X70694532Y-57619998D01*
X70694532Y-57620001D01*
X70714364Y-57846686D01*
X70714366Y-57846697D01*
X70773258Y-58066488D01*
X70773261Y-58066497D01*
X70869431Y-58272732D01*
X70869432Y-58272734D01*
X70999954Y-58459141D01*
X71160858Y-58620045D01*
X71160861Y-58620047D01*
X71347266Y-58750568D01*
X71405275Y-58777618D01*
X71457714Y-58823791D01*
X71476866Y-58890984D01*
X71456650Y-58957865D01*
X71405275Y-59002381D01*
X71388272Y-59010310D01*
X71347267Y-59029431D01*
X71347265Y-59029432D01*
X71160858Y-59159954D01*
X70999954Y-59320858D01*
X70869432Y-59507265D01*
X70869431Y-59507267D01*
X70773261Y-59713502D01*
X70773258Y-59713511D01*
X70714366Y-59933302D01*
X70714364Y-59933313D01*
X70694532Y-60159998D01*
X70694532Y-60160001D01*
X70714364Y-60386686D01*
X70714366Y-60386697D01*
X70773258Y-60606488D01*
X70773261Y-60606497D01*
X70869431Y-60812732D01*
X70869432Y-60812734D01*
X70999954Y-60999141D01*
X71160858Y-61160045D01*
X71160861Y-61160047D01*
X71347266Y-61290568D01*
X71405275Y-61317618D01*
X71457714Y-61363791D01*
X71476866Y-61430984D01*
X71456650Y-61497865D01*
X71405275Y-61542381D01*
X71388272Y-61550310D01*
X71347267Y-61569431D01*
X71347265Y-61569432D01*
X71160858Y-61699954D01*
X70999954Y-61860858D01*
X70869432Y-62047265D01*
X70869431Y-62047267D01*
X70773261Y-62253502D01*
X70773258Y-62253511D01*
X70714366Y-62473302D01*
X70714364Y-62473313D01*
X70694532Y-62699998D01*
X70694532Y-62700001D01*
X70714364Y-62926686D01*
X70714366Y-62926697D01*
X70773258Y-63146488D01*
X70773261Y-63146497D01*
X70869431Y-63352732D01*
X70869432Y-63352734D01*
X70999954Y-63539141D01*
X71160858Y-63700045D01*
X71160861Y-63700047D01*
X71347266Y-63830568D01*
X71405275Y-63857618D01*
X71457714Y-63903791D01*
X71476866Y-63970984D01*
X71456650Y-64037865D01*
X71405275Y-64082381D01*
X71388272Y-64090310D01*
X71347267Y-64109431D01*
X71347265Y-64109432D01*
X71160858Y-64239954D01*
X70999954Y-64400858D01*
X70869432Y-64587265D01*
X70869431Y-64587267D01*
X70773261Y-64793502D01*
X70773258Y-64793511D01*
X70714366Y-65013302D01*
X70714364Y-65013313D01*
X70694532Y-65239998D01*
X70694532Y-65240001D01*
X70714364Y-65466686D01*
X70714366Y-65466697D01*
X70773258Y-65686488D01*
X70773261Y-65686497D01*
X70869431Y-65892732D01*
X70869432Y-65892734D01*
X70999954Y-66079141D01*
X71160858Y-66240045D01*
X71160861Y-66240047D01*
X71347266Y-66370568D01*
X71405275Y-66397618D01*
X71457714Y-66443791D01*
X71476866Y-66510984D01*
X71456650Y-66577865D01*
X71405275Y-66622381D01*
X71388272Y-66630310D01*
X71347267Y-66649431D01*
X71347265Y-66649432D01*
X71160858Y-66779954D01*
X70999954Y-66940858D01*
X70869432Y-67127265D01*
X70869431Y-67127267D01*
X70773261Y-67333502D01*
X70773258Y-67333511D01*
X70714366Y-67553302D01*
X70714364Y-67553313D01*
X70694532Y-67779998D01*
X70694532Y-67780001D01*
X70714364Y-68006686D01*
X70714366Y-68006697D01*
X70773258Y-68226488D01*
X70773261Y-68226497D01*
X70869431Y-68432732D01*
X70869432Y-68432734D01*
X70999954Y-68619141D01*
X71160858Y-68780045D01*
X71160861Y-68780047D01*
X71347266Y-68910568D01*
X71405275Y-68937618D01*
X71457714Y-68983791D01*
X71476866Y-69050984D01*
X71456650Y-69117865D01*
X71405275Y-69162381D01*
X71388272Y-69170310D01*
X71347267Y-69189431D01*
X71347265Y-69189432D01*
X71160858Y-69319954D01*
X70999954Y-69480858D01*
X70869432Y-69667265D01*
X70869431Y-69667267D01*
X70773261Y-69873502D01*
X70773258Y-69873511D01*
X70714366Y-70093302D01*
X70714364Y-70093313D01*
X70694532Y-70319998D01*
X70694532Y-70320001D01*
X70714364Y-70546686D01*
X70714366Y-70546697D01*
X70773258Y-70766488D01*
X70773261Y-70766497D01*
X70869431Y-70972732D01*
X70869432Y-70972734D01*
X70999954Y-71159141D01*
X71160858Y-71320045D01*
X71160861Y-71320047D01*
X71347266Y-71450568D01*
X71405275Y-71477618D01*
X71457714Y-71523791D01*
X71476866Y-71590984D01*
X71456650Y-71657865D01*
X71405275Y-71702381D01*
X71388272Y-71710310D01*
X71347267Y-71729431D01*
X71347265Y-71729432D01*
X71160858Y-71859954D01*
X70999954Y-72020858D01*
X70869432Y-72207265D01*
X70869431Y-72207267D01*
X70773261Y-72413502D01*
X70773258Y-72413511D01*
X70714366Y-72633302D01*
X70714364Y-72633313D01*
X70694532Y-72859998D01*
X70694532Y-72860001D01*
X70714364Y-73086686D01*
X70714366Y-73086697D01*
X70773258Y-73306488D01*
X70773261Y-73306497D01*
X70869431Y-73512732D01*
X70869432Y-73512734D01*
X70999954Y-73699141D01*
X71160858Y-73860045D01*
X71160861Y-73860047D01*
X71347266Y-73990568D01*
X71405275Y-74017618D01*
X71457714Y-74063791D01*
X71476866Y-74130984D01*
X71456650Y-74197865D01*
X71405275Y-74242381D01*
X71388272Y-74250310D01*
X71347267Y-74269431D01*
X71347265Y-74269432D01*
X71160858Y-74399954D01*
X70999954Y-74560858D01*
X70869432Y-74747265D01*
X70869431Y-74747267D01*
X70773261Y-74953502D01*
X70773258Y-74953511D01*
X70714366Y-75173302D01*
X70714364Y-75173313D01*
X70694532Y-75399998D01*
X70694532Y-75400001D01*
X66545468Y-75400001D01*
X66545468Y-75400000D01*
X66525635Y-75173308D01*
X66466739Y-74953504D01*
X66370568Y-74747266D01*
X66240047Y-74560861D01*
X66240045Y-74560858D01*
X66079141Y-74399954D01*
X65892734Y-74269432D01*
X65892728Y-74269429D01*
X65865038Y-74256517D01*
X65834724Y-74242381D01*
X65782285Y-74196210D01*
X65763133Y-74129017D01*
X65783348Y-74062135D01*
X65834725Y-74017618D01*
X65892734Y-73990568D01*
X66079139Y-73860047D01*
X66240047Y-73699139D01*
X66370568Y-73512734D01*
X66466739Y-73306496D01*
X66525635Y-73086692D01*
X66545468Y-72860000D01*
X66525635Y-72633308D01*
X66466739Y-72413504D01*
X66370568Y-72207266D01*
X66240047Y-72020861D01*
X66240045Y-72020858D01*
X66079141Y-71859954D01*
X65892734Y-71729432D01*
X65892728Y-71729429D01*
X65865038Y-71716517D01*
X65834724Y-71702381D01*
X65782285Y-71656210D01*
X65763133Y-71589017D01*
X65783348Y-71522135D01*
X65834725Y-71477618D01*
X65892734Y-71450568D01*
X66079139Y-71320047D01*
X66240047Y-71159139D01*
X66370568Y-70972734D01*
X66466739Y-70766496D01*
X66525635Y-70546692D01*
X66545468Y-70320000D01*
X66525635Y-70093308D01*
X66466739Y-69873504D01*
X66370568Y-69667266D01*
X66240047Y-69480861D01*
X66240045Y-69480858D01*
X66079141Y-69319954D01*
X65892734Y-69189432D01*
X65892728Y-69189429D01*
X65865038Y-69176517D01*
X65834724Y-69162381D01*
X65782285Y-69116210D01*
X65763133Y-69049017D01*
X65783348Y-68982135D01*
X65834725Y-68937618D01*
X65892734Y-68910568D01*
X66079139Y-68780047D01*
X66240047Y-68619139D01*
X66370568Y-68432734D01*
X66466739Y-68226496D01*
X66525635Y-68006692D01*
X66545468Y-67780000D01*
X66525635Y-67553308D01*
X66466739Y-67333504D01*
X66370568Y-67127266D01*
X66240047Y-66940861D01*
X66240045Y-66940858D01*
X66079141Y-66779954D01*
X65892734Y-66649432D01*
X65892728Y-66649429D01*
X65865038Y-66636517D01*
X65834724Y-66622381D01*
X65782285Y-66576210D01*
X65763133Y-66509017D01*
X65783348Y-66442135D01*
X65834725Y-66397618D01*
X65892734Y-66370568D01*
X66079139Y-66240047D01*
X66240047Y-66079139D01*
X66370568Y-65892734D01*
X66466739Y-65686496D01*
X66525635Y-65466692D01*
X66545468Y-65240000D01*
X66525635Y-65013308D01*
X66466739Y-64793504D01*
X66370568Y-64587266D01*
X66240047Y-64400861D01*
X66240045Y-64400858D01*
X66079141Y-64239954D01*
X65892734Y-64109432D01*
X65892728Y-64109429D01*
X65865038Y-64096517D01*
X65834724Y-64082381D01*
X65782285Y-64036210D01*
X65763133Y-63969017D01*
X65783348Y-63902135D01*
X65834725Y-63857618D01*
X65892734Y-63830568D01*
X66079139Y-63700047D01*
X66240047Y-63539139D01*
X66370568Y-63352734D01*
X66466739Y-63146496D01*
X66525635Y-62926692D01*
X66545468Y-62700000D01*
X66525635Y-62473308D01*
X66466739Y-62253504D01*
X66370568Y-62047266D01*
X66240047Y-61860861D01*
X66240045Y-61860858D01*
X66079141Y-61699954D01*
X65892734Y-61569432D01*
X65892728Y-61569429D01*
X65865038Y-61556517D01*
X65834724Y-61542381D01*
X65782285Y-61496210D01*
X65763133Y-61429017D01*
X65783348Y-61362135D01*
X65834725Y-61317618D01*
X65892734Y-61290568D01*
X66079139Y-61160047D01*
X66240047Y-60999139D01*
X66370568Y-60812734D01*
X66466739Y-60606496D01*
X66525635Y-60386692D01*
X66545468Y-60160000D01*
X66525635Y-59933308D01*
X66466739Y-59713504D01*
X66370568Y-59507266D01*
X66240047Y-59320861D01*
X66240045Y-59320858D01*
X66079141Y-59159954D01*
X65892734Y-59029432D01*
X65892728Y-59029429D01*
X65865038Y-59016517D01*
X65834724Y-59002381D01*
X65782285Y-58956210D01*
X65763133Y-58889017D01*
X65783348Y-58822135D01*
X65834725Y-58777618D01*
X65892734Y-58750568D01*
X66079139Y-58620047D01*
X66240047Y-58459139D01*
X66370568Y-58272734D01*
X66466739Y-58066496D01*
X66525635Y-57846692D01*
X66545468Y-57620000D01*
X66525635Y-57393308D01*
X66466739Y-57173504D01*
X66370568Y-56967266D01*
X66240047Y-56780861D01*
X66240045Y-56780858D01*
X66079141Y-56619954D01*
X65892734Y-56489432D01*
X65892728Y-56489429D01*
X65865038Y-56476517D01*
X65834724Y-56462381D01*
X65782285Y-56416210D01*
X65763133Y-56349017D01*
X65783348Y-56282135D01*
X65834725Y-56237618D01*
X65892734Y-56210568D01*
X66079139Y-56080047D01*
X66240047Y-55919139D01*
X66370568Y-55732734D01*
X66466739Y-55526496D01*
X66525635Y-55306692D01*
X66545468Y-55080000D01*
X66525635Y-54853308D01*
X66466739Y-54633504D01*
X66370568Y-54427266D01*
X66240047Y-54240861D01*
X66240045Y-54240858D01*
X66079141Y-54079954D01*
X65892734Y-53949432D01*
X65892728Y-53949429D01*
X65865038Y-53936517D01*
X65834724Y-53922381D01*
X65782285Y-53876210D01*
X65763133Y-53809017D01*
X65783348Y-53742135D01*
X65834725Y-53697618D01*
X65892734Y-53670568D01*
X66079139Y-53540047D01*
X66240047Y-53379139D01*
X66370568Y-53192734D01*
X66466739Y-52986496D01*
X66525635Y-52766692D01*
X66545468Y-52540000D01*
X66525635Y-52313308D01*
X66467183Y-52095160D01*
X66466741Y-52093511D01*
X66466738Y-52093502D01*
X66460161Y-52079397D01*
X66370568Y-51887266D01*
X66240047Y-51700861D01*
X66240045Y-51700858D01*
X66079141Y-51539954D01*
X65892734Y-51409432D01*
X65892728Y-51409429D01*
X65834725Y-51382382D01*
X65782285Y-51336210D01*
X65763133Y-51269017D01*
X65783348Y-51202135D01*
X65834725Y-51157618D01*
X65892734Y-51130568D01*
X66079139Y-51000047D01*
X66240047Y-50839139D01*
X66370568Y-50652734D01*
X66466739Y-50446496D01*
X66525635Y-50226692D01*
X66545468Y-50000000D01*
X66525635Y-49773308D01*
X66466739Y-49553504D01*
X66370568Y-49347266D01*
X66240047Y-49160861D01*
X66240045Y-49160858D01*
X66079141Y-48999954D01*
X65892734Y-48869432D01*
X65892732Y-48869431D01*
X65686497Y-48773261D01*
X65686488Y-48773258D01*
X65466697Y-48714366D01*
X65466693Y-48714365D01*
X65466692Y-48714365D01*
X65466691Y-48714364D01*
X65466686Y-48714364D01*
X65279961Y-48698028D01*
X65240875Y-48682739D01*
X65224167Y-48693477D01*
X65200039Y-48698028D01*
X65013313Y-48714364D01*
X65013302Y-48714366D01*
X64793511Y-48773258D01*
X64793502Y-48773261D01*
X64587267Y-48869431D01*
X64587265Y-48869432D01*
X64400858Y-48999954D01*
X64239954Y-49160858D01*
X64109432Y-49347265D01*
X64109431Y-49347267D01*
X64013261Y-49553502D01*
X64013258Y-49553511D01*
X63954366Y-49773302D01*
X63954364Y-49773313D01*
X63934532Y-49999998D01*
X63934532Y-50000001D01*
X63954364Y-50226686D01*
X63954366Y-50226697D01*
X64013258Y-50446488D01*
X64013261Y-50446497D01*
X64109431Y-50652732D01*
X64109432Y-50652734D01*
X64239954Y-50839141D01*
X64400858Y-51000045D01*
X64400861Y-51000047D01*
X64587266Y-51130568D01*
X64645275Y-51157618D01*
X64697714Y-51203791D01*
X64716866Y-51270984D01*
X64696650Y-51337865D01*
X64645275Y-51382382D01*
X64587267Y-51409431D01*
X64587265Y-51409432D01*
X64400858Y-51539954D01*
X64239954Y-51700858D01*
X64109432Y-51887265D01*
X64109431Y-51887267D01*
X64013261Y-52093502D01*
X64013258Y-52093511D01*
X63954366Y-52313302D01*
X63954364Y-52313313D01*
X63934532Y-52539998D01*
X63934532Y-52540001D01*
X63954364Y-52766686D01*
X63954366Y-52766697D01*
X64013258Y-52986488D01*
X64013261Y-52986497D01*
X64109431Y-53192732D01*
X64109432Y-53192734D01*
X64239954Y-53379141D01*
X64400858Y-53540045D01*
X64400861Y-53540047D01*
X64587266Y-53670568D01*
X64645275Y-53697618D01*
X64697714Y-53743791D01*
X64716866Y-53810984D01*
X64696650Y-53877865D01*
X64645275Y-53922381D01*
X64628272Y-53930310D01*
X64587267Y-53949431D01*
X64587265Y-53949432D01*
X64400858Y-54079954D01*
X64239954Y-54240858D01*
X64109432Y-54427265D01*
X64109431Y-54427267D01*
X64013261Y-54633502D01*
X64013258Y-54633511D01*
X63954366Y-54853302D01*
X63954364Y-54853313D01*
X63934532Y-55079998D01*
X63934532Y-55080001D01*
X63954364Y-55306686D01*
X63954366Y-55306697D01*
X64013258Y-55526488D01*
X64013261Y-55526497D01*
X64109431Y-55732732D01*
X64109432Y-55732734D01*
X64239954Y-55919141D01*
X64400858Y-56080045D01*
X64400861Y-56080047D01*
X64587266Y-56210568D01*
X64645275Y-56237618D01*
X64697714Y-56283791D01*
X64716866Y-56350984D01*
X64696650Y-56417865D01*
X64645275Y-56462381D01*
X64628272Y-56470310D01*
X64587267Y-56489431D01*
X64587265Y-56489432D01*
X64400858Y-56619954D01*
X64239954Y-56780858D01*
X64109432Y-56967265D01*
X64109431Y-56967267D01*
X64013261Y-57173502D01*
X64013258Y-57173511D01*
X63954366Y-57393302D01*
X63954364Y-57393313D01*
X63934532Y-57619998D01*
X63934532Y-57620001D01*
X63954364Y-57846686D01*
X63954366Y-57846697D01*
X64013258Y-58066488D01*
X64013261Y-58066497D01*
X64109431Y-58272732D01*
X64109432Y-58272734D01*
X64239954Y-58459141D01*
X64400858Y-58620045D01*
X64400861Y-58620047D01*
X64587266Y-58750568D01*
X64645275Y-58777618D01*
X64697714Y-58823791D01*
X64716866Y-58890984D01*
X64696650Y-58957865D01*
X64645275Y-59002381D01*
X64628272Y-59010310D01*
X64587267Y-59029431D01*
X64587265Y-59029432D01*
X64400858Y-59159954D01*
X64239954Y-59320858D01*
X64109432Y-59507265D01*
X64109431Y-59507267D01*
X64013261Y-59713502D01*
X64013258Y-59713511D01*
X63954366Y-59933302D01*
X63954364Y-59933313D01*
X63934532Y-60159998D01*
X63934532Y-60160001D01*
X63954364Y-60386686D01*
X63954366Y-60386697D01*
X64013258Y-60606488D01*
X64013261Y-60606497D01*
X64109431Y-60812732D01*
X64109432Y-60812734D01*
X64239954Y-60999141D01*
X64400858Y-61160045D01*
X64400861Y-61160047D01*
X64587266Y-61290568D01*
X64645275Y-61317618D01*
X64697714Y-61363791D01*
X64716866Y-61430984D01*
X64696650Y-61497865D01*
X64645275Y-61542381D01*
X64628272Y-61550310D01*
X64587267Y-61569431D01*
X64587265Y-61569432D01*
X64400858Y-61699954D01*
X64239954Y-61860858D01*
X64109432Y-62047265D01*
X64109431Y-62047267D01*
X64013261Y-62253502D01*
X64013258Y-62253511D01*
X63954366Y-62473302D01*
X63954364Y-62473313D01*
X63934532Y-62699998D01*
X63934532Y-62700001D01*
X63954364Y-62926686D01*
X63954366Y-62926697D01*
X64013258Y-63146488D01*
X64013261Y-63146497D01*
X64109431Y-63352732D01*
X64109432Y-63352734D01*
X64239954Y-63539141D01*
X64400858Y-63700045D01*
X64400861Y-63700047D01*
X64587266Y-63830568D01*
X64645275Y-63857618D01*
X64697714Y-63903791D01*
X64716866Y-63970984D01*
X64696650Y-64037865D01*
X64645275Y-64082381D01*
X64628272Y-64090310D01*
X64587267Y-64109431D01*
X64587265Y-64109432D01*
X64400858Y-64239954D01*
X64239954Y-64400858D01*
X64109432Y-64587265D01*
X64109431Y-64587267D01*
X64013261Y-64793502D01*
X64013258Y-64793511D01*
X63954366Y-65013302D01*
X63954364Y-65013313D01*
X63934532Y-65239998D01*
X63934532Y-65240001D01*
X63954364Y-65466686D01*
X63954366Y-65466697D01*
X64013258Y-65686488D01*
X64013261Y-65686497D01*
X64109431Y-65892732D01*
X64109432Y-65892734D01*
X64239954Y-66079141D01*
X64400858Y-66240045D01*
X64400861Y-66240047D01*
X64587266Y-66370568D01*
X64645275Y-66397618D01*
X64697714Y-66443791D01*
X64716866Y-66510984D01*
X64696650Y-66577865D01*
X64645275Y-66622381D01*
X64628272Y-66630310D01*
X64587267Y-66649431D01*
X64587265Y-66649432D01*
X64400858Y-66779954D01*
X64239954Y-66940858D01*
X64109432Y-67127265D01*
X64109431Y-67127267D01*
X64013261Y-67333502D01*
X64013258Y-67333511D01*
X63954366Y-67553302D01*
X63954364Y-67553313D01*
X63934532Y-67779998D01*
X63934532Y-67780001D01*
X63954364Y-68006686D01*
X63954366Y-68006697D01*
X64013258Y-68226488D01*
X64013261Y-68226497D01*
X64109431Y-68432732D01*
X64109432Y-68432734D01*
X64239954Y-68619141D01*
X64400858Y-68780045D01*
X64400861Y-68780047D01*
X64587266Y-68910568D01*
X64645275Y-68937618D01*
X64697714Y-68983791D01*
X64716866Y-69050984D01*
X64696650Y-69117865D01*
X64645275Y-69162381D01*
X64628272Y-69170310D01*
X64587267Y-69189431D01*
X64587265Y-69189432D01*
X64400858Y-69319954D01*
X64239954Y-69480858D01*
X64109432Y-69667265D01*
X64109431Y-69667267D01*
X64013261Y-69873502D01*
X64013258Y-69873511D01*
X63954366Y-70093302D01*
X63954364Y-70093313D01*
X63934532Y-70319998D01*
X63934532Y-70320001D01*
X63954364Y-70546686D01*
X63954366Y-70546697D01*
X64013258Y-70766488D01*
X64013261Y-70766497D01*
X64109431Y-70972732D01*
X64109432Y-70972734D01*
X64239954Y-71159141D01*
X64400858Y-71320045D01*
X64400861Y-71320047D01*
X64587266Y-71450568D01*
X64645275Y-71477618D01*
X64697714Y-71523791D01*
X64716866Y-71590984D01*
X64696650Y-71657865D01*
X64645275Y-71702381D01*
X64628272Y-71710310D01*
X64587267Y-71729431D01*
X64587265Y-71729432D01*
X64400858Y-71859954D01*
X64239954Y-72020858D01*
X64109432Y-72207265D01*
X64109431Y-72207267D01*
X64013261Y-72413502D01*
X64013258Y-72413511D01*
X63954366Y-72633302D01*
X63954364Y-72633313D01*
X63934532Y-72859998D01*
X63934532Y-72860001D01*
X63954364Y-73086686D01*
X63954366Y-73086697D01*
X64013258Y-73306488D01*
X64013261Y-73306497D01*
X64109431Y-73512732D01*
X64109432Y-73512734D01*
X64239954Y-73699141D01*
X64400858Y-73860045D01*
X64400861Y-73860047D01*
X64587266Y-73990568D01*
X64645275Y-74017618D01*
X64697714Y-74063791D01*
X64716866Y-74130984D01*
X64696650Y-74197865D01*
X64645275Y-74242381D01*
X64628272Y-74250310D01*
X64587267Y-74269431D01*
X64587265Y-74269432D01*
X64400858Y-74399954D01*
X64239954Y-74560858D01*
X64109432Y-74747265D01*
X64109431Y-74747267D01*
X64013261Y-74953502D01*
X64013258Y-74953511D01*
X63954366Y-75173302D01*
X63954364Y-75173313D01*
X63934532Y-75399998D01*
X63934532Y-75400001D01*
X63954364Y-75626686D01*
X63954366Y-75626697D01*
X64013258Y-75846488D01*
X64013261Y-75846497D01*
X64109431Y-76052732D01*
X64109432Y-76052734D01*
X64239954Y-76239141D01*
X64400858Y-76400045D01*
X64400861Y-76400047D01*
X64587266Y-76530568D01*
X64645275Y-76557618D01*
X64697714Y-76603791D01*
X64716866Y-76670984D01*
X64696650Y-76737865D01*
X64645275Y-76782382D01*
X64587267Y-76809431D01*
X64587265Y-76809432D01*
X64400858Y-76939954D01*
X64239954Y-77100858D01*
X64109432Y-77287265D01*
X64109431Y-77287267D01*
X64013261Y-77493502D01*
X64013258Y-77493511D01*
X63954366Y-77713302D01*
X63954364Y-77713313D01*
X63934532Y-77939998D01*
X63934532Y-77940001D01*
X61847067Y-77940001D01*
X61835165Y-77864852D01*
X61777641Y-77751955D01*
X61765686Y-77740000D01*
X62728872Y-77740000D01*
X62728872Y-77739999D01*
X62676269Y-77543682D01*
X62676265Y-77543673D01*
X62580134Y-77337517D01*
X62449657Y-77151179D01*
X62288820Y-76990342D01*
X62102482Y-76859865D01*
X62044133Y-76832657D01*
X61991694Y-76786484D01*
X61972542Y-76719291D01*
X61992758Y-76652410D01*
X62044129Y-76607895D01*
X62102734Y-76580568D01*
X62289139Y-76450047D01*
X62450047Y-76289139D01*
X62580568Y-76102734D01*
X62676739Y-75896496D01*
X62735635Y-75676692D01*
X62755468Y-75450000D01*
X62735635Y-75223308D01*
X62676739Y-75003504D01*
X62580568Y-74797266D01*
X62450047Y-74610861D01*
X62450045Y-74610858D01*
X62289141Y-74449954D01*
X62102734Y-74319432D01*
X62102728Y-74319429D01*
X62044725Y-74292382D01*
X61992285Y-74246210D01*
X61973133Y-74179017D01*
X61993348Y-74112135D01*
X62044725Y-74067618D01*
X62052932Y-74063791D01*
X62102734Y-74040568D01*
X62289139Y-73910047D01*
X62450047Y-73749139D01*
X62580568Y-73562734D01*
X62676739Y-73356496D01*
X62735635Y-73136692D01*
X62755468Y-72910000D01*
X62735635Y-72683308D01*
X62676739Y-72463504D01*
X62580568Y-72257266D01*
X62450047Y-72070861D01*
X62450045Y-72070858D01*
X62289141Y-71909954D01*
X62102734Y-71779432D01*
X62102728Y-71779429D01*
X62044725Y-71752382D01*
X61992285Y-71706210D01*
X61973133Y-71639017D01*
X61993348Y-71572135D01*
X62044725Y-71527618D01*
X62052932Y-71523791D01*
X62102734Y-71500568D01*
X62289139Y-71370047D01*
X62450047Y-71209139D01*
X62580568Y-71022734D01*
X62676739Y-70816496D01*
X62735635Y-70596692D01*
X62755468Y-70370000D01*
X62735635Y-70143308D01*
X62676739Y-69923504D01*
X62580568Y-69717266D01*
X62450047Y-69530861D01*
X62450045Y-69530858D01*
X62289141Y-69369954D01*
X62102734Y-69239432D01*
X62102728Y-69239429D01*
X62044725Y-69212382D01*
X61992285Y-69166210D01*
X61973133Y-69099017D01*
X61993348Y-69032135D01*
X62044725Y-68987618D01*
X62052932Y-68983791D01*
X62102734Y-68960568D01*
X62289139Y-68830047D01*
X62450047Y-68669139D01*
X62580568Y-68482734D01*
X62676739Y-68276496D01*
X62735635Y-68056692D01*
X62755468Y-67830000D01*
X62735635Y-67603308D01*
X62676739Y-67383504D01*
X62580568Y-67177266D01*
X62450047Y-66990861D01*
X62450045Y-66990858D01*
X62289141Y-66829954D01*
X62102734Y-66699432D01*
X62102728Y-66699429D01*
X62044725Y-66672382D01*
X61992285Y-66626210D01*
X61973133Y-66559017D01*
X61993348Y-66492135D01*
X62044725Y-66447618D01*
X62052932Y-66443791D01*
X62102734Y-66420568D01*
X62289139Y-66290047D01*
X62450047Y-66129139D01*
X62580568Y-65942734D01*
X62676739Y-65736496D01*
X62735635Y-65516692D01*
X62755468Y-65290000D01*
X62735635Y-65063308D01*
X62676739Y-64843504D01*
X62580568Y-64637266D01*
X62450047Y-64450861D01*
X62450045Y-64450858D01*
X62289141Y-64289954D01*
X62102734Y-64159432D01*
X62102728Y-64159429D01*
X62044725Y-64132382D01*
X61992285Y-64086210D01*
X61973133Y-64019017D01*
X61993348Y-63952135D01*
X62044725Y-63907618D01*
X62052932Y-63903791D01*
X62102734Y-63880568D01*
X62289139Y-63750047D01*
X62450047Y-63589139D01*
X62580568Y-63402734D01*
X62676739Y-63196496D01*
X62735635Y-62976692D01*
X62755468Y-62750000D01*
X62735635Y-62523308D01*
X62676739Y-62303504D01*
X62580568Y-62097266D01*
X62450047Y-61910861D01*
X62450045Y-61910858D01*
X62289141Y-61749954D01*
X62102734Y-61619432D01*
X62102728Y-61619429D01*
X62044725Y-61592382D01*
X61992285Y-61546210D01*
X61973133Y-61479017D01*
X61993348Y-61412135D01*
X62044725Y-61367618D01*
X62052932Y-61363791D01*
X62102734Y-61340568D01*
X62289139Y-61210047D01*
X62450047Y-61049139D01*
X62580568Y-60862734D01*
X62676739Y-60656496D01*
X62735635Y-60436692D01*
X62755468Y-60210000D01*
X62735635Y-59983308D01*
X62676739Y-59763504D01*
X62580568Y-59557266D01*
X62450047Y-59370861D01*
X62450045Y-59370858D01*
X62289141Y-59209954D01*
X62102734Y-59079432D01*
X62102728Y-59079429D01*
X62044725Y-59052382D01*
X61992285Y-59006210D01*
X61973133Y-58939017D01*
X61993348Y-58872135D01*
X62044725Y-58827618D01*
X62052932Y-58823791D01*
X62102734Y-58800568D01*
X62289139Y-58670047D01*
X62450047Y-58509139D01*
X62580568Y-58322734D01*
X62676739Y-58116496D01*
X62735635Y-57896692D01*
X62755468Y-57670000D01*
X62735635Y-57443308D01*
X62676739Y-57223504D01*
X62580568Y-57017266D01*
X62450047Y-56830861D01*
X62450045Y-56830858D01*
X62289141Y-56669954D01*
X62102734Y-56539432D01*
X62102728Y-56539429D01*
X62044725Y-56512382D01*
X61992285Y-56466210D01*
X61973133Y-56399017D01*
X61993348Y-56332135D01*
X62044725Y-56287618D01*
X62052932Y-56283791D01*
X62102734Y-56260568D01*
X62289139Y-56130047D01*
X62450047Y-55969139D01*
X62580568Y-55782734D01*
X62676739Y-55576496D01*
X62735635Y-55356692D01*
X62755468Y-55130000D01*
X62735635Y-54903308D01*
X62676739Y-54683504D01*
X62580568Y-54477266D01*
X62450047Y-54290861D01*
X62450045Y-54290858D01*
X62289141Y-54129954D01*
X62102734Y-53999432D01*
X62102728Y-53999429D01*
X62044725Y-53972382D01*
X61992285Y-53926210D01*
X61973133Y-53859017D01*
X61993348Y-53792135D01*
X62044725Y-53747618D01*
X62052932Y-53743791D01*
X62102734Y-53720568D01*
X62289139Y-53590047D01*
X62450047Y-53429139D01*
X62580568Y-53242734D01*
X62676739Y-53036496D01*
X62735635Y-52816692D01*
X62755468Y-52590000D01*
X62735635Y-52363308D01*
X62676739Y-52143504D01*
X62580568Y-51937266D01*
X62450047Y-51750861D01*
X62450045Y-51750858D01*
X62289143Y-51589956D01*
X62264536Y-51572726D01*
X62220912Y-51518149D01*
X62213719Y-51448650D01*
X62245241Y-51386296D01*
X62305471Y-51350882D01*
X62322404Y-51347861D01*
X62357483Y-51344091D01*
X62492331Y-51293796D01*
X62607546Y-51207546D01*
X62693796Y-51092331D01*
X62744091Y-50957483D01*
X62750500Y-50897873D01*
X62750499Y-49202128D01*
X62744091Y-49142517D01*
X62740798Y-49133689D01*
X62693797Y-49007671D01*
X62693793Y-49007664D01*
X62607547Y-48892455D01*
X62607544Y-48892452D01*
X62492335Y-48806206D01*
X62492328Y-48806202D01*
X62357482Y-48755908D01*
X62357483Y-48755908D01*
X62297883Y-48749501D01*
X62297881Y-48749500D01*
X62297873Y-48749500D01*
X62297864Y-48749500D01*
X60602129Y-48749500D01*
X60602123Y-48749501D01*
X60542516Y-48755908D01*
X60407671Y-48806202D01*
X60407664Y-48806206D01*
X60292455Y-48892452D01*
X60292452Y-48892455D01*
X60206206Y-49007664D01*
X60206202Y-49007671D01*
X60155908Y-49142517D01*
X60149501Y-49202116D01*
X60149501Y-49202123D01*
X60149500Y-49202135D01*
X60149500Y-50414546D01*
X60129815Y-50481585D01*
X60113181Y-50502227D01*
X59812228Y-50803181D01*
X59750905Y-50836666D01*
X59724547Y-50839500D01*
X55091434Y-50839500D01*
X55024395Y-50819815D01*
X54978640Y-50767011D01*
X54968696Y-50697853D01*
X54979052Y-50663095D01*
X55056739Y-50496496D01*
X55115635Y-50276692D01*
X55135468Y-50050000D01*
X55115635Y-49823308D01*
X55056739Y-49603504D01*
X54960568Y-49397266D01*
X54830047Y-49210861D01*
X54830045Y-49210858D01*
X54669141Y-49049954D01*
X54482734Y-48919432D01*
X54482732Y-48919431D01*
X54276497Y-48823261D01*
X54276488Y-48823258D01*
X54056697Y-48764366D01*
X54056693Y-48764365D01*
X54056692Y-48764365D01*
X54056691Y-48764364D01*
X54056686Y-48764364D01*
X53830002Y-48744532D01*
X53829998Y-48744532D01*
X53603313Y-48764364D01*
X53603302Y-48764366D01*
X53383511Y-48823258D01*
X53383502Y-48823261D01*
X53177267Y-48919431D01*
X53177265Y-48919432D01*
X52990858Y-49049954D01*
X52829954Y-49210858D01*
X52699432Y-49397265D01*
X52699431Y-49397267D01*
X52603261Y-49603502D01*
X52603258Y-49603511D01*
X52544366Y-49823302D01*
X52544364Y-49823313D01*
X52524532Y-50049998D01*
X52524532Y-50050001D01*
X52544364Y-50276686D01*
X52544366Y-50276697D01*
X52603258Y-50496488D01*
X52603260Y-50496492D01*
X52603261Y-50496496D01*
X52680948Y-50663095D01*
X52691440Y-50732173D01*
X52662920Y-50795957D01*
X52604444Y-50834196D01*
X52568566Y-50839500D01*
X51775452Y-50839500D01*
X51708413Y-50819815D01*
X51687771Y-50803181D01*
X51336818Y-50452228D01*
X51303333Y-50390905D01*
X51300499Y-50364547D01*
X51300499Y-49152129D01*
X51300498Y-49152123D01*
X51300497Y-49152116D01*
X51294091Y-49092517D01*
X51259567Y-48999954D01*
X51243797Y-48957671D01*
X51243793Y-48957664D01*
X51157547Y-48842455D01*
X51157544Y-48842452D01*
X51042335Y-48756206D01*
X51042328Y-48756202D01*
X50907482Y-48705908D01*
X50907483Y-48705908D01*
X50847883Y-48699501D01*
X50847881Y-48699500D01*
X50847873Y-48699500D01*
X50847864Y-48699500D01*
X49152129Y-48699500D01*
X49152123Y-48699501D01*
X49092514Y-48705909D01*
X48997332Y-48741409D01*
X48927640Y-48746393D01*
X48866318Y-48712907D01*
X48832833Y-48651583D01*
X48830000Y-48625227D01*
X48830000Y-48574500D01*
X48849685Y-48507461D01*
X48902489Y-48461706D01*
X48954000Y-48450500D01*
X65189232Y-48450500D01*
X65241667Y-48465897D01*
G37*
%TD.AperFunction*%
%TD*%
%TA.AperFunction,NonConductor*%
G36*
X110308834Y-50872867D02*
G01*
X110364767Y-50914739D01*
X110389184Y-50980203D01*
X110389500Y-50989049D01*
X110389500Y-51550951D01*
X110369815Y-51617990D01*
X110317011Y-51663745D01*
X110247853Y-51673689D01*
X110184297Y-51644664D01*
X110177819Y-51638632D01*
X110079141Y-51539954D01*
X109892734Y-51409432D01*
X109892728Y-51409429D01*
X109834725Y-51382382D01*
X109782285Y-51336210D01*
X109763133Y-51269017D01*
X109783348Y-51202135D01*
X109834725Y-51157618D01*
X109892734Y-51130568D01*
X110079139Y-51000047D01*
X110121704Y-50957482D01*
X110177819Y-50901368D01*
X110239142Y-50867883D01*
X110308834Y-50872867D01*
G37*
%TD.AperFunction*%
%TA.AperFunction,NonConductor*%
G36*
X48997333Y-51258590D02*
G01*
X49025290Y-51269017D01*
X49092517Y-51294091D01*
X49127596Y-51297862D01*
X49192144Y-51324599D01*
X49231993Y-51381991D01*
X49234488Y-51451816D01*
X49198836Y-51511905D01*
X49185464Y-51522725D01*
X49160858Y-51539954D01*
X49041681Y-51659132D01*
X48980358Y-51692617D01*
X48910666Y-51687633D01*
X48854733Y-51645761D01*
X48830316Y-51580297D01*
X48830000Y-51571451D01*
X48830000Y-51374772D01*
X48849685Y-51307733D01*
X48902489Y-51261978D01*
X48971647Y-51252034D01*
X48997333Y-51258590D01*
G37*
%TD.AperFunction*%
%TA.AperFunction,NonConductor*%
G36*
X59967877Y-52092224D02*
G01*
X59967904Y-52091939D01*
X59975660Y-52092671D01*
X59975667Y-52092673D01*
X60044814Y-52090500D01*
X60074350Y-52090500D01*
X60075863Y-52090500D01*
X60142902Y-52110185D01*
X60188657Y-52162989D01*
X60198601Y-52232147D01*
X60195638Y-52246593D01*
X60164366Y-52363302D01*
X60164364Y-52363313D01*
X60148906Y-52540000D01*
X60144532Y-52590000D01*
X60164364Y-52816686D01*
X60164365Y-52816691D01*
X60164366Y-52816697D01*
X60182680Y-52885048D01*
X60181017Y-52954897D01*
X60150586Y-53004821D01*
X59862226Y-53293182D01*
X59800906Y-53326666D01*
X59774547Y-53329500D01*
X55114750Y-53329500D01*
X55047711Y-53309815D01*
X55001956Y-53257011D01*
X54992012Y-53187853D01*
X55002368Y-53153095D01*
X55012915Y-53130475D01*
X55056739Y-53036496D01*
X55115635Y-52816692D01*
X55135468Y-52590000D01*
X55115635Y-52363308D01*
X55102236Y-52313302D01*
X55084362Y-52246593D01*
X55086025Y-52176743D01*
X55125188Y-52118881D01*
X55189417Y-52091377D01*
X55204137Y-52090500D01*
X59952257Y-52090500D01*
X59967877Y-52092224D01*
G37*
%TD.AperFunction*%
%TA.AperFunction,NonConductor*%
G36*
X51425413Y-52092026D02*
G01*
X51445196Y-52095160D01*
X51491584Y-52090775D01*
X51497422Y-52090500D01*
X52455863Y-52090500D01*
X52522902Y-52110185D01*
X52568657Y-52162989D01*
X52578601Y-52232147D01*
X52575638Y-52246593D01*
X52544366Y-52363302D01*
X52544364Y-52363313D01*
X52524532Y-52589998D01*
X52524532Y-52590001D01*
X52544364Y-52816686D01*
X52544366Y-52816697D01*
X52603258Y-53036488D01*
X52603260Y-53036492D01*
X52603261Y-53036496D01*
X52627184Y-53087799D01*
X52657632Y-53153095D01*
X52668124Y-53222173D01*
X52639604Y-53285957D01*
X52581127Y-53324196D01*
X52545250Y-53329500D01*
X51725453Y-53329500D01*
X51658414Y-53309815D01*
X51637772Y-53293181D01*
X51299413Y-52954822D01*
X51265928Y-52893499D01*
X51267319Y-52835048D01*
X51272236Y-52816697D01*
X51285635Y-52766692D01*
X51305468Y-52540000D01*
X51285635Y-52313308D01*
X51267759Y-52246593D01*
X51269422Y-52176743D01*
X51308585Y-52118881D01*
X51372813Y-52091377D01*
X51387534Y-52090500D01*
X51406016Y-52090500D01*
X51425413Y-52092026D01*
G37*
%TD.AperFunction*%
%TA.AperFunction,NonConductor*%
G36*
X110308834Y-53412867D02*
G01*
X110364767Y-53454739D01*
X110389184Y-53520203D01*
X110389500Y-53529049D01*
X110389500Y-54090951D01*
X110369815Y-54157990D01*
X110317011Y-54203745D01*
X110247853Y-54213689D01*
X110184297Y-54184664D01*
X110177819Y-54178632D01*
X110079141Y-54079954D01*
X109892734Y-53949432D01*
X109892728Y-53949429D01*
X109865038Y-53936517D01*
X109834724Y-53922381D01*
X109782285Y-53876210D01*
X109763133Y-53809017D01*
X109783348Y-53742135D01*
X109834725Y-53697618D01*
X109892734Y-53670568D01*
X110079139Y-53540047D01*
X110110637Y-53508549D01*
X110177819Y-53441368D01*
X110239142Y-53407883D01*
X110308834Y-53412867D01*
G37*
%TD.AperFunction*%
%TA.AperFunction,NonConductor*%
G36*
X49035203Y-53414836D02*
G01*
X49041681Y-53420868D01*
X49160858Y-53540045D01*
X49160861Y-53540047D01*
X49347266Y-53670568D01*
X49405275Y-53697618D01*
X49457714Y-53743791D01*
X49476866Y-53810984D01*
X49456650Y-53877865D01*
X49405275Y-53922381D01*
X49388272Y-53930310D01*
X49347267Y-53949431D01*
X49347265Y-53949432D01*
X49160858Y-54079954D01*
X49041681Y-54199132D01*
X48980358Y-54232617D01*
X48910666Y-54227633D01*
X48854733Y-54185761D01*
X48830316Y-54120297D01*
X48830000Y-54111451D01*
X48830000Y-53508549D01*
X48849685Y-53441510D01*
X48902489Y-53395755D01*
X48971647Y-53385811D01*
X49035203Y-53414836D01*
G37*
%TD.AperFunction*%
%TA.AperFunction,NonConductor*%
G36*
X60017877Y-54582224D02*
G01*
X60017904Y-54581939D01*
X60025661Y-54582671D01*
X60025667Y-54582673D01*
X60085302Y-54580798D01*
X60152924Y-54598366D01*
X60200316Y-54649707D01*
X60212428Y-54718518D01*
X60208971Y-54736829D01*
X60164367Y-54903299D01*
X60164364Y-54903313D01*
X60148906Y-55080000D01*
X60144532Y-55130000D01*
X60164364Y-55356686D01*
X60164365Y-55356691D01*
X60164366Y-55356697D01*
X60182680Y-55425048D01*
X60181017Y-55494897D01*
X60150586Y-55544821D01*
X59862226Y-55833182D01*
X59800906Y-55866666D01*
X59774547Y-55869500D01*
X55114750Y-55869500D01*
X55047711Y-55849815D01*
X55001956Y-55797011D01*
X54992012Y-55727853D01*
X55002368Y-55693095D01*
X55012915Y-55670475D01*
X55056739Y-55576496D01*
X55115635Y-55356692D01*
X55135468Y-55130000D01*
X55115635Y-54903308D01*
X55070964Y-54736592D01*
X55072627Y-54666744D01*
X55111790Y-54608881D01*
X55176018Y-54581377D01*
X55190739Y-54580500D01*
X60002257Y-54580500D01*
X60017877Y-54582224D01*
G37*
%TD.AperFunction*%
%TA.AperFunction,NonConductor*%
G36*
X52536300Y-54600185D02*
G01*
X52582055Y-54652989D01*
X52591999Y-54722147D01*
X52589036Y-54736593D01*
X52544366Y-54903302D01*
X52544364Y-54903313D01*
X52524532Y-55129998D01*
X52524532Y-55130001D01*
X52544364Y-55356686D01*
X52544366Y-55356697D01*
X52603258Y-55576488D01*
X52603260Y-55576492D01*
X52603261Y-55576496D01*
X52627184Y-55627799D01*
X52657632Y-55693095D01*
X52668124Y-55762173D01*
X52639604Y-55825957D01*
X52581127Y-55864196D01*
X52545250Y-55869500D01*
X51725453Y-55869500D01*
X51658414Y-55849815D01*
X51637772Y-55833181D01*
X51299413Y-55494822D01*
X51265928Y-55433499D01*
X51267319Y-55375048D01*
X51272236Y-55356697D01*
X51285635Y-55306692D01*
X51305468Y-55080000D01*
X51285635Y-54853308D01*
X51255164Y-54739588D01*
X51256827Y-54669741D01*
X51295989Y-54611878D01*
X51360218Y-54584374D01*
X51394343Y-54585024D01*
X51395196Y-54585160D01*
X51441584Y-54580775D01*
X51447422Y-54580500D01*
X52469261Y-54580500D01*
X52536300Y-54600185D01*
G37*
%TD.AperFunction*%
%TA.AperFunction,NonConductor*%
G36*
X110308834Y-55952867D02*
G01*
X110364767Y-55994739D01*
X110389184Y-56060203D01*
X110389500Y-56069049D01*
X110389500Y-56630951D01*
X110369815Y-56697990D01*
X110317011Y-56743745D01*
X110247853Y-56753689D01*
X110184297Y-56724664D01*
X110177819Y-56718632D01*
X110079141Y-56619954D01*
X109892734Y-56489432D01*
X109892728Y-56489429D01*
X109865038Y-56476517D01*
X109834724Y-56462381D01*
X109782285Y-56416210D01*
X109763133Y-56349017D01*
X109783348Y-56282135D01*
X109834725Y-56237618D01*
X109892734Y-56210568D01*
X110079139Y-56080047D01*
X110110637Y-56048549D01*
X110177819Y-55981368D01*
X110239142Y-55947883D01*
X110308834Y-55952867D01*
G37*
%TD.AperFunction*%
%TA.AperFunction,NonConductor*%
G36*
X49035203Y-55954836D02*
G01*
X49041681Y-55960868D01*
X49160858Y-56080045D01*
X49160861Y-56080047D01*
X49347266Y-56210568D01*
X49405275Y-56237618D01*
X49457714Y-56283791D01*
X49476866Y-56350984D01*
X49456650Y-56417865D01*
X49405275Y-56462381D01*
X49388272Y-56470310D01*
X49347267Y-56489431D01*
X49347265Y-56489432D01*
X49160858Y-56619954D01*
X49041681Y-56739132D01*
X48980358Y-56772617D01*
X48910666Y-56767633D01*
X48854733Y-56725761D01*
X48830316Y-56660297D01*
X48830000Y-56651451D01*
X48830000Y-56048549D01*
X48849685Y-55981510D01*
X48902489Y-55935755D01*
X48971647Y-55925811D01*
X49035203Y-55954836D01*
G37*
%TD.AperFunction*%
%TA.AperFunction,NonConductor*%
G36*
X60017877Y-57122224D02*
G01*
X60017904Y-57121939D01*
X60025661Y-57122671D01*
X60025667Y-57122673D01*
X60085302Y-57120798D01*
X60152924Y-57138366D01*
X60200316Y-57189707D01*
X60212428Y-57258518D01*
X60208971Y-57276829D01*
X60164367Y-57443299D01*
X60164364Y-57443313D01*
X60148906Y-57620000D01*
X60144532Y-57670000D01*
X60164364Y-57896686D01*
X60164365Y-57896691D01*
X60164366Y-57896697D01*
X60182680Y-57965048D01*
X60181017Y-58034897D01*
X60150587Y-58084820D01*
X60102228Y-58133180D01*
X60040905Y-58166666D01*
X60014546Y-58169500D01*
X55204137Y-58169500D01*
X55137098Y-58149815D01*
X55091343Y-58097011D01*
X55081399Y-58027853D01*
X55084362Y-58013407D01*
X55098263Y-57961524D01*
X55115635Y-57896692D01*
X55135468Y-57670000D01*
X55115635Y-57443308D01*
X55070964Y-57276592D01*
X55072627Y-57206744D01*
X55111790Y-57148881D01*
X55176018Y-57121377D01*
X55190739Y-57120500D01*
X60002257Y-57120500D01*
X60017877Y-57122224D01*
G37*
%TD.AperFunction*%
%TA.AperFunction,NonConductor*%
G36*
X52536300Y-57140185D02*
G01*
X52582055Y-57192989D01*
X52591999Y-57262147D01*
X52589036Y-57276593D01*
X52544366Y-57443302D01*
X52544364Y-57443313D01*
X52524532Y-57669998D01*
X52524532Y-57670001D01*
X52544364Y-57896686D01*
X52544366Y-57896697D01*
X52575638Y-58013407D01*
X52573975Y-58083257D01*
X52534812Y-58141119D01*
X52470583Y-58168623D01*
X52455863Y-58169500D01*
X51485452Y-58169500D01*
X51418413Y-58149815D01*
X51397776Y-58133185D01*
X51299411Y-58034820D01*
X51265928Y-57973498D01*
X51267319Y-57915048D01*
X51272236Y-57896697D01*
X51285635Y-57846692D01*
X51305468Y-57620000D01*
X51285635Y-57393308D01*
X51255164Y-57279588D01*
X51256827Y-57209741D01*
X51295989Y-57151878D01*
X51360218Y-57124374D01*
X51394343Y-57125024D01*
X51395196Y-57125160D01*
X51441584Y-57120775D01*
X51447422Y-57120500D01*
X52469261Y-57120500D01*
X52536300Y-57140185D01*
G37*
%TD.AperFunction*%
%TA.AperFunction,NonConductor*%
G36*
X110308834Y-58492867D02*
G01*
X110364767Y-58534739D01*
X110389184Y-58600203D01*
X110389500Y-58609049D01*
X110389500Y-59170951D01*
X110369815Y-59237990D01*
X110317011Y-59283745D01*
X110247853Y-59293689D01*
X110184297Y-59264664D01*
X110177819Y-59258632D01*
X110079141Y-59159954D01*
X109892734Y-59029432D01*
X109892728Y-59029429D01*
X109865038Y-59016517D01*
X109834724Y-59002381D01*
X109782285Y-58956210D01*
X109763133Y-58889017D01*
X109783348Y-58822135D01*
X109834725Y-58777618D01*
X109892734Y-58750568D01*
X110079139Y-58620047D01*
X110110637Y-58588549D01*
X110177819Y-58521368D01*
X110239142Y-58487883D01*
X110308834Y-58492867D01*
G37*
%TD.AperFunction*%
%TA.AperFunction,NonConductor*%
G36*
X49035203Y-58494836D02*
G01*
X49041681Y-58500868D01*
X49160858Y-58620045D01*
X49160861Y-58620047D01*
X49347266Y-58750568D01*
X49405275Y-58777618D01*
X49457714Y-58823791D01*
X49476866Y-58890984D01*
X49456650Y-58957865D01*
X49405275Y-59002381D01*
X49388272Y-59010310D01*
X49347267Y-59029431D01*
X49347265Y-59029432D01*
X49160858Y-59159954D01*
X49041681Y-59279132D01*
X48980358Y-59312617D01*
X48910666Y-59307633D01*
X48854733Y-59265761D01*
X48830316Y-59200297D01*
X48830000Y-59191451D01*
X48830000Y-58588549D01*
X48849685Y-58521510D01*
X48902489Y-58475755D01*
X48971647Y-58465811D01*
X49035203Y-58494836D01*
G37*
%TD.AperFunction*%
%TA.AperFunction,NonConductor*%
G36*
X60255605Y-59440185D02*
G01*
X60301360Y-59492989D01*
X60311304Y-59562147D01*
X60300948Y-59596904D01*
X60246577Y-59713504D01*
X60223262Y-59763502D01*
X60223258Y-59763511D01*
X60164366Y-59983302D01*
X60164364Y-59983313D01*
X60148906Y-60160000D01*
X60144532Y-60210000D01*
X60164364Y-60436686D01*
X60164365Y-60436691D01*
X60164366Y-60436697D01*
X60182680Y-60505048D01*
X60181017Y-60574897D01*
X60150586Y-60624821D01*
X59862226Y-60913182D01*
X59800906Y-60946666D01*
X59774547Y-60949500D01*
X55114750Y-60949500D01*
X55047711Y-60929815D01*
X55001956Y-60877011D01*
X54992012Y-60807853D01*
X55002368Y-60773095D01*
X55012915Y-60750475D01*
X55056739Y-60656496D01*
X55115635Y-60436692D01*
X55135468Y-60210000D01*
X55115635Y-59983308D01*
X55056739Y-59763504D01*
X54979051Y-59596904D01*
X54968560Y-59527827D01*
X54997080Y-59464043D01*
X55055556Y-59425804D01*
X55091434Y-59420500D01*
X60188566Y-59420500D01*
X60255605Y-59440185D01*
G37*
%TD.AperFunction*%
%TA.AperFunction,NonConductor*%
G36*
X52635605Y-59440185D02*
G01*
X52681360Y-59492989D01*
X52691304Y-59562147D01*
X52680948Y-59596904D01*
X52626577Y-59713504D01*
X52603262Y-59763502D01*
X52603258Y-59763511D01*
X52544366Y-59983302D01*
X52544364Y-59983313D01*
X52524532Y-60209998D01*
X52524532Y-60210001D01*
X52544364Y-60436686D01*
X52544366Y-60436697D01*
X52603258Y-60656488D01*
X52603260Y-60656492D01*
X52603261Y-60656496D01*
X52627184Y-60707799D01*
X52657632Y-60773095D01*
X52668124Y-60842173D01*
X52639604Y-60905957D01*
X52581127Y-60944196D01*
X52545250Y-60949500D01*
X51725453Y-60949500D01*
X51658414Y-60929815D01*
X51637772Y-60913181D01*
X51299413Y-60574822D01*
X51265928Y-60513499D01*
X51267319Y-60455048D01*
X51272236Y-60436697D01*
X51285635Y-60386692D01*
X51305468Y-60160000D01*
X51285635Y-59933308D01*
X51226739Y-59713504D01*
X51172368Y-59596905D01*
X51161876Y-59527827D01*
X51190396Y-59464043D01*
X51248873Y-59425804D01*
X51284750Y-59420500D01*
X52568566Y-59420500D01*
X52635605Y-59440185D01*
G37*
%TD.AperFunction*%
%TA.AperFunction,NonConductor*%
G36*
X110308834Y-61032867D02*
G01*
X110364767Y-61074739D01*
X110389184Y-61140203D01*
X110389500Y-61149049D01*
X110389500Y-61710951D01*
X110369815Y-61777990D01*
X110317011Y-61823745D01*
X110247853Y-61833689D01*
X110184297Y-61804664D01*
X110177819Y-61798632D01*
X110079141Y-61699954D01*
X109892734Y-61569432D01*
X109892728Y-61569429D01*
X109865038Y-61556517D01*
X109834724Y-61542381D01*
X109782285Y-61496210D01*
X109763133Y-61429017D01*
X109783348Y-61362135D01*
X109834725Y-61317618D01*
X109892734Y-61290568D01*
X110079139Y-61160047D01*
X110110637Y-61128549D01*
X110177819Y-61061368D01*
X110239142Y-61027883D01*
X110308834Y-61032867D01*
G37*
%TD.AperFunction*%
%TA.AperFunction,NonConductor*%
G36*
X49035203Y-61034836D02*
G01*
X49041681Y-61040868D01*
X49160858Y-61160045D01*
X49160861Y-61160047D01*
X49347266Y-61290568D01*
X49405275Y-61317618D01*
X49457714Y-61363791D01*
X49476866Y-61430984D01*
X49456650Y-61497865D01*
X49405275Y-61542381D01*
X49388272Y-61550310D01*
X49347267Y-61569431D01*
X49347265Y-61569432D01*
X49160858Y-61699954D01*
X49041681Y-61819132D01*
X48980358Y-61852617D01*
X48910666Y-61847633D01*
X48854733Y-61805761D01*
X48830316Y-61740297D01*
X48830000Y-61731451D01*
X48830000Y-61128549D01*
X48849685Y-61061510D01*
X48902489Y-61015755D01*
X48971647Y-61005811D01*
X49035203Y-61034836D01*
G37*
%TD.AperFunction*%
%TA.AperFunction,NonConductor*%
G36*
X60017877Y-62202224D02*
G01*
X60017904Y-62201939D01*
X60025661Y-62202671D01*
X60025667Y-62202673D01*
X60085302Y-62200798D01*
X60152924Y-62218366D01*
X60200316Y-62269707D01*
X60212428Y-62338518D01*
X60208971Y-62356829D01*
X60164367Y-62523299D01*
X60164364Y-62523313D01*
X60148906Y-62700000D01*
X60144532Y-62750000D01*
X60164364Y-62976686D01*
X60164365Y-62976691D01*
X60164366Y-62976697D01*
X60182680Y-63045048D01*
X60181017Y-63114897D01*
X60150586Y-63164821D01*
X59862226Y-63453182D01*
X59800906Y-63486666D01*
X59774547Y-63489500D01*
X55114750Y-63489500D01*
X55047711Y-63469815D01*
X55001956Y-63417011D01*
X54992012Y-63347853D01*
X55002368Y-63313095D01*
X55012915Y-63290475D01*
X55056739Y-63196496D01*
X55115635Y-62976692D01*
X55135468Y-62750000D01*
X55115635Y-62523308D01*
X55070964Y-62356592D01*
X55072627Y-62286744D01*
X55111790Y-62228881D01*
X55176018Y-62201377D01*
X55190739Y-62200500D01*
X60002257Y-62200500D01*
X60017877Y-62202224D01*
G37*
%TD.AperFunction*%
%TA.AperFunction,NonConductor*%
G36*
X52536300Y-62220185D02*
G01*
X52582055Y-62272989D01*
X52591999Y-62342147D01*
X52589036Y-62356593D01*
X52544366Y-62523302D01*
X52544364Y-62523313D01*
X52524532Y-62749998D01*
X52524532Y-62750001D01*
X52544364Y-62976686D01*
X52544366Y-62976697D01*
X52603258Y-63196488D01*
X52603260Y-63196492D01*
X52603261Y-63196496D01*
X52627184Y-63247799D01*
X52657632Y-63313095D01*
X52668124Y-63382173D01*
X52639604Y-63445957D01*
X52581127Y-63484196D01*
X52545250Y-63489500D01*
X51725453Y-63489500D01*
X51658414Y-63469815D01*
X51637772Y-63453181D01*
X51299413Y-63114822D01*
X51265928Y-63053499D01*
X51267319Y-62995048D01*
X51272236Y-62976697D01*
X51285635Y-62926692D01*
X51305468Y-62700000D01*
X51285635Y-62473308D01*
X51255164Y-62359588D01*
X51256827Y-62289741D01*
X51295989Y-62231878D01*
X51360218Y-62204374D01*
X51394343Y-62205024D01*
X51395196Y-62205160D01*
X51441584Y-62200775D01*
X51447422Y-62200500D01*
X52469261Y-62200500D01*
X52536300Y-62220185D01*
G37*
%TD.AperFunction*%
%TA.AperFunction,NonConductor*%
G36*
X110308834Y-63572867D02*
G01*
X110364767Y-63614739D01*
X110389184Y-63680203D01*
X110389500Y-63689049D01*
X110389500Y-64250951D01*
X110369815Y-64317990D01*
X110317011Y-64363745D01*
X110247853Y-64373689D01*
X110184297Y-64344664D01*
X110177819Y-64338632D01*
X110079141Y-64239954D01*
X109892734Y-64109432D01*
X109892728Y-64109429D01*
X109865038Y-64096517D01*
X109834724Y-64082381D01*
X109782285Y-64036210D01*
X109763133Y-63969017D01*
X109783348Y-63902135D01*
X109834725Y-63857618D01*
X109892734Y-63830568D01*
X110079139Y-63700047D01*
X110110637Y-63668549D01*
X110177819Y-63601368D01*
X110239142Y-63567883D01*
X110308834Y-63572867D01*
G37*
%TD.AperFunction*%
%TA.AperFunction,NonConductor*%
G36*
X49035203Y-63574836D02*
G01*
X49041681Y-63580868D01*
X49160858Y-63700045D01*
X49160861Y-63700047D01*
X49347266Y-63830568D01*
X49405275Y-63857618D01*
X49457714Y-63903791D01*
X49476866Y-63970984D01*
X49456650Y-64037865D01*
X49405275Y-64082381D01*
X49388272Y-64090310D01*
X49347267Y-64109431D01*
X49347265Y-64109432D01*
X49160858Y-64239954D01*
X49041681Y-64359132D01*
X48980358Y-64392617D01*
X48910666Y-64387633D01*
X48854733Y-64345761D01*
X48830316Y-64280297D01*
X48830000Y-64271451D01*
X48830000Y-63668549D01*
X48849685Y-63601510D01*
X48902489Y-63555755D01*
X48971647Y-63545811D01*
X49035203Y-63574836D01*
G37*
%TD.AperFunction*%
%TA.AperFunction,NonConductor*%
G36*
X60017877Y-64742224D02*
G01*
X60017904Y-64741939D01*
X60025661Y-64742671D01*
X60025667Y-64742673D01*
X60085302Y-64740798D01*
X60152924Y-64758366D01*
X60200316Y-64809707D01*
X60212428Y-64878518D01*
X60208971Y-64896829D01*
X60164367Y-65063299D01*
X60164364Y-65063313D01*
X60148906Y-65240000D01*
X60144532Y-65290000D01*
X60164364Y-65516686D01*
X60164365Y-65516691D01*
X60164366Y-65516697D01*
X60182680Y-65585048D01*
X60181017Y-65654897D01*
X60150587Y-65704820D01*
X60102228Y-65753180D01*
X60040905Y-65786666D01*
X60014546Y-65789500D01*
X55204137Y-65789500D01*
X55137098Y-65769815D01*
X55091343Y-65717011D01*
X55081399Y-65647853D01*
X55084362Y-65633407D01*
X55098263Y-65581524D01*
X55115635Y-65516692D01*
X55135468Y-65290000D01*
X55115635Y-65063308D01*
X55070964Y-64896592D01*
X55072627Y-64826744D01*
X55111790Y-64768881D01*
X55176018Y-64741377D01*
X55190739Y-64740500D01*
X60002257Y-64740500D01*
X60017877Y-64742224D01*
G37*
%TD.AperFunction*%
%TA.AperFunction,NonConductor*%
G36*
X52536300Y-64760185D02*
G01*
X52582055Y-64812989D01*
X52591999Y-64882147D01*
X52589036Y-64896593D01*
X52544366Y-65063302D01*
X52544364Y-65063313D01*
X52524532Y-65289998D01*
X52524532Y-65290001D01*
X52544364Y-65516686D01*
X52544366Y-65516697D01*
X52575638Y-65633407D01*
X52573975Y-65703257D01*
X52534812Y-65761119D01*
X52470583Y-65788623D01*
X52455863Y-65789500D01*
X51485452Y-65789500D01*
X51418413Y-65769815D01*
X51397776Y-65753185D01*
X51299411Y-65654820D01*
X51265928Y-65593498D01*
X51267319Y-65535048D01*
X51272236Y-65516697D01*
X51285635Y-65466692D01*
X51305468Y-65240000D01*
X51285635Y-65013308D01*
X51255164Y-64899588D01*
X51256827Y-64829741D01*
X51295989Y-64771878D01*
X51360218Y-64744374D01*
X51394343Y-64745024D01*
X51395196Y-64745160D01*
X51441584Y-64740775D01*
X51447422Y-64740500D01*
X52469261Y-64740500D01*
X52536300Y-64760185D01*
G37*
%TD.AperFunction*%
%TA.AperFunction,NonConductor*%
G36*
X110308834Y-66112867D02*
G01*
X110364767Y-66154739D01*
X110389184Y-66220203D01*
X110389500Y-66229049D01*
X110389500Y-66790951D01*
X110369815Y-66857990D01*
X110317011Y-66903745D01*
X110247853Y-66913689D01*
X110184297Y-66884664D01*
X110177819Y-66878632D01*
X110079141Y-66779954D01*
X109892734Y-66649432D01*
X109892728Y-66649429D01*
X109865038Y-66636517D01*
X109834724Y-66622381D01*
X109782285Y-66576210D01*
X109763133Y-66509017D01*
X109783348Y-66442135D01*
X109834725Y-66397618D01*
X109892734Y-66370568D01*
X110079139Y-66240047D01*
X110110637Y-66208549D01*
X110177819Y-66141368D01*
X110239142Y-66107883D01*
X110308834Y-66112867D01*
G37*
%TD.AperFunction*%
%TA.AperFunction,NonConductor*%
G36*
X49035203Y-66114836D02*
G01*
X49041681Y-66120868D01*
X49160858Y-66240045D01*
X49160861Y-66240047D01*
X49347266Y-66370568D01*
X49405275Y-66397618D01*
X49457714Y-66443791D01*
X49476866Y-66510984D01*
X49456650Y-66577865D01*
X49405275Y-66622381D01*
X49388272Y-66630310D01*
X49347267Y-66649431D01*
X49347265Y-66649432D01*
X49160858Y-66779954D01*
X49041681Y-66899132D01*
X48980358Y-66932617D01*
X48910666Y-66927633D01*
X48854733Y-66885761D01*
X48830316Y-66820297D01*
X48830000Y-66811451D01*
X48830000Y-66208549D01*
X48849685Y-66141510D01*
X48902489Y-66095755D01*
X48971647Y-66085811D01*
X49035203Y-66114836D01*
G37*
%TD.AperFunction*%
%TA.AperFunction,NonConductor*%
G36*
X60255605Y-67060185D02*
G01*
X60301360Y-67112989D01*
X60311304Y-67182147D01*
X60300948Y-67216904D01*
X60246577Y-67333504D01*
X60223262Y-67383502D01*
X60223258Y-67383511D01*
X60164366Y-67603302D01*
X60164364Y-67603313D01*
X60148906Y-67780000D01*
X60144532Y-67830000D01*
X60164364Y-68056686D01*
X60164365Y-68056691D01*
X60164366Y-68056697D01*
X60182680Y-68125048D01*
X60181017Y-68194897D01*
X60150587Y-68244820D01*
X60102228Y-68293180D01*
X60040905Y-68326666D01*
X60014546Y-68329500D01*
X55204137Y-68329500D01*
X55137098Y-68309815D01*
X55091343Y-68257011D01*
X55081399Y-68187853D01*
X55084362Y-68173407D01*
X55098263Y-68121524D01*
X55115635Y-68056692D01*
X55135468Y-67830000D01*
X55115635Y-67603308D01*
X55056739Y-67383504D01*
X54979051Y-67216904D01*
X54968560Y-67147827D01*
X54997080Y-67084043D01*
X55055556Y-67045804D01*
X55091434Y-67040500D01*
X60188566Y-67040500D01*
X60255605Y-67060185D01*
G37*
%TD.AperFunction*%
%TA.AperFunction,NonConductor*%
G36*
X52635605Y-67060185D02*
G01*
X52681360Y-67112989D01*
X52691304Y-67182147D01*
X52680948Y-67216904D01*
X52626577Y-67333504D01*
X52603262Y-67383502D01*
X52603258Y-67383511D01*
X52544366Y-67603302D01*
X52544364Y-67603313D01*
X52524532Y-67829998D01*
X52524532Y-67830001D01*
X52544364Y-68056686D01*
X52544366Y-68056697D01*
X52575638Y-68173407D01*
X52573975Y-68243257D01*
X52534812Y-68301119D01*
X52470583Y-68328623D01*
X52455863Y-68329500D01*
X51485452Y-68329500D01*
X51418413Y-68309815D01*
X51397776Y-68293185D01*
X51299411Y-68194820D01*
X51265928Y-68133498D01*
X51267319Y-68075048D01*
X51272236Y-68056697D01*
X51285635Y-68006692D01*
X51305468Y-67780000D01*
X51285635Y-67553308D01*
X51226739Y-67333504D01*
X51172368Y-67216905D01*
X51161876Y-67147827D01*
X51190396Y-67084043D01*
X51248873Y-67045804D01*
X51284750Y-67040500D01*
X52568566Y-67040500D01*
X52635605Y-67060185D01*
G37*
%TD.AperFunction*%
%TA.AperFunction,NonConductor*%
G36*
X110308834Y-68652867D02*
G01*
X110364767Y-68694739D01*
X110389184Y-68760203D01*
X110389500Y-68769049D01*
X110389500Y-69330951D01*
X110369815Y-69397990D01*
X110317011Y-69443745D01*
X110247853Y-69453689D01*
X110184297Y-69424664D01*
X110177819Y-69418632D01*
X110079141Y-69319954D01*
X109892734Y-69189432D01*
X109892728Y-69189429D01*
X109865038Y-69176517D01*
X109834724Y-69162381D01*
X109782285Y-69116210D01*
X109763133Y-69049017D01*
X109783348Y-68982135D01*
X109834725Y-68937618D01*
X109892734Y-68910568D01*
X110079139Y-68780047D01*
X110110637Y-68748549D01*
X110177819Y-68681368D01*
X110239142Y-68647883D01*
X110308834Y-68652867D01*
G37*
%TD.AperFunction*%
%TA.AperFunction,NonConductor*%
G36*
X49035203Y-68654836D02*
G01*
X49041681Y-68660868D01*
X49160858Y-68780045D01*
X49160861Y-68780047D01*
X49347266Y-68910568D01*
X49405275Y-68937618D01*
X49457714Y-68983791D01*
X49476866Y-69050984D01*
X49456650Y-69117865D01*
X49405275Y-69162381D01*
X49388272Y-69170310D01*
X49347267Y-69189431D01*
X49347265Y-69189432D01*
X49160858Y-69319954D01*
X49041681Y-69439132D01*
X48980358Y-69472617D01*
X48910666Y-69467633D01*
X48854733Y-69425761D01*
X48830316Y-69360297D01*
X48830000Y-69351451D01*
X48830000Y-68748549D01*
X48849685Y-68681510D01*
X48902489Y-68635755D01*
X48971647Y-68625811D01*
X49035203Y-68654836D01*
G37*
%TD.AperFunction*%
%TA.AperFunction,NonConductor*%
G36*
X60255605Y-69600185D02*
G01*
X60301360Y-69652989D01*
X60311304Y-69722147D01*
X60300948Y-69756904D01*
X60246577Y-69873504D01*
X60223262Y-69923502D01*
X60223258Y-69923511D01*
X60164366Y-70143302D01*
X60164364Y-70143313D01*
X60148906Y-70320000D01*
X60144532Y-70370000D01*
X60164364Y-70596686D01*
X60164365Y-70596691D01*
X60164366Y-70596697D01*
X60182680Y-70665048D01*
X60181017Y-70734897D01*
X60150587Y-70784820D01*
X60102228Y-70833180D01*
X60040905Y-70866666D01*
X60014546Y-70869500D01*
X55204137Y-70869500D01*
X55137098Y-70849815D01*
X55091343Y-70797011D01*
X55081399Y-70727853D01*
X55084362Y-70713407D01*
X55098263Y-70661524D01*
X55115635Y-70596692D01*
X55135468Y-70370000D01*
X55115635Y-70143308D01*
X55056739Y-69923504D01*
X54979051Y-69756904D01*
X54968560Y-69687827D01*
X54997080Y-69624043D01*
X55055556Y-69585804D01*
X55091434Y-69580500D01*
X60188566Y-69580500D01*
X60255605Y-69600185D01*
G37*
%TD.AperFunction*%
%TA.AperFunction,NonConductor*%
G36*
X52635605Y-69600185D02*
G01*
X52681360Y-69652989D01*
X52691304Y-69722147D01*
X52680948Y-69756904D01*
X52626577Y-69873504D01*
X52603262Y-69923502D01*
X52603258Y-69923511D01*
X52544366Y-70143302D01*
X52544364Y-70143313D01*
X52524532Y-70369998D01*
X52524532Y-70370001D01*
X52544364Y-70596686D01*
X52544366Y-70596697D01*
X52575638Y-70713407D01*
X52573975Y-70783257D01*
X52534812Y-70841119D01*
X52470583Y-70868623D01*
X52455863Y-70869500D01*
X51485452Y-70869500D01*
X51418413Y-70849815D01*
X51397776Y-70833185D01*
X51299411Y-70734820D01*
X51265928Y-70673498D01*
X51267319Y-70615048D01*
X51272236Y-70596697D01*
X51285635Y-70546692D01*
X51305468Y-70320000D01*
X51285635Y-70093308D01*
X51226739Y-69873504D01*
X51172368Y-69756905D01*
X51161876Y-69687827D01*
X51190396Y-69624043D01*
X51248873Y-69585804D01*
X51284750Y-69580500D01*
X52568566Y-69580500D01*
X52635605Y-69600185D01*
G37*
%TD.AperFunction*%
%TA.AperFunction,NonConductor*%
G36*
X110308834Y-71192867D02*
G01*
X110364767Y-71234739D01*
X110389184Y-71300203D01*
X110389500Y-71309049D01*
X110389500Y-71870951D01*
X110369815Y-71937990D01*
X110317011Y-71983745D01*
X110247853Y-71993689D01*
X110184297Y-71964664D01*
X110177819Y-71958632D01*
X110079141Y-71859954D01*
X109892734Y-71729432D01*
X109892728Y-71729429D01*
X109865038Y-71716517D01*
X109834724Y-71702381D01*
X109782285Y-71656210D01*
X109763133Y-71589017D01*
X109783348Y-71522135D01*
X109834725Y-71477618D01*
X109892734Y-71450568D01*
X110079139Y-71320047D01*
X110110637Y-71288549D01*
X110177819Y-71221368D01*
X110239142Y-71187883D01*
X110308834Y-71192867D01*
G37*
%TD.AperFunction*%
%TA.AperFunction,NonConductor*%
G36*
X49035203Y-71194836D02*
G01*
X49041681Y-71200868D01*
X49160858Y-71320045D01*
X49160861Y-71320047D01*
X49347266Y-71450568D01*
X49405275Y-71477618D01*
X49457714Y-71523791D01*
X49476866Y-71590984D01*
X49456650Y-71657865D01*
X49405275Y-71702381D01*
X49388272Y-71710310D01*
X49347267Y-71729431D01*
X49347265Y-71729432D01*
X49160858Y-71859954D01*
X49041681Y-71979132D01*
X48980358Y-72012617D01*
X48910666Y-72007633D01*
X48854733Y-71965761D01*
X48830316Y-71900297D01*
X48830000Y-71891451D01*
X48830000Y-71288549D01*
X48849685Y-71221510D01*
X48902489Y-71175755D01*
X48971647Y-71165811D01*
X49035203Y-71194836D01*
G37*
%TD.AperFunction*%
%TA.AperFunction,NonConductor*%
G36*
X60255605Y-72140185D02*
G01*
X60301360Y-72192989D01*
X60311304Y-72262147D01*
X60300948Y-72296904D01*
X60246577Y-72413504D01*
X60223262Y-72463502D01*
X60223258Y-72463511D01*
X60164366Y-72683302D01*
X60164364Y-72683313D01*
X60148906Y-72860000D01*
X60144532Y-72910000D01*
X60164364Y-73136686D01*
X60164365Y-73136691D01*
X60164366Y-73136697D01*
X60182680Y-73205048D01*
X60181017Y-73274897D01*
X60150587Y-73324820D01*
X60102228Y-73373180D01*
X60040905Y-73406666D01*
X60014546Y-73409500D01*
X55204137Y-73409500D01*
X55137098Y-73389815D01*
X55091343Y-73337011D01*
X55081399Y-73267853D01*
X55084362Y-73253407D01*
X55098263Y-73201524D01*
X55115635Y-73136692D01*
X55135468Y-72910000D01*
X55115635Y-72683308D01*
X55056739Y-72463504D01*
X54979051Y-72296904D01*
X54968560Y-72227827D01*
X54997080Y-72164043D01*
X55055556Y-72125804D01*
X55091434Y-72120500D01*
X60188566Y-72120500D01*
X60255605Y-72140185D01*
G37*
%TD.AperFunction*%
%TA.AperFunction,NonConductor*%
G36*
X52635605Y-72140185D02*
G01*
X52681360Y-72192989D01*
X52691304Y-72262147D01*
X52680948Y-72296904D01*
X52626577Y-72413504D01*
X52603262Y-72463502D01*
X52603258Y-72463511D01*
X52544366Y-72683302D01*
X52544364Y-72683313D01*
X52524532Y-72909998D01*
X52524532Y-72910001D01*
X52544364Y-73136686D01*
X52544366Y-73136697D01*
X52575638Y-73253407D01*
X52573975Y-73323257D01*
X52534812Y-73381119D01*
X52470583Y-73408623D01*
X52455863Y-73409500D01*
X51485452Y-73409500D01*
X51418413Y-73389815D01*
X51397776Y-73373185D01*
X51299411Y-73274820D01*
X51265928Y-73213498D01*
X51267319Y-73155048D01*
X51272236Y-73136697D01*
X51285635Y-73086692D01*
X51305468Y-72860000D01*
X51285635Y-72633308D01*
X51226739Y-72413504D01*
X51172368Y-72296905D01*
X51161876Y-72227827D01*
X51190396Y-72164043D01*
X51248873Y-72125804D01*
X51284750Y-72120500D01*
X52568566Y-72120500D01*
X52635605Y-72140185D01*
G37*
%TD.AperFunction*%
%TA.AperFunction,NonConductor*%
G36*
X110308834Y-73732867D02*
G01*
X110364767Y-73774739D01*
X110389184Y-73840203D01*
X110389500Y-73849049D01*
X110389500Y-74410951D01*
X110369815Y-74477990D01*
X110317011Y-74523745D01*
X110247853Y-74533689D01*
X110184297Y-74504664D01*
X110177819Y-74498632D01*
X110079141Y-74399954D01*
X109892734Y-74269432D01*
X109892728Y-74269429D01*
X109865038Y-74256517D01*
X109834724Y-74242381D01*
X109782285Y-74196210D01*
X109763133Y-74129017D01*
X109783348Y-74062135D01*
X109834725Y-74017618D01*
X109892734Y-73990568D01*
X110079139Y-73860047D01*
X110110637Y-73828549D01*
X110177819Y-73761368D01*
X110239142Y-73727883D01*
X110308834Y-73732867D01*
G37*
%TD.AperFunction*%
%TA.AperFunction,NonConductor*%
G36*
X49035203Y-73734836D02*
G01*
X49041681Y-73740868D01*
X49160858Y-73860045D01*
X49160861Y-73860047D01*
X49347266Y-73990568D01*
X49405275Y-74017618D01*
X49457714Y-74063791D01*
X49476866Y-74130984D01*
X49456650Y-74197865D01*
X49405275Y-74242381D01*
X49388272Y-74250310D01*
X49347267Y-74269431D01*
X49347265Y-74269432D01*
X49160858Y-74399954D01*
X49041681Y-74519132D01*
X48980358Y-74552617D01*
X48910666Y-74547633D01*
X48854733Y-74505761D01*
X48830316Y-74440297D01*
X48830000Y-74431451D01*
X48830000Y-73828549D01*
X48849685Y-73761510D01*
X48902489Y-73715755D01*
X48971647Y-73705811D01*
X49035203Y-73734836D01*
G37*
%TD.AperFunction*%
%TA.AperFunction,NonConductor*%
G36*
X60255605Y-74680185D02*
G01*
X60301360Y-74732989D01*
X60311304Y-74802147D01*
X60300948Y-74836904D01*
X60246577Y-74953504D01*
X60223262Y-75003502D01*
X60223258Y-75003511D01*
X60164366Y-75223302D01*
X60164364Y-75223313D01*
X60148906Y-75400000D01*
X60144532Y-75450000D01*
X60164364Y-75676686D01*
X60164365Y-75676691D01*
X60164366Y-75676697D01*
X60182680Y-75745048D01*
X60181017Y-75814897D01*
X60150587Y-75864820D01*
X60102228Y-75913180D01*
X60040905Y-75946666D01*
X60014546Y-75949500D01*
X55204137Y-75949500D01*
X55137098Y-75929815D01*
X55091343Y-75877011D01*
X55081399Y-75807853D01*
X55084362Y-75793407D01*
X55098263Y-75741524D01*
X55115635Y-75676692D01*
X55135468Y-75450000D01*
X55115635Y-75223308D01*
X55056739Y-75003504D01*
X54979051Y-74836904D01*
X54968560Y-74767827D01*
X54997080Y-74704043D01*
X55055556Y-74665804D01*
X55091434Y-74660500D01*
X60188566Y-74660500D01*
X60255605Y-74680185D01*
G37*
%TD.AperFunction*%
%TA.AperFunction,NonConductor*%
G36*
X52635605Y-74680185D02*
G01*
X52681360Y-74732989D01*
X52691304Y-74802147D01*
X52680948Y-74836904D01*
X52626577Y-74953504D01*
X52603262Y-75003502D01*
X52603258Y-75003511D01*
X52544366Y-75223302D01*
X52544364Y-75223313D01*
X52524532Y-75449998D01*
X52524532Y-75450001D01*
X52544364Y-75676686D01*
X52544366Y-75676697D01*
X52575638Y-75793407D01*
X52573975Y-75863257D01*
X52534812Y-75921119D01*
X52470583Y-75948623D01*
X52455863Y-75949500D01*
X51485452Y-75949500D01*
X51418413Y-75929815D01*
X51397776Y-75913185D01*
X51299411Y-75814820D01*
X51265928Y-75753498D01*
X51267319Y-75695048D01*
X51272236Y-75676697D01*
X51285635Y-75626692D01*
X51305468Y-75400000D01*
X51285635Y-75173308D01*
X51226739Y-74953504D01*
X51172368Y-74836905D01*
X51161876Y-74767827D01*
X51190396Y-74704043D01*
X51248873Y-74665804D01*
X51284750Y-74660500D01*
X52568566Y-74660500D01*
X52635605Y-74680185D01*
G37*
%TD.AperFunction*%
%TA.AperFunction,NonConductor*%
G36*
X110308834Y-76272867D02*
G01*
X110364767Y-76314739D01*
X110389184Y-76380203D01*
X110389500Y-76389049D01*
X110389500Y-76950951D01*
X110369815Y-77017990D01*
X110317011Y-77063745D01*
X110247853Y-77073689D01*
X110184297Y-77044664D01*
X110177819Y-77038632D01*
X110079141Y-76939954D01*
X109892734Y-76809432D01*
X109892728Y-76809429D01*
X109834725Y-76782382D01*
X109782285Y-76736210D01*
X109763133Y-76669017D01*
X109783348Y-76602135D01*
X109834725Y-76557618D01*
X109892734Y-76530568D01*
X110079139Y-76400047D01*
X110110637Y-76368549D01*
X110177819Y-76301368D01*
X110239142Y-76267883D01*
X110308834Y-76272867D01*
G37*
%TD.AperFunction*%
%TA.AperFunction,NonConductor*%
G36*
X49035203Y-76274836D02*
G01*
X49041681Y-76280868D01*
X49160858Y-76400045D01*
X49160861Y-76400047D01*
X49347266Y-76530568D01*
X49405865Y-76557893D01*
X49458305Y-76604065D01*
X49477457Y-76671258D01*
X49457242Y-76738139D01*
X49405867Y-76782657D01*
X49347515Y-76809867D01*
X49161179Y-76940342D01*
X49041681Y-77059841D01*
X48980358Y-77093326D01*
X48910666Y-77088342D01*
X48854733Y-77046470D01*
X48830316Y-76981006D01*
X48830000Y-76972160D01*
X48830000Y-76368549D01*
X48849685Y-76301510D01*
X48902489Y-76255755D01*
X48971647Y-76245811D01*
X49035203Y-76274836D01*
G37*
%TD.AperFunction*%
%TA.AperFunction,NonConductor*%
G36*
X103967877Y-52092224D02*
G01*
X103967904Y-52091939D01*
X103975660Y-52092671D01*
X103975667Y-52092673D01*
X104044814Y-52090500D01*
X104074350Y-52090500D01*
X104075863Y-52090500D01*
X104142902Y-52110185D01*
X104188657Y-52162989D01*
X104198601Y-52232147D01*
X104195638Y-52246593D01*
X104164366Y-52363302D01*
X104164364Y-52363313D01*
X104148906Y-52540000D01*
X104144532Y-52590000D01*
X104164364Y-52816686D01*
X104164365Y-52816691D01*
X104164366Y-52816697D01*
X104182680Y-52885048D01*
X104181017Y-52954897D01*
X104150586Y-53004821D01*
X103862226Y-53293182D01*
X103800906Y-53326666D01*
X103774547Y-53329500D01*
X99114750Y-53329500D01*
X99047711Y-53309815D01*
X99001956Y-53257011D01*
X98992012Y-53187853D01*
X99002368Y-53153095D01*
X99012915Y-53130475D01*
X99056739Y-53036496D01*
X99115635Y-52816692D01*
X99135468Y-52590000D01*
X99115635Y-52363308D01*
X99102236Y-52313302D01*
X99084362Y-52246593D01*
X99086025Y-52176743D01*
X99125188Y-52118881D01*
X99189417Y-52091377D01*
X99204137Y-52090500D01*
X103952257Y-52090500D01*
X103967877Y-52092224D01*
G37*
%TD.AperFunction*%
%TA.AperFunction,NonConductor*%
G36*
X95425413Y-52092026D02*
G01*
X95445196Y-52095160D01*
X95491584Y-52090775D01*
X95497422Y-52090500D01*
X96455863Y-52090500D01*
X96522902Y-52110185D01*
X96568657Y-52162989D01*
X96578601Y-52232147D01*
X96575638Y-52246593D01*
X96544366Y-52363302D01*
X96544364Y-52363313D01*
X96524532Y-52589998D01*
X96524532Y-52590001D01*
X96544364Y-52816686D01*
X96544366Y-52816697D01*
X96603258Y-53036488D01*
X96603260Y-53036492D01*
X96603261Y-53036496D01*
X96627184Y-53087799D01*
X96657632Y-53153095D01*
X96668124Y-53222173D01*
X96639604Y-53285957D01*
X96581127Y-53324196D01*
X96545250Y-53329500D01*
X95725453Y-53329500D01*
X95658414Y-53309815D01*
X95637772Y-53293181D01*
X95299413Y-52954822D01*
X95265928Y-52893499D01*
X95267319Y-52835048D01*
X95272236Y-52816697D01*
X95285635Y-52766692D01*
X95305468Y-52540000D01*
X95285635Y-52313308D01*
X95267759Y-52246593D01*
X95269422Y-52176743D01*
X95308585Y-52118881D01*
X95372813Y-52091377D01*
X95387534Y-52090500D01*
X95406016Y-52090500D01*
X95425413Y-52092026D01*
G37*
%TD.AperFunction*%
%TA.AperFunction,NonConductor*%
G36*
X104017877Y-54582224D02*
G01*
X104017904Y-54581939D01*
X104025661Y-54582671D01*
X104025667Y-54582673D01*
X104085302Y-54580798D01*
X104152924Y-54598366D01*
X104200316Y-54649707D01*
X104212428Y-54718518D01*
X104208971Y-54736829D01*
X104164367Y-54903299D01*
X104164364Y-54903313D01*
X104148906Y-55080000D01*
X104144532Y-55130000D01*
X104164364Y-55356686D01*
X104164365Y-55356691D01*
X104164366Y-55356697D01*
X104182680Y-55425048D01*
X104181017Y-55494897D01*
X104150586Y-55544821D01*
X103862226Y-55833182D01*
X103800906Y-55866666D01*
X103774547Y-55869500D01*
X99114750Y-55869500D01*
X99047711Y-55849815D01*
X99001956Y-55797011D01*
X98992012Y-55727853D01*
X99002368Y-55693095D01*
X99012915Y-55670475D01*
X99056739Y-55576496D01*
X99115635Y-55356692D01*
X99135468Y-55130000D01*
X99115635Y-54903308D01*
X99070964Y-54736592D01*
X99072627Y-54666744D01*
X99111790Y-54608881D01*
X99176018Y-54581377D01*
X99190739Y-54580500D01*
X104002257Y-54580500D01*
X104017877Y-54582224D01*
G37*
%TD.AperFunction*%
%TA.AperFunction,NonConductor*%
G36*
X96536300Y-54600185D02*
G01*
X96582055Y-54652989D01*
X96591999Y-54722147D01*
X96589036Y-54736593D01*
X96544366Y-54903302D01*
X96544364Y-54903313D01*
X96524532Y-55129998D01*
X96524532Y-55130001D01*
X96544364Y-55356686D01*
X96544366Y-55356697D01*
X96603258Y-55576488D01*
X96603260Y-55576492D01*
X96603261Y-55576496D01*
X96627184Y-55627799D01*
X96657632Y-55693095D01*
X96668124Y-55762173D01*
X96639604Y-55825957D01*
X96581127Y-55864196D01*
X96545250Y-55869500D01*
X95725453Y-55869500D01*
X95658414Y-55849815D01*
X95637772Y-55833181D01*
X95299413Y-55494822D01*
X95265928Y-55433499D01*
X95267319Y-55375048D01*
X95272236Y-55356697D01*
X95285635Y-55306692D01*
X95305468Y-55080000D01*
X95285635Y-54853308D01*
X95255164Y-54739588D01*
X95256827Y-54669741D01*
X95295989Y-54611878D01*
X95360218Y-54584374D01*
X95394343Y-54585024D01*
X95395196Y-54585160D01*
X95441584Y-54580775D01*
X95447422Y-54580500D01*
X96469261Y-54580500D01*
X96536300Y-54600185D01*
G37*
%TD.AperFunction*%
%TA.AperFunction,NonConductor*%
G36*
X104017877Y-57122224D02*
G01*
X104017904Y-57121939D01*
X104025661Y-57122671D01*
X104025667Y-57122673D01*
X104085302Y-57120798D01*
X104152924Y-57138366D01*
X104200316Y-57189707D01*
X104212428Y-57258518D01*
X104208971Y-57276829D01*
X104164367Y-57443299D01*
X104164364Y-57443313D01*
X104148906Y-57620000D01*
X104144532Y-57670000D01*
X104164364Y-57896686D01*
X104164365Y-57896691D01*
X104164366Y-57896697D01*
X104182680Y-57965048D01*
X104181017Y-58034897D01*
X104150587Y-58084820D01*
X104102228Y-58133180D01*
X104040905Y-58166666D01*
X104014546Y-58169500D01*
X99204137Y-58169500D01*
X99137098Y-58149815D01*
X99091343Y-58097011D01*
X99081399Y-58027853D01*
X99084362Y-58013407D01*
X99098263Y-57961524D01*
X99115635Y-57896692D01*
X99135468Y-57670000D01*
X99115635Y-57443308D01*
X99070964Y-57276592D01*
X99072627Y-57206744D01*
X99111790Y-57148881D01*
X99176018Y-57121377D01*
X99190739Y-57120500D01*
X104002257Y-57120500D01*
X104017877Y-57122224D01*
G37*
%TD.AperFunction*%
%TA.AperFunction,NonConductor*%
G36*
X96536300Y-57140185D02*
G01*
X96582055Y-57192989D01*
X96591999Y-57262147D01*
X96589036Y-57276593D01*
X96544366Y-57443302D01*
X96544364Y-57443313D01*
X96524532Y-57669998D01*
X96524532Y-57670001D01*
X96544364Y-57896686D01*
X96544366Y-57896697D01*
X96575638Y-58013407D01*
X96573975Y-58083257D01*
X96534812Y-58141119D01*
X96470583Y-58168623D01*
X96455863Y-58169500D01*
X95485452Y-58169500D01*
X95418413Y-58149815D01*
X95397776Y-58133185D01*
X95299411Y-58034820D01*
X95265928Y-57973498D01*
X95267319Y-57915048D01*
X95272236Y-57896697D01*
X95285635Y-57846692D01*
X95305468Y-57620000D01*
X95285635Y-57393308D01*
X95255164Y-57279588D01*
X95256827Y-57209741D01*
X95295989Y-57151878D01*
X95360218Y-57124374D01*
X95394343Y-57125024D01*
X95395196Y-57125160D01*
X95441584Y-57120775D01*
X95447422Y-57120500D01*
X96469261Y-57120500D01*
X96536300Y-57140185D01*
G37*
%TD.AperFunction*%
%TA.AperFunction,NonConductor*%
G36*
X104255605Y-59440185D02*
G01*
X104301360Y-59492989D01*
X104311304Y-59562147D01*
X104300948Y-59596904D01*
X104246577Y-59713504D01*
X104223262Y-59763502D01*
X104223258Y-59763511D01*
X104164366Y-59983302D01*
X104164364Y-59983313D01*
X104148906Y-60160000D01*
X104144532Y-60210000D01*
X104164364Y-60436686D01*
X104164365Y-60436691D01*
X104164366Y-60436697D01*
X104182680Y-60505048D01*
X104181017Y-60574897D01*
X104150586Y-60624821D01*
X103862226Y-60913182D01*
X103800906Y-60946666D01*
X103774547Y-60949500D01*
X99114750Y-60949500D01*
X99047711Y-60929815D01*
X99001956Y-60877011D01*
X98992012Y-60807853D01*
X99002368Y-60773095D01*
X99012915Y-60750475D01*
X99056739Y-60656496D01*
X99115635Y-60436692D01*
X99135468Y-60210000D01*
X99115635Y-59983308D01*
X99056739Y-59763504D01*
X98979051Y-59596904D01*
X98968560Y-59527827D01*
X98997080Y-59464043D01*
X99055556Y-59425804D01*
X99091434Y-59420500D01*
X104188566Y-59420500D01*
X104255605Y-59440185D01*
G37*
%TD.AperFunction*%
%TA.AperFunction,NonConductor*%
G36*
X96635605Y-59440185D02*
G01*
X96681360Y-59492989D01*
X96691304Y-59562147D01*
X96680948Y-59596904D01*
X96626577Y-59713504D01*
X96603262Y-59763502D01*
X96603258Y-59763511D01*
X96544366Y-59983302D01*
X96544364Y-59983313D01*
X96524532Y-60209998D01*
X96524532Y-60210001D01*
X96544364Y-60436686D01*
X96544366Y-60436697D01*
X96603258Y-60656488D01*
X96603260Y-60656492D01*
X96603261Y-60656496D01*
X96627184Y-60707799D01*
X96657632Y-60773095D01*
X96668124Y-60842173D01*
X96639604Y-60905957D01*
X96581127Y-60944196D01*
X96545250Y-60949500D01*
X95725453Y-60949500D01*
X95658414Y-60929815D01*
X95637772Y-60913181D01*
X95299413Y-60574822D01*
X95265928Y-60513499D01*
X95267319Y-60455048D01*
X95272236Y-60436697D01*
X95285635Y-60386692D01*
X95305468Y-60160000D01*
X95285635Y-59933308D01*
X95226739Y-59713504D01*
X95172368Y-59596905D01*
X95161876Y-59527827D01*
X95190396Y-59464043D01*
X95248873Y-59425804D01*
X95284750Y-59420500D01*
X96568566Y-59420500D01*
X96635605Y-59440185D01*
G37*
%TD.AperFunction*%
%TA.AperFunction,NonConductor*%
G36*
X104017877Y-62202224D02*
G01*
X104017904Y-62201939D01*
X104025661Y-62202671D01*
X104025667Y-62202673D01*
X104085302Y-62200798D01*
X104152924Y-62218366D01*
X104200316Y-62269707D01*
X104212428Y-62338518D01*
X104208971Y-62356829D01*
X104164367Y-62523299D01*
X104164364Y-62523313D01*
X104148906Y-62700000D01*
X104144532Y-62750000D01*
X104164364Y-62976686D01*
X104164365Y-62976691D01*
X104164366Y-62976697D01*
X104182680Y-63045048D01*
X104181017Y-63114897D01*
X104150586Y-63164821D01*
X103862226Y-63453182D01*
X103800906Y-63486666D01*
X103774547Y-63489500D01*
X99114750Y-63489500D01*
X99047711Y-63469815D01*
X99001956Y-63417011D01*
X98992012Y-63347853D01*
X99002368Y-63313095D01*
X99012915Y-63290475D01*
X99056739Y-63196496D01*
X99115635Y-62976692D01*
X99135468Y-62750000D01*
X99115635Y-62523308D01*
X99070964Y-62356592D01*
X99072627Y-62286744D01*
X99111790Y-62228881D01*
X99176018Y-62201377D01*
X99190739Y-62200500D01*
X104002257Y-62200500D01*
X104017877Y-62202224D01*
G37*
%TD.AperFunction*%
%TA.AperFunction,NonConductor*%
G36*
X96536300Y-62220185D02*
G01*
X96582055Y-62272989D01*
X96591999Y-62342147D01*
X96589036Y-62356593D01*
X96544366Y-62523302D01*
X96544364Y-62523313D01*
X96524532Y-62749998D01*
X96524532Y-62750001D01*
X96544364Y-62976686D01*
X96544366Y-62976697D01*
X96603258Y-63196488D01*
X96603260Y-63196492D01*
X96603261Y-63196496D01*
X96627184Y-63247799D01*
X96657632Y-63313095D01*
X96668124Y-63382173D01*
X96639604Y-63445957D01*
X96581127Y-63484196D01*
X96545250Y-63489500D01*
X95725453Y-63489500D01*
X95658414Y-63469815D01*
X95637772Y-63453181D01*
X95299413Y-63114822D01*
X95265928Y-63053499D01*
X95267319Y-62995048D01*
X95272236Y-62976697D01*
X95285635Y-62926692D01*
X95305468Y-62700000D01*
X95285635Y-62473308D01*
X95255164Y-62359588D01*
X95256827Y-62289741D01*
X95295989Y-62231878D01*
X95360218Y-62204374D01*
X95394343Y-62205024D01*
X95395196Y-62205160D01*
X95441584Y-62200775D01*
X95447422Y-62200500D01*
X96469261Y-62200500D01*
X96536300Y-62220185D01*
G37*
%TD.AperFunction*%
%TA.AperFunction,NonConductor*%
G36*
X104017877Y-64742224D02*
G01*
X104017904Y-64741939D01*
X104025661Y-64742671D01*
X104025667Y-64742673D01*
X104085302Y-64740798D01*
X104152924Y-64758366D01*
X104200316Y-64809707D01*
X104212428Y-64878518D01*
X104208971Y-64896829D01*
X104164367Y-65063299D01*
X104164364Y-65063313D01*
X104148906Y-65240000D01*
X104144532Y-65290000D01*
X104164364Y-65516686D01*
X104164365Y-65516691D01*
X104164366Y-65516697D01*
X104182680Y-65585048D01*
X104181017Y-65654897D01*
X104150587Y-65704820D01*
X104102228Y-65753180D01*
X104040905Y-65786666D01*
X104014546Y-65789500D01*
X99204137Y-65789500D01*
X99137098Y-65769815D01*
X99091343Y-65717011D01*
X99081399Y-65647853D01*
X99084362Y-65633407D01*
X99098263Y-65581524D01*
X99115635Y-65516692D01*
X99135468Y-65290000D01*
X99115635Y-65063308D01*
X99070964Y-64896592D01*
X99072627Y-64826744D01*
X99111790Y-64768881D01*
X99176018Y-64741377D01*
X99190739Y-64740500D01*
X104002257Y-64740500D01*
X104017877Y-64742224D01*
G37*
%TD.AperFunction*%
%TA.AperFunction,NonConductor*%
G36*
X96536300Y-64760185D02*
G01*
X96582055Y-64812989D01*
X96591999Y-64882147D01*
X96589036Y-64896593D01*
X96544366Y-65063302D01*
X96544364Y-65063313D01*
X96524532Y-65289998D01*
X96524532Y-65290001D01*
X96544364Y-65516686D01*
X96544366Y-65516697D01*
X96575638Y-65633407D01*
X96573975Y-65703257D01*
X96534812Y-65761119D01*
X96470583Y-65788623D01*
X96455863Y-65789500D01*
X95485452Y-65789500D01*
X95418413Y-65769815D01*
X95397776Y-65753185D01*
X95299411Y-65654820D01*
X95265928Y-65593498D01*
X95267319Y-65535048D01*
X95272236Y-65516697D01*
X95285635Y-65466692D01*
X95305468Y-65240000D01*
X95285635Y-65013308D01*
X95255164Y-64899588D01*
X95256827Y-64829741D01*
X95295989Y-64771878D01*
X95360218Y-64744374D01*
X95394343Y-64745024D01*
X95395196Y-64745160D01*
X95441584Y-64740775D01*
X95447422Y-64740500D01*
X96469261Y-64740500D01*
X96536300Y-64760185D01*
G37*
%TD.AperFunction*%
%TA.AperFunction,NonConductor*%
G36*
X104255605Y-67060185D02*
G01*
X104301360Y-67112989D01*
X104311304Y-67182147D01*
X104300948Y-67216904D01*
X104246577Y-67333504D01*
X104223262Y-67383502D01*
X104223258Y-67383511D01*
X104164366Y-67603302D01*
X104164364Y-67603313D01*
X104148906Y-67780000D01*
X104144532Y-67830000D01*
X104164364Y-68056686D01*
X104164365Y-68056691D01*
X104164366Y-68056697D01*
X104182680Y-68125048D01*
X104181017Y-68194897D01*
X104150587Y-68244820D01*
X104102228Y-68293180D01*
X104040905Y-68326666D01*
X104014546Y-68329500D01*
X99204137Y-68329500D01*
X99137098Y-68309815D01*
X99091343Y-68257011D01*
X99081399Y-68187853D01*
X99084362Y-68173407D01*
X99098263Y-68121524D01*
X99115635Y-68056692D01*
X99135468Y-67830000D01*
X99115635Y-67603308D01*
X99056739Y-67383504D01*
X98979051Y-67216904D01*
X98968560Y-67147827D01*
X98997080Y-67084043D01*
X99055556Y-67045804D01*
X99091434Y-67040500D01*
X104188566Y-67040500D01*
X104255605Y-67060185D01*
G37*
%TD.AperFunction*%
%TA.AperFunction,NonConductor*%
G36*
X96635605Y-67060185D02*
G01*
X96681360Y-67112989D01*
X96691304Y-67182147D01*
X96680948Y-67216904D01*
X96626577Y-67333504D01*
X96603262Y-67383502D01*
X96603258Y-67383511D01*
X96544366Y-67603302D01*
X96544364Y-67603313D01*
X96524532Y-67829998D01*
X96524532Y-67830001D01*
X96544364Y-68056686D01*
X96544366Y-68056697D01*
X96575638Y-68173407D01*
X96573975Y-68243257D01*
X96534812Y-68301119D01*
X96470583Y-68328623D01*
X96455863Y-68329500D01*
X95485452Y-68329500D01*
X95418413Y-68309815D01*
X95397776Y-68293185D01*
X95299411Y-68194820D01*
X95265928Y-68133498D01*
X95267319Y-68075048D01*
X95272236Y-68056697D01*
X95285635Y-68006692D01*
X95305468Y-67780000D01*
X95285635Y-67553308D01*
X95226739Y-67333504D01*
X95172368Y-67216905D01*
X95161876Y-67147827D01*
X95190396Y-67084043D01*
X95248873Y-67045804D01*
X95284750Y-67040500D01*
X96568566Y-67040500D01*
X96635605Y-67060185D01*
G37*
%TD.AperFunction*%
%TA.AperFunction,NonConductor*%
G36*
X104255605Y-69600185D02*
G01*
X104301360Y-69652989D01*
X104311304Y-69722147D01*
X104300948Y-69756904D01*
X104246577Y-69873504D01*
X104223262Y-69923502D01*
X104223258Y-69923511D01*
X104164366Y-70143302D01*
X104164364Y-70143313D01*
X104148906Y-70320000D01*
X104144532Y-70370000D01*
X104164364Y-70596686D01*
X104164365Y-70596691D01*
X104164366Y-70596697D01*
X104182680Y-70665048D01*
X104181017Y-70734897D01*
X104150587Y-70784820D01*
X104102228Y-70833180D01*
X104040905Y-70866666D01*
X104014546Y-70869500D01*
X99204137Y-70869500D01*
X99137098Y-70849815D01*
X99091343Y-70797011D01*
X99081399Y-70727853D01*
X99084362Y-70713407D01*
X99098263Y-70661524D01*
X99115635Y-70596692D01*
X99135468Y-70370000D01*
X99115635Y-70143308D01*
X99056739Y-69923504D01*
X98979051Y-69756904D01*
X98968560Y-69687827D01*
X98997080Y-69624043D01*
X99055556Y-69585804D01*
X99091434Y-69580500D01*
X104188566Y-69580500D01*
X104255605Y-69600185D01*
G37*
%TD.AperFunction*%
%TA.AperFunction,NonConductor*%
G36*
X96635605Y-69600185D02*
G01*
X96681360Y-69652989D01*
X96691304Y-69722147D01*
X96680948Y-69756904D01*
X96626577Y-69873504D01*
X96603262Y-69923502D01*
X96603258Y-69923511D01*
X96544366Y-70143302D01*
X96544364Y-70143313D01*
X96524532Y-70369998D01*
X96524532Y-70370001D01*
X96544364Y-70596686D01*
X96544366Y-70596697D01*
X96575638Y-70713407D01*
X96573975Y-70783257D01*
X96534812Y-70841119D01*
X96470583Y-70868623D01*
X96455863Y-70869500D01*
X95485452Y-70869500D01*
X95418413Y-70849815D01*
X95397776Y-70833185D01*
X95299411Y-70734820D01*
X95265928Y-70673498D01*
X95267319Y-70615048D01*
X95272236Y-70596697D01*
X95285635Y-70546692D01*
X95305468Y-70320000D01*
X95285635Y-70093308D01*
X95226739Y-69873504D01*
X95172368Y-69756905D01*
X95161876Y-69687827D01*
X95190396Y-69624043D01*
X95248873Y-69585804D01*
X95284750Y-69580500D01*
X96568566Y-69580500D01*
X96635605Y-69600185D01*
G37*
%TD.AperFunction*%
%TA.AperFunction,NonConductor*%
G36*
X104255605Y-72140185D02*
G01*
X104301360Y-72192989D01*
X104311304Y-72262147D01*
X104300948Y-72296904D01*
X104246577Y-72413504D01*
X104223262Y-72463502D01*
X104223258Y-72463511D01*
X104164366Y-72683302D01*
X104164364Y-72683313D01*
X104148906Y-72860000D01*
X104144532Y-72910000D01*
X104164364Y-73136686D01*
X104164365Y-73136691D01*
X104164366Y-73136697D01*
X104182680Y-73205048D01*
X104181017Y-73274897D01*
X104150587Y-73324820D01*
X104102228Y-73373180D01*
X104040905Y-73406666D01*
X104014546Y-73409500D01*
X99204137Y-73409500D01*
X99137098Y-73389815D01*
X99091343Y-73337011D01*
X99081399Y-73267853D01*
X99084362Y-73253407D01*
X99098263Y-73201524D01*
X99115635Y-73136692D01*
X99135468Y-72910000D01*
X99115635Y-72683308D01*
X99056739Y-72463504D01*
X98979051Y-72296904D01*
X98968560Y-72227827D01*
X98997080Y-72164043D01*
X99055556Y-72125804D01*
X99091434Y-72120500D01*
X104188566Y-72120500D01*
X104255605Y-72140185D01*
G37*
%TD.AperFunction*%
%TA.AperFunction,NonConductor*%
G36*
X96635605Y-72140185D02*
G01*
X96681360Y-72192989D01*
X96691304Y-72262147D01*
X96680948Y-72296904D01*
X96626577Y-72413504D01*
X96603262Y-72463502D01*
X96603258Y-72463511D01*
X96544366Y-72683302D01*
X96544364Y-72683313D01*
X96524532Y-72909998D01*
X96524532Y-72910001D01*
X96544364Y-73136686D01*
X96544366Y-73136697D01*
X96575638Y-73253407D01*
X96573975Y-73323257D01*
X96534812Y-73381119D01*
X96470583Y-73408623D01*
X96455863Y-73409500D01*
X95485452Y-73409500D01*
X95418413Y-73389815D01*
X95397776Y-73373185D01*
X95299411Y-73274820D01*
X95265928Y-73213498D01*
X95267319Y-73155048D01*
X95272236Y-73136697D01*
X95285635Y-73086692D01*
X95305468Y-72860000D01*
X95285635Y-72633308D01*
X95226739Y-72413504D01*
X95172368Y-72296905D01*
X95161876Y-72227827D01*
X95190396Y-72164043D01*
X95248873Y-72125804D01*
X95284750Y-72120500D01*
X96568566Y-72120500D01*
X96635605Y-72140185D01*
G37*
%TD.AperFunction*%
%TA.AperFunction,NonConductor*%
G36*
X104255605Y-74680185D02*
G01*
X104301360Y-74732989D01*
X104311304Y-74802147D01*
X104300948Y-74836904D01*
X104246577Y-74953504D01*
X104223262Y-75003502D01*
X104223258Y-75003511D01*
X104164366Y-75223302D01*
X104164364Y-75223313D01*
X104148906Y-75400000D01*
X104144532Y-75450000D01*
X104164364Y-75676686D01*
X104164365Y-75676691D01*
X104164366Y-75676697D01*
X104182680Y-75745048D01*
X104181017Y-75814897D01*
X104150587Y-75864820D01*
X104102228Y-75913180D01*
X104040905Y-75946666D01*
X104014546Y-75949500D01*
X99204137Y-75949500D01*
X99137098Y-75929815D01*
X99091343Y-75877011D01*
X99081399Y-75807853D01*
X99084362Y-75793407D01*
X99098263Y-75741524D01*
X99115635Y-75676692D01*
X99135468Y-75450000D01*
X99115635Y-75223308D01*
X99056739Y-75003504D01*
X98979051Y-74836904D01*
X98968560Y-74767827D01*
X98997080Y-74704043D01*
X99055556Y-74665804D01*
X99091434Y-74660500D01*
X104188566Y-74660500D01*
X104255605Y-74680185D01*
G37*
%TD.AperFunction*%
%TA.AperFunction,NonConductor*%
G36*
X96635605Y-74680185D02*
G01*
X96681360Y-74732989D01*
X96691304Y-74802147D01*
X96680948Y-74836904D01*
X96626577Y-74953504D01*
X96603262Y-75003502D01*
X96603258Y-75003511D01*
X96544366Y-75223302D01*
X96544364Y-75223313D01*
X96524532Y-75449998D01*
X96524532Y-75450001D01*
X96544364Y-75676686D01*
X96544366Y-75676697D01*
X96575638Y-75793407D01*
X96573975Y-75863257D01*
X96534812Y-75921119D01*
X96470583Y-75948623D01*
X96455863Y-75949500D01*
X95485452Y-75949500D01*
X95418413Y-75929815D01*
X95397776Y-75913185D01*
X95299411Y-75814820D01*
X95265928Y-75753498D01*
X95267319Y-75695048D01*
X95272236Y-75676697D01*
X95285635Y-75626692D01*
X95305468Y-75400000D01*
X95285635Y-75173308D01*
X95226739Y-74953504D01*
X95172368Y-74836905D01*
X95161876Y-74767827D01*
X95190396Y-74704043D01*
X95248873Y-74665804D01*
X95284750Y-74660500D01*
X96568566Y-74660500D01*
X96635605Y-74680185D01*
G37*
%TD.AperFunction*%
%TA.AperFunction,NonConductor*%
G36*
X81967877Y-52092224D02*
G01*
X81967904Y-52091939D01*
X81975660Y-52092671D01*
X81975667Y-52092673D01*
X82044814Y-52090500D01*
X82074350Y-52090500D01*
X82075863Y-52090500D01*
X82142902Y-52110185D01*
X82188657Y-52162989D01*
X82198601Y-52232147D01*
X82195638Y-52246593D01*
X82164366Y-52363302D01*
X82164364Y-52363313D01*
X82148906Y-52540000D01*
X82144532Y-52590000D01*
X82164364Y-52816686D01*
X82164365Y-52816691D01*
X82164366Y-52816697D01*
X82182680Y-52885048D01*
X82181017Y-52954897D01*
X82150586Y-53004821D01*
X81862226Y-53293182D01*
X81800906Y-53326666D01*
X81774547Y-53329500D01*
X77114750Y-53329500D01*
X77047711Y-53309815D01*
X77001956Y-53257011D01*
X76992012Y-53187853D01*
X77002368Y-53153095D01*
X77012915Y-53130475D01*
X77056739Y-53036496D01*
X77115635Y-52816692D01*
X77135468Y-52590000D01*
X77115635Y-52363308D01*
X77102236Y-52313302D01*
X77084362Y-52246593D01*
X77086025Y-52176743D01*
X77125188Y-52118881D01*
X77189417Y-52091377D01*
X77204137Y-52090500D01*
X81952257Y-52090500D01*
X81967877Y-52092224D01*
G37*
%TD.AperFunction*%
%TA.AperFunction,NonConductor*%
G36*
X73425413Y-52092026D02*
G01*
X73445196Y-52095160D01*
X73491584Y-52090775D01*
X73497422Y-52090500D01*
X74455863Y-52090500D01*
X74522902Y-52110185D01*
X74568657Y-52162989D01*
X74578601Y-52232147D01*
X74575638Y-52246593D01*
X74544366Y-52363302D01*
X74544364Y-52363313D01*
X74524532Y-52589998D01*
X74524532Y-52590001D01*
X74544364Y-52816686D01*
X74544366Y-52816697D01*
X74603258Y-53036488D01*
X74603260Y-53036492D01*
X74603261Y-53036496D01*
X74627184Y-53087799D01*
X74657632Y-53153095D01*
X74668124Y-53222173D01*
X74639604Y-53285957D01*
X74581127Y-53324196D01*
X74545250Y-53329500D01*
X73725453Y-53329500D01*
X73658414Y-53309815D01*
X73637772Y-53293181D01*
X73299413Y-52954822D01*
X73265928Y-52893499D01*
X73267319Y-52835048D01*
X73272236Y-52816697D01*
X73285635Y-52766692D01*
X73305468Y-52540000D01*
X73285635Y-52313308D01*
X73267759Y-52246593D01*
X73269422Y-52176743D01*
X73308585Y-52118881D01*
X73372813Y-52091377D01*
X73387534Y-52090500D01*
X73406016Y-52090500D01*
X73425413Y-52092026D01*
G37*
%TD.AperFunction*%
%TA.AperFunction,NonConductor*%
G36*
X82017877Y-54582224D02*
G01*
X82017904Y-54581939D01*
X82025661Y-54582671D01*
X82025667Y-54582673D01*
X82085302Y-54580798D01*
X82152924Y-54598366D01*
X82200316Y-54649707D01*
X82212428Y-54718518D01*
X82208971Y-54736829D01*
X82164367Y-54903299D01*
X82164364Y-54903313D01*
X82148906Y-55080000D01*
X82144532Y-55130000D01*
X82164364Y-55356686D01*
X82164365Y-55356691D01*
X82164366Y-55356697D01*
X82182680Y-55425048D01*
X82181017Y-55494897D01*
X82150586Y-55544821D01*
X81862226Y-55833182D01*
X81800906Y-55866666D01*
X81774547Y-55869500D01*
X77114750Y-55869500D01*
X77047711Y-55849815D01*
X77001956Y-55797011D01*
X76992012Y-55727853D01*
X77002368Y-55693095D01*
X77012915Y-55670475D01*
X77056739Y-55576496D01*
X77115635Y-55356692D01*
X77135468Y-55130000D01*
X77115635Y-54903308D01*
X77070964Y-54736592D01*
X77072627Y-54666744D01*
X77111790Y-54608881D01*
X77176018Y-54581377D01*
X77190739Y-54580500D01*
X82002257Y-54580500D01*
X82017877Y-54582224D01*
G37*
%TD.AperFunction*%
%TA.AperFunction,NonConductor*%
G36*
X74536300Y-54600185D02*
G01*
X74582055Y-54652989D01*
X74591999Y-54722147D01*
X74589036Y-54736593D01*
X74544366Y-54903302D01*
X74544364Y-54903313D01*
X74524532Y-55129998D01*
X74524532Y-55130001D01*
X74544364Y-55356686D01*
X74544366Y-55356697D01*
X74603258Y-55576488D01*
X74603260Y-55576492D01*
X74603261Y-55576496D01*
X74627184Y-55627799D01*
X74657632Y-55693095D01*
X74668124Y-55762173D01*
X74639604Y-55825957D01*
X74581127Y-55864196D01*
X74545250Y-55869500D01*
X73725453Y-55869500D01*
X73658414Y-55849815D01*
X73637772Y-55833181D01*
X73299413Y-55494822D01*
X73265928Y-55433499D01*
X73267319Y-55375048D01*
X73272236Y-55356697D01*
X73285635Y-55306692D01*
X73305468Y-55080000D01*
X73285635Y-54853308D01*
X73255164Y-54739588D01*
X73256827Y-54669741D01*
X73295989Y-54611878D01*
X73360218Y-54584374D01*
X73394343Y-54585024D01*
X73395196Y-54585160D01*
X73441584Y-54580775D01*
X73447422Y-54580500D01*
X74469261Y-54580500D01*
X74536300Y-54600185D01*
G37*
%TD.AperFunction*%
%TA.AperFunction,NonConductor*%
G36*
X82017877Y-57122224D02*
G01*
X82017904Y-57121939D01*
X82025661Y-57122671D01*
X82025667Y-57122673D01*
X82085302Y-57120798D01*
X82152924Y-57138366D01*
X82200316Y-57189707D01*
X82212428Y-57258518D01*
X82208971Y-57276829D01*
X82164367Y-57443299D01*
X82164364Y-57443313D01*
X82148906Y-57620000D01*
X82144532Y-57670000D01*
X82164364Y-57896686D01*
X82164365Y-57896691D01*
X82164366Y-57896697D01*
X82182680Y-57965048D01*
X82181017Y-58034897D01*
X82150587Y-58084820D01*
X82102228Y-58133180D01*
X82040905Y-58166666D01*
X82014546Y-58169500D01*
X77204137Y-58169500D01*
X77137098Y-58149815D01*
X77091343Y-58097011D01*
X77081399Y-58027853D01*
X77084362Y-58013407D01*
X77098263Y-57961524D01*
X77115635Y-57896692D01*
X77135468Y-57670000D01*
X77115635Y-57443308D01*
X77070964Y-57276592D01*
X77072627Y-57206744D01*
X77111790Y-57148881D01*
X77176018Y-57121377D01*
X77190739Y-57120500D01*
X82002257Y-57120500D01*
X82017877Y-57122224D01*
G37*
%TD.AperFunction*%
%TA.AperFunction,NonConductor*%
G36*
X74536300Y-57140185D02*
G01*
X74582055Y-57192989D01*
X74591999Y-57262147D01*
X74589036Y-57276593D01*
X74544366Y-57443302D01*
X74544364Y-57443313D01*
X74524532Y-57669998D01*
X74524532Y-57670001D01*
X74544364Y-57896686D01*
X74544366Y-57896697D01*
X74575638Y-58013407D01*
X74573975Y-58083257D01*
X74534812Y-58141119D01*
X74470583Y-58168623D01*
X74455863Y-58169500D01*
X73485452Y-58169500D01*
X73418413Y-58149815D01*
X73397776Y-58133185D01*
X73299411Y-58034820D01*
X73265928Y-57973498D01*
X73267319Y-57915048D01*
X73272236Y-57896697D01*
X73285635Y-57846692D01*
X73305468Y-57620000D01*
X73285635Y-57393308D01*
X73255164Y-57279588D01*
X73256827Y-57209741D01*
X73295989Y-57151878D01*
X73360218Y-57124374D01*
X73394343Y-57125024D01*
X73395196Y-57125160D01*
X73441584Y-57120775D01*
X73447422Y-57120500D01*
X74469261Y-57120500D01*
X74536300Y-57140185D01*
G37*
%TD.AperFunction*%
%TA.AperFunction,NonConductor*%
G36*
X82255605Y-59440185D02*
G01*
X82301360Y-59492989D01*
X82311304Y-59562147D01*
X82300948Y-59596904D01*
X82246577Y-59713504D01*
X82223262Y-59763502D01*
X82223258Y-59763511D01*
X82164366Y-59983302D01*
X82164364Y-59983313D01*
X82148906Y-60160000D01*
X82144532Y-60210000D01*
X82164364Y-60436686D01*
X82164365Y-60436691D01*
X82164366Y-60436697D01*
X82182680Y-60505048D01*
X82181017Y-60574897D01*
X82150586Y-60624821D01*
X81862226Y-60913182D01*
X81800906Y-60946666D01*
X81774547Y-60949500D01*
X77114750Y-60949500D01*
X77047711Y-60929815D01*
X77001956Y-60877011D01*
X76992012Y-60807853D01*
X77002368Y-60773095D01*
X77012915Y-60750475D01*
X77056739Y-60656496D01*
X77115635Y-60436692D01*
X77135468Y-60210000D01*
X77115635Y-59983308D01*
X77056739Y-59763504D01*
X76979051Y-59596904D01*
X76968560Y-59527827D01*
X76997080Y-59464043D01*
X77055556Y-59425804D01*
X77091434Y-59420500D01*
X82188566Y-59420500D01*
X82255605Y-59440185D01*
G37*
%TD.AperFunction*%
%TA.AperFunction,NonConductor*%
G36*
X74635605Y-59440185D02*
G01*
X74681360Y-59492989D01*
X74691304Y-59562147D01*
X74680948Y-59596904D01*
X74626577Y-59713504D01*
X74603262Y-59763502D01*
X74603258Y-59763511D01*
X74544366Y-59983302D01*
X74544364Y-59983313D01*
X74524532Y-60209998D01*
X74524532Y-60210001D01*
X74544364Y-60436686D01*
X74544366Y-60436697D01*
X74603258Y-60656488D01*
X74603260Y-60656492D01*
X74603261Y-60656496D01*
X74627184Y-60707799D01*
X74657632Y-60773095D01*
X74668124Y-60842173D01*
X74639604Y-60905957D01*
X74581127Y-60944196D01*
X74545250Y-60949500D01*
X73725453Y-60949500D01*
X73658414Y-60929815D01*
X73637772Y-60913181D01*
X73299413Y-60574822D01*
X73265928Y-60513499D01*
X73267319Y-60455048D01*
X73272236Y-60436697D01*
X73285635Y-60386692D01*
X73305468Y-60160000D01*
X73285635Y-59933308D01*
X73226739Y-59713504D01*
X73172368Y-59596905D01*
X73161876Y-59527827D01*
X73190396Y-59464043D01*
X73248873Y-59425804D01*
X73284750Y-59420500D01*
X74568566Y-59420500D01*
X74635605Y-59440185D01*
G37*
%TD.AperFunction*%
%TA.AperFunction,NonConductor*%
G36*
X82017877Y-62202224D02*
G01*
X82017904Y-62201939D01*
X82025661Y-62202671D01*
X82025667Y-62202673D01*
X82085302Y-62200798D01*
X82152924Y-62218366D01*
X82200316Y-62269707D01*
X82212428Y-62338518D01*
X82208971Y-62356829D01*
X82164367Y-62523299D01*
X82164364Y-62523313D01*
X82148906Y-62700000D01*
X82144532Y-62750000D01*
X82164364Y-62976686D01*
X82164365Y-62976691D01*
X82164366Y-62976697D01*
X82182680Y-63045048D01*
X82181017Y-63114897D01*
X82150586Y-63164821D01*
X81862226Y-63453182D01*
X81800906Y-63486666D01*
X81774547Y-63489500D01*
X77114750Y-63489500D01*
X77047711Y-63469815D01*
X77001956Y-63417011D01*
X76992012Y-63347853D01*
X77002368Y-63313095D01*
X77012915Y-63290475D01*
X77056739Y-63196496D01*
X77115635Y-62976692D01*
X77135468Y-62750000D01*
X77115635Y-62523308D01*
X77070964Y-62356592D01*
X77072627Y-62286744D01*
X77111790Y-62228881D01*
X77176018Y-62201377D01*
X77190739Y-62200500D01*
X82002257Y-62200500D01*
X82017877Y-62202224D01*
G37*
%TD.AperFunction*%
%TA.AperFunction,NonConductor*%
G36*
X74536300Y-62220185D02*
G01*
X74582055Y-62272989D01*
X74591999Y-62342147D01*
X74589036Y-62356593D01*
X74544366Y-62523302D01*
X74544364Y-62523313D01*
X74524532Y-62749998D01*
X74524532Y-62750001D01*
X74544364Y-62976686D01*
X74544366Y-62976697D01*
X74603258Y-63196488D01*
X74603260Y-63196492D01*
X74603261Y-63196496D01*
X74627184Y-63247799D01*
X74657632Y-63313095D01*
X74668124Y-63382173D01*
X74639604Y-63445957D01*
X74581127Y-63484196D01*
X74545250Y-63489500D01*
X73725453Y-63489500D01*
X73658414Y-63469815D01*
X73637772Y-63453181D01*
X73299413Y-63114822D01*
X73265928Y-63053499D01*
X73267319Y-62995048D01*
X73272236Y-62976697D01*
X73285635Y-62926692D01*
X73305468Y-62700000D01*
X73285635Y-62473308D01*
X73255164Y-62359588D01*
X73256827Y-62289741D01*
X73295989Y-62231878D01*
X73360218Y-62204374D01*
X73394343Y-62205024D01*
X73395196Y-62205160D01*
X73441584Y-62200775D01*
X73447422Y-62200500D01*
X74469261Y-62200500D01*
X74536300Y-62220185D01*
G37*
%TD.AperFunction*%
%TA.AperFunction,NonConductor*%
G36*
X82017877Y-64742224D02*
G01*
X82017904Y-64741939D01*
X82025661Y-64742671D01*
X82025667Y-64742673D01*
X82085302Y-64740798D01*
X82152924Y-64758366D01*
X82200316Y-64809707D01*
X82212428Y-64878518D01*
X82208971Y-64896829D01*
X82164367Y-65063299D01*
X82164364Y-65063313D01*
X82148906Y-65240000D01*
X82144532Y-65290000D01*
X82164364Y-65516686D01*
X82164365Y-65516691D01*
X82164366Y-65516697D01*
X82182680Y-65585048D01*
X82181017Y-65654897D01*
X82150587Y-65704820D01*
X82102228Y-65753180D01*
X82040905Y-65786666D01*
X82014546Y-65789500D01*
X77204137Y-65789500D01*
X77137098Y-65769815D01*
X77091343Y-65717011D01*
X77081399Y-65647853D01*
X77084362Y-65633407D01*
X77098263Y-65581524D01*
X77115635Y-65516692D01*
X77135468Y-65290000D01*
X77115635Y-65063308D01*
X77070964Y-64896592D01*
X77072627Y-64826744D01*
X77111790Y-64768881D01*
X77176018Y-64741377D01*
X77190739Y-64740500D01*
X82002257Y-64740500D01*
X82017877Y-64742224D01*
G37*
%TD.AperFunction*%
%TA.AperFunction,NonConductor*%
G36*
X74536300Y-64760185D02*
G01*
X74582055Y-64812989D01*
X74591999Y-64882147D01*
X74589036Y-64896593D01*
X74544366Y-65063302D01*
X74544364Y-65063313D01*
X74524532Y-65289998D01*
X74524532Y-65290001D01*
X74544364Y-65516686D01*
X74544366Y-65516697D01*
X74575638Y-65633407D01*
X74573975Y-65703257D01*
X74534812Y-65761119D01*
X74470583Y-65788623D01*
X74455863Y-65789500D01*
X73485452Y-65789500D01*
X73418413Y-65769815D01*
X73397776Y-65753185D01*
X73299411Y-65654820D01*
X73265928Y-65593498D01*
X73267319Y-65535048D01*
X73272236Y-65516697D01*
X73285635Y-65466692D01*
X73305468Y-65240000D01*
X73285635Y-65013308D01*
X73255164Y-64899588D01*
X73256827Y-64829741D01*
X73295989Y-64771878D01*
X73360218Y-64744374D01*
X73394343Y-64745024D01*
X73395196Y-64745160D01*
X73441584Y-64740775D01*
X73447422Y-64740500D01*
X74469261Y-64740500D01*
X74536300Y-64760185D01*
G37*
%TD.AperFunction*%
%TA.AperFunction,NonConductor*%
G36*
X82255605Y-67060185D02*
G01*
X82301360Y-67112989D01*
X82311304Y-67182147D01*
X82300948Y-67216904D01*
X82246577Y-67333504D01*
X82223262Y-67383502D01*
X82223258Y-67383511D01*
X82164366Y-67603302D01*
X82164364Y-67603313D01*
X82148906Y-67780000D01*
X82144532Y-67830000D01*
X82164364Y-68056686D01*
X82164365Y-68056691D01*
X82164366Y-68056697D01*
X82182680Y-68125048D01*
X82181017Y-68194897D01*
X82150587Y-68244820D01*
X82102228Y-68293180D01*
X82040905Y-68326666D01*
X82014546Y-68329500D01*
X77204137Y-68329500D01*
X77137098Y-68309815D01*
X77091343Y-68257011D01*
X77081399Y-68187853D01*
X77084362Y-68173407D01*
X77098263Y-68121524D01*
X77115635Y-68056692D01*
X77135468Y-67830000D01*
X77115635Y-67603308D01*
X77056739Y-67383504D01*
X76979051Y-67216904D01*
X76968560Y-67147827D01*
X76997080Y-67084043D01*
X77055556Y-67045804D01*
X77091434Y-67040500D01*
X82188566Y-67040500D01*
X82255605Y-67060185D01*
G37*
%TD.AperFunction*%
%TA.AperFunction,NonConductor*%
G36*
X74635605Y-67060185D02*
G01*
X74681360Y-67112989D01*
X74691304Y-67182147D01*
X74680948Y-67216904D01*
X74626577Y-67333504D01*
X74603262Y-67383502D01*
X74603258Y-67383511D01*
X74544366Y-67603302D01*
X74544364Y-67603313D01*
X74524532Y-67829998D01*
X74524532Y-67830001D01*
X74544364Y-68056686D01*
X74544366Y-68056697D01*
X74575638Y-68173407D01*
X74573975Y-68243257D01*
X74534812Y-68301119D01*
X74470583Y-68328623D01*
X74455863Y-68329500D01*
X73485452Y-68329500D01*
X73418413Y-68309815D01*
X73397776Y-68293185D01*
X73299411Y-68194820D01*
X73265928Y-68133498D01*
X73267319Y-68075048D01*
X73272236Y-68056697D01*
X73285635Y-68006692D01*
X73305468Y-67780000D01*
X73285635Y-67553308D01*
X73226739Y-67333504D01*
X73172368Y-67216905D01*
X73161876Y-67147827D01*
X73190396Y-67084043D01*
X73248873Y-67045804D01*
X73284750Y-67040500D01*
X74568566Y-67040500D01*
X74635605Y-67060185D01*
G37*
%TD.AperFunction*%
%TA.AperFunction,NonConductor*%
G36*
X82255605Y-69600185D02*
G01*
X82301360Y-69652989D01*
X82311304Y-69722147D01*
X82300948Y-69756904D01*
X82246577Y-69873504D01*
X82223262Y-69923502D01*
X82223258Y-69923511D01*
X82164366Y-70143302D01*
X82164364Y-70143313D01*
X82148906Y-70320000D01*
X82144532Y-70370000D01*
X82164364Y-70596686D01*
X82164365Y-70596691D01*
X82164366Y-70596697D01*
X82182680Y-70665048D01*
X82181017Y-70734897D01*
X82150587Y-70784820D01*
X82102228Y-70833180D01*
X82040905Y-70866666D01*
X82014546Y-70869500D01*
X77204137Y-70869500D01*
X77137098Y-70849815D01*
X77091343Y-70797011D01*
X77081399Y-70727853D01*
X77084362Y-70713407D01*
X77098263Y-70661524D01*
X77115635Y-70596692D01*
X77135468Y-70370000D01*
X77115635Y-70143308D01*
X77056739Y-69923504D01*
X76979051Y-69756904D01*
X76968560Y-69687827D01*
X76997080Y-69624043D01*
X77055556Y-69585804D01*
X77091434Y-69580500D01*
X82188566Y-69580500D01*
X82255605Y-69600185D01*
G37*
%TD.AperFunction*%
%TA.AperFunction,NonConductor*%
G36*
X74635605Y-69600185D02*
G01*
X74681360Y-69652989D01*
X74691304Y-69722147D01*
X74680948Y-69756904D01*
X74626577Y-69873504D01*
X74603262Y-69923502D01*
X74603258Y-69923511D01*
X74544366Y-70143302D01*
X74544364Y-70143313D01*
X74524532Y-70369998D01*
X74524532Y-70370001D01*
X74544364Y-70596686D01*
X74544366Y-70596697D01*
X74575638Y-70713407D01*
X74573975Y-70783257D01*
X74534812Y-70841119D01*
X74470583Y-70868623D01*
X74455863Y-70869500D01*
X73485452Y-70869500D01*
X73418413Y-70849815D01*
X73397776Y-70833185D01*
X73299411Y-70734820D01*
X73265928Y-70673498D01*
X73267319Y-70615048D01*
X73272236Y-70596697D01*
X73285635Y-70546692D01*
X73305468Y-70320000D01*
X73285635Y-70093308D01*
X73226739Y-69873504D01*
X73172368Y-69756905D01*
X73161876Y-69687827D01*
X73190396Y-69624043D01*
X73248873Y-69585804D01*
X73284750Y-69580500D01*
X74568566Y-69580500D01*
X74635605Y-69600185D01*
G37*
%TD.AperFunction*%
%TA.AperFunction,NonConductor*%
G36*
X82255605Y-72140185D02*
G01*
X82301360Y-72192989D01*
X82311304Y-72262147D01*
X82300948Y-72296904D01*
X82246577Y-72413504D01*
X82223262Y-72463502D01*
X82223258Y-72463511D01*
X82164366Y-72683302D01*
X82164364Y-72683313D01*
X82148906Y-72860000D01*
X82144532Y-72910000D01*
X82164364Y-73136686D01*
X82164365Y-73136691D01*
X82164366Y-73136697D01*
X82182680Y-73205048D01*
X82181017Y-73274897D01*
X82150587Y-73324820D01*
X82102228Y-73373180D01*
X82040905Y-73406666D01*
X82014546Y-73409500D01*
X77204137Y-73409500D01*
X77137098Y-73389815D01*
X77091343Y-73337011D01*
X77081399Y-73267853D01*
X77084362Y-73253407D01*
X77098263Y-73201524D01*
X77115635Y-73136692D01*
X77135468Y-72910000D01*
X77115635Y-72683308D01*
X77056739Y-72463504D01*
X76979051Y-72296904D01*
X76968560Y-72227827D01*
X76997080Y-72164043D01*
X77055556Y-72125804D01*
X77091434Y-72120500D01*
X82188566Y-72120500D01*
X82255605Y-72140185D01*
G37*
%TD.AperFunction*%
%TA.AperFunction,NonConductor*%
G36*
X74635605Y-72140185D02*
G01*
X74681360Y-72192989D01*
X74691304Y-72262147D01*
X74680948Y-72296904D01*
X74626577Y-72413504D01*
X74603262Y-72463502D01*
X74603258Y-72463511D01*
X74544366Y-72683302D01*
X74544364Y-72683313D01*
X74524532Y-72909998D01*
X74524532Y-72910001D01*
X74544364Y-73136686D01*
X74544366Y-73136697D01*
X74575638Y-73253407D01*
X74573975Y-73323257D01*
X74534812Y-73381119D01*
X74470583Y-73408623D01*
X74455863Y-73409500D01*
X73485452Y-73409500D01*
X73418413Y-73389815D01*
X73397776Y-73373185D01*
X73299411Y-73274820D01*
X73265928Y-73213498D01*
X73267319Y-73155048D01*
X73272236Y-73136697D01*
X73285635Y-73086692D01*
X73305468Y-72860000D01*
X73285635Y-72633308D01*
X73226739Y-72413504D01*
X73172368Y-72296905D01*
X73161876Y-72227827D01*
X73190396Y-72164043D01*
X73248873Y-72125804D01*
X73284750Y-72120500D01*
X74568566Y-72120500D01*
X74635605Y-72140185D01*
G37*
%TD.AperFunction*%
%TA.AperFunction,NonConductor*%
G36*
X82255605Y-74680185D02*
G01*
X82301360Y-74732989D01*
X82311304Y-74802147D01*
X82300948Y-74836904D01*
X82246577Y-74953504D01*
X82223262Y-75003502D01*
X82223258Y-75003511D01*
X82164366Y-75223302D01*
X82164364Y-75223313D01*
X82148906Y-75400000D01*
X82144532Y-75450000D01*
X82164364Y-75676686D01*
X82164365Y-75676691D01*
X82164366Y-75676697D01*
X82182680Y-75745048D01*
X82181017Y-75814897D01*
X82150587Y-75864820D01*
X82102228Y-75913180D01*
X82040905Y-75946666D01*
X82014546Y-75949500D01*
X77204137Y-75949500D01*
X77137098Y-75929815D01*
X77091343Y-75877011D01*
X77081399Y-75807853D01*
X77084362Y-75793407D01*
X77098263Y-75741524D01*
X77115635Y-75676692D01*
X77135468Y-75450000D01*
X77115635Y-75223308D01*
X77056739Y-75003504D01*
X76979051Y-74836904D01*
X76968560Y-74767827D01*
X76997080Y-74704043D01*
X77055556Y-74665804D01*
X77091434Y-74660500D01*
X82188566Y-74660500D01*
X82255605Y-74680185D01*
G37*
%TD.AperFunction*%
%TA.AperFunction,NonConductor*%
G36*
X74635605Y-74680185D02*
G01*
X74681360Y-74732989D01*
X74691304Y-74802147D01*
X74680948Y-74836904D01*
X74626577Y-74953504D01*
X74603262Y-75003502D01*
X74603258Y-75003511D01*
X74544366Y-75223302D01*
X74544364Y-75223313D01*
X74524532Y-75449998D01*
X74524532Y-75450001D01*
X74544364Y-75676686D01*
X74544366Y-75676697D01*
X74575638Y-75793407D01*
X74573975Y-75863257D01*
X74534812Y-75921119D01*
X74470583Y-75948623D01*
X74455863Y-75949500D01*
X73485452Y-75949500D01*
X73418413Y-75929815D01*
X73397776Y-75913185D01*
X73299411Y-75814820D01*
X73265928Y-75753498D01*
X73267319Y-75695048D01*
X73272236Y-75676697D01*
X73285635Y-75626692D01*
X73305468Y-75400000D01*
X73285635Y-75173308D01*
X73226739Y-74953504D01*
X73172368Y-74836905D01*
X73161876Y-74767827D01*
X73190396Y-74704043D01*
X73248873Y-74665804D01*
X73284750Y-74660500D01*
X74568566Y-74660500D01*
X74635605Y-74680185D01*
G37*
%TD.AperFunction*%
M02*
